<?xml version="1.0" encoding="utf-8"?>
<!-- Generator: Adobe Illustrator 13.0.0, SVG Export Plug-In . SVG Version: 6.00 Build 14948)  -->
<!DOCTYPE svg [
	<!ENTITY ns_flows "http://ns.adobe.com/Flows/1.0/">
	<!ENTITY ns_extend "http://ns.adobe.com/Extensibility/1.0/">
	<!ENTITY ns_ai "http://ns.adobe.com/AdobeIllustrator/10.0/">
	<!ENTITY ns_graphs "http://ns.adobe.com/Graphs/1.0/">
	<!ENTITY ns_vars "http://ns.adobe.com/Variables/1.0/">
	<!ENTITY ns_imrep "http://ns.adobe.com/ImageReplacement/1.0/">
	<!ENTITY ns_sfw "http://ns.adobe.com/SaveForWeb/1.0/">
	<!ENTITY ns_custom "http://ns.adobe.com/GenericCustomNamespace/1.0/">
	<!ENTITY ns_adobe_xpath "http://ns.adobe.com/XPath/1.0/">
]>
<svg version="1.2" baseProfile="tiny" id="Layer_1" xmlns:x="&ns_extend;" xmlns:i="&ns_ai;" xmlns:graph="&ns_graphs;"
	 xmlns="http://www.w3.org/2000/svg" xmlns:xlink="http://www.w3.org/1999/xlink" xmlns:a="http://ns.adobe.com/AdobeSVGViewerExtensions/3.0/"
	 x="0px" y="0px" width="1249.503px" height="547.747px" viewBox="0 0 1249.503 547.747" xml:space="preserve">
<metadata>
	<sfw  xmlns="&ns_sfw;">
		<slices></slices>
		<sliceSourceBounds  x="335.746" y="265.626" width="1249.505" height="547.75" bottomLeftOrigin="true"></sliceSourceBounds>
	</sfw>
</metadata>
<g>
	<g>
		<path fill="#DB1F26" d="M377.885,24.065h187.801c42.346,0,74.632,3.245,96.857,9.727c29.846,8.812,55.42,24.455,76.713,46.922
			c21.293,22.477,37.492,49.992,48.604,82.537c11.105,32.555,16.662,72.69,16.662,120.417c0,41.938-5.215,78.09-15.627,108.434
			c-12.729,37.074-30.896,67.078-54.494,90.008c-17.824,17.383-41.891,30.938-72.209,40.664c-22.68,7.184-52.997,10.77-90.95,10.77
			H377.885V24.065z M480.846,110.458v336.695h76.75c28.708,0,49.428-1.619,62.168-4.855c16.669-4.16,30.501-11.205,41.503-21.145
			c10.994-9.939,19.963-26.295,26.914-49.066c6.943-22.772,10.42-53.812,10.42-93.105s-3.477-69.464-10.42-90.507
			c-6.951-21.034-16.678-37.446-29.18-49.234c-12.5-11.789-28.355-19.768-47.57-23.928c-14.357-3.236-42.492-4.854-84.395-4.854
			H480.846z"/>
		<path d="M373.742,537.683V24.065v-4.145h191.944c42.565,0.013,75.123,3.232,98.028,9.897l0,0
			c30.508,8.999,56.78,25.067,78.548,48.046l0,0c21.735,22.941,38.24,51.015,49.517,84.048l0,0
			c11.302,33.144,16.881,73.708,16.883,121.756l0,0c-0.002,42.276-5.25,78.874-15.852,109.777l0,0
			c-12.894,37.563-31.387,68.182-55.52,91.628l0,0c-18.396,17.938-43.066,31.771-73.851,41.646l0,0
			c-23.313,7.376-53.983,10.956-92.199,10.962l0,0H373.742L373.742,537.683z M382.026,529.401h189.215
			c37.689,0.007,67.652-3.584,89.684-10.571l0,0c29.867-9.583,53.328-22.858,70.587-39.69l0,0
			c23.058-22.408,40.899-51.8,53.464-88.383l0,0c10.224-29.787,15.403-65.492,15.401-107.087l0,0
			c0.004-47.41-5.53-87.115-16.439-119.081l0,0c-10.947-32.057-26.841-59.015-47.689-81.027l0,0
			c-20.819-21.954-45.697-37.173-74.867-45.795l0,0c-21.557-6.3-53.571-9.57-95.695-9.56l0,0h-183.66V529.401L382.026,529.401z
			 M476.702,451.294V110.458v-4.144h50.333c42.054,0.019,70.2,1.579,85.273,4.948l0,0c19.817,4.284,36.437,12.605,49.534,24.963l0,0
			c13.125,12.377,23.164,29.44,30.271,50.949l0,0c7.166,21.763,10.618,52.259,10.629,91.807l0,0
			c-0.006,39.541-3.474,70.908-10.6,94.313l0,0c-7.092,23.176-16.263,40.196-28.1,50.932l0,0
			c-11.564,10.451-26.068,17.8-43.259,22.084l0,0c-13.426,3.393-34.304,4.972-63.189,4.984l0,0H476.702L476.702,451.294z
			 M484.986,443.01h72.608c28.533,0.013,49.093-1.646,61.165-4.732l0,0c16.132-4.031,29.29-10.773,39.729-20.199l0,0
			c10.153-9.146,18.919-24.836,25.731-47.201l0,0c6.761-22.142,10.247-52.851,10.238-91.896l0,0
			c0.013-39.043-3.491-68.889-10.211-89.209l0,0c-6.795-20.56-16.21-36.322-28.089-47.52l0,0
			c-11.902-11.217-26.992-18.856-45.638-22.9l0,0c-13.608-3.094-41.731-4.771-83.484-4.751l0,0h-42.047L484.986,443.01
			L484.986,443.01z M480.846,114.601v-4.142V114.601L480.846,114.601z"/>
	</g>
</g>
<g>
	<g>
		<path fill="#8461A9" d="M769.093,436.428c20.459,12.277,43.885,18.416,70.275,18.416c41.145,0,74.918-14.813,101.307-44.443
			c26.387-29.625,39.59-74.078,39.59-133.344c0-58.563-12.852-102.249-38.535-131.068c-25.695-28.81-59.813-43.224-102.361-43.224
			c-42.547,0-76.852,14.59-102.887,43.751c-26.045,29.161-39.063,73.143-39.063,131.938c0,7.828,0.246,15.4,0.734,22.717
			c-1.523,32.752-4.482,119.342-66.846,137.545c-26.542-41.889-39.809-94.147-39.809-156.776c0-52.044,7.767-95.731,23.31-131.059
			c11.593-26.018,27.423-49.373,47.484-70.056c20.064-20.673,42.033-36.012,65.924-46.007c31.77-13.48,68.418-20.221,109.934-20.221
			c75.141,0,135.264,23.355,180.375,70.064c45.102,46.71,67.66,111.652,67.66,194.836c0,82.5-22.385,147.045-67.145,193.635
			c-44.766,46.59-104.596,69.879-179.506,69.879c-54.563,0-101.082-11.998-139.559-35.996
			C730.359,491.125,756.689,460.159,769.093,436.428z"/>
		<path d="M839.534,547.152c-55.157,0.007-102.519-12.149-141.75-36.624l0,0l-6.14-3.833l6.411-3.352
			c29.329-15.266,55.413-45.856,67.367-68.834l0,0l2.034-3.894l3.767,2.26c19.782,11.862,42.391,17.817,68.146,17.826l0,0
			c40.154-0.057,72.506-14.272,98.212-43.058l0,0c25.448-28.544,38.543-71.893,38.541-130.587l0,0
			c0.004-58.002-12.754-100.593-37.484-128.312l0,0c-24.955-27.908-57.637-41.785-99.269-41.839l0,0
			c-41.617,0.054-74.491,14.096-99.799,42.369l0,0c-25.096,28.068-38.013,70.948-38.01,129.177l0,0c0,7.74,0.243,15.221,0.726,22.44
			l0,0l0.015,0.227l-0.011,0.243c-0.573,12.271-1.345,32.357-5.446,53.701l0,0c-4.117,21.347-11.518,44.068-25.778,61.694l0,0
			c-9.497,11.737-22.152,21.145-38.598,25.933l0,0l-2.991,0.871l-1.667-2.631c-27.053-42.69-40.457-95.794-40.452-158.992l0,0
			c0.002-52.452,7.815-96.704,23.667-132.746l0,0c11.789-26.456,27.906-50.233,48.295-71.254l0,0
			c20.401-21.022,42.845-36.716,67.278-46.936l0,0c32.373-13.736,69.592-20.551,111.553-20.549l0,0
			c75.971-0.043,137.443,23.741,183.354,71.328l0,0c46.002,47.62,68.847,113.818,68.823,197.712l0,0
			c0.023,83.211-22.647,149.009-68.3,196.506l0,0c-45.527,47.434-106.645,71.152-182.296,71.151l0,0
			C839.667,547.152,839.598,547.152,839.534,547.152L839.534,547.152z M839.534,538.868c74.078-0.043,132.553-22.901,176.519-68.607
			l0,0c43.868-45.683,65.964-108.976,65.99-190.766l0,0c-0.026-82.473-22.298-146.158-66.498-191.957l0,0
			C971.231,41.706,912.458,18.78,838.15,18.739l0,0c-41.072,0-77.148,6.666-108.335,19.899l0,0
			c-23.33,9.762-44.824,24.747-64.549,45.069l0,0c-19.734,20.347-35.275,43.279-46.667,68.84l0,0
			c-15.243,34.634-22.963,77.753-22.958,129.392l0,0c0.004,60.705,12.569,111.228,37.482,151.859l0,0
			c13.268-4.514,23.452-12.346,31.506-22.256l0,0c8.63-10.638,14.709-23.713,18.96-37.377l0,0
			c8.481-27.198,9.663-56.513,10.415-72.934l0,0c-0.483-7.347-0.729-14.94-0.729-22.779l0,0
			c0.002-59.359,13.122-104.446,40.115-134.696l0,0c26.763-30.052,62.498-45.188,105.978-45.134l0,0
			c43.464-0.054,79.017,14.898,105.454,44.611l0,0c26.634,29.917,39.581,74.7,39.583,133.824l0,0
			c0,59.835-13.312,105.394-40.637,136.097l0,0c-27.071,30.476-62.267,45.887-104.4,45.832l0,0
			c-25.451,0.009-48.433-5.599-68.675-16.851l0,0c-12.54,22.145-35.39,48.759-62.48,64.995l0,0
			C744.739,528.239,788.419,538.862,839.534,538.868L839.534,538.868z"/>
	</g>
</g>
<g>
	<g>
		<path fill="#FDC20F" d="M979.435,301.87c-37.617-11.826-65.129-25.586-82.539-41.27c-31.213-28.117-46.813-62.391-46.813-102.832
			c0-26.027,7.342-50.371,22.023-73.032c14.684-22.652,35.838-39.914,63.473-51.767c27.627-11.853,60.984-17.779,100.066-17.779
			c63.814,0,111.848,14.136,144.105,42.41c32.248,28.274,49.188,66.015,50.813,113.215l-102.959,3.551
			c-4.383-26.277-13.785-45.175-28.209-56.695c-14.426-11.511-36.059-17.271-64.896-17.271c-0.691,0-1.379,0.004-2.063,0.01
			c-28.787,0.28-51.408,6.443-67.854,18.482c-10.855,7.915-16.273,18.491-16.273,31.75c0,12.103,5.086,22.458,15.266,31.056
			c0.309,0.261,0.627,0.521,0.957,0.782C981.746,225.39,982.158,269.471,979.435,301.87z M1082.177,221.946
			c37.871,9.975,66.764,20.219,86.666,30.73c23.945,12.648,42.678,29.948,56.213,51.877c13.535,21.941,20.305,49.041,20.305,81.309
			c0,29.254-8.109,56.648-24.326,82.186c-16.217,25.539-39.154,44.51-68.807,56.926c-29.652,12.418-66.598,18.633-110.848,18.633
			c-64.406,0-113.863-14.914-148.377-44.74c-34.523-29.828-55.143-73.301-61.854-130.412l100.002-9.47
			c6.02,33.591,18.232,58.259,36.65,74.015c18.416,15.754,43.26,23.623,74.529,23.623c33.119,0,58.082-7.008,74.873-21.043
			c16.791-14.027,25.193-30.43,25.193-49.207c0-12.057-3.531-22.311-10.576-30.779c-7.055-8.461-19.361-15.818-36.928-22.088
			c-2.98-1.037-6.902-2.271-11.771-3.709C1087.466,295.559,1087.566,260.942,1082.177,221.946z"/>
		<path d="M890.295,502c-35.457-30.613-56.49-75.247-63.261-133.064l0,0l-0.493-4.206L934.556,354.5l0.672,3.753
			c5.921,33.014,17.813,56.676,35.267,71.597l0,0c17.509,14.969,41.229,22.613,71.836,22.629l0,0
			c32.574,0.007,56.508-6.921,72.217-20.079l0,0c16.084-13.513,23.657-28.538,23.708-46.026l0,0
			c-0.024-11.261-3.217-20.4-9.615-28.129l0,0c-6.262-7.559-17.946-14.725-35.107-20.829l0,0c-2.881-1-6.755-2.222-11.583-3.649l0,0
			l-3.381-0.997l0.444-3.494c2.056-16.212,3.148-32.492,3.148-49.296l0,0c0-18.334-1.303-37.296-4.089-57.466l0,0l4.104-0.566
			l-4.104,0.566l-0.85-6.155l6.008,1.582c38.05,10.03,67.167,20.32,87.545,31.074l0,0c24.538,12.952,43.887,30.801,57.805,53.365
			l0,0c14.021,22.726,20.927,50.651,20.922,83.483l0,0c0.011,30.022-8.363,58.273-24.972,84.406l0,0
			c-16.658,26.261-40.366,45.838-70.703,58.525l0,0c-30.337,12.698-67.815,18.95-112.448,18.955l0,0
			C976.374,547.751,925.816,532.689,890.295,502L890.295,502z M895.711,495.729c33.505,28.966,81.861,43.728,145.668,43.734l0,0
			c43.867,0.002,80.279-6.175,109.247-18.312l0,0c28.967-12.145,51.135-30.509,66.911-55.325l0,0
			c15.824-24.943,23.67-51.48,23.681-79.966l0,0c-0.007-31.702-6.64-57.977-19.688-79.133l0,0
			c-13.153-21.297-31.271-38.045-54.622-50.39l0,0c-18.39-9.72-45.057-19.375-79.818-28.794l0,0
			c2.278,18.247,3.355,35.592,3.355,52.434l0,0c0,15.957-0.966,31.462-2.787,46.851l0,0c3.396,1.031,6.26,1.95,8.626,2.772l0,0
			c17.94,6.426,30.87,13.976,38.721,23.341l0,0c7.688,9.207,11.559,20.573,11.534,33.431l0,0
			c0.049,20.063-9.183,37.842-26.68,52.383l0,0c-17.873,14.913-43.866,22.002-77.529,22.006l0,0
			c-31.934,0.019-57.901-8.078-77.222-24.617l0,0c-18.668-15.977-30.981-40.381-37.332-72.681l0,0l-91.989,8.711
			C842.934,426.481,862.96,467.414,895.711,495.729L895.711,495.729z M978.193,305.821c-37.939-11.943-65.929-25.83-84.07-42.143
			l0,0c-31.979-28.735-48.234-64.389-48.181-105.91l0,0c-0.014-26.81,7.604-52.025,22.688-75.286l0,0
			c15.146-23.385,37.05-41.209,65.315-53.319l0,0c28.284-12.134,62.205-18.115,101.699-18.117l0,0
			c64.383,0.002,113.507,14.247,146.837,43.439l0,0c33.131,28.99,50.613,68.088,52.222,116.186l0,0l0.142,4.14l-110.729,3.819
			l-0.598-3.582c-4.287-25.69-13.363-43.495-26.705-54.14l0,0c-13.322-10.663-33.992-16.378-62.313-16.367l0,0
			c-0.677,0-1.35,0.004-2.022,0.011l0,0c-28.241,0.272-49.949,6.326-65.453,17.685l0,0c-9.912,7.334-14.487,16.287-14.572,28.403
			l0,0c0.056,10.911,4.372,19.854,13.798,27.895l0,0c0.271,0.228,0.556,0.46,0.854,0.697l0,0l0.862,0.684l0.41,1.022
			c12.782,31.87,16.448,64.238,16.45,92.105l0,0c0,10.437-0.518,20.247-1.264,29.171l0,0l-0.431,5.159L978.193,305.821
			L978.193,305.821z M979.434,301.869l1.243-3.951L979.434,301.869L979.434,301.869z M937.213,36.774
			c-27.005,11.596-47.409,28.294-61.632,50.212l0,0c-14.278,22.064-21.345,45.537-21.356,70.781l0,0
			c0.051,39.362,14.995,72.254,45.442,99.754l0,0c15.929,14.377,41.301,27.457,76.038,38.804l0,0
			c0.509-7.292,0.836-15.098,0.836-23.282l0,0c0.003-26.853-3.514-57.78-15.458-88.029l0,0c-0.061-0.05-0.121-0.101-0.181-0.151l0,0
			c-10.937-9.158-16.791-20.924-16.735-34.222l0,0c-0.084-14.399,6.177-26.6,17.968-35.091l0,0
			c17.394-12.723,40.929-18.995,70.261-19.281l0,0c0.695-0.007,1.396-0.011,2.103-0.011l0,0
			c29.354,0.011,51.949,5.817,67.481,18.177l0,0c14.807,11.837,24.348,30.604,29.073,55.668l0,0l95.183-3.283
			c-2.451-44.339-18.79-79.374-49.216-106.105l0,0c-31.184-27.356-78.129-41.384-141.376-41.382l0,0c-0.009,0-0.012,0-0.021,0l0,0
			C996.967,19.333,964.175,25.205,937.213,36.774L937.213,36.774z"/>
	</g>
</g>
<g>
	<path fill="#8461A9" d="M698.208,301.772"/>
	<path d="M698.208,301.772"/>
</g>
<g>
	<g>
		<path fill="#C0BFBF" d="M302.11,537.997H9.138v-88.531l199.844-53.157L9.138,343.749v-88.73H302.11v54.957H71.489l230.621,58.154
			v56.955L71.489,483.04H302.11V537.997z"/>
		<path d="M4.996,542.138V446.28l187.788-49.949L4.996,346.941v-96.065h301.256v63.239H104.853l201.399,50.788v63.409
			l-201.285,50.585h201.285v59.1v4.142H4.996L4.996,542.138z M302.109,537.997v-4.143V537.997L302.109,537.997z M13.28,340.552
			l211.907,55.729L13.28,452.647v81.207h284.688v-46.673H71.49l-1.011-8.159l227.488-57.169v-50.498L70.477,313.99l1.013-8.157
			l226.478-0.002v-46.672H13.28V340.552L13.28,340.552z"/>
	</g>
	<g>
		<path fill="#C0BFBF" d="M206.784,242.356l-5.596-57.555c19.319-3.463,33.508-10.492,42.567-21.083
			c9.062-10.592,13.589-24.88,13.589-42.867c0-19.051-4.028-33.405-12.091-43.066c-8.059-9.658-17.486-14.489-28.278-14.489
			c-6.926,0-12.821,2.033-17.686,6.095c-4.862,4.066-9.093,11.16-12.69,21.284c-2.398,6.929-6.66,22.716-12.79,47.363
			c-7.859,31.71-17.518,53.958-28.977,66.748c-16.119,17.986-35.772,26.979-58.954,26.979c-14.92,0-28.877-4.228-41.868-12.69
			c-12.99-8.459-22.882-20.649-29.677-36.572c-6.795-15.918-10.192-35.138-10.192-57.655c0-36.771,8.063-64.45,24.181-83.036
			c16.122-18.585,37.639-28.343,64.55-29.277l2.598,59.154c-15.054,2.532-25.88,7.962-32.475,16.287
			c-6.595,8.328-9.892,20.818-9.892,37.471c0,17.187,3.531,30.645,10.591,40.368c4.531,6.264,10.592,9.393,18.186,9.393
			c6.929,0,12.859-2.929,17.786-8.793c6.264-7.459,12.79-25.58,19.585-54.357c6.794-28.778,13.823-50.061,21.083-63.851
			c7.263-13.789,17.187-24.581,29.777-32.375c12.59-7.794,28.146-11.691,46.664-11.691c16.787,0,32.509,4.665,47.163,13.989
			c14.658,9.327,25.549,22.517,32.675,39.569c7.125,17.056,10.691,38.305,10.691,63.75c0,37.04-8.559,65.483-25.68,85.333
			C264.508,226.638,239.559,238.494,206.784,242.356z"/>
		<path d="M196.695,181.397l3.762-0.674c18.741-3.362,31.924-10.073,40.149-19.699l0,0c8.276-9.686,12.579-22.849,12.595-40.174l0,0
			c0.004-18.507-3.942-31.833-11.13-40.411l0,0c-7.544-8.95-15.593-12.952-25.097-13.001l0,0
			c-6.126,0.024-10.905,1.717-15.029,5.131l0,0c-3.961,3.27-8.002,9.741-11.432,19.459l0,0c-2.289,6.596-6.574,22.423-12.686,47.005
			l0,0c-7.968,32.037-17.671,54.787-29.912,68.516l0,0c-16.734,18.753-37.77,28.41-62.039,28.357l0,0
			c-15.706,0.012-30.539-4.494-44.128-13.36l0,0c-13.725-8.926-24.175-21.865-31.226-38.417l0,0
			C3.452,167.556,0,147.777-0.002,124.848l0,0c0.004-37.333,8.167-66.088,25.195-85.75l0,0C42.023,19.627,64.909,9.311,92.727,8.395
			l0,0l4.102-0.141l2.938,66.912l-3.61,0.608c-14.462,2.438-24.191,7.532-29.916,14.773l0,0c-5.754,7.221-9.008,18.759-8.996,34.899
			l0,0c-0.004,16.646,3.432,29.185,9.805,37.94l0,0c3.955,5.321,8.389,7.594,14.829,7.68l0,0c5.727-0.058,10.243-2.209,14.614-7.315
			l0,0c2.563-3.01,5.71-9.098,8.868-17.925l0,0c3.184-8.835,6.485-20.433,9.858-34.721l0,0c6.848-28.963,13.905-50.47,21.45-64.83
			l0,0c7.563-14.378,18.038-25.789,31.26-33.965l0,0c13.378-8.284,29.761-12.317,48.845-12.313l0,0
			c17.558-0.01,34.137,4.92,49.388,14.637l0,0c15.378,9.77,26.875,23.73,34.272,41.468l0,0
			c7.405,17.736,11.007,39.518,11.011,65.346l0,0c0.004,37.639-8.704,67.18-26.685,88.037l0,0
			c-17.9,20.79-44.013,33.061-77.493,36.983l0,0l-4.199,0.494L196.695,181.397L196.695,181.397z M206.785,242.356l4.121-0.401
			L206.785,242.356L206.785,242.356z M210.491,237.695c29.96-4.279,52.383-15.527,67.996-33.619l0,0
			c16.259-18.843,24.668-46.186,24.674-82.627l0,0c0.004-25.062-3.526-45.78-10.372-62.154l0,0
			c-6.854-16.366-17.141-28.787-31.076-37.671l0,0c-14.057-8.93-28.922-13.329-44.94-13.341l0,0
			c-17.95,0.006-32.678,3.766-44.482,11.071l0,0c-11.957,7.411-21.331,17.585-28.293,30.783l0,0
			c-6.975,13.223-13.977,34.283-20.716,62.873l0,0c-3.422,14.491-6.782,26.34-10.126,35.625l0,0
			c-3.369,9.294-6.618,15.997-10.319,20.445l0,0c-5.481,6.621-12.827,10.327-20.958,10.272l0,0
			c-8.745,0.084-16.436-3.901-21.538-11.102l0,0c-7.753-10.696-11.378-25.074-11.382-42.802l0,0
			c0.012-17.165,3.352-30.608,10.788-40.042l0,0c6.88-8.672,17.548-14.248,31.426-17.125l0,0l-2.257-51.383
			c-24.035,1.731-42.873,10.87-57.467,27.629l0,0C16.242,62.035,8.28,88.639,8.284,124.848l0,0
			c-0.002,22.105,3.34,40.766,9.858,56.029l0,0c6.541,15.292,15.872,26.734,28.127,34.727l0,0
			c12.393,8.057,25.476,12.007,39.608,12.018l0,0c22.095-0.051,40.366-8.382,55.869-25.601l0,0
			c10.678-11.852,20.296-33.596,28.043-64.983l0,0c6.149-24.707,10.389-40.456,12.907-47.751l0,0
			c3.752-10.497,8.172-18.214,13.938-23.076l0,0c5.602-4.708,12.614-7.082,20.341-7.057l0,0c12.079-0.051,22.886,5.61,31.457,15.976
			l0,0c8.94,10.743,13.048,26.125,13.055,45.72l0,0c0.014,18.65-4.737,34.062-14.585,45.559l0,0
			c-9.26,10.82-23.167,17.95-41.227,21.739l0,0L210.491,237.695L210.491,237.695z"/>
	</g>
</g>
</svg>
