<?xml version="1.0" encoding="utf-8"?>
<!-- Generator: Adobe Illustrator 13.0.0, SVG Export Plug-In . SVG Version: 6.00 Build 14948)  -->
<svg version="1.2" baseProfile="tiny" id="Layer_1" xmlns="http://www.w3.org/2000/svg" xmlns:xlink="http://www.w3.org/1999/xlink"
	 x="0px" y="0px" width="1249.503px" height="547.747px" viewBox="0 0 1249.503 547.747" xml:space="preserve">
<g>
	<path fill="#DB1F26" stroke="#000000" stroke-width="8.2842" d="M377.885,24.065h187.8c42.346,0,74.632,3.245,96.858,9.727
		c29.846,8.812,55.419,24.455,76.712,46.922c21.293,22.477,37.493,49.992,48.605,82.537c11.104,32.555,16.661,72.69,16.661,120.417
		c0,41.938-5.214,78.09-15.626,108.434c-12.73,37.075-30.898,67.078-54.494,90.008c-17.825,17.383-41.892,30.937-72.209,40.663
		c-22.681,7.185-52.998,10.771-90.951,10.771H377.885V24.065z M480.846,110.458v336.694h76.75c28.708,0,49.428-1.618,62.168-4.854
		c16.67-4.161,30.501-11.206,41.504-21.146c10.993-9.938,19.962-26.294,26.914-49.066c6.943-22.772,10.42-53.811,10.42-93.105
		s-3.477-69.464-10.42-90.507c-6.952-21.034-16.679-37.446-29.18-49.234c-12.5-11.789-28.356-19.768-47.57-23.928
		c-14.358-3.236-42.493-4.854-84.395-4.854H480.846z"/>
</g>
<g>
	<path fill="#8461A9" stroke="#000000" stroke-width="8.2842" d="M769.093,436.428c20.46,12.277,43.885,18.416,70.275,18.416
		c41.145,0,74.919-14.812,101.307-44.444c26.388-29.624,39.59-74.077,39.59-133.343c0-58.563-12.852-102.249-38.535-131.068
		c-25.695-28.81-59.813-43.224-102.361-43.224c-42.548,0-76.851,14.59-102.887,43.751c-26.045,29.161-39.063,73.143-39.063,131.937
		c0,7.829,0.246,15.401,0.734,22.717c-1.523,32.752-4.481,119.343-66.845,137.545c-26.542-41.889-39.809-94.147-39.809-156.776
		c0-52.044,7.767-95.731,23.309-131.059c11.594-26.018,27.423-49.373,47.485-70.056c20.063-20.673,42.032-36.012,65.923-46.007
		c31.769-13.48,68.419-20.221,109.934-20.221c75.14,0,135.264,23.355,180.374,70.064c45.102,46.71,67.661,111.652,67.661,194.837
		c0,82.5-22.384,147.045-67.144,193.635c-44.767,46.589-104.597,69.879-179.506,69.879c-54.562,0-101.082-11.999-139.559-35.997
		C730.359,491.125,756.69,460.159,769.093,436.428z"/>
</g>
<g>
	<path fill="#FDC20F" stroke="#000000" stroke-width="8.2842" d="M979.436,301.87c-37.618-11.827-65.13-25.587-82.54-41.27
		c-31.213-28.117-46.812-62.391-46.812-102.832c0-26.027,7.342-50.371,22.023-73.032c14.684-22.652,35.837-39.914,63.473-51.767
		c27.627-11.853,60.985-17.779,100.067-17.779c63.814,0,111.846,14.136,144.104,42.41c32.249,28.274,49.188,66.015,50.814,113.215
		l-102.96,3.551c-4.383-26.277-13.786-45.175-28.209-56.695c-14.425-11.511-36.059-17.271-64.896-17.271
		c-0.691,0-1.379,0.004-2.063,0.01c-28.787,0.28-51.408,6.443-67.854,18.482c-10.854,7.915-16.272,18.491-16.272,31.75
		c0,12.103,5.086,22.458,15.265,31.056c0.309,0.261,0.627,0.521,0.957,0.782C981.745,225.39,982.157,269.471,979.436,301.87z
		 M1082.178,221.946c37.871,9.975,66.763,20.219,86.665,30.73c23.946,12.648,42.678,29.947,56.213,51.877
		c13.536,21.941,20.305,49.041,20.305,81.309c0,29.253-8.109,56.648-24.326,82.186s-39.155,44.509-68.807,56.926
		c-29.652,12.417-66.598,18.631-110.848,18.631c-64.406,0-113.862-14.913-148.376-44.74
		c-34.523-29.827-55.143-73.301-61.854-130.412l100.002-9.469c6.02,33.591,18.233,58.259,36.65,74.014s43.261,23.623,74.53,23.623
		c33.119,0,58.082-7.008,74.872-21.043c16.791-14.026,25.195-30.429,25.195-49.207c0-12.056-3.533-22.31-10.578-30.778
		c-7.054-8.461-19.36-15.819-36.927-22.088c-2.98-1.037-6.903-2.272-11.771-3.71
		C1087.467,295.559,1087.566,260.942,1082.178,221.946z"/>
</g>
<path fill="#8461A9" stroke="#000000" stroke-width="8.2842" d="M698.208,301.772"/>
<g>
	<path fill="#C0BFBF" stroke="#000000" stroke-width="8.2842" d="M302.11,537.997H9.138v-88.531l199.844-53.158L9.138,343.748
		v-88.73H302.11v54.957H71.489l230.621,58.155v56.955L71.489,483.04H302.11V537.997z"/>
	<path fill="#C0BFBF" stroke="#000000" stroke-width="8.2842" d="M206.784,242.356l-5.596-57.555
		c19.319-3.463,33.508-10.492,42.567-21.083c9.062-10.592,13.589-24.88,13.589-42.867c0-19.051-4.028-33.405-12.091-43.066
		c-8.059-9.658-17.486-14.489-28.278-14.489c-6.926,0-12.821,2.033-17.686,6.095c-4.862,4.066-9.093,11.16-12.69,21.284
		c-2.398,6.929-6.66,22.716-12.79,47.363c-7.859,31.71-17.518,53.958-28.977,66.748c-16.119,17.986-35.772,26.979-58.954,26.979
		c-14.92,0-28.877-4.228-41.868-12.69c-12.99-8.459-22.882-20.649-29.677-36.572c-6.795-15.918-10.192-35.138-10.192-57.655
		c0-36.771,8.063-64.45,24.181-83.036c16.122-18.585,37.639-28.343,64.55-29.277l2.598,59.154
		c-15.054,2.532-25.88,7.962-32.475,16.287c-6.595,8.328-9.892,20.818-9.892,37.471c0,17.187,3.531,30.645,10.591,40.368
		c4.531,6.264,10.592,9.393,18.186,9.393c6.929,0,12.859-2.929,17.786-8.793c6.264-7.459,12.79-25.58,19.585-54.357
		c6.794-28.778,13.823-50.061,21.083-63.851c7.263-13.789,17.187-24.581,29.777-32.375c12.59-7.794,28.146-11.691,46.664-11.691
		c16.787,0,32.509,4.665,47.163,13.989c14.658,9.327,25.549,22.517,32.675,39.569c7.125,17.056,10.691,38.305,10.691,63.75
		c0,37.04-8.559,65.483-25.68,85.333C264.508,226.638,239.559,238.494,206.784,242.356z"/>
</g>
</svg>
