<?xml version="1.0" encoding="utf-8"?>
<!-- Generator: Adobe Illustrator 16.0.3, SVG Export Plug-In . SVG Version: 6.00 Build 0)  -->
<!DOCTYPE svg PUBLIC "-//W3C//DTD SVG 1.1//EN" "http://www.w3.org/Graphics/SVG/1.1/DTD/svg11.dtd">
<svg version="1.1" id="Ebene_2" xmlns="http://www.w3.org/2000/svg" xmlns:xlink="http://www.w3.org/1999/xlink" x="0px" y="0px"
	 width="566.93px" height="65.438px" viewBox="0 0 566.93 65.438" enable-background="new 0 0 566.93 65.438" xml:space="preserve">
<path id="path5256" fill="#2D288B" d="M437.047,26.359c-1.192-3.612-4.341-7.049-4.341-7.049s-4.731-6.146-14.024-8.242
	c-7.956-1.664-14.208,1.845-14.208,1.845s-5.677,2.275-9.943,6.978c-6.796,6.542-8.749,16.088-8.749,16.088
	s-2.604,8.314,1.521,14.896l4.482,5.422c6.326,5.279,13.087,5.819,13.087,5.819s5.46,1.229,11.824-0.434
	c5.563-1.122,9.614-3.869,9.614-3.869s9.222-5.097,11.749-15.509L437.047,26.359z M422.69,43.676c0,0-3.686,6.437-11.782,5.675
	c-9.51-0.975-10.628-9.325-10.628-9.325s-1.305-6.146,4.553-11.498c5.931-4.987,12.113-4.229,12.113-4.229s4.154,0.397,6.292,7.268
	C425.982,40.314,422.69,43.676,422.69,43.676"/>
<path id="path5262" fill="#639D01" d="M467.773,43.787c-3.044-0.672-7.917,0.575-7.917,0.575s-6.796,2.493-7.845,2.458
	c-0.396-0.577-1.263-11.677-1.012-16.123c0.146-7.846-0.509-14.243-0.509-14.243s-0.323-7.558-4.373-12.039
	c-4.771-4.811-8.101-2.747-10.016-1.593c-4.591,4.122-2.457,9.146-2.457,9.146l2.389,6.762c0,0,1.155,2.894,1.012,7.628
	l1.012,15.944c0,2.133,1.737,16.484,1.737,16.484s0.176,4.665,4.661,5.496c4.593,0.759,9.109-1.52,11.025-2.423
	c1.917-0.901,4.447-1.697,4.447-1.697s2.098-0.471,4.194-0.65c4.916-0.472,6.688-1.338,6.688-1.338s1.901-0.286,3.184-2.099
	C475.271,54.265,476.819,45.773,467.773,43.787"/>
<path id="path5264" fill="#94012C" d="M387.3,50.872c-3.229-0.969-6.938-0.327-6.938-0.327s-10.485,1.011-15.945-0.146
	c-8.457-1.48-8.174-10.592-8.174-10.592s-0.283-6.039,4.813-14.208c6.289-10.088,13.23-11.895,13.23-11.895s1.733-0.649,3.36,0.217
	c1.013,5.854,6.688,5.818,6.688,5.818s8.171,0.545,7.771-9.359c-0.938-8.138-8.782-9.257-12.074-10.018
	c-9.864-1.771-16.269,3.508-16.269,3.508s-6.614,3.578-14.531,16.051c-5.391,7.735-6.04,13.811-6.04,13.811
	s-0.649,1.446-0.396,7.883c-0.145,5.023,1.737,8.676,1.737,8.676s2.854,8.645,11.891,12.187c5.497,2.276,13.525,2.241,13.525,2.241
	s7.771-0.108,13.733-0.435c3.255,0.252,4.812-1.447,4.812-1.447s3.648-2.385,3.289-6.543
	C391.782,56.294,391.074,51.999,387.3,50.872"/>
<path id="path5266" fill="#2E3192" d="M152.788,62.488h-11.956l-1.598-36.012l-15.545,36.012h-7.975l-6.642-32.557L98.705,62.488
	H78.374l-3.057-17.403H61.495l-7.84,17.403H41.16l25.652-58.2h14.749L89.4,51.328l15.285-47.041h11.823l5.848,31.893l13.56-31.893
	h14.351L152.788,62.488z M73.515,33.781l-2.189-11.29l-5.049,11.29H73.515"/>
<path id="path5268" fill="#2E3192" d="M187.072,62.488l1.998-12.488h-20.866l1.654-10.365h18.148L190,27.14h-18.341l1.594-10.366
	h20.861l1.995-12.486h-33.087l-9.305,58.2H187.072"/>
<path id="path5270" fill="#2E3192" d="M342.419,4.287h-13.954l-11.827,19l-7.438-19h-13.688l14.084,30.692l-4.339,27.508h11.963
	l3.671-24.315L342.419,4.287"/>
<path id="path5272" fill="#2E3192" d="M253.306,28.382c3.714-16.093,17.469-26.654,30.717-23.591
	c13.256,3.063,20.989,18.586,17.278,34.679c-3.714,16.089-17.467,26.652-30.721,23.589
	C257.327,59.996,249.595,44.469,253.306,28.382z M271.405,51.405c6.327,2.83,14.078-2.721,17.302-12.398
	c3.223-9.685,0.714-19.828-5.614-22.659c-6.328-2.832-14.069,2.722-17.298,12.404C262.568,38.435,265.082,48.573,271.405,51.405"/>
<path id="path5276" fill="#2E3192" d="M224.595,16.877c0,0,0.265,0,7.786,0c8.439,0,6.727,10.812-1.316,10.812
	c-6.596,0-8.313,0-8.313,0L224.595,16.877z M220.906,39.556c0,0,2.505,0,10.021,0c9.499,0,9.233,11.605-1.317,11.605
	c-6.59,0-10.55,0-10.55,0L220.906,39.556L220.906,39.556z M214.311,4.607l-9.229,57.767c0,0,19.122,0,26.903,0
	c11.076,0,27.276-16.326,12.531-29.672c15.162-15.692,0.126-27.955-7.916-28.095c-6.461-0.104-22.416,0-22.416,0H214.311"/>
<path id="path5274" fill="#2E3192" d="M15.648,9.468C4.252,16.521-1.228,27.271,0.231,41.89C1.928,58.847,23.887,69.53,42.49,58.769
	c1.629-0.94,0.992-0.792,1.595-1.331l3.723-23.656H25.614l-1.702,10.897h9.276l-1.065,5.85c-5.314,2.125-14.352,1.327-18.204-5.582
	c-2.44-4.376-4.703-14.142,5.583-23.124c8.369-7.309,22.856-8.633,31.23-4.78c0,0,1.062-6.111,1.857-11.829
	C36.511-0.366,24.018,4.287,15.648,9.468"/>
<path id="path5258" fill="#C8A601" d="M518.642,24.443c-6.325-10.339-17.46-11.894-17.46-11.894s-3.543-1.194-11.133-0.183
	c-14.246,2.713-19.2,13.667-19.2,13.667s-5.099,8.024-3.074,17.75l6.224,12.292c4.59,4.302,6.469,4.302,6.757,4.558
	c6.076,2.747,13.125,1.156,13.125,1.156s8.895-0.867,17.029-7.194c6.506-4.771,9.326-11.786,9.326-11.786l0.863-9.41L518.642,24.443
	L518.642,24.443z M501.326,45.556c-10.231,6.146-16.668-0.579-16.668-0.579s-2.855-1.88-3.47-7.593
	c-0.438-6.615,6.146-10.05,6.146-10.05s3.471-2.134,7.81-1.808c4.339,0.324,5.708,0.035,9.219,2.64
	c3.324,3.002,3.107,5.206,3.107,5.206S508.665,40.821,501.326,45.556"/>
<path id="path5260" fill="#00766A" d="M520.234,42.809c0,0,0.218,5.783-0.688,7.194c-1.229,2.639-1.047,5.206-1.047,5.206
	s-0.835,7.809,8.209,9.107c6.214-0.035,6.971-5.206,7.081-7.411c0.36-1.732,0.217-9.798,0.217-9.798l8.063,6.581
	c0,0,5.856,4.917,9.295,7.772c3.581,2.818,4.479,3.325,4.479,3.325s0.763,0.901,3.506,0.577c2.211,0.038,4.234-1.952,4.234-1.952
	s2.563-1.875,3.214-5.167c0.795-3.905-2.24-5.821-2.24-5.821s-11.205-9.039-18.798-15.258c5.097-2.783,7.556-4.699,7.556-4.699
	s7.088-4.698,8.604-11.896c2.099-7.918-3.867-11.024-3.867-11.024s-3.726-2.676-6.87-4.087c-7.92-3.868-15.293-3.073-15.293-3.073
	s-10.483-0.722-17.316,7.703c-3.144,4.083-1.19,9.436-1.19,9.436s0.388,0.857,1.263,4.916
	C520.399,32.607,520.234,42.809,520.234,42.809L520.234,42.809z M533.972,26.756l-0.688-9.435c0,0,6.614-0.146,9.363,0.324
	c5.426,0.831,5.134,2.352,5.134,2.352s-0.181,1.915-4.303,3.796C538.998,25.963,533.972,26.756,533.972,26.756"/>
</svg>
