<?xml version="1.0" encoding="utf-8"?>
<!-- Generator: Adobe Illustrator 13.0.0, SVG Export Plug-In . SVG Version: 6.00 Build 14948)  -->
<!DOCTYPE svg PUBLIC "-//W3C//DTD SVG 1.1//EN" "http://www.w3.org/Graphics/SVG/1.1/DTD/svg11.dtd">
<svg version="1.1" id="Ebene_1" xmlns="http://www.w3.org/2000/svg" xmlns:xlink="http://www.w3.org/1999/xlink" x="0px" y="0px"
	 width="566.929px" height="79.219px" viewBox="0 0 566.929 79.219" enable-background="new 0 0 566.929 79.219"
	 xml:space="preserve">
<g>
	<g>
		<g id="_x23_ffffffff">
			<path fill="#BA1525" d="M123.437,3.436c3.074-3.934,9.436-4.604,13.207-1.307c1.542,1.299,2.622,3.091,3.175,5.02
				c6.981,24.021,13.994,48.033,20.966,72.058c-4.12,0.004-8.242-0.006-12.362,0.004c-1.943-6.623-3.841-13.258-5.759-19.889
				c-7.967-0.018-15.932-0.004-23.898-0.008c-1.951,6.627-3.876,13.258-5.792,19.897c-4.098-0.014-8.195-0.004-12.294-0.008
				c6.633-22.914,13.273-45.832,19.938-68.739C121.41,8.071,121.708,5.392,123.437,3.436 M130.71,18.154
				c-2.921,9.952-5.783,19.924-8.688,29.881c5.791,0.027,11.579,0.01,17.367,0.01C136.491,38.082,133.608,28.119,130.71,18.154z"/>
			<path fill="#BA1525" d="M210.231,3.953c2.147-3.114,6.298-4.627,9.953-3.666c3.345,0.771,5.905,3.654,6.788,6.899
				c6.975,24.005,13.973,48.001,20.947,72.005c-4.125,0.033-8.25,0-12.375,0.018c-1.918-6.629-3.816-13.266-5.748-19.895
				c-7.954,0.004-15.907-0.015-23.86,0.006c-1.901,6.635-3.86,13.252-5.763,19.885c-4.094,0.004-8.186-0.002-12.28,0.004
				c6.629-23.041,13.336-46.063,20.019-69.087C208.613,8.041,208.883,5.749,210.231,3.953 M209.228,48.045
				c5.766,0.008,11.53,0.004,17.296,0.004c-2.868-9.984-5.782-19.956-8.644-29.939C215.001,28.09,212.094,38.061,209.228,48.045z"/>
			<path fill="#BA1525" d="M151.56,0.167c14.906,0,29.811,0,44.712,0c0,4.021,0,8.038,0,12.059
				c-5.487,0.004-10.974-0.006-16.459,0.004c0,22.325,0.004,44.653-0.003,66.977c-3.929,0-7.862,0-11.792,0
				c0-22.324-0.003-44.651,0.004-66.977c-5.489-0.01-10.974,0-16.462-0.004C151.56,8.206,151.557,4.189,151.56,0.167z"/>
			<path fill="#BA1525" d="M261.023,0.657c1.133-0.391,2.342-0.524,3.537-0.495c4.699,0.017,9.398,0.003,14.098,0.006
				c7.914,0.145,15.468,5.056,18.894,12.179c2.371,4.626,2.615,10.005,2.018,15.079c-0.41,5.313-2.64,10.625-6.723,14.145
				c-2.158,1.925-4.846,3.089-7.153,4.8c-1.269,0.967-1.329,2.842-0.676,4.185c6.237,9.629,12.724,19.104,19.09,28.653
				c-4.657,0.008-9.313-0.013-13.972,0.008c-6.098-9.157-12.13-18.36-18.202-27.53c-1.785-2.609-2.27-6.066-1.201-9.045
				c0.834-2.285,2.831-3.958,5.055-4.82c4.246-1.619,8.431-4.166,10.782-8.172c1.788-3.01,1.697-6.725,0.893-10.021
				c-0.943-4.277-5.111-7.644-9.514-7.495c-3.047,0.021-6.091-0.016-9.132,0.014c-1.377-0.032-2.672,1.165-2.655,2.561
				c-0.014,21.501,0.008,43.004-0.006,64.504c-3.96-0.006-7.917,0-11.878-0.004c-0.007-23.146,0.007-46.297-0.007-69.443
				C254.291,5.707,257.176,1.89,261.023,0.657z"/>
			<path fill="#BA1525" d="M310.335,0.167c4.164,0,8.328,0,12.498,0c-0.004,26.349,0.006,52.692-0.008,79.042
				c-4.162-0.01-8.326,0-12.49-0.004C310.335,52.857,310.335,26.512,310.335,0.167z"/>
		</g>
	</g>
</g>
<g>
	<path fill="#BA1525" d="M527.328,79.205c-21.836,0-39.604-17.766-39.604-39.603C487.724,17.764,505.492,0,527.328,0
		c21.838,0,39.602,17.765,39.602,39.603C566.929,61.439,549.166,79.205,527.328,79.205z M527.328,2.908
		c-20.234,0-36.695,16.461-36.695,36.694c0,20.234,16.461,36.695,36.695,36.695c20.232,0,36.693-16.461,36.693-36.695
		C564.021,19.37,547.56,2.908,527.328,2.908z M527.328,66.582c-14.873,0-26.977-12.102-26.977-26.976
		c0-14.875,12.104-26.976,26.977-26.976s26.975,12.101,26.975,26.976C554.302,54.48,542.201,66.582,527.328,66.582z M527.328,15.54
		c-13.271,0-24.068,10.797-24.068,24.066c0,13.271,10.797,24.068,24.068,24.068c13.27,0,24.066-10.797,24.066-24.068
		C551.394,26.336,540.597,15.54,527.328,15.54z"/>
</g>
<g>
	<path fill="#BA1525" d="M446.257,79.205c-21.836,0-39.604-17.766-39.604-39.603C406.654,17.764,424.421,0,446.257,0
		c21.838,0,39.602,17.765,39.602,39.603C485.859,61.439,468.095,79.205,446.257,79.205z M446.257,2.908
		c-20.232,0-36.695,16.461-36.695,36.694c0,20.234,16.463,36.695,36.695,36.695s36.693-16.461,36.693-36.695
		C482.951,19.37,466.49,2.908,446.257,2.908z M446.257,66.582c-14.875,0-26.977-12.102-26.977-26.976
		c0-14.875,12.102-26.976,26.977-26.976c14.873,0,26.975,12.101,26.975,26.976C473.232,54.48,461.13,66.582,446.257,66.582z
		 M446.257,15.54c-13.271,0-24.068,10.797-24.068,24.066c0,13.271,10.797,24.068,24.068,24.068s24.066-10.797,24.066-24.068
		C470.324,26.336,459.527,15.54,446.257,15.54z"/>
</g>
<g>
	<path fill="#BA1525" d="M378.4,79.205c-15.295,0-27.736-12.441-27.736-27.738c0-9.178,4.637-17.842,12.197-22.976
		c-1.932-2.98-2.943-6.41-2.943-10.009C359.917,8.292,368.208,0,378.4,0s18.484,8.292,18.484,18.481
		c0,3.599-1.016,7.027-2.947,10.009c7.563,5.134,12.199,13.796,12.199,22.976C406.138,66.764,393.695,79.205,378.4,79.205z
		 M378.4,2.908c-8.588,0-15.576,6.986-15.576,15.574c0,3.479,1.127,6.773,3.256,9.524l1.006,1.297l-1.41,0.841
		c-7.467,4.467-12.104,12.637-12.104,21.323c0,13.689,11.139,24.83,24.828,24.83c13.691,0,24.83-11.141,24.83-24.83
		c0-8.688-4.639-16.857-12.105-21.323l-1.406-0.841l1.002-1.297c2.131-2.751,3.256-6.045,3.256-9.524
		C393.976,9.895,386.988,2.908,378.4,2.908z M378.4,67.693c-8.945,0-16.225-7.275-16.225-16.226c0-8.944,7.277-16.225,16.225-16.225
		c8.945,0,16.225,7.278,16.225,16.225C394.625,60.418,387.347,67.693,378.4,67.693z M378.4,38.151
		c-7.344,0-13.316,5.976-13.316,13.318c0,7.344,5.975,13.318,13.316,13.318c7.344,0,13.316-5.975,13.316-13.318
		C391.716,44.127,385.744,38.151,378.4,38.151z M378.4,26.639c-4.496,0-8.152-3.658-8.152-8.154c0-4.495,3.656-8.151,8.152-8.151
		s8.152,3.656,8.152,8.151C386.554,22.981,382.896,26.639,378.4,26.639z M378.4,13.24c-2.893,0-5.244,2.354-5.244,5.244
		c0,2.894,2.352,5.246,5.244,5.246c2.895,0,5.246-2.354,5.246-5.246C383.646,15.593,381.294,13.24,378.4,13.24z"/>
</g>
<g>
	<g>
		<path fill="#BA1525" d="M70.453,0.003H8.761C3.942,0.003,0,3.946,0,8.765v61.692c0,4.818,3.942,8.762,8.761,8.762h61.692
			c4.819,0,8.762-3.943,8.762-8.762V8.765C79.215,3.947,75.273,0.003,70.453,0.003z M34.269,31.85
			c-0.175,3.69-0.406,7.389-1.017,11.037c-0.42,2.516-1.291,4.943-2.369,7.246c-1.761,3.711-4.528,6.852-7.639,9.492
			c-2.782,2.449-6.104,4.232-9.597,5.438c-1.976,0.683-4.01,1.205-6.08,1.498c0.002-2.571,0.002-5.143,0-7.713
			c2.492-0.375,4.889-1.26,7.114-2.43c2.641-1.396,5.018-3.273,7.019-5.488c2.067-2.285,3.713-4.932,4.963-7.742
			c1.472-3.229,2.26-6.721,2.795-10.214c0.672-4.442,0.951-8.938,1.055-13.425c0.017-1.52,0.004-3.042,0.008-4.564
			c1.303-0.004,2.606,0,3.911-0.002c0.005,3.064,0,6.131,0.002,9.195C34.447,26.736,34.375,29.293,34.269,31.85z M43.205,14.983
			c0.001,17.192,0.001,34.386,0,51.576c-2.395,0.006-4.789-0.01-7.183,0.012c-0.031-5.482-0.005-10.967-0.013-16.447
			c-0.003-11.71,0.005-23.422-0.004-35.134C38.405,14.974,40.805,14.987,43.205,14.983C43.205,14.982,43.205,14.982,43.205,14.983z
			 M71.648,66.555c-2.056-0.279-4.072-0.811-6.034-1.477c-2.336-0.813-4.596-1.865-6.672-3.217
			c-1.515-0.973-2.892-2.139-4.216-3.355c-2.182-2.014-4.134-4.299-5.601-6.889c-1.147-2.018-1.985-4.195-2.64-6.416
			c-0.601-2.232-0.857-4.543-1.09-6.837c-0.451-4.962-0.62-9.947-0.588-14.928c0-2.817-0.001-5.634,0-8.453
			c1.297-0.001,2.593-0.004,3.888,0.001c-0.042,5.241,0.137,10.495,0.761,15.701c0.512,4.045,1.233,8.121,2.844,11.889
			c1.527,3.646,3.729,7.035,6.598,9.768c2.74,2.613,6.06,4.621,9.667,5.777c1.007,0.32,2.036,0.572,3.083,0.727
			C71.647,61.416,71.646,63.984,71.648,66.555z"/>
	</g>
</g>
</svg>
