<?xml version="1.0" encoding="utf-8"?>
<!-- Generator: Adobe Illustrator 13.0.0, SVG Export Plug-In . SVG Version: 6.00 Build 14948)  -->
<!DOCTYPE svg PUBLIC "-//W3C//DTD SVG 1.1//EN" "http://www.w3.org/Graphics/SVG/1.1/DTD/svg11.dtd" [
	<!ENTITY ns_flows "http://ns.adobe.com/Flows/1.0/">
	<!ENTITY ns_extend "http://ns.adobe.com/Extensibility/1.0/">
	<!ENTITY ns_ai "http://ns.adobe.com/AdobeIllustrator/10.0/">
	<!ENTITY ns_graphs "http://ns.adobe.com/Graphs/1.0/">
	<!ENTITY ns_vars "http://ns.adobe.com/Variables/1.0/">
	<!ENTITY ns_imrep "http://ns.adobe.com/ImageReplacement/1.0/">
	<!ENTITY ns_sfw "http://ns.adobe.com/SaveForWeb/1.0/">
	<!ENTITY ns_custom "http://ns.adobe.com/GenericCustomNamespace/1.0/">
	<!ENTITY ns_adobe_xpath "http://ns.adobe.com/XPath/1.0/">
]>
<svg version="1.1" id="Ebene_1" xmlns:x="&ns_extend;" xmlns:i="&ns_ai;" xmlns:graph="&ns_graphs;"
	 xmlns="http://www.w3.org/2000/svg" xmlns:xlink="http://www.w3.org/1999/xlink" xmlns:a="http://ns.adobe.com/AdobeSVGViewerExtensions/3.0/"
	 x="0px" y="0px" width="566.924px" height="121.752px" viewBox="0 0 566.924 121.752" enable-background="new 0 0 566.924 121.752"
	 xml:space="preserve">
<metadata>
	<sfw  xmlns="&ns_sfw;">
		<slices></slices>
		<sliceSourceBounds  x="677.038" y="478.623" width="566.925" height="121.753" bottomLeftOrigin="true"></sliceSourceBounds>
	</sfw>
</metadata>
<g>
	<path fill="#6187E5" d="M207.014,5.277c4.724-6.043,14.501-7.076,20.297-2.006c2.37,1.996,4.031,4.75,4.88,7.715
		c10.73,36.92,21.508,73.822,32.223,110.746c-6.332,0.006-12.667-0.012-18.999,0.006c-2.987-10.18-5.903-20.377-8.852-30.564
		c-12.246-0.023-24.485-0.006-36.73-0.012c-2.998,10.184-5.958,20.379-8.901,30.582c-6.298-0.021-12.596-0.006-18.895-0.012
		c10.194-35.221,20.4-70.438,30.643-105.646C203.898,12.404,204.358,8.287,207.014,5.277 M218.193,27.902
		c-4.49,15.295-8.889,30.619-13.354,45.922c8.9,0.043,17.796,0.016,26.692,0.016C227.078,58.527,222.647,43.215,218.193,27.902z"/>
	<path fill="#6187E5" d="M340.411,6.072c3.3-4.787,9.68-7.109,15.295-5.631c5.143,1.184,9.076,5.615,10.434,10.604
		c10.721,36.893,21.479,73.772,32.195,110.666c-6.342,0.049-12.68,0-19.02,0.024c-2.949-10.188-5.865-20.387-8.837-30.575
		c-12.226,0.006-24.446-0.021-36.671,0.01c-2.922,10.195-5.936,20.367-8.855,30.563c-6.293,0.006-12.58-0.006-18.873,0.006
		c10.188-35.414,20.496-70.797,30.767-106.188C337.922,12.357,338.339,8.834,340.411,6.072 M338.868,73.84
		c8.863,0.013,17.721,0.007,26.584,0.007c-4.41-15.347-8.892-30.671-13.285-46.015C347.741,43.17,343.274,58.494,338.868,73.84z"/>
	<path fill="#6187E5" d="M250.237,0.256c22.91,0,45.815,0,68.719,0c0,6.182,0,12.355,0,18.533
		c-8.438,0.006-16.866-0.01-25.297,0.006c0,34.313,0.006,68.627-0.004,102.938c-6.039,0-12.083,0-18.123,0
		c0-34.313-0.005-68.625,0.005-102.938c-8.436-0.016-16.866,0-25.301-0.006C250.237,12.611,250.232,6.438,250.237,0.256z"/>
	<path fill="#6187E5" d="M418.474,1.01c1.74-0.602,3.6-0.807,5.438-0.764c7.223,0.025,14.447,0.006,21.668,0.01
		c12.164,0.225,23.772,7.771,29.037,18.719c3.645,7.109,4.02,15.377,3.102,23.176c-0.635,8.164-4.059,16.328-10.334,21.741
		c-3.313,2.952-7.441,4.743-10.992,7.375c-1.947,1.481-2.047,4.364-1.038,6.428c9.586,14.8,19.552,29.367,29.338,44.039
		c-7.157,0.013-14.315-0.017-21.476,0.013c-9.369-14.074-18.643-28.22-27.975-42.313c-2.744-4.013-3.49-9.324-1.848-13.901
		c1.281-3.513,4.352-6.08,7.77-7.406c6.524-2.49,12.959-6.4,16.572-12.559c2.75-4.627,2.605-10.336,1.37-15.4
		c-1.45-6.574-7.854-11.746-14.625-11.52c-4.683,0.031-9.358-0.021-14.032,0.021c-2.117-0.049-4.107,1.791-4.08,3.934
		c-0.023,33.047,0.01,66.096-0.011,99.141c-6.088-0.013-12.168,0-18.257-0.007c-0.012-35.575,0.014-71.153-0.012-106.729
		C408.128,8.77,412.563,2.902,418.474,1.01z"/>
	<path fill="#6187E5" d="M494.261,0.256c6.402,0,12.804,0,19.211,0c-0.006,40.496,0.014,80.986-0.012,121.481
		c-6.396-0.019-12.797,0-19.199-0.006C494.261,81.235,494.261,40.746,494.261,0.256z"/>
	<path fill="#6187E5" d="M54.173,0.008c3.076-0.01,6.153,0,9.229-0.008c0.013,7.234,0,14.469,0.005,21.701
		c0.032,6.039-0.139,12.076-0.389,18.107c-0.412,8.711-0.957,17.439-2.4,26.05c-0.991,5.937-3.044,11.662-5.592,17.099
		c-4.156,8.76-10.686,16.172-18.027,22.405c-6.567,5.779-14.405,9.986-22.649,12.834c-4.664,1.604-9.463,2.845-14.35,3.533
		c0.005-6.065,0.005-12.138,0-18.203c5.883-0.883,11.538-2.971,16.791-5.729c6.233-3.295,11.844-7.729,16.566-12.953
		c4.877-5.395,8.764-11.641,11.714-18.271c3.474-7.625,5.333-15.861,6.597-24.109c1.584-10.482,2.244-21.088,2.489-31.684
		C54.192,7.188,54.162,3.596,54.173,0.008z"/>
	<path fill="#6187E5" d="M67.116,0.02c5.662-0.037,11.328-0.006,16.992-0.016c0.002,40.574,0.002,81.149,0,121.728
		c-5.65,0.013-11.303-0.026-16.953,0.021c-0.072-12.938-0.01-25.879-0.03-38.814C67.118,55.295,67.136,27.658,67.116,0.02z"/>
	<path fill="#6187E5" d="M87.888,0.004c3.06-0.002,6.118-0.008,9.176,0.002c-0.099,12.371,0.322,24.766,1.797,37.057
		c1.207,9.547,2.909,19.164,6.711,28.059c3.604,8.605,8.801,16.604,15.572,23.051c6.466,6.166,14.302,10.906,22.815,13.635
		c2.375,0.76,4.805,1.355,7.274,1.715c-0.003,6.064-0.006,12.129,0,18.191c-4.852-0.658-9.61-1.908-14.24-3.482
		c-5.514-1.918-10.847-4.4-15.745-7.588c-3.576-2.301-6.828-5.053-9.952-7.924c-5.149-4.748-9.758-10.146-13.219-16.256
		c-2.708-4.758-4.683-9.9-6.23-15.145c-1.418-5.271-2.023-10.717-2.573-16.135c-1.064-11.709-1.462-23.477-1.386-35.23
		C87.888,13.305,87.886,6.652,87.888,0.004z"/>
	<path fill="#6187E5" d="M54.173,0.008c-0.01,3.588,0.02,7.18-0.016,10.77c-0.245,10.596-0.904,21.201-2.489,31.684
		c-1.264,8.248-3.124,16.484-6.597,24.109c-2.95,6.635-6.837,12.879-11.714,18.271c-4.722,5.229-10.333,9.658-16.566,12.953
		c-5.253,2.764-10.908,4.85-16.791,5.73c0.005,6.065,0.005,12.138,0,18.203c4.887-0.688,9.686-1.929,14.35-3.532
		c8.244-2.849,16.082-7.056,22.649-12.835c7.341-6.233,13.871-13.646,18.027-22.405c2.547-5.437,4.601-11.162,5.592-17.099
		c1.443-8.61,1.989-17.339,2.4-26.05c0.25-6.031,0.421-12.068,0.389-18.107C63.402,14.469,63.415,7.234,63.402,0
		C60.325,0.008,57.249-0.002,54.173,0.008"/>
	<path fill="#6187E5" d="M67.116,0.02c0.02,27.641,0.002,55.275,0.01,82.917c0.02,12.938-0.042,25.879,0.03,38.815
		c5.65-0.051,11.302-0.012,16.953-0.021c0.002-40.574,0.002-81.15,0-121.729C78.444,0.014,72.778-0.018,67.116,0.02"/>
	<path fill="#6187E5" d="M87.888,0.004c-0.002,6.648,0,13.301,0,19.949c-0.076,11.754,0.322,23.521,1.386,35.23
		c0.55,5.418,1.155,10.863,2.573,16.134c1.547,5.244,3.522,10.388,6.23,15.146c3.46,6.108,8.07,11.509,13.219,16.256
		c3.124,2.871,6.376,5.623,9.952,7.923c4.898,3.188,10.231,5.672,15.745,7.59c4.63,1.574,9.388,2.824,14.24,3.481
		c-0.006-6.063-0.003-12.127,0-18.19c-2.47-0.358-4.899-0.955-7.274-1.715c-8.513-2.729-16.35-7.47-22.815-13.636
		c-6.771-6.446-11.967-14.444-15.572-23.051c-3.802-8.895-5.504-18.512-6.711-28.061c-1.475-12.289-1.896-24.684-1.797-37.055
		C94.007-0.004,90.948,0.002,87.888,0.004"/>
	<path fill="#6187E5" d="M535.438,109.703l7.135,2.162l-0.141-2.439c0-6.717,5.752-11.135,12.146-11.135
		c7.318,0,12.332,5.705,12.332,12.838c0,4.281-2.254,8.562-6.074,10.584l-3.037-3.223c2.945-1.058,5.154-4.601,5.154-7.683
		c0-4.692-3.865-8.375-8.514-8.375c-4.465,0-8.236,3.815-8.236,8.278c0,2.438,1.15,4.972,3.084,6.488v0.829l-17.811-5.338V98.797
		h3.957v10.906H535.438z"/>
	<path fill="#6187E5" d="M562.22,75.426h3.955v22.408l-18.637-15.187c-1.746-1.426-3.91-3.082-6.211-3.082
		c-3.636,0-6.625,3.222-6.625,6.81c0,3.545,2.854,6.442,6.35,6.674v4.324c-6.166-0.688-10.309-4.692-10.309-10.998
		c0-5.89,4.371-10.949,10.398-10.949c2.576,0,5.152,0.968,7.134,2.574l13.94,11.412V75.426H562.22z"/>
	<path fill="#6187E5" d="M530.745,56.471c0,9.936,8.146,18.018,18.162,18.018c9.936,0,18.018-8.082,18.018-18.018
		c0-10.225-7.944-18.234-18.09-18.234S530.745,46.246,530.745,56.471z M548.907,42.496c7.838,0,13.977,6.234,13.977,14.195
		c0,7.465-6.27,13.537-13.977,13.537c-7.787,0-14.123-6.07-14.123-13.537C534.784,48.6,540.855,42.496,548.907,42.496z"/>
	<path fill="#6187E5" d="M530.745,18.234c0,9.936,8.146,18.018,18.162,18.018c9.936,0,18.018-8.082,18.018-18.018
		C566.925,8.01,558.979,0,548.835,0S530.745,8.01,530.745,18.234z M548.907,4.26c7.838,0,13.977,6.234,13.977,14.195
		c0,7.465-6.27,13.539-13.977,13.539c-7.787,0-14.123-6.074-14.123-13.539C534.784,10.361,540.855,4.26,548.907,4.26z"/>
</g>
</svg>
