<?xml version="1.0" encoding="utf-8"?>
<!-- Generator: Adobe Illustrator 13.0.0, SVG Export Plug-In . SVG Version: 6.00 Build 14948)  -->
<!DOCTYPE svg PUBLIC "-//W3C//DTD SVG 1.1//EN" "http://www.w3.org/Graphics/SVG/1.1/DTD/svg11.dtd" [
	<!ENTITY ns_flows "http://ns.adobe.com/Flows/1.0/">
	<!ENTITY ns_extend "http://ns.adobe.com/Extensibility/1.0/">
	<!ENTITY ns_ai "http://ns.adobe.com/AdobeIllustrator/10.0/">
	<!ENTITY ns_graphs "http://ns.adobe.com/Graphs/1.0/">
	<!ENTITY ns_vars "http://ns.adobe.com/Variables/1.0/">
	<!ENTITY ns_imrep "http://ns.adobe.com/ImageReplacement/1.0/">
	<!ENTITY ns_sfw "http://ns.adobe.com/SaveForWeb/1.0/">
	<!ENTITY ns_custom "http://ns.adobe.com/GenericCustomNamespace/1.0/">
	<!ENTITY ns_adobe_xpath "http://ns.adobe.com/XPath/1.0/">
]>
<svg version="1.1"
	 id="svg2" xmlns:x="&ns_extend;" xmlns:i="&ns_ai;" xmlns:graph="&ns_graphs;" xmlns:dc="http://purl.org/dc/elements/1.1/" xmlns:rdf="http://www.w3.org/1999/02/22-rdf-syntax-ns#" xmlns:svg="http://www.w3.org/2000/svg" xmlns:cc="http://creativecommons.org/ns#"
	 xmlns="http://www.w3.org/2000/svg" xmlns:xlink="http://www.w3.org/1999/xlink" xmlns:a="http://ns.adobe.com/AdobeSVGViewerExtensions/3.0/"
	 x="0px" y="0px" width="567.927px" height="113.032px" viewBox="0.25 0 567.927 113.032"
	 enable-background="new 0.25 0 567.927 113.032" xml:space="preserve">
<metadata>
	<sfw  xmlns="&ns_sfw;">
		<slices></slices>
		<sliceSourceBounds  x="677.036" y="482.984" width="567.927" height="113.032" bottomLeftOrigin="true"></sliceSourceBounds>
	</sfw>
</metadata>
<g>
	<path id="path2998_1_" fill="#777777" d="M165.884,28.918v28.77v28.77h5.039h5.039V60.776V35.095h6.186
		c4.461,0,6.475,0.12,7.233,0.438c1.496,0.625,3.036,2.529,3.667,4.521c0.331,1.047,0.604,3.313,0.701,5.831
		c0.2,5.154-0.398,8.356-1.971,10.433c-1.641,2.168-2.645,2.51-7.284,2.51h-3.982v3.119v3.127l6.257-0.121l6.258-0.121l2.214-1.047
		c4.045-1.908,6.982-5.811,8.167-10.84c0.662-2.808,0.652-9.086-0.021-12.099c-0.646-2.896-1.991-5.813-3.504-7.579
		c-0.633-0.738-1.857-1.797-2.712-2.347c-2.933-1.882-4.062-2.001-18.356-2.001H165.884z M210.419,28.918v28.77v28.77h5.038h5.039
		v-28.77v-28.77h-5.039H210.419z M336.791,28.918c-4.514,0.001-9.158,0.16-10.32,0.346c-2.623,0.418-5.682,1.805-7.416,3.372
		c-1.748,1.579-3.234,3.949-4.043,6.44c-0.502,1.548-0.66,2.959-0.68,5.933c-0.029,4.103,0.316,5.851,1.727,8.614
		c0.916,1.798,3.361,4.393,5.039,5.363c1.949,1.13,4.441,1.728,8.729,2.072c3.26,0.265,4.02,0.426,5.08,1.129
		c0.834,0.551,1.563,1.453,2.184,2.711c0.869,1.771,0.918,2.142,0.914,5.953c-0.004,3.801-0.057,4.176-0.896,5.771
		c-0.566,1.084-1.385,2.032-2.242,2.603l-1.354,0.896l-8.563,0.103l-8.555,0.092v3.077v3.068h9.73c5.92,0,10.412-0.146,11.459-0.367
		c3.984-0.838,7.299-3.42,8.908-6.938c1.355-2.963,1.834-6.008,1.656-10.575c-0.188-4.816-0.9-7.44-2.824-10.32
		c-2.391-3.575-5.064-4.801-11.855-5.423c-2.512-0.23-5.086-0.635-5.719-0.904c-1.398-0.592-2.705-2.082-3.281-3.738
		c-0.566-1.633-0.561-6.361,0.021-8.359c0.57-1.973,2.305-3.79,4.135-4.338c0.883-0.266,3.852-0.396,8.848-0.396H345v-3.09v-3.09
		h-8.209V28.918z M452.597,28.918v4.227v4.226h5.039h5.039v-4.226v-4.227h-5.039H452.597L452.597,28.918z M355.695,35.42
		l0.104,20.723c0.09,20.398,0.105,20.754,0.803,22.604c0.393,1.033,1.229,2.58,1.857,3.443c1.293,1.76,2.973,2.994,5.1,3.738
		c1.023,0.359,2.764,0.498,6.064,0.51l4.633,0.02V83.37v-3.088h-3.027c-2.881,0-3.068-0.039-3.891-0.895
		c-0.508-0.529-1.006-1.563-1.207-2.52c-0.221-1.033-0.313-6.406-0.256-14.791l0.092-13.166l5.445-0.092l5.445-0.092v-3.076v-3.08
		h-5.527h-5.525v-3.576V35.42h-5.049H355.695L355.695,35.42z M425.291,35.42v20.469c0,19.797,0.023,20.54,0.672,22.512
		c0.771,2.348,2.338,4.672,4.043,5.973c0.65,0.498,1.939,1.166,2.863,1.482c1.289,0.445,2.73,0.582,6.156,0.59l4.469,0.01v-3.088
		V80.28h-2.885c-2.41,0-3.02-0.104-3.727-0.662c-0.467-0.365-0.996-1.205-1.18-1.867c-0.205-0.74-0.336-6.584-0.336-15.105V48.748
		h5.537h5.535l-0.094-3.007l-0.092-3.008l-5.445-0.09l-5.439-0.093v-3.565V35.42h-5.039H425.291L425.291,35.42z M416.402,42.489
		l-10.758,0.174c-11.568,0.178-12.766,0.32-16.162,2.042c-3.799,1.925-6.447,5.663-7.648,10.788
		c-0.502,2.138-0.59,3.979-0.59,12.109c0,9.23,0.027,9.661,0.742,11.428c1.441,3.561,3.586,5.76,6.674,6.826
		c1.361,0.471,2.781,0.58,7.457,0.588l5.771,0.012v-3.09v-3.088h-4.043c-3.828,0-4.088-0.047-4.998-0.813
		c-0.602-0.506-1.092-1.35-1.32-2.256c-0.453-1.793-0.475-15.938-0.031-19.361c0.631-4.865,1.727-7.146,4.014-8.371
		c0.787-0.42,2.146-0.57,5.977-0.67l4.957-0.132v18.896v18.885h5.199h5.201V74.315c0-6.674-0.104-16.566-0.225-21.982
		L416.402,42.489z M263.73,42.5l-10.808,0.162c-11.746,0.181-13.433,0.396-16.64,2.113c-3.725,1.994-6.385,5.936-7.508,11.123
		c-0.713,3.295-1.047,16.791-0.498,20.054c0.48,2.846,1.811,5.713,3.404,7.334c1.172,1.192,3.117,2.368,4.743,2.864
		c0.447,0.138,3.481,0.259,6.745,0.272l5.932,0.031v-3.088V80.28h-4.154c-4.687,0-5.303-0.221-6.187-2.234
		c-0.395-0.896-0.549-2.662-0.65-7.416c-0.146-6.756,0.324-14.085,1.056-16.52c0.657-2.185,1.881-3.863,3.321-4.57
		c1.052-0.516,2.019-0.613,6.125-0.62l4.875-0.011l0.082,18.773l0.082,18.771h5.039h5.039v-21.98L263.73,42.5L263.73,42.5z
		 M274.58,42.571c-2.928,0-5.319,0.037-5.313,0.082c0.004,0.045,3.346,9.857,7.426,21.811l7.416,21.738l-4.176,10.771
		c-2.295,5.927-4.175,10.817-4.175,10.868s1.993,0.051,4.429,0l4.43-0.092l12.951-32.508c7.127-17.879,12.963-32.542,12.963-32.588
		c0.002-0.045-2.102-0.082-4.684-0.082c-3.404,0-4.766,0.113-4.947,0.408c-0.137,0.223-2.627,6.543-5.525,14.049
		c-2.896,7.504-5.396,13.688-5.564,13.744c-0.17,0.057-2.473-6.266-5.107-14.049l-4.796-14.152H274.58z M452.597,42.571v21.942
		v21.942h5.039h5.039V64.513V42.571h-5.039H452.597z M513.548,42.733l-0.094,21.861h0.012l-0.092,21.861h5.211h5.201V67.571V48.676
		l4.957,0.133c5.262,0.137,6.141,0.356,7.619,1.939c1.156,1.24,1.984,3.499,2.354,6.439c0.191,1.539,0.348,8.603,0.348,16.011
		v13.258h5.037h5.037l-0.01-12.922c-0.002-13.705-0.242-16.957-1.563-20.673c-1.797-5.053-5.104-8.049-10.482-9.508
		c-1.779-0.483-3.68-0.567-12.811-0.59L513.548,42.733L513.548,42.733z M488.07,42.825c-2.842,0-5.674,0.357-7.709,1.057
		c-2.709,0.932-4.41,2.023-6.117,3.921c-1.852,2.06-3.193,4.849-3.98,8.259c-0.479,2.09-0.596,3.845-0.564,8.938
		c0.023,5.358,0.133,6.729,0.711,8.849c0.979,3.596,2.26,6.017,4.205,7.985c1.916,1.938,4.748,3.422,7.936,4.146
		c1.434,0.324,3.422,0.427,6.461,0.345c5.238-0.14,7.73-0.814,10.787-2.904c2.563-1.752,4.5-4.517,5.598-7.996
		c1.57-4.967,1.846-13.155,0.641-19.198c-0.586-2.936-2.01-6.119-3.598-8.056c-1.492-1.821-3.936-3.418-6.551-4.287
		C493.773,43.182,490.912,42.825,488.07,42.825L488.07,42.825z M488.193,48.879c1.475,0,2.953,0.285,4.113,0.873
		c1.514,0.768,2.465,2.104,3.291,4.632c0.541,1.653,0.676,3.158,0.803,8.625c0.166,7.142-0.162,10.507-1.27,13.043
		c-0.781,1.793-2.045,3.187-3.434,3.779c-0.596,0.254-2.156,0.446-3.605,0.446c-2.055,0-2.844-0.146-3.992-0.75
		c-0.902-0.478-1.773-1.295-2.336-2.204c-1.469-2.371-1.953-5.48-1.973-12.484c-0.016-6.668,0.328-9.347,1.557-12.06
		c0.416-0.92,1.256-2.043,1.879-2.52C484.41,49.356,486.296,48.879,488.193,48.879L488.193,48.879z"/>
</g>
<g>
	<path id="path3775_1_" fill="#777777" d="M559.435,83.913h0.77v-2.836h1.756c0.48,0,0.795,0.078,0.939,0.232
		c0.139,0.148,0.229,0.492,0.268,1.031l0.068,0.836c0.012,0.16,0.027,0.293,0.055,0.4c0.021,0.113,0.063,0.228,0.117,0.334h0.807
		v-0.209c-0.063-0.059-0.105-0.125-0.135-0.205c-0.037-0.096-0.064-0.211-0.072-0.352l-0.07-0.973
		c-0.047-0.473-0.107-0.797-0.188-0.973c-0.117-0.264-0.322-0.422-0.611-0.477c0.311-0.07,0.555-0.244,0.742-0.525
		c0.189-0.285,0.283-0.633,0.283-1.039c0-0.334-0.068-0.625-0.207-0.871c-0.146-0.273-0.354-0.486-0.617-0.635
		c-0.217-0.119-0.477-0.197-0.777-0.234c-0.199-0.021-0.508-0.035-0.914-0.035h-2.209v6.527h-0.004V83.913z M560.207,80.375v-2.289
		h1.557c0.307,0,0.523,0.008,0.662,0.021c0.205,0.033,0.369,0.094,0.488,0.176c0.146,0.096,0.256,0.219,0.328,0.367
		c0.08,0.158,0.121,0.334,0.121,0.525c0,0.434-0.121,0.738-0.367,0.922c-0.246,0.186-0.648,0.273-1.207,0.273L560.207,80.375
		L560.207,80.375z"/>
</g>
<path fill="#777777" d="M555.466,80.648c0-3.485,2.807-6.315,6.287-6.354l0,0c0.023-0.002,0.047-0.004,0.07-0.004l0,0
	c3.508,0.002,6.354,2.846,6.354,6.358l0,0h-0.002c0,3.511-2.844,6.354-6.354,6.354l0,0
	C558.312,87.002,555.466,84.161,555.466,80.648L555.466,80.648z M557.466,80.648c0.004,2.407,1.949,4.353,4.357,4.356l0,0
	c2.402-0.006,4.35-1.953,4.354-4.356l0,0c-0.006-2.364-1.885-4.282-4.227-4.354l0,0h-0.129
	C559.416,76.297,557.47,78.243,557.466,80.648L557.466,80.648z M561.419,76.206c0.125,0.053,0.219,0.072,0.293,0.08l0,0
	c-0.088-0.011-0.172-0.031-0.254-0.063l0,0c-0.061-0.022-0.115-0.052-0.17-0.087l0,0c-0.014-0.008-0.025-0.016-0.039-0.024l0,0
	C561.31,76.153,561.369,76.185,561.419,76.206L561.419,76.206z M560.949,75.775c-0.002-0.003-0.002-0.005-0.004-0.008l0,0
	C560.947,75.77,560.947,75.772,560.949,75.775L560.949,75.775z M560.937,75.754c-0.002-0.004-0.004-0.008-0.006-0.01l0,0
	C560.933,75.749,560.935,75.75,560.937,75.754L560.937,75.754z M560.824,75.288c0-0.113,0.021-0.227,0.059-0.332l0,0
	C560.851,75.034,560.822,75.141,560.824,75.288L560.824,75.288z"/>
<g id="g3" transform="translate(-61.6856, -312.868)">
	<path id="path7" fill="#DE0029" d="M142.207,336.374l-0.099,89.525l-23.986-7.801v-105.23l30.618,8.096
		c19.599,5.267,31.592,15.507,31.398,33.45c-0.195,20.873-9.849,29.257-28.667,23.796v-41.154
		C151.469,332.08,142.207,331.789,142.207,336.374L142.207,336.374z"/>
	<path id="path9" fill="#F3C202" d="M107.102,400.738l-11.311,3.805c-7.314,2.537-13.554-3.412-6.826-5.854l5.46-1.947
		l-20.575-6.537c-6.338,2.148-12.288,6.73-11.896,13.168c0.39,6.533,15.309,8.097,26.815,9.947
		c10.726,1.754,20.477,0.779,29.351-2.342v-6.73L107.102,400.738L107.102,400.738z M142.302,425.9l20.965-7.313l-21.16-6.729v13.557
		L142.302,425.9L142.302,425.9z"/>
	<path id="path11" fill="#326DB3" d="M198.08,406.299l0.389-0.099c9.167-3.219,13.067-7.707,12.092-11.898
		c-1.56-7.021-12.773-10.826-30.033-12.094c-12.384-0.877-24.572,1.854-36.468,5.947l-1.95,0.686l21.355,6.633l12.48-4.197
		c13.067-2.436,18.333,1.854,5.755,5.854l-6.242,2.146L198.08,406.299L198.08,406.299z M118.122,375.286l-9.459,3.217l9.459,2.926
		V375.286L118.122,375.286z"/>
	<path id="path13" fill="#00AA9E" d="M163.268,418.585l34.812-12.287l-22.624-7.021l-33.348,11.41v1.17L163.268,418.585
		L163.268,418.585z M118.122,397.033l-11.019,3.705l11.019,3.512V397.033L118.122,397.033z M142.107,402.788v-13.945l21.355,6.631
		L142.107,402.788L142.107,402.788z M94.425,396.742l23.696-8.484v-6.826l-9.459-2.928l-34.324,11.605
		c-0.097,0-0.292,0.096-0.487,0.096L94.425,396.742L94.425,396.742z"/>
</g>
</svg>
