<?xml version="1.0" encoding="utf-8"?>
<!-- Generator: Adobe Illustrator 13.0.0, SVG Export Plug-In . SVG Version: 6.00 Build 14948)  -->
<!DOCTYPE svg PUBLIC "-//W3C//DTD SVG 1.1//EN" "http://www.w3.org/Graphics/SVG/1.1/DTD/svg11.dtd">
<svg version="1.1" id="Layer_1" xmlns="http://www.w3.org/2000/svg" xmlns:xlink="http://www.w3.org/1999/xlink" x="0px" y="0px"
	 width="270px" height="82.35px" viewBox="3 136.909 270 82.35" enable-background="new 3 136.909 270 82.35" xml:space="preserve">
<title>3DO Logo</title>
<rect x="3" y="136.909" width="270" height="82.35"/>
<rect x="6.5" y="140.833" fill="#FFFFFF" width="73.667" height="73.667"/>
<path fill="#888888" d="M32.287,209.229c0-1.006,4.646-1.822,10.38-1.822c5.734,0,10.38,0.816,10.38,1.822s-4.646,1.82-10.38,1.82
	C36.933,211.049,32.287,210.234,32.287,209.229z"/>
<path fill="#FFFFFF" d="M106.406,174.152v0.134c6.014,0.112,10.455,1.308,13.32,3.588c2.867,2.278,4.301,5.035,4.301,8.267
	c0,3.607-1.629,6.586-4.895,8.93c-3.259,2.351-7.602,3.525-13.015,3.525c-4.679,0-8.293-0.938-10.853-2.806s-3.84-3.993-3.84-6.386
	c0-1.586,0.573-2.873,1.721-3.846c1.146-0.973,2.523-1.455,4.125-1.455c1.504,0,2.797,0.428,3.867,1.272
	c1.077,0.854,1.608,1.979,1.608,3.371c0,1.86-1.245,3.419-3.741,4.678c-0.488,0.245-0.74,0.524-0.74,0.833
	c0,0.573,0.698,1.076,2.104,1.512c1.399,0.433,2.825,0.643,4.293,0.643c4.805,0,7.21-3.531,7.21-10.594
	c0-6.993-2.889-10.489-8.657-10.489l-4.791,0.194c-0.965,0-1.454-0.355-1.454-1.068c0-0.818,0.51-1.23,1.524-1.23l3.489,0.133
	c3.56,0,5.943-0.791,7.154-2.379c1.215-1.58,1.817-3.832,1.817-6.754c0-3.008-0.455-5.225-1.371-6.638
	c-0.916-1.42-2.489-2.125-4.713-2.125c-1.209,0-2.349,0.202-3.413,0.614c-1.063,0.406-1.602,0.805-1.602,1.204
	c0,0.368,0.351,0.755,1.05,1.153c1.831,1.168,2.755,2.434,2.755,3.797c0,1.343-0.51,2.404-1.539,3.203
	c-1.027,0.789-2.182,1.188-3.469,1.188c-1.482,0-2.805-0.455-3.965-1.355c-1.162-0.91-1.75-2.028-1.75-3.379
	c0-2.293,1.295-4.279,3.881-5.951c2.588-1.678,5.902-2.517,9.959-2.517c4.482,0,8.259,0.95,11.334,2.847
	c3.084,1.895,4.623,4.32,4.623,7.293C122.741,169.404,117.293,172.938,106.406,174.152z"/>
<path fill="#FFFFFF" d="M160.691,155.393v40.209h3.938c6.021,0,9.657-1.58,10.909-4.734c1.252-3.16,1.875-8.559,1.875-16.202
	c0-5.979-0.386-10.28-1.154-12.89c-0.762-2.613-1.93-4.334-3.489-5.151c-1.561-0.819-3.545-1.231-5.944-1.231H160.691
	L160.691,155.393z M148.531,195.602v-40.209h-6.307v-2.176h25.271c7.309,0,13.098,2.07,17.357,6.217
	c4.258,4.141,6.391,9.371,6.391,15.686c0,3.271-0.648,6.357-1.95,9.23c-1.301,2.881-3.301,5.504-6,7.859
	c-2.7,2.357-5.469,3.874-8.308,4.553c-2.84,0.678-6.322,1.016-10.463,1.016h-22.299v-2.176H148.531L148.531,195.602z"/>
<path fill="#FFFFFF" d="M239.909,175.518c0-6.824-0.142-11.322-0.421-13.488c-0.285-2.176-1.014-3.924-2.188-5.254
	c-1.175-1.327-3.111-1.992-5.805-1.992c-2.271,0-4.083,0.539-5.434,1.609c-1.351,1.076-2.188,2.797-2.524,5.168
	c-0.328,2.369-0.496,7-0.496,13.888c0,6.817,0.14,11.335,0.426,13.538c0.28,2.203,1.036,3.959,2.261,5.267
	c1.224,1.308,3.146,1.958,5.769,1.958c2.175,0,3.95-0.523,5.321-1.574c1.371-1.056,2.23-2.762,2.574-5.133
	C239.741,187.132,239.909,182.469,239.909,175.518z M209.21,175.329c0-6.665,2.194-12.119,6.603-16.364
	c4.396-4.236,9.678-6.355,15.83-6.355c5.715,0,10.826,1.992,15.336,5.979c4.513,3.986,6.764,9.657,6.764,17.008
	c0,6.889-2.126,12.412-6.393,16.566c-4.266,4.152-9.476,6.23-15.629,6.23c-6.65,0-12.07-2.211-16.244-6.615
	C211.301,187.37,209.21,181.889,209.21,175.329z"/>
<radialGradient id="SVGID_1_" cx="49.8867" cy="-77.3159" r="10.654" gradientTransform="matrix(1 0 0 -1 -6 113)" gradientUnits="userSpaceOnUse">
	<stop  offset="0.5225" style="stop-color:#FFE41B"/>
	<stop  offset="0.8933" style="stop-color:#716A13"/>
	<stop  offset="1" style="stop-color:#49482E"/>
</radialGradient>
<path fill="url(#SVGID_1_)" d="M33.844,192.059c0-4.887,3.949-8.846,8.823-8.846s8.823,3.959,8.823,8.846
	c0,4.885-3.95,8.846-8.823,8.846C37.792,200.904,33.844,196.943,33.844,192.059z"/>
<path fill="#0000A0" d="M34.449,168.991c-1.298,0.866-1.644,5.896-1.644,5.896s0.346,5.03,1.644,5.896
	c1.297,0.867,8.218,1.389,8.218,1.389s6.921-0.521,8.217-1.389c1.299-0.866,1.645-5.896,1.645-5.896s-0.345-5.03-1.645-5.896
	c-1.296-0.868-8.217-1.389-8.217-1.389S35.746,168.123,34.449,168.991z"/>
<polygon fill="#FF0000" points="42.667,146.313 53.002,156.676 42.667,167.036 32.332,156.676 "/>
</svg>
