<?xml version="1.0" encoding="utf-8"?>
<!-- Generator: Adobe Illustrator 13.0.0, SVG Export Plug-In . SVG Version: 6.00 Build 14948)  -->
<svg version="1.2" baseProfile="tiny" id="Ebene_2" xmlns="http://www.w3.org/2000/svg" xmlns:xlink="http://www.w3.org/1999/xlink"
	 x="0px" y="0px" width="574.785px" height="83.5px" viewBox="-2.153 -3.275 574.785 83.5" xml:space="preserve">
<rect x="-2.153" y="-3.275" width="553" height="83.5"/>
<g>
	<g>
		<path fill="#C6AF75" d="M77.651,26.489l-1.553-0.719c0.097-0.32,0.194-0.719,0.194-1.119c0-1.039-9.127-6.633-24.953-6.633
			c-15.146,0-21.651,3.836-21.651,8.79c0,13.104,57.186-6.072,57.186,22.854c0,10.548-12.428,18.699-37.283,18.699
			c-23.689,0-30.486-6.233-32.719-6.233c-0.583,0-0.874,0.397-1.359,0.64l-1.262-0.24l8.058-13.586l1.554,0.64
			c0,0.321-0.195,0.642-0.195,1.28c0,4.716,12.525,8.068,24.953,8.068c17.671,0,23.69-4.152,23.69-8.55
			c0-15.66-56.41,3.755-56.41-22.771c0-13.425,17.185-19.019,36.021-19.019c16.894,0,28.739,6.073,29.904,6.073
			c1.262,0,1.456-0.319,1.748-0.559l1.553,0.399L77.651,26.489z"/>
		<path fill="#C6AF75" d="M94.346,66.441c2.136,0,2.524-0.639,2.524-2.397V12.905c0-1.758-0.389-2.397-2.524-2.397V9.389h63.012
			c2.33,0,3.301-0.64,3.301-1.758h1.359v13.265h-1.359c0-1.438-0.971-2.077-3.301-2.077h-46.701v14.224h30.487
			c2.33,0,3.301-0.64,3.301-2.078h1.359v13.422h-1.359c0-0.639-0.194-1.117-0.777-1.438c-0.485-0.319-1.359-0.48-2.524-0.48h-30.487
			v15.664h47.575c2.33,0,3.301-0.641,3.301-1.918h1.359v13.104h-1.359c0-1.118-0.971-1.758-3.301-1.758H94.346V66.441z"/>
		<path fill="#C6AF75" d="M249.005,36.877v1.119c-0.971,0.16-1.845,0.799-1.845,2.557v15.741c0,1.279,0.486,1.757,1.748,1.997v1.119
			c-6.117,2.876-21.069,8.951-37.866,8.951c-22.331,0-41.943-9.112-41.943-29.886c0-20.776,22.913-29.886,43.108-29.886
			c7.962,0,15.535,1.518,21.069,2.957c5.146,1.838,8.932,3.277,9.612,3.277c0.874,0,1.748-0.4,2.136-0.879l1.359,0.479
			l-9.417,13.104l-1.36-0.719c0.097-0.319,0.194-0.799,0.194-1.358c0-2.478-10.485-7.432-23.398-7.432
			c-16.311,0-29.515,6.633-29.515,20.138c0,14.143,13.204,20.773,28.156,20.773c12.234,0,19.418-3.437,22.331-5.193v-6.631h-16.699
			c-1.942,0-3.107,0.799-3.107,1.916h-1.36V34.96h1.36c0,1.118,1.165,1.917,3.107,1.917H249.005z"/>
		<path fill="#C6AF75" d="M253.853,67.563v-1.119c1.748-0.08,2.33-0.479,3.689-3.037l26.506-49.063
			c0.484-0.799,1.066-1.678,1.066-2.396c0-0.879-0.774-1.279-2.039-1.438v-1.12h21.167v1.119c-1.457,0.16-2.041,0.639-2.041,1.199
			c0,0.639,0.39,1.278,0.875,2.078l28.156,49.621c1.357,2.478,1.748,3.037,3.785,3.037v1.119h-19.32v-1.119
			c1.264,0,1.748-0.4,1.748-0.799c0-0.879-0.873-1.998-7.379-13.426h-33.303c-5.631,10.387-7.087,11.986-7.087,13.025
			c0,0.719,0.582,1.119,1.456,1.197v1.119h-17.281V67.563z M304.438,43.109l-11.651-20.936L281.33,43.109H304.438z"/>
	</g>
	<g>
		<path fill="#C6AF75" d="M547.578,77.074H1.117V-0.125h546.46V77.074z M6.034,72.157h536.627V4.792H6.034V72.157z"/>
	</g>
	<path fill="#C6AF75" d="M351.853,9.389v58.171h186.855V9.389H351.853z M359.775,50.225c-1.555-10.357,32.85-24.163,77.67-31.438
		c-1.012,0.261-2.969,0.762-2.969,0.762s-4.404,1.076-5.623,1.374C405.99,26.51,389.972,36.575,391.308,45.5
		c1.369,9.137,20.469,14.083,44.766,12.393c1.35-0.096,6.139-0.326,7.182-0.373C398.267,63.699,361.326,60.584,359.775,50.225z
		 M471.814,52.462c-9.932,2.257-22.346,4.173-22.346,4.173V30.676l6.4,21.124c0,0,15.242-2.474,26.844-7.304
		c10.084-4.199,16.34-9.466,15.918-15.077c-0.684-9.115-20.068-13.978-44-12.439c-1.596,0.103-6.895,0.375-7.936,0.421
		c44.98-6.181,81.916-3.064,83.471,7.293C531.486,33.504,506.794,44.803,471.814,52.462z"/>
</g>
<g>
	<polygon fill="#C6AF75" points="553.886,-1.576 557.207,-1.576 557.207,7.272 558.839,7.272 558.839,-1.576 562.162,-1.576 
		562.162,-3 553.886,-3 	"/>
	<polygon fill="#C6AF75" points="570.556,-3 567.509,5.09 564.478,-3 562.404,-3 562.404,7.272 563.964,7.272 563.964,-0.4 
		566.845,7.272 568.191,7.272 571.07,-0.397 571.07,7.272 572.632,7.272 572.632,-3 	"/>
</g>
</svg>
