<?xml version="1.0" encoding="utf-8"?>
<!-- Generator: Adobe Illustrator 13.0.0, SVG Export Plug-In . SVG Version: 6.00 Build 14948)  -->
<!DOCTYPE svg [
	<!ENTITY ns_flows "http://ns.adobe.com/Flows/1.0/">
	<!ENTITY ns_extend "http://ns.adobe.com/Extensibility/1.0/">
	<!ENTITY ns_ai "http://ns.adobe.com/AdobeIllustrator/10.0/">
	<!ENTITY ns_graphs "http://ns.adobe.com/Graphs/1.0/">
	<!ENTITY ns_vars "http://ns.adobe.com/Variables/1.0/">
	<!ENTITY ns_imrep "http://ns.adobe.com/ImageReplacement/1.0/">
	<!ENTITY ns_sfw "http://ns.adobe.com/SaveForWeb/1.0/">
	<!ENTITY ns_custom "http://ns.adobe.com/GenericCustomNamespace/1.0/">
	<!ENTITY ns_adobe_xpath "http://ns.adobe.com/XPath/1.0/">
]>
<svg version="1.2" baseProfile="tiny" id="Ebene_1" xmlns:x="&ns_extend;" xmlns:i="&ns_ai;" xmlns:graph="&ns_graphs;"
	 xmlns="http://www.w3.org/2000/svg" xmlns:xlink="http://www.w3.org/1999/xlink" xmlns:a="http://ns.adobe.com/AdobeSVGViewerExtensions/3.0/"
	 x="0px" y="0px" width="566.929px" height="98.441px" viewBox="0 0 566.929 98.441" xml:space="preserve">
<metadata>
	<sfw  xmlns="&ns_sfw;">
		<slices></slices>
		<sliceSourceBounds  x="677.036" y="490.276" width="566.927" height="89.618" bottomLeftOrigin="true"></sliceSourceBounds>
	</sfw>
</metadata>
<g id="Ebene_1_1_">
	<g>
		<path fill="#707070" d="M12,98.442c-6.627,0-12-5.373-12-12V31.906c0-6.628,5.373-12,12-12s12,5.371,12,12v54.535
			C24,93.069,18.627,98.442,12,98.442z"/>
	</g>
	<path fill="#707070" d="M174.735,48.034h-36.223v-6.528h36.223c5.964,0,10.799-4.835,10.799-10.799c0-5.965-4.835-10.8-10.799-10.8
		h-49.423c-5.965,0-10.8,4.835-10.8,10.8c0,0.203,0,55.735,0,55.735c0,6.627,5.373,12,12,12c6.627,0,12-5.373,12-12V69.632h36.223
		c5.964,0,10.799-4.835,10.799-10.8C185.535,52.869,180.7,48.034,174.735,48.034z"/>
	<path fill="#707070" d="M540.859,82.934l-15.535-54.18c-0.918-3.207-3.068-5.724-5.787-7.194c-1.66-1.041-3.619-1.652-5.723-1.652
		h-57c-0.373,0-0.742,0.019-1.105,0.056c-6.107,0.56-10.895,5.688-10.895,11.944v54.535c0,6.627,5.371,12,12,12
		c6.627,0,12-5.373,12-12V41.506h5.314v44.938c0,6.627,5.373,12,12,12c6.625,0,11.998-5.373,11.998-12V41.506h6.041l13.766,48.002
		c1.5,5.233,6.271,8.644,11.457,8.644c1.088,0,2.193-0.149,3.293-0.465C539.013,95.868,542.675,89.265,540.859,82.934z"/>
	<path fill="#707070" d="M250.508,19.907h-40.751c-11.338,0-20.615,9.276-20.615,20.614v37.306c0,11.338,9.277,20.614,20.615,20.614
		h40.751c11.339,0,20.615-9.276,20.615-20.614V40.522C271.123,29.184,261.847,19.907,250.508,19.907z M247.858,73.755
		c0,1.32-1.08,2.4-2.4,2.4h-30.652c-1.32,0-2.4-1.08-2.4-2.4V44.593c0-1.318,1.08-2.398,2.4-2.398h30.652c1.32,0,2.4,1.08,2.4,2.398
		V73.755z"/>
	<path fill="#707070" d="M419.322,19.907H378.57c-11.336,0-20.615,9.276-20.615,20.614v37.306c0,11.338,9.279,20.614,20.615,20.614
		h40.752c11.338,0,20.613-9.276,20.613-20.614V40.522C439.935,29.184,430.66,19.907,419.322,19.907z M416.671,73.755
		c0,1.32-1.08,2.4-2.398,2.4h-30.652c-1.32,0-2.4-1.08-2.4-2.4V44.593c0-1.318,1.08-2.398,2.4-2.398h30.652
		c1.318,0,2.398,1.08,2.398,2.398V73.755z"/>
	<path fill="#707070" d="M105.464,19.907H34.742c-3.005,0-5.441,2.436-5.441,5.44v61.095c0,6.627,5.373,12,12,12
		s11.861-5.373,11.861-12V44.583c0-1.318,1.08-2.398,2.4-2.398h28.855c1.32,0,2.488,1.08,2.488,2.398v41.858c0,6.627,5.373,12,12,12
		c6.627,0,12-5.373,12-12V40.986V25.348C110.905,22.343,108.469,19.907,105.464,19.907z"/>
	<path fill="#707070" d="M345.042,76.156h-42.9c-1.32,0-2.4-1.08-2.4-2.4V44.593c0-1.318,1.08-2.398,2.4-2.398h42.9
		c6.152,0,11.145-4.988,11.145-11.145c0-6.153-4.99-11.144-11.145-11.144h-15.545h-30.555h-2.564
		c-11.279,0-20.507,9.228-20.507,20.507v37.521c0,11.276,9.228,20.507,20.507,20.507h2.564h30.555h15.545
		c6.152,0,11.145-4.988,11.145-11.146C356.187,81.141,351.197,76.156,345.042,76.156z"/>
	<g>
		<path fill="#707070" d="M541.027,11.729h-4.131V8.826h11.752v2.903h-4.176v12.387h-3.445V11.729z"/>
		<path fill="#707070" d="M563.324,18.263c-0.07-1.84-0.139-4.038-0.139-6.285h-0.045c-0.5,1.951-1.135,4.129-1.725,5.921
			l-1.859,5.967h-2.701l-1.633-5.898c-0.5-1.813-0.998-3.97-1.385-5.987h-0.045c-0.066,2.063-0.158,4.424-0.248,6.33l-0.297,5.809
			h-3.197l0.977-15.29h4.604l1.496,5.127c0.5,1.747,0.955,3.651,1.295,5.444h0.09c0.408-1.771,0.936-3.768,1.451-5.489l1.611-5.082
			h4.539l0.814,15.29h-3.355L563.324,18.263z"/>
	</g>
</g>
</svg>
