<?xml version="1.0" encoding="utf-8"?>
<!-- Generator: Adobe Illustrator 16.0.3, SVG Export Plug-In . SVG Version: 6.00 Build 0)  -->
<!DOCTYPE svg PUBLIC "-//W3C//DTD SVG 1.1//EN" "http://www.w3.org/Graphics/SVG/1.1/DTD/svg11.dtd">
<svg version="1.1" id="Ebene_1" xmlns="http://www.w3.org/2000/svg" xmlns:xlink="http://www.w3.org/1999/xlink" x="0px" y="0px"
	 width="566.926px" height="197.123px" viewBox="0 0 566.926 197.123" enable-background="new 0 0 566.926 197.123"
	 xml:space="preserve">
<g>
	<path fill="#F50005" d="M88.705,89.429c2.707-8.077,5.128-16.25,7.654-24.389c0.623-2.007,1.207-4.025,1.81-6.039
		c0.077-0.436,2.299-8.207,3.145-11.702c1.013-4.181,2.102-8.379,2.608-12.635c0.313-2.636,1.473-3.998,3.75-4.699
		c1.329-0.409,2.062-1.088,3.439-1.188c1.13-0.083,1.917-0.366,2.438-1.405c0.442-0.879,1.583-1.424,2.174-2.207
		c0.438-0.581,0.993-1.271,1.631-1.465c1.825-0.551,3.771-0.726,5.576-1.324c2.277-0.753,4.909-1.296,6.565-2.823
		c1.695-1.562,3.268-2.412,5.455-2.579c2.026-0.155,3.788-0.938,4.441-3.06c0.406-1.315,1.411-1.907,2.428-2.561
		c0.93-0.188,1.446-0.561,1.56-1.677c0.114-1.115-4.076-0.493-4.353-0.773c-1.289-1.31-1.165-1.57,0.532-2.211
		c1.106-0.417,2.319-0.549,3.484-0.81c0.706-0.168,1.413-0.337,2.118-0.506c1.674-0.218,3.345-0.454,5.021-0.65
		c2.903-0.344,5.813-0.638,8.711-1.012c0.678-0.088,1.405-0.296,1.963-0.669c0.514-0.343,1.217-1.55,1.235-2.14
		c0.018-0.59-1.145-0.923-1.702-0.905c-2.317,0.078-4.643,0.239-6.938,0.564c-3.571,0.508-7.128,1.131-10.676,1.785
		c-2.959,0.546-5.898,1.205-8.846,1.813c-0.413,0.049-5.73,1.288-6.11,1.397c-1.14,0.271-2.279,0.542-3.419,0.812l-0.253,0.036
		c-1.115,0.197-2.229,0.395-3.344,0.592c-3.459,0.717-6.912,1.468-10.379,2.141c-1.879,0.363-3.803,0.832-5.673,1.231
		c-2.667,0.57-5.282,1.068-7.957,1.592c-5.917,1.16-11.856,2.201-17.787,3.29c-0.57,0.021-21.061,3.659-31.962,3.979
		c-2.527,0.074-5.065,0.031-7.599,0.01c-0.876-0.007-1.577,0.139-1.857,1.147c-0.359,1.291-0.064,1.712,1.435,2.307
		c0.674,0.269,1.23,0.837,1.84,1.269c-0.702,0.471-1.356,1.054-2.122,1.372c-0.523,0.219-1.207,0.019-1.805,0.104
		c-0.479,0.068-1.019,0.18-1.387,0.461c-1.604,1.221-1.113,2.662,1.234,3.733c3.116,1.423,3.301,2.089,1.358,4.904
		c-0.375,0.257-1.125,0.497-1.124,0.771c0.001,0.272,0.67,0.64,1.065,0.753c0.335,0.096,0.758-0.113,1.142-0.188
		c0.511,0.566,1.199,1.054,1.495,1.715c0.628,1.403,1.541,1.96,3.087,1.84c4.317-0.337,8.681-0.305,12.953-0.924
		c4.467-0.647,8.802-2.063,13.348-2.465c3.71-0.327,7.386-1.05,11.078-1.595c0.997-0.147,1.572,0.233,1.537,1.297
		c-0.046,1.414,0.082,2.919-0.171,4.239c-0.252,1.318-1.027,5.701-1.729,8.792c-0.929,4.096-2.281,8.71-2.307,8.952
		c-0.41,1.412-0.818,2.822-1.227,4.234c-1.379,4.309-4.625,15.078-4.888,16.15c-1.209,4.919-6.452,17.542-7.21,19.175
		c-1.744,3.757-3.497,7.535-5.607,11.09c-2.081,3.506-4.603,6.751-6.94,10.104c-1.797,2.577-6.368,7.089-6.427,7.156
		c-6.815,7.774-14.552,9.43-14.729,9.49c-5.069,1.755-9.908,1.714-14.877-0.8c-2.238-1.133-4.62-2.131-6.563-3.661
		c-2.08-1.638-4.334-3.746-6.244-5.45c-0.572-0.511-0.979-1.244-1.766-1.657c-1.164-0.608-1.973-0.083-2.031,1.262
		c-0.025,0.585,0.019,1.275,0.305,1.756c2.187,3.673,4.621,7.207,8.297,9.525c3.568,2.251,8.954,4.82,12.535,6.259
		c3.581,1.438,6.438,2.408,9.203,2.972c2.765,0.563,7.439,1.353,11.344,0.194c3.905-1.154,8.233-2.938,14.265-7.859
		c6.032-4.923,18.136-18.741,22.798-27.327c2.006-3.692,3.815-7.492,5.632-11.282C85.906,95.885,87.592,92.749,88.705,89.429z"/>
	<polygon fill="#F50005" points="268.584,99.114 268.575,99.122 268.566,99.132 	"/>
	<path fill="#F50005" d="M164.388,26.515c-0.614-0.155-1.228-0.31-1.842-0.465l-0.07-0.018c-0.123-1.697-0.195-3.399-0.389-5.088
		c-0.105-0.916,0.234-2.163-1.266-2.372l-0.013,0.017c-0.955-0.793-3.021-0.156-3.021-0.156s-2.075,0.385-2.496,1.475
		c-1.29,0.167-2.578,0.461-3.869,0.475c-4.37,0.05-4.357,0.017-5.958,4.057c-0.204,0.515-0.627,0.942-0.949,1.41
		c-0.364-0.42-0.959-0.797-1.05-1.27c-0.306-1.579-1.322-1.886-2.67-1.771c-1.331,0.114-1.347,1.094-1.625,2.133
		c-0.673,2.512-1.337,5.15-3.56,6.818c-2.683,2.016-3.753,4.881-4.634,7.908c-0.666,2.29-0.908,4.781-3.128,6.339
		c-0.311,0.22-0.607,1.713-0.508,1.909c-1.891,2.526-7.695,11.104-8.543,12.804c-0.928,1.861-2.044,3.721-2.474,5.711
		c-0.354,1.64-0.818,3.03-1.975,4.202c-2.25,1.231-1.709,3.434-1.875,5.39c-0.379,0.607-0.757,1.219-1.136,1.827
		c-0.282,0.403-0.564,0.809-0.847,1.213c-0.142,0.152-0.284,0.307-0.427,0.459c-0.382,0.443-0.437,1.003-1.148,1.334
		c-0.711,0.33-3.206,1.231-4.852,1.698c-2.5,0.705-3.039,1.047-2.958,2.393c0.11,1.837,1.483,1.896,2.844,1.982
		c1.139,0.071,1.376,0.771,0.952,1.682c-1.32,2.829-2.617,5.675-4.063,8.439c-3.408,6.518-10.534,20.047-10.624,20.326
		c-0.651,1.646-1.302,3.292-1.952,4.939c-0.005,0.211-0.01,0.422-0.015,0.633c-0.26,0.357-0.52,0.715-0.78,1.071
		c-0.146,0.237-0.292,0.476-0.438,0.713c-0.043,0.202-0.086,0.403-0.129,0.604c-0.719,1.32-1.785,2.57-2.066,3.979
		c-0.313,1.563-0.886,2.906-1.883,4.01c-2.11,2.338-1.343,4.884-0.759,7.435c0.189,0.825,0.91,0.913,1.356,0.38
		c0.759-0.907,1.408-1.937,1.942-2.995c0.581-1.153,0.915-2.432,1.494-3.586c0.17-0.338,0.844-0.646,1.221-0.583
		c0.27,0.047,0.683,0.81,0.592,1.128c-0.323,1.135-0.871,2.205-1.248,3.327c-0.096,0.285-0.054,0.938,0.198,1.021
		s0.847-0.186,0.964-0.427c0.744-1.538,1.372-3.132,2.091-4.683c1.264-2.723,2.551-5.435,3.875-8.129
		c0.138-0.28,0.668-0.622,0.887-0.549c0.28,0.094,0.487,0.56,0.617,0.903c0.1,0.267,0.081,0.604,0.033,0.896
		c-0.52,3.137-1.06,6.268-1.578,9.401c-0.028,0.168,0.086,0.513,0.143,0.516c0.269,0.01,0.69,0.017,0.782-0.14
		c0.288-0.489,0.462-1.048,0.662-1.587c0.898-2.419,1.087-5.19,3.566-6.818c0.443-0.291,0.857-1.01,0.854-1.527
		c-0.011-2.255,5.243-13.497,5.869-14.699l0.013-0.014c0.494-1.241,6.413-13.402,7.575-16.519c0.144-0.385,2.029-4.517,2.158-4.685
		c0.833-1.821,1.667-3.644,2.499-5.464c1.258-0.618,2.477-1.332,3.778-1.838c6.636-2.577,22.214-8.974,22.989-8.787
		c0.008,0.197,0.015,1.692,0.022,1.891c0.015,0.408,0.03,0.815,0.045,1.224c-0.011,2.811-0.075,5.622-0.017,8.432
		c0.046,2.218,0.609,9.44,0.443,10.804c-0.263,2.143-0.349,4.147,0.618,6.216c0.898,1.921,1.28,4.052,0.678,6.212l-0.042,0.063
		c-0.012,0.82-0.025,1.645-0.037,2.467v0.005c0.146,1.493,0.135,2.979,1.348,4.196c0.832,0.837,1.468,1.104,2.164,0.062
		c0.5-0.749,0.797-0.634,1.331-0.039c1.354,1.515,2.107,3.142,1.721,5.259c-0.126,0.689,0.188,1.533,0.511,2.205
		c0.179,0.373,0.481,1.059,1.209,0.798c0.728-0.263,0.659-0.958,0.718-1.468c0.117-0.997-0.036-2.025,0.064-3.025
		c0.088-0.878,0.267-1.778,0.605-2.586c0.197-0.471,0.739-0.9,1.226-1.087c0.175-0.066,0.71,0.585,0.962,0.983
		c0.317,0.505,0.417,1.164,0.779,1.62c0.872,1.099,2.079,0.898,2.479-0.434c0.257-0.854,0.369-1.788,0.345-2.682
		c-0.1-3.738-0.428-7.478-0.39-11.213c0.076-7.487,0.345-14.976,0.519-22.463c0.171-7.389,0.292-14.778,0.499-22.166
		c0.063-2.213,0.478-4.419,0.498-6.63c0.065-7.197,0.712-14.334,1.852-21.437c0.34-2.113-0.027-4.117-1.165-5.955L164.388,26.515z
		 M142.523,66.189c-1.215,0.496-2.51,0.797-3.727,1.291c-0.511,0.208-1.667,1.023-1.667,1.023s-0.484,0.575-0.625,0.763
		c-0.875,0.419-1.753,1.19-2.627,1.188c-2.187-0.009-3.671,0.924-4.786,2.672c-0.272,0.427-0.468,0.933-0.825,1.268
		c-0.252,0.235-0.762,0.4-1.074,0.312c-0.28-0.082-0.652-0.573-0.626-0.85c0.083-0.886,0.179-1.823,0.542-2.617
		c1.471-3.208,2.957-6.415,4.598-9.537c2.585-4.918,5.299-9.768,7.959-14.646c0.438-0.803,0.762-1.657,2.041-1.311
		c0.432,0.117,1.058-0.293,1.531-0.572c0.455-0.268,0.825-0.678,1.232-1.024c0.102,0.588,0.289,1.176,0.292,1.765
		c0.02,5.581-0.053,11.163,0.04,16.742C144.832,64.467,144.069,65.557,142.523,66.189z"/>
	<path fill="#F50005" d="M279.894,21.702c-0.609-0.23-1.218-0.463-1.825-0.693c-0.002-0.15-0.05-0.28-0.144-0.387
		c-0.027-0.03,1.821-2.267,0.771-3.354c-0.283-0.222-1.861-0.767-2.144-0.987c-0.143-0.884-0.308-1.765-0.423-2.652
		c-0.188-1.43-1.061-1.784-2.337-1.546c-0.413,0.293-0.826,0.585-1.239,0.878l-0.182-0.003l-1.928-0.152
		c-1.388,0.412-0.833,1.15-2.22,1.563c-0.316,0.231-0.631,0.462-0.947,0.692c-0.949,0.805-1.616,1.263-2.777,2.873
		c-1.162,1.609-2.497,4.234-3.306,5.693c-0.809,1.458-4.134,10.116-4.188,10.223c-0.266,0.244-5.822,12.535-7.656,16.654
		c-1.428,3.204-3.306,7.048-4.701,10.91c-1.395,3.862-2.736,9.753-3.05,10.117c-0.105,0.268-0.21,0.534-0.315,0.802
		c-0.138,0.41-0.276,0.82-0.414,1.23c-0.055,0.402-0.108,0.807-0.163,1.21c-0.395,2.214-0.99,5.242-1.414,6.593
		c-0.424,1.351-1.334,2.876-1.85,4.377c-0.421,2.864-0.911,5.722-1.239,8.597c-0.251,2.203-0.296,4.43-0.433,6.646
		c0.087,0.803,0.174,1.604,0.262,2.409c0.405,1.433,0.498,2.113,1.214,4.299c0.717,2.185,3.737,4.234,3.737,4.234
		c3.567,2.002,9.577,1.997,12.284,0.141c2.708-1.856,4.567-3.097,5.734-4.121c1.167-1.023,7.067-5.707,9.859-8.821
		c2.792-3.115,3.842-4.611,4.668-5.435c0.417,1.438,0.012,2.687-0.882,3.824c-0.191,0.546-0.382,1.092-0.574,1.638
		c-0.149,2.485-0.415,4.969-0.423,7.453c-0.012,3.342,1.323,10.349,4.809,10.956c3.486,0.606,4.058,0.628,6.116-0.417
		c1.598-0.813,3.424-1.231,5.192-1.635c1.278-0.29,1.712,0.323,1.151,1.54c-0.635,1.376-1.369,2.713-2.137,4.021
		c-3.061,5.235-6.102,10.479-9.228,15.679c-1.244,2.068-0.536,2.352,1.147,2.376c0.302,0.005-0.303,1.688-0.253,2.247
		c0.16,1.783,1.03,2.319,2.508,1.287c0.865-0.605,1.524-1.567,2.135-2.464c0.619-0.908,1.014-1.97,1.63-2.881
		c0.115-0.172,1.047-0.103,1.203,0.129c0.39,0.562-0.209,1.919,1.093,1.681c0.616-0.111,1.108-1.002,1.618-1.571
		c0.336-0.378,0.58-0.832,0.904-1.222c0.543-0.657,1.057-0.901,1.617,0.049c0.572,0.977,1.412,0.762,2.006,0.095
		c0.938-1.054,1.885-2.148,2.553-3.377c1.775-3.282,3.445-6.625,5.074-9.984c0.59-1.217,1.229-2.125,2.74-1.73
		c1.268,0.332,1.814-0.257,2.219-1.396c0.572-1.62,1.203-3.24,2.025-4.742c2.709-4.953,5.521-9.85,8.282-14.773
		c2.22-3.958,4.422-7.928,6.627-11.893c1.188-2.136,2.116-4.447,3.551-6.439c1.882-2.614,5.517-3.16,6.646-3.041
		c1.129,0.118,2.336-0.564,2.854-1.09c0.52-0.524,0.645-0.456,1.381-0.931c0.737-0.475,1.21-0.868,1.563-1.125
		c0.351-0.257,5.76-2.393,6.898-3.505c2.193-2.146,5.584-3.393,8.612-3.632c0.286,1.393,0.36,2.904,0.375,4.325
		c0.028,3.189-0.038,6.383-0.063,9.573c-0.021,0.419-0.043,0.839-0.064,1.257c-0.826,2.05,0.054,3.903,0.592,5.825
		c0.256,0.91,0.52,2.066,0.182,2.852c-1.117,2.576-0.59,5.195-0.535,7.797c0.021,1.031,0.423,2.082,1.812,1.942
		c1.146-0.115,1.322,0.489,1.399,1.438c0.15,1.813,0.425,3.614,0.652,5.419c0.213,1.701,0.385,3.41,0.67,5.099
		c0.151,0.896,0.521,1.601,1.572,2.004c1.708,0.656,1.76,0.935,0.917,2.649c-0.476,0.97-0.97,1.824,0.009,2.721
		c1.623,1.485,1.692,3.092,0.471,4.86c-0.733,1.064-0.604,1.938,0.789,2.25c1.178,0.265,1.254,1.23,1.377,2.097
		c0.102,0.688-0.034,1.407-0.086,2.112c-0.064,0.951,0.248,1.607,1.306,1.628c0.925,0.021,1.168-0.573,1.208-1.389
		c0.223-4.438,0.402-8.876,0.729-13.304c0.137-1.891,0.939-6.364,0.965-6.729c0.188-1.852,0.746-6.411,0.841-6.84
		c0.187-4.863,0.627-17.301,0.901-21.876c0.277-4.574,1.724-26.029,1.82-29.256c-0.109-0.209,2.678-20.388,3.617-24.966
		c0.939-4.579,0.881-8.701,0.768-9.173c-0.113-0.472-2.113-1.021-3.225-1.204c-2.234-0.365-4.505-0.501-6.762-0.73
		c-1.471-0.182-1.17-1.982-1.293-2.3c-0.121-0.317-4.904-1.687-5.861-1.187s-1.186,5.116-1.418,7.25
		c-0.596,1.021-1.188,2.043-1.782,3.064c-0.438,0.398-0.876,0.799-1.315,1.198c-0.174,0.179-0.352,0.357-0.526,0.536
		c-1.179,0.738-2.354,1.477-3.532,2.215c-1.681,1.794-3.361,3.587-5.045,5.381c-0.111,0.121-0.972,1.201-1.217,1.527
		c-0.914,1.261-3.063,3.995-3.082,4.212c-0.337,0.462-0.676,0.924-1.014,1.385c0,0-0.758,0.292-0.873,0.502
		c-1.442,2.625-2.848,5.271-4.262,7.913c0,0-1.018,0.492-1.561,0.756c-0.469,0.363-0.938,0.727-1.406,1.089
		c-0.188,0.063-3.097,3.868-4.65,5.493c-0.318,0.335-0.896,1.526-0.889,1.717c-2.084,0.865-1.822,4.143-2.128,4.532
		c-0.305,0.389-1.713,1.043-2.077,1.726c-1.059,1.98-2.334,5.489-2.82,6.128c-0.483,0.641-1.219,1.28-1.684,1.714
		c-0.309,0.124-0.615,0.247-0.925,0.371c-1.334,0.138-1.952,1.852-2.127,2.211c-0.175,0.361-0.636,0.429-0.953,0.643
		c-0.229,0.157-0.46,0.313-0.69,0.473l0.037-0.037c-0.467,0.204-0.933,0.407-1.396,0.61c-2.926,1.771-5.855,3.526-8.758,5.339
		c-0.247,0.155-0.479,0.791-0.357,1.018c1.021,1.961,0.385,3.509-1.063,4.915c-0.123,0.119-0.213,0.493-0.17,0.522
		c0.232,0.154,0.563,0.386,0.771,0.317c1.248-0.411,2.455-0.942,3.707-1.336c0.438-0.136,1.271-0.156,1.384,0.059
		c0.238,0.443,0.256,1.12,0.105,1.627c-0.158,0.554-0.602,1.029-0.932,1.532c-1.158,1.769-4.16,5.739-4.384,6.045
		c-1.657,2.276-3.263,4.593-4.93,6.862c-0.979,1.334-2.056,2.039-3.585,0.871c-1.105-0.846-2.156-1.764-3.232-2.646
		c-0.074-0.618-0.15-1.234-0.227-1.854c0.433-2.355,0.555-4.704,1.671-6.996c1.567-3.218,2.521-6.736,3.706-10.138
		c1.293-3.71,2.555-7.431,3.822-11.148c0.647-1.898,1.281-3.805,1.896-5.716c2.139-4.263,4.305-8.511,6.396-12.795
		c1.101-2.251,2.067-4.566,3.096-6.854c0.173-0.05,0.242-0.163,0.214-0.34c1.886-3.648,3.927-7.229,5.575-10.98
		c0.605-1.379,0.523-3.204,0.279-4.75c-0.115-0.732-1.321-1.327-2.088-1.917c-0.813-0.628-0.803-1.185-0.25-2.045
		c1.121-1.756,0.955-2.839-0.25-4.288c-0.959-1.153-2.22-1.328-3.565-1.274c-1.696,0.065-3.308,0.044-5.027-0.444
		c-1.414-0.402-3.419-1.047-4.685,0.812l-0.121,0.122c-0.48,0.856-8.014,13.938-8.428,14.612l-2.133,3.27
		c-0.545,0.818,0.709,2.128,0.438,2.782c-0.271,0.655-0.932-0.318-1.967,0.718c-0.067,0.021-0.914,3.018-1.613,5.767
		c-0.059,0.233,0.852,0.475,0.79,0.718c-0.052,0.198-1.073,1.048-1.125,1.252c-0.521,2.045-1.103,3.698-1.656,5.827
		c-0.101,0.39,0.123,0.45,0.022,0.825c-0.096,0.37-0.516,0.083-0.608,0.434c-0.528,1.983-0.992,4.598-1.289,5.442
		c-0.085,0.243,0.155,0.485,0.07,0.729c-0.118,0.336-0.56,0.673-0.677,1.011c-1.402,4.048-2.733,8.112-3.957,12.218
		c-0.11,0.275-0.221,0.553-0.333,0.828c-0.991,1.329-1.982,2.658-2.974,3.987c-0.57,0.506-1.141,1.01-1.71,1.514
		c0.002,0.111,0,0.221-0.009,0.323c0.009-0.104,0.011-0.212,0.009-0.323c-0.44,0.504-0.878,1.007-1.307,1.512
		c-0.288,0.234-0.58,0.47-0.87,0.705c-0.198,0.049-0.319,0.174-0.359,0.376c-0.229,0.237-0.458,0.475-0.688,0.713
		c-0.002-0.025,0.002-0.045-0.002-0.07c-0.678,0.681-1.356,1.36-2.036,2.04c0.162-0.006,0.316-0.019,0.465-0.039
		c-0.148,0.021-0.303,0.033-0.465,0.039c-0.279,0.247-0.557,0.493-0.836,0.739c-0.34,0.355-0.68,0.711-1.019,1.065
		c-0.182,0.067-1.073,0.914-1.463,1.176c-0.179,0.09-0.376,0.157-0.532,0.274c-4.497,3.394-8.99,6.791-13.483,10.19
		c-0.357,0.118-0.35,0.146-1.069,0.358c-0.72,0.212-2.78-0.084-2.846-0.961s0.675-5.912,1.462-8.865
		c1.587-5.951,3.681-11.646,6.487-17.107c1.087-2.117,2.153-5.02,3.092-6.438s2.828-3.942,3.501-5.293
		c0.673-1.353,1.034-3.911,1.937-5.666c1.652-3.214,3.529-6.321,5.464-9.378c1.256-1.985,2.313-3.926,2.553-6.361
		c0.159-1.638,0.838-3.28,1.216-3.838c0.379-0.559,1.33-1.375,1.516-1.738c1.229-2.406,2.369-4.859,3.538-7.296
		c0,0,2.429-3.898,3.368-5.969C282.359,22.84,282.262,22.795,279.894,21.702 M273.744,85.318c-0.005,0.021-0.006,0.047-0.01,0.067
		C273.738,85.365,273.739,85.34,273.744,85.318z M292.517,37.449l0.102,0.137l-0.098-0.12
		C292.518,37.46,292.518,37.455,292.517,37.449L292.517,37.449z M353.304,47.614c-0.576,1.556-1.105,2.972-0.965,4.65
		c0.063,0.769-0.195,1.583-0.4,2.351c-0.268,1.002-0.913,1.505-2.021,1.405c-2.918-0.266-4.938,1.323-6.765,3.323
		c-0.399,0.438-0.866,0.913-1.399,1.112c-1.112,0.415-2.291,0.657-3.439,0.97c0.245-1.032,0.373-2.112,0.77-3.085
		c0.563-1.385,1.153-2.812,2.024-4.008c3.261-4.478,6.64-8.868,10.001-13.268c1.484-1.943,1.229-0.029,1.932,0.139
		c0.195,0.047,0.738-0.927,0.93-0.866c0.248,0.081,0.326,0.329,0.438,0.537c0.104,0.194,0.186,0.398,0.247,0.609
		c0.146,0.499,0.187,1.03,0.16,1.547c-0.054,1.055-0.457,2.026-0.854,2.99C353.74,46.551,353.501,47.077,353.304,47.614z"/>
	<path fill="#F50005" d="M427.128,79.598c0.922,0.304,3.033,0.856,4.563,1.238c1.898,0.477,3.566,1.271,4.912,2.783
		c1.734,1.949,3.611,3.771,5.412,5.664c0.406,0.426,0.867,0.861,1.1,1.385c1.535,3.474,3.475,6.506,7.354,7.804
		c0.814,0.271,1.48,1.01,2.188,1.563c0.531,0.42,0.979,0.962,1.549,1.328c2.367,1.532,4.811,2.952,7.137,4.547
		c1.65,1.131,3.154,2.479,4.723,3.728c0.217,0.166,0.43,0.329,0.645,0.493c1.41,1.246,2.824,2.492,4.236,3.739
		c8.373,8.356,16.436,17.076,26.834,23.081c0.811,0.499,1.625,0.998,2.436,1.498c0.563,0.336,1.119,0.671,1.678,1.007
		c0.475,0.355,0.941,0.709,1.412,1.064c2.42,1.816,4.896,3.565,7.246,5.466c3.928,3.178,7.762,6.468,11.664,9.673
		c1.17,0.961,12.336,8.489,13.58,9.354c0.119,0.084,3.432,0.984,0.82-1.229c-1.682-1.427-9.664-6.29-9.74-6.357
		c-2.283-1.977-5.223-3.582-7.48-5.588c-3.016-2.678-5.982-5.407-8.965-8.124c-3.563-3.247-6.578-7.14-11.068-9.293
		c-0.521-0.248-1.033-0.717-1.314-1.217c-2.119-3.8-5.539-6.404-8.662-9.227c-2.145-1.942-4.854-3.251-7.18-5.017
		c-2.971-2.254-5.811-4.683-8.707-7.033c-0.262-0.273-0.523-0.548-0.787-0.821c-1.289-1.176-2.576-2.352-3.865-3.525
		c-2.262-1.669-4.502-3.368-6.795-4.992c-0.979-0.693-2.088-1.207-3.104-1.855c-0.34-0.218-1.113-0.588-0.199-1.015
		c1.467-0.688,0.572-1.084-0.102-1.599c-4.088-3.125-8.078-6.331-11.492-10.245c-1.275-1.462-3.232-2.327-4.867-3.479
		c-0.566-0.399-1.182-0.776-1.633-1.286c-2.264-2.55-3.547-5.897-6.48-7.911c-0.295-0.204-0.459-0.673-0.566-1.053
		c-0.098-0.338-0.027-0.722-0.033-1.085c0.361,0.035,0.85-0.068,1.066,0.127c1.063,0.935,2.023,1.978,3.07,2.927
		c0.578,0.523,1.213,1.243,1.898,1.34c1.336,0.189,2.215,0.603,2.732,1.95c0.215,0.555,1.064,0.88,1.648,1.273
		c1.672,1.127,3.4,2.171,5.014,3.375c0.908,0.679,1.592,1.577,2.9,0.763c0.254-0.158,0.986,0.088,1.256,0.376
		c3.285,3.554,6.51,7.165,9.787,10.727c1.479,1.605,2.688,3.486,4.811,4.453c1.146,0.521,2.283,1.229,3.17,2.107
		c1.572,1.558,3.043,3.24,4.391,5.001c1.537,2.013,3.416,3.404,5.883,3.992c0.652,0.478,1.309,0.955,1.963,1.434
		c0.883,0.662,1.766,1.326,2.648,1.986c2.336,1.741,4.674,3.481,7.01,5.224c0.408,0.348,0.818,0.693,1.23,1.041
		c0.229,0.189,0.455,0.381,0.684,0.571c0.377,0.299,0.756,0.598,1.133,0.896c0.197,0.121,0.395,0.241,0.592,0.361
		c2.828,2.267,5.688,4.495,8.473,6.808c3.732,3.099,7.377,6.302,11.123,9.378c2.795,2.297,5.943,4.166,8.326,6.963
		c0.318,0.373,0.787,0.775,1.236,0.846c0.738,0.111,1.785,0.26,2.225-0.139c0.744-0.675,0.053-1.419-0.553-2.023
		c-1.061-1.07-2.383-2.037-3.02-3.332c-0.607-1.236-1.396-1.943-2.561-2.338c-4.768-1.62-8.152-5.135-11.701-8.429
		c-3.027-2.811-6.057-5.621-9.084-8.433c-0.852-0.799-1.701-1.599-2.553-2.396c-0.195-0.19-0.391-0.382-0.584-0.572
		c-0.469-0.471-0.938-0.943-1.404-1.416c-0.33-0.368-0.66-0.737-0.988-1.105c-1.189-1.068-2.305-2.236-3.582-3.18
		c-1.939-1.427-4.104-2.56-5.969-4.068c-1.85-1.498-3.752-3.097-5.078-5.028c-1.607-2.347-3.229-4.34-6.15-4.939
		c-0.563-0.115-1.037-0.607-1.568-0.896c-2.816-1.535-4.684-4.102-6.754-6.402c-2.012-2.236-3.727-4.74-5.57-7.126
		c-0.23-0.226-0.459-0.452-0.689-0.678c-1.014-1.357-1.877-2.872-3.08-4.037c-1.652-1.602-3.559-2.94-5.361-4.386
		c-1.646-1.319-1.666-2.015,0.143-3.162c1.01-0.643,2.246-0.922,3.26-1.562c6.248-3.945,12.254-8.188,16.563-14.375
		c1.295-2.121,2.832-4.135,3.832-6.386c1.834-4.118,2.086-8.453,1.734-12.994c-0.354-4.561-2-8.308-4.865-11.686
		c-0.025-0.2-1.504-1.646-1.656-1.81c-0.572-0.574-1.893-1.697-5.594-4.527c-3.699-2.831-8.951-5.635-13.561-6.237
		c-4.609-0.604-10.969,0.334-13.742,0.586c-0.465,0.042-1.053,0.292-1.324,0.644c-1.289,1.677-3.244,1.942-5.049,2.541
		c-1.504-0.033-3.01-0.134-4.512-0.084c-1.568,0.054-3.135,0.251-4.701,0.387c-0.564,0.034-2.045,0.224-2.22,0.283
		c-0.721,0.119-3.286,0.729-3.751,0.884c-2.755,1.254-10.558,4.191-12.173,4.827c-1.614,0.637-2.293,0.625-4.519,1.097
		c-0.95,0.203-2.051,0.905-3.039,1.511l-0.323,0.241c-1.073,0.548-2.146,1.097-3.222,1.645c-0.582,0.352-1.164,0.702-1.746,1.054
		c-1.03,0.446-2.061,0.894-3.092,1.341c-0.381,0.158-1.25,0.326-1.789,0.648c-0.541,0.324-1.961,1.688-2.127,2.399
		c-0.166,0.712-0.271,1.199-0.406,1.8c-0.139,0.479-0.278,0.959-0.42,1.438c0,0-0.1,0.23-0.101,0.232
		c-0.321,0.749-1.474,1.079-2.146,1.364c-0.924,0.393-2.104,0.727-2.896,1.359c-0.729,0.582-0.862,1.52-1.192,2.34
		c-0.254,0.622-0.188,1.597,0.09,2.2c0.269,0.588,1.424,1.675,2.047,1.77c0.713,0.108,1.793,0.181,2.137,0.324
		s1.385,1.291,1.32,1.771s0.313,1.714,1.291,2.056c0.701,0.115,1.404,0.23,2.105,0.348c0.709,0.03,1.418,0.06,2.129,0.09
		c0.168,0.191,0.336,0.382,0.506,0.573c0.305,0.932,0.803,1.577,1.924,1.295c0.818,0.002,2.359,0.329,3.986-0.01
		s2.428-0.896,3.563-1.494c1.217-0.643,2.338-1.465,3.5-2.209c0.674-0.539,1.447-0.772,1.386,0.416
		c-0.128,2.424-0.728,4.759-2.073,6.839c-0.091,0.219-0.182,0.438-0.271,0.657c-0.623,3.262-7.894,21.354-8.864,24.997
		c-0.972,3.645-1.915,7.414-2.191,8.063c-0.062,0.265-0.119,0.528-0.183,0.792c-0.394,1.248-0.87,2.478-1.146,3.748
		c-0.18,0.833-0.65,2.851-0.018,2.552c1.991-0.933,0.706,1.212-1.08,2.424c-1.072,0.07-3.996,6.642-4.353,10.054
		c-0.22,2.1-1.627,5.171-1.091,6.025c0.109,0.174,0.49,0.54,0.275,0.629c-1.451,0.587-2.486,6.556-2.486,6.556
		s0.479,0.261,0.24,0.502c-0.24,0.241-0.27,0.302-0.436,0.448c-0.291,0.289-1.914,3.652-2.217,4.428
		c-0.127,0.224-1.643,3.304-1.832,3.668c-1.059,1.492-1.416,5.319-1.02,7.199c0.264,1.242,0.524-0.236,0.549,1.041
		c0.006,0.303-0.072,0.481-0.07,0.77c0.002,0.604,0.367,4.104,0.879,4.339c0.955,0.438,1.023-0.592,1.334-1.164
		c0.094-0.172,0.248-0.308,0.375-0.461c-0.057-0.219,0.867-1.201,1.064-1.307c0.201,0.065-0.892,3.101-0.138,2.895
		c0.754-0.203,2.979-7.675,3.231-8.225c0.437-0.832,0.871-1.662,1.308-2.493c0.375-0.112,0.75-0.226,1.123-0.34
		c0.386,0.115,0.771,0.23,1.151,0.344c0.132,0.203,0.263,0.407,0.396,0.61c0.009,0.592-0.058,1.197,0.056,1.768
		c0.057,0.294,0.426,0.527,0.651,0.788c0.238-0.265,0.478-0.526,0.716-0.793c0.188-0.453,0.364-0.907,0.557-1.358
		c2.021-4.781,4.047-9.562,6.064-14.341c0.439-1.046,0.7-2.159,1.162-3.197c0.075-0.171,1.655-2.683,1.93-2.256
		c0.209,0.323,0.563,0.632,0.596,0.972c0.055,0.586-0.19,1.205-0.115,1.784c0.054,0.419,0.377,1.07,0.666,1.122
		c0.359,0.063,0.927-0.293,1.195-0.635c0.43-0.544,0.822-1.188,1-1.853c0.4-1.521,2.975-14.915,6.014-27.988
		c2.979-12.819,7.061-26.537,7.477-26.538c0.937-0.001,1.377-0.448,1.551-1.291c0.414-1.834,0.83-3.669,1.246-5.503
		c0.217-0.745,0.433-1.49,0.646-2.235c0.213-0.477,0.425-0.953,0.637-1.431c0.623-1.152,1.203-2.333,1.883-3.45
		c0.543-0.893,1.174-1.222,1.584,0.13c0.305,1.01,0.98,1.184,1.438,0.307c1.012-1.944,2.131-3.928,2.6-6.03
		c0.346-1.543,1.068-2.295,2.299-2.872c7.314-3.424,14.484-3.114,21.494,0.874c2.896,1.649,4.137,3.949,3.441,6.716
		c-0.639,2.546-1.586,4.967-3.24,7.105c-2.285,2.959-4.445,6.021-6.586,9.089c-1.77,2.534-6.137,2.955-8.385,0.77
		c-1.088-1.058-2.201-2.103-3.402-3.021c-1.035-0.793-2.479-0.49-2.818,0.582c-0.326,1.027-0.635,2.175,0.463,3.068
		c1.105,0.896,2.293,1.727,3.207,2.791c0.518,0.601,0.854,1.671,0.705,2.418c-0.104,0.522-1.137,1.16-1.797,1.214
		c-1.287,0.104-2.605-0.224-3.912-0.252c-0.662-0.016-1.643,0.009-1.936,0.41c-0.65,0.894-1.664,2.089-1.719,3.24
		C422.697,76.151,426.324,79.332,427.128,79.598z"/>
	<path fill="#F50005" d="M527.169,165.854c-3.201-1.912-6.449-3.746-9.654-5.651c-2.051-1.22-4.324-2.228-6.029-3.828
		c-7.809-7.329-15.4-14.89-23.182-22.247c-2.99-2.826-6.084-5.573-10.191-6.855c-1.813-0.567-3.535-1.507-5.188-2.472
		c-1.002-0.584-2.055-1.383-2.621-2.354c-2.195-3.775-5.789-6.043-9.004-8.729c-3.787-2.879-6.08-7.379-10.451-9.634
		c-0.346-0.179-0.65-0.496-0.893-0.812c-2.879-3.755-5.967-7.303-9.523-10.456c-3.664-3.249-6.721-7.165-10.977-9.771
		c-1.004-0.613-1.779-1.622-2.59-2.515c-0.09-0.099-1.865-1.804-2.998-2.443c-1.135-0.641-3.775-1.311-5.687-1.896
		c-2.364-0.727-3.345-0.045-3.709,2.479c-0.132,0.898-0.199,1.815-0.196,2.725c0.008,1.884,0.319,2.172,2.284,2.44
		c0.791,0.108,1.821,0.025,2.31,0.487c1.217,1.157,2.572,1.113,3.973,0.887c1.402-0.226,2.193,0.338,3.041,1.425
		c1.605,2.052,3.203,4.239,5.248,5.779c2.621,1.974,4.68,4.425,6.959,6.692c2.641,2.626,4.855,5.662,8.375,7.386
		c1.314,0.646,2.137,2.301,3.182,3.499c1.053,1.207,1.932,2.646,3.186,3.573c2.02,1.495,4.285,2.653,6.447,3.955
		c0.781,0.624,1.58,1.227,2.34,1.877c1.602,1.378,3.414,2.596,4.697,4.227c1.115,1.414,2.191,2.361,3.961,2.914
		c1.789,0.561,3.559,1.561,5.002,2.767c4.506,3.762,8.869,7.692,13.258,11.596c3.016,2.684,5.83,5.61,9.975,6.648
		c0.9,0.226,1.674,1.06,2.445,1.685c1.709,1.389,3.381,2.82,5.066,4.233c0.482,0.368,0.965,0.737,1.445,1.106
		c0.131,0.152,0.242,0.332,0.396,0.457c4.84,3.971,10.4,6.969,15.002,11.283c0.875,0.819,2.691,0.451,3.641,1.338
		c14.717,13.771,15.029,10.623,15.537,10.388C541.769,177.65,527.546,166.078,527.169,165.854z"/>
	<path fill="#F50005" d="M504.121,163.154c-0.482-1.454-1.492-2.103-2.502-2.813c-1.309-0.921-2.789-1.593-4.176-2.405
		c-1.982-1.166-4.086-2.16-4.926-4.627c-0.227-0.662-1.043-1.468-1.693-1.578c-2.783-0.479-4.273-3.453-7.207-3.597
		c-0.363-0.017-0.686-0.687-1.041-1.036c-0.717-0.707-1.502-1.353-2.154-2.113c-1.463-1.713-3.967-2.395-4.727-4.844
		c-0.107-0.348-0.967-0.535-1.51-0.655c-2.91-0.646-5.271-2.071-6.361-4.939c-0.787-2.068-2.301-3.474-3.711-5.041
		c-1.195-1.327-2.52-1.927-4.268-1.702c-1.441,0.186-2.535-0.243-3.223-1.661c-0.293-0.604-0.934-1.039-1.416-1.552
		c-0.662-0.759-1.324-1.517-1.986-2.274c-0.168-0.229-0.334-0.46-0.502-0.689c-0.012-0.198-0.09-0.365-0.232-0.503
		c-0.281-1.754-1.121-3.128-2.705-3.999c-2.482-2.06-5.105-3.972-7.41-6.215c-3.111-3.028-6.107-6.168-7.135-10.703
		c-0.309-1.353-1.404-2.72-2.498-3.655c-1.83-1.562-3.854-2.958-5.969-4.104c-3.174-1.72-6.252-3.73-9.919-4.359
		c-1.157-0.197-2.339-0.659-3.144,0.597c-0.519,0.81,0.125,1.369,0.801,1.855c0.402,0.288,0.893,0.632,1.346,0.637
		c2.129,0.024,3.036,1.466,3.584,3.141c0.749,2.295,2.189,3.35,4.596,3.678c1.967,0.271,4.076,0.985,4.773,3.184
		c1.221,3.844,3.84,6.563,6.883,8.912c2.814,2.176,5.27,4.65,7.359,7.513c0.41,0.562,0.799,1.176,1.328,1.604
		c2.096,1.702,4.244,3.341,6.373,5.002c0.215,0.199,0.428,0.398,0.643,0.598c0.613,0.612,1.229,1.227,1.842,1.84
		c1.609,2.942,4.078,4.729,7.344,5.44c0.422,0.165,0.848,0.33,1.27,0.494c0.73,0.627,1.533,1.188,2.178,1.895
		c1.137,1.244,2.105,2.642,3.271,3.853c0.83,0.865,1.859,1.539,2.814,2.284c3.268,2.559,6.479,5.198,9.828,7.645
		c3.41,2.492,6.984,4.765,10.443,7.192c1.564,1.099,3.104,2.261,4.512,3.546c2.387,2.176,4.725,4.364,7.654,5.84
		c1.193,0.603,2.199,1.577,3.289,2.384c0.188,0.023,14.174,9.471,15.508,10.612c0.781,0.669,6.459,4.301,11.627,8.291
		c3.664,2.83,6.801,6.075,8.959,7.528c9.77,6.576,6.076,1.771,6.387,1.812c-0.279-0.428-36.223-26.545-36.5-26.971
		C510.83,167.488,504.517,164.35,504.121,163.154z"/>
	<path fill="#F50005" d="M397.458,121.354c-0.766,0-1.568,0.555-2.271,1.015c-0.279,0.182-0.389,0.7-0.475,1.087
		c-0.258,1.174-0.453,2.361-0.697,3.538c-0.338,1.623-0.102,3.429-1.791,4.587c-0.762,0.523-0.309,1.277,0.201,1.824
		c0.638,0.68,1.392,0.52,1.802-0.137c0.794-1.271,1.511-2.613,2.088-3.997c0.802-1.921,1.899-4.889,2.233-6.091
		C398.884,121.977,397.822,121.354,397.458,121.354z"/>
	<path fill="#F50005" d="M193.976,117.267c4.333,1.801,9.23,2.336,14.063,1.338c1.99-0.41,2.448-0.547,5.679-2.446
		c3.231-1.9,5.438-6.474,6.098-6.712c0.66-0.239,2.726-0.354,3.36,0.181c0.374,0.313,1.368,1.608,2.617,2.577
		c1.25,0.97,0.011,0.878,0.957,2.193c0.945,1.315,2.296-0.126,2.32,0.531c0.024,0.655,0.514,1.183,1.587,1.179
		c1.074-0.003,0.849-4.18,0.624-6.594c-0.221-1.393-0.715-6.804-0.614-7.986c0.101-1.182,0.432-3.207,0.648-4.813
		c-0.079-2.068,1.738-8.891,2.031-10.365c-0.133-0.204,1.29-4.121,2.119-7.931c0.829-3.808,1.452-8.333,1.497-9.744
		c0.082-2.203,0.496-5.912,0.248-6.611c-0.248-0.699-1.606-0.412-2.119-0.127c-0.512,0.286-0.265,0.473-0.397,0.71l-0.024,0.103
		c-0.099-0.016-0.187,0.01-0.254,0.105c-1.895,0.333-2.878-1.562-3.627-1.842c-0.749-0.28-1.287-0.343-2.198-0.199
		c-0.911,0.143-4.288,3.513-5.906,4.271s-7.065,3.191-8.946,2.912c-0.158,0.156-0.346,0.21-0.563,0.162
		c-0.727,0.752-1.394,2.076-2.192,2.16c-3.916,0.415-6.156,3.323-8.898,5.497c-0.48,0.623-1.158,1.178-1.405,1.884
		c-0.735,2.108-1.532,3.464-3.658,4.584c-0.115,0.062-0.219,0.386-0.159,0.479c0.089,0.138,0.326,0.244,0.504,0.251
		c1.345,0.044,2.939-1.104,2.939-1.104s6.611-2.839,9.902-4.291c1.423-0.628,2.763-0.989,4.319-0.237
		c0.594,0.285,1.508-0.091,2.275-0.166c0.301-0.174,0.602-0.348,0.903-0.522c0.309-0.081,0.617-0.161,0.926-0.242l0.573-0.058
		c0.419,0.067,0.839,0.138,1.259,0.205c-0.761,2.282-1.116,6.314-1.227,7.04c-0.11,0.725-0.378,1.129-0.541,1.709
		c-0.241,0.859-0.51,1.722-0.642,2.603c-0.425,2.854-0.992,5.71-1.108,8.581c-0.072,1.776,0.987,4.513,1.542,5.164
		c0.556,0.652,1.174,1.561,0.212,2.361c-0.962,0.801-1.711,1.541-2.566,2.313c-1.069,0.397-3.175,2.025-6.272,2.505
		c-3.098,0.479-5.773,0.357-10.154-1.599c-4.381-1.955-7.941-5.512-10.359-7.7c-2.418-2.189-5.952-10.584-6.201-14.385
		c-0.25-3.801,0.111-7.657,0.228-9.199c0.117-1.543,0.978-6.734,2.366-10.32c1.388-3.585,5.417-8.558,5.978-9.188
		c2.09-2.021,4.179-4.041,6.27-6.062c2.375-1.806,6.13-5.06,11.488-8.034c1.215-0.594,7.93-4.43,13.025-4.832
		c1.484-0.117,2.933-0.705,4.352-1.207c1.289-0.457,2.03-1.367,1.422-2.817c-0.418-1-0.407-1.97,0.715-2.248
		c1.412-0.351,0.14-2.527-0.529-2.372c-0.721,0.168-1.438,0.479-2.467-0.188c-1.122-0.73-2.065-2.181-2.442-4.045
		c-0.155-0.771,1.051-0.73,0.29-1.756c-0.761-1.024-2.241-0.389-2.875-0.907c-0.211-0.075-0.421-0.149-0.631-0.225
		c-0.788-0.099-1.575-0.198-2.363-0.297c-0.123-0.109-0.247-0.218-0.369-0.327c-0.791-0.935-1.707-1.046-2.951-0.942
		c-3.673,0.302-7.043,1.71-10.564,2.549c-1.258,0.441-2.517,0.883-3.775,1.325c-0.548,0.43-1.077,0.885-1.646,1.283
		c-1.478,1.036-2.974,2.047-4.463,3.069c-0.182,0.191-0.365,0.382-0.547,0.574l-0.057,0.072c-0.47,0.602-0.94,1.203-1.411,1.805
		c-0.142,0.187-0.282,0.373-0.423,0.559c-0.407,0.397-0.814,0.795-1.221,1.193c-0.217,0.195-0.434,0.39-0.65,0.585
		c-0.368,0.233-0.736,0.465-1.105,0.698l-0.035,0.039c-0.233,0.394-0.466,0.787-0.699,1.182l-0.039,0.238
		c-0.32,0.331-0.64,0.662-0.96,0.993c-0.28,0.326-0.559,0.653-0.839,0.979c-0.21,0.258-0.42,0.516-0.629,0.774
		c-0.194,0.171-0.388,0.342-0.582,0.513c-0.351,0.459-0.702,0.919-1.053,1.379l-0.071,0.079c-0.458,0.553-0.914,1.104-1.372,1.658
		c-0.156,0.255-0.312,0.51-0.468,0.765c-0.723,1.203-1.446,2.406-2.169,3.609c-0.202,0.085-0.313,0.236-0.331,0.457
		c-0.195,0.459-0.389,0.918-0.583,1.377c-0.207,0.363-0.413,0.729-0.62,1.093v0.001c-2.059,1.592-3.163,3.774-3.835,6.221
		c-0.141,0.175-0.282,0.351-0.422,0.525c-0.242,0.638-0.484,1.277-0.726,1.916c-0.37,0.989-0.74,1.978-1.109,2.966
		c-2.243,4.051-2.813,8.558-3.11,13.024c-0.387,5.845-0.312,11.725,1.094,17.482c0.466,1.909,3.739,9.271,5.361,11.726
		c1.622,2.451,5.974,7.289,8.748,9.188C187.12,114.02,189.643,115.467,193.976,117.267z"/>
	<path fill="#F50005" d="M541.029,154.924c-2.76-2.041-5.557-4.031-8.354-6.021c-0.576-0.409-0.982-1.629-1.836-0.838
		c-0.295,0.272,0.105,1.484,0.416,2.168c0.234,0.516,0.783,0.93,1.271,1.283c2.947,2.14,5.889,4.297,8.904,6.336
		c0.803,0.537,1.859,0.703,2.818,0.975c0.164,0.046,0.422-0.238,0.703-0.411c-0.285-0.333-0.449-0.584-0.67-0.771
		C543.21,156.725,542.164,155.764,541.029,154.924z"/>
	<path fill="#F50005" d="M560.708,167.271c-0.16-0.192-4.123-2.332-4.307-2.461c-0.832-0.588-1.346-0.361-2.176-0.957
		c-1.586-1.142-3.092-2.387-4.627-3.59c-0.805-0.634-2.027-1.109-2.162,0.146c-0.086,0.808,0.111,1.793,0.867,2.225
		c0.271,0.155,0.541,0.313,0.814,0.467c1.553,0.803,3.1,1.613,4.652,2.412c0.684,0.351,10.729,7.396,12.367,7.09
		c1.645-0.309,0.205-2.153,0.205-2.153S560.974,167.596,560.708,167.271z"/>
</g>
<path fill="#F50005" d="M540.507,167.99c0,0,7.076,4.818,9.74,6.05c2.666,1.229,4.205,2.255,3.281,0.819
	c-0.922-1.437,0-1.129-2.977-2.871c-2.973-1.742-4.609-2.357-5.943-3.691c-1.334-1.333-4-2.46-4.105-1.538
	C540.404,167.682,540.507,167.99,540.507,167.99z"/>
<path fill="#F50005" d="M546.455,183.68c2.973,1.741,4.41,3.074,3.385,0.408c-1.023-2.666-2.666-2.152-4.922-3.279
	c-2.256-1.129-2.344-0.019-1.832,0.599L546.455,183.68z"/>
</svg>
