<?xml version="1.0" encoding="utf-8"?>
<!-- Generator: Adobe Illustrator 13.0.0, SVG Export Plug-In . SVG Version: 6.00 Build 14948)  -->
<!DOCTYPE svg PUBLIC "-//W3C//DTD SVG 1.1//EN" "http://www.w3.org/Graphics/SVG/1.1/DTD/svg11.dtd">
<svg version="1.1" id="Ebene_1" xmlns="http://www.w3.org/2000/svg" xmlns:xlink="http://www.w3.org/1999/xlink" x="0px" y="0px"
	 width="341.155px" height="127.229px" viewBox="-0.501 0 341.155 127.229" enable-background="new -0.501 0 341.155 127.229"
	 xml:space="preserve">
<path fill="#FF0000" d="M277.724,70.452H62.576c-19.423,0-35.228-15.803-35.228-35.227C27.348,15.801,43.154,0,62.576,0h215.146
	c19.426,0,35.229,15.802,35.229,35.226C312.95,54.649,297.149,70.452,277.724,70.452z M62.576,8.333
	c-14.829,0-26.895,12.064-26.895,26.895c0,14.828,12.065,26.894,26.895,26.894h215.146c14.827,0,26.896-12.065,26.896-26.894
	c0-14.83-12.067-26.895-26.896-26.895H62.576z"/>
<path fill="#FF0000" d="M90.208,51.562V19.047h-9.779v22.735L66.006,19.047H55.494v32.515h9.779V28.093l15.155,23.469H90.208z"/>
<path fill="#FF0000" d="M106.099,51.562V29.56h-9.778v22.002H106.099z"/>
<path fill="#FF0000" d="M106.099,24.914v-5.867h-9.778v5.867H106.099z"/>
<path id="_x33_162" fill="#FF0000" d="M140.324,51.562V36.403c0-3.178-6.112-7.578-9.289-7.578H128.1
	c-2.199,0-4.645,1.956-6.845,2.934V29.56h-9.779v22.002h9.779V36.403c0-1.467,3.422-3.178,4.89-3.178
	c1.467,0,4.155,1.711,4.155,3.178v15.158L140.324,51.562L140.324,51.562z"/>
<path id="_x33_162_1_" fill="#FF0000" d="M222.144,52.319V37.162c0-3.179-6.109-7.578-9.293-7.578h-2.932
	c-2.201,0-4.646,1.956-6.848,2.933v-2.199h-9.777V52.32h9.777V37.162c0-1.466,3.424-3.179,4.891-3.179s4.154,1.713,4.154,3.179
	v15.157H222.144z"/>
<path fill="#FF0000" d="M156.215,51.562V29.56h5.134v-2.934h-5.134v-4.645h-10.021v4.645h-5.135v2.934h5.135v22.002H156.215z"/>
<path fill="#FF0000" d="M175.038,28.826c-7.822,0-14.422,5.378-14.422,11.979c0,6.846,6.6,12.223,14.422,12.223
	c6.846,0,12.469-3.911,13.936-9.045h-10.021v2.934c0,2.445-1.709,3.18-3.91,3.18c-2.2,0-3.668-0.734-3.668-3.18v-6.111h18.093
	C189.464,34.205,183.108,28.826,175.038,28.826z M175.038,31.026c2.201,0,3.912,1.467,3.912,3.912v2.199h-7.578v-2.199
	C171.372,32.493,172.839,31.026,175.038,31.026z"/>
<path fill="#FF0000" d="M271.364,28.826c-8.069,0-14.426,5.378-14.426,11.979c0,6.846,6.354,12.223,14.426,12.223
	c7.818,0,14.422-5.377,14.422-12.223C285.782,34.205,279.183,28.826,271.364,28.826z M271.364,31.026
	c2.195,0,3.666,1.467,3.666,3.912v11.978c0,2.444-1.471,3.179-3.666,3.179c-2.444,0-3.914-0.734-3.914-3.179V34.938
	C267.448,32.493,268.917,31.026,271.364,31.026z"/>
<path fill="#FF0000" d="M243.247,19.047v11.979c0,0-2.936-2.2-6.848-2.2c-6.111,0-11.244,5.378-11.244,11.246
	c0,6.112,5.135,12.224,11.244,12.224c3.912,0,6.848-1.467,6.848-1.467v0.732h9.779V19.047H243.247z M239.579,32.493
	c2.199,0,3.668,1.712,3.668,3.912v9.045c0,2.201-1.469,2.934-3.668,2.934c-2.443,0-3.912-0.732-3.912-2.934v-9.045
	C235.667,34.205,237.136,32.493,239.579,32.493z"/>
<g>
	<path fill="#FF0000" d="M287.006,29.216c-2.774,0-5.036-2.258-5.036-5.035c0-2.959,2.213-5.28,5.036-5.28
		c2.729,0,5.036,2.417,5.036,5.28C292.042,26.862,289.692,29.216,287.006,29.216z M287.006,19.683c-2.427,0-4.253,1.934-4.253,4.5
		c0,2.344,1.908,4.254,4.253,4.254c2.229,0,4.254-2.028,4.254-4.254C291.26,21.784,289.276,19.683,287.006,19.683z M287.89,26.33
		l-0.863-1.515h-1.096v1.321h-0.779V21.59h2.104c0.979,0,1.488,0.813,1.488,1.613c0,0.615-0.303,1.238-0.885,1.492l0.711,1.248
		L287.89,26.33z M285.931,24.036h1.321c0.22,0,0.396-0.079,0.521-0.235c0.119-0.149,0.188-0.368,0.188-0.597
		c0-0.311-0.151-0.832-0.709-0.832h-1.321V24.036L285.931,24.036z"/>
</g>
<g>
	<path id="_x32_399_1_" d="M51.827,99.231V85.051c0-2.688-2.689-5.379-5.378-5.379H25.914v19.56h6.357V86.032
		c0-0.979,0.732-1.957,1.711-1.957h9.777c0.979,0,1.957,0.979,1.957,1.957v13.199H51.827L51.827,99.231z"/>
	<path fill="#FFFFFF" d="M45.216,99.729V86.032c0.002-0.32-0.173-0.704-0.466-0.994l0,0c-0.289-0.291-0.671-0.469-0.991-0.464l0,0
		h-9.778c-0.616,0.002-1.21,0.704-1.21,1.458l0,0v13.696h-7.357V79.17h21.036c3.011,0.039,5.84,2.868,5.877,5.881l0,0v14.181v0.497
		H45.216L45.216,99.729z M51.827,99.231v-0.5V99.231L51.827,99.231z M43.759,83.574c1.301,0.037,2.42,1.156,2.457,2.458l0,0v12.699
		h5.111V85.051c0.004-1.175-0.601-2.414-1.534-3.345l0,0c-0.931-0.934-2.168-1.539-3.343-1.535l0,0H26.415v18.559h5.357V86.032
		c0.004-1.206,0.869-2.429,2.209-2.458l0,0H43.759L43.759,83.574z"/>
</g>
<g>
	<path id="_x32_399_2_" d="M221.469,99.231V85.051c0-2.688-2.688-5.379-5.376-5.379h-20.535v19.56h6.354V86.032
		c0-0.979,0.736-1.957,1.713-1.957h9.779c0.979,0,1.953,0.979,1.953,1.957v13.199H221.469L221.469,99.231z"/>
	<path fill="#FFFFFF" d="M214.856,99.73V86.031c0.002-0.319-0.174-0.704-0.464-0.993l0,0c-0.289-0.29-0.67-0.468-0.989-0.464l0,0
		h-9.779c-0.616,0.002-1.212,0.706-1.214,1.457l0,0V99.73h-7.354v-20.56h21.038c3.008,0.037,5.836,2.867,5.875,5.88l0,0v14.18v0.5
		H214.856L214.856,99.73z M221.468,99.23v-0.499V99.23L221.468,99.23z M213.403,83.575c1.302,0.037,2.415,1.156,2.452,2.456l0,0
		l-0.002,12.7h5.114V85.051c0.004-1.176-0.601-2.415-1.533-3.346l0,0c-0.931-0.933-2.168-1.537-3.341-1.533l0,0l-20.037-0.002v18.56
		h5.354V86.031c0.006-1.206,0.873-2.429,2.213-2.458l0,0L213.403,83.575L213.403,83.575z"/>
</g>
<g>
	<path id="_x32_399_3_" d="M314.327,99.231V85.051c0-2.688-2.688-5.379-5.379-5.379h-20.535v19.56h6.354V86.032
		c0-0.979,0.732-1.957,1.715-1.957h9.775c0.979,0,1.955,0.979,1.955,1.957v13.199H314.327L314.327,99.231z"/>
	<path fill="#FFFFFF" d="M307.712,99.73V86.031c0.002-0.32-0.173-0.703-0.466-0.993l0,0c-0.287-0.291-0.67-0.467-0.99-0.463l0,0
		l-9.774-0.002c-0.623,0.002-1.215,0.705-1.218,1.458l0,0V99.73h-7.352V79.172h21.036c3.013,0.037,5.84,2.866,5.879,5.878l0,0V99.23
		v0.5H307.712L307.712,99.73z M314.327,99.23v-0.5V99.23L314.327,99.23z M306.256,83.575c1.302,0.036,2.419,1.155,2.454,2.456l0,0
		V98.73h5.115V85.05c0.005-1.176-0.601-2.414-1.533-3.345l0,0c-0.931-0.934-2.17-1.538-3.344-1.533l0,0h-20.036V98.73h5.354V86.031
		c0.004-1.205,0.87-2.429,2.215-2.458l0,0L306.256,83.575L306.256,83.575z"/>
</g>
<g>
	<path id="_x33_177_1_" d="M258.892,99.231V85.051c0-2.688-2.688-5.379-5.379-5.379h-27.625v19.56h6.357V86.032
		c0-0.979,0.73-1.957,1.709-1.957h3.668c0.734,0,1.712,0.979,1.712,1.957v13.199h6.358V86.032c0-0.979,0.73-1.957,1.709-1.957h3.668
		c0.732,0,1.711,0.979,1.711,1.957v13.199H258.892L258.892,99.231z"/>
	<path fill="#FFFFFF" d="M238.834,99.731v-13.7c0.003-0.319-0.179-0.715-0.45-1.008l0,0c-0.265-0.301-0.617-0.461-0.763-0.45l0,0
		h-3.668c-0.615,0.002-1.208,0.704-1.21,1.458l0,0v13.698h-7.356V79.172h28.126c3.014,0.037,5.84,2.867,5.88,5.879l0,0v14.18v0.499
		h-7.112V86.031c0.004-0.319-0.179-0.715-0.451-1.008l0,0c-0.264-0.301-0.617-0.461-0.76-0.45l0,0H247.4
		c-0.614,0.002-1.207,0.704-1.209,1.458l0,0v13.7H238.834L238.834,99.731z M258.892,99.23v-0.499V99.23L258.892,99.23z
		 M251.069,83.575c1.128,0.07,2.148,1.16,2.209,2.456l0,0v12.7h5.112V85.051c0.004-1.177-0.601-2.415-1.534-3.346l0,0
		c-0.931-0.934-2.169-1.538-3.344-1.534l0,0l-27.125-0.002v18.563h5.355v-12.7c0.007-1.203,0.869-2.429,2.21-2.456l0,0h3.668
		c1.13,0.07,2.152,1.16,2.211,2.456l0,0v12.698h5.359V86.031c0.005-1.203,0.867-2.429,2.209-2.456l0,0H251.069L251.069,83.575z"/>
</g>
<g>
	<path id="_x33_181_1_" d="M21.514,99.231H5.379C2.691,99.231,0,97.521,0,94.833v-15.4h21.513v4.646H7.089
		c-0.732,0-1.711,0.733-1.711,1.712s0.979,1.712,1.711,1.712h13.446v3.911H7.089c-0.732,0-1.711,0.979-1.711,1.712
		c0,0.979,0.979,1.955,1.711,1.955h14.424L21.514,99.231L21.514,99.231z"/>
	<path fill="#FFFFFF" d="M5.379,99.73c-2.868-0.005-5.852-1.828-5.881-4.898l0,0v-15.9h22.515v5.646H7.089
		c-0.202-0.006-0.543,0.124-0.795,0.359l0,0c-0.256,0.233-0.417,0.535-0.417,0.853l0,0c0,0.316,0.161,0.62,0.417,0.853l0,0
		c0.252,0.236,0.593,0.364,0.795,0.359l0,0h13.945v4.911H7.089c-0.145-0.013-0.51,0.154-0.776,0.434l0,0
		c-0.281,0.269-0.448,0.634-0.436,0.778l0,0c-0.004,0.32,0.177,0.715,0.45,1.006l0,0c0.265,0.299,0.618,0.463,0.762,0.448l0,0
		h14.922l0.002,4.652l0.002,0.5H5.379L5.379,99.73z M21.513,99.23v-0.5V99.23L21.513,99.23z M0.5,94.832
		c0.004,2.305,2.369,3.893,4.879,3.898l0,0h15.634v-3.151H7.089c-1.127-0.07-2.152-1.158-2.211-2.455l0,0
		c0.091-1.123,1.088-2.118,2.211-2.212l0,0h12.945v-2.911H7.089c-1.024-0.029-2.166-0.882-2.211-2.212l0,0
		c0.045-1.33,1.187-2.183,2.211-2.212l0,0l13.922-0.002v-3.645H0.5V94.832L0.5,94.832z"/>
</g>
<g>
	<path id="_x33_181_2_" d="M100.979,99.478H84.843c-2.688,0-5.379-1.711-5.379-4.397V79.677h21.515v4.645H86.553
		c-0.731,0-1.71,0.734-1.71,1.715s0.979,1.711,1.71,1.711h13.446v3.91H86.553c-0.731,0-1.71,0.979-1.71,1.714
		c0,0.979,0.979,1.954,1.71,1.954h14.426V99.478L100.979,99.478z"/>
	<path fill="#FFFFFF" d="M84.843,99.978c-2.868-0.006-5.853-1.829-5.879-4.898l0,0V79.175h22.514v5.646H86.553
		c-0.2-0.006-0.541,0.124-0.793,0.359l0,0c-0.256,0.235-0.419,0.537-0.417,0.857l0,0c-0.002,0.315,0.159,0.617,0.417,0.851l0,0
		c0.25,0.233,0.59,0.363,0.793,0.357l0,0h13.945v4.912l-13.945-0.002c-0.145-0.013-0.508,0.155-0.776,0.436l0,0
		c-0.279,0.269-0.448,0.635-0.434,0.779l0,0c-0.006,0.319,0.175,0.714,0.448,1.007l0,0c0.265,0.298,0.618,0.459,0.762,0.448l0,0
		h14.924v4.65v0.502H84.843L84.843,99.978z M100.979,99.476v-0.499V99.476L100.979,99.476z M79.963,95.079
		c0.004,2.303,2.371,3.891,4.88,3.897l0,0h15.635v-3.153H86.553c-1.127-0.07-2.15-1.156-2.212-2.453l0,0
		c0.093-1.124,1.09-2.123,2.212-2.214l0,0h12.946v-2.91H86.553c-1.022-0.028-2.167-0.88-2.212-2.209l0,0
		c0.045-1.335,1.188-2.188,2.212-2.216l0,0h13.925v-3.646H79.963V95.079L79.963,95.079z"/>
</g>
<g>
	<path id="_x33_181_3_" d="M284.907,99.231h-16.137c-2.688,0-5.381-1.711-5.381-4.398v-15.4h21.516v4.646h-14.424
		c-0.732,0-1.715,0.733-1.715,1.712s0.979,1.712,1.715,1.712h13.442v3.911h-13.442c-0.732,0-1.715,0.979-1.715,1.712
		c0,0.979,0.979,1.955,1.715,1.955h14.424v4.153h0.002V99.231z"/>
	<path fill="#FFFFFF" d="M284.907,99.732h-0.504V99.73H268.77c-2.868-0.006-5.854-1.828-5.881-4.898l0,0v-15.9h22.517v5.646h-14.924
		c-0.202-0.005-0.545,0.125-0.797,0.36l0,0c-0.259,0.233-0.421,0.536-0.419,0.853l0,0c-0.002,0.314,0.16,0.617,0.417,0.853l0,0
		c0.252,0.233,0.597,0.363,0.799,0.358l0,0h13.94v4.912l-13.94-0.002c-0.145-0.013-0.511,0.156-0.78,0.436l0,0
		c-0.281,0.269-0.448,0.634-0.436,0.777l0,0c-0.004,0.319,0.177,0.713,0.45,1.007l0,0c0.265,0.299,0.619,0.461,0.766,0.448l0,0
		h14.924v4.653v0.5H284.907L284.907,99.732z M263.889,94.832c0.005,2.304,2.371,3.892,4.881,3.898l0,0h15.634v-3.152h-13.922
		c-1.13-0.069-2.156-1.157-2.215-2.454l0,0c0.092-1.123,1.093-2.12,2.215-2.212l0,0l12.941-0.002V88h-12.941
		c-1.026-0.027-2.171-0.88-2.215-2.21l0,0c0.044-1.332,1.19-2.185,2.215-2.214l0,0h13.922V79.93h-20.515V94.832L263.889,94.832z"/>
</g>
<g>
	<path id="_x32_391_1_" d="M54.517,79.675v4.4h6.355c1.712,0,1.712,0,1.712,1.957v13.199h6.111V86.032c0-1.957,0-1.957,1.956-1.957
		h6.111v-4.4H54.517z"/>
	<path fill="#FFFFFF" d="M62.084,99.73V86.031c0-0.55-0.004-0.938-0.035-1.163l0,0c-0.033-0.221-0.056-0.217-0.056-0.219l0,0
		c0-0.002-0.054-0.031-0.196-0.048l0,0c-0.186-0.026-0.5-0.028-0.925-0.026l0,0h-6.855v-4.9v-0.502h23.246v5.4l-6.612,0.002
		c-0.729-0.007-1.181,0.017-1.309,0.072l0,0c-0.081,0.058-0.045-0.063-0.12,0.308l0,0c-0.025,0.227-0.027,0.589-0.027,1.076l0,0
		V99.73H62.084L62.084,99.73z M55.016,83.573h5.856c0.834,0.027,1.361-0.082,1.873,0.417l0,0c0.409,0.546,0.312,1.065,0.339,2.041
		l0,0v12.697h5.111V86.031c0.027-0.967-0.079-1.519,0.39-2.065l0,0c0.547-0.471,1.099-0.365,2.065-0.391l0,0h5.613v-3.4H55.016
		V83.573L55.016,83.573z M54.516,80.175v-0.5V80.175L54.516,80.175z"/>
</g>
<g>
	<path id="_x32_391_2_" d="M132.197,79.675v4.4h6.355c1.71,0,1.71,0,1.71,1.957v13.199h6.112V86.032c0-1.957,0-1.957,1.957-1.957
		h6.112v-4.4H132.197z"/>
	<path fill="#FFFFFF" d="M139.761,99.73V86.031c0-0.55-0.002-0.938-0.033-1.163l0,0c-0.035-0.221-0.056-0.217-0.056-0.219l0,0
		c0-0.002-0.054-0.031-0.196-0.048l0,0c-0.186-0.026-0.498-0.028-0.925-0.026l0,0h-6.856v-4.9v-0.502h23.246v5.402l-6.61-0.002
		c-0.731-0.005-1.183,0.019-1.311,0.074l0,0c-0.081,0.058-0.045-0.063-0.12,0.308l0,0c-0.024,0.227-0.026,0.589-0.026,1.076l0,0
		V99.73H139.761L139.761,99.73z M132.697,83.573h5.854c0.834,0.027,1.361-0.082,1.873,0.417l0,0
		c0.409,0.546,0.312,1.065,0.336,2.041l0,0v12.697h5.113V86.031c0.027-0.967-0.079-1.519,0.39-2.065l0,0
		c0.549-0.471,1.101-0.365,2.067-0.393l0,0h5.611v-3.398h-21.245V83.573L132.697,83.573z M132.197,80.175v-0.5V80.175
		L132.197,80.175z"/>
</g>
<g>
	<path id="_x32_391_3_" d="M317.909,79.675v4.4h6.354c1.713,0,1.713,0,1.713,1.957v13.199h6.11V86.032c0-1.957,0-1.957,1.955-1.957
		h6.111v-4.4H317.909z"/>
	<path fill="#FFFFFF" d="M325.476,99.731V86.032c0-0.55-0.002-0.94-0.033-1.165l0,0c-0.034-0.221-0.057-0.216-0.057-0.219l0,0
		c0,0-0.053-0.031-0.195-0.048l0,0c-0.187-0.025-0.5-0.027-0.928-0.025l0,0h-6.854v-4.9v-0.501h23.244v5.399h-6.611
		c-0.73-0.006-1.184,0.019-1.31,0.075l0,0c-0.082,0.057-0.046-0.064-0.119,0.307l0,0c-0.025,0.229-0.027,0.588-0.027,1.077l0,0
		v13.699H325.476L325.476,99.731z M318.407,83.574h5.855c0.835,0.027,1.362-0.084,1.876,0.416l0,0
		c0.409,0.545,0.311,1.067,0.336,2.042l0,0V98.73h5.112V86.032c0.025-0.968-0.08-1.52,0.391-2.067l0,0
		c0.548-0.47,1.098-0.363,2.064-0.391l0,0h5.609v-3.399h-21.244V83.574L318.407,83.574z M317.908,80.175v-0.5V80.175L317.908,80.175
		z"/>
</g>
<g>
	<path d="M105.366,79.675v19.559h6.356v-3.42c0-0.979,0.733-1.959,1.711-1.959h8.068c0.979,0,1.711,0.979,1.711,1.959v3.42h5.379
		v-5.379c0-0.73-0.732-1.709-0.732-2.688c0-0.73,1.711-2.441,1.711-4.396v-1.713c0-1.714-2.689-5.381-4.4-5.381L105.366,79.675
		L105.366,79.675z M113.433,84.075h8.068c0.979,0,1.71,0.979,1.71,1.957v1.71c0,0.979-0.732,1.713-1.71,1.713h-8.068
		c-0.978,0-1.711-0.733-1.711-1.713v-1.71C111.723,85.056,112.455,84.075,113.433,84.075z"/>
	<path fill="#FFFFFF" d="M122.711,99.732v-3.919c-0.002-0.756-0.595-1.458-1.21-1.46l0,0h-8.068c-0.615,0.002-1.21,0.706-1.212,1.46
		l0,0v3.919h-7.355V79.675v-0.501l20.305,0.002c1.2,0.043,2.286,1.069,3.233,2.24l0,0c0.923,1.197,1.644,2.546,1.665,3.641l0,0
		v1.714c-0.002,1.126-0.479,2.112-0.919,2.901l0,0c-0.45,0.756-0.842,1.464-0.791,1.495l0,0c-0.035,0.758,0.68,1.669,0.731,2.687
		l0,0v5.879H122.711L122.711,99.732z M105.865,98.733h5.357v-2.92c0.006-1.206,0.869-2.431,2.211-2.46l0,0h8.068
		c1.34,0.029,2.206,1.254,2.21,2.46l0,0v2.918h4.379v-4.878c0.052-0.441-0.698-1.489-0.731-2.687l0,0
		c0.05-0.7,0.514-1.214,0.919-1.984l0,0c0.415-0.739,0.795-1.584,0.791-2.412l0,0v-1.714c0.021-0.619-0.601-1.962-1.452-3.025l0,0
		c-0.824-1.092-1.937-1.899-2.449-1.854l0,0l-19.304-0.002V98.733L105.865,98.733z M105.365,80.175v-0.5V80.175L105.365,80.175z
		 M113.433,89.955c-1.239-0.004-2.209-0.975-2.211-2.214l0,0v-1.71c0.006-1.202,0.869-2.427,2.211-2.457l0,0v0.499v0.502
		c-0.615,0-1.21,0.706-1.212,1.456l0,0v1.71c0.014,0.721,0.493,1.199,1.212,1.212l0,0h8.068c0.717-0.013,1.196-0.491,1.21-1.212l0,0
		v-1.71c-0.002-0.754-0.595-1.456-1.21-1.456l0,0h-8.068v-0.502v-0.499h8.068c1.34,0.028,2.204,1.253,2.21,2.457l0,0v1.71
		c-0.002,1.237-0.973,2.21-2.21,2.214l0,0H113.433L113.433,89.955z"/>
</g>
<g>
	<path d="M161.594,79.675c-1.712,0-4.399,3.667-4.399,5.381v14.178h6.354v-5.379h11.489v5.379h6.355V85.056
		c0-1.714-2.688-5.381-4.646-5.381H161.594z M165.261,84.075h8.066c0.73,0,1.711,0.979,1.711,1.957v3.422h-11.489v-3.422
		C163.549,85.056,164.283,84.075,165.261,84.075z"/>
	<path fill="#FFFFFF" d="M156.694,99.733V85.056c0.021-1.095,0.741-2.443,1.665-3.643l0,0c0.946-1.171,2.034-2.195,3.236-2.24l0,0
		v0.501v0.5c-0.512-0.043-1.625,0.765-2.449,1.856l0,0c-0.849,1.062-1.472,2.403-1.45,3.025l0,0l-0.002,13.675h5.354v-5.378h12.489
		l-0.002,5.38h5.356V85.056c0.022-0.622-0.599-1.96-1.477-3.02l0,0c-0.859-1.088-2.001-1.896-2.668-1.862l0,0h-15.153v-0.5v-0.499
		h15.153c1.29,0.033,2.47,1.057,3.444,2.232l0,0c0.958,1.201,1.681,2.554,1.701,3.648l0,0v14.676h-7.355v-5.379h-10.49v5.381
		H156.694L156.694,99.733z M163.048,89.954v-3.922c0.006-1.204,0.872-2.429,2.214-2.459l0,0v0.502v0.499
		c-0.616,0.002-1.212,0.709-1.214,1.458l0,0v2.92h10.49v-2.92c0.004-0.32-0.178-0.715-0.45-1.008l0,0
		c-0.267-0.301-0.619-0.462-0.76-0.45l0,0h-8.065v-0.499v-0.502l8.065,0.002c1.126,0.07,2.149,1.16,2.21,2.457l0,0v3.922H163.048
		L163.048,89.954z"/>
</g>
<g>
	<path d="M191.907,99.231V79.673h-6.11v19.559H191.907L191.907,99.231z"/>
	<path fill="#FFFFFF" d="M185.294,99.73v-20.56h7.112v20.06v0.5H185.294L185.294,99.73z M191.906,99.23v-0.5V99.23L191.906,99.23z
		 M186.296,98.73h5.108V80.173h-5.108V98.73L186.296,98.73z"/>
</g>
<g>
	<path id="_x33_177_2_" d="M250.86,126.021v-14.18c0-2.688-2.689-5.379-5.381-5.379h-27.623v19.559h6.354v-13.201
		c0-0.979,0.732-1.957,1.71-1.957h3.667c0.734,0,1.714,0.979,1.714,1.957v13.199h6.354v-13.199c0-0.979,0.73-1.957,1.709-1.957
		h3.668c0.732,0,1.715,0.979,1.715,1.957v13.199h6.111L250.86,126.021L250.86,126.021z"/>
	<path fill="#FFFFFF" d="M250.649,126.518h-6.402v-13.698c0.004-0.319-0.179-0.714-0.451-1.009l0,0
		c-0.266-0.299-0.622-0.461-0.764-0.449l0,0h-3.669c-0.616,0-1.208,0.704-1.21,1.458l0,0v13.698h-7.354v-13.698
		c0.005-0.319-0.176-0.714-0.448-1.009l0,0c-0.266-0.299-0.62-0.461-0.764-0.449l0,0h-3.667c-0.616,0-1.21,0.704-1.212,1.458l0,0
		v13.698h-7.353V105.96l28.122,0.002c3.015,0.037,5.845,2.867,5.883,5.877l0,0v14.181v1.209L250.649,126.518L250.649,126.518z
		 M250.859,126.02l0.354-0.354L250.859,126.02L250.859,126.02z M218.356,125.52h5.353v-12.7c0.006-1.206,0.87-2.429,2.211-2.458l0,0
		h3.667c1.129,0.07,2.15,1.162,2.213,2.458l0,0l-0.002,12.698h5.356v-12.698c0.004-1.204,0.868-2.429,2.209-2.458l0,0h3.669
		c1.127,0.072,2.153,1.16,2.213,2.458l0,0v12.698h5.114v-13.679c0.004-1.173-0.601-2.412-1.534-3.342l0,0
		c-0.931-0.935-2.17-1.539-3.348-1.535l0,0h-27.121V125.52L218.356,125.52z"/>
</g>
<g>
	<path id="_x33_181_4_" d="M213.479,126.021h-16.137c-2.688,0-5.377-1.713-5.377-4.397V106.22h21.512v4.646h-14.422
		c-0.732,0-1.713,0.732-1.713,1.711s0.979,1.712,1.713,1.712h13.443v3.911h-13.443c-0.732,0-1.713,0.979-1.713,1.713
		c0,0.979,0.979,1.954,1.713,1.954h14.422L213.479,126.021L213.479,126.021z"/>
	<path fill="#FFFFFF" d="M197.344,126.519c-2.868-0.004-5.854-1.829-5.878-4.896l0,0v-15.904h22.51v5.646h-14.921
		c-0.201-0.005-0.543,0.126-0.796,0.36l0,0c-0.257,0.234-0.418,0.536-0.418,0.852l0,0c0,0.316,0.161,0.619,0.418,0.854l0,0
		c0.251,0.233,0.593,0.364,0.796,0.358l0,0h13.942v4.912l-13.942-0.002c-0.144-0.013-0.51,0.155-0.777,0.437l0,0
		c-0.281,0.268-0.449,0.632-0.437,0.777l0,0c-0.005,0.318,0.178,0.713,0.451,1.005l0,0c0.264,0.3,0.617,0.462,0.763,0.449l0,0
		h14.921l0.002,4.653l0.002,0.501L197.344,126.519L197.344,126.519z M213.479,126.02v-0.499V126.02L213.479,126.02z
		 M192.465,121.623c0.004,2.3,2.369,3.891,4.879,3.897l0,0h15.635l-0.002-3.155h-13.922c-1.129-0.068-2.152-1.156-2.213-2.453l0,0
		c0.092-1.123,1.092-2.122,2.213-2.213l0,0l12.944-0.002v-2.909h-12.944c-1.025-0.028-2.169-0.882-2.213-2.212l0,0
		c0.046-1.33,1.189-2.182,2.213-2.211l0,0h13.922v-3.646h-20.512V121.623L192.465,121.623z"/>
</g>
<g>
	<path id="_x32_391_4_" d="M167.017,106.462v4.398h6.355c1.711,0,1.711,0,1.711,1.957v13.199h6.111v-13.199
		c0-1.957,0-1.957,1.959-1.957h6.109v-4.398H167.017z"/>
	<path fill="#FFFFFF" d="M174.583,126.516v-13.698c0-0.551-0.004-0.94-0.035-1.164l0,0c-0.033-0.222-0.057-0.218-0.057-0.22l0,0
		c0,0-0.052-0.031-0.194-0.048l0,0c-0.187-0.024-0.499-0.026-0.926-0.026l0,0h-6.855v-4.897v-0.502h23.245v5.399h-6.607
		c-0.731-0.006-1.185,0.017-1.312,0.074l0,0c-0.082,0.057-0.047-0.064-0.12,0.307l0,0c-0.026,0.229-0.028,0.587-0.028,1.077l0,0
		v13.698H174.583L174.583,126.516z M167.517,110.358l5.854,0.002c0.835,0.025,1.361-0.085,1.873,0.415l0,0
		c0.41,0.545,0.313,1.066,0.337,2.042l0,0v12.698h5.113v-12.698c0.025-0.967-0.079-1.519,0.39-2.067l0,0
		c0.549-0.47,1.1-0.364,2.069-0.39l0,0l5.608-0.002v-3.397h-21.245V110.358L167.517,110.358z M167.017,106.961v-0.499V106.961
		L167.017,106.961z"/>
</g>
<g>
	<path id="_x33_187_1_" d="M94.611,106.565c-1.712,0-5.379,2.689-5.379,4.397v2.69c0,1.713,3.667,4.4,5.379,4.4h10.756
		c0.978,0,1.956,0.979,1.956,1.711c0,0.978-0.979,1.954-1.956,1.954H89.232v4.399h18.09c1.712,0,5.134-2.688,5.134-4.399v-2.688
		c0-1.957-3.422-4.646-5.134-4.646H96.566c-0.979,0-1.955-0.733-1.955-1.713c0-0.978,0.977-1.713,1.955-1.713h15.89v-4.397H94.611
		V106.565z"/>
	<path fill="#FFFFFF" d="M88.732,126.618v-5.401h16.634c0.319,0.005,0.702-0.172,0.992-0.464l0,0
		c0.292-0.288,0.468-0.671,0.464-0.988l0,0c0.012-0.145-0.149-0.497-0.45-0.762l0,0c-0.292-0.273-0.688-0.454-1.007-0.45l0,0H94.609
		c-1.092-0.021-2.44-0.741-3.64-1.665l0,0c-1.168-0.947-2.194-2.033-2.238-3.234l0,0v-2.691c0.043-1.199,1.069-2.285,2.238-3.233
		l0,0c1.022-0.786,2.153-1.426,3.141-1.61l0,0v-0.058h18.845v5.396l-16.39,0.002c-0.75,0-1.455,0.595-1.455,1.212l0,0
		c0,0.618,0.703,1.212,1.455,1.212l0,0h10.756c1.098,0.021,2.393,0.753,3.535,1.71l0,0c1.114,0.978,2.071,2.169,2.099,3.438l0,0
		v2.688c-0.038,1.177-0.995,2.278-2.105,3.226l0,0c-1.138,0.924-2.432,1.651-3.528,1.674l0,0H88.732L88.732,126.618z
		 M89.733,125.617h17.589c0.615,0.021,1.89-0.597,2.89-1.443l0,0c1.027-0.822,1.782-1.923,1.745-2.455l0,0v-2.688
		c0.027-0.689-0.728-1.82-1.751-2.679l0,0c-0.999-0.874-2.271-1.489-2.884-1.469l0,0H96.565c-1.206-0.006-2.426-0.872-2.455-2.213
		l0,0c0.029-1.338,1.249-2.206,2.455-2.212l0,0l15.389-0.002v-3.396H95.111v0.005h-0.501c-0.617-0.021-1.959,0.601-3.022,1.45l0,0
		c-1.092,0.826-1.9,1.938-1.856,2.446l0,0v2.691c-0.043,0.51,0.765,1.624,1.856,2.449l0,0c1.063,0.849,2.405,1.471,3.022,1.45l0,0
		h10.757c1.297,0.062,2.387,1.083,2.457,2.212l0,0c-0.038,1.299-1.156,2.416-2.457,2.453l0,0H89.733V125.617L89.733,125.617z
		 M94.609,106.565v-0.501V106.565L94.609,106.565z"/>
</g>
<g>
	<path id="_x33_187_2_" d="M146.397,106.565c-1.713,0-5.38,2.689-5.38,4.397v2.69c0,1.713,3.667,4.4,5.38,4.4h10.756
		c0.978,0,1.956,0.979,1.956,1.711c0,0.978-0.979,1.954-1.956,1.954h-16.136v4.399h18.091c1.712,0,5.134-2.688,5.134-4.399v-2.688
		c0-1.957-3.422-4.646-5.134-4.646h-10.757c-0.978,0-1.955-0.733-1.955-1.713c0-0.978,0.978-1.713,1.955-1.713h15.891v-4.397
		h-17.845V106.565L146.397,106.565z"/>
	<path fill="#FFFFFF" d="M140.515,126.618v-5.401h16.638c0.317,0.005,0.701-0.172,0.991-0.464l0,0
		c0.292-0.288,0.468-0.671,0.464-0.988l0,0c0.012-0.145-0.149-0.497-0.447-0.762l0,0c-0.294-0.273-0.69-0.454-1.007-0.45l0,0
		h-10.756c-1.094-0.021-2.442-0.741-3.642-1.665l0,0c-1.168-0.947-2.194-2.033-2.237-3.234l0,0l-0.002-2.691
		c0.046-1.199,1.071-2.285,2.242-3.233l0,0c1.021-0.786,2.152-1.426,3.141-1.61l0,0v-0.058h18.844v5.396l-16.392,0.002
		c-0.75,0-1.454,0.597-1.457,1.212l0,0c0.002,0.618,0.705,1.212,1.457,1.212l0,0h10.757c1.098,0.021,2.395,0.753,3.534,1.71l0,0
		c1.115,0.978,2.074,2.169,2.101,3.438l0,0v2.688c-0.037,1.177-0.997,2.278-2.107,3.226l0,0c-1.137,0.924-2.43,1.651-3.528,1.674
		l0,0H140.515L140.515,126.618z M141.518,125.617h17.589c0.615,0.021,1.889-0.597,2.89-1.443l0,0
		c1.028-0.822,1.782-1.923,1.745-2.455l0,0v-2.688c0.027-0.689-0.727-1.82-1.75-2.679l0,0c-0.999-0.874-2.271-1.489-2.884-1.469l0,0
		h-10.757c-1.206-0.006-2.426-0.872-2.455-2.213l0,0c0.029-1.34,1.251-2.206,2.455-2.212l0,0h15.391l-0.002-3.398h-16.843v0.003
		h-0.5c-0.62-0.02-1.962,0.603-3.025,1.452l0,0c-1.092,0.826-1.899,1.938-1.856,2.446l0,0v2.691
		c-0.043,0.51,0.764,1.624,1.856,2.449l0,0c1.063,0.849,2.405,1.471,3.025,1.45l0,0h10.756c1.295,0.062,2.385,1.083,2.455,2.212l0,0
		c-0.037,1.299-1.156,2.416-2.455,2.453l0,0h-15.637L141.518,125.617L141.518,125.617z M146.397,106.565v-0.501V106.565
		L146.397,106.565z"/>
</g>
<g>
	<path d="M114.412,106.565v8.804c0,1.71,2.688,4.399,4.4,4.399h4.398v6.354h6.357v-6.354h4.4c1.71,0,4.4-2.689,4.4-4.399v-8.804
		h-6.112v7.092c0,0.732-0.978,1.712-1.956,1.712h-7.822c-0.979,0-1.956-0.979-1.956-1.712v-7.092H114.412z"/>
	<path fill="#FFFFFF" d="M122.709,126.621v-6.354h-3.897c-1.112-0.021-2.246-0.771-3.196-1.705l0,0
		c-0.935-0.951-1.685-2.084-1.705-3.195l0,0v-8.803v-0.499h7.11v7.591c-0.012,0.144,0.149,0.497,0.448,0.763l0,0
		c0.294,0.271,0.688,0.453,1.009,0.449l0,0h7.821c0.319,0.004,0.713-0.178,1.007-0.449l0,0c0.301-0.266,0.462-0.619,0.45-0.763l0,0
		v-7.591h7.112v9.302c-0.023,1.111-0.772,2.244-1.705,3.195l0,0c-0.953,0.935-2.086,1.685-3.194,1.705l0,0h-3.901v6.354H122.709
		L122.709,126.621z M123.708,119.267v6.354h5.357v-6.354h4.902c0.599,0.022,1.666-0.574,2.486-1.411l0,0
		c0.839-0.82,1.434-1.887,1.413-2.488l0,0v-8.303h-5.113v6.592c-0.07,1.129-1.16,2.15-2.455,2.211l0,0l-7.821,0.002
		c-1.297-0.063-2.387-1.086-2.457-2.213l0,0v-6.592h-5.109v8.303c-0.021,0.602,0.574,1.668,1.411,2.488l0,0
		c0.821,0.837,1.888,1.434,2.49,1.411l0,0H123.708L123.708,119.267z M114.412,107.064v-0.5V107.064L114.412,107.064z"/>
</g>
</svg>
