<?xml version="1.0" encoding="UTF-8"?>
<svg width="64" height="64" version="1.1" viewBox="0 0 64 64" xmlns="http://www.w3.org/2000/svg">
 <path id="outline" d="M62,19 L62,32 A13,13 90 0,1 49,45 L15,45 A13,13 90 0,1 2,32 L2,19"  fill="none" stroke="#fff" stroke-linejoin="round" stroke-width="2"/>
 <line id="outline2" x1="1" y1="19" x2="63" y2="19" stroke="#fff" stroke-width="2"/>
 <path id="button_rt" d="m2 19v13a13 13 0 0 0 13 13h34a13 13 0 0 0 13-13v-13h-60zm19.119141 4.433594h4.546875c1.882812 0 3.273437 0.425781 4.171875 1.277344 0.898437 0.851562 1.347656 2.15625 1.347656 3.914062 0 2.039062-0.699219 3.519531-2.097656 4.441406l3.28125 7.5h-4.324219l-2.625-6.46875h-0.210938v6.46875h-4.089843v-17.132812zm11.308593 0h10.453125v3.222656h-3.1875v13.910156h-4.078125v-13.910156h-3.1875v-3.222656zm-7.21875 3.175781v4.324219h0.304688c0.539062 0 0.929687-0.183594 1.171875-0.550782 0.25-0.367187 0.375-0.921874 0.375-1.664062 0-0.75-0.128906-1.289062-0.386719-1.617188-0.25-0.328124-0.644531-0.492187-1.183594-0.492187h-0.28125z" fill="#fff"/>
</svg>
