<?xml version="1.0" encoding="UTF-8"?>
<svg width="64" height="64" version="1.1" viewBox="0 0 64 64" xmlns="http://www.w3.org/2000/svg">
 <circle id="outline" cx="32" cy="32" r="28" fill="none" stroke="#fff" stroke-width="2"/>
 <path id="button_a" d="m32 4a28 28 0 0 0-28 28 28 28 0 0 0 28 28 28 28 0 0 0 28-28 28 28 0 0 0-28-28zm-4.238281 13.664062h8.457031l7.109375 28.671876h-6.875l-1.582031-6.992188h-5.761719l-1.582031 6.992188h-6.855469l7.089844-28.671876zm4.238281 8.75c-0.208333 1.002605-0.761719 3.509115-1.660156 7.519532h3.359375l-1.699219-7.519532z" fill="#fff"/>
</svg>
