<?xml version="1.0" encoding="UTF-8"?>
<svg width="64" height="64" version="1.1" viewBox="0 0 64 64" xmlns="http://www.w3.org/2000/svg">
 <circle id="outline" cx="32" cy="32" r="28" fill="none" stroke="#fff" stroke-width="2"/>
 <path id="button_2" d="m32 4a28 28 0 0 0-28 28 28 28 0 0 0 28 28 28 28 0 0 0 28-28 28 28 0 0 0-28-28zm-0.126953 13.527344c2.591146 0 4.563802 0.703125 5.917969 2.109375 1.354166 1.393229 2.03125 3.307291 2.03125 5.742187 0 1.601563-0.286459 3.131511-0.859375 4.589844-0.572917 1.458333-1.341146 2.897135-2.304688 4.316406-0.950521 1.419271-2.643229 3.671875-5.078125 6.757813h8.828125v5.429687h-16.523437v-4.296875l5.078125-7.1875c0.690104-0.976562 1.217448-1.751302 1.582031-2.324219 0.377604-0.572916 0.794271-1.282552 1.25-2.128906 0.859375-1.614583 1.289062-3.248698 1.289062-4.902344 0-0.898437-0.15625-1.582031-0.46875-2.050781-0.3125-0.481771-0.735677-0.722656-1.269531-0.722656-0.625 0-1.25 0.266927-1.875 0.800781-0.546875 0.481771-1.028646 0.957032-1.445312 1.425782-0.416667 0.46875-0.638021 0.722656-0.664063 0.761718l-3.769531-3.984375c1.328125-1.458333 2.630208-2.545573 3.90625-3.261719 1.289062-0.716145 2.747396-1.074218 4.375-1.074218z" fill="#fff"/>
</svg>
