<?xml version="1.0" encoding="UTF-8"?>
<svg width="64" height="64" version="1.1" viewBox="0 0 64 64" xmlns="http://www.w3.org/2000/svg">
 <circle id="outline" cx="32" cy="32" r="28" fill="none" stroke="#fff" stroke-width="2"/>
 <path id="button_3" d="m32 4a28 28 0 0 0-28 28 28 28 0 0 0 28 28 28 28 0 0 0 28-28 28 28 0 0 0-28-28zm-0.439453 13.527344c1.536458 0 2.916667 0.260416 4.140625 0.78125 1.236979 0.507812 2.233073 1.308594 2.988281 2.402344 0.768229 1.080729 1.152344 2.402343 1.152344 3.964843 0 1.549479-0.384115 2.910156-1.152344 4.082031-0.755208 1.158855-1.842448 2.044271-3.261719 2.65625 1.601563 0.442709 2.825521 1.223959 3.671875 2.34375 0.859375 1.119792 1.289063 2.552084 1.289063 4.296876 0 2.747395-0.898438 4.902343-2.695313 6.464843-1.796875 1.549479-4.147135 2.324219-7.050781 2.324219s-5.234375-0.455729-6.992187-1.367188v-5.664062c1.40625 0.807292 2.890625 1.373698 4.453125 1.699219 0.664062 0.130208 1.295573 0.195312 1.894531 0.195312 1.210937 0 2.115885-0.305989 2.714844-0.917969 0.598958-0.611979 0.898437-1.57552 0.898437-2.890624 0-2.48698-1.425781-3.730469-4.277344-3.730469h-1.328125v-4.6875h1.269532c1.25 0 2.20052-0.319011 2.851562-0.957031 0.651042-0.651042 0.976563-1.601563 0.976563-2.851563 0-0.950521-0.182292-1.673177-0.546875-2.167969-0.364584-0.494791-0.885417-0.742187-1.5625-0.742187-1.223959 0-2.48698 0.390625-3.789063 1.171875-0.3125 0.182291-0.625 0.397135-0.9375 0.644531l-2.636719-3.867187c0.221355-0.260417 0.631511-0.598959 1.230469-1.015626 0.598958-0.429687 1.184896-0.78125 1.757813-1.054687 0.572916-0.286458 1.308593-0.540365 2.207031-0.761719 0.898437-0.234375 1.809896-0.351562 2.734375-0.351562z" fill="#fff"/>
</svg>
