<?xml version="1.0" encoding="UTF-8"?>
<svg width="64" height="64" version="1.1" viewBox="0 0 64 64" xmlns="http://www.w3.org/2000/svg">
 <circle id="outline" cx="32" cy="32" r="28" fill="none" stroke="#fff" stroke-width="2"/>
 <path id="button_triangle" d="m32 4a28 28 0 0 0-28 28 28 28 0 0 0 28 28 28 28 0 0 0 28-28 28 28 0 0 0-28-28zm-0.052734 7a2.0002 2.0002 0 0 1 1.8105 1.0449l15.934 29.35a2.0002 2.0002 0 0 1-1.7559 2.9531h-31.871a2.0002 2.0002 0 0 1-1.7559-2.9531l15.934-29.35a2.0002 2.0002 0 0 1 1.7051-1.0449zm0.052734 6.1914-12.572 23.156h25.145l-12.572-23.156z" fill="#fff"/>
</svg>
