<?xml version="1.0" encoding="utf-8"?>
<!-- Generator: Adobe Illustrator 13.0.0, SVG Export Plug-In . SVG Version: 6.00 Build 14948)  -->
<!DOCTYPE svg PUBLIC "-//W3C//DTD SVG 1.1//EN" "http://www.w3.org/Graphics/SVG/1.1/DTD/svg11.dtd">
<svg version="1.1"
	 id="Ebene_1" xmlns:rdf="http://www.w3.org/1999/02/22-rdf-syntax-ns#" xmlns:inkscape="http://www.inkscape.org/namespaces/inkscape" xmlns:dc="http://purl.org/dc/elements/1.1/" xmlns:sodipodi="http://sodipodi.sourceforge.net/DTD/sodipodi-0.dtd" xmlns:cc="http://creativecommons.org/ns#" xmlns:svg="http://www.w3.org/2000/svg" inkscape:version="0.48.5 r10040" sodipodi:docname="Kodi.svg"
	 xmlns="http://www.w3.org/2000/svg" xmlns:xlink="http://www.w3.org/1999/xlink" x="0px" y="0px" width="239.76px"
	 height="78.762px" viewBox="0 0 239.76 78.762" enable-background="new 0 0 239.76 78.762" xml:space="preserve">
<sodipodi:namedview  id="namedview31" bordercolor="#666666" guidetolerance="10" inkscape:cx="481.8057" objecttolerance="10" inkscape:zoom="0.67942367" inkscape:cy="11.282395" gridtolerance="10" pagecolor="#ffffff" borderopacity="1" fit-margin-top="0" fit-margin-left="0" inkscape:window-x="-8" inkscape:pageshadow="2" inkscape:current-layer="Ebene_1" inkscape:window-width="1366" inkscape:window-y="-8" inkscape:pageopacity="0" inkscape:window-height="706" inkscape:window-maximized="1" fit-margin-right="0" fit-margin-bottom="0" showgrid="false">
	</sodipodi:namedview>
<g id="g3" transform="matrix(0.4237353,0,0,0.4237353,-53.58646,-83.348259)">
	<g id="g5">
		<path id="path7" inkscape:connector-curvature="0" fill="#6B6B6B" d="M502.529,236.387c0.954,0.061,1.911,0.119,2.867,0.186
			c7.333,0.506,14.344,2.226,20.894,5.629c4.678,2.433,8.827,5.58,12.528,9.334c4.019,4.076,7.343,8.645,9.845,13.8
			c1.837,3.784,3.111,7.754,3.996,11.86c1.081,5.035,1.438,10.131,1.224,15.258c-0.346,8.228-2.166,16.091-6.045,23.411
			c-2.706,5.107-6.234,9.587-10.431,13.551c-6.73,6.354-14.616,10.498-23.678,12.42c-3.353,0.708-6.734,1.155-10.161,1.261
			c-0.154,0.007-0.309,0.051-0.463,0.078h-4.033c-0.876-0.065-1.754-0.124-2.627-0.189c-10.493-0.761-20.071-4.001-28.37-10.606
			c-6.55-5.211-11.68-11.569-15.178-19.202c-1.779-3.879-2.971-7.946-3.763-12.134c-0.897-4.736-1.182-9.521-0.943-14.325
			c0.507-10.117,3.171-19.563,9.041-27.935c6.87-9.792,15.851-16.758,27.446-20.125c3.535-1.026,7.138-1.71,10.809-1.991
			c1.166-0.091,2.332-0.136,3.496-0.207c0.191-0.01,0.38-0.047,0.569-0.073H502.529L502.529,236.387z M500.934,329.444
			c3.729-0.028,7.338-0.334,10.88-1.21c7.711-1.904,14.125-5.905,19.221-12.005c5.206-6.225,7.912-13.459,8.645-21.479
			c0.253-2.743,0.281-5.494,0.12-8.247c-0.18-2.987-0.572-5.945-1.364-8.835c-2.475-9.025-7.545-16.226-15.331-21.437
			c-5.826-3.893-12.344-5.675-19.295-6.02c-3.798-0.187-7.575-0.016-11.32,0.665c-6.545,1.188-12.367,3.89-17.386,8.286
			c-4.865,4.265-8.384,9.443-10.56,15.535c-1.65,4.608-2.309,9.379-2.376,14.251c-0.058,3.783,0.21,7.544,1.032,11.241
			c1.491,6.674,4.492,12.565,9.177,17.585c4.135,4.43,9.053,7.617,14.78,9.569C491.655,328.874,496.302,329.395,500.934,329.444"/>
		<path id="path9" inkscape:connector-curvature="0" fill="#6B6B6B" d="M692.285,340.773c-0.394,0.954-0.696,1.148-1.775,1.148
			c-3.519,0-7.041,0.002-10.565,0c-1.24,0-1.696-0.461-1.696-1.708v-100.83c0-1.293,0.456-1.746,1.768-1.747
			c3.521,0,7.043-0.012,10.562,0.02c0.436,0.003,0.908,0.175,1.281,0.404c0.224,0.141,0.29,0.537,0.426,0.822v101.891H692.285z"/>
		<path id="path11" inkscape:connector-curvature="0" fill="#6B6B6B" d="M405.102,279.939c1.777,2.358,3.536,4.696,5.295,7.034
			c3.73,4.956,7.459,9.913,11.19,14.873c4.798,6.377,9.594,12.752,14.393,19.126c4.702,6.25,9.398,12.498,14.107,18.741
			c0.35,0.459,0.5,0.926,0.251,1.461c-0.254,0.539-0.747,0.714-1.302,0.744c-0.254,0.016-0.509,0.002-0.767,0.002
			c-4.337,0-8.675-0.002-13.012,0.005c-0.742,0.002-1.286-0.247-1.752-0.864c-8.179-10.933-16.377-21.855-24.573-32.779
			c-4.654-6.2-9.311-12.404-13.967-18.604c-0.037-0.052-0.082-0.097-0.149-0.175c-0.565,0.527-1.126,1.05-1.685,1.568
			c-3.775,3.531-7.548,7.061-11.322,10.592c-2.081,1.943-4.162,3.888-6.255,5.819c-0.27,0.247-0.38,0.495-0.38,0.864
			c0.009,10.56,0.008,21.124,0.008,31.687c0,0.127,0.003,0.256,0,0.385c-0.028,0.968-0.521,1.493-1.488,1.498
			c-3.698,0.014-7.393,0.009-11.091,0c-0.938-0.005-1.431-0.53-1.451-1.473c-0.002-0.108,0-0.224,0-0.334V239.476v-0.097
			c0-1.273,0.46-1.739,1.724-1.739c3.377-0.001,6.754-0.001,10.131-0.001c0.224,0,0.448-0.007,0.672,0.001
			c0.978,0.045,1.459,0.527,1.501,1.5c0.007,0.145,0.001,0.289,0.001,0.432v48.783v0.676c0.838-0.782,1.595-1.484,2.346-2.191
			c4.458-4.182,8.912-8.367,13.373-12.547c5.848-5.48,11.7-10.959,17.549-16.44c4.903-4.597,9.801-9.197,14.7-13.795
			c2.067-1.939,4.137-3.871,6.197-5.815c0.429-0.406,0.92-0.605,1.507-0.605c5.172,0.001,10.339,0,15.51,0.001
			c0.88,0,1.378,0.32,1.563,0.979c0.154,0.544-0.055,0.967-0.436,1.331c-1.498,1.423-2.991,2.845-4.492,4.26
			c-2.655,2.503-5.315,5.001-7.969,7.504c-3.683,3.467-7.359,6.932-11.035,10.404c-3.77,3.557-7.536,7.12-11.307,10.675
			C410.178,275.167,407.659,277.531,405.102,279.939"/>
		<path id="path13" inkscape:connector-curvature="0" fill="#6B6B6B" d="M569.924,289.792v-50.223c0-0.146,0-0.289,0.002-0.434
			c0.018-0.947,0.498-1.442,1.438-1.496c0.065-0.003,0.129-0.001,0.189-0.001c14.36,0.001,28.716-0.033,43.074,0.022
			c6.603,0.023,12.92,1.507,18.949,4.203c5.243,2.345,9.85,5.615,13.851,9.729c6.522,6.696,10.853,14.595,12.98,23.708
			c1.226,5.247,1.733,10.559,1.622,15.933c-0.152,7.22-1.406,14.231-4.141,20.94c-2.284,5.6-5.557,10.574-9.682,14.987
			c-6.326,6.778-14.015,11.233-23.021,13.415c-3.888,0.94-7.824,1.36-11.825,1.355c-13.906-0.018-27.815-0.007-41.726-0.009
			c-0.237,0-0.479-0.018-0.712-0.051c-0.516-0.083-0.834-0.392-0.926-0.903c-0.048-0.267-0.069-0.539-0.069-0.807
			C569.924,323.369,569.924,306.581,569.924,289.792 M583.971,328.499h0.618c9.348,0,18.695,0.009,28.043-0.009
			c1.676-0.005,3.358-0.074,5.029-0.203c3.471-0.274,6.783-1.194,9.947-2.646c4.139-1.894,7.617-4.655,10.611-8.066
			c2.791-3.176,4.996-6.711,6.621-10.611c1.731-4.151,2.66-8.481,3.003-12.961c0.318-4.085,0.189-8.152-0.424-12.199
			c-0.731-4.781-2.286-9.294-4.69-13.496c-2.671-4.673-6.121-8.674-10.548-11.765c-5.301-3.701-11.256-5.423-17.681-5.454
			c-10.002-0.048-20.009-0.015-30.011-0.017h-0.519v77.427H583.971z"/>
	</g>
	<g id="g15">
		<path id="path17" inkscape:connector-curvature="0" fill="#31AFE1" d="M313.057,291.184c-0.603,1.952-1.921,3.383-3.334,4.791
			c-9.464,9.431-18.899,18.896-28.345,28.347c-3.403,3.406-7.04,3.397-10.456-0.023c-9.749-9.756-19.497-19.511-29.24-29.269
			c-3.32-3.321-3.318-6.951,0.01-10.281c9.798-9.816,19.601-19.625,29.404-29.434c3.188-3.192,6.937-3.193,10.125-0.003
			c9.503,9.506,18.993,19.023,28.513,28.512c1.413,1.407,2.728,2.842,3.323,4.797v2.563H313.057z"/>
		<path id="path19" inkscape:connector-curvature="0" fill="#31AFE1" d="M219.101,382.575c-1.944-0.618-3.352-1.964-4.753-3.372
			c-9.425-9.474-18.877-18.917-28.322-28.373c-3.379-3.383-3.382-6.992-0.01-10.366c9.773-9.781,19.547-19.564,29.323-29.343
			c3.251-3.254,6.974-3.266,10.206-0.03c9.775,9.779,19.549,19.564,29.321,29.345c3.357,3.365,3.366,7.048,0.024,10.389
			c-9.526,9.539-19.066,19.064-28.57,28.619c-1.361,1.364-2.76,2.595-4.655,3.13H219.101L219.101,382.575z"/>
		<path id="path21" inkscape:connector-curvature="0" fill="#31AFE1" d="M184.799,266.464c0-10.877,0.098-21.755-0.062-32.628
			c-0.045-3.147,0.705-5.605,3.11-7.683c1.931-1.671,3.646-3.599,5.457-5.414c7.166-7.173,14.329-14.344,21.497-21.515
			c3.371-3.369,7.006-3.367,10.374,0.002c9.749,9.751,19.495,19.504,29.243,29.259c3.35,3.353,3.346,7.037-0.001,10.389
			c-11.528,11.543-23.059,23.082-34.589,34.621c-10.182,10.195-20.362,20.387-30.545,30.576c-1.888,1.89-3.56,1.45-4.244-1.168
			c-0.211-0.811-0.229-1.685-0.229-2.531C184.795,289.07,184.799,277.766,184.799,266.464"/>
		<path id="path23" inkscape:connector-curvature="0" fill="#31AFE1" d="M161.487,290.031c0,9.978,0.014,19.964-0.021,29.943
			c-0.005,0.947-0.154,1.952-0.494,2.832c-0.666,1.733-1.916,1.947-3.224,0.641c-4.591-4.582-9.169-9.177-13.75-13.768
			c-5.296-5.305-10.594-10.608-15.887-15.916c-2.191-2.199-2.2-5.245-0.018-7.454c9.749-9.858,19.499-19.716,29.252-29.573
			c0.645-0.651,1.253-1.535,2.35-1.121c1.047,0.396,1.461,1.341,1.609,2.388c0.094,0.65,0.167,1.31,0.168,1.966
			c0.01,10.021,0.006,20.04,0.006,30.063H161.487z"/>
	</g>
</g>
</svg>
