<?xml version="1.0" encoding="utf-8"?>
<!-- Generator: Adobe Illustrator 13.0.0, SVG Export Plug-In . SVG Version: 6.00 Build 14948)  -->
<!DOCTYPE svg PUBLIC "-//W3C//DTD SVG 1.1//EN" "http://www.w3.org/Graphics/SVG/1.1/DTD/svg11.dtd">
<svg version="1.1" id="Ebene_1" xmlns="http://www.w3.org/2000/svg" xmlns:xlink="http://www.w3.org/1999/xlink" x="0px" y="0px"
	 width="566.93px" height="72.714px" viewBox="0 0 566.93 72.714" enable-background="new 0 0 566.93 72.714" xml:space="preserve">
<g>
	<linearGradient id="SVGID_1_" gradientUnits="userSpaceOnUse" x1="129.5347" y1="0.3569" x2="129.5347" y2="71.3569">
		<stop  offset="0" style="stop-color:#B830B0"/>
		<stop  offset="1" style="stop-color:#0547FF"/>
	</linearGradient>
	<path fill="url(#SVGID_1_)" d="M122.879,3.133c2.804-3.588,8.608-4.201,12.048-1.191c1.407,1.187,2.393,2.82,2.897,4.579
		c6.369,21.915,12.767,43.82,19.127,65.736c-3.758,0.005-7.52-0.006-11.277,0.005c-1.773-6.042-3.504-12.097-5.254-18.146
		c-7.269-0.017-14.534-0.004-21.802-0.007c-1.779,6.045-3.536,12.097-5.284,18.153c-3.738-0.014-7.477-0.004-11.216-0.008
		c6.051-20.904,12.109-41.812,18.189-62.709C121.029,7.362,121.301,4.92,122.879,3.133 M129.514,16.562
		c-2.665,9.08-5.276,18.176-7.926,27.259c5.283,0.024,10.563,0.009,15.844,0.009C134.788,34.74,132.158,25.651,129.514,16.562z"/>
	<linearGradient id="SVGID_2_" gradientUnits="userSpaceOnUse" x1="209.063" y1="0.3569" x2="209.063" y2="71.3569">
		<stop  offset="0" style="stop-color:#B830B0"/>
		<stop  offset="1" style="stop-color:#0547FF"/>
	</linearGradient>
	<path fill="url(#SVGID_2_)" d="M202.062,3.604c1.959-2.842,5.746-4.22,9.08-3.343c3.051,0.703,5.387,3.333,6.192,6.294
		c6.362,21.899,12.748,43.791,19.11,65.69c-3.765,0.026-7.526,0-11.29,0.016c-1.75-6.049-3.481-12.104-5.245-18.15
		c-7.256,0.004-14.511-0.013-21.767,0.006c-1.734,6.053-3.523,12.092-5.257,18.143c-3.735,0.004-7.469-0.004-11.203,0.004
		c6.048-21.021,12.167-42.024,18.263-63.029C200.583,7.335,200.831,5.243,202.062,3.604 M201.146,43.832
		c5.261,0.006,10.519,0.002,15.779,0.002c-2.617-9.107-5.276-18.204-7.885-27.313C206.412,25.626,203.761,34.722,201.146,43.832z"/>
	<linearGradient id="SVGID_3_" gradientUnits="userSpaceOnUse" x1="168.9297" y1="0.3569" x2="168.9297" y2="71.3569">
		<stop  offset="0" style="stop-color:#B830B0"/>
		<stop  offset="1" style="stop-color:#0547FF"/>
	</linearGradient>
	<path fill="url(#SVGID_3_)" d="M148.535,0.152c13.6,0,27.195,0,40.791,0c0,3.668,0,7.333,0,11
		c-5.007,0.004-10.011-0.006-15.016,0.004c0,20.366,0.003,40.736-0.003,61.101c-3.584,0-7.172,0-10.757,0
		c0-20.364-0.004-40.734,0.002-61.101c-5.006-0.01-10.01,0-15.019-0.004C148.535,7.485,148.531,3.82,148.535,0.152z"/>
	<linearGradient id="SVGID_4_" gradientUnits="userSpaceOnUse" x1="264.9678" y1="0.3569" x2="264.9678" y2="71.3569">
		<stop  offset="0" style="stop-color:#B830B0"/>
		<stop  offset="1" style="stop-color:#0547FF"/>
	</linearGradient>
	<path fill="url(#SVGID_4_)" d="M248.398,0.599c1.034-0.356,2.136-0.479,3.227-0.452c4.287,0.016,8.575,0.003,12.861,0.006
		c7.22,0.132,14.112,4.612,17.236,11.11c2.163,4.22,2.387,9.127,1.841,13.756c-0.376,4.847-2.408,9.692-6.134,12.904
		c-1.969,1.755-4.42,2.816-6.525,4.377c-1.157,0.882-1.214,2.594-0.617,3.816c5.69,8.783,11.606,17.432,17.416,26.141
		c-4.249,0.008-8.498-0.01-12.747,0.008c-5.562-8.354-11.065-16.75-16.604-25.116c-1.628-2.381-2.071-5.534-1.097-8.252
		c0.762-2.083,2.582-3.609,4.611-4.396c3.873-1.478,7.691-3.8,9.836-7.453c1.632-2.747,1.548-6.137,0.813-9.143
		c-0.86-3.902-4.663-6.973-8.681-6.838c-2.778,0.02-5.556-0.014-8.33,0.013c-1.256-0.028-2.438,1.063-2.422,2.335
		c-0.013,19.615,0.006,39.232-0.006,58.848c-3.613-0.008-7.223,0-10.836-0.004c-0.007-21.117,0.006-42.236-0.007-63.354
		C242.257,5.205,244.888,1.723,248.398,0.599z"/>
	<linearGradient id="SVGID_5_" gradientUnits="userSpaceOnUse" x1="299.0859" y1="0.3569" x2="299.0859" y2="71.3569">
		<stop  offset="0" style="stop-color:#B830B0"/>
		<stop  offset="1" style="stop-color:#0547FF"/>
	</linearGradient>
	<path fill="url(#SVGID_5_)" d="M293.384,0.152c3.802,0,7.601,0,11.402,0c-0.003,24.037,0.007,48.071-0.007,72.109
		c-3.797-0.01-7.596,0-11.396-0.004C293.384,48.22,293.384,24.186,293.384,0.152z"/>
	<linearGradient id="SVGID_6_" gradientUnits="userSpaceOnUse" x1="18.8188" y1="0.3569" x2="18.8188" y2="71.3569">
		<stop  offset="0" style="stop-color:#B830B0"/>
		<stop  offset="1" style="stop-color:#0547FF"/>
	</linearGradient>
	<path fill="url(#SVGID_6_)" d="M32.154,0.005c1.826-0.006,3.652,0,5.479-0.004c0.008,4.294,0,8.589,0.003,12.882
		c0.019,3.584-0.082,7.167-0.231,10.748c-0.244,5.17-0.568,10.352-1.425,15.462c-0.588,3.521-1.807,6.922-3.319,10.146
		c-2.467,5.2-6.343,9.602-10.7,13.303c-3.898,3.43-8.551,5.928-13.444,7.617c-2.768,0.952-5.617,1.688-8.518,2.098
		c0.003-3.603,0.003-7.203,0-10.805c3.492-0.524,6.849-1.766,9.967-3.402c3.7-1.955,7.03-4.588,9.833-7.688
		c2.895-3.202,5.202-6.907,6.953-10.847c2.062-4.526,3.166-9.415,3.916-14.311C31.608,18.98,32,12.687,32.146,6.396
		C32.166,4.266,32.148,2.135,32.154,0.005z"/>
	<linearGradient id="SVGID_7_" gradientUnits="userSpaceOnUse" x1="44.8804" y1="0.3569" x2="44.8804" y2="71.3569">
		<stop  offset="0" style="stop-color:#B830B0"/>
		<stop  offset="1" style="stop-color:#0547FF"/>
	</linearGradient>
	<path fill="url(#SVGID_7_)" d="M39.837,0.011c3.361-0.021,6.724-0.003,10.086-0.009c0.001,24.085,0.001,48.169,0,72.253
		c-3.354,0.007-6.709-0.018-10.063,0.014c-0.042-7.68-0.006-15.361-0.018-23.041C39.839,32.822,39.849,16.419,39.837,0.011z"/>
	<linearGradient id="SVGID_8_" gradientUnits="userSpaceOnUse" x1="70.9634" y1="0.3569" x2="70.9634" y2="71.3569">
		<stop  offset="0" style="stop-color:#B830B0"/>
		<stop  offset="1" style="stop-color:#0547FF"/>
	</linearGradient>
	<path fill="url(#SVGID_8_)" d="M52.167,0.003c1.816-0.001,3.632-0.005,5.447,0.001C57.555,7.348,57.805,14.703,58.68,22
		c0.717,5.666,1.727,11.376,3.983,16.653c2.14,5.109,5.224,9.856,9.243,13.685c3.838,3.658,8.49,6.474,13.543,8.094
		c1.41,0.449,2.852,0.805,4.318,1.018c-0.002,3.602-0.003,7.2,0,10.801c-2.88-0.393-5.704-1.135-8.453-2.067
		c-3.273-1.14-6.438-2.614-9.346-4.505c-2.123-1.364-4.053-2.998-5.907-4.703c-3.057-2.818-5.792-6.021-7.847-9.648
		c-1.607-2.822-2.78-5.877-3.698-8.988c-0.842-3.129-1.201-6.361-1.528-9.578c-0.632-6.95-0.868-13.936-0.823-20.911
		C52.167,7.896,52.166,3.948,52.167,0.003z"/>
	<linearGradient id="SVGID_9_" gradientUnits="userSpaceOnUse" x1="18.8188" y1="0.3569" x2="18.8188" y2="71.3569">
		<stop  offset="0" style="stop-color:#B830B0"/>
		<stop  offset="1" style="stop-color:#0547FF"/>
	</linearGradient>
	<path fill="url(#SVGID_9_)" d="M32.154,0.005c-0.006,2.131,0.012,4.262-0.009,6.393c-0.145,6.29-0.537,12.584-1.477,18.808
		c-0.75,4.896-1.854,9.784-3.916,14.311c-1.751,3.938-4.059,7.646-6.953,10.848c-2.803,3.102-6.134,5.732-9.833,7.688
		c-3.118,1.639-6.475,2.878-9.967,3.4c0.003,3.604,0.003,7.205,0,10.807c2.901-0.409,5.75-1.145,8.518-2.098
		c4.894-1.689,9.546-4.188,13.444-7.617c4.357-3.701,8.233-8.103,10.7-13.303c1.512-3.227,2.731-6.625,3.319-10.146
		c0.857-5.111,1.181-10.292,1.425-15.462c0.149-3.581,0.25-7.164,0.231-10.748c-0.003-4.293,0.005-8.588-0.003-12.882
		C35.806,0.005,33.98-0.001,32.154,0.005"/>
	<linearGradient id="SVGID_10_" gradientUnits="userSpaceOnUse" x1="44.8804" y1="0.3569" x2="44.8804" y2="71.3569">
		<stop  offset="0" style="stop-color:#B830B0"/>
		<stop  offset="1" style="stop-color:#0547FF"/>
	</linearGradient>
	<path fill="url(#SVGID_10_)" d="M39.837,0.011c0.012,16.407,0.001,32.813,0.006,49.217c0.012,7.68-0.025,15.361,0.018,23.041
		c3.354-0.029,6.709-0.007,10.063-0.014c0.001-24.084,0.001-48.168,0-72.253C46.561,0.008,43.198-0.012,39.837,0.011"/>
	<linearGradient id="SVGID_11_" gradientUnits="userSpaceOnUse" x1="70.9653" y1="0.3569" x2="70.9653" y2="71.3569">
		<stop  offset="0" style="stop-color:#B830B0"/>
		<stop  offset="1" style="stop-color:#0547FF"/>
	</linearGradient>
	<path fill="url(#SVGID_11_)" d="M52.167,0.003c-0.001,3.945,0,7.895,0,11.842c-0.045,6.978,0.191,13.961,0.823,20.911
		c0.327,3.216,0.686,6.449,1.528,9.578c0.918,3.111,2.091,6.166,3.698,8.988c2.054,3.627,4.79,6.83,7.847,9.648
		c1.854,1.705,3.785,3.339,5.907,4.703c2.907,1.891,6.073,3.365,9.346,4.504c2.749,0.936,5.573,1.678,8.453,2.068
		c-0.003-3.601-0.002-7.199,0-10.801c-1.466-0.213-2.908-0.566-4.318-1.018c-5.053-1.62-9.705-4.436-13.543-8.094
		c-4.019-3.826-7.103-8.574-9.243-13.685c-2.257-5.277-3.267-10.987-3.983-16.653C57.807,14.699,57.557,7.344,57.616,0
		C55.799-0.002,53.984,0.002,52.167,0.003"/>
	<linearGradient id="SVGID_12_" gradientUnits="userSpaceOnUse" x1="418.3008" y1="0.3569" x2="418.3008" y2="71.3569">
		<stop  offset="0" style="stop-color:#B830B0"/>
		<stop  offset="1" style="stop-color:#0547FF"/>
	</linearGradient>
	<path fill="url(#SVGID_12_)" d="M437.874,34.488c5.281-3.112,8.575-8.381,8.575-14.23c0-13.813-14.59-20.104-28.146-20.104
		c-13.558,0-28.146,6.291-28.146,20.104c0,5.851,3.293,11.118,8.574,14.23c-7.511,3.479-11.714,9.403-11.714,16.784
		c0,13.913,15.737,21.192,31.283,21.192s31.283-7.279,31.283-21.192C449.587,43.891,445.384,37.964,437.874,34.488z M418.304,25.732
		c-3.458,0-6.271-2.23-6.271-4.974c0-2.744,2.813-4.975,6.271-4.975c3.455,0,6.27,2.231,6.27,4.975
		C424.573,23.502,421.761,25.732,418.304,25.732z M418.304,43.457c3.848,0,6.979,2.567,6.979,5.728c0,3.065-3.131,5.56-6.979,5.56
		c-3.85,0-6.979-2.492-6.979-5.56C411.325,46.024,414.455,43.457,418.304,43.457z"/>
	<linearGradient id="SVGID_13_" gradientUnits="userSpaceOnUse" x1="473.707" y1="0.3569" x2="473.707" y2="71.3569">
		<stop  offset="0" style="stop-color:#B830B0"/>
		<stop  offset="1" style="stop-color:#0547FF"/>
	</linearGradient>
	<path fill="url(#SVGID_13_)" d="M498.233,11.921c-5.774-7.698-14.257-11.769-24.529-11.769s-18.755,4.069-24.529,11.769
		c-4.854,6.476-7.528,15.181-7.528,24.513c0,18.058,9.912,36.28,32.06,36.28s32.062-18.223,32.062-36.28
		C505.765,27.101,503.09,18.396,498.233,11.921z M473.704,51.23c-7.721,0-8.566-10.037-8.566-14.881
		c0-4.798,0.848-14.714,8.566-14.714c7.721,0,8.565,9.916,8.565,14.714C482.271,41.193,481.425,51.23,473.704,51.23z"/>
	<linearGradient id="SVGID_14_" gradientUnits="userSpaceOnUse" x1="534.8711" y1="0.3569" x2="534.8711" y2="71.3569">
		<stop  offset="0" style="stop-color:#B830B0"/>
		<stop  offset="1" style="stop-color:#0547FF"/>
	</linearGradient>
	<path fill="url(#SVGID_14_)" d="M559.396,11.921c-5.772-7.698-14.256-11.769-24.527-11.769c-10.272,0-18.755,4.069-24.529,11.769
		c-4.854,6.476-7.53,15.181-7.53,24.513c0,18.058,9.914,36.28,32.062,36.28c22.146,0,32.061-18.223,32.061-36.28
		C566.929,27.101,564.254,18.396,559.396,11.921z M534.869,51.23c-7.722,0-8.567-10.037-8.567-14.881
		c0-4.798,0.848-14.714,8.567-14.714s8.565,9.916,8.565,14.714C543.436,41.193,542.589,51.23,534.869,51.23z"/>
	<linearGradient id="SVGID_15_" gradientUnits="userSpaceOnUse" x1="368.1953" y1="0.3569" x2="368.1953" y2="71.3569">
		<stop  offset="0" style="stop-color:#B830B0"/>
		<stop  offset="1" style="stop-color:#0547FF"/>
	</linearGradient>
	<polygon fill="url(#SVGID_15_)" points="336.516,1.165 336.516,23.181 366.663,23.181 344.172,72.386 369.636,72.386 
		399.876,1.165 	"/>
</g>
</svg>
