<?xml version="1.0" encoding="UTF-8" standalone="no"?>
<!-- Generator: Adobe Illustrator 13.0.0, SVG Export Plug-In . SVG Version: 6.00 Build 14948)  -->

<svg
   xmlns:dc="http://purl.org/dc/elements/1.1/"
   xmlns:cc="http://creativecommons.org/ns#"
   xmlns:rdf="http://www.w3.org/1999/02/22-rdf-syntax-ns#"
   xmlns:svg="http://www.w3.org/2000/svg"
   xmlns="http://www.w3.org/2000/svg"
   xmlns:sodipodi="http://sodipodi.sourceforge.net/DTD/sodipodi-0.dtd"
   xmlns:inkscape="http://www.inkscape.org/namespaces/inkscape"
   version="1.2"
   id="Ebene_1"
   x="0px"
   y="0px"
   width="337.64694"
   height="84.06768"
   viewBox="74.938 2 337.64695 84.067677"
   xml:space="preserve"
   inkscape:version="0.48.5 r10040"
   sodipodi:docname="system.svg"><metadata
   id="metadata10"><rdf:RDF><cc:Work
       rdf:about=""><dc:format>image/svg+xml</dc:format><dc:type
         rdf:resource="http://purl.org/dc/dcmitype/StillImage" /><dc:title></dc:title></cc:Work></rdf:RDF></metadata><defs
   id="defs8" /><sodipodi:namedview
   pagecolor="#ffffff"
   bordercolor="#666666"
   borderopacity="1"
   objecttolerance="10"
   gridtolerance="10"
   guidetolerance="10"
   inkscape:pageopacity="0"
   inkscape:pageshadow="2"
   inkscape:window-width="1366"
   inkscape:window-height="706"
   id="namedview6"
   showgrid="false"
   fit-margin-top="0"
   fit-margin-left="0"
   fit-margin-right="0"
   fit-margin-bottom="0"
   inkscape:zoom="1.4318256"
   inkscape:cx="159.6096"
   inkscape:cy="62.126444"
   inkscape:window-x="-8"
   inkscape:window-y="-8"
   inkscape:window-maximized="1"
   inkscape:current-layer="Ebene_1" />

<path
   style="font-size:40px;font-style:normal;font-variant:normal;font-weight:normal;font-stretch:normal;text-indent:0;text-align:start;text-decoration:none;line-height:125%;letter-spacing:0px;word-spacing:0px;text-transform:none;direction:ltr;block-progression:tb;writing-mode:lr-tb;text-anchor:start;baseline-shift:baseline;color:#000000;fill:#000000;fill-opacity:1;fill-rule:nonzero;stroke:none;stroke-width:2.23586464;marker:none;visibility:visible;display:inline;overflow:visible;enable-background:accumulate;font-family:Super Mario 256;-inkscape-font-specification:Super Mario 256"
   d="M 89.15625,2.21875 88.8125,2.59375 76.84375,16 75.9375,17.03125 77.09375,17.71875 88.75,24.625 88.65625,24.8125 80.9375,20.4375 80,19.90625 l -0.5625,0.9375 -4.34375,7.28125 -0.5,0.84375 0.78125,0.59375 10,7.96875 0.3125,0.25 0.375,0 14.375,0 0.65625,0 0.3125,-0.59375 5.875,-11.0625 0.4375,-0.84375 -0.78125,-0.5625 -11.125,-8.1875 0.34375,-0.4375 5.90625,3.78125 0.84375,0.5625 0.625,-0.78125 5.78125,-7.125 0.59375,-0.75 -0.65625,-0.71875 -8,-8.5 -0.34375,-0.34375 -0.46875,0 -10.78125,0 -0.5,0 z m 0.96875,2.25 9.84375,0 6.96875,7.40625 -4.5,5.59375 -5.9375,-3.8125 -0.84375,-0.53125 -0.625,0.78125 -1.6875,2.15625 -0.71875,0.90625 0.9375,0.6875 11.3125,8.28125 -5.125,9.59375 -13.28125,0 -8.9375,-7.09375 3.25,-5.53125 7.6875,4.34375 0.9375,0.53125 0.5625,-0.90625 1.28125,-2 0.625,-0.96875 -0.96875,-0.59375 -11.5,-6.84375 10.71875,-12 z"
   id="path3019-4"
   inkscape:connector-curvature="0" /><path
   style="font-size:40px;font-style:normal;font-variant:normal;font-weight:normal;font-stretch:normal;text-indent:0;text-align:start;text-decoration:none;line-height:125%;letter-spacing:0px;word-spacing:0px;text-transform:none;direction:ltr;block-progression:tb;writing-mode:lr-tb;text-anchor:start;baseline-shift:baseline;color:#000000;fill:#000000;fill-opacity:1;fill-rule:nonzero;stroke:none;stroke-width:2.23586464;marker:none;visibility:visible;display:inline;overflow:visible;enable-background:accumulate;font-family:Super Mario 256;-inkscape-font-specification:Super Mario 256"
   d="m 107.0625,2.53125 0,1.125 0,25.125 0,0.40625 0.25,0.3125 6.59375,8.03125 0.3125,0.40625 0.53125,0 16.875,0 0.5,0 0.34375,-0.375 8,-9.03125 0.28125,-0.3125 0,-0.40625 0,-21.75 0,-1.125 -1.125,0 -13.71875,0 -1.25,0 0.125,1.25 1.59375,15.5 -3.25,2.34375 0.625,-20.34375 0.0312,-1.15625 -1.15625,0 -14.4375,0 -1.125,0 z m 2.25,2.25 12.15625,0 -0.625,21.4375 -0.0625,2.25 1.84375,-1.3125 5.5625,-4.03125 0.53125,-0.375 -0.0625,-0.65625 -1.53125,-14.90625 11.375,0 0,20.1875 -7.375,8.34375 -15.84375,0 -5.96875,-7.3125 0,-23.625 z"
   id="path3021-3"
   inkscape:connector-curvature="0" /><path
   style="font-size:40px;font-style:normal;font-variant:normal;font-weight:normal;font-stretch:normal;text-indent:0;text-align:start;text-decoration:none;line-height:125%;letter-spacing:0px;word-spacing:0px;text-transform:none;direction:ltr;block-progression:tb;writing-mode:lr-tb;text-anchor:start;baseline-shift:baseline;color:#000000;fill:#000000;fill-opacity:1;fill-rule:nonzero;stroke:none;stroke-width:2.23586464;marker:none;visibility:visible;display:inline;overflow:visible;enable-background:accumulate;font-family:Super Mario 256;-inkscape-font-specification:Super Mario 256"
   d="m 141.75,2.5 -0.0625,1.0625 -1.625,33.25 L 140,38 l 1.15625,0 10.4375,0 1.09375,0 0,-1.125 0,-5.25 8.84375,-0.5625 0.40625,-0.03125 0.3125,-0.28125 7.9375,-7.6875 0.375,-0.34375 -0.0312,-0.5 -0.625,-13.25 0,-0.5625 -0.46875,-0.3125 -7.875,-5.40625 -0.28125,-0.1875 -0.34375,0 -18.125,0 -1.0625,0 z m 2.125,2.21875 16.6875,0 7.15625,4.90625 0.5625,12.1875 -7.3125,7.0625 -9.46875,0.59375 -1.03125,0.0625 0,1.03125 0,5.1875 -8.125,0 1.53125,-31.03125 z m 8.5,7.71875 -0.0625,1.3125 -0.3125,5.40625 -0.0625,1.03125 1.03125,0.125 2.9375,0.40625 0.59375,0.09375 0.40625,-0.46875 3.75,-4.4375 1.21875,-1.40625 -1.8125,-0.40625 -6.40625,-1.375 -1.28125,-0.28125 z m 2.09375,2.75 3.28125,0.71875 -2.125,2.5 -1.34375,-0.15625 0.1875,-3.0625 z"
   id="path3023-1"
   inkscape:connector-curvature="0" /><path
   style="font-size:40px;font-style:normal;font-variant:normal;font-weight:normal;font-stretch:normal;text-indent:0;text-align:start;text-decoration:none;line-height:125%;letter-spacing:0px;word-spacing:0px;text-transform:none;direction:ltr;block-progression:tb;writing-mode:lr-tb;text-anchor:start;baseline-shift:baseline;color:#000000;fill:#000000;fill-opacity:1;fill-rule:nonzero;stroke:none;stroke-width:2.23586464;marker:none;visibility:visible;display:inline;overflow:visible;enable-background:accumulate;font-family:Super Mario 256;-inkscape-font-specification:Super Mario 256"
   d="m 171.125,2.28125 -0.15625,0.875 -2.4375,11.8125 -0.0312,0.1875 0.0312,0.15625 2.40625,21.375 0.125,1 1,0 24.625,0 1.6875,0 -0.65625,-1.5625 -3.8125,-8.90625 -0.28125,-0.65625 -0.71875,0 -9.53125,-0.09375 -0.0937,-0.3125 7.125,-0.625 0.9375,-0.09375 0.0625,-0.96875 0.4375,-7.09375 0.0937,-1.125 -1.125,-0.0625 -8.40625,-0.625 0,-0.28125 9.90625,-1.53125 0.75,-0.125 0.15625,-0.75 1.84375,-9.28125 0.25,-1.3125 -1.34375,0 -21.90625,0 -0.9375,0 z m 1.84375,2.21875 19.625,0 -1.40625,7.15625 -10,1.53125 -0.90625,0.15625 -0.0312,0.875 -0.15625,2.28125 -0.0625,1.125 1.09375,0.0625 8.4375,0.625 -0.3125,5.0625 -7.5625,0.6875 -1.375,0.125 0.4375,1.3125 0.75,2.40625 0.25,0.78125 0.8125,0 9.59375,0.09375 2.84375,6.65625 -21.96875,0 L 170.75,15.1875 172.96875,4.5 z"
   id="path3025-2"
   inkscape:connector-curvature="0" /><path
   style="font-size:40px;font-style:normal;font-variant:normal;font-weight:normal;font-stretch:normal;text-indent:0;text-align:start;text-decoration:none;line-height:125%;letter-spacing:0px;word-spacing:0px;text-transform:none;direction:ltr;block-progression:tb;writing-mode:lr-tb;text-anchor:start;baseline-shift:baseline;color:#000000;fill:#000000;fill-opacity:1;fill-rule:nonzero;stroke:none;stroke-width:2.23586464;marker:none;visibility:visible;display:inline;overflow:visible;enable-background:accumulate;font-family:Super Mario 256;-inkscape-font-specification:Super Mario 256"
   d="m 214.125,2.5 -0.4375,0.03125 -18.53125,1.4375 -1.125,0.09375 0.0937,1.125 2.59375,31.65625 0.0625,1.03125 1.03125,0 10.28125,0 1.34375,0 -0.21875,-1.3125 -1,-5.5625 7.78125,6.65625 0.53125,0.4375 0.65625,-0.28125 9.6875,-4.1875 1.625,-0.71875 -1.3125,-1.15625 -7.4375,-6.53125 3.90625,-4.375 L 223.96875,20.5 223.9375,20.03125 223.1875,9.625 223.125,9.09375 222.71875,8.78125 214.4375,2.75 214.125,2.5 z m -0.65625,2.3125 7.5,5.46875 0.71875,9.4375 -4.34375,4.84375 -0.75,0.84375 0.84375,0.71875 6.9375,6.15625 -7.4375,3.1875 -9.625,-8.1875 -2.375,-2.03125 0.5625,3.0625 1.28125,7.3125 -7.9375,0 L 196.4375,6.09375 213.46875,4.8125 z m -7.9375,6.28125 -0.0625,1.78125 -0.28125,6.34375 -0.0312,1.03125 1,0.125 2.75,0.34375 0.65625,0.09375 0.40625,-0.5625 2.71875,-3.9375 0.71875,-1.03125 -1.09375,-0.59375 -5.1875,-2.75 -1.59375,-0.84375 z m 2.09375,3.625 2.53125,1.34375 -1.65625,2.34375 -1.03125,-0.125 0.15625,-3.5625 z"
   id="path3027-3"
   inkscape:connector-curvature="0" /><path
   style="font-size:40px;font-style:normal;font-variant:normal;font-weight:normal;font-stretch:normal;text-indent:0;text-align:start;text-decoration:none;line-height:125%;letter-spacing:0px;word-spacing:0px;text-transform:none;direction:ltr;block-progression:tb;writing-mode:lr-tb;text-anchor:start;baseline-shift:baseline;color:#000000;fill:#000000;fill-opacity:1;fill-rule:nonzero;stroke:none;stroke-width:2.23586464;marker:none;visibility:visible;display:inline;overflow:visible;enable-background:accumulate;font-family:Super Mario 256;-inkscape-font-specification:Super Mario 256"
   d="m 291.15625,2.375 -0.84375,0.03125 -8.375,0.1875 -0.59375,0 -0.3125,0.53125 -4.34375,7 -2.34375,-6.75 -0.25,-0.75 -0.8125,0 -9.4375,0 -0.65625,0 -0.3125,0.59375 -15.96875,29.5625 -0.71875,1.34375 1.5,0.28125 12.5625,2.375 0.84375,0.15625 0.375,-0.78125 6.78125,-14.375 5.1875,6.875 0.71875,0.96875 0.90625,-0.8125 6.96875,-6.25 2.15625,6.25 0.0312,0.0625 2.25,8.09375 0.25,0.875 0.9375,-0.0625 11.9375,-1 1.34375,-0.09375 -0.375,-1.3125 -9.15625,-32.15625 -0.25,-0.84375 z M 289.5,4.65625 l 8.53125,30.03125 -9.65625,0.78125 -2.03125,-7.25 0,-0.03125 0,-0.03125 -2.75,-7.875 -0.53125,-1.59375 -1.25,1.125 -7.34375,6.53125 -5.5625,-7.40625 -1.125,-1.46875 -0.78125,1.6875 -7.1875,15.25 -10.21875,-1.90625 14.9375,-27.625 7.96875,0 2.875,8.1875 0.78125,2.21875 1.21875,-2 L 282.59375,4.8125 289.5,4.65625 z"
   id="path3029-3"
   inkscape:connector-curvature="0" /><path
   style="font-size:40px;font-style:normal;font-variant:normal;font-weight:normal;font-stretch:normal;text-indent:0;text-align:start;text-decoration:none;line-height:125%;letter-spacing:0px;word-spacing:0px;text-transform:none;direction:ltr;block-progression:tb;writing-mode:lr-tb;text-anchor:start;baseline-shift:baseline;color:#000000;fill:#000000;fill-opacity:1;fill-rule:nonzero;stroke:none;stroke-width:2.23586464;marker:none;visibility:visible;display:inline;overflow:visible;enable-background:accumulate;font-family:Super Mario 256;-inkscape-font-specification:Super Mario 256"
   d="m 320.34375,2.375 -0.78125,0.09375 -8.9375,0.875 -0.5625,0.0625 -0.28125,0.46875 -17.84375,30.03125 -0.84375,1.375 1.59375,0.28125 13.03125,2.34375 0.96875,0.15625 0.28125,-0.96875 2.21875,-7.59375 9.0625,0.1875 0.9375,7 0.15625,1.125 1.125,-0.1875 13.5,-2.15625 L 335.4375,35.25 334.8125,33.90625 320.6875,3.09375 320.34375,2.375 z M 319,4.75 332.15625,33.5 321.25,35.21875 l -0.90625,-6.75 -0.125,-0.96875 -0.96875,0 -10.875,-0.28125 -0.84375,-0.03125 -0.25,0.84375 L 305.125,35.5 294.65625,33.65625 311.40625,5.5 319,4.75 z m -6.71875,9.375 -0.3125,0.75 -1.8125,4.5625 -0.625,1.46875 1.625,0.0625 L 318,21.125 l 1.59375,0.0625 -0.5,-1.53125 -1.59375,-4.59375 -0.21875,-0.75 -0.78125,0 -3.4375,-0.15625 -0.78125,-0.03125 z m 1.46875,2.3125 1.90625,0.0625 0.8125,2.375 -3.65625,-0.125 0.9375,-2.3125 z"
   id="path3031-4"
   inkscape:connector-curvature="0" /><path
   style="font-size:40px;font-style:normal;font-variant:normal;font-weight:normal;font-stretch:normal;text-indent:0;text-align:start;text-decoration:none;line-height:125%;letter-spacing:0px;word-spacing:0px;text-transform:none;direction:ltr;block-progression:tb;writing-mode:lr-tb;text-anchor:start;baseline-shift:baseline;color:#000000;fill:#000000;fill-opacity:1;fill-rule:nonzero;stroke:none;stroke-width:2.23586464;marker:none;visibility:visible;display:inline;overflow:visible;enable-background:accumulate;font-family:Super Mario 256;-inkscape-font-specification:Super Mario 256"
   d="m 350.625,2.5 -0.40625,0.03125 -18.5625,1.4375 -1.125,0.09375 0.0937,1.125 2.59375,31.65625 0.0937,1.03125 1.03125,0 10.28125,0 1.3125,0 -0.21875,-1.3125 -1,-5.59375 7.8125,6.6875 0.53125,0.4375 0.625,-0.28125 9.71875,-4.1875 L 365,32.90625 363.6875,31.75 356.25,25.21875 l 3.90625,-4.375 0.3125,-0.34375 -0.0312,-0.46875 -0.75,-10.40625 -0.0312,-0.53125 -0.4375,-0.3125 L 350.96875,2.75 350.625,2.5 z m -0.65625,2.3125 7.53125,5.5 0.6875,9.40625 -4.34375,4.84375 -0.75,0.84375 0.84375,0.71875 6.9375,6.125 -7.4375,3.21875 -9.625,-8.1875 L 341.46875,25.25 342,28.3125 l 1.28125,7.3125 -7.9375,0 L 332.9375,6.09375 349.96875,4.8125 z m -7.90625,6.28125 -0.0937,1.78125 -0.25,6.34375 -0.0625,1.03125 1.03125,0.125 2.71875,0.34375 0.6875,0.09375 0.375,-0.5625 2.71875,-3.9375 0.71875,-1.03125 -1.09375,-0.59375 -5.1875,-2.75 -1.5625,-0.84375 z M 344.125,14.75 346.65625,16.09375 345,18.40625 343.96875,18.28125 344.125,14.75 z"
   id="path3033-1"
   inkscape:connector-curvature="0" /><path
   style="font-size:40px;font-style:normal;font-variant:normal;font-weight:normal;font-stretch:normal;text-indent:0;text-align:start;text-decoration:none;line-height:125%;letter-spacing:0px;word-spacing:0px;text-transform:none;direction:ltr;block-progression:tb;writing-mode:lr-tb;text-anchor:start;baseline-shift:baseline;color:#000000;fill:#000000;fill-opacity:1;fill-rule:nonzero;stroke:none;stroke-width:2.23586464;marker:none;visibility:visible;display:inline;overflow:visible;enable-background:accumulate;font-family:Super Mario 256;-inkscape-font-specification:Super Mario 256"
   d="M 371.84375,1.9375 370.875,2 l -8.6875,0.53125 -1.0625,0.0625 0.0312,1.09375 1.15625,32.6875 0.0312,1.21875 1.21875,-0.125 L 377.78125,35.875 379,35.75 378.75,34.53125 372.03125,2.875 371.84375,1.9375 z m -1.8125,2.34375 6.28125,29.5 -11.78125,1.3125 -1.125,-30.375 6.625,-0.4375 z"
   id="path3035-1"
   inkscape:connector-curvature="0" /><path
   style="font-size:40px;font-style:normal;font-variant:normal;font-weight:normal;font-stretch:normal;text-indent:0;text-align:start;text-decoration:none;line-height:125%;letter-spacing:0px;word-spacing:0px;text-transform:none;direction:ltr;block-progression:tb;writing-mode:lr-tb;text-anchor:start;baseline-shift:baseline;color:#000000;fill:#000000;fill-opacity:1;fill-rule:nonzero;stroke:none;stroke-width:2.23586464;marker:none;visibility:visible;display:inline;overflow:visible;enable-background:accumulate;font-family:Super Mario 256;-inkscape-font-specification:Super Mario 256"
   d="M 389.25,2.40625 388.96875,2.5625 378.4375,9.25 378.03125,9.5 377.9375,10.03125 375.84375,24 l -0.0937,0.625 0.46875,0.40625 14.0625,12.40625 0.46875,0.40625 0.5625,-0.15625 17.65625,-4.59375 0.71875,-0.1875 0.0937,-0.71875 2.78125,-15.96875 0.0937,-0.46875 -0.3125,-0.40625 -9.75,-12.125 -0.3125,-0.40625 -0.53125,0 -12.15625,-0.40625 -0.34375,0 z m 0.65625,2.21875 11.25,0.375 9.125,11.375 -2.5625,14.75 -16.40625,4.25 -13.15625,-11.625 1.9375,-12.90625 9.8125,-6.21875 z m 1.625,9.28125 -0.34375,0.84375 -2.28125,5.09375 -0.40625,0.84375 0.78125,0.53125 3.9375,2.625 0.46875,0.34375 0.53125,-0.21875 4.1875,-1.5 0.75,-0.28125 -0.0312,-0.84375 -0.21875,-4.9375 -0.0312,-0.875 -0.84375,-0.1875 -5.59375,-1.25 -0.90625,-0.1875 z m 1.3125,2.59375 3.84375,0.84375 0.15625,3.28125 L 394,21.6875 391.3125,19.90625 392.84375,16.5 z"
   id="path3037-3"
   inkscape:connector-curvature="0" /><path
   style="font-size:40px;font-style:normal;font-variant:normal;font-weight:normal;font-stretch:normal;text-indent:0;text-align:start;text-decoration:none;line-height:125%;letter-spacing:0px;word-spacing:0px;text-transform:none;direction:ltr;block-progression:tb;writing-mode:lr-tb;text-anchor:start;baseline-shift:baseline;color:#000000;fill:#000000;fill-opacity:1;fill-rule:nonzero;stroke:none;stroke-width:2.83697772;marker:none;visibility:visible;display:inline;overflow:visible;enable-background:accumulate;font-family:Super Mario 256;-inkscape-font-specification:Super Mario 256"
   d="m 188.90625,40.8125 -1.21875,0.09375 -13.5,1.1875 -1.65625,0.15625 0.40625,1.59375 10.3125,41.03125 0.28125,1.125 1.15625,-0.0625 9.625,-0.28125 0.84375,0 0.40625,-0.78125 4.25,-8.4375 2.84375,8.21875 0.3125,0.96875 1.03125,0 10.53125,0 0.90625,0 0.375,-0.8125 18.09375,-37.96875 0.78125,-1.625 -1.75,-0.375 -14.1875,-3.0625 -1.15625,-0.25 -0.4375,1.09375 -7.5625,18.375 -5.625,-8.46875 -0.9375,-1.4375 -1.25,1.21875 -7.6875,7.71875 -2.34375,-7.71875 -0.0312,-0.09375 -2.53125,-10.25 -0.28125,-1.15625 z m -2.1875,3 L 189,53 l 0,0.03125 0,0.03125 3.0625,10.03125 0.71875,2.28125 1.65625,-1.6875 8.15625,-8.125 6.125,9.21875 1.46875,2.21875 1,-2.46875 8.15625,-19.71875 11.25,2.4375 -16.96875,35.53125 -8.59375,0 -3.625,-10.4375 -1.09375,-3.1875 -1.5,3 -5.40625,10.71875 -7.6875,0.21875 -9.625,-38.3125 10.625,-0.96875 z"
   id="path3012-8"
   inkscape:connector-curvature="0" /><path
   style="font-size:40px;font-style:normal;font-variant:normal;font-weight:normal;font-stretch:normal;text-indent:0;text-align:start;text-decoration:none;line-height:125%;letter-spacing:0px;word-spacing:0px;text-transform:none;direction:ltr;block-progression:tb;writing-mode:lr-tb;text-anchor:start;baseline-shift:baseline;color:#000000;fill:#000000;fill-opacity:1;fill-rule:nonzero;stroke:none;stroke-width:2.83697772;marker:none;visibility:visible;display:inline;overflow:visible;enable-background:accumulate;font-family:Super Mario 256;-inkscape-font-specification:Super Mario 256"
   d="m 259.15625,40.96875 -1,0.125 -11.34375,1.125 -0.71875,0.0625 -0.375,0.625 -22.625,38.0625 -1.03125,1.78125 2,0.34375 16.5,2.9375 1.28125,0.25 0.34375,-1.25 L 245,75.375 256.46875,75.65625 257.6875,84.5 257.875,85.9375 259.3125,85.71875 276.46875,83 278.3125,82.6875 277.53125,81 l -17.9375,-39.09375 -0.4375,-0.9375 z m -1.75,3.03125 16.75,36.46875 -13.84375,2.21875 -1.1875,-8.625 -0.15625,-1.1875 -1.1875,-0.03125 -13.8125,-0.34375 -1.09375,-0.03125 -0.28125,1.0625 -2.78125,9.5 L 226.59375,80.6875 247.8125,44.96875 257.40625,44 z m -8.5,11.90625 -0.375,0.90625 -2.3125,5.8125 -0.78125,1.875 2.03125,0.0625 8.6875,0.21875 2.03125,0.0625 -0.65625,-1.9375 -1.96875,-5.84375 -0.3125,-0.90625 -0.96875,-0.0625 -4.375,-0.15625 -1,-0.03125 z m 1.875,2.90625 2.40625,0.09375 1,3 -4.59375,-0.125 1.1875,-2.96875 z"
   id="path3014-7"
   inkscape:connector-curvature="0" /><path
   style="font-size:40px;font-style:normal;font-variant:normal;font-weight:normal;font-stretch:normal;text-indent:0;text-align:start;text-decoration:none;line-height:125%;letter-spacing:0px;word-spacing:0px;text-transform:none;direction:ltr;block-progression:tb;writing-mode:lr-tb;text-anchor:start;baseline-shift:baseline;color:#000000;fill:#000000;fill-opacity:1;fill-rule:nonzero;stroke:none;stroke-width:2.83697772;marker:none;visibility:visible;display:inline;overflow:visible;enable-background:accumulate;font-family:Super Mario 256;-inkscape-font-specification:Super Mario 256"
   d="M 297.5625,41.15625 297.03125,41.1875 273.5,43 l -1.4375,0.125 0.125,1.40625 3.3125,40.1875 0.0937,1.28125 1.3125,0 13.03125,0 1.6875,0 -0.28125,-1.65625 -1.25,-7.0625 9.875,8.4375 0.6875,0.59375 0.8125,-0.375 12.3125,-5.3125 2.03125,-0.90625 -1.65625,-1.46875 -9.4375,-8.3125 4.9375,-5.5 0.40625,-0.46875 L 310.03125,63.375 309.0625,50.15625 309.03125,49.5 308.5,49.125 298,41.46875 l -0.4375,-0.3125 z m -0.8125,2.90625 9.53125,6.96875 0.875,11.96875 -5.5,6.125 -0.96875,1.0625 1.09375,0.9375 8.8125,7.78125 L 301.15625,83 288.9375,72.5625 l -3,-2.5625 0.6875,3.875 1.65625,9.3125 -10.0625,0 -3.0625,-37.46875 L 296.75,44.0625 z m -10.0625,7.96875 -0.0937,2.25 -0.34375,8.0625 -0.0312,1.3125 1.28125,0.15625 3.46875,0.46875 0.84375,0.09375 0.5,-0.71875 3.46875,-4.96875 0.90625,-1.3125 -1.40625,-0.75 -6.59375,-3.53125 -2,-1.0625 z m 2.65625,4.625 3.1875,1.71875 -2.0625,2.96875 -1.3125,-0.15625 0.1875,-4.53125 z"
   id="path3016-4"
   inkscape:connector-curvature="0" /><path
   inkscape:connector-curvature="0"
   id="path3019"
   style="font-size:40px;font-style:normal;font-weight:normal;line-height:125%;letter-spacing:0px;word-spacing:0px;fill:#ff0000;fill-opacity:1;stroke:#000000;stroke-width:2.23586464;stroke-miterlimit:4;stroke-opacity:1;stroke-dasharray:none;font-family:Super Mario 256;-inkscape-font-specification:Super Mario 256"
   d="m 108.43121,11.838129 -5.76843,7.109896 -6.752359,-4.3369 -1.699006,2.145251 12.073175,8.855301 -5.8585,11.044222 -14.353528,0 -10.01663,-7.958718 4.336901,-7.290032 8.630132,4.874578 1.297794,-2.012878 -12.655888,-7.512473 11.984474,-13.4146419 10.776745,0 8.00512,8.4963949 z" /><path
   inkscape:connector-curvature="0"
   id="path3021"
   style="font-size:40px;font-style:normal;font-weight:normal;line-height:125%;letter-spacing:0px;word-spacing:0px;fill:#00ff00;fill-opacity:1;stroke:#000000;stroke-width:2.23586464;stroke-miterlimit:4;stroke-opacity:1;stroke-dasharray:none;font-family:Super Mario 256;-inkscape-font-specification:Super Mario 256"
   d="m 108.18557,3.654242 14.4436,0 -0.67005,22.58245 5.58966,-4.024392 -1.65534,-16.1426036 13.72852,0 0,21.7322656 -8.00376,9.032707 -16.85905,0 -6.57358,-8.048785 0,-25.131642 z" /><path
   inkscape:connector-curvature="0"
   id="path3023"
   style="font-size:40px;font-style:normal;font-weight:normal;line-height:125%;letter-spacing:0px;word-spacing:0px;fill:#ffff00;fill-opacity:1;stroke:#000000;stroke-width:2.23586464;stroke-miterlimit:4;stroke-opacity:1;stroke-dasharray:none;font-family:Super Mario 256;-inkscape-font-specification:Super Mario 256"
   d="m 160.92981,3.6105728 7.87138,5.4108912 0.62502,13.23587 -7.95872,7.691244 -9.88289,0.62638 0,6.304745 -10.41921,0 1.65397,-33.2691302 18.11045,0 z m -7.51247,10.1954012 -0.31251,5.410891 2.95177,0.402575 3.75555,-4.426968 -6.39481,-1.386498 z" /><path
   inkscape:connector-curvature="0"
   id="path3025"
   style="font-size:40px;font-style:normal;font-weight:normal;line-height:125%;letter-spacing:0px;word-spacing:0px;fill:#0000ff;fill-opacity:1;stroke:#000000;stroke-width:2.23586464;stroke-miterlimit:4;stroke-opacity:1;stroke-dasharray:none;font-family:Super Mario 256;-inkscape-font-specification:Super Mario 256"
   d="m 172.05182,3.386768 21.91239,0 -1.8341,9.256513 -10.77675,1.653972 -0.13373,2.280352 9.52398,0.716448 -0.44624,7.109897 -8.4964,0.760118 0.76012,2.414089 10.32914,0.09007 3.80195,8.898971 -24.64036,0 -2.41409,-21.374728 2.41409,-11.805704 z" /><path
   inkscape:connector-curvature="0"
   id="path3027"
   style="font-size:40px;font-style:normal;font-weight:normal;line-height:125%;letter-spacing:0px;word-spacing:0px;fill:#ff0000;fill-opacity:1;stroke:#000000;stroke-width:2.23586464;stroke-miterlimit:4;stroke-opacity:1;stroke-dasharray:none;font-family:Super Mario 256;-inkscape-font-specification:Super Mario 256"
   d="m 213.78596,3.654242 8.27259,6.0372715 0.76011,10.4192055 -4.65077,5.187086 8.27259,7.288667 -9.70412,4.204528 -10.15037,-8.675165 1.52024,8.630131 -10.28411,0 -2.59422,-31.660192 18.55806,-1.431532 z m -7.19997,9.256512 -0.26884,6.349779 2.72796,0.358907 2.72797,-3.93569 -5.18709,-2.772996 z" /><path
   inkscape:connector-curvature="0"
   id="path3029"
   style="font-size:40px;font-style:normal;font-weight:normal;line-height:125%;letter-spacing:0px;word-spacing:0px;fill:#0000ff;fill-opacity:1;stroke:#000000;stroke-width:2.23586464;stroke-miterlimit:4;stroke-opacity:1;stroke-dasharray:none;font-family:Super Mario 256;-inkscape-font-specification:Super Mario 256"
   d="m 247.89299,33.30292 15.96384,-29.5586102 9.43528,0 3.13053,8.9440042 5.54464,-8.9890381 8.36265,-0.1787709 9.16645,32.151471 -11.93944,0.983923 -2.28036,-8.138854 -2.72796,-7.870014 -8.22755,7.333702 -6.30475,-8.361293 -7.55751,16.052536 -12.56582,-2.369056 z" /><path
   inkscape:connector-curvature="0"
   id="path3031"
   style="font-size:40px;font-style:normal;font-weight:normal;line-height:125%;letter-spacing:0px;word-spacing:0px;fill:#00ff00;fill-opacity:1;stroke:#000000;stroke-width:2.23586464;stroke-miterlimit:4;stroke-opacity:1;stroke-dasharray:none;font-family:Super Mario 256;-inkscape-font-specification:Super Mario 256"
   d="m 319.67566,3.5655389 14.13109,30.8100071 -13.50472,2.146615 -1.07399,-7.915047 -10.86544,-0.26884 -2.46049,8.452726 -13.01208,-2.325387 17.84162,-30.0062195 8.94401,-0.8938546 z m -6.66366,11.7156361 -1.83274,4.560705 6.84105,0.180135 -1.5639,-4.607103 -3.44441,-0.133737 z" /><path
   inkscape:connector-curvature="0"
   id="path3033"
   style="font-size:40px;font-style:normal;font-weight:normal;line-height:125%;letter-spacing:0px;word-spacing:0px;fill:#ffff00;fill-opacity:1;stroke:#000000;stroke-width:2.23586464;stroke-miterlimit:4;stroke-opacity:1;stroke-dasharray:none;font-family:Super Mario 256;-inkscape-font-specification:Super Mario 256"
   d="m 350.29597,3.654242 8.27259,6.0372715 0.76012,10.4192055 -4.65077,5.187086 8.27258,7.288667 -9.70412,4.204528 -10.15037,-8.675165 1.52025,8.630131 -10.28411,0 -2.59423,-31.660192 18.55806,-1.431532 z m -7.19997,9.256512 -0.26884,6.349779 2.72797,0.358907 2.72796,-3.93569 -5.18709,-2.772996 z" /><path
   inkscape:connector-curvature="0"
   id="path3035"
   style="font-size:40px;font-style:normal;font-weight:normal;line-height:125%;letter-spacing:0px;word-spacing:0px;fill:#0000ff;fill-opacity:1;stroke:#000000;stroke-width:2.23586464;stroke-miterlimit:4;stroke-opacity:1;stroke-dasharray:none;font-family:Super Mario 256;-inkscape-font-specification:Super Mario 256"
   d="m 362.26816,3.654242 8.67517,-0.5363127 6.70732,31.6601917 -14.21979,1.56527 -1.1627,-32.689149 z" /><path
   inkscape:connector-curvature="0"
   id="path3037"
   style="font-size:40px;font-style:normal;font-weight:normal;line-height:125%;letter-spacing:0px;word-spacing:0px;fill:#ff0000;fill-opacity:1;stroke:#000000;stroke-width:2.23586464;stroke-miterlimit:4;stroke-opacity:1;stroke-dasharray:none;font-family:Super Mario 256;-inkscape-font-specification:Super Mario 256"
   d="m 401.71922,3.9230807 9.74779,12.1182113 -2.77163,15.963834 -17.66421,4.605739 -14.08605,-12.43072 2.10295,-13.995988 10.5079,-6.663652 12.16325,0.4025757 z m -9.52535,11.2693913 -2.28036,5.097017 3.93569,2.637895 4.15813,-1.520235 -0.2238,-4.963281 -5.58966,-1.251396 z" /><path
   inkscape:connector-curvature="0"
   id="path3012"
   style="font-size:40px;font-style:normal;font-weight:normal;line-height:125%;letter-spacing:0px;word-spacing:0px;fill:#ff0000;fill-opacity:1;stroke:#000000;stroke-width:2.83697772;stroke-miterlimit:4;stroke-opacity:1;stroke-dasharray:none;font-family:Super Mario 256;-inkscape-font-specification:Super Mario 256"
   d="m 232.64143,46.236398 -18.09993,37.957391 -10.55382,0 -3.91505,-11.404013 -5.78858,11.461155 -9.64476,0.283975 -10.32698,-41.022243 13.50439,-1.191308 2.55231,10.325255 3.06485,10.043012 9.36251,-9.36078 7.09244,10.666373 8.56773,-20.823667 14.18489,3.06485 z" /><path
   inkscape:connector-curvature="0"
   id="path3014"
   style="font-size:40px;font-style:normal;font-weight:normal;line-height:125%;letter-spacing:0px;word-spacing:0px;fill:#ffff00;fill-opacity:1;stroke:#000000;stroke-width:2.83697772;stroke-miterlimit:4;stroke-opacity:1;stroke-dasharray:none;font-family:Super Mario 256;-inkscape-font-specification:Super Mario 256"
   d="m 258.30133,42.491046 17.93024,39.093292 -17.13546,2.723734 -1.36273,-10.043012 -13.78664,-0.341117 -3.12199,10.725245 -16.51036,-2.950568 22.63833,-38.073405 11.34861,-1.134169 z m -8.45518,14.865391 -2.32548,5.786853 8.68028,0.228564 -1.98436,-5.845725 -4.37044,-0.169692 z" /><path
   inkscape:connector-curvature="0"
   id="path3016"
   style="font-size:40px;font-style:normal;font-weight:normal;line-height:125%;letter-spacing:0px;word-spacing:0px;fill:#00ff00;fill-opacity:1;stroke:#000000;stroke-width:2.83697772;stroke-miterlimit:4;stroke-opacity:1;stroke-dasharray:none;font-family:Super Mario 256;-inkscape-font-specification:Super Mario 256"
   d="m 297.15393,42.603598 10.49667,7.660395 0.96449,13.220413 -5.90114,6.581636 10.49668,9.248229 -12.31308,5.334917 -12.8793,-11.007487 1.92895,10.950346 -13.04899,0 -3.29168,-40.172049 23.5474,-1.8164 z m -9.13568,11.745129 -0.34111,8.056921 3.46137,0.455398 3.46137,-4.993801 -6.58163,-3.518518 z" /></svg>