<?xml version="1.0" encoding="UTF-8" standalone="no"?>
<!-- Generator: Adobe Illustrator 16.0.3, SVG Export Plug-In . SVG Version: 6.00 Build 0)  -->
<svg id="Ebene_1" xmlns:rdf="http://www.w3.org/1999/02/22-rdf-syntax-ns#" xmlns="http://www.w3.org/2000/svg" enable-background="new 0 0 566.929 87.964" xml:space="preserve" height="70.468" viewBox="0 0 343.64012 70.467654" width="343.64" version="1.1" y="0px" x="0px" xmlns:cc="http://creativecommons.org/ns#" xmlns:dc="http://purl.org/dc/elements/1.1/"><metadata id="metadata61"><rdf:RDF><cc:Work rdf:about=""><dc:format>image/svg+xml</dc:format><dc:type rdf:resource="http://purl.org/dc/dcmitype/StillImage"/><dc:title/></cc:Work></rdf:RDF></metadata>
<g id="g4569" transform="matrix(0.81916268,0,0,0.81916268,-1.6623689e-5,0)"><path id="path3999-4" d="m333.43,86.024,34.396,0,51.675-86.024-34.384,0l-51.69,86.024" fill="#498cc1"/><path id="path3912-8" stroke-linejoin="miter" d="m135,23.469,0,46.875,28.125,0c8.7494-1.435,13.753-6.3365,15.656-14.062,0.0175-6.2553,0.003-12.495,0-18.75-1.9033-7.726-6.9069-12.627-15.656-14.062h-28.125zm11,9.4062,12.469,0c3.9161,0.69463,7.6321,1.9226,9.4062,7.8125l-0.0312,12.5c-1.7896,5.8814-5.4902,7.1179-9.4063,7.8125h-12.469l0.0312-28.125z" stroke="#000" stroke-linecap="butt" stroke-width="1.11043465000000000px" fill="#666"/><path id="path3896" stroke-linejoin="miter" d="m14.64,70.354,0-35.926-14.071,0-0.004331-10.935,43.78,0-4.6933,10.935-10.944,0.0043,0,35.921-14.067,0.000037" stroke="#000" stroke-linecap="butt" stroke-width="1.11043465000000000px" fill="#666"/><path id="path3900" stroke-linejoin="miter" d="m49.031,23.5-17.188,46.844,14.094,0,5.4375-17.156,5.4688,7.8125,9.375,0,3.125,9.3438,14.188,0-17.312-46.844-17.188,0zm8.5312,12.469,5.5312,14.094-10.938,0,5.4062-14.094z" stroke="#000" stroke-linecap="butt" stroke-width="1.11043465000000000px" fill="#666"/><path id="path3908" stroke-linejoin="miter" d="m84.957,70.354,0-46.861,17.225,0,17.195,34.381,0-34.381,10.944,0-0.009,46.861-17.192,0-17.197-34.351-0.0044,34.351-10.961,0" stroke="#000" stroke-linecap="butt" stroke-width="1.11043465000000000px" fill="#666"/><path id="path3991" stroke-linejoin="miter" d="m191.27,48.513-18.746-25.02,14.059,0,10.195,15.598,10.146-15.598,15.604,0-18.804,24.942,0.0346,21.919-12.477,0-0.0122-21.841" stroke="#000" stroke-linecap="butt" stroke-width="1.11043465000000000px" fill="#666"/><path id="path3999-4-5" d="m288.28,86.024,34.396,0l51.67-86.024h-34.39l-51.68,86.024" fill="#197123"/><path id="path3999-4-5-7" d="m243.12,86.024,34.396,0l51.67-86.024h-34.384l-51.69,86.024" fill="#ae1f19"/></g><flowRoot id="flowRoot4066" style="letter-spacing:0px;word-spacing:0px;" line-height="125%" font-weight="normal" xml:space="preserve" font-size="40px" transform="translate(-94.313277,-12.248728)" font-style="normal" font-family="Open Sans Light" fill="#000000"><flowRegion id="flowRegion4068"><rect id="rect4070" y="24.964" width="185.5" x="377" height="41"/></flowRegion><flowPara id="flowPara4072">Cooccc</flowPara></flowRoot><text id="text4074" style="letter-spacing:0px;word-spacing:0px;" font-weight="normal" xml:space="preserve" font-size="40px" font-style="normal" y="32.581753" x="295.30255" font-family="Open Sans Light" line-height="125%" fill="#000000"><tspan id="tspan4076" font-weight="normal" font-style="normal" font-stretch="normal" font-variant="normal" y="32.581753" x="295.30255" font-family="Ebrima"/></text>
</svg>
