<?xml version="1.0" encoding="utf-8"?>
<!-- Generator: Adobe Illustrator 13.0.0, SVG Export Plug-In . SVG Version: 6.00 Build 14948)  -->
<!DOCTYPE svg [
	<!ENTITY ns_flows "http://ns.adobe.com/Flows/1.0/">
	<!ENTITY ns_extend "http://ns.adobe.com/Extensibility/1.0/">
	<!ENTITY ns_ai "http://ns.adobe.com/AdobeIllustrator/10.0/">
	<!ENTITY ns_graphs "http://ns.adobe.com/Graphs/1.0/">
	<!ENTITY ns_vars "http://ns.adobe.com/Variables/1.0/">
	<!ENTITY ns_imrep "http://ns.adobe.com/ImageReplacement/1.0/">
	<!ENTITY ns_sfw "http://ns.adobe.com/SaveForWeb/1.0/">
	<!ENTITY ns_custom "http://ns.adobe.com/GenericCustomNamespace/1.0/">
	<!ENTITY ns_adobe_xpath "http://ns.adobe.com/XPath/1.0/">
]>
<svg version="1.2" baseProfile="tiny"
	 id="Ebene_1" xmlns:x="&ns_extend;" xmlns:i="&ns_ai;" xmlns:graph="&ns_graphs;" xmlns:svg="http://www.w3.org/2000/svg"
	 xmlns="http://www.w3.org/2000/svg" xmlns:xlink="http://www.w3.org/1999/xlink" xmlns:a="http://ns.adobe.com/AdobeSVGViewerExtensions/3.0/"
	 x="0px" y="0px" width="352.675px" height="41.963px" viewBox="0 0 352.675 41.963" xml:space="preserve">
<metadata>
	<sfw  xmlns="&ns_sfw;">
		<slices></slices>
		<sliceSourceBounds  x="749.163" y="518.519" width="352.675" height="41.963" bottomLeftOrigin="true"></sliceSourceBounds>
	</sfw>
</metadata>
<g id="g3" transform="translate(-86.000009,-400.89)">
	<path id="path5" fill="#6F685F" d="M106.982,400.89h310.711c11.541,0,20.982,9.441,20.982,20.981l0,0
		c0,11.542-9.441,20.982-20.982,20.982H106.982c-11.541,0-20.982-9.44-20.982-20.982l0,0C86,410.332,95.441,400.89,106.982,400.89
		L106.982,400.89z"/>
	<polygon id="polygon7" fill="#E2001A" points="319.269,408.062 319.269,408.062 364.238,408.062 364.238,411.131 319.269,411.131 	
		"/>
	<polygon id="polygon9" fill="#E95E38" points="319.269,414.2 319.269,414.2 364.238,414.2 364.238,417.269 319.269,417.269 	"/>
	<polygon id="polygon11" fill="#FFCC00" points="319.269,420.337 319.269,420.337 364.238,420.337 364.238,423.407 319.269,423.407 
			"/>
	<polygon id="polygon13" fill="#57AB27" points="319.269,426.475 319.269,426.475 364.238,426.475 364.238,429.543 319.269,429.543 
			"/>
	<polygon id="polygon15" fill="#009EE0" points="319.269,432.614 319.269,432.614 364.238,432.614 364.238,435.682 319.269,435.682 
			"/>
	<path id="path17" fill="#FFFFFF" d="M397.986,426.337c0,3.889-3.418,5.833-10.258,5.833h-3.5c-3.854,0-6.525-0.666-8.018-1.993
		c-1.494-1.33-2.238-3.632-2.238-6.906v-4.404c0-3.254,0.744-5.545,2.238-6.875c1.492-1.33,4.164-1.994,8.018-1.994h3.5
		c3.176,0,5.564,0.426,7.164,1.28c1.602,0.854,2.402,2.103,2.402,3.75v1.578h-8.223v-0.565c0-0.516-0.148-0.854-0.447-1.013
		c-0.299-0.158-0.896-0.239-1.791-0.239h-1.955c-1.111,0-1.824,0.09-2.135,0.269c-0.314,0.178-0.469,0.604-0.469,1.279v3.034
		c1.191-0.654,2.672-0.98,4.438-0.98h2.889c2.904,0,5.027,0.491,6.371,1.472c1.342,0.982,2.014,2.496,2.014,4.539V426.337
		L397.986,426.337L397.986,426.337z M283.488,415.679h-3.961v11.364h4.133v-5.94c0-1.549,0.948-2.325,2.671-2.325
		c1.721,0,2.153,0.517,2.238,1.979h3.876c0-3.874-0.517-5.338-4.65-5.338c-2.498,0-3.359,0.517-4.306,2.411L283.488,415.679
		L283.488,415.679z M120.969,422.506h-6.651v5.455h11.955L120.969,422.506L120.969,422.506z M126.272,415.932h-11.955v5.454h6.576
		L126.272,415.932L126.272,415.932L126.272,415.932z M302.517,424.806c-3.959,0-4.563-0.345-4.563-2.326h10.852
		c-0.172-5.508-0.172-6.801-7.492-6.801c-6.202,0-7.58,1.119-7.58,6.027c0,4.564,1.81,5.683,6.805,5.77
		c5.598,0,8.268-0.259,8.268-3.961h-4.049C304.585,424.375,304.242,424.806,302.517,424.806L302.517,424.806z M297.869,420.071
		c0.172-1.206,0.516-1.637,3.271-1.637c3.016,0,3.445,0.173,3.617,1.637H297.869L297.869,420.071z M143.896,420.501h4.133
		c-0.344-3.876-1.464-4.822-7.232-4.822c-6.545,0-8.009,1.031-8.009,5.855c0,4.822,1.378,5.941,7.492,5.941
		c6.458,0,7.75-0.861,7.75-4.909h-4.133c0,1.12-0.43,1.638-3.617,1.638c-2.756,0-3.358-0.688-3.358-2.928
		c0-2.153,0.602-2.153,3.876-2.153C143.207,419.123,143.637,419.382,143.896,420.501L143.896,420.501z M239.913,421.188
		c0-4.649-1.377-5.595-8.009-5.595c-7.147,0-8.007,1.205-8.007,6.026c0,4.823,1.204,5.856,8.007,5.856
		C239.139,427.476,239.913,426.271,239.913,421.188L239.913,421.188z M228.116,421.449c0-2.326,0.517-2.583,3.531-2.583
		c3.358,0,3.96,0.085,3.96,2.583c0,2.325-0.431,2.756-3.617,2.756C228.546,424.205,228.116,423.859,228.116,421.449L228.116,421.449
		z M277.027,421.188c0-4.649-1.292-5.595-7.92-5.595c-7.062,0-7.923,1.117-7.923,5.941c0,4.908,1.205,5.941,7.923,5.941
		C276.338,427.476,277.027,426.271,277.027,421.188L277.027,421.188z M265.317,421.449c0-2.326,0.516-2.583,3.53-2.583
		c3.359,0,3.961,0.085,3.961,2.583c0,2.325-0.43,2.756-3.616,2.756C265.749,424.205,265.317,423.859,265.317,421.449
		L265.317,421.449z M166.372,421.188c0-4.649-1.292-5.595-7.922-5.595c-7.147,0-8.009,1.117-8.009,5.941
		c0,4.908,1.207,5.941,8.009,5.941C165.684,427.476,166.372,426.271,166.372,421.188L166.372,421.188z M154.745,421.449
		c0-2.326,0.517-2.583,3.446-2.583c3.358,0,3.961,0.085,3.961,2.583c0,2.325-0.432,2.756-3.617,2.756
		C155.175,424.205,154.745,423.859,154.745,421.449L154.745,421.449z M254.294,410.855v6.631c-0.947-1.292-1.808-1.979-5.252-1.979
		c-5.511,0-6.545,1.464-6.545,5.941c0,4.565,1.465,5.854,6.803,5.854c3.359,0,4.392-0.86,5.167-2.324v2.063h4.134v-16.188
		L254.294,410.855L254.294,410.855z M251.28,418.779c2.324,0,3.101,0.344,3.101,2.151c0,2.757-0.174,3.018-3.444,3.018
		c-3.273,0-4.134-0.089-4.134-2.413C246.803,418.865,247.836,418.779,251.28,418.779L251.28,418.779z M113.944,415.558v-7.023
		c-1.419-0.374-2.392-0.524-3.81-0.524c-7.398,0-13.898,6.203-13.898,13.898c0,7.921,6.574,13.824,13.972,13.824
		c1.345,0,2.092-0.15,3.736-0.6v-7.172c-1.645,0.82-2.465,1.045-3.81,1.045c-4.11,0-7.25-3.436-7.25-7.247
		c0-3.959,3.064-7.323,7.174-7.323C111.479,414.436,112.674,414.811,113.944,415.558L113.944,415.558z M172.916,415.679h-3.874
		v11.364h4.133v-5.855c0-1.721,0.861-2.323,3.187-2.323c2.153,0,2.756,0.774,2.756,2.927v5.251h4.219v-6.026
		c0-1.636,1.291-2.152,3.271-2.152c1.895,0,2.756,0.517,2.756,2.152v6.026h4.133v-6.716c0-3.356-2.067-4.908-5.855-4.908
		c-3.273,0-4.479,1.206-4.91,2.497c-0.861-1.464-2.066-2.497-5.339-2.497c-3.1,0-3.961,1.033-4.478,2.928L172.916,415.679
		L172.916,415.679L172.916,415.679z M200.731,415.679h-3.875v11.364h4.133v-5.855c0-1.721,1.033-2.323,3.099-2.323
		c2.154,0,2.756,0.689,2.756,2.927v5.251h4.221v-6.026c0-1.636,1.206-2.152,3.187-2.152c1.894,0,2.84,0.602,2.84,2.152v6.026h4.134
		v-6.716c0-3.356-2.066-4.908-5.855-4.908c-3.272,0-4.393,1.119-4.908,2.497c-0.862-1.464-2.068-2.497-5.34-2.497
		c-3.013,0-3.788,1.033-4.391,2.928L200.731,415.679L200.731,415.679L200.731,415.679z M427.761,427.854h-3.5v4.048h-8.221v-4.048
		h-14.857l0.041-5.892l11.764-11.696h11.273v12.797h3.5V427.854L427.761,427.854L427.761,427.854z M416.041,423.063v-7.171
		l-7.123,7.171H416.041L416.041,423.063z M389.765,426.009v-1.576c0-0.558-0.184-0.909-0.551-1.058
		c-0.365-0.147-1.16-0.224-2.381-0.224h-1.586c-1.223,0-2.023,0.069-2.402,0.21c-0.381,0.137-0.57,0.494-0.57,1.07v1.576
		c0,0.597,0.189,0.969,0.57,1.115c0.379,0.148,1.18,0.225,2.402,0.225h1.586c1.248,0,2.049-0.075,2.402-0.225
		C389.587,426.978,389.765,426.606,389.765,426.009L389.765,426.009z"/>
</g>
</svg>
