<?xml version="1.0" encoding="UTF-8"?>
<svg width="64" height="32" version="1.1" viewBox="0 0 64 32" xmlns="http://www.w3.org/2000/svg">
 <path id="outline" d="m8 2h48a6 6 90 0 1 6 6v16a6 6 90 0 1-6 6h-48a6 6 90 0 1-6-6v-16a6 6 90 0 1 6-6z" fill="none" stroke="#777" stroke-linejoin="round" stroke-width="3"/>
 <path id="label_on" d="m8 2a6 6 0 0 0-6 6v16a6 6 0 0 0 6 6h48a6 6 0 0 0 6-6v-16a6 6 0 0 0-6-6h-48zm16.271484 5.1933594c0.960938 0 1.816407 0.1601562 2.566407 0.4804687 0.75 0.3125 1.363281 0.7382813 1.839843 1.2773438 0.484375 0.5390625 0.878907 1.1914061 1.183594 1.9570311 0.3125 0.757813 0.53125 1.554688 0.65625 2.390625 0.132813 0.828125 0.199219 1.726563 0.199219 2.695313s-0.066406 1.871093-0.199219 2.707031c-0.125 0.828125-0.34375 1.625-0.65625 2.390625s-0.710937 1.417969-1.195312 1.957031c-0.484375 0.53125-1.101563 0.957031-1.851563 1.277344-0.75 0.320312-1.605469 0.480469-2.566406 0.480469-0.960938 0-1.820313-0.160157-2.578125-0.480469-0.75-0.320313-1.367188-0.746094-1.851563-1.277344-0.484375-0.539062-0.882812-1.191406-1.195312-1.957031-0.570313-1.40625-0.855469-3.113281-0.855469-5.121094 0-3.1875 0.6875-5.53125 2.0625-7.0312499 0.492188-0.53125 1.113281-0.953125 1.863281-1.265625 0.757813-0.3203125 1.617188-0.4804687 2.578125-0.4804687zm9.316407 0.2578125h4.6875l4.113281 9.6210941v-9.6210941h3.84375v17.1328121h-4.664063l-4.113281-9.632812v9.632812h-3.867187v-17.1328121zm-9.316407 2.9648441c-0.773437 0-1.359375 0.472656-1.757812 1.417968-0.390625 0.945313-0.585938 2.332032-0.585938 4.160157 0 1.820312 0.195313 3.207031 0.585938 4.160156 0.398437 0.945312 0.976562 1.417969 1.734375 1.417969 1.53125 0 2.296875-1.859375 2.296875-5.578125s-0.757813-5.578125-2.273438-5.578125z" fill="#777"/>
</svg>
