<?xml version="1.0" encoding="UTF-8" standalone="no"?>
<!-- Generator: Adobe Illustrator 13.0.0, SVG Export Plug-In . SVG Version: 6.00 Build 14948)  -->
<svg id="Layer_2" xmlns:rdf="http://www.w3.org/1999/02/22-rdf-syntax-ns#" xmlns="http://www.w3.org/2000/svg" version="1.0" xml:space="preserve" height="456.5px" viewBox="0 0 1897.282 456.502" width="1897.3px" enable-background="new 0 0 1897.282 456.502" y="0px" x="0px" xmlns:cc="http://creativecommons.org/ns#" xmlns:dc="http://purl.org/dc/elements/1.1/"><metadata id="metadata272"><rdf:RDF><cc:Work rdf:about=""><dc:format>image/svg+xml</dc:format><dc:type rdf:resource="http://purl.org/dc/dcmitype/StillImage"/><dc:title/></cc:Work></rdf:RDF></metadata>
<g id="g236">
	<path id="path238" fill="#FEE600" d="M1873.1,447.11c-0.002-0.005-36-44.438-56.767-70.271-6.948-8.647-12.102-15.091-13.915-17.459-2.52-3.319-4.314-5.711-5.493-6.885-1.24-1.194-1.428-1.258-2.363-1.588-0.648-0.195-1.811-0.406-3.803-0.406h-85.001c-2.765,0-5.47-1.118-7.423-3.074-1.955-1.955-3.076-4.66-3.076-7.425v-12.501h-73.999c-2.767,0-5.47-1.121-7.425-3.074-1.955-1.955-3.076-4.66-3.076-7.425v-57.001c0-2.765,1.121-5.47,3.076-7.425s4.658-3.074,7.425-3.074l74.999-0.002v-1.999h-77c-2.765,0-5.47-1.119-7.425-3.074-1.953-1.955-3.074-4.66-3.074-7.425v-54c0-2.765,1.121-5.47,3.074-7.425,1.955-1.956,4.66-3.074,7.425-3.074l74.998-0.002v-1.999h-90v169.5c0,2.765-1.118,5.467-3.074,7.423-1.955,1.955-4.658,3.076-7.423,3.076h-64.501c-2.765,0-5.47-1.118-7.425-3.074-1.953-1.955-3.074-4.66-3.074-7.425l-0.003-189.5h-4.5v189.5c0,2.765-1.118,5.467-3.074,7.423-1.955,1.955-4.658,3.076-7.423,3.076h-157.5c-2.767,0-5.47-1.118-7.425-3.074-1.955-1.955-3.076-4.66-3.076-7.425v-135.5c0-2.765,1.121-5.47,3.076-7.425,1.955-1.956,4.658-3.076,7.425-3.076h81.998v-99.5h-101.5v246.5c0,2.765-1.121,5.47-3.076,7.426-1.953,1.953-4.658,3.074-7.423,3.074h-122.5c-2.767,0-5.47-1.119-7.425-3.074-1.956-1.956-3.076-4.661-3.076-7.426v-36c0-2.765,1.12-5.47,3.076-7.425,1.955-1.955,4.658-3.074,7.425-3.074l47.499-0.002v-125.5h-124v125.5h45.502c2.765,0,5.47,1.119,7.425,3.074,1.956,1.955,3.074,4.66,3.074,7.425v36c0,2.765-1.121,5.47-3.076,7.426-1.956,1.953-4.658,3.074-7.423,3.074h-111.5c-3.131-0.015-6.659-0.019-10.691-0.915-4.014-0.871-8.395-2.879-12.111-6.086-0.648-0.564-0.848-0.787-1.191-1.128-0.312-0.321-0.642-0.668-1.022-1.073-0.752-0.805-1.694-1.829-2.824-3.076-2.258-2.49-5.264-5.846-8.773-9.793-7.02-7.889-16.051-18.124-24.98-28.272-17.86-20.297-35.305-40.239-35.308-40.243-2.712-3.098-3.36-7.504-1.659-11.252,1.7-3.75,5.444-6.161,9.562-6.161h68.999v-73.5h-87.999v170c0,2.765-1.121,5.467-3.076,7.423-1.953,1.955-4.658,3.076-7.423,3.076h-64c-2.767,0-5.47-1.121-7.425-3.076-1.956-1.956-3.076-4.658-3.076-7.423v-232.04c0-2.765,1.121-5.47,3.076-7.425,1.956-1.953,4.658-3.074,7.425-3.074h85.497v-4.5h-195.42v4.5h84.001c2.765,0,5.47,1.121,7.423,3.074,1.955,1.956,3.076,4.661,3.076,7.425v232c0,2.765-1.121,5.467-3.076,7.423-1.953,1.958-4.658,3.076-7.423,3.076h-64.502c-2.765,0-5.467-1.118-7.422-3.074-1.956-1.955-3.077-4.66-3.077-7.425v-13.503h-76c-2.765,0-5.469-1.118-7.422-3.073-1.956-1.953-3.077-4.658-3.077-7.423v-57.001c0-2.768,1.121-5.47,3.074-7.425,1.956-1.956,4.66-3.074,7.425-3.074l76-0.003v-2.498h-76.5c-2.765,0-5.47-1.121-7.425-3.074-1.955-1.956-3.074-4.661-3.074-7.426v-53.5c0-2.765,1.119-5.47,3.074-7.425,1.956-1.956,4.661-3.076,7.425-3.076h77v-3.001h-91.5v171.5c0,2.765-1.121,5.467-3.076,7.423-1.956,1.958-4.658,3.076-7.423,3.076h-67c-1.116-0.005-2.322-0.027-3.769-0.247-1.435-0.209-3.058-0.686-4.372-1.282-2.675-1.247-3.996-2.313-6.185-3.734-1.142-0.783-1.568-1.258-1.983-1.666-0.39-0.403-0.665-0.729-0.929-1.046-0.513-0.628-0.951-1.222-1.435-1.897-0.951-1.335-2.036-2.962-3.314-4.942-2.549-3.95-5.839-9.267-9.653-15.548-7.623-12.553-17.31-28.923-26.856-45.199-19.089-32.545-37.595-64.685-37.604-64.696-1.873-3.253-1.868-7.249,0.009-10.497,1.877-3.246,5.339-5.243,9.089-5.243l81.5-0.002v-100h-99.58l-1.438,245.56c-0.034,5.735-4.702,10.403-10.437,10.439-0.03,0-82.435,0.5-86.062,0.5-6.281,0.014-11.354-2.072-14.664-4.182-3.172-2.012-4.93-4.003-5.549-4.748l-0.001,0.001-76.876-92.877v0.002c-3.698-4.468-3.074-11.089,1.394-14.784,4.468-3.697,11.086-3.074,14.784,1.395l76.744,92.714c0.099,0.093,0.351,0.313,0.708,0.536,0.752,0.452,1.74,0.931,3.461,0.944,1.632,0,23.213-0.126,44.249-0.25,11.746-0.07,23.342-0.14,31.311-0.188l1.44-245.62c0.032-5.768,4.731-10.438,10.499-10.438h120.5c2.765,0,5.469,1.119,7.422,3.074,1.956,1.956,3.077,4.661,3.077,7.425v121c0,2.765-1.121,5.47-3.077,7.425-1.953,1.953-4.658,3.074-7.422,3.074h-73.809c3.11,5.373,6.855,11.833,10.976,18.918,11.49,19.761,25.895,44.396,37.511,63.808,7.721,12.91,14.289,23.618,17.663,28.632,0.464,0.697,0.882,1.293,1.182,1.709,0.615,0.409,1.095,0.723,1.425,0.934,0.017,0.001,0.034,0.001,0.052,0.001,2.599-0.002,38.303-0.003,56.499-0.002v-171.5c0-2.765,1.121-5.47,3.077-7.423,1.956-1.956,4.658-3.077,7.425-3.077h112.5c2.765,0,5.467,1.121,7.423,3.077,1.955,1.953,3.076,4.658,3.076,7.423v24.001c0,2.765-1.121,5.47-3.076,7.423-1.956,1.955-4.658,3.076-7.423,3.076h-77.002v32.5h76.5c2.765,0,5.47,1.121,7.425,3.076,1.956,1.955,3.077,4.658,3.077,7.425v23.5c0,2.765-1.121,5.467-3.077,7.423-1.956,1.958-4.661,3.076-7.425,3.076l-76-0.002v36.002h76c2.765,0,5.47,1.121,7.425,3.076,1.956,1.956,3.077,4.658,3.077,7.426v13.497h43.498v-211h-83.998c-2.765,0-5.47-1.119-7.425-3.074-1.956-1.956-3.077-4.661-3.077-7.425v-25.515c0-2.767,1.121-5.47,3.077-7.425,1.956-1.956,4.661-3.077,7.425-3.077h216.5c2.765,0,5.47,1.121,7.425,3.077,1.956,1.955,3.074,4.658,3.074,7.425v25.499c0,2.765-1.118,5.47-3.074,7.425-1.955,1.955-4.66,3.076-7.425,3.076h-85.5v211h43.001v-170c0-2.765,1.121-5.47,3.076-7.425,1.956-1.956,4.661-3.076,7.425-3.076h109c2.765,0,5.47,1.121,7.425,3.076,1.955,1.956,3.074,4.661,3.074,7.425v94.5c0,2.765-1.121,5.468-3.076,7.423-1.953,1.955-4.658,3.076-7.423,3.076h-56.342c4.75,5.417,10.236,11.667,15.898,18.108,16.278,18.516,34.146,38.746,39.771,44.816,0.504,0.547,0.932,0.995,1.141,1.211,1.172,0.931,1.792,1.164,2.972,1.467,1.218,0.291,3.188,0.41,6.059,0.398,4.831-0.002,74.167-0.002,101-0.001v-15h-45.502c-2.765,0-5.47-1.121-7.423-3.074-1.956-1.956-3.077-4.661-3.077-7.426v-146.5c0-2.767,1.121-5.47,3.077-7.425,1.953-1.956,4.658-3.076,7.423-3.076h145c2.765,0,5.47,1.121,7.423,3.076,1.956,1.956,3.077,4.658,3.077,7.425v146.5c0,2.765-1.121,5.47-3.077,7.426-1.955,1.953-4.658,3.074-7.423,3.074h-47.503v14.999h101.5v-246.5c0-2.765,1.119-5.47,3.074-7.425,1.956-1.956,4.661-3.074,7.426-3.074h122.5c2.765,0,5.47,1.119,7.425,3.074,1.956,1.956,3.074,4.661,3.074,7.425v120.5c0,2.765-1.118,5.47-3.074,7.423-1.955,1.955-4.66,3.076-7.425,3.076h-82.002v114.5h136.5v-189.5c0-2.765,1.121-5.47,3.076-7.423,1.955-1.956,4.658-3.077,7.425-3.077h25.499c2.765,0,5.47,1.121,7.425,3.077,1.956,1.955,3.074,4.658,3.074,7.423v189.5h43.501v-169.5c0-2.765,1.121-5.47,3.076-7.425,1.956-1.955,4.658-3.074,7.425-3.074h111c2.765,0,5.47,1.119,7.425,3.074,1.956,1.956,3.074,4.661,3.074,7.425v23c0,2.765-1.118,5.47-3.074,7.425-1.955,1.953-4.66,3.074-7.425,3.074h-75.001v33.001h77.002c2.765,0,5.47,1.119,7.426,3.074,1.953,1.956,3.073,4.661,3.073,7.426v22.999c0,2.765-1.12,5.47-3.076,7.426-1.955,1.953-4.658,3.074-7.423,3.074h-75.003v36h74.001c2.765,0,5.47,1.12,7.426,3.076,1.955,1.955,3.074,4.658,3.074,7.425v12.499c21.961-0.001,71.016-0.001,74.501-0.001,3.425,0.003,6.657,0.351,9.761,1.268,3.093,0.901,5.967,2.431,8.28,4.234,4.663,3.705,7.15,7.597,10.3,11.62,1.059,1.39,4.34,5.514,8.773,11.043,4.449,5.552,10.125,12.605,16.223,20.166,12.196,15.123,26.074,32.282,35.224,43.588,6.1,7.537,10.089,12.459,10.1,12.473,3.649,4.507,2.955,11.118-1.55,14.769-1.945,1.575-4.282,2.341-6.604,2.341-3.2,0-6.2-1.32-8.3-3.89z"/>
	<path id="path240" d="M1881.3,456.5c-4.638,0.008-9.288-2.034-12.439-5.928l0.001-0.002c-0.194-0.238-36.054-44.505-56.78-70.286-6.963-8.667-12.089-15.072-14.009-17.579-2.411-3.199-4.271-5.596-4.935-6.256-0.133-0.127-0.245-0.232-0.335-0.315-0.081-0.015-0.188-0.031-0.322-0.048-0.353-0.044-0.898-0.087-1.686-0.085h-85.002c-4.248-0.009-8.301-1.684-11.312-4.686-3-3.012-4.677-7.062-4.688-11.313v-7h-68.498c-4.253-0.012-8.301-1.69-11.314-4.686-0.063-0.063-0.125-0.128-0.188-0.192v11.878c-0.01,4.247-1.686,8.3-4.686,11.312-3.012,2.997-7.06,4.679-11.312,4.688h-64.501c-4.248-0.009-8.301-1.684-11.316-4.688-0.519-0.521-0.997-1.074-1.435-1.652-0.438,0.579-0.918,1.131-1.437,1.652-3.012,2.997-7.06,4.679-11.312,4.688h-157.5c-4.248-0.009-8.301-1.684-11.314-4.686-1.523-1.53-2.706-3.328-3.503-5.285-0.776,2.344-2.091,4.497-3.87,6.285-3.012,2.997-7.06,4.676-11.312,4.686h-122.5c-4.249-0.01-8.302-1.686-11.313-4.686-2.05-2.06-3.482-4.603-4.188-7.362-0.705,2.761-2.139,5.304-4.19,7.367-3.009,2.99-7.057,4.671-11.309,4.681h-111.53c-3.114-0.019-7.164-0.002-11.831-1.041-4.904-1.071-10.051-3.438-14.557-7.312-0.76-0.654-1.236-1.156-1.452-1.369l-0.039-0.039-0.037-0.039c-0.337-0.347-0.688-0.716-1.091-1.147-0.778-0.83-1.739-1.873-2.884-3.137-2.277-2.512-5.291-5.876-8.807-9.832-7.031-7.901-16.067-18.142-25.001-28.295-17.866-20.304-35.312-40.248-35.317-40.252-0.54-0.618-1.026-1.27-1.458-1.949v77.413c-0.009,4.252-1.69,8.3-4.686,11.312-3.011,2.999-7.062,4.679-11.311,4.688h-64.001c-4.252-0.009-8.303-1.69-11.314-4.688-0.62-0.623-1.183-1.29-1.687-1.993-0.502,0.702-1.064,1.367-1.682,1.988-3.016,3.009-7.07,4.684-11.316,4.692h-64.74c-4.248-0.009-8.3-1.686-11.312-4.686-2.998-3.012-4.679-7.062-4.688-11.313v-8.002h-70.499c-3.447-0.008-6.764-1.111-9.5-3.129v11.131c-0.009,4.252-1.69,8.3-4.686,11.309-3.014,3.005-7.066,4.682-11.313,4.69h-67.024c-1.172-0.005-2.731-0.03-4.539-0.305-2.023-0.303-3.991-0.884-5.901-1.739-3.181-1.481-4.949-2.876-6.857-4.107l-0.06-0.036-0.057-0.042c-1.434-0.956-2.479-2.024-2.727-2.279l-0.05-0.048-0.048-0.051c-0.521-0.537-0.922-1.014-1.231-1.388-0.619-0.759-1.14-1.466-1.656-2.186-1.029-1.447-2.153-3.133-3.456-5.153-2.599-4.025-5.906-9.369-9.733-15.674-7.649-12.598-17.346-28.982-26.9-45.272-17.089-29.136-33.719-57.958-37.024-63.69l-0.738,126.06c-0.066,8.758-7.131,15.83-15.919,15.907h-0.046c-0.039,0-0.098,0-0.176,0.002-0.158,0-0.39,0.003-0.693,0.003-0.605,0.004-1.495,0.009-2.626,0.016-2.264,0.014-5.5,0.034-9.392,0.058-7.786,0.046-18.203,0.11-28.732,0.172-21.072,0.124-42.539,0.25-44.413,0.25h-0.062c-7.495-0.009-13.52-2.477-17.547-5.036-0.919-0.583-1.746-1.169-2.483-1.738l-0.507,0.506-70.992-85.766-9.736-11.761c-2.46-2.971-3.681-6.617-3.676-10.199-0.004-2.942,0.816-5.892,2.413-8.46v-0.12l0.043,0.052c0.884-1.404,2.001-2.693,3.345-3.802,2.968-2.461,6.614-3.681,10.197-3.676,4.58-0.008,9.176,1.985,12.332,5.8l76.291,92.168c0.047,0.004,0.149,0.009,0.384,0.034,1.571,0,23.194-0.127,44.216-0.25,9.292-0.057,18.491-0.111,25.875-0.156l1.409-240.19c0.06-8.802,7.199-15.898,15.999-15.907h120.5c4.25,0.011,8.302,1.686,11.311,4.686,3,3.014,4.679,7.064,4.688,11.316v121c-0.009,4.252-1.688,8.302-4.688,11.316-3.011,2.998-7.059,4.674-11.311,4.686h-64.264c1.931,3.33,4.006,6.904,6.187,10.653,11.483,19.749,25.882,44.374,37.475,63.749,7.692,12.861,14.277,23.591,17.522,28.407,0.042,0.063,0.085,0.127,0.127,0.189,5.819-0.002,22.178-0.004,37.027-0.004,4.185,0,8.25,0,11.926,0.001v-165.95c0.009-4.252,1.688-8.302,4.688-11.312,3.009-3,7.06-4.679,11.314-4.688h112.5c4.252,0.009,8.302,1.69,11.311,4.686,3,3.011,4.679,7.062,4.688,11.313v24.001c-0.009,4.252-1.688,8.302-4.688,11.312-3.009,2.998-7.059,4.679-11.311,4.688h-71.501v21.499h70.999c4.252,0.009,8.302,1.688,11.313,4.688,3,3.009,4.679,7.06,4.688,11.313l0.002,23.502c-0.012,4.249-1.693,8.3-4.686,11.307-3.016,3.007-7.071,4.681-11.318,4.689h-70.5v25.003h70.499c4.252,0.01,8.302,1.688,11.316,4.688,2.995,3.009,4.679,7.06,4.688,11.313v8h32.496v-200h-78.496c-4.25-0.012-8.3-1.686-11.316-4.686-2.998-3.014-4.679-7.062-4.688-11.314v-25.505c0.009-4.254,1.69-8.305,4.688-11.313,3.013-3,7.062-4.679,11.316-4.688h216.5c4.253,0.009,8.303,1.688,11.314,4.686,2.999,3.014,4.676,7.066,4.686,11.316v25.499c-0.01,4.248-1.684,8.3-4.686,11.314-3.014,3-7.062,4.676-11.314,4.688h-80.002v200h32.001v-164.49c0.011-4.252,1.688-8.302,4.688-11.316,3.014-3,7.064-4.676,11.316-4.686l109-0.002c4.25,0.011,8.3,1.688,11.313,4.688,3,3.016,4.675,7.066,4.686,11.316v94.497c-0.011,4.253-1.69,8.303-4.686,11.312-3.014,3-7.063,4.679-11.313,4.688h-44.201c2.55,2.903,5.198,5.919,7.887,8.977,16.256,18.489,34.173,38.773,39.686,44.723,0.298,0.322,0.57,0.611,0.773,0.825,0.069,0.05,0.116,0.081,0.142,0.097l0.008,0.009c0.002-0.002,0.002,0,0.053,0.017,0.066,0.022,0.218,0.066,0.461,0.128,0.448,0.094,2.034,0.239,4.312,0.228,0.063,0,0.237-0.005,0.499-0.001,3.367-0.002,28.007-0.004,53.264-0.004,15.365,0,30.956,0,42.117,0.001v-3.999h-40c-4.254-0.009-8.302-1.688-11.313-4.686-2.998-3.011-4.679-7.062-4.688-11.313v-146.52c0.009-4.254,1.689-8.305,4.686-11.314,3.014-3.002,7.063-4.679,11.315-4.688h145c4.252,0.009,8.302,1.686,11.312,4.686,2.999,3.012,4.679,7.062,4.689,11.316v146.5c-0.011,4.252-1.69,8.303-4.689,11.316-3.012,2.995-7.06,4.674-11.312,4.683h-42.003v4h90.503v-241c0.009-4.25,1.686-8.3,4.686-11.316,3.016-3,7.065-4.674,11.315-4.684l122.5-0.002c4.247,0.011,8.3,1.686,11.311,4.686,3.005,3.016,4.679,7.066,4.686,11.316l0.003,120.5c-0.01,4.245-1.684,8.3-4.686,11.311-3.014,2.998-7.062,4.676-11.313,4.686h-76.504v103.5h125.5v-184c0.01-4.252,1.688-8.302,4.686-11.314,3.012-2.998,7.062-4.679,11.316-4.688h25.499c4.252,0.009,8.302,1.69,11.311,4.688,3.003,3.014,4.679,7.064,4.688,11.314v184h32.5v-164c0.01-4.252,1.688-8.3,4.688-11.314,3.011-3,7.063-4.676,11.313-4.686h111c4.247,0.012,8.298,1.686,11.312,4.686,3.004,3.014,4.676,7.066,4.686,11.314l0.002,23.001c-0.012,4.248-1.684,8.3-4.688,11.316-3.014,2.995-7.06,4.672-11.312,4.683h-69.503v22.001h71.503c4.25,0.009,8.3,1.683,11.318,4.688,2.995,3.013,4.669,7.062,4.681,11.311v22.999c-0.009,4.25-1.688,8.3-4.69,11.316-3.009,2.995-7.057,4.674-11.309,4.683h-69.504v25.001h68.502c4.249,0.01,8.302,1.687,11.315,4.686,2.998,3.014,4.674,7.064,4.686,11.316v6.997h69.004c3.791,0.003,7.572,0.388,11.295,1.486,3.818,1.119,7.257,2.949,10.165,5.209,5.417,4.313,8.274,8.82,11.251,12.596,0.964,1.264,4.275,5.428,8.69,10.935,4.444,5.544,10.119,12.596,16.212,20.153,12.194,15.118,26.07,32.275,35.219,43.58,6.055,7.481,10.016,12.368,10.105,12.479,0.004,0.007,0,0-0.005-0.005-0.002-0.004-0.007-0.009-0.002-0.002,2.39,2.947,3.568,6.539,3.566,10.063,0.007,4.64-2.042,9.282-5.929,12.44-2.944,2.385-6.527,3.566-10.046,3.565h-0.3zm-134.7-111.5h44.188c2.379,0.002,4.048,0.24,5.388,0.64l0.128,0.039,0.115,0.039c0.392,0.14,1.282,0.426,2.227,1.041,0.911,0.601,1.443,1.128,2.122,1.772l0.066,0.064c1.75,1.779,3.44,4.117,5.979,7.438,1.721,2.248,6.903,8.729,13.835,17.357,20.756,25.817,56.754,70.255,56.754,70.255l-4.273,3.464,4.273-3.464c0.997,1.229,2.412,1.847,3.892,1.854,1.119-0.005,2.202-0.355,3.135-1.11,1.234-1.004,1.852-2.424,1.858-3.896-0.005-1.121-0.355-2.199-1.163-3.204-0.031-0.036-0.077-0.093-0.135-0.167-0.124-0.151-0.303-0.374-0.539-0.663-0.471-0.582-1.161-1.434-2.042-2.522-1.764-2.174-4.284-5.289-7.334-9.06-9.151-11.307-23.031-28.466-35.229-43.594-6.102-7.563-11.779-14.621-16.233-20.178-4.452-5.553-7.701-9.635-8.814-11.094-3.364-4.332-5.48-7.607-9.35-10.674-1.76-1.378-4.069-2.607-6.456-3.296-2.466-0.729-5.146-1.041-8.202-1.043-3.485,0-52.541,0-74.501,0.002h-5.502v-17.999c0.01-1.284-0.553-2.64-1.463-3.536-0.899-0.913-2.257-1.476-3.536-1.466h-79.501v-47h80.503c1.277,0.009,2.635-0.553,3.534-1.463,0.91-0.899,1.475-2.257,1.466-3.537v-22.999c0.009-1.279-0.556-2.642-1.461-3.536-0.899-0.91-2.26-1.473-3.539-1.463h-82.503v-44.002h80.503c1.275,0.011,2.64-0.553,3.536-1.463,0.908-0.895,1.471-2.252,1.461-3.534v-23.001c0.01-1.28-0.553-2.64-1.463-3.537-0.895-0.908-2.255-1.473-3.534-1.461h-111c-1.284-0.009-2.638,0.55-3.536,1.461-0.911,0.899-1.475,2.259-1.466,3.537v175h-54.502v-195c0.009-1.282-0.551-2.638-1.463-3.537-0.897-0.911-2.26-1.475-3.534-1.463h-25.499c-1.28-0.011-2.638,0.551-3.539,1.466-0.908,0.894-1.473,2.254-1.463,3.534v195h-147.5v-125.51h87.503c1.274,0.012,2.637-0.553,3.538-1.468,0.906-0.892,1.468-2.25,1.461-3.529l-0.002-120.5c0.009-1.282-0.553-2.64-1.463-3.539-0.897-0.908-2.255-1.47-3.534-1.461h-122.5c-1.282-0.009-2.642,0.553-3.539,1.461-0.908,0.899-1.472,2.259-1.463,3.539v252h-112.5v-25.999h53.005c1.277,0.009,2.638-0.553,3.534-1.463,0.913-0.899,1.475-2.26,1.465-3.537v-146.5c0.01-1.282-0.552-2.635-1.468-3.539-0.894-0.911-2.254-1.472-3.531-1.463h-145c-1.279-0.009-2.638,0.553-3.536,1.466-0.913,0.901-1.475,2.254-1.464,3.537v146.5c-0.011,1.277,0.553,2.638,1.466,3.537,0.895,0.908,2.257,1.472,3.534,1.463h51v26.001h-5.5c-11.116-0.002-29.523-0.002-47.617-0.002-25.59,0-50.557,0-53.38,0.002h-0.066l-0.063-0.002h-0.254c-2.855-0.014-4.896-0.081-6.956-0.546l-0.051-0.014-0.039-0.01c-1.325-0.254-3.585-1.223-5.024-2.486l-0.278-0.22-0.254-0.262c-0.243-0.252-0.693-0.723-1.223-1.298-5.747-6.204-23.567-26.384-39.869-44.925-5.663-6.442-11.151-12.694-15.903-18.113l-8.002-9.126h68.48c1.277,0.01,2.636-0.555,3.532-1.465,0.913-0.899,1.475-2.257,1.466-3.535v-94.497c0.009-1.282-0.553-2.642-1.464-3.539-0.896-0.911-2.257-1.473-3.534-1.463h-108.92c-1.28-0.009-2.64,0.553-3.537,1.466-0.913,0.896-1.475,2.257-1.466,3.536v175.5h-54v-222.03h91.002c1.277,0.011,2.638-0.553,3.537-1.466,0.908-0.894,1.473-2.254,1.461-3.534v-25.505c0.012-1.284-0.551-2.638-1.464-3.537-0.896-0.913-2.257-1.475-3.534-1.465h-216.51c-1.278-0.009-2.64,0.553-3.539,1.465-0.913,0.901-1.472,2.254-1.463,3.537v25.499c-0.011,1.278,0.553,2.638,1.463,3.534,0.897,0.911,2.257,1.475,3.539,1.463h89.495v222h-54.497v-18.997c0.009-1.282-0.55-2.635-1.465-3.536-0.899-0.911-2.259-1.475-3.537-1.466h-81.5v-47.002l81.5,0.002c1.282,0.009,2.637-0.553,3.537-1.463,0.915-0.904,1.475-2.26,1.465-3.534v-23.502c0.009-1.279-0.553-2.637-1.465-3.536-0.899-0.91-2.259-1.475-3.537-1.466h-82v-43.497h82.503c1.277,0.009,2.635-0.553,3.536-1.468,0.908-0.895,1.473-2.255,1.463-3.532v-24.001c0.009-1.277-0.555-2.638-1.465-3.534-0.899-0.913-2.257-1.475-3.534-1.466h-112.51c-1.28-0.009-2.635,0.553-3.539,1.468-0.911,0.895-1.472,2.255-1.463,3.532v177l-5.504-0.004h-17.421c-17.526,0-37.175,0-39.074,0.002-0.016,0-0.138,0.002-0.365-0.009l-1.438-0.083-1.211-0.772c-0.372-0.239-0.874-0.566-1.511-0.991l-0.828-0.553-0.583-0.808c-0.342-0.47-0.796-1.116-1.287-1.855-3.521-5.235-10.07-15.923-17.82-28.879-11.637-19.451-26.049-44.097-37.544-63.866-4.124-7.089-7.871-13.554-10.983-18.927l-4.777-8.257h83.347c1.277,0.012,2.64-0.555,3.534-1.463,0.913-0.899,1.475-2.259,1.465-3.537v-120.98c0.009-1.277-0.553-2.64-1.468-3.539-0.895-0.908-2.25-1.47-3.532-1.461h-120.5c-2.734-0.009-4.993,2.236-5,4.97l-1.47,251.06-5.436,0.031c-7.97,0.049-19.566,0.117-31.313,0.188-21.049,0.124-42.587,0.25-44.323,0.25-2.704,0.044-5.151-1.007-6.252-1.731l-0.037-0.023-0.051-0.029c-0.745-0.471-1.222-0.881-1.555-1.19l-0.25-0.234-76.962-92.979c-1.002-1.207-2.399-1.806-3.857-1.813-1.135,0.003-2.234,0.365-3.188,1.151-1.202,0.996-1.8,2.39-1.81,3.854,0.004,1.112,0.353,2.19,1.103,3.127l76.378,92.274,0.538,0.646c0.399,0.475,1.697,1.986,4.275,3.623,2.562,1.636,6.64,3.331,11.648,3.323h0.062c3.578,0,85.975-0.499,86.028-0.499,2.708-0.003,4.97-2.264,4.97-4.973l1.47-251.03h110.54v111l-86.998,0.002c-1.792,0-3.434,0.947-4.33,2.5-0.45,0.773-0.672,1.63-0.672,2.498,0,0.835,0.207,1.664,0.626,2.424,0.014,0.022,0.018,0.03,0.023,0.037,0.007,0.011,0.009,0.016,0.011,0.023,0.007,0.009,0.012,0.018,0.016,0.027,0.012,0.019,0.025,0.042,0.043,0.073,0.037,0.064,0.09,0.158,0.161,0.28,0.142,0.243,0.351,0.605,0.622,1.076,0.543,0.945,1.342,2.328,2.358,4.087,2.034,3.523,4.944,8.555,8.449,14.605,7.011,12.098,16.405,28.262,25.941,44.522,9.539,16.264,19.217,32.618,26.813,45.126,3.8,6.26,7.073,11.546,9.573,15.419,1.255,1.943,2.3,3.512,3.167,4.725,0.458,0.641,0.814,1.122,1.188,1.578,0.236,0.281,0.382,0.457,0.615,0.701,0.515,0.5,0.362,0.406,1.183,0.996v0.001c2.381,1.56,3.261,2.288,5.349,3.263,0.764,0.357,2.041,0.734,2.922,0.851,1.053,0.161,1.906,0.182,2.942,0.187h67.001c1.282,0.009,2.633-0.553,3.532-1.466,0.915-0.901,1.477-2.257,1.468-3.534v-177.02h102.51v14.001h-82.498c-1.28-0.009-2.637,0.555-3.537,1.465-0.91,0.897-1.472,2.254-1.463,3.537v53.499c-0.009,1.28,0.553,2.641,1.461,3.534,0.899,0.911,2.261,1.476,3.539,1.466h81.998v13.499l-81.498,0.003c-1.282-0.01-2.64,0.55-3.534,1.461-0.913,0.898-1.475,2.254-1.465,3.539v56.999c-0.009,1.277,0.553,2.638,1.468,3.536,0.892,0.906,2.25,1.468,3.532,1.459h81.5v19.004c-0.011,1.277,0.553,2.638,1.465,3.536,0.897,0.911,2.25,1.473,3.532,1.464h64.503c1.28,0.009,2.635-0.553,3.532-1.466,0.913-0.901,1.475-2.257,1.465-3.534v-232c0.009-1.277-0.553-2.637-1.465-3.536-0.895-0.908-2.254-1.473-3.532-1.463h-89.502v-15.5h206.51v15.5h-90.997c-1.28-0.009-2.638,0.553-3.537,1.463-0.911,0.899-1.475,2.256-1.463,3.536v232c-0.009,1.277,0.55,2.633,1.463,3.534,0.901,0.913,2.257,1.475,3.537,1.466h64.001c1.277,0.009,2.635-0.556,3.532-1.466,0.913-0.901,1.475-2.257,1.465-3.534v-175.5h99v84.5l-74.499-0.003c-1.958,0-3.749,1.154-4.559,2.945-0.296,0.651-0.443,1.346-0.443,2.053,0.003,1.178,0.413,2.333,1.244,3.304l0.002-0.001,0.007,0.009c0.007,0.009,0.021,0.023,0.036,0.044,0.034,0.039,0.085,0.094,0.149,0.169,0.133,0.151,0.328,0.377,0.585,0.668,0.512,0.585,1.264,1.444,2.22,2.539,1.915,2.186,4.653,5.312,7.949,9.072,6.592,7.521,15.417,17.58,24.343,27.724,8.926,10.145,17.953,20.375,24.962,28.251,3.502,3.938,6.5,7.284,8.738,9.754,1.114,1.229,2.041,2.236,2.757,3.002,0.361,0.384,0.667,0.705,0.949,0.997,0.402,0.4,0.354,0.371,0.852,0.809,2.944,2.555,6.559,4.203,9.71,4.88,3.369,0.748,6.376,0.773,9.5,0.784h111.5c1.277,0.01,2.635-0.553,3.534-1.463,0.912-0.899,1.475-2.262,1.465-3.536v-36.001c0.01-1.282-0.553-2.64-1.463-3.536-0.896-0.911-2.257-1.473-3.536-1.464h-51.002v-136.48h135v136.5h-53c-1.281-0.009-2.637,0.553-3.536,1.466-0.91,0.896-1.475,2.255-1.466,3.534l0.003,36.001c-0.012,1.277,0.553,2.637,1.463,3.536,0.899,0.91,2.255,1.473,3.536,1.463h122.5c1.275,0.01,2.638-0.555,3.532-1.463,0.913-0.899,1.475-2.262,1.466-3.536v-252h112.5v110.5h-87.497c-1.28-0.009-2.636,0.553-3.534,1.463-0.913,0.899-1.476,2.261-1.466,3.539v135.5c-0.012,1.277,0.553,2.638,1.466,3.536,0.896,0.911,2.249,1.473,3.534,1.464h157.5c1.275,0.009,2.633-0.553,3.532-1.466,0.912-0.899,1.472-2.252,1.463-3.534v-195h15.502l0.002,195c-0.01,1.277,0.555,2.64,1.466,3.536,0.894,0.911,2.252,1.473,3.534,1.464h64.501c1.275,0.009,2.633-0.553,3.532-1.466,0.912-0.899,1.472-2.252,1.463-3.534v-175h101v13l-80.496,0.002c-1.282-0.009-2.64,0.553-3.534,1.461-0.911,0.899-1.475,2.261-1.466,3.539v53.999c-0.009,1.277,0.555,2.64,1.463,3.534,0.897,0.911,2.257,1.475,3.537,1.466h82.498v12.999h-80.498c-1.282-0.009-2.638,0.553-3.534,1.464-0.913,0.898-1.478,2.259-1.466,3.536v57.002c-0.012,1.275,0.553,2.638,1.463,3.532,0.899,0.912,2.257,1.475,3.537,1.465h79.5v18.002c-0.012,1.277,0.553,2.638,1.468,3.539,0.89,0.908,2.248,1.47,3.53,1.461h40.8zm-623.8-56h40.003c4.249,0.009,8.3,1.686,11.313,4.684,2.051,2.06,3.481,4.604,4.186,7.363,0.705-2.761,2.138-5.304,4.188-7.361,3.012-3,7.064-4.677,11.313-4.686l41.998-0.002v-114.49h-113v114.5-0.004zm-164.24-31.66c-0.01-0.014-0.017-0.019-0.019-0.022l-0.012-0.014-0.004-0.005-0.001,0.001c0.01,0.02,0.02,0.03,0.03,0.04zm-9.78-11.92c2.908-4.575,7.979-7.409,13.501-7.413h63.497v-62.497h-76.998v69.905l-0.02,0.005zm383.52-48.65c0.718-1.299,1.618-2.503,2.687-3.577,3.012-2.998,7.062-4.678,11.314-4.686l76.498-0.002v-88.498h-90.5v96.77zm-833.18-0.87c2.97-4.296,7.878-6.896,13.157-6.896l75.999-0.002v-89h-88.594l-0.57,95.9zm356.66-97.217c0.042-0.06,0.086-0.119,0.129-0.178h-0.259c0.05,0.058,0.09,0.118,0.13,0.178z"/>
</g>
<g id="g242">
	<path id="path244" fill="#FEE600" d="M1507.4,102.43l-35.499-35.501c-1.986-1.983-3.097-4.694-3.075-7.5,0.021-2.805,1.169-5.5,3.182-7.456l35.501-34.5c4.135-4.019,10.746-3.948,14.793,0.159l34.501,35.002c4.026,4.083,4.026,10.656,0,14.741l-34.501,35c-1.968,2-4.634,3.119-7.439,3.13h-0.033c-2.9-0.01-5.6-1.11-7.5-3.08zm-13.2-42.82l20.49,20.491,19.809-20.098-19.914-20.203-20.4,19.81z"/>
	<path id="path246" d="M1514.8,111c-4.241,0.002-8.318-1.684-11.318-4.686l3.888-3.89-3.888,3.888-35.5-35.49c-2.999-3-4.683-7.06-4.689-11.296-0.002-0.013-0.002-0.051,0-0.106,0-0.051,0.001-0.118,0.005-0.202,0.077-4.219,1.813-8.238,4.844-11.187l35.502-34.5c3.094-3.01,7.146-4.531,11.147-4.524,4.115-0.006,8.277,1.6,11.396,4.765l34.501,35.002c3.061,3.101,4.607,7.192,4.602,11.232,0.006,4.04-1.543,8.129-4.602,11.232l-34.498,34.996c-2.99,3.043-7.082,4.761-11.358,4.774h0.1zm0-11h0.012c1.353-0.011,2.595-0.533,3.542-1.492l34.501-34.998c0.966-0.986,1.432-2.226,1.437-3.512-0.005-1.291-0.471-2.528-1.437-3.51l-34.498-35c-0.992-1.003-2.252-1.483-3.563-1.49-1.272,0.004-2.499,0.46-3.48,1.412l-35.502,34.5c-0.952,0.921-1.507,2.224-1.516,3.552l-0.001,0.141c0.026,1.275,0.556,2.524,1.466,3.428l35.497,35.5c1,0.955,2.2,1.469,3.6,1.469zm-24.5-36.502l-3.945-3.945,28.301-27.503,27.555,27.952-27.503,27.905-24.5-24.409zm24.4,8.796l12.115-12.292-12.274-12.452-12.468,12.116,12.7,12.628z"/>
</g>
<g id="Layer_5_1_" transform="matrix(0.4161329,0,0,0.4161329,197.98398,622.57578)">
	<path id="path134_1_" fill="#991A37" d="M-138.83-585.28c-52.105,0-102.82-9.882-142.79-27.826-43.625-19.588-73.443-48.033-86.228-82.256-5.699-15.263-45.744-122.46-66.232-177.32,0.95,0.221,1.958,0.418,3.024,0.589,1.308,0.207,2.601,0.383,3.883,0.559,4.87,0.667,9.076,1.239,13.009,3.349,5.274,2.826,6.889,7.111,9.291,14.442l6.747,20.367c1.487,4.496,6.756,6.245,18.799,6.245,1.332,0,2.383-0.023,2.926-0.045,1.045-0.031,2.084-0.07,3.116-0.11,2.449-0.094,4.759-0.178,7.072-0.178,4.008,0,7.268,0.286,10.256,0.904,6.964,1.436,12.711,4.121,16.615,7.761,2.172,2.021,2.969,4.231,4.07,7.291,0.637,1.765,1.358,3.769,2.434,5.86,5.153,9.997,17.165,15.733,32.959,15.733,2.759,0,5.524-0.176,8.223-0.528,3.709-0.481,7.262-1.286,10.699-2.063,4.481-1.018,8.715-1.971,13.048-2.201,1.247-0.066,2.499-0.103,3.751-0.103,5.883,0,11.589,0.735,16.964,2.171,7.063,1.894,12.702,4.705,16.761,8.371,1.044,0.925,1.995,1.838,2.929,2.729,3.063,2.922,6.227,5.94,10.835,8.193,6.822,3.337,14.781,5.097,23.015,5.097,8.58,0,17.144-1.87,24.765-5.419l1.476-0.685c6.768-3.159,12.614-5.89,19.581-7.115,4.116-0.72,8.356-1.089,12.6-1.089,2.99,0,6.017,0.185,8.992,0.547,6.888,0.833,13.225,3.473,19.933,6.261,7.356,3.06,14.964,6.224,23.64,7.052,1.924,0.181,3.87,0.275,5.778,0.275,6.574,0,12.826-1.063,18.578-3.166,7.27-2.647,11.798-6.918,16.592-11.445l1.252-1.178c10.004-9.38,25.204-10.783,33.376-10.783,1.399,0,2.82,0.04,4.221,0.122,4.898,0.275,9.626,1.195,14.636,2.168,5.97,1.159,12.144,2.363,18.575,2.363,4.665,0,8.967-0.627,13.159-1.913,9.45-2.886,16.12-8.552,18.776-15.946l0.072-0.207,0.056-0.211c1.683-6.318,3.822-9.723,7.883-12.557,4.729-3.314,10.808-5.428,18.075-6.299,1.516-0.178,3.178-0.268,5.078-0.268,1.985,0,3.967,0.094,6.068,0.19,2.12,0.099,4.316,0.2,6.539,0.2,1.555,0,2.965-0.052,4.317-0.153l0.866-0.056c4.218-0.284,12.071-0.807,14.311-7.39l3.846-11.33c0.595-1.753,1.132-3.64,1.649-5.466,1.401-4.933,2.851-10.039,5.531-13.055,4.043-4.557,10.772-6.184,15.704-6.752l1.084-0.12c2.212-0.249,4.627-0.514,7.063-1.03l-67.281,176.81c-13.026,34.234-43.305,62.776-87.556,82.528-40.632,18.14-91.911,28.12-144.39,28.12"/>
	<path id="path136_1_" fill="#010101" d="M168.72-882.32c-0.035,0.031-0.066,0.066-0.1,0.099-0.089,0.089-0.164,0.167-0.176,0.178,0.09-0.09,0.18-0.18,0.28-0.28m0.01-0.01l-0.008,0.012,0.01-0.01zm0.01-0.01c-0.006,0.002-0.009,0.007-0.014,0.012l0.01-0.01zm0.05-0.05c-0.041,0.04-0.117,0.12-0.214,0.214l0.045-0.042c0.06-0.06,0.12-0.12,0.17-0.17m0.03-0.04c-0.011,0.016-0.021,0.023-0.033,0.038,0.008-0.009,0.019-0.019,0.025-0.023v-0.02m0.01-0.01l-0.019,0.023c-0.026,0.023-0.05,0.049-0.072,0.073,0.07-0.05,0.09-0.09,0.09-0.09m-613.23-3.14c17.657,47.266,65.462,175.24,71.73,192.03,28.327,75.831,130.91,113.44,233.85,113.44,103.79,0,207.93-38.201,236.77-113.97,6.723-17.662,55.295-145.25,72.859-191.38-0.439,1.145-1.13,2.173-1.975,3.048,0.095-0.092,0.17-0.169,0.17-0.169s-0.073,0.077-0.272,0.279c-0.203,0.204-0.278,0.279-0.278,0.279s0-0.002,0.002-0.002c-1.119,1.131-1.504,1.521-1.504,1.521-0.004,0,1.117-1.131,1.636-1.657-4.444,4.358-11.065,4.839-16.895,5.508-6.856,0.786-14.251,3.133-18.97,8.446-4.632,5.214-6.014,13.829-8.208,20.29-1.283,3.776-2.566,7.554-3.845,11.328-1.231,3.626-7.176,3.701-10.681,3.964-1.311,0.099-2.623,0.138-3.932,0.138-4.207,0-8.398-0.387-12.607-0.387-1.89,0-3.786,0.075-5.689,0.3-7.171,0.859-14.448,3.013-20.414,7.188-5.704,3.982-8.171,8.922-9.915,15.463-2.414,6.728-8.881,10.76-15.432,12.759-3.978,1.22-7.842,1.685-11.649,1.685-11.01,0-21.533-3.877-32.918-4.522-1.478-0.087-2.987-0.131-4.512-0.131-13.028,0-27.333,3.208-36.903,12.177-5.142,4.823-9.242,9.054-16.081,11.544-5.361,1.957-11.099,2.854-16.815,2.854-1.767,0-3.537-0.089-5.288-0.253-15.479-1.474-27.929-11.415-43.44-13.301-3.189-0.385-6.4-0.58-9.613-0.58-4.522,0-9.042,0.385-13.492,1.164-8.183,1.441-14.914,4.755-22.34,8.209-6.904,3.213-14.768,4.94-22.592,4.94-7.207,0-14.382-1.467-20.75-4.581-5.202-2.544-8.377-6.385-12.573-10.117-5.272-4.757-12.09-7.704-18.883-9.523-5.951-1.593-12.132-2.34-18.294-2.34-1.34,0-2.685,0.035-4.021,0.103-8.298,0.437-15.973,3.236-24.14,4.302-2.355,0.303-4.916,0.483-7.562,0.483-10.924,0-23.282-3.06-28.373-12.94-2.721-5.278-2.906-10.211-7.572-14.566-5.212-4.853-12.198-7.608-19.09-9.028-3.815-0.791-7.552-1.016-11.297-1.016-3.416,0-6.842,0.185-10.354,0.298-0.512,0.016-1.505,0.04-2.763,0.04-4.706,0-13.121-0.34-13.906-2.713-2.087-6.303-4.182-12.616-6.271-18.929-2.558-7.723-4.385-14.602-12.224-18.805-5.911-3.166-12.062-3.433-18.519-4.454-5.29-0.84-12.15-2.91-14.21-8.41m-0.02-0.04c0.005,0.012,0.007,0.021,0.012,0.033,0,0,0-0.02-0.01-0.03m596.92,19.24l-25.55,67.115-38.648,101.5c-12.529,32.923-41.867,60.467-84.84,79.651-39.984,17.852-90.518,27.675-142.29,27.675-51.394,0-101.36-9.723-140.68-27.375-42.34-19.009-71.217-46.452-83.51-79.358-5.423-14.522-41.953-112.32-63.132-169.02,3.759,0.53,6.84,1.089,9.549,2.539,3.409,1.828,4.523,4.464,6.831,11.504l0.476,1.462,3.772,11.375,2.499,7.547c3.237,9.784,16.546,9.784,23.694,9.784,1.409,0,2.519-0.028,3.091-0.045,1.056-0.035,2.106-0.073,3.152-0.117,2.398-0.087,4.662-0.174,6.875-0.174,3.7,0,6.54,0.246,9.213,0.8,6.038,1.241,10.93,3.487,14.146,6.482,1.152,1.075,1.64,2.234,2.732,5.266,0.69,1.917,1.471,4.081,2.701,6.475,6.065,11.776,19.749,18.528,37.54,18.528,2.982,0,5.971-0.195,8.893-0.573,3.944-0.509,7.616-1.342,11.168-2.147,4.259-0.965,8.284-1.873,12.18-2.079,1.16-0.066,2.331-0.089,3.483-0.089,5.43,0,10.689,0.666,15.629,1.99,6.267,1.673,11.191,4.102,14.702,7.27,0.921,0.824,1.816,1.676,2.763,2.572,3.189,3.051,6.806,6.498,12.123,9.096,7.527,3.684,16.268,5.628,25.282,5.628,9.327,0,18.641-2.039,26.941-5.897l1.484-0.695c6.436-3.006,11.995-5.602,18.295-6.709,3.818-0.669,7.756-1.011,11.703-1.011,2.786,0,5.601,0.171,8.37,0.509,6.185,0.751,12.203,3.257,18.576,5.904,7.71,3.21,15.681,6.526,25.131,7.42,2.084,0.206,4.192,0.303,6.265,0.303,7.18,0,14.025-1.171,20.343-3.473,8.27-3.013,13.403-7.862,18.367-12.543l1.238-1.169c6.363-5.965,17.245-9.389,29.85-9.389,1.305,0,2.626,0.042,3.927,0.115,4.552,0.256,9.112,1.145,13.946,2.084,6.21,1.209,12.633,2.455,19.558,2.455,5.186,0,9.983-0.699,14.663-2.133,11.05-3.379,18.908-10.176,22.125-19.145l0.145-0.404,0.111-0.42c1.366-5.121,2.845-7.557,5.86-9.666,3.967-2.776,9.405-4.642,15.727-5.398,1.312-0.155,2.774-0.232,4.468-0.232,1.868,0,3.792,0.089,5.829,0.183,2.182,0.101,4.437,0.204,6.777,0.204,1.685,0,3.224-0.054,4.699-0.162l0.827-0.061c4.638-0.307,15.503-1.028,18.85-10.877l1.786-5.261,2.058-6.064c0.637-1.877,1.191-3.825,1.728-5.714,1.183-4.175,2.527-8.904,4.428-11.044,2.27-2.53,6.55-4.31,12.09-4.99"/>
	<path id="path138_1_" fill="#010101" d="M-162.27-1091.1c-9.962,0-18.968,3.825-28.734,4.46-9.52,0.617-19.023-1.013-28.559-0.28-12.162,0.934-22.5,7.532-34.859,7.532-11.375,0-23.208-0.204-33.622,5.211-17.005,8.84-42.183,3.269-56.24,17.805-11.355,11.745-32.774,5.834-45.746,18.109-3.359,3.18-3.875,8.486-8.141,9.951-4.792,1.656-9.791,2.674-14.6,4.29-9.432,3.173-19.496,8.64-23.162,18.546-2.353,6.351,0.823,7.192-5.599,9.832-4.434,1.826-8.757,3.974-12.563,6.926-6.973,5.409-8.834,12.847-9.842,21.696-0.077,0.661,0.094,11.999,0.106,11.987-3.357,2.725-6.313,6.008-8.457,9.781-5.075,8.948-4.088,18.476-0.323,27.776,4.086,10.084,7.542,13.895,7.953,24.277-0.438,4.975,1.962,10.15,3.776,14.599,7.727,18.976,12.127,33.462,35.171,33.951,4.657,0.099,6.848,18.392,8.581,22.998,4.275,11.372,14.517,19.196,26.056,22.285,15.607,4.187,40.228-5.06,47.201,13.151,7.907,20.647,32.447,28.283,52.705,26.629,16.365-1.34,40.408-11.703,53.774,3.492,15.452,17.561,41.7,21.994,63.565,16.237,20.045-5.273,34.754-17.441,56.421-9.101,23.918,9.211,46.034,17.343,70.707,3.921,17.362-9.446,23.795-22.599,46.377-18.781,19.917,3.386,38.953,7.594,57.364-3.966,13.434-8.425,13.795-27.877,29.879-29.778,14.16-1.671,27.921,1.687,41.347-5.308,16.23-8.446,20.006-26.8,23.614-43.225,14.287-2.121,26.659-5.998,31.885-21.255,3.269-7.216,6.613-15,7.681-22.921,0.476-3.156,0.333-6.381-0.367-9.49,2.35-3.046,4.711-5.759,6.381-9.277,8.055-16.981,6.187-36.799-10.222-47.695,4.34-15.55-0.535-26.545-14.704-34.755-7.161-4.148-11.1-3.469-13.246-11.289-2.021-7.247-5.34-12.931-11.706-16.665-8.205-4.811-17.501-5.707-26.13-9.272-3.545-9.23-12.567-14.695-21.548-17.657-7.431-2.45-15.186-2.774-22.69-4.777-7.714-2.069-12.072-9.266-19.985-12.143-8.574-3.116-17.676-3.4-26.647-4.344-9.66-1.016-16.372-6.879-25.514-9.249-9.656-2.538-19.141-1.883-28.928-2.475-9.838-0.59-18.166-5.734-27.864-6.973-7.696-0.983-15.402-0.33-23.112-0.022-10.538,0.414-20.038-2.909-30.372-4.197-9.741-1.213-19.262,0.61-28.933,1.559-9.59,1-18.55-2.1-28.12-2.1"/>
	<path id="path140_1_" fill="#991A37" d="M-192.32-750.3c-12.885,0-26.497-4.264-35.357-14.538-6.937-8.045-17.443-11.429-27.48-12.489-14.401-1.521-27.387,4.71-41.594,4.71-12.587,0-27.231-4.288-33.935-16.477-2.551-4.67-2.534-10.178-6.466-13.984-5.155-5.05-12.601-7.327-19.449-8.181-13.501-1.673-26.768,2.607-39.278-5.325-4.993-3.161-8.803-8.148-10.083-14.226-0.857-3.175-6.136-21.424-6.872-25.298-1.083-5.707-18.447-1.814-24.281-5.144-5.297-3.023-7.952-11.07-9.649-14.829-1.698-3.757-6.909-15.456-7.246-19.128,0.868-1.744,19.927-5.684,19.927-5.684s-3.331-0.936-9.156-2.943c-5.827-2.004-12.634-7.824-14.334-11.093-1.703-3.274-9.759-17.335-7.264-24.467,3.689-4.614,22.306-4.13,26.413-7.568-0.956-1.164-11.341-8.88-12.511-10.478-4.007-5.47-3.078-17.565,1.069-22.505,4.364-5.2,23.397-2.583,30.111-6.532,2.597-1.53-9.323-0.801-6.984-2.781,3.016-2.55,1.818-11.06,2.274-14.706,1.87-14.972,27.015-10.24,36.605-14.042,2.861-1.137,5.581,1.371,7.981-0.649,1.457-1.234,1.32-5.581,2.598-7.594,3.345-5.281,16.202-12.162,21.766-13.86,6.222-1.897,6.202,1.971,12.403-0.027,2.97-0.957,6.172-2.107,8.683-4.095,2.077-1.612,3.071-4.759,5.481-6.477,5.965-4.254,12.443-7.27,19.216-8.69,6.899-1.446,14.103-1.254,21.527-1.251,5.02,0.002,7.895-5.705,12.732-7.437,6.948-3.39,11.65-4.485,18.47-5.285,6.126,0.338,14.693,2.211,20.613,0.509,5.288-1.514,9.701-4.671,15.207-5.748,12.214-2.382,24.331,1.298,36.581-0.823,5.359-0.929,10.245-3.307,15.668-3.991,6.416-0.807,13.142-0.618,19.414,1.057,12.702,3.444,24.502-1.559,37.122-1.409,9.41,0.111,17.584,4.205,26.808,5.088,11.282,1.069,22.281-1.99,33.519,0.65,5.13,1.209,9.347,4.278,14.374,5.636,6.28,1.684,12.717-0.568,19.151-0.722,5.602,0.495,9.389,2.662,16.816,5.969,6.539,2.729,10.537,5.319,16.426,7.331,6.801,2.321,8.115-1.057,15.541-0.246,7.882,0.86,19.854,6.192,25.278,10.903,2.187,1.897,3,4.769,5.426,6.24,2.516,1.534,5.337,2.585,8.123,3.445,4.853,1.489,1.125-2.983,6.104-2.121,7.628,1.545,20.277,8.662,24.696,12.717,2.341,2.144,4.151,5.005,4.505,8.306,0.311,3,3.024,3.815,5.78,3.275,1.049-0.205,2.141-0.544,3.755-0.149,5.949,1.926,20.525-1.137,26.725,4.265,4.392,3.83,7.936,3.924,8.824,10.427,0.401,2.942,1.474,16.976,3.742,16.711,5.852,2.628,16.891,0.327,22.193,6.686,2.323,2.79,4.19,5.247,2.932,10.009-1.261,4.762-5.559,19.453-4.405,20.34,5.54,4.231,14.306,2.875,16.757,8.997,2.627,6.576-0.982,21.346-4.857,25.692-1.156,1.291-7.268,9.178-7.456,10.694,2.875,3.945,2.74,4.877,2.608,7.683-0.135,2.809-2.175,10.497-7.061,21.395-4.549,14.747-21.909,11.71-32.966,15.55-1.069,5.881-6.274,30.942-10.833,36.825-9.047,11.666-24.17,10.772-36.975,10.356-6.495-0.209-13.17,0.739-19.194,3.361-2.783,1.209-5.467,2.809-7.682,4.961-2.949,2.858-3.442,5.914-4.601,9.718-4.106,13.438-17.961,19.544-30.333,20.705-10.355,0.962-19.423-2.164-29.462-3.9-9.757-1.69-20.109-1.096-29.51,2.22-4.438,1.565-8.81,3.806-12.298,7.125-3.275,3.124-5.869,6.604-9.642,9.18-8.246,5.642-18.268,8.049-28.034,8.049-9.987,0-20.048-2.527-28.776-7.66-8.593-5.027-18.766-6.944-28.515-6.944-9.748,0.012-19.944,1.906-28.517,6.977-8.74,5.12-18.84,7.67-28.86,7.67"/>
	<path id="path142_1_" fill="#CB2027" d="M-193.61-782.54c-13.185,0-27.114-3.875-36.178-13.198-7.102-7.301-17.851-10.375-28.118-11.337-14.74-1.378-28.027,4.278-42.568,4.278-12.873,0-27.859-3.896-34.721-14.961-2.612-4.238-2.591-9.242-6.618-12.696-5.271-4.586-12.892-6.651-19.898-7.42-13.815-1.528-27.389,2.363-40.186-4.844-5.114-2.868-9.154-7.369-10.322-12.912-0.553-2.68-0.42-5.43,0.278-8.07,0.701-2.607,2.193-4.97,0.974-7.664-2.212-4.895-9.209-6.935-14.307-7.735-6.532-1.033-12.85-1.138-18.82-4.165-5.419-2.746-9.606-7.542-9.876-13.459-0.302-6.665,3.966-11.084,8.198-15.864,4.288-4.837,1.447-8.183-4.366-9.601-6.165-1.502-12.453-4.832-14.38-10.884-2.021-6.31,1.808-12.363,6.732-16.448,4.248-3.518,10.821-5.555,13.597-10.431,0.947-1.666-4.676-4.146-5.874-5.596-4.1-4.968-2.84-11.363,1.402-15.843,4.464-4.722,10.646-7.061,16.698-9.459,2.817-1.11,5.59-2.468,7.984-4.268,3.082-2.317,0.835-2.701,0.216-5.989-2.718-14.434,20.035-17.492,29.847-20.945,2.929-1.028,5.929-2.276,8.385-4.112,1.495-1.118,1.358-5.066,2.662-6.894,3.423-4.796,9.902-7.216,15.597-8.76,6.362-1.718,13.022-2.029,19.362-3.845,3.044-0.872,6.32-1.914,8.888-3.718,2.125-1.466,3.141-4.322,5.608-5.881,12.319-7.794,28.236-4.429,41.689-9.023,4.798-1.638,8.076-5.178,13.025-6.752,6.719-2.129,14.104-2.804,21.163-2.47,6.267,0.309,12.778-0.319,18.836-1.866,5.408-1.374,9.926-4.24,15.558-5.218,12.499-2.164,24.897,1.18,37.431-0.745,5.481-0.844,10.478-3.004,16.034-3.627,6.563-0.729,13.447-0.56,19.859,0.962,12.999,3.127,25.074-1.413,37.983-1.279,9.632,0.1,17.993,3.816,27.432,4.615,11.546,0.972,22.802-1.801,34.301,0.596,5.246,1.094,9.563,3.88,14.712,5.112,6.42,1.529,12.928,1.811,19.511,1.67,5.923-0.125,11.96,0.453,17.662,1.982,6.247,1.653,10.407,5.941,16.432,7.77,13.406,4.059,30.233,0.78,41.768,9.673,2.239,1.72,3.07,4.329,5.554,5.66,2.576,1.394,5.459,2.349,8.309,3.132,4.968,1.352,10.104,1.741,15.127,2.821,5.753,1.238,11.87,3.117,16.39,6.799,2.396,1.948,4.251,4.542,4.61,7.542,0.316,2.72,3.342,3.777,5.909,4.913,8.204,3.612,17.325,4.239,25.104,8.89,4.942,2.96,9.406,7.842,8.143,13.697-0.513,2.364-2.481,3.2-0.358,4.968,2.56,2.132,5.711,3.664,8.86,4.911,9.348,3.702,26.802,11.919,19.042,24.108-1.436,2.255-3.641,3.98-6.11,5.2-1.755,0.868,0.292,2.473,1.27,3.461,4.391,4.424,10.747,6.47,14.991,11.14,4.086,4.454,6.012,10.631,2.93,16.064-3.465,6.113-9.863,6.768-15.93,9.371-6.617,2.844-2.177,7.477,1.126,10.908,4.541,4.715,7.547,11.154,5.341,17.488-4.654,13.395-20.87,11.187-32.182,14.674-5.315,1.638-11.682,5.545-9.094,11.567,2.722,6.325,1.957,13.412-2.707,18.755-9.252,10.589-24.732,9.774-37.834,9.399-6.646-0.185-13.479,0.671-19.642,3.051-2.844,1.101-5.59,2.551-7.858,4.501-3.016,2.598-3.518,5.372-4.708,8.826-4.2,12.198-18.379,17.746-31.041,18.795-10.594,0.873-19.871-1.964-30.138-3.544-9.991-1.528-20.581-0.997-30.204,2.016-4.54,1.422-9.014,3.459-12.582,6.47-3.355,2.837-6.007,5.996-9.866,8.336-8.44,5.121-18.697,7.308-28.684,7.308-10.218,0-20.515-2.297-29.448-6.96-8.791-4.555-19.201-6.299-29.174-6.299-9.978,0.007-20.411,1.727-29.181,6.341-8.969,4.698-19.302,7.012-29.56,7.012"/>
	<path id="path144_1_" fill="#010101" d="M-56.921-991.84c0,21.084-37.507,38.177-83.773,38.177-46.267,0-83.777-17.093-83.777-38.177,0-21.086,37.509-38.183,83.777-38.182,46.262,0,83.769,17.1,83.769,38.16"/>
	<path id="path146_1_" fill="#FFCD05" d="M-48.939-853.73c-9.344,0-18.654-1.685-26.927-4.874-10.098-3.896-17.5-9.706-21.413-16.805-0.432-0.779-0.778-1.359-1.057-1.828-1.616-2.699-1.889-3.724-2.089-7.833l-0.378-7.669-0.562-12.076,9.103,7.953c2.591,2.262,5.589,4.278,8.915,5.991,9.913,5.104,21.715,7.794,34.13,7.794,11.717,0,22.989-2.41,32.6-6.982,3.794-1.805,7.228-4.034,10.206-6.63l9.209-8.017-0.675,12.189c-0.128,2.276-0.262,3.25-0.381,4.107-0.103,0.756-0.195,1.408-0.296,3.283-0.635,12.398-11.147,19.985-17.355,23.402-9.505,5.24-20.926,8-33.035,8"/>
	<path id="path148_1_" fill="#1D1D1B" d="M-107.08-916.65l1.125,24.151c0.073,1.547,0.148,3.088,0.225,4.628l0.15,3.048c0.229,4.663,0.628,6.573,2.815,10.234,0.257,0.427,0.575,0.955,0.974,1.683,4.498,8.162,12.823,14.773,24.061,19.112,8.864,3.415,18.817,5.219,28.786,5.219,12.976,0,25.258-2.985,35.517-8.634,12.343-6.789,19.452-16.62,20.019-27.668,0.087-1.631,0.158-2.157,0.252-2.821,0.154-1.119,0.293-2.229,0.421-4.532l1.352-24.383-18.417,16.033c-2.626,2.29-5.665,4.262-9.033,5.86-8.922,4.248-19.431,6.489-30.388,6.489-11.598,0-22.586-2.502-31.773-7.223-2.953-1.521-5.606-3.302-7.882-5.29l-18.185-15.91zm11.426,23.67c2.824,2.464,6.13,4.722,9.949,6.688,10.635,5.473,23.248,8.371,36.489,8.371,12.478,0,24.515-2.591,34.814-7.486,4.424-2.103,8.19-4.618,11.377-7.397-0.229,4.154-0.452,3.241-0.675,7.397-0.447,8.699-7.545,15.233-14.697,19.168-9.051,4.982-19.81,7.355-30.543,7.355-8.682,0-17.35-1.554-25.074-4.534-7.337-2.828-14.847-7.399-18.751-14.482-2.204-3.982-2.3-3.053-2.513-7.425-0.125-2.55-0.254-5.11-0.376-7.66"/>
	<path id="path150_1_" fill="#FFCD05" d="M-49.225-883.79c-12.202,0-23.822-2.356-33.603-6.813-13.669-6.217-20.822-15.876-19.617-26.514,1.054-9.359,8.526-17.408,21.036-22.663,9.473-3.975,20.551-6.076,32.038-6.076,11.566,0,22.681,2.133,32.163,6.17,0.846,0.298,2.011,0.767,3.186,1.453,11.642,5.792,18.038,14.139,18.014,23.531-0.009,10.136-7.72,19.189-21.157,24.829-9.495,3.98-20.581,6.08-32.065,6.08"/>
	<path id="path152_1_" fill="#1D1D1B" d="M-49.369-951.01c-12.166,0-23.935,2.241-34.034,6.482-14.308,6.008-22.891,15.543-24.163,26.847-1.451,12.797,7.002,24.676,22.61,31.777,10.441,4.755,22.801,7.273,35.734,7.273,12.162,0,23.939-2.241,34.05-6.482,15.446-6.484,24.31-17.267,24.322-29.586,0.029-11.405-7.327-21.363-20.725-28.07-1.388-0.798-2.739-1.359-3.76-1.725-10.078-4.26-21.837-6.51-34.03-6.51m0,10.31c10.958,0,21.405,2.009,30.31,5.825,0.835,0.286,1.768,0.69,2.576,1.178,6.281,3.095,15.348,9.239,15.324,18.985-0.009,7.967-6.569,15.292-17.996,20.091-8.863,3.715-19.259,5.677-30.067,5.677-11.453,0-22.342-2.187-31.469-6.348-11.497-5.229-17.568-12.961-16.628-21.24,0.833-7.425,7.206-13.998,17.908-18.488,8.863-3.71,19.255-5.67,30.042-5.67"/>
	<path id="path154_1_" fill="#669A40" d="M54.508-906.52c-9.344,0-18.653-1.683-26.93-4.877-10.093-3.893-17.496-9.699-21.411-16.798-0.432-0.777-0.777-1.356-1.055-1.823-1.616-2.701-1.888-3.729-2.094-7.831l-0.982-19.771,9.139,7.97c2.6,2.267,5.605,4.285,8.927,5.994,9.904,5.097,21.706,7.794,34.128,7.794,11.711,0,22.983-2.415,32.601-6.986,3.783-1.798,7.213-4.029,10.198-6.627l9.189-8.007-0.655,12.17c-0.124,2.3-0.259,3.274-0.378,4.13-0.104,0.763-0.194,1.41-0.297,3.274-0.627,12.381-11.137,19.973-17.344,23.399-9.498,5.25-20.919,8.01-33.028,8.01"/>
	<path id="path156_1_" fill="#1D1D1B" d="M-3.72-969.47l1.21,24.22c0.128,2.544,0.252,5.083,0.375,7.634,0.236,4.675,0.634,6.58,2.818,10.244,0.258,0.425,0.576,0.957,0.974,1.68,4.503,8.164,12.825,14.775,24.065,19.112,8.86,3.415,18.816,5.217,28.785,5.217,12.975,0,25.257-2.983,35.518-8.627,12.347-6.813,19.451-16.636,20.011-27.682,0.087-1.603,0.161-2.133,0.253-2.8,0.16-1.164,0.295-2.234,0.42-4.56l1.312-24.346-18.381,16.015c-2.631,2.29-5.664,4.259-9.022,5.858-8.929,4.243-19.441,6.486-30.389,6.486-11.605,0-22.59-2.502-31.768-7.223-2.955-1.518-5.612-3.3-7.899-5.294l-18.281-15.93zm11.509,23.7c2.822,2.459,6.126,4.719,9.953,6.691,10.628,5.47,23.245,8.364,36.489,8.364,12.479,0,24.513-2.588,34.813-7.484,4.425-2.103,8.184-4.623,11.372-7.399-0.225,4.158-0.449,3.243-0.675,7.399-0.441,8.695-7.54,15.228-14.686,19.171-9.054,4.982-19.814,7.348-30.547,7.348-8.683,0-17.351-1.551-25.076-4.529-7.338-2.826-14.851-7.406-18.753-14.479-2.2-3.98-2.295-3.055-2.513-7.425-0.129-2.55-0.255-5.1-0.381-7.65"/>
	<path id="path158_1_" fill="#669A40" d="M54.22-936.58c-12.202,0-23.82-2.354-33.604-6.808-13.66-6.214-20.81-15.873-19.618-26.507,1.06-9.371,8.533-17.421,21.043-22.671,9.48-3.978,20.555-6.078,32.032-6.078,11.555,0,22.674,2.131,32.169,6.168,0.835,0.293,1.991,0.764,3.174,1.453,11.646,5.787,18.042,14.139,18.022,23.533-0.011,10.133-7.72,19.185-21.151,24.829-9.501,3.99-20.587,6.09-32.069,6.09"/>
	<path id="path160_1_" fill="#1D1D1B" d="M54.074-1003.8c-12.154,0-23.92,2.242-34.028,6.479-14.308,6.007-22.891,15.538-24.167,26.848-1.439,12.81,7.011,24.684,22.605,31.781,10.445,4.755,22.805,7.268,35.736,7.268,12.159,0,23.935-2.241,34.051-6.477,15.45-6.491,24.31-17.272,24.322-29.588,0.023-11.406-7.336-21.372-20.737-28.077-1.392-0.794-2.734-1.354-3.741-1.717-10.092-4.21-21.854-6.51-34.038-6.51m0,10.31c10.959,0,21.406,2.008,30.313,5.827,0.837,0.284,1.765,0.69,2.572,1.178,6.279,3.091,15.345,9.238,15.325,18.983-0.008,7.963-6.576,15.291-17.994,20.091-8.868,3.713-19.267,5.672-30.07,5.672-11.455,0-22.338-2.182-31.466-6.341-11.498-5.226-17.56-12.968-16.629-21.239,0.839-7.431,7.206-14,17.91-18.494,8.867-3.72,19.256-5.68,30.043-5.68"/>
	<path id="path162_1_" fill="#FFF" d="M-140.26-977.28c-11.866,0-32.135-4.675-32.821-22.194-1.347-34.505-15.855-207.5-19.134-246.39l104.66,0.402c-5.693,73.585-18.847,242.28-19.889,249.2-0.877,5.4-5.19,10.599-11.836,14.258-5.55,3.08-13,4.76-20.98,4.76"/>
	<path id="path164_1_" fill="#010101" d="M-199.7-1252.8s18.25,215.18,19.75,253.56c0.778,19.895,20.491,28.798,39.688,28.798,9.109,0,17.74-1.981,24.297-5.584,8.509-4.682,14.088-11.675,15.309-19.188,1.257-7.693,20.524-257.13,20.524-257.13l-119.57-0.5zm14.97,13.8l89.758,0.346c-7.569,97.805-18.189,233.04-19.261,241.32-0.559,3.189-3.75,6.735-8.34,9.264-4.5,2.469-10.944,3.884-17.68,3.884-1.035,0-25.351-0.176-25.95-15.59-1.29-32.67-14.35-189.27-18.53-239.17"/>
	<path id="path166_1_" fill="#1D1D1B" d="M-2.744-1359.1c0,75.681-61.364,137.04-137.03,137.04-75.692,0-137.05-61.362-137.05-137.04,0-75.68,61.357-137.04,137.05-137.04,75.662,0,137.03,61.4,137.03,137"/>
	<path id="path168_1_" fill="#CB2027" d="M-49.352-1277.1c-48.802,48.807-127.46,49.283-175.68,1.071-48.221-48.228-47.747-126.89,1.057-175.69,48.805-48.807,127.47-49.281,175.69-1.057,48.212,48.2,47.735,126.9-1.072,175.7"/>
	<path id="path170_1_" fill="#FFF" d="M-65.028-1444.8c19.798,21.892,22.551,47.994,12.677,53.332-9.954,5.528-28.282-5.544-45.289-20.196-16.711-14.83-27.532-32.958-20.455-45.548,6.89-12.5,33.239-9.6,53.072,12.4"/>
</g>
</svg>
