<?xml version="1.0" encoding="UTF-8"?>
<svg width="64" height="32" version="1.1" viewBox="0 0 64 32" xmlns="http://www.w3.org/2000/svg">
 <path id="outline" d="m8 2h48a6 6 90 0 1 6 6v16a6 6 90 0 1-6 6h-48a6 6 90 0 1-6-6v-16a6 6 90 0 1 6-6z" fill="none" stroke="#777" stroke-linejoin="round" stroke-width="3"/>
 <g id="label_off" fill="#777">
  <path d="m18.283203 7.673828q1.136719-0.480469 2.578125-0.480469t2.566406 0.480469q1.125 0.46875 1.839844 1.277344 0.726563 0.808594 1.183594 1.957031 0.46875 1.136719 0.65625 2.390625 0.199219 1.242188 0.199219 2.695313t-0.199219 2.707031q-0.1875 1.242187-0.65625 2.390625-0.46875 1.148437-1.195313 1.957031-0.726562 0.796875-1.851562 1.277344t-2.566406 0.480469q-1.441407 0-2.578125-0.480469-1.125-0.480469-1.851563-1.277344-0.726562-0.808594-1.195312-1.957031-0.855469-2.109375-0.855469-5.121094 0-4.78125 2.0625-7.03125 0.738281-0.796875 1.863281-1.265625zm2.578125 2.742188q-1.160156 0-1.757812 1.417968-0.585938 1.417969-0.585938 4.160157 0 2.730468 0.585938 4.160156 0.597656 1.417969 1.734375 1.417969 2.296875 0 2.296875-5.578125t-2.273438-5.578125z"/>
  <path d="m38.626953 10.626953h-4.371094v4.113281h4.078125v3.175782h-4.078125v6.667968h-4.078125v-17.132812h8.449219z"/>
  <path d="m49.642578 10.626953h-4.371094v4.113281h4.078125v3.175782h-4.078125v6.667968h-4.078125v-17.132812h8.449219z"/>
 </g>
</svg>
