<?xml version="1.0" encoding="utf-8"?>
<!-- Generator: Adobe Illustrator 16.0.3, SVG Export Plug-In . SVG Version: 6.00 Build 0)  -->
<!DOCTYPE svg PUBLIC "-//W3C//DTD SVG 1.1//EN" "http://www.w3.org/Graphics/SVG/1.1/DTD/svg11.dtd">
<svg version="1.1" id="Ebene_1" xmlns="http://www.w3.org/2000/svg" xmlns:xlink="http://www.w3.org/1999/xlink" x="0px" y="0px"
	 width="566.929px" height="178.654px" viewBox="0 0 566.929 178.654" enable-background="new 0 0 566.929 178.654"
	 xml:space="preserve">
<g>
	<path d="M95.964,11.469C99.685,7.854,104.652,0,124.966,0h49.43c9.841,0,21.039,3.675,24.176,9.759
		C198.798,6.797,198.24,0,205.216,0h28.052c3.352,0,6.644,2.539,6.644,5.905v45.649c0,5.963,3.164,5.33,6.762,5.284h21.289V0
		h101.133v9.538C371.337,7.369,376.705,0,393.22,0h57.814c3.287,0,5.02,4.941,5.166,7.323v3.691C460.63,6.376,468.935,0,483.957,0
		h49.99c20.113,0,32.982,14.024,32.982,28.671v35.445c0,15.198-14.047,29.634-33.492,29.634h-4.895
		c9.057,9.81,8.836,15.385,9.596,21.406v56.84c0,3.149-3.695,6.646-6.643,6.646h-28.789c-4.158,0-6.627-4.529-6.646-6.646v-41.338
		c0-5.603-5.15-8.851-9.598-8.858H463.58v50.196c0,4.563-5.359,6.646-7.383,6.646h-28.051c-2.604,0-6.961,0.737-6.645-9.479
		c-2.213,3.174-10.406,8.861-23.73,9.479H345.97c-15.088,0-19.973-6.697-24.125-10.218c0,10.853-0.727,10.218-7.381,10.218h-28.051
		c-4.831,0-5.909-4.781-5.909-7.382c-2.779,3.343-10.433,7.396-16.24,7.382H155.757c-4.802,0-6.613-3.263-6.644-7.382v-58.317
		l-41.338,65.699h-32.48l-51.672-85.63C9.293,90.175,0,77.85,0,58.5V30.09C0,17.225,8.884,0.001,33.155,0.001h57.642
		c3.38,0,5.167,4.025,5.167,5.563V11.469L95.964,11.469z M116.917,92.901c-11.808-1.541-16.861-7.904-20.953-13.737v9.417
		c-0.091,3.648-1.623,5.169-5.167,5.169H71.604l19.931,36.909L116.917,92.901z"/>
	
		<linearGradient id="SVGID_1_" gradientUnits="userSpaceOnUse" x1="7.4766" y1="846.3237" x2="561.1177" y2="846.3237" gradientTransform="matrix(1 0 0 1 -0.0947 -757.002)">
		<stop  offset="0" style="stop-color:#F090A7"/>
		<stop  offset="0.1495" style="stop-color:#EF7B75"/>
		<stop  offset="0.2564" style="stop-color:#EE6E5E"/>
		<stop  offset="0.5894" style="stop-color:#FCE72C"/>
		<stop  offset="0.8131" style="stop-color:#ACDEE4"/>
		<stop  offset="1" style="stop-color:#A3DDF2"/>
	</linearGradient>
	<path fill="url(#SVGID_1_)" d="M279.773,91.536v22.885h-64.96c-7.426,0-7.01,7.381,0,7.381c0,0,28.543,0,42.814,0
		c33.358,0,33.348,49.458,0,49.458c-22.392,0-67.174,0-67.174,0v-22.145c0,0,42.814,0,64.221,0c7.687,0,7.166-7.382,0-7.382
		c-13.287,0-39.861,0-39.861,0c-34.278,0-34.157-50.197,0-50.197C236.466,91.536,279.773,91.536,279.773,91.536z M428.888,91.536
		h76.033c13.646,0,25.805,10.596,25.836,25.1v54.625h-27.313v-47.242c0-7.886-4.689-9.484-10.336-9.597h-36.908v56.839h-27.314
		V91.536H428.888z M357.285,113.77c-7.258,0.043-10.336,4.6-10.336,10.246v14.764c0,6.133,5.273,10.334,10.336,10.334h30.266
		c3.59,0,9.598-2.43,9.598-10.334v-14.764c0-4.968-3.021-10.463-9.598-10.427L357.285,113.77z M346.949,91.536h50.936
		c16.17,0,26.574,11.012,26.574,24.359v29.525c0,20.938-18.09,25.838-26.574,25.838h-50.936c-19.133,0-27.313-15.396-27.313-25.838
		v-29.525C319.636,98.893,334.851,91.536,346.949,91.536z M287.156,91.536h27.313v79.724h-27.313V91.536z M155.757,91.536h27.313
		v79.724h-27.313V91.536z M31.741,91.536h30.266l29.527,51.673l34.695-51.673h25.099l-47.244,79.726H79.269L31.741,91.536z
		 M275.345,7.382h86.367v19.932h-59.793v7.382h59.793v19.932h-59.793c0,7.327,5.384,10.334,11.072,10.334h48.721v21.407h-62.746
		c-14.059,0-23.724-11.67-23.691-24.359L275.345,7.382z M205.954,7.382h26.575v47.244c0,6.786,5.115,10.404,11.073,10.334h28.79
		v21.407h-41.339c-11.737,0-25.098-5.275-25.098-24.359L205.954,7.382L205.954,7.382z M451.035,7.381H391.24
		c-17.203,0-24.32,15.824-24.359,24.359v29.527c0,19.149,15.754,25.948,24.359,25.837h59.795V64.959h-45.77
		c-3.258,0-11.072-2.411-11.072-9.597V39.861c0-7.384,5.559-10.335,11.072-10.335h45.77V7.381L451.035,7.381z M493.849,29.616
		c-7.258,0.042-10.336,4.6-10.336,10.245v14.765c0,6.133,5.273,10.334,10.336,10.334h30.266c3.59,0,9.598-2.431,9.598-10.334V39.863
		c0-4.965-3.025-10.463-9.598-10.424L493.849,29.616z M483.513,7.382h50.938c16.166,0,26.572,11.012,26.572,24.359v29.527
		c0,20.938-18.09,25.837-26.572,25.837h-50.938c-19.131,0-27.313-15.395-27.313-25.837V31.741
		C456.201,14.74,471.416,7.382,483.513,7.382L483.513,7.382z M133.611,29.616c-7.257,0.043-10.334,4.6-10.334,10.246v14.765
		c0,6.133,5.273,10.334,10.334,10.334h30.266c3.588,0,9.596-2.431,9.596-10.334V39.863c0-4.965-3.025-10.463-9.596-10.424
		L133.611,29.616z M123.277,7.382h50.935c16.167,0,26.576,11.012,26.576,24.359v29.527c0,20.938-18.091,25.837-26.576,25.837
		h-50.935c-19.132,0-26.575-15.395-26.575-25.837V31.741C96.702,14.74,111.179,7.382,123.277,7.382z M91.535,7.382H31.742
		c-17.204,0-24.321,15.824-24.36,24.359v29.527c0,19.149,15.753,25.948,24.36,25.837h59.793V64.961H45.029
		c-3.256,0-11.073-2.412-11.073-9.597V39.863c0-7.384,5.559-10.335,11.073-10.335h46.506V7.382z"/>
</g>
</svg>
