<?xml version="1.0" encoding="utf-8"?>
<!-- Generator: Adobe Illustrator 16.0.3, SVG Export Plug-In . SVG Version: 6.00 Build 0)  -->
<!DOCTYPE svg PUBLIC "-//W3C//DTD SVG 1.1//EN" "http://www.w3.org/Graphics/SVG/1.1/DTD/svg11.dtd">
<svg version="1.1" id="Ebene_2" xmlns="http://www.w3.org/2000/svg" xmlns:xlink="http://www.w3.org/1999/xlink" x="0px" y="0px"
	 width="566.926px" height="179.318px" viewBox="0 0 566.926 179.318" enable-background="new 0 0 566.926 179.318"
	 xml:space="preserve">
<g>
	
		<linearGradient id="SVGID_1_" gradientUnits="userSpaceOnUse" x1="478.7065" y1="416.1619" x2="478.7065" y2="513.9246" gradientTransform="matrix(1 0 0 1 -0.0898 -416.1621)">
		<stop  offset="0" style="stop-color:#33438A"/>
		<stop  offset="1" style="stop-color:#0098DF"/>
	</linearGradient>
	<polygon fill="url(#SVGID_1_)" points="559.93,6.986 559.93,45.387 390.307,45.387 390.307,97.762 566.926,97.762 566.926,90.777 
		397.297,90.777 397.297,52.375 566.926,52.375 566.926,0 390.307,0 390.307,6.986 	"/>
	
		<linearGradient id="SVGID_2_" gradientUnits="userSpaceOnUse" x1="270.4648" y1="416.1619" x2="270.4648" y2="513.9246" gradientTransform="matrix(1 0 0 1 -0.0898 -416.1621)">
		<stop  offset="0" style="stop-color:#33438A"/>
		<stop  offset="1" style="stop-color:#0098DF"/>
	</linearGradient>
	<polygon fill="url(#SVGID_2_)" points="364.131,0 364.131,6.986 274.038,6.986 274.038,97.762 176.62,97.762 176.62,90.777 
		266.713,90.777 266.713,0 	"/>
	
		<linearGradient id="SVGID_3_" gradientUnits="userSpaceOnUse" x1="88.3994" y1="416.1619" x2="88.3994" y2="513.9246" gradientTransform="matrix(1 0 0 1 -0.0898 -416.1621)">
		<stop  offset="0" style="stop-color:#33438A"/>
		<stop  offset="1" style="stop-color:#0098DF"/>
	</linearGradient>
	<polygon fill="url(#SVGID_3_)" points="6.986,97.762 6.986,52.375 176.62,52.375 176.62,0 0,0 0,6.873 169.639,6.986 
		169.639,45.387 0,45.387 0,97.762 	"/>
	<path id="path788" fill="#1F1A17" d="M143.989,131.765v34.387h5.37v-31.087h4.972c0,0,3.604-0.015,4.842,1.604
		c1.046,1.375,1.238,3.858,1.238,5.541c0,1.803-0.11,4.575-0.717,5.594c-0.915,1.551-2.41,1.859-3.791,1.859h-3.28v3.048h4.712
		c0,0,4.255,0.188,6.09-1.676c2.243-2.29,2.81-5.348,2.81-9.446c0-3.736-1.35-7.494-4.116-8.763
		c-2.288-1.063-6.414-1.063-6.414-1.063L143.989,131.765L143.989,131.765z"/>
	<polygon id="polygon790" fill="#1F1A17" points="170.451,166.152 175.831,166.152 175.831,131.765 170.451,131.765 	"/>
	<polygon id="polygon792" fill="#1F1A17" points="204.365,139.775 214.186,165.518 208.55,179.318 213.005,179.318 229.233,139.775 
		224.262,139.775 217.191,159.049 210.608,139.775 	"/>
	<path id="path794" fill="#1F1A17" d="M233.277,165.93v-3.242c0,0,5.674,0.221,6.853,0.221c2.623,0,3.927-0.563,4.909-1.609
		c0.583-0.627,1.111-3.439,1.111-4.433c0-1.008-0.187-3.164-0.579-4.039c-0.404-0.868-1.316-1.675-2.692-1.786
		c-0.973-0.09-2.494-0.277-4.253-0.364c-2.478-0.113-4.115-1.414-4.91-2.336c-0.776-0.938-1.827-2.321-1.827-6.629
		c0-4.286,1.11-6.683,2.219-7.805c1.118-1.121,2.753-1.612,3.999-1.829c1.432-0.254,3.791-0.271,3.791-0.271l7.516,0.225v3.245
		c0,0-5.484-0.211-6.661-0.211c-2.623,0-3.408,0.552-4.39,1.604c-0.574,0.634-1.027,2.363-1.027,3.368c0,0.988,0.117,3,0.506,3.868
		c0.392,0.875,1.312,1.676,2.679,1.799c0.975,0.073,2.495,0.271,4.256,0.357c2.49,0.124,4.124,1.407,4.908,2.344
		c0.784,0.935,1.836,2.898,1.836,7.187s-1.118,7.354-2.229,8.458c-1.11,1.133-2.74,1.626-3.99,1.841
		c-1.44,0.261-3.798,0.261-3.798,0.261L233.277,165.93L233.277,165.93z"/>
	<path id="path796" fill="#1F1A17" d="M262.552,135.065h-5.361v25.23c0,0,0.129,2.3,0.257,3.104c0.135,0.813,1.315,2.75,4.388,2.75
		l5.561-0.12v-3.237c0,0-1.514,0.113-2.418,0.113c-0.921,0-2.041-0.067-2.229-1.629c-0.199-1.543-0.199-3.408-0.199-3.408v-14.857
		h6.056v-3.236h-6.056L262.552,135.065L262.552,135.065z"/>
	<polygon id="polygon798" fill="#1F1A17" points="314.328,166.152 319.696,166.152 319.696,139.775 314.328,139.775 	"/>
	<polygon id="polygon800" fill="#1F1A17" points="314.328,136.551 319.696,136.551 319.696,131.765 314.328,131.765 	"/>
	<path id="path802" fill="#1F1A17" d="M336.653,139.557c3.65,0,6.482,0.821,8.005,2.052c1.535,1.236,3.418,3.829,3.418,11.353
		c0,7.524-1.883,10.114-3.418,11.363c-1.522,1.229-4.354,2.049-8.005,2.049c-3.658,0-6.482-0.82-8.01-2.049
		c-1.527-1.249-3.414-3.839-3.414-11.363c0-7.521,1.887-10.114,3.414-11.353C330.17,140.38,332.995,139.557,336.653,139.557z
		 M332.981,144.615c-0.741,0.905-1.637,2.824-1.637,8.346c0,5.538,0.896,7.44,1.637,8.345c0.729,0.901,2.083,1.515,3.838,1.515
		c1.764,0,3.111-0.611,3.859-1.515c0.733-0.902,1.636-2.807,1.636-8.345c0-5.521-0.901-7.438-1.636-8.346
		c-0.748-0.901-2.097-1.501-3.859-1.501C335.064,143.114,333.709,143.714,332.981,144.615z"/>
	<path id="path804" fill="#1F1A17" d="M359.197,143.49l5.255-0.225c1.385,0,2.997,0.373,3.778,1.361
		c0.737,0.941,1.198,2.056,1.198,3.858v17.626h5.371v-18.065c0-3.419-1.049-5.396-2.627-6.644c-2.254-1.789-6.279-1.629-6.279-1.629
		l-12.03,0.229v26.106h5.334V143.49L359.197,143.49z"/>
	<path id="path806" fill="#1F1A17" d="M303.66,135.065h-5.374v25.23c0,0,0.127,2.3,0.26,3.104c0.131,0.813,1.303,2.75,4.381,2.75
		l5.566-0.12v-3.237c0,0-1.509,0.113-2.424,0.113c-0.907,0-2.029-0.067-2.223-1.629c-0.188-1.543-0.188-3.408-0.188-3.408v-14.857
		h6.042v-3.236h-6.041V135.065L303.66,135.065z"/>
	<path id="path808" fill="#1F1A17" d="M196.182,148.487c0-1.803-0.46-2.917-1.194-3.858c-0.787-0.988-2.407-1.359-3.784-1.359
		l-7.079,0.223v-3.486l8.522-0.229c0,0,4.03-0.16,6.284,1.629c1.565,1.245,2.621,3.225,2.621,6.644v17.813l-10.288,0.221
		c0,0-4.662,0.023-7.001-0.935c-2.29-0.93-3.537-3.485-3.537-7.021c0-3.415,1.052-5.411,2.622-6.659
		c2.255-1.783,6.275-1.61,6.275-1.61h3.288v3.048h-1.844c-1.375,0-2.795,0.253-3.577,1.236c-0.744,0.944-1.136,1.749-1.136,3.55
		c0,2.362,0.46,3.422,1.572,4.227c0.981,0.714,2.741,0.87,4.71,0.87l3.546-0.22V148.487L196.182,148.487z"/>
	<path id="path810" fill="#1F1A17" d="M286.663,148.487c0-1.803-0.453-2.917-1.188-3.858c-0.793-0.988-2.409-1.359-3.782-1.359
		l-7.072,0.223v-3.486l8.505-0.229c0,0,4.032-0.16,6.285,1.629c1.571,1.245,2.614,3.225,2.614,6.644v17.813l-10.272,0.221
		c0,0-4.664,0.023-7.013-0.935c-2.28-0.93-3.534-3.485-3.534-7.021c0-3.415,1.058-5.411,2.619-6.659
		c2.257-1.783,6.288-1.61,6.288-1.61h3.278v3.048h-1.843c-1.367,0-2.801,0.253-3.58,1.236c-0.734,0.944-1.135,1.749-1.135,3.55
		c0,2.362,0.471,3.422,1.572,4.227c0.981,0.714,2.749,0.87,4.713,0.87l3.545-0.22V148.487L286.663,148.487z"/>
	<path id="path816" fill="#1F1A17" d="M422.934,136.211c0.068,3.962-0.125,6.048-1.457,8.031c-1.174,1.742-3.498,3.331-8.635,3.331
		l-6.373-0.189c-1.008,0.019-3.607,0.313-4.84,1.632c-1.055,1.14-1.138,1.993-1.244,5.026v8.896h21.66v4.357h-23.678l-1.138-0.007
		c-1.609,0-3.191-1.092-3.191-3.277v-6.636c0.113-7.752,0.667-8.863,2.351-10.897c1.168-1.405,3.912-2.979,7.24-3.146
		c0.656-0.029,1.885-0.113,3.614-0.066c1.259,0.056,2.519,0.092,3.071,0.102c2.951,0.03,4.025-0.514,4.833-1.571
		c0.921-1.188,1.416-2.595,1.416-4.896c0-2.156-0.44-4.188-1.263-5.131c-0.994-1.093-1.948-1.822-4.717-1.822
		c-7.007-0.019-15.182,0.167-15.182,0.167v-4.116c0,0,7.99-0.34,16.139-0.46c5.074-0.087,7.872,1.262,9.295,3.118
		C422.338,130.589,422.867,132.418,422.934,136.211L422.934,136.211z"/>
</g>
</svg>
