<?xml version="1.0" encoding="utf-8"?>
<!-- Generator: Adobe Illustrator 16.0.3, SVG Export Plug-In . SVG Version: 6.00 Build 0)  -->
<!DOCTYPE svg PUBLIC "-//W3C//DTD SVG 1.1//EN" "http://www.w3.org/Graphics/SVG/1.1/DTD/svg11.dtd">
<svg version="1.1"
	 id="Ebene_1" xmlns:dc="http://purl.org/dc/elements/1.1/" xmlns:rdf="http://www.w3.org/1999/02/22-rdf-syntax-ns#" xmlns:cc="http://creativecommons.org/ns#"
	 xmlns="http://www.w3.org/2000/svg" xmlns:xlink="http://www.w3.org/1999/xlink" x="0px" y="0px" width="566.929px"
	 height="202.382px" viewBox="0 -0.002 566.929 202.382" enable-background="new 0 -0.002 566.929 202.382" xml:space="preserve">
<g>
	<path fill="#17569B" d="M126.595,99.044h39.796c16.265,0,29.501-13.238,29.501-29.5c0-16.261-13.236-29.42-29.501-29.42h-10.376
		c-0.817,0-1.474-0.652-1.474-1.471c0-0.898,0.654-1.551,1.474-1.551h39.716l0.082-12.423h-39.798
		c-7.683,0-13.894,6.212-13.894,13.894c0,7.764,6.209,14.056,13.894,14.056h10.376c9.316,0,16.918,7.602,16.918,16.917
		c0,9.317-7.602,16.834-16.918,16.834h-39.796V99.044L126.595,99.044z"/>
	<path fill="#17569B" d="M126.595,83.518h39.796c7.765,0,13.977-6.292,13.977-13.974s-6.211-13.974-13.977-13.974h-10.376
		c-9.315,0-16.835-7.682-16.835-16.998c0-9.317,7.521-16.834,16.835-16.834h39.796l-0.082-12.585h-39.718
		c-16.261,0-29.418,13.156-29.418,29.5c0,16.262,13.156,29.42,29.418,29.42h10.297c0.816,0,1.472,0.654,1.472,1.471
		s-0.655,1.471-1.472,1.471h-39.716L126.595,83.518L126.595,83.518z"/>
	<path fill="#17569B" d="M226.701,86.459c-6.862,0-12.5-5.475-12.5-12.503V33.994c0-6.7,5.639-12.339,12.5-12.339h42.495V9.153
		h-42.495c-13.809,0-25.005,11.196-25.005,25.007v39.796c0,13.812,11.194,25.008,25.005,25.008h42.333V86.461L226.701,86.459
		L226.701,86.459z"/>
	<path fill="#17569B" d="M217.222,34.158c0-5.23,4.249-9.562,9.479-9.562h42.495V37.1h-36.609c-2.944,0-2.944,2.94-2.944,2.94
		h30.563v12.504h-42.984V34.158L217.222,34.158z"/>
	<path fill="#17569B" d="M226.701,83.438c-5.229,0-9.479-4.25-9.479-9.48v-18.39h42.983V68.07h-30.562
		c0,2.942,2.941,2.942,2.941,2.942h36.447v12.423L226.701,83.438L226.701,83.438z"/>
	<path fill="#17569B" d="M299.024,86.459c-6.946,0-12.586-5.64-12.586-12.503V34.16c0-6.866,5.642-12.505,12.506-12.505h41.188
		V9.153h-41.271c-13.811,0-25.005,11.196-25.005,25.007v39.796c0,13.812,11.274,25.008,25.088,25.008h41.188v-58.92h-35.387v12.502
		h22.883V86.46L299.024,86.459L299.024,86.459z"/>
	<path fill="#17569B" d="M289.378,73.956c0,5.23,4.334,9.563,9.563,9.563h25.741V55.488h-19.938v12.585h7.437v2.942h-7.353
		c-1.637,0-2.943-1.387-2.943-2.942V40.042c0,0,0-2.943,2.943-2.943h35.301V24.595h-41.187c-5.229,0-9.563,4.332-9.563,9.563
		L289.378,73.956L289.378,73.956z"/>
	<path fill="#17569B" d="M378.783,24.436c0.57-1.634,2.043-2.778,3.842-2.778c1.797,0,3.271,1.146,3.844,2.778l19.938,59.166
		h-29.171V69.708h9.808l-4.414-13.159l-14.385,42.414h-14.709L378.783,24.436L378.783,24.436z"/>
	<path fill="#17569B" d="M410.492,86.459h-33.261v12.503h50.585L401.503,20.92c-2.291-7.6-9.891-13.239-18.881-13.239
		c-8.986,0-16.586,5.558-18.877,13.239l-26.563,78.042h13.241l25.738-75.917c1.063-2.534,3.514-4.25,6.455-4.25
		c2.862,0,5.316,1.716,6.377,4.25L410.492,86.459L410.492,86.459z"/>
	<path fill="#17569B" d="M420.46,19.531c2.613,0,5.066-0.982,6.863-2.862c1.879-1.878,2.855-4.33,2.855-6.945
		c0-2.616-0.979-5.065-2.855-6.866c-1.797-1.878-4.25-2.86-6.863-2.86c-5.394,0-9.81,4.332-9.81,9.726
		c0,2.615,1.063,5.065,2.856,6.945C415.393,18.551,417.843,19.531,420.46,19.531z M412.041,9.725c0-2.207,0.903-4.332,2.455-5.967
		c1.549-1.552,3.676-2.452,5.965-2.452c2.207,0,4.332,0.898,5.969,2.452c1.553,1.635,2.451,3.759,2.451,5.967
		c0,4.656-3.76,8.417-8.416,8.417c-2.289,0-4.418-0.818-5.967-2.452C412.944,14.136,412.041,12.013,412.041,9.725z"/>
	<path fill="#17569B" d="M417.925,10.541v4.656h-1.391V4.329h4.01c1.467,0,2.363,0,3.268,0.653c0.734,0.572,1.145,1.472,1.145,2.535
		c0,2.533-2.043,2.86-2.613,2.943l3.021,4.738h-1.717l-2.941-4.656L417.925,10.541L417.925,10.541z M417.925,9.397h2.859
		c0.49,0,0.895,0,1.309-0.164c1.063-0.245,1.391-0.98,1.391-1.716c0-0.247-0.082-1.063-0.654-1.554
		c-0.57-0.489-1.307-0.409-2.125-0.409h-2.779V9.397L417.925,9.397z"/>
	<g id="g6708" transform="translate(-67.069808,39.506873)">
		<g id="flowRoot6696" transform="translate(0,952.36218)">
			<path id="path6717" fill="#FF0000" d="M153.646-811.351h-30.878v-3.498c1.118-0.029,2.554-0.146,4.31-0.347
				c1.758-0.194,2.963-0.472,3.621-0.838c1.019-0.62,1.767-1.333,2.241-2.142c0.477-0.805,0.713-1.813,0.713-3.029v-50.821h-0.738
				l-23.836,59.54h-2.461l-22.704-60.77h-0.64v41.712c0,4.036,0.255,7.108,0.763,9.208c0.51,2.102,1.289,3.611,2.341,4.527
				c0.723,0.688,2.214,1.352,4.479,1.976s3.744,0.953,4.433,0.981v3.496H67.07v-3.496c1.479-0.129,3.028-0.375,4.653-0.735
				c1.625-0.361,2.88-0.901,3.768-1.625c1.15-0.915,1.938-2.33,2.364-4.236c0.429-1.899,0.64-5.088,0.64-9.554v-35.756
				c0-2.067-0.245-3.757-0.738-5.069c-0.491-1.312-1.198-2.379-2.117-3.201c-1.018-0.887-2.265-1.542-3.743-1.972
				c-1.478-0.424-2.938-0.668-4.382-0.738v-3.495h23.836l19.993,52.399l17.091-43.831c0.623-1.604,1.157-3.288,1.601-5.048
				c0.443-1.757,0.683-2.932,0.714-3.521h22.801v3.496c-0.919,0.034-2.094,0.183-3.521,0.444c-1.428,0.266-2.471,0.512-3.127,0.737
				c-1.115,0.393-1.872,1.055-2.267,1.972c-0.395,0.919-0.591,1.919-0.591,3.003v50.379c0,1.15,0.196,2.117,0.591,2.906
				c0.395,0.785,1.149,1.479,2.267,2.064c0.592,0.334,1.643,0.637,3.153,0.914c1.509,0.275,2.708,0.437,3.594,0.465v3.5h-0.004
				V-811.351z"/>
			<path id="path6719" fill="#FF0000" d="M197.354-812.24c-1.542,0.563-2.895,1.01-4.062,1.356
				c-1.167,0.345-2.487,0.516-3.965,0.516c-2.563,0-4.604-0.596-6.132-1.796c-1.526-1.197-2.503-2.943-2.93-5.244h-0.296
				c-2.134,2.361-4.424,4.172-6.871,5.416c-2.446,1.252-5.393,1.871-8.84,1.871c-3.645,0-6.64-1.109-8.987-3.35
				c-2.348-2.229-3.52-5.151-3.52-8.765c0-1.872,0.262-3.549,0.788-5.024c0.526-1.479,1.314-2.807,2.363-3.988
				c0.822-0.98,1.905-1.857,3.25-2.634c1.348-0.769,2.61-1.382,3.792-1.847c1.48-0.557,4.475-1.593,8.988-3.104
				c4.515-1.505,7.559-2.687,9.135-3.544v-4.874c0-0.427-0.089-1.248-0.271-2.462c-0.182-1.214-0.566-2.365-1.158-3.449
				c-0.657-1.21-1.583-2.271-2.783-3.175c-1.197-0.9-2.896-1.354-5.096-1.354c-1.512,0-2.914,0.255-4.211,0.762
				c-1.297,0.514-2.208,1.044-2.732,1.602c0,0.66,0.156,1.625,0.468,2.905c0.313,1.278,0.468,2.462,0.468,3.545
				c0,1.15-0.518,2.2-1.553,3.15c-1.033,0.959-2.47,1.428-4.308,1.428c-1.641,0-2.848-0.578-3.621-1.747
				c-0.77-1.161-1.156-2.468-1.156-3.915c0-1.509,0.533-2.955,1.601-4.335c1.067-1.378,2.454-2.608,4.163-3.691
				c1.478-0.915,3.267-1.701,5.367-2.34c2.103-0.642,4.153-0.961,6.156-0.961c2.758,0,5.161,0.19,7.215,0.565
				c2.053,0.381,3.915,1.191,5.59,2.439c1.673,1.217,2.946,2.866,3.816,4.948c0.87,2.088,1.305,4.77,1.305,8.053
				c0,4.695-0.051,8.857-0.147,12.482c-0.1,3.63-0.146,7.595-0.146,11.896c0,1.279,0.221,2.3,0.664,3.056
				c0.443,0.758,1.125,1.396,2.045,1.918c0.492,0.298,1.271,0.461,2.34,0.492c1.066,0.034,2.157,0.053,3.273,0.053v3.146H197.354z
				 M180.168-838.243c-2.792,0.823-5.236,1.623-7.338,2.413c-2.103,0.787-4.055,1.771-5.859,2.955
				c-1.643,1.117-2.939,2.438-3.893,3.962c-0.949,1.526-1.428,3.347-1.428,5.442c0,2.729,0.714,4.728,2.143,6.009
				c1.429,1.278,3.24,1.921,5.441,1.921c2.331,0,4.383-0.568,6.156-1.7c1.772-1.134,3.268-2.466,4.481-4.015L180.168-838.243z"/>
			<path id="path6721" fill="#FF0000" d="M223.777-835.139c1.346,1.182,2.381,2.546,3.104,4.084
				c0.723,1.547,1.083,3.435,1.083,5.664c0,4.502-1.685,8.177-5.046,11.033c-3.366,2.854-7.727,4.285-13.076,4.285
				c-2.825,0-5.427-0.512-7.807-1.529c-2.382-1.017-4.081-1.95-5.098-2.807l-0.984,3.202h-3.693l-0.492-16.896h3.397
				c0.263,1.279,0.82,2.778,1.674,4.479c0.854,1.708,1.888,3.249,3.104,4.629c1.28,1.448,2.814,2.66,4.604,3.646
				c1.789,0.982,3.801,1.48,6.033,1.48c3.151,0,5.582-0.715,7.29-2.146c1.706-1.426,2.562-3.471,2.562-6.133
				c0-1.379-0.27-2.563-0.813-3.566c-0.542-1-1.339-1.876-2.389-2.637c-1.083-0.756-2.413-1.433-3.989-2.043
				c-1.576-0.606-3.332-1.207-5.27-1.799c-1.545-0.459-3.259-1.088-5.146-1.896c-1.889-0.806-3.505-1.752-4.852-2.833
				c-1.444-1.146-2.626-2.563-3.546-4.235c-0.919-1.673-1.38-3.644-1.38-5.909c0-3.973,1.479-7.336,4.433-10.097
				c2.956-2.758,6.912-4.138,11.87-4.138c1.901,0,3.849,0.246,5.836,0.735c1.984,0.497,3.602,1.085,4.851,1.773l1.133-2.56h3.545
				l0.738,15.608h-3.397c-0.689-3.479-2.176-6.309-4.458-8.496c-2.283-2.181-5.065-3.273-8.35-3.273
				c-2.69,0-4.811,0.676-6.353,2.021c-1.543,1.351-2.314,2.975-2.314,4.876c0,1.479,0.253,2.709,0.763,3.693
				c0.51,0.986,1.271,1.82,2.291,2.513c0.983,0.659,2.223,1.275,3.718,1.847c1.494,0.574,3.34,1.228,5.542,1.945
				c2.167,0.688,4.211,1.497,6.131,2.412C220.946-837.273,222.528-836.252,223.777-835.139z"/>
			<path id="path6723" fill="#FF0000" d="M254.78-813.473c-2.135,0.889-4.153,1.637-6.058,2.242c-1.904,0.61-4.236,0.91-6.993,0.91
				c-4.072,0-6.937-1.021-8.594-3.076c-1.659-2.051-2.488-4.951-2.488-8.69v-32.896h-8.767v-4.73h8.964v-15.118h8.963v15.118h13.937
				v4.73h-13.838v27.133c0,2.039,0.073,3.738,0.222,5.101c0.147,1.362,0.5,2.558,1.058,3.569c0.525,0.953,1.314,1.676,2.364,2.166
				c1.05,0.492,2.462,0.738,4.234,0.738c0.82,0,2.026-0.074,3.621-0.226c1.593-0.146,2.716-0.332,3.374-0.565L254.78-813.473
				L254.78-813.473z"/>
			<path id="path6725" fill="#FF0000" d="M292.331-822.777c-2.035,3.875-4.76,6.961-8.175,9.258
				c-3.414,2.299-7.338,3.444-11.77,3.444c-3.906,0-7.329-0.688-10.27-2.067c-2.937-1.377-5.358-3.252-7.264-5.613
				c-1.903-2.362-3.324-5.119-4.26-8.271c-0.937-3.154-1.403-6.479-1.403-9.996c0-3.151,0.501-6.246,1.502-9.285
				c1.002-3.032,2.471-5.768,4.408-8.198c1.872-2.327,4.194-4.209,6.968-5.64c2.775-1.429,5.887-2.142,9.334-2.142
				c3.545,0,6.582,0.562,9.109,1.674c2.529,1.118,4.58,2.644,6.156,4.578c1.511,1.844,2.635,4.012,3.374,6.504
				c0.737,2.494,1.108,5.205,1.108,8.123v3.251h-32.157c0,3.188,0.303,6.076,0.909,8.67c0.609,2.595,1.568,4.875,2.882,6.847
				c1.278,1.905,2.953,3.406,5.022,4.506c2.067,1.104,4.53,1.646,7.387,1.646c2.922,0,5.441-0.68,7.559-2.047
				c2.12-1.354,4.163-3.813,6.132-7.357L292.331-822.777z M281.447-841.294c0-1.839-0.155-3.808-0.467-5.909
				c-0.313-2.102-0.813-3.857-1.502-5.271c-0.754-1.507-1.789-2.734-3.104-3.693c-1.312-0.949-3.005-1.427-5.071-1.427
				c-3.449,0-6.313,1.436-8.595,4.311c-2.28,2.873-3.52,6.868-3.717,11.988L281.447-841.294L281.447-841.294z"/>
			<path id="path6727" fill="#FF0000" d="M324.761-853.657c0,1.673-0.411,3.16-1.23,4.457c-0.82,1.3-2.083,1.944-3.79,1.944
				c-1.841,0-3.243-0.477-4.214-1.43c-0.967-0.949-1.452-2.001-1.452-3.149c0-0.723,0.057-1.379,0.172-1.971
				c0.114-0.594,0.221-1.185,0.319-1.773c-1.542,0-3.35,0.623-5.417,1.871c-2.068,1.25-3.824,3.021-5.271,5.317v28.268
				c0,1.154,0.224,2.088,0.666,2.811c0.442,0.725,1.141,1.265,2.092,1.625c0.822,0.33,1.881,0.574,3.176,0.734
				c1.299,0.17,2.422,0.281,3.376,0.348v3.25h-25.61v-3.25c0.756-0.065,1.536-0.127,2.339-0.195
				c0.805-0.063,1.502-0.194,2.094-0.397c0.918-0.295,1.601-0.812,2.043-1.549c0.443-0.738,0.664-1.699,0.664-2.879v-29.992
				c0-1.017-0.238-2.021-0.713-3.004c-0.476-0.986-1.143-1.772-1.996-2.364c-0.622-0.396-1.359-0.678-2.215-0.862
				c-0.854-0.177-1.773-0.3-2.758-0.367v-3.202l16.152-1.084l0.689,0.689v6.846h0.246c2.038-2.661,4.304-4.679,6.797-6.057
				c2.496-1.381,4.777-2.069,6.845-2.069c2.069,0,3.752,0.675,5.049,2.021C324.114-857.726,324.761-855.922,324.761-853.657
				L324.761-853.657z"/>
			<path id="path6729" fill="#FF0000" d="M377.213-843.412c1.476,1.646,2.565,3.441,3.271,5.395
				c0.709,1.955,1.063,4.229,1.063,6.819c0,6.177-2.286,11.267-6.848,15.269c-4.563,4.008-10.226,6.006-16.989,6.006
				c-3.12,0-6.236-0.479-9.356-1.45c-3.119-0.966-5.812-2.144-8.077-3.521l-2.117,3.597h-3.938l-0.689-23.935h3.988
				c0.821,2.953,1.782,5.625,2.882,8.002c1.102,2.385,2.554,4.604,4.359,6.674c1.707,1.939,3.701,3.48,5.981,4.629
				c2.283,1.151,4.934,1.723,7.951,1.723c2.267,0,4.242-0.294,5.936-0.886c1.691-0.593,3.064-1.433,4.112-2.513
				c1.05-1.084,1.827-2.354,2.34-3.815c0.511-1.458,0.765-3.144,0.765-5.05c0-2.784-0.787-5.392-2.361-7.807
				c-1.575-2.414-3.922-4.242-7.045-5.49c-2.135-0.854-4.58-1.799-7.338-2.832c-2.756-1.033-5.138-2.01-7.14-2.933
				c-3.938-1.771-7.002-4.094-9.186-6.968c-2.184-2.871-3.273-6.626-3.273-11.256c0-2.655,0.542-5.135,1.624-7.436
				c1.084-2.296,2.625-4.352,4.629-6.156c1.904-1.704,4.154-3.045,6.747-4.014c2.593-0.968,5.304-1.452,8.125-1.452
				c3.218,0,6.099,0.49,8.644,1.479c2.543,0.982,4.869,2.136,6.967,3.443l2.021-3.349h3.94l0.396,23.195h-3.988
				c-0.719-2.659-1.533-5.199-2.438-7.636c-0.901-2.427-2.073-4.629-3.521-6.598c-1.41-1.901-3.135-3.426-5.168-4.559
				c-2.037-1.13-4.533-1.699-7.485-1.699c-3.117,0-5.778,1.005-7.979,3.003c-2.2,2.008-3.3,4.452-3.3,7.338
				c0,3.023,0.705,5.525,2.118,7.512c1.411,1.987,3.465,3.619,6.155,4.898c2.397,1.15,4.751,2.142,7.063,2.976
				c2.315,0.84,4.557,1.737,6.723,2.687c1.973,0.854,3.865,1.823,5.688,2.908C374.28-846.12,375.864-844.857,377.213-843.412
				L377.213-843.412z"/>
			<path id="path6731" fill="#FF0000" d="M374.825-795.494c0-1.641,0.447-2.979,1.354-4.016c0.9-1.035,2.023-1.551,3.373-1.551
				c1.049,0,1.951,0.192,2.709,0.592c0.754,0.396,1.428,0.906,2.02,1.524c0.492,0.49,1.021,1.167,1.576,2.019
				c0.559,0.857,1.002,1.564,1.328,2.119c1.645-0.887,3.604-3.203,5.889-6.942c2.277-3.745,3.936-7.022,4.947-9.853
				c-3.123-7.778-5.941-14.737-8.471-20.881c-2.529-6.139-5.172-12.49-7.928-19.061c-0.623-1.506-1.676-2.685-3.152-3.522
				c-1.477-0.838-2.955-1.369-4.434-1.602v-3.25H396.2v3.447c-0.988,0.034-2.168,0.241-3.547,0.615
				c-1.379,0.38-2.068,0.813-2.068,1.305c0,0.196,0.073,0.527,0.223,0.985c0.147,0.461,0.317,0.938,0.519,1.427
				c1.247,3.251,3.147,7.941,5.712,14.062c2.564,6.128,4.548,11.023,5.958,14.702c1.479-3.515,3.015-7.147,4.604-10.907
				c1.594-3.76,3.379-8.199,5.346-13.322c0.23-0.621,0.563-1.481,0.982-2.583c0.426-1.101,0.643-2.045,0.643-2.832
				c0-0.852-0.744-1.65-2.24-2.39c-1.496-0.736-2.913-1.19-4.262-1.356v-3.151h18.025v3.057c-0.986,0.167-2.287,0.731-3.892,1.697
				c-1.61,0.972-2.81,2.341-3.597,4.112c-3.908,9.063-7.385,17.319-10.416,24.772c-3.039,7.454-5.344,12.937-6.918,16.446
				c-2.07,4.603-3.916,8.185-5.541,10.763c-1.625,2.58-3.213,4.604-4.754,6.08c-1.512,1.381-2.881,2.311-4.109,2.785
				s-2.508,0.714-3.813,0.714c-2.563,0-4.574-0.606-6.035-1.819C375.554-792.519,374.825-793.919,374.825-795.494L374.825-795.494z"
				/>
			<path id="path6733" fill="#FF0000" d="M449.757-835.139c1.342,1.182,2.379,2.546,3.102,4.084
				c0.723,1.547,1.082,3.435,1.082,5.664c0,4.502-1.684,8.177-5.045,11.033c-3.369,2.854-7.726,4.285-13.078,4.285
				c-2.82,0-5.428-0.512-7.803-1.529c-2.384-1.017-4.082-1.95-5.1-2.807l-0.986,3.202h-3.693l-0.491-16.896h3.397
				c0.26,1.279,0.817,2.778,1.676,4.479c0.854,1.708,1.886,3.249,3.104,4.629c1.278,1.448,2.812,2.66,4.604,3.646
				c1.787,0.982,3.798,1.48,6.031,1.48c3.15,0,5.582-0.715,7.289-2.146c1.703-1.426,2.561-3.471,2.561-6.133
				c0-1.379-0.271-2.563-0.813-3.566c-0.543-1-1.34-1.876-2.392-2.637c-1.08-0.756-2.411-1.433-3.985-2.043
				c-1.576-0.606-3.334-1.207-5.272-1.799c-1.546-0.459-3.261-1.088-5.146-1.896c-1.892-0.806-3.504-1.752-4.851-2.833
				c-1.442-1.146-2.629-2.563-3.548-4.235c-0.922-1.673-1.379-3.644-1.379-5.909c0-3.973,1.48-7.336,4.436-10.097
				c2.956-2.758,6.906-4.138,11.867-4.138c1.902,0,3.852,0.246,5.834,0.735c1.984,0.497,3.605,1.085,4.854,1.773l1.135-2.56h3.543
				l0.738,15.608h-3.397c-0.688-3.479-2.177-6.309-4.452-8.496c-2.287-2.181-5.064-3.273-8.352-3.273
				c-2.692,0-4.813,0.676-6.354,2.021c-1.544,1.351-2.313,2.975-2.313,4.876c0,1.479,0.252,2.709,0.763,3.693
				c0.51,0.986,1.272,1.82,2.29,2.513c0.986,0.659,2.229,1.275,3.722,1.847c1.488,0.574,3.339,1.228,5.539,1.945
				c2.171,0.688,4.212,1.497,6.134,2.412C446.922-837.273,448.507-836.252,449.757-835.139L449.757-835.139z"/>
			<path id="path6735" fill="#FF0000" d="M480.756-813.473c-2.132,0.889-4.151,1.637-6.06,2.242c-1.901,0.61-4.23,0.91-6.989,0.91
				c-4.071,0-6.937-1.021-8.595-3.076c-1.658-2.051-2.487-4.951-2.487-8.69v-32.896h-8.765v-4.73h8.959v-15.118h8.966v15.118h13.937
				v4.73h-13.84v27.133c0,2.039,0.075,3.738,0.223,5.101s0.502,2.558,1.064,3.569c0.521,0.953,1.313,1.676,2.357,2.166
				c1.051,0.492,2.463,0.738,4.234,0.738c0.821,0,2.027-0.074,3.62-0.226c1.593-0.146,2.718-0.332,3.374-0.565L480.756-813.473
				L480.756-813.473z"/>
			<path id="path6737" fill="#FF0000" d="M518.308-822.777c-2.033,3.875-4.76,6.961-8.176,9.258
				c-3.414,2.299-7.338,3.444-11.771,3.444c-3.898,0-7.326-0.688-10.266-2.067c-2.938-1.377-5.357-3.252-7.268-5.613
				c-1.9-2.362-3.324-5.119-4.26-8.271c-0.938-3.154-1.401-6.479-1.401-9.996c0-3.151,0.504-6.246,1.501-9.285
				c1.001-3.032,2.473-5.768,4.408-8.198c1.869-2.327,4.193-4.209,6.968-5.64c2.772-1.429,5.886-2.142,9.329-2.142
				c3.549,0,6.584,0.562,9.111,1.674c2.529,1.118,4.58,2.644,6.156,4.578c1.512,1.844,2.635,4.012,3.375,6.504
				c0.734,2.494,1.104,5.205,1.104,8.123v3.251h-32.154c0,3.188,0.305,6.076,0.91,8.67c0.604,2.595,1.564,4.875,2.883,6.847
				c1.275,1.905,2.957,3.406,5.02,4.506c2.066,1.104,4.527,1.646,7.389,1.646c2.924,0,5.439-0.68,7.561-2.047
				c2.117-1.354,4.162-3.813,6.135-7.357L518.308-822.777z M507.423-841.294c0-1.839-0.154-3.808-0.467-5.909
				c-0.309-2.102-0.813-3.857-1.502-5.271c-0.752-1.507-1.785-2.734-3.102-3.693c-1.316-0.949-3.006-1.427-5.074-1.427
				c-3.445,0-6.313,1.436-8.594,4.311c-2.279,2.873-3.521,6.868-3.718,11.988L507.423-841.294L507.423-841.294z"/>
			<path id="path6739" fill="#FF0000" d="M596.737-811.351h-23.689v-3.254c0.756-0.063,1.52-0.127,2.291-0.193
				c0.77-0.064,1.449-0.196,2.041-0.396c0.918-0.297,1.602-0.813,2.045-1.551c0.445-0.736,0.666-1.7,0.666-2.879v-25.068
				c0-3.412-0.781-6.048-2.342-7.903c-1.561-1.854-3.502-2.782-5.832-2.782c-1.609,0-3.121,0.243-4.531,0.736
				c-1.412,0.491-2.709,1.18-3.889,2.068c-0.957,0.726-1.752,1.501-2.395,2.339c-0.639,0.838-1.123,1.538-1.453,2.092v28.021
				c0,1.154,0.199,2.096,0.594,2.834c0.396,0.736,1.064,1.307,2.02,1.699c0.756,0.296,1.438,0.518,2.045,0.665
				c0.605,0.146,1.402,0.256,2.387,0.319v3.25h-23.189v-3.25c0.756-0.063,1.479-0.129,2.188-0.195
				c0.703-0.063,1.355-0.195,1.941-0.398c0.922-0.295,1.602-0.813,2.045-1.55c0.445-0.737,0.67-1.698,0.67-2.882v-25.066
				c0-3.412-0.783-6.047-2.346-7.903c-1.557-1.854-3.504-2.783-5.83-2.783c-1.609,0-3.123,0.256-4.533,0.766
				c-1.412,0.515-2.709,1.208-3.891,2.094c-0.951,0.724-1.756,1.536-2.412,2.437c-0.656,0.908-1.148,1.586-1.48,2.044v27.825
				c0,1.117,0.232,2.055,0.691,2.807c0.459,0.76,1.146,1.331,2.063,1.727c0.689,0.33,1.398,0.572,2.117,0.735
				c0.729,0.167,1.527,0.281,2.414,0.347v3.252H513.55v-3.252c0.756-0.063,1.535-0.127,2.344-0.195
				c0.801-0.061,1.496-0.194,2.092-0.396c0.918-0.295,1.602-0.813,2.041-1.552c0.443-0.735,0.664-1.696,0.664-2.88v-30.188
				c0-1.048-0.232-1.994-0.713-2.83c-0.477-0.84-1.141-1.555-1.992-2.146c-0.625-0.396-1.395-0.715-2.313-0.959
				c-0.92-0.248-1.871-0.399-2.857-0.471v-3.199l16.254-1.083l0.688,0.688v6.943h0.346c0.82-0.816,1.822-1.79,3.004-2.906
				c1.186-1.111,2.283-2.021,3.301-2.707c1.148-0.786,2.588-1.441,4.314-1.971c1.721-0.521,3.586-0.788,5.588-0.788
				c3.15,0,5.857,0.847,8.125,2.535c2.27,1.693,3.895,3.737,4.875,6.133c1.184-1.146,2.227-2.156,3.129-3.028
				c0.902-0.868,2.094-1.796,3.57-2.782c1.25-0.854,2.715-1.543,4.408-2.069c1.688-0.521,3.566-0.788,5.639-0.788
				c4.104,0,7.354,1.352,9.754,4.037c2.393,2.694,3.592,6.834,3.592,12.415v24.671c0,1.151,0.195,2.092,0.596,2.832
				c0.395,0.735,1.064,1.31,2.02,1.698c0.756,0.296,1.5,0.518,2.238,0.667c0.74,0.145,1.566,0.254,2.488,0.317v3.252h-0.006
				V-811.351z"/>
		</g>
		<g id="text6704" transform="scale(1.0267638,0.97393384)">
			<path id="path6742" fill="#FF0000" d="M617.473,107.038h-6.346v-0.956c0.192,0,0.472-0.028,0.835-0.05
				c0.36-0.028,0.597-0.072,0.721-0.133c0.2-0.131,0.333-0.246,0.403-0.329c0.072-0.086,0.11-0.223,0.11-0.404v-8.27h-0.276
				l-4.474,9.736h-0.594l-4.35-9.924h-0.272v6.679c0,0.644,0.04,1.136,0.12,1.476c0.082,0.334,0.215,0.589,0.415,0.761
				c0.156,0.097,0.428,0.2,0.805,0.301c0.38,0.105,0.711,0.157,0.991,0.157v0.956h-5.781v-0.915
				c0.198-0.034,0.487-0.084,0.871-0.135c0.384-0.056,0.675-0.147,0.871-0.288c0.209-0.152,0.348-0.378,0.422-0.657
				c0.072-0.286,0.108-0.807,0.108-1.576v-6.368c0-0.293-0.046-0.533-0.135-0.732c-0.091-0.199-0.224-0.37-0.396-0.513
				c-0.188-0.145-0.419-0.257-0.69-0.32c-0.272-0.07-0.594-0.114-0.947-0.14v-0.935h5.106l3.869,8.655l3.23-7.096
				c0.133-0.31,0.234-0.597,0.301-0.873c0.068-0.275,0.126-0.502,0.154-0.686h4.919v0.935c-0.205,0-0.477,0.044-0.795,0.09
				c-0.329,0.05-0.554,0.098-0.691,0.145c-0.186,0.035-0.301,0.119-0.346,0.259c-0.049,0.13-0.074,0.268-0.074,0.406v8.877
				c0,0.169,0.027,0.31,0.074,0.411c0.048,0.1,0.164,0.201,0.346,0.285c0.124,0.034,0.339,0.083,0.632,0.13
				c0.302,0.058,0.586,0.09,0.854,0.09v0.956L617.473,107.038L617.473,107.038z M597.661,98.086h-0.881
				c-0.127-0.405-0.369-0.909-0.744-1.519c-0.377-0.602-0.736-0.944-1.098-1.017c-0.261-0.024-0.529-0.04-0.786-0.056
				c-0.259,0-0.472-0.023-0.643-0.023h-0.898v9.611c0,0.17,0.029,0.315,0.086,0.43c0.055,0.116,0.183,0.22,0.375,0.306
				c0.124,0.039,0.348,0.085,0.679,0.154c0.333,0.068,0.637,0.098,0.913,0.098v0.957h-6.471v-0.957c0.243,0,0.546-0.026,0.902-0.062
				c0.356-0.041,0.59-0.08,0.692-0.115c0.186-0.061,0.306-0.159,0.369-0.296c0.061-0.13,0.089-0.268,0.089-0.403v-9.72h-0.9
				c-0.183,0-0.426,0-0.73,0.028c-0.304,0.024-0.538,0.031-0.696,0.044c-0.379,0.059-0.75,0.399-1.111,1.017
				c-0.363,0.62-0.603,1.125-0.727,1.515h-0.881v-3.635h12.456L597.661,98.086L597.661,98.086z"/>
		</g>
	</g>
</g>
</svg>
