<?xml version="1.0" encoding="utf-8"?>
<!-- Generator: Adobe Illustrator 13.0.0, SVG Export Plug-In . SVG Version: 6.00 Build 14948)  -->
<svg version="1.2" baseProfile="tiny"
	 id="svg2" xmlns:rdf="http://www.w3.org/1999/02/22-rdf-syntax-ns#" xmlns:inkscape="http://www.inkscape.org/namespaces/inkscape" xmlns:dc="http://purl.org/dc/elements/1.1/" xmlns:sodipodi="http://sodipodi.sourceforge.net/DTD/sodipodi-0.dtd" xmlns:cc="http://creativecommons.org/ns#" xmlns:svg="http://www.w3.org/2000/svg" inkscape:version="0.47 r22583" sodipodi:docname="MSX-Logo.svg"
	 xmlns="http://www.w3.org/2000/svg" xmlns:xlink="http://www.w3.org/1999/xlink" x="0px" y="0px" width="566.928px"
	 height="234.744px" viewBox="-25.928 -4 566.928 234.744" xml:space="preserve">
<defs>
	
	
		<inkscape:perspective  id="perspective10" inkscape:persp3d-origin="372.04724 : 350.78739 : 1" inkscape:vp_z="744.09448 : 526.18109 : 1" inkscape:vp_x="0 : 526.18109 : 1" sodipodi:type="inkscape:persp3d" inkscape:vp_y="0 : 1000 : 0">
		</inkscape:perspective>
	
		<inkscape:perspective  id="perspective2824" inkscape:persp3d-origin="0.5 : 0.33333333 : 1" inkscape:vp_z="1 : 0.5 : 1" inkscape:vp_x="0 : 0.5 : 1" sodipodi:type="inkscape:persp3d" inkscape:vp_y="0 : 1000 : 0">
		</inkscape:perspective>
</defs>
<sodipodi:namedview  id="base" bordercolor="#666666" inkscape:cx="125.21669" inkscape:zoom="2" inkscape:cy="142.45913" pagecolor="#ffffff" borderopacity="1.0" inkscape:window-x="-4" inkscape:pageshadow="2" inkscape:current-layer="layer1" inkscape:window-width="1280" inkscape:window-y="-4" inkscape:pageopacity="0.0" inkscape:window-height="968" inkscape:window-maximized="1" inkscape:document-units="px" showgrid="false">
	</sodipodi:namedview>
<rect id="rect3604" x="1.536" y="-4" fill="#003E99" width="566.928" height="234.744"/>
<path id="path2830" sodipodi:nodetypes="cccccccccccccccccccccccccccccccccccc" fill="#FFFFFF" d="M38.726,197.467L81.79,27.956
	h39.932l20.749,73.991l21.531-73.991h37.583l35.233,124.883l85.965-0.162c9.023-0.088,9.577-18.748-0.669-18.744l-50.063-0.668
	c-21.497,0.207-44.167-23.05-43.063-54.024c0.229-28.412,25.004-50.786,56.698-50.778l127.69-0.114l32.494,44.238l31.709-44.629
	l52.85,0.392l-57.938,81.428l62.637,88.292l-52.572-0.161l-36.457-50.662l-34.68,50.662l-53.633-0.048l61.072-87.3l-26.623-38.757
	l-110.999,0.162c-12.114,0.111-11.669,19.169,0.095,18.812l46.768,0.716c19.767,0.127,47.604,20.668,46.911,52.736
	c0.301,37.279-33.275,54.312-49.441,53.401l-122.419,0.163l-20.357-76.271l-20.357,76.108h-38.644l-21.255-75.718l-18.677,75.833
	L38.726,197.467z"/>
</svg>
