<?xml version="1.0" encoding="utf-8"?>
<!-- Generator: Adobe Illustrator 13.0.0, SVG Export Plug-In . SVG Version: 6.00 Build 14948)  -->
<!DOCTYPE svg [
	<!ENTITY ns_flows "http://ns.adobe.com/Flows/1.0/">
	<!ENTITY ns_extend "http://ns.adobe.com/Extensibility/1.0/">
	<!ENTITY ns_ai "http://ns.adobe.com/AdobeIllustrator/10.0/">
	<!ENTITY ns_graphs "http://ns.adobe.com/Graphs/1.0/">
	<!ENTITY ns_vars "http://ns.adobe.com/Variables/1.0/">
	<!ENTITY ns_imrep "http://ns.adobe.com/ImageReplacement/1.0/">
	<!ENTITY ns_sfw "http://ns.adobe.com/SaveForWeb/1.0/">
	<!ENTITY ns_custom "http://ns.adobe.com/GenericCustomNamespace/1.0/">
	<!ENTITY ns_adobe_xpath "http://ns.adobe.com/XPath/1.0/">
]>
<svg version="1.2" baseProfile="tiny"
	 id="svg2" xmlns:x="&ns_extend;" xmlns:i="&ns_ai;" xmlns:graph="&ns_graphs;" xmlns:svg="http://www.w3.org/2000/svg"
	 xmlns="http://www.w3.org/2000/svg" xmlns:xlink="http://www.w3.org/1999/xlink" xmlns:a="http://ns.adobe.com/AdobeSVGViewerExtensions/3.0/"
	 x="0px" y="0px" width="665px" height="145px" viewBox="-9.413 -17.166 665 145" xml:space="preserve">
<metadata>
	<sfw  xmlns="&ns_sfw;">
		<slices></slices>
		<sliceSourceBounds  height="134.637" width="573.717" y="503.325" x="629.001" bottomLeftOrigin="true"></sliceSourceBounds>
	</sfw>
</metadata>
<g>
	<path fill="#C1C1C1" d="M102.568,16.236c0-0.467-0.019-0.929-0.047-1.388l2.758-1.292c-0.212-2.007-0.662-3.942-1.317-5.78
		l-3.043,0.033c-0.352-0.863-0.755-1.698-1.208-2.503l1.921-2.358c-1.05-1.688-2.292-3.244-3.699-4.635L95.21-0.341
		c-0.686-0.621-1.414-1.196-2.173-1.729l0.708-2.958c-1.659-1.058-3.449-1.926-5.342-2.577l-1.871,2.397
		c-0.882-0.259-1.786-0.467-2.709-0.617l-0.645-2.969c-0.973-0.114-1.961-0.179-2.965-0.179c-1.004,0-1.993,0.065-2.966,0.18
		l-0.645,2.969c-0.924,0.15-1.828,0.358-2.71,0.618l-1.871-2.398c-1.892,0.65-3.682,1.519-5.34,2.576l0.708,2.958
		c-0.76,0.533-1.487,1.108-2.174,1.729l-2.724-1.348c-1.407,1.391-2.649,2.947-3.699,4.635l1.922,2.358
		c-0.452,0.805-0.856,1.64-1.208,2.503l-3.043-0.033c-0.655,1.838-1.104,3.774-1.316,5.781l2.758,1.292
		c-0.028,0.459-0.047,0.921-0.047,1.387s0.019,0.928,0.047,1.387l-2.758,1.292c0.212,2.007,0.662,3.943,1.316,5.781l3.044-0.032
		c0.351,0.862,0.755,1.697,1.207,2.502l-1.922,2.358c1.05,1.688,2.292,3.245,3.699,4.636l2.725-1.348
		c0.686,0.621,1.414,1.196,2.173,1.729l-0.708,2.958c1.659,1.058,3.449,1.926,5.341,2.576l1.87-2.397
		c0.882,0.26,1.786,0.468,2.709,0.618l0.645,2.968c0.974,0.114,1.962,0.18,2.966,0.18c1.004,0,1.992-0.065,2.965-0.179l0.645-2.968
		c0.923-0.15,1.827-0.358,2.709-0.618l1.871,2.397c1.893-0.65,3.683-1.519,5.342-2.577l-0.708-2.958
		c0.759-0.533,1.487-1.108,2.173-1.729l2.724,1.348c1.407-1.391,2.649-2.947,3.699-4.635l-1.921-2.357
		c0.452-0.805,0.856-1.641,1.208-2.503l3.043,0.032c0.655-1.838,1.104-3.773,1.317-5.78l-2.758-1.292
		C102.549,17.164,102.568,16.702,102.568,16.236z M80.214,23.014c-3.743,0-6.778-3.034-6.778-6.778c0-3.743,3.035-6.777,6.778-6.777
		s6.777,3.034,6.777,6.777C86.991,19.98,83.957,23.014,80.214,23.014z"/>
</g>
<g>
	<path fill="#5B5B5B" d="M122.532,23.174v12.339h-7.05V3.785h24.676c7.051,0,10.576,3.22,10.576,9.659
		c0,3.056-0.505,5.3-1.517,6.731c1.011,1.67,1.517,3.843,1.517,6.521v8.813h-7.051v-8.812c0-2.35-1.176-3.525-3.525-3.525
		L122.532,23.174L122.532,23.174z M122.532,16.123h21.151v-5.288h-21.151V16.123z"/>
	<path fill="#5B5B5B" d="M189.51,35.512h-24.675c-7.051,0-10.576-3.526-10.576-10.576V3.786h35.251v7.05h-28.2v5.288h28.2v7.05
		h-28.2v1.763c0,2.352,1.175,3.524,3.525,3.524h24.675V35.512L189.51,35.512z"/>
	<path fill="#5B5B5B" d="M193.035,3.785h35.251v7.05h-14.1v24.678h-7.051V10.835h-14.1V3.785z"/>
	<path fill="#5B5B5B" d="M238.861,23.174v12.339h-7.05V3.785h24.676c7.051,0,10.576,3.22,10.576,9.659
		c0,3.056-0.505,5.3-1.516,6.731c1.01,1.67,1.516,3.843,1.516,6.521v8.813h-7.05v-8.812c0-2.35-1.176-3.525-3.525-3.525
		L238.861,23.174L238.861,23.174z M238.861,16.123h21.151v-5.288h-21.151V16.123z"/>
	<path fill="#5B5B5B" d="M281.164,35.512c-7.05,0-10.576-3.526-10.576-10.576V14.361c0-7.051,3.525-10.574,10.576-10.574h14.1
		c7.05,0,10.576,3.523,10.576,10.574v10.575c0,7.05-2.938,10.576-8.813,10.576H281.164z M281.164,28.461h14.1
		c2.35,0,3.525-1.174,3.525-3.524V14.362c0-2.351-1.175-3.524-3.525-3.524h-14.1c-2.351,0-3.525,1.175-3.525,3.524v10.575
		C277.639,27.287,278.813,28.461,281.164,28.461z"/>
	<path fill="#5B5B5B" d="M309.365,35.512V3.784h24.676c7.051,0,10.575,3.242,10.575,9.729c0,6.438-3.524,9.658-10.575,9.658h-17.626
		V35.51h-7.05V35.512z M337.566,16.123v-5.288h-21.151v5.288H337.566z"/>
	<path fill="#5B5B5B" d="M348.141,35.512V3.784h7.052v31.728H348.141z"/>
	<path fill="#5B5B5B" d="M393.968,35.512h-24.676c-7.05,0-10.576-3.526-10.576-10.576V3.786h35.252v7.05h-28.202v5.288h28.202v7.05
		h-28.202v1.763c0,2.352,1.178,3.524,3.526,3.524h24.676V35.512L393.968,35.512z"/>
</g>
<g>
	<g>
		<path fill="#D12C00" d="M39.574,123.664c-16.756,0-25.135-8.378-25.135-25.135V73.396c0-16.756,8.378-25.135,25.135-25.135h33.513
			c16.756,0,25.135,8.378,25.135,25.135V98.53c0,16.757-6.983,25.135-20.946,25.135H39.574z M39.574,106.908h33.513
			c5.584,0,8.378-2.793,8.378-8.379V73.396c0-5.585-2.793-8.378-8.378-8.378H39.574c-5.586,0-8.378,2.793-8.378,8.378V98.53
			C31.196,104.115,33.988,106.908,39.574,106.908z"/>
		<path d="M77.275,125.663H39.574v-1.999v-2.001h37.701c6.609-0.024,11.115-1.918,14.173-5.564l0,0
			c3.064-3.657,4.776-9.451,4.774-17.57l0,0L96.22,73.395c-0.006-8.072-2.003-13.744-5.697-17.436l0,0
			c-3.692-3.694-9.366-5.691-17.436-5.699l0,0H39.574c-8.072,0.008-13.744,2.005-17.438,5.699l0,0
			c-3.694,3.692-5.691,9.364-5.697,17.436l0,0v25.134c0.006,8.071,2.003,13.743,5.697,17.438l0,0
			c3.694,3.692,9.366,5.688,17.438,5.697l0,0v2.001v1.999c-8.685,0.008-15.58-2.185-20.265-6.87l0,0
			c-4.686-4.686-6.878-11.578-6.87-20.265l0,0V73.395c-0.008-8.685,2.185-15.58,6.87-20.265l0,0
			c4.685-4.685,11.58-6.876,20.265-6.87l0,0h33.513c8.685-0.006,15.58,2.185,20.265,6.87l0,0c4.685,4.685,6.876,11.58,6.87,20.265
			l0,0v25.134c-0.004,8.637-1.782,15.412-5.701,20.133l0,0c-3.902,4.705-9.827,7.002-17.128,7.002l0,0
			C77.354,125.663,77.314,125.663,77.275,125.663L77.275,125.663z M73.087,108.908H39.574v-2.001v-2.001h33.513
			c2.484-0.006,3.969-0.606,4.869-1.509l0,0c0.9-0.898,1.501-2.383,1.509-4.869l0,0l-0.002-25.134
			c-0.006-2.484-0.607-3.969-1.507-4.869l0,0c-0.9-0.902-2.385-1.501-4.869-1.509l0,0H39.574c-2.486,0.008-3.971,0.607-4.871,1.509
			l0,0c-0.9,0.9-1.501,2.385-1.507,4.869l0,0v25.134c0.006,2.486,0.607,3.971,1.507,4.869l0,0c0.9,0.902,2.385,1.503,4.871,1.511
			l0,0v1.999v1.999c-3.102,0.008-5.805-0.787-7.698-2.679l0,0c-1.893-1.893-2.688-4.6-2.68-7.699l0,0V73.395
			c-0.008-3.099,0.787-5.804,2.68-7.698l0,0c1.894-1.892,4.597-2.687,7.698-2.68l0,0h33.513c3.1-0.006,5.805,0.789,7.696,2.68l0,0
			c1.894,1.894,2.688,4.599,2.68,7.698l0,0v25.134c0.008,3.1-0.787,5.807-2.68,7.699l0,0c-1.884,1.885-4.575,2.681-7.66,2.681l0,0
			C73.111,108.908,73.099,108.908,73.087,108.908L73.087,108.908z"/>
	</g>
	<g>
		<path fill="#D12C00" d="M106.6,123.664V48.261h58.647c16.756,0,25.135,7.708,25.135,23.124c0,15.304-8.378,22.956-25.135,22.956
			h-41.891v29.323H106.6z M173.625,77.585V65.017h-50.269v12.567H173.625z"/>
		<path d="M106.599,125.662v-1.998h2.001h-2.001V125.662h-2.001V46.26h60.65c8.66-0.002,15.499,1.988,20.205,6.31l0,0
			c4.71,4.324,6.942,10.771,6.93,18.815l0,0c0.015,7.987-2.224,14.398-6.936,18.692l0,0c-4.706,4.289-11.539,6.264-20.198,6.264l0,0
			l-39.892-0.003v29.323H106.599L106.599,125.662z M108.6,121.663l12.755-0.002V92.34h43.893c8.096-0.002,13.831-1.853,17.501-5.216
			l0,0c3.667-3.357,5.617-8.425,5.631-15.738l0,0c-0.013-7.376-1.968-12.489-5.637-15.873l0,0
			c-3.673-3.388-9.401-5.251-17.496-5.253l0,0H108.6V121.663L108.6,121.663z M121.356,79.585V63.017h54.267v14.568v2H121.356
			L121.356,79.585z M173.625,77.585v-2.001V77.585L173.625,77.585z M125.354,75.584h46.271l-0.002-8.567h-46.27V75.584
			L125.354,75.584z"/>
	</g>
	<g>
		<path fill="#D12C00" d="M198.76,48.261h83.782v16.756h-33.513v58.647h-16.756V65.017H198.76V48.261z"/>
		<path d="M230.272,125.662V67.016h-33.513V48.261V46.26h87.782v20.756h-33.513v58.646H230.272L230.272,125.662z M200.759,63.017
			h33.513v58.645h12.757V63.017l33.513-0.002V50.26h-79.782V63.017L200.759,63.017z"/>
	</g>
	<g>
		<path fill="#D12C00" d="M290.92,123.664V48.261h16.756v75.403H290.92z"/>
		<path d="M290.92,125.662v-1.998h2h-2V125.662h-2.001V46.26h20.756v79.402H290.92L290.92,125.662z M292.92,121.663l12.755-0.002
			V50.26H292.92V121.663L292.92,121.663z"/>
	</g>
	<g>
		<path fill="#D12C00" d="M341.189,123.664c-16.757,0-25.135-8.378-25.135-25.135V73.396c0-16.756,8.378-25.135,25.135-25.135
			h33.513c16.757,0,25.135,8.378,25.135,25.135V98.53c0,16.757-6.982,25.135-20.945,25.135H341.189z M341.189,106.908h33.513
			c5.585,0,8.378-2.793,8.378-8.379V73.396c0-5.585-2.793-8.378-8.378-8.378h-33.513c-5.586,0-8.378,2.793-8.378,8.378V98.53
			C332.812,104.115,335.604,106.908,341.189,106.908z"/>
		<path d="M378.891,125.663H341.19v-2v-2h37.701c6.608-0.023,11.113-1.918,14.173-5.563l0,0c3.063-3.658,4.776-9.451,4.772-17.57
			l0,0V73.396c-0.009-8.072-2.004-13.745-5.697-17.437l0,0c-3.693-3.695-9.366-5.691-17.437-5.697l0,0H341.19
			c-8.072,0.006-13.745,2.002-17.438,5.697l0,0c-3.693,3.691-5.689,9.364-5.697,17.437l0,0V98.53
			c0.008,8.069,2.004,13.744,5.697,17.436l0,0c3.693,3.693,9.366,5.691,17.438,5.698l0,0v2v2c-8.687,0.008-15.582-2.185-20.267-6.87
			l0,0c-4.685-4.685-6.875-11.579-6.869-20.264l0,0V73.396c-0.006-8.685,2.184-15.58,6.869-20.267l0,0
			c4.685-4.683,11.58-6.875,20.267-6.869l0,0h33.512c8.685-0.006,15.579,2.186,20.265,6.869l0,0
			c4.685,4.687,6.877,11.582,6.869,20.267l0,0V98.53c-0.004,8.637-1.783,15.411-5.7,20.129l0,0
			c-3.902,4.708-9.827,7.005-17.128,7.005l0,0C378.97,125.663,378.93,125.663,378.891,125.663L378.891,125.663z M374.702,108.907
			H341.19v-2v-2h33.512c2.484-0.008,3.969-0.608,4.867-1.509l0,0c0.902-0.9,1.503-2.385,1.51-4.869l0,0V73.396
			c-0.007-2.484-0.607-3.969-1.51-4.87l0,0c-0.898-0.903-2.383-1.503-4.867-1.509l0,0H341.19c-2.486,0.006-3.971,0.606-4.87,1.509
			l0,0c-0.902,0.898-1.503,2.385-1.509,4.87l0,0V98.53c0.006,2.484,0.607,3.969,1.509,4.869l0,0c0.899,0.9,2.383,1.501,4.87,1.509
			l0,0v2v2c-3.102,0.007-5.805-0.789-7.7-2.681l0,0c-1.89-1.893-2.687-4.599-2.679-7.697l0,0V73.396
			c-0.008-3.1,0.789-5.805,2.679-7.698l0,0c1.895-1.892,4.598-2.689,7.7-2.681l0,0h33.512c3.1-0.008,5.803,0.789,7.697,2.681l0,0
			c1.891,1.893,2.688,4.598,2.679,7.698l0,0V98.53c0.009,3.099-0.788,5.805-2.679,7.697l0,0c-1.887,1.885-4.577,2.681-7.661,2.681
			l0,0C374.727,108.907,374.714,108.907,374.702,108.907L374.702,108.907z"/>
	</g>
	<g>
		<path fill="#D12C00" d="M408.215,123.664V48.261h58.647c16.757,0,25.135,8.378,25.135,25.135v50.269H475.24V73.396
			c0-5.585-2.793-8.378-8.378-8.378h-41.891v58.647H408.215z"/>
		<path d="M473.239,125.664V73.395c-0.007-2.485-0.607-3.969-1.51-4.869l0,0c-0.898-0.902-2.385-1.503-4.867-1.509l0,0h-39.891
			v58.647h-18.758v-2.001h2h-2v2.001h-2.001V46.26h60.649c8.686-0.006,15.579,2.186,20.265,6.871l0,0
			c4.684,4.686,6.877,11.579,6.869,20.265l0,0v52.269H473.239L473.239,125.664z M474.56,65.698c1.891,1.892,2.687,4.597,2.68,7.697
			l0,0v48.267h12.756V73.395c-0.007-8.07-2.004-13.743-5.696-17.436l0,0c-3.693-3.695-9.366-5.692-17.437-5.699l0,0h-56.648v71.402
			h12.757V63.016h43.892c0.013,0,0.024,0,0.036,0l0,0C469.981,63.016,472.673,63.813,474.56,65.698L474.56,65.698z"/>
	</g>
	<g>
		<path fill="#D12C00" d="M500.375,106.908H567.4V94.341H525.51c-16.757,0-25.135-7.568-25.135-22.705
			c0-15.583,8.378-23.375,25.135-23.375h58.647v16.756h-67.025v12.567h41.891c16.757,0,25.135,7.68,25.135,23.04
			c0,15.361-8.378,23.04-25.135,23.04h-58.647V106.908z"/>
		<path d="M559.021,125.663h-60.648v-18.755v-2.002h67.025V96.34H525.51c-8.657,0-15.483-1.949-20.192-6.192l0,0
			c-4.714-4.248-6.96-10.602-6.944-18.512l0,0c-0.013-8.124,2.216-14.626,6.923-18.997l0,0c4.703-4.367,11.548-6.381,20.214-6.379
			l0,0h60.646v20.757H519.13v8.566h39.892c8.661,0,15.498,1.983,20.203,6.286l0,0c4.711,4.31,6.946,10.739,6.932,18.755l0,0
			c0.015,8.016-2.221,14.445-6.932,18.753l0,0c-4.703,4.303-11.534,6.286-20.189,6.286l0,0
			C559.031,125.663,559.025,125.663,559.021,125.663L559.021,125.663z M502.375,121.663h56.646c8.096-0.002,13.827-1.858,17.5-5.234
			l0,0c3.668-3.37,5.621-8.46,5.634-15.805l0,0c-0.013-7.345-1.966-12.435-5.634-15.806l0,0c-3.673-3.374-9.404-5.232-17.5-5.234
			l0,0h-43.89V63.017h67.023V50.26H525.51c-8.094,0.002-13.815,1.881-17.489,5.308l0,0c-3.673,3.423-5.633,8.606-5.646,16.067l0,0
			c0.015,7.228,1.96,12.225,5.624,15.544l0,0c3.668,3.325,9.41,5.16,17.511,5.16l0,0h43.89v16.568h-67.024V121.663L502.375,121.663z
			"/>
	</g>
</g>
</svg>
