<?xml version="1.0" encoding="utf-8"?>
<!-- Generator: Adobe Illustrator 13.0.0, SVG Export Plug-In . SVG Version: 6.00 Build 14948)  -->
<svg version="1.2" baseProfile="tiny"
	 id="Ebene_1" xmlns:odm="http://product.corel.com/CGS/11/cddns/" xmlns:corel-charset="http://product.corel.com/CGS/11/cddns/"
	 xmlns="http://www.w3.org/2000/svg" xmlns:xlink="http://www.w3.org/1999/xlink" x="0px" y="0px" width="566.929px"
	 height="87.964px" viewBox="0 0 566.929 87.964" xml:space="preserve">
<path fill="#4C4C4C" d="M0.566,52.343v-7.735h60.565v-8.827H0.566l-0.381-23.82h68.81v7.714H8.429l0.381,8.394h60.564v24.276H0.566
	V52.343z"/>
<path fill="#4C4C4C" d="M74.357,52.343v-40.23h8.244v40.23H74.357L74.357,52.343z"/>
<path fill="#4C4C4C" d="M87.026,52.343v-40.23h68.81v40.23h-8.244V19.826H95.269v32.52L87.026,52.343L87.026,52.343L87.026,52.343z"
	/>
<path fill="#4C4C4C" d="M160.237,52.343v-40.23h68.86v7.714h-60.564v24.782h60.564v7.739h-68.86V52.343z"/>
<path fill="#4C4C4C" d="M234.583,52.343V0h8.246v52.345h-8.246V52.343z"/>
<path fill="#4C4C4C" d="M320.994,52.343v-40.23h8.295v40.23H320.994L320.994,52.343z"/>
<path fill="#4C4C4C" d="M334.271,52.343v-40.23h68.807v7.714h-60.563v32.521h-8.244V52.343L334.271,52.343z"/>
<path fill="#4C4C4C" d="M247.228,12.113v7.714h60.564v8.824h-60.564v23.694h68.861V12.113H247.228z M307.792,44.609h-52.271v-8.827
	h52.271V44.609z"/>
<path fill="#4C4C4C" d="M74.357,7.739V0h8.244v7.739H74.357L74.357,7.739z"/>
<path fill="#4C4C4C" d="M320.994,7.739V0h8.295v7.739H320.994L320.994,7.739z"/>
<path fill="#4C4C4C" d="M0,80.22l9.688-11.586H0.76v-3.336h14.215v3.136L5.287,80.02h9.941v3.338H0V80.22L0,80.22z"/>
<path fill="#4C4C4C" d="M21.985,73.897l-5.819-8.601h4.604l3.542,5.768l3.668-5.768h4.351l-5.792,8.625l6.298,9.436h-4.73
	L24.16,77.11l-4.022,6.247h-4.479L21.985,73.897z"/>
<path fill="#4C4C4C" d="M44.172,77.365c0,2.402,1.871,3.338,3.996,3.338c1.393,0,3.519-0.404,3.519-2.252
	c0-1.947-2.707-2.275-5.363-2.984c-2.681-0.709-5.388-1.744-5.388-5.137c0-3.692,3.491-5.463,6.754-5.463
	c3.769,0,7.235,1.643,7.235,5.818H51.08c-0.126-2.176-1.67-2.73-3.566-2.73c-1.266,0-2.732,0.531-2.732,2.049
	c0,1.394,0.861,1.567,5.389,2.731c1.315,0.329,5.362,1.163,5.362,5.261c0,3.313-2.605,5.793-7.513,5.793
	c-3.997,0-7.741-1.974-7.69-6.424H44.172L44.172,77.365z"/>
<path fill="#4C4C4C" d="M57.503,70.281h3.416v1.67h0.052c0.858-1.391,2.275-2.023,3.895-2.023c4.099,0,5.944,3.314,5.944,7.031
	c0,3.492-1.922,6.754-5.742,6.754c-1.569,0-3.061-0.684-3.921-1.973h-0.051v6.225h-3.593V70.281L57.503,70.281z M67.218,76.857
	c0-2.074-0.835-4.225-3.138-4.225c-2.353,0-3.11,2.101-3.11,4.225c0,2.125,0.809,4.148,3.137,4.148
	C66.458,81.005,67.218,78.983,67.218,76.857z"/>
<path fill="#4C4C4C" d="M75.922,77.691c0.101,2.277,1.214,3.314,3.212,3.314c1.441,0,2.605-0.885,2.833-1.694h3.161
	c-1.012,3.085-3.161,4.399-6.121,4.399c-4.124,0-6.678-2.832-6.678-6.881c0-3.922,2.708-6.906,6.678-6.906
	c4.451,0,6.603,3.746,6.35,7.767L75.922,77.691L75.922,77.691z M81.764,75.416c-0.328-1.822-1.113-2.781-2.858-2.781
	c-2.277,0-2.935,1.77-2.985,2.781H81.764z"/>
<path fill="#4C4C4C" d="M96.387,74.884c-0.229-1.467-1.164-2.25-2.657-2.25c-2.302,0-3.062,2.326-3.062,4.248
	c0,1.873,0.733,4.123,2.985,4.123c1.669,0,2.63-1.063,2.858-2.653h3.464c-0.455,3.464-2.858,5.36-6.298,5.36
	c-3.946,0-6.604-2.781-6.604-6.703c0-4.072,2.428-7.084,6.678-7.084c3.088,0,5.92,1.619,6.147,4.961L96.387,74.884L96.387,74.884z"
	/>
<path fill="#4C4C4C" d="M106.558,70.281h2.63v2.403h-2.63v6.476c0,1.215,0.303,1.521,1.517,1.521c0.38,0,0.734-0.025,1.113-0.104
	v2.807c-0.606,0.104-1.391,0.13-2.099,0.13c-2.201,0-4.123-0.509-4.123-3.112v-7.714h-2.177v-2.403h2.177V66.36h3.592V70.281
	L106.558,70.281z"/>
<path fill="#4C4C4C" d="M110.909,70.281h3.415v2.43h0.051c0.657-1.646,2.429-2.782,4.175-2.782c0.253,0,0.556,0.05,0.784,0.129
	v3.337c-0.33-0.075-0.859-0.126-1.29-0.126c-2.63,0-3.542,1.896-3.542,4.196v5.896h-3.592L110.909,70.281L110.909,70.281z"/>
<path fill="#4C4C4C" d="M133.018,83.358h-3.416v-1.821h-0.076c-0.911,1.467-2.479,2.176-3.997,2.176
	c-3.82,0-4.782-2.147-4.782-5.387v-8.045h3.594v7.387c0,2.149,0.632,3.213,2.301,3.213c1.949,0,2.783-1.088,2.783-3.743v-6.854
	h3.592L133.018,83.358L133.018,83.358z"/>
<path fill="#4C4C4C" d="M135.852,70.281h3.391v1.771h0.05c0.937-1.344,2.302-2.127,3.997-2.127c1.645,0,3.111,0.607,3.82,2.178
	c0.759-1.141,2.125-2.178,3.946-2.178c2.783,0,4.782,1.289,4.782,4.681v8.752h-3.593v-7.412c0-1.743-0.15-3.187-2.2-3.187
	c-2.024,0-2.404,1.67-2.404,3.313v7.286h-3.592v-7.335c0-1.52,0.101-3.264-2.177-3.264c-0.708,0-2.428,0.455-2.428,3.011v7.588
	h-3.592V70.281L135.852,70.281z"/>
<polygon fill="#CA2825" points="429.958,2.173 369.855,62.285 404.062,62.285 464.167,2.173 "/>
<polygon fill="#FDC601" points="464.244,2.173 404.138,62.285 438.347,62.285 498.451,2.173 "/>
<polygon fill="#009C37" points="498.501,2.173 438.398,62.285 472.605,62.285 532.71,2.173 "/>
<polygon fill="#02559C" points="532.722,2.173 472.617,62.285 506.826,62.285 566.929,2.173 "/>
</svg>
