<?xml version="1.0" encoding="UTF-8" standalone="no"?>
<!-- Generator: Adobe Illustrator 16.0.3, SVG Export Plug-In . SVG Version: 6.00 Build 0)  -->
<svg id="Layer_1" xmlns:rdf="http://www.w3.org/1999/02/22-rdf-syntax-ns#" xmlns="http://www.w3.org/2000/svg" enable-background="new 0 0 566.929 71.161" xml:space="preserve" height="71.161px" viewBox="0 0 566.929 71.161" width="566.93px" version="1.1" y="0px" x="0px" xmlns:cc="http://creativecommons.org/ns#" xmlns:dc="http://purl.org/dc/elements/1.1/"><metadata id="metadata43"><rdf:RDF><cc:Work rdf:about=""><dc:format>image/svg+xml</dc:format><dc:type rdf:resource="http://purl.org/dc/dcmitype/StillImage"/><dc:title/></cc:Work></rdf:RDF></metadata>
<g id="g3" fill="#4d4d4d">
	<polygon id="polygon5" points="0,0,30.1,0,30.1,10.491,10.546,10.491,10.546,23.218,30.1,23.218,30.1,34.042,10.546,34.042,10.546,56.66,0,56.66"/>
	<path id="path7" d="M64.333,56.66h-10.254v-8.821h-19.864l-5.885,8.821h-12.074l39.725-56.66h8.351v56.66zm-10.254-19.526v-16.532l-12.133,16.532h12.133z"/>
	<polygon id="polygon9" points="68.35,0,80.243,0,97.014,38.086,113.9,0,125.92,0,125.92,56.66,115.33,56.66,115.33,28.095,102.25,56.66,91.542,56.66,78.935,28.095,78.935,56.66,68.35,56.66"/>
	<polygon id="polygon11" points="323.29,0,335.19,0,351.96,38.086,368.84,0,380.86,0,380.86,56.66,370.27,56.66,370.27,28.095,357.19,56.66,346.48,56.66,333.88,28.095,333.88,56.66,323.29,56.66"/>
	<rect id="rect13" height="56.66" width="10.956" x="129.26"/>
	<polygon id="polygon15" points="143.23,0,154.18,0,154.18,46.331,168.46,46.331,168.46,56.66,143.23,56.66"/>
	<polygon id="polygon17" points="156.29,0,168.46,0,179.97,23.218,191.14,0,203.21,0,185.06,36.039,185.06,56.66,174.44,56.66,174.44,36.039"/>
	<path id="path19" d="M262.91,42.032"/>
	<path id="path21" d="M262.76,15.627c-4.812-9.167-14.422-15.419-25.493-15.419-15.891,0-28.772,12.882-28.772,28.772s12.882,28.773,28.772,28.773c11.15,0,20.819-6.342,25.595-15.616l-13.038,0.107c-3.214,2.964-7.508,4.774-12.225,4.774-9.962,0-18.038-8.076-18.038-18.039s8.076-18.038,18.038-18.038c4.65,0,8.89,1.76,12.089,4.649l13.07,0.037z"/>
	<path id="path23" d="M291.23,57.903c-15.973,0-28.923-12.949-28.923-28.923s12.95-28.923,28.923-28.923c15.974,0,28.923,12.949,28.923,28.923s-12.95,28.923-28.92,28.923zm18.41-28.923c0-10.106-8.193-18.299-18.299-18.299s-18.3,8.193-18.3,18.299,8.193,18.299,18.3,18.299c10.1,0,18.3-8.193,18.3-18.299z"/>
	<path id="path25" d="M403.42,0.007c9.588,0.771,17.129,8.796,17.129,18.583,0,9.786-7.541,17.812-17.129,18.582l-8.281-0.038v19.526h-10.624v-56.66h10.624l8.28,0.007zm-8.28,10.898v15.368l8.282-0.006c3.624-0.677,6.367-3.857,6.367-7.677,0-3.821-2.743-7-6.367-7.678l-8.28-0.007z"/>
	<path id="path27" d="M537.27,57.397h-10.513v-56.909l14.607-0.021,8.281,0.007c9.588,0.771,17.129,8.796,17.129,18.583,0,7.996-5.034,14.817-12.107,17.464l12.261,20.876h-11.51l-17.18-29.354h-0.969v29.354zm-6.53-0.269m10.63,0m8.28-30.394c3.623-0.677,6.367-3.857,6.367-7.677,0-3.821-2.744-7-6.367-7.678h-12.377v15.363l12.38-0.008z"/>
	<path id="path29" d="M449.79,22.117m-15.35,0m-0.04,10.623l0.006,8.282c0.678,3.624,3.857,6.366,7.677,6.366,3.821,0,7.001-2.742,7.679-6.366l0.008-8.282,0.025-32.252h10.878v32.252l-0.007,8.282c-0.771,9.588-8.796,17.128-18.583,17.128-9.786,0-17.812-7.54-18.582-17.128l0.038-8.282-0.018-32.252h10.916l-0.05,32.252z"/>
	<polygon id="polygon31" points="471.54,57.397,482.27,57.397,482.27,11.214,491.9,11.214,491.9,0.488,462.24,0.488,462.24,11.214,471.54,11.214"/>
	<polygon id="polygon33" points="523.99,57.397,494.5,57.397,494.5,0.488,523.99,0.488,523.99,10.905,505.07,10.905,505.07,24.419,523.99,24.419,523.99,35.043,505.07,35.043,505.07,46.884,523.99,46.884"/>
	<path id="path35" d="M537.27,28.095"/>
	<polygon id="polygon37" points="0,65.649,0,71.161,555.42,71.161,566.93,65.649"/>
</g>
</svg>
