<?xml version="1.0" encoding="utf-8"?>
<!-- Generator: Adobe Illustrator 13.0.0, SVG Export Plug-In . SVG Version: 6.00 Build 14948)  -->
<!DOCTYPE svg PUBLIC "-//W3C//DTD SVG 1.1//EN" "http://www.w3.org/Graphics/SVG/1.1/DTD/svg11.dtd">
<svg version="1.1"
	 id="svg2" xmlns:rdf="http://www.w3.org/1999/02/22-rdf-syntax-ns#" xmlns:dc="http://purl.org/dc/elements/1.1/" xmlns:cc="http://creativecommons.org/ns#" xmlns:svg="http://www.w3.org/2000/svg"
	 xmlns="http://www.w3.org/2000/svg" xmlns:xlink="http://www.w3.org/1999/xlink" x="0px" y="0px" width="567.429px"
	 height="113.032px" viewBox="0 0 567.429 113.032" enable-background="new 0 0 567.429 113.032" xml:space="preserve">
<g>
	<path id="path2998_1_" d="M165.884,28.918v28.77v28.77h5.039h5.039V60.776V35.095h6.186c4.461,0,6.475,0.12,7.233,0.437
		c1.496,0.625,3.036,2.529,3.667,4.521c0.331,1.047,0.604,3.313,0.701,5.831c0.2,5.154-0.398,8.356-1.971,10.433
		c-1.641,2.168-2.645,2.51-7.284,2.51h-3.982v3.119v3.127l6.257-0.121l6.258-0.121l2.214-1.047c4.045-1.908,6.982-5.811,8.167-10.84
		c0.662-2.808,0.652-9.086-0.021-12.099c-0.646-2.896-1.991-5.813-3.504-7.579c-0.633-0.738-1.857-1.797-2.712-2.347
		c-2.933-1.882-4.062-2.001-18.356-2.001H165.884z M210.419,28.918v28.77v28.77h5.038h5.039v-28.77v-28.77h-5.039H210.419z
		 M336.791,28.918c-4.514,0.001-9.158,0.16-10.32,0.346c-2.623,0.418-5.682,1.805-7.416,3.372c-1.748,1.579-3.236,3.949-4.043,6.44
		c-0.502,1.548-0.66,2.959-0.68,5.933c-0.029,4.103,0.316,5.851,1.727,8.614c0.916,1.798,3.361,4.393,5.039,5.363
		c1.949,1.13,4.441,1.728,8.727,2.072c3.26,0.264,4.02,0.426,5.08,1.129c0.834,0.551,1.564,1.453,2.184,2.711
		c0.869,1.771,0.918,2.142,0.914,5.953c-0.004,3.801-0.057,4.176-0.896,5.771c-0.566,1.084-1.385,2.032-2.242,2.602l-1.354,0.895
		l-8.563,0.103l-8.553,0.092v3.077v3.068h9.73c5.92,0,10.412-0.146,11.459-0.367c3.984-0.838,7.299-3.42,8.908-6.938
		c1.355-2.963,1.834-6.008,1.656-10.576c-0.188-4.816-0.9-7.44-2.824-10.32c-2.391-3.575-5.064-4.801-11.855-5.423
		c-2.512-0.23-5.086-0.635-5.719-0.904c-1.398-0.592-2.705-2.082-3.281-3.738c-0.568-1.633-0.561-6.361,0.021-8.359
		c0.57-1.973,2.305-3.79,4.135-4.338c0.883-0.266,3.852-0.396,8.848-0.396H345v-3.09V28.92h-8.209V28.918z M452.597,28.918v4.227
		v4.226h5.039h5.039v-4.226v-4.227h-5.039H452.597L452.597,28.918z M355.695,35.42l0.104,20.723
		c0.09,20.398,0.105,20.754,0.803,22.604c0.391,1.033,1.227,2.58,1.857,3.443c1.293,1.76,2.973,2.994,5.1,3.738
		c1.023,0.359,2.762,0.498,6.064,0.51l4.633,0.02V83.37v-3.088h-3.027c-2.881,0-3.07-0.039-3.891-0.895
		c-0.508-0.529-1.006-1.563-1.207-2.52c-0.221-1.033-0.313-6.406-0.256-14.791l0.092-13.165l5.445-0.092l5.445-0.092v-3.076v-3.08
		h-5.527h-5.525v-3.576V35.42h-5.049H355.695L355.695,35.42z M425.291,35.42v20.469c0,19.797,0.023,20.54,0.672,22.512
		c0.771,2.348,2.338,4.672,4.043,5.973c0.65,0.498,1.939,1.166,2.863,1.482c1.289,0.445,2.73,0.582,6.156,0.59l4.469,0.01v-3.088
		V80.28h-2.885c-2.41,0-3.02-0.104-3.727-0.662c-0.467-0.365-0.996-1.205-1.18-1.867c-0.205-0.74-0.336-6.584-0.336-15.106V48.748
		h5.537h5.537l-0.094-3.007l-0.092-3.008l-5.445-0.09l-5.441-0.093v-3.565V35.42h-5.039H425.291L425.291,35.42z M416.402,42.489
		l-10.758,0.174c-11.568,0.178-12.766,0.32-16.162,2.042c-3.799,1.925-6.447,5.663-7.648,10.788
		c-0.502,2.138-0.59,3.979-0.59,12.109c0,9.23,0.027,9.661,0.742,11.428c1.441,3.561,3.586,5.76,6.674,6.826
		c1.361,0.471,2.781,0.58,7.457,0.588l5.771,0.012v-3.09v-3.088h-4.043c-3.828,0-4.088-0.047-4.998-0.813
		c-0.602-0.506-1.092-1.35-1.32-2.256c-0.453-1.793-0.475-15.937-0.031-19.361c0.631-4.865,1.727-7.146,4.014-8.371
		c0.787-0.42,2.146-0.57,5.975-0.67l4.957-0.132v18.896v18.885h5.201h5.201V74.315c0-6.674-0.104-16.566-0.225-21.982
		L416.402,42.489z M263.73,42.5l-10.808,0.162c-11.746,0.181-13.433,0.396-16.64,2.113c-3.725,1.994-6.385,5.936-7.508,11.123
		c-0.713,3.295-1.047,16.791-0.498,20.054c0.48,2.846,1.811,5.713,3.404,7.334c1.172,1.192,3.117,2.368,4.743,2.864
		c0.447,0.138,3.481,0.259,6.745,0.272l5.932,0.031v-3.088V80.28h-4.154c-4.686,0-5.303-0.221-6.186-2.234
		c-0.395-0.897-0.549-2.662-0.65-7.416c-0.146-6.756,0.324-14.086,1.056-16.52c0.657-2.185,1.881-3.863,3.321-4.57
		c1.052-0.516,2.019-0.613,6.125-0.62l4.875-0.011l0.082,18.773l0.082,18.771h5.039h5.039v-21.98L263.73,42.5L263.73,42.5z
		 M274.58,42.571c-2.928,0-5.319,0.037-5.313,0.082c0.004,0.045,3.346,9.857,7.426,21.811l7.416,21.738l-4.176,10.77
		c-2.295,5.927-4.175,10.818-4.175,10.869c0,0.05,1.993,0.05,4.429,0l4.43-0.092l12.951-32.508
		c7.127-17.879,12.963-32.542,12.963-32.588c0.002-0.045-2.102-0.082-4.684-0.082c-3.404,0-4.766,0.113-4.947,0.408
		c-0.137,0.223-2.627,6.543-5.525,14.049c-2.897,7.504-5.397,13.688-5.565,13.744c-0.17,0.057-2.472-6.266-5.108-14.049
		l-4.796-14.152H274.58z M452.597,42.571v21.942v21.942h5.039h5.039V64.513V42.571h-5.039H452.597z M513.548,42.733l-0.094,21.861
		h0.012l-0.092,21.861h5.211h5.201V67.571V48.676l4.957,0.133c5.262,0.137,6.141,0.356,7.619,1.939
		c1.158,1.24,1.986,3.499,2.355,6.439c0.191,1.539,0.348,8.603,0.348,16.01v13.259h5.037h5.037l-0.01-12.922
		c-0.002-13.705-0.242-16.957-1.563-20.673c-1.797-5.053-5.104-8.049-10.482-9.508c-1.779-0.483-3.68-0.567-12.811-0.59
		L513.548,42.733L513.548,42.733z M488.07,42.825c-2.842,0-5.674,0.357-7.709,1.057c-2.709,0.932-4.41,2.023-6.117,3.921
		c-1.852,2.06-3.193,4.849-3.98,8.259c-0.48,2.09-0.596,3.845-0.566,8.938c0.025,5.359,0.133,6.729,0.711,8.849
		c0.979,3.596,2.26,6.017,4.205,7.985c1.916,1.938,4.748,3.422,7.936,4.146c1.434,0.324,3.422,0.427,6.461,0.345
		c5.238-0.14,7.73-0.814,10.787-2.904c2.563-1.752,4.5-4.517,5.598-7.996c1.57-4.967,1.846-13.156,0.641-19.199
		c-0.586-2.936-2.01-6.119-3.598-8.056c-1.492-1.821-3.936-3.418-6.551-4.287C493.773,43.182,490.912,42.825,488.07,42.825
		L488.07,42.825z M488.193,48.879c1.475,0,2.953,0.285,4.113,0.873c1.514,0.768,2.465,2.104,3.291,4.632
		c0.541,1.653,0.676,3.158,0.803,8.625c0.166,7.141-0.162,10.506-1.27,13.043c-0.781,1.793-2.045,3.186-3.434,3.779
		c-0.594,0.254-2.156,0.446-3.605,0.446c-2.055,0-2.844-0.146-3.992-0.75c-0.902-0.478-1.773-1.295-2.336-2.205
		c-1.469-2.37-1.953-5.479-1.973-12.483c-0.016-6.668,0.328-9.348,1.557-12.06c0.416-0.92,1.256-2.043,1.879-2.52
		C484.41,49.356,486.296,48.879,488.193,48.879L488.193,48.879z"/>
	<path fill="#E5E5E5" d="M275.653,108.839c-0.027-0.013-0.044-0.013-0.063-0.013l0,0c-0.047,0-0.119,0.003-0.438-0.19l0,0
		c-0.115-0.083-0.386-0.333-0.395-0.796l0,0c0.019-0.298,0.036-0.231,0.042-0.285l0,0c0.006-0.025,0.01-0.038,0.015-0.049l0,0
		c0.006-0.025,0.015-0.046,0.023-0.069l0,0c0.017-0.047,0.038-0.108,0.068-0.185l0,0c0.057-0.155,0.14-0.374,0.246-0.654l0,0
		c0.212-0.561,0.52-1.362,0.9-2.348l0,0c0.756-1.972,1.8-4.678,2.949-7.642l0,0l4.043-10.431l-7.298-21.392
		c-3.998-11.717-7.258-21.279-7.436-21.841l0,0c0-0.001-0.001-0.002-0.001-0.004l0,0c-0.1-0.251-0.02-0.687,0.161-0.899l0,0
		c0.06-0.08,0.124-0.136,0.178-0.176l0,0c0.068-0.056,0.128-0.09,0.18-0.114l0,0c0.076-0.039,0.121-0.049,0.159-0.063l0,0
		c0.089-0.026,0.123-0.03,0.159-0.036l0,0c0.063-0.009,0.106-0.011,0.155-0.015l0,0c0.096-0.008,0.206-0.013,0.348-0.017l0,0
		c0.282-0.01,0.677-0.019,1.163-0.027l0,0c0.97-0.015,2.301-0.023,3.768-0.023l0,0v1v1c-1.539-0.002-2.976,0.011-3.939,0.027l0,0
		c0.05,0.148,0.104,0.308,0.161,0.48l0,0c0.378,1.112,0.923,2.717,1.597,4.691l0,0c1.346,3.952,3.203,9.395,5.243,15.37l0,0
		l7.533,22.082l-4.308,11.109c-1.574,4.065-2.979,7.717-3.678,9.546l0,0c0.781-0.002,1.832-0.014,2.979-0.036l0,0l3.768-0.078
		l12.704-31.894c5.879-14.741,10.888-27.327,12.45-31.276l0,0c-0.837-0.014-1.983-0.022-3.24-0.022l0,0
		c-2.263-0.007-3.658,0.066-4.186,0.157l0,0c-0.082,0.202-0.2,0.493-0.348,0.857l0,0c-0.298,0.737-0.712,1.781-1.21,3.052l0,0
		c-1.002,2.543-2.348,5.999-3.798,9.749l0,0c-2.107,5.46-4.003,10.215-4.956,12.454l0,0c-0.345,0.783-0.478,1.138-0.707,1.49l0,0
		c-0.085,0.062-0.018,0.161-0.516,0.389l0,0l-0.151,0.051h-0.167h-0.005c-0.704-0.087-0.696-0.334-0.798-0.385l0,0
		c-0.068-0.085-0.098-0.136-0.127-0.187l0,0c-0.058-0.1-0.098-0.188-0.149-0.299l0,0c-0.1-0.215-0.218-0.501-0.364-0.866l0,0
		c-0.289-0.729-0.676-1.765-1.141-3.042l0,0c-0.93-2.554-2.16-6.068-3.472-9.949l0,0l-4.566-13.472h-4.608v-1v-1h6.042l5.026,14.831
		c1.229,3.627,2.386,6.94,3.284,9.429l0,0c0.335,0.933,0.645,1.769,0.905,2.453l0,0c0.232-0.561,0.503-1.222,0.806-1.967l0,0
		c1.004-2.483,2.352-5.903,3.799-9.65l0,0c2.539-6.574,4.76-12.224,5.377-13.712l0,0c0.106-0.244,0.11-0.285,0.231-0.501l0,0
		c0.365-0.51,0.689-0.535,0.977-0.633l0,0c0.302-0.074,0.63-0.119,1.057-0.155l0,0c0.845-0.068,2.051-0.096,3.766-0.096l0,0
		c2.427,0.004,4.281,0.021,4.782,0.081l0,0c0.007,0.003,0.013,0.005,0.018,0.006l0,0c0.013,0.001,0.025,0.003,0.037,0.004l0,0
		c0.001,0,0.002,0,0.003,0l0,0c0.029-0.001,0.07-0.003,0.208,0.061l0,0c0.028,0.012,0.055,0.024,0.081,0.035l0,0
		c0.008,0.005,0.016,0.011,0.023,0.016l0,0c0.028,0.015,0.06,0.031,0.093,0.049l0,0c0.023,0.017,0.058,0.042,0.097,0.076l0,0
		c0.081,0.062,0.16,0.146,0.224,0.285l0,0c0.058,0.113,0.103,0.256,0.113,0.437l0,0c0.002,0.011,0.003,0.021,0.004,0.032l0,0
		c-0.001,0.007-0.001,0.014-0.002,0.021l0,0c0,0.051-0.006,0.111-0.02,0.175l0,0c-0.012,0.094-0.02,0.097-0.024,0.098l0,0
		c-0.002,0.007-0.005,0.015-0.007,0.022l0,0c0,0,0,0.001,0,0.002l0,0c-0.005,0.017-0.009,0.025-0.011,0.034l0,0
		c-0.007,0.017-0.013,0.032-0.02,0.049l0,0c-0.013,0.034-0.029,0.079-0.053,0.138l0,0c-0.045,0.117-0.112,0.287-0.199,0.507l0,0
		c-0.172,0.442-0.429,1.087-0.758,1.919l0,0c-0.66,1.66-1.611,4.057-2.787,7.009l0,0c-2.35,5.907-5.592,14.043-9.153,22.982l0,0
		L285.3,108.734l-5.094,0.105c-1.225,0.023-2.335,0.036-3.148,0.036l0,0C276.345,108.872,275.954,108.875,275.653,108.839
		L275.653,108.839z M288.996,70.199C288.996,70.2,288.996,70.2,288.996,70.199L288.996,70.199z M310.377,43.641
		c0.093,0.016,0.278,0.029,0.486-0.047l0,0c-0.105,0.038-0.219,0.057-0.334,0.057l0,0c-0.064,0-0.129-0.006-0.192-0.019l0,0
		C310.35,43.635,310.364,43.638,310.377,43.641L310.377,43.641z M369.619,87.437c-3.335-0.02-5.111-0.13-6.392-0.566l0,0
		c-2.299-0.799-4.173-2.174-5.576-4.091l0,0c-0.709-0.979-1.543-2.525-1.986-3.681l0,0c-0.38-0.977-0.604-1.807-0.692-4.663l0,0
		c-0.104-2.904-0.13-8.088-0.174-18.289l0,0l-0.104-20.723l-0.004-1.004h6.064h6.048v4.577v2.577h4.527h6.524v4.078v4.061
		l-6.427,0.108l-4.469,0.075l-0.085,12.19c-0.015,1.612-0.019,3.118-0.017,4.504l0,0c-0.011,5.731,0.114,9.521,0.251,10.072l0,0
		c0.148,0.774,0.639,1.733,0.95,2.033l0,0c0.429,0.425,0.396,0.403,0.676,0.486l0,0c0.306,0.078,1.061,0.105,2.494,0.102l0,0h4.026
		v4.088v4.091L369.619,87.437L369.619,87.437z M356.797,56.139c0.045,10.197,0.072,15.389,0.175,18.225l0,0
		c0.112,2.883,0.246,3.156,0.563,4.028l0,0c0.339,0.911,1.176,2.458,1.729,3.205l0,0c1.183,1.604,2.668,2.698,4.625,3.386l0,0
		c0.765,0.282,2.465,0.45,5.735,0.455l0,0l3.63,0.015V83.37v-2.091l-2.026,0.003c-1.45-0.005-2.229,0.002-2.942-0.153l0,0
		c-0.741-0.15-1.278-0.62-1.671-1.051l0,0c-0.704-0.758-1.21-1.865-1.465-3.001l0,0c-0.221-1.121-0.284-4.646-0.292-10.488l0,0
		c-0.003-1.389,0.002-2.899,0.017-4.52l0,0l0.098-14.141l6.421-0.108l4.464-0.076V45.65l-0.002-2.078h-4.525h-6.525v-4.577v-2.577
		h-4.05h-4.056L356.797,56.139L356.797,56.139z M355.694,36.419v-1V36.419L355.694,36.419z M439.021,87.444
		c-3.435-0.009-5.005-0.137-6.477-0.644l0,0c-1.059-0.369-2.348-1.031-3.147-1.633l0,0c-1.915-1.475-3.541-3.916-4.386-6.454l0,0
		c-0.353-1.049-0.55-1.951-0.628-4.854l0,0c-0.089-2.938-0.094-8.071-0.094-17.971l0,0V35.419v-1h6.039h6.039v4.566v2.581
		l4.458,0.077l6.397,0.104l0.123,3.963l0.125,4.038h-6.567h-4.538v12.896c0,4.256,0.031,7.842,0.091,10.448l0,0
		c0.045,2.554,0.172,4.355,0.208,4.39l0,0c0.087,0.409,0.62,1.216,0.837,1.35l0,0c0.275,0.204,0.358,0.255,0.778,0.342l0,0
		c0.417,0.074,1.139,0.106,2.329,0.106l0,0h3.882v4.088v4.089L439.021,87.444L439.021,87.444z M426.29,55.888
		c0,9.896,0.006,15.034,0.093,17.911l0,0c0.094,2.907,0.231,3.364,0.529,4.289l0,0c0.698,2.155,2.205,4.362,3.701,5.489l0,0
		c0.499,0.394,1.788,1.068,2.582,1.333l0,0c1.102,0.383,2.415,0.527,5.83,0.535l0,0l3.469,0.007v-2.085v-2.089h-1.885
		c-1.221-0.002-2.008-0.021-2.677-0.138l0,0c-0.664-0.106-1.239-0.386-1.668-0.736l0,0c-0.72-0.599-1.246-1.474-1.526-2.388l0,0
		c-0.168-0.707-0.208-2.197-0.28-4.881l0,0c-0.06-2.63-0.092-6.228-0.092-10.492l0,0V47.748h6.538h4.504l-0.062-1.977l-0.063-2.055
		l-4.491-0.074l-6.423-0.11v-4.547v-2.566h-4.04h-4.039V55.888L426.29,55.888z M425.29,36.419v-1V36.419L425.29,36.419z
		 M396.114,87.444c-4.668-0.011-6.211-0.106-7.782-0.644l0,0c-3.372-1.148-5.777-3.651-7.274-7.396l0,0
		c-0.373-0.899-0.621-1.696-0.709-3.227l0,0c-0.1-1.545-0.105-3.959-0.105-8.577l0,0c0-8.115,0.083-10.051,0.617-12.337l0,0
		c1.242-5.33,4.059-9.372,8.168-11.452l0,0c1.718-0.879,3.08-1.424,5.345-1.7l0,0c2.266-0.283,5.467-0.359,11.255-0.45l0,0
		l10.758-0.174l0.993-0.015l0.237,10.836c0.124,5.429,0.226,15.321,0.226,22.005l0,0v13.139h-6.2h-6.203V67.571v-17.87l-3.929,0.106
		c-3.81,0.081-5.124,0.299-5.529,0.552l0,0c-1.868,1.008-2.849,2.8-3.494,7.618l0,0c-0.204,1.53-0.316,5.748-0.314,9.791l0,0
		c-0.013,4.25,0.146,8.604,0.323,9.195l0,0c0.176,0.723,0.601,1.414,0.995,1.736l0,0c0.461,0.363,0.423,0.365,0.922,0.472l0,0
		c0.509,0.087,1.525,0.108,3.435,0.106l0,0h5.041v4.088v4.091L396.114,87.444L396.114,87.444z M407.44,67.571v17.884h4.201h4.2
		v-11.14c0.002-6.665-0.102-16.559-0.223-21.961l0,0l-0.194-8.85l-9.765,0.158c-5.78,0.089-8.962,0.172-11.038,0.435l0,0
		c-2.074,0.27-3.01,0.656-4.689,1.499l0,0c-3.485,1.772-5.967,5.205-7.125,10.125l0,0c-0.47,1.989-0.565,3.736-0.565,11.88l0,0
		c0,4.612,0.009,7.03,0.103,8.448l0,0c0.104,1.433,0.227,1.736,0.568,2.604l0,0c1.387,3.377,3.27,5.271,6.073,6.257l0,0
		c1.152,0.403,2.447,0.527,7.132,0.533l0,0l4.77,0.009v-2.087v-2.089h-3.041c-1.924-0.002-2.951-0.004-3.756-0.132l0,0
		c-0.814-0.11-1.438-0.514-1.889-0.917l0,0c-0.807-0.689-1.363-1.685-1.646-2.773l0,0c-0.29-1.255-0.371-5.292-0.384-9.687l0,0
		c0.002-4.104,0.1-8.263,0.331-10.051l0,0c0.615-4.909,1.827-7.681,4.534-9.123l0,0c1.167-0.586,2.572-0.668,6.419-0.788l0,0
		l5.983-0.159V67.571L407.44,67.571z M415.402,42.511l1-0.021L415.402,42.511L415.402,42.511z M315.393,87.457v-4.067v-4.067
		l9.541-0.102l8.269-0.1l1.105-0.732c0.68-0.445,1.42-1.284,1.91-2.233l0,0c0.414-0.794,0.557-1.109,0.66-1.744l0,0
		c0.103-0.642,0.121-1.667,0.123-3.528l0,0c-0.006-0.148-0.002-0.275-0.004-0.371l0,0c-0.027-3.577-0.021-3.503-0.809-5.173l0,0
		c-0.567-1.15-1.201-1.9-1.839-2.318l0,0c-0.87-0.566-1.301-0.688-4.607-0.966l0,0c-4.335-0.351-6.994-0.959-9.146-2.203l0,0
		c-1.935-1.152-4.352-3.721-5.431-5.773l0,0c-1.422-2.745-1.854-4.795-1.838-8.616l0,0c0-0.153,0.002-0.308,0.004-0.461l0,0
		c0.016-2.989,0.181-4.56,0.727-6.234l0,0c0.863-2.655,2.422-5.147,4.323-6.873l0,0c1.951-1.743,5.091-3.152,7.931-3.617l0,0
		c1.346-0.208,5.914-0.354,10.478-0.359l0,0v1V27.92v-0.002l1-0.002v0.004h8.208L346,32.008v4.088h-8.528
		c-4.936-0.013-8.024,0.163-8.561,0.354l0,0c-1.431,0.399-3.017,2.033-3.463,3.662l0,0c-0.246,0.821-0.407,2.509-0.4,4.097l0,0
		c-0.011,1.541,0.156,3.095,0.364,3.653l0,0c0.47,1.397,1.665,2.715,2.729,3.146l0,0c0.29,0.155,2.999,0.624,5.419,0.828l0,0
		c6.817,0.573,10.076,2.012,12.596,5.865l0,0c2.038,3.022,2.814,5.958,2.991,10.841l0,0c0.021,0.608,0.035,1.199,0.035,1.772l0,0
		c0.003,3.723-0.536,6.546-1.78,9.254l0,0c-1.751,3.823-5.334,6.6-9.611,7.5l0,0c-1.314,0.261-5.689,0.38-11.666,0.389l0,0H315.393
		L315.393,87.457z M326.626,30.25c-2.407,0.37-5.384,1.734-6.903,3.127l0,0c-1.592,1.433-3.012,3.681-3.761,6.007l0,0
		c-0.459,1.42-0.609,2.672-0.633,5.635l0,0c-0.002,0.151-0.002,0.299-0.002,0.442l0,0c0.017,3.744,0.324,5.13,1.621,7.707l0,0
		c0.752,1.541,3.227,4.163,4.648,4.952l0,0c1.747,1.013,4.071,1.601,8.307,1.94l0,0c3.211,0.248,4.301,0.452,5.551,1.291l0,0
		c1.031,0.684,1.857,1.738,2.53,3.103l0,0c0.896,1.763,1.042,2.639,1.013,6.057l0,0c0,0.121,0,0.219,0.002,0.34l0,0
		c-0.002,1.905-0.011,2.969-0.146,3.862l0,0c-0.134,0.904-0.438,1.571-0.862,2.371l0,0c-0.643,1.221-1.541,2.278-2.577,2.972l0,0
		l-1.6,1.056l-8.858,0.108l-7.563,0.08v2.089v2.067h8.73c5.862,0.009,10.473-0.165,11.254-0.346l0,0
		c3.689-0.775,6.735-3.163,8.204-6.375l0,0c1.108-2.435,1.597-4.877,1.601-8.422l0,0c0-0.54-0.015-1.108-0.034-1.7l0,0
		c-0.199-4.755-0.847-7.066-2.657-9.803l0,0c-2.263-3.298-4.35-4.311-11.114-4.982l0,0c-2.604-0.254-5.044-0.596-6.018-0.98l0,0
		c-1.734-0.753-3.154-2.414-3.836-4.328l0,0c-0.354-1.055-0.469-2.624-0.478-4.311l0,0c0.006-1.724,0.14-3.46,0.483-4.655l0,0
		c0.696-2.322,2.579-4.322,4.806-5.018l0,0c1.231-0.341,4.08-0.424,9.137-0.439l0,0h6.527v-2.089v-2.089h-8.165
		C331.672,29.94,327.535,30.099,326.626,30.25L326.626,30.25z M243.164,87.42c-1.643-0.007-3.227-0.038-4.464-0.09l0,0
		c-1.287-0.063-2.023-0.082-2.569-0.225l0,0c-1.827-0.569-3.833-1.781-5.164-3.12l0,0c-1.794-1.845-3.154-4.834-3.677-7.869l0,0
		c-0.212-1.273-0.287-3.602-0.289-6.353l0,0c0.006-5.234,0.291-11.702,0.794-14.078l0,0c1.166-5.396,3.972-9.626,8.015-11.793l0,0
		c1.643-0.89,3.084-1.45,5.461-1.743l0,0c2.384-0.301,5.755-0.397,11.634-0.488l0,0l9.822-0.146v-0.015h0.987h0.013h0.002v1v-1
		l0.007,1h0.992v21.972v22.979h-6.039h-6.037l-0.085-19.766l-0.079-17.775l-3.878,0.009c-4.137,0.006-4.897,0.123-5.685,0.518l0,0
		c-1.083,0.514-2.212,1.959-2.804,3.961l0,0c-0.58,1.859-1.053,7.824-1.042,13.725l0,0c0,0.83,0.008,1.662,0.028,2.484l0,0
		c0.084,4.725,0.299,6.503,0.566,7.036l0,0c0.457,0.979,0.571,1.119,1.089,1.333l0,0c0.569,0.221,1.857,0.313,4.182,0.304l0,0h5.154
		v4.086v4.091L243.164,87.42L243.164,87.42z M254.568,67.677l0.077,17.775h4.046h4.037v-20.98V43.514l-9.792,0.148
		c-5.865,0.089-9.212,0.191-11.411,0.474l0,0c-2.204,0.286-3.209,0.694-4.772,1.522l0,0c-3.407,1.821-5.922,5.474-7.002,10.452l0,0
		c-0.431,1.94-0.756,8.548-0.75,13.655l0,0c-0.002,2.687,0.091,5.041,0.261,6.02l0,0c0.435,2.657,1.738,5.402,3.131,6.801l0,0
		c1.011,1.043,2.89,2.181,4.317,2.607l0,0v-0.001c0.023,0.003,0.066,0.009,0.121,0.016l0,0c0.108,0.015,0.263,0.029,0.452,0.044l0,0
		c0.378,0.03,0.892,0.058,1.494,0.081l0,0c1.208,0.049,2.772,0.083,4.394,0.091l0,0l4.929,0.025v-2.082v-2.087h-3.154
		c-2.362-0.01-3.727-0.029-4.858-0.422l0,0c-1.183-0.399-1.817-1.376-2.244-2.409l0,0c-0.522-1.263-0.616-3.015-0.734-7.797l0,0
		c-0.02-0.838-0.028-1.683-0.028-2.528l0,0c0.011-6.056,0.418-11.897,1.125-14.302l0,0c0.722-2.369,2.04-4.279,3.84-5.179l0,0
		c1.316-0.637,2.488-0.713,6.561-0.722l0,0l5.874-0.013L254.568,67.677L254.568,67.677z M215.457,87.457h-6.039V57.688V28.917v-1
		h6.039h6.039v29.77v29.769H215.457L215.457,87.457z M211.419,57.688v27.769h4.038h4.039V57.688V29.917h-4.039h-4.038V57.688
		L211.419,57.688z M210.419,29.917v-1V29.917L210.419,29.917z M170.923,87.457h-6.039V57.688V28.917v-1h13.931
		c7.153,0,11.008,0.025,13.547,0.299l0,0c2.526,0.257,3.857,0.883,5.349,1.859l0,0c0.97,0.632,2.195,1.689,2.931,2.539l0,0
		c1.662,1.955,3.034,4.967,3.721,8.011l0,0c0.365,1.658,0.533,4.045,0.535,6.423l0,0c-0.004,2.324-0.159,4.587-0.518,6.124l0,0
		c-1.238,5.271-4.354,9.458-8.711,11.513l0,0l-2.409,1.138l-6.472,0.126l-7.276,0.142v-4.146v-4.12h4.982
		c2.297,0.005,3.632-0.102,4.44-0.388l0,0c0.796-0.283,1.248-0.686,2.046-1.724l0,0c1.174-1.541,1.809-3.991,1.806-8.007l0,0
		c0-0.564-0.013-1.161-0.036-1.785l0,0c-0.089-2.454-0.382-4.727-0.656-5.568l0,0c-0.52-1.732-2.01-3.483-3.101-3.899l0,0
		c-0.331-0.187-2.439-0.384-6.846-0.361l0,0h-5.186v24.683v26.68H170.923L170.923,87.457z M166.883,57.688v27.769h4.04h4.038v-24.68
		V34.095h7.187c4.515,0.023,6.436,0.066,7.618,0.514l0,0c1.904,0.834,3.492,2.891,4.235,5.144l0,0
		c0.386,1.252,0.641,3.511,0.747,6.094l0,0c0.025,0.647,0.039,1.268,0.039,1.862l0,0c-0.004,4.192-0.631,7.111-2.212,9.212l0,0
		c-0.843,1.129-1.711,1.98-2.989,2.409l0,0c-1.263,0.427-2.751,0.492-5.092,0.497l0,0h-2.982v2.12v2.105l5.239-0.1l6.043-0.118
		l2.021-0.956c3.731-1.759,6.489-5.376,7.621-10.163l0,0c0.295-1.24,0.467-3.449,0.465-5.666l0,0c0-2.269-0.176-4.6-0.488-5.988l0,0
		c-0.605-2.747-1.925-5.568-3.288-7.145l0,0c-0.529-0.628-1.753-1.689-2.492-2.157l0,0c-1.441-0.904-2.14-1.28-4.485-1.554l0,0
		c-2.335-0.254-6.19-0.291-13.331-0.289l0,0h-11.932V57.688L166.883,57.688z M165.884,29.917v-1V29.917L165.884,29.917z
		 M544.103,87.454h-6.039V73.196c0.005-7.367-0.161-14.506-0.339-15.886l0,0c-0.344-2.821-1.172-4.918-2.094-5.879l0,0
		c-0.713-0.741-1.027-0.985-1.908-1.225l0,0c-0.887-0.231-2.39-0.333-5.007-0.397l0,0l-3.929-0.106v17.868v19.883h-6.203h-6.217
		l0.093-21.861h-0.013l0.101-22.865l0.004-0.998l11.724,0.032c9.123,0.028,11.08,0.094,13.071,0.626l0,0
		c5.616,1.49,9.306,4.82,11.161,10.138l0,0c1.39,3.92,1.619,7.323,1.621,21.006l0,0l0.011,13.922H544.103L544.103,87.454z
		 M528.769,47.81c2.646,0.072,4.212,0.148,5.447,0.456l0,0c1.246,0.299,2.109,0.955,2.876,1.8l0,0
		c1.395,1.516,2.223,3.938,2.617,6.996l0,0c0.206,1.698,0.353,8.688,0.354,16.134l0,0v12.259h4.039h4.035l-0.011-11.921
		c0-13.728-0.252-16.828-1.502-20.339l0,0c-1.736-4.789-4.662-7.448-9.803-8.877l0,0c-1.568-0.433-3.411-0.537-12.552-0.556l0,0
		l-9.728-0.027l-0.087,19.859h0.013l-0.094,21.861h4.209h4.201V67.571V47.648L528.769,47.81L528.769,47.81z M513.545,43.732l0.002-1
		L513.545,43.732L513.545,43.732z M457.637,87.454h-6.041V64.512V42.571v-1h6.041h6.038v22.941v22.941H457.637L457.637,87.454z
		 M453.597,64.512l-0.002,20.942h4.042h4.037V64.512V43.57h-4.037h-4.04V64.512L453.597,64.512z M452.597,43.57v-1V43.57
		L452.597,43.57z M482.326,86.953c-3.35-0.762-6.339-2.313-8.425-4.417l0,0c-2.089-2.107-3.458-4.733-4.458-8.425l0,0
		c-0.611-2.229-0.726-3.768-0.747-9.1l0,0c-0.006-0.49-0.006-0.947-0.006-1.371l0,0c0-4.076,0.14-5.818,0.598-7.803l0,0
		c0.815-3.534,2.219-6.487,4.212-8.703l0,0c1.794-2.01,3.726-3.243,6.535-4.199l0,0c2.201-0.753,5.105-1.108,8.035-1.112l0,0v1.002
		v1c-2.756-0.004-5.515,0.354-7.385,1.002l0,0c-2.607,0.908-4.078,1.857-5.7,3.645l0,0c-1.71,1.902-2.99,4.53-3.748,7.813l0,0
		c-0.412,1.797-0.546,3.292-0.548,7.355l0,0c0,0.424,0.002,0.872,0.007,1.354l0,0c0.029,5.378,0.131,6.58,0.677,8.592l0,0
		c0.955,3.498,2.148,5.715,3.95,7.544l0,0c1.747,1.772,4.419,3.19,7.444,3.874l0,0c1.004,0.228,2.4,0.346,4.402,0.346l0,0
		c0.554,0,1.157-0.01,1.813-0.025l0,0c5.192-0.159,7.323-0.755,10.251-2.731l0,0c2.348-1.604,4.162-4.165,5.206-7.472l0,0
		c0.868-2.738,1.344-6.654,1.342-10.59l0,0c0-2.828-0.242-5.672-0.728-8.111l0,0c-0.544-2.768-1.944-5.869-3.391-7.618l0,0
		c-1.331-1.637-3.646-3.165-6.092-3.972l0,0c-1.957-0.651-4.746-1.008-7.501-1.006l0,0v-1v-1.002
		c2.927,0.004,5.86,0.361,8.129,1.108l0,0c2.787,0.932,5.358,2.598,7.01,4.602l0,0c1.729,2.125,3.178,5.392,3.806,8.497l0,0
		c0.518,2.604,0.767,5.561,0.767,8.501l0,0c-0.003,4.099-0.476,8.148-1.434,11.192l0,0c-1.152,3.653-3.211,6.623-5.987,8.521l0,0
		c-3.187,2.203-6.041,2.957-11.329,3.078l0,0c-0.666,0.015-1.284,0.025-1.861,0.025l0,0
		C485.091,87.348,483.567,87.233,482.326,86.953L482.326,86.953z M483.631,80.411c-1.081-0.577-2.051-1.492-2.72-2.563l0,0
		c-1.641-2.666-2.1-5.984-2.122-13.004l0,0c0-0.142,0-0.286-0.003-0.431l0,0c-0.002-6.368,0.354-9.204,1.647-12.046l0,0
		c0.514-1.095,1.344-2.235,2.185-2.904l0,0c1.462-1.097,3.511-1.575,5.574-1.583l0,0v1v1c-1.73-0.011-3.456,0.465-4.36,1.174l0,0
		c-0.407,0.287-1.257,1.393-1.575,2.14l0,0c-1.116,2.458-1.467,4.87-1.471,11.22l0,0c0,0.136,0.002,0.273,0.002,0.423l0,0
		c0.017,6.985,0.526,9.885,1.825,11.959l0,0c0.455,0.749,1.228,1.469,1.949,1.847l0,0c1.027,0.521,1.478,0.619,3.527,0.635l0,0
		c1.333,0.017,2.946-0.224,3.212-0.365l0,0c1.074-0.448,2.216-1.649,2.91-3.259l0,0c0.839-1.921,1.227-4.485,1.225-9.486l0,0
		c0-0.955-0.011-1.997-0.038-3.135l0,0c-0.127-5.48-0.266-6.856-0.754-8.337l0,0c-0.811-2.435-1.583-3.424-2.791-4.05l0,0
		c-0.972-0.495-2.315-0.769-3.661-0.764l0,0v-1v-1c1.603,0.002,3.213,0.299,4.565,0.98l0,0c1.817,0.911,2.948,2.594,3.789,5.213l0,0
		c0.595,1.826,0.724,3.458,0.852,8.911l0,0c0.025,1.152,0.038,2.21,0.038,3.182l0,0c-0.003,5.08-0.376,7.939-1.391,10.284l0,0
		c-0.868,1.975-2.254,3.561-3.957,4.299l0,0c-0.921,0.367-2.433,0.51-3.999,0.526l0,0c-0.081,0.001-0.16,0.001-0.239,0.001l0,0
		C485.941,81.276,484.852,81.072,483.631,80.411L483.631,80.411z M457.637,38.37h-6.041v-5.226v-4.227v-1h6.041h6.038v5.226v5.226
		H457.637L457.637,38.37z M453.597,33.144v3.226h4.04h4.037v-3.226l-0.002-3.227h-4.035h-4.04V33.144L453.597,33.144z
		 M452.597,29.917v-1V29.917L452.597,29.917z"/>
</g>
<g>
	<path id="path3775_1_" d="M559.435,83.913h0.77v-2.836h1.756c0.48,0,0.795,0.078,0.939,0.232c0.139,0.148,0.229,0.492,0.268,1.031
		l0.068,0.836c0.012,0.16,0.027,0.293,0.055,0.4c0.021,0.114,0.063,0.228,0.117,0.334h0.807v-0.209
		c-0.064-0.058-0.107-0.125-0.135-0.205c-0.037-0.095-0.064-0.211-0.072-0.351l-0.07-0.972c-0.047-0.473-0.109-0.797-0.189-0.973
		c-0.117-0.264-0.322-0.422-0.611-0.477c0.311-0.07,0.555-0.244,0.742-0.525c0.189-0.285,0.283-0.633,0.283-1.039
		c0-0.334-0.068-0.625-0.207-0.871c-0.145-0.274-0.352-0.486-0.617-0.635c-0.217-0.119-0.477-0.197-0.777-0.234
		c-0.199-0.022-0.508-0.035-0.914-0.035h-2.209v6.527H559.435z M560.207,80.375v-2.289h1.557c0.305,0,0.523,0.009,0.662,0.022
		c0.205,0.033,0.369,0.093,0.488,0.175c0.146,0.096,0.256,0.219,0.328,0.368c0.08,0.158,0.121,0.334,0.121,0.526
		c0,0.433-0.121,0.738-0.367,0.921c-0.246,0.185-0.648,0.274-1.207,0.274L560.207,80.375L560.207,80.375z"/>
	<path fill="#E5E5E5" d="M560.436,84.912h-1h-0.002v-1v1v-1h-0.229h-0.768v-7.527h3.209c0.429,0,0.757,0.013,1.035,0.043l0,0
		c0.399,0.049,0.785,0.157,1.144,0.354l0,0c0.428,0.234,0.787,0.604,1,1.017l0,0c0.236,0.419,0.338,0.894,0.336,1.361l0,0
		c0.002,0.557-0.134,1.12-0.451,1.595l0,0c-0.013,0.021-0.026,0.041-0.041,0.061l0,0c0.164,0.395,0.204,0.75,0.265,1.287l0,0
		l0.07,0.963l0.21,0.188v0.449v1.208h-2.417l-0.279-0.543c-0.093-0.183-0.168-0.383-0.197-0.544l0,0
		c-0.051-0.211-0.068-0.39-0.081-0.565l0,0l-0.07-0.845c-0.007-0.135-0.021-0.246-0.034-0.332l0,0
		c-0.05-0.004-0.108-0.006-0.174-0.006l0,0h-0.757v2.837H560.436L560.436,84.912z M561.206,79.373l0.582-0.001
		c0.226,0,0.396-0.019,0.5-0.042l0,0c0.029-0.007,0.05-0.012,0.065-0.016l0,0c0.005-0.03,0.009-0.075,0.009-0.136l0,0
		c-0.001-0.032-0.004-0.049-0.009-0.063l0,0c-0.015-0.005-0.035-0.011-0.027-0.011l0,0c-0.08-0.009-0.28-0.02-0.563-0.02l0,0h-0.557
		V79.373L561.206,79.373z M559.434,83.912v1V83.912L559.434,83.912z"/>
</g>
<path fill="#E5E5E5" d="M555.467,80.648c0-3.486,2.807-6.316,6.286-6.355l0,0c0.023-0.002,0.047-0.003,0.07-0.003l0,0
	c3.508,0.002,6.354,2.846,6.355,6.358l0,0h-0.002c0,3.51-2.844,6.355-6.354,6.355l0,0C558.312,87.003,555.467,84.16,555.467,80.648
	L555.467,80.648z M557.467,80.648c0.004,2.407,1.948,4.352,4.356,4.356l0,0c2.403-0.005,4.35-1.953,4.354-4.356l0,0
	c-0.005-2.365-1.885-4.283-4.227-4.354l0,0h-0.128C559.416,76.297,557.471,78.242,557.467,80.648L557.467,80.648z M561.419,76.206
	c0.126,0.053,0.22,0.072,0.294,0.079l0,0c-0.088-0.01-0.173-0.031-0.255-0.063l0,0c-0.059-0.023-0.115-0.052-0.17-0.086l0,0
	c-0.013-0.008-0.025-0.017-0.038-0.025l0,0C561.31,76.153,561.369,76.185,561.419,76.206L561.419,76.206z M560.949,75.775
	c-0.002-0.003-0.003-0.005-0.005-0.008l0,0C560.946,75.77,560.947,75.772,560.949,75.775L560.949,75.775z M560.937,75.754
	c-0.002-0.004-0.003-0.007-0.005-0.01l0,0C560.934,75.748,560.935,75.75,560.937,75.754L560.937,75.754z M560.824,75.288
	c0-0.114,0.021-0.227,0.059-0.333l0,0C560.852,75.033,560.821,75.141,560.824,75.288L560.824,75.288z"/>
<g id="g3" transform="translate(-61.6856, -312.868)">
	<path id="path7" fill="#DE0029" d="M142.207,336.374l-0.099,89.525l-23.986-7.801v-105.23l30.618,8.096
		c19.599,5.267,31.592,15.507,31.398,33.45c-0.195,20.873-9.849,29.257-28.667,23.796v-41.154
		C151.469,332.08,142.207,331.789,142.207,336.374L142.207,336.374z"/>
	<path id="path9" fill="#F3C202" d="M107.102,400.738l-11.311,3.805c-7.314,2.537-13.554-3.412-6.826-5.854l5.46-1.947
		l-20.575-6.537c-6.338,2.148-12.288,6.73-11.896,13.168c0.39,6.533,15.309,8.096,26.815,9.947
		c10.726,1.754,20.477,0.779,29.351-2.342v-6.73L107.102,400.738L107.102,400.738z M142.302,425.9l20.965-7.313l-21.16-6.729v13.558
		L142.302,425.9L142.302,425.9z"/>
	<path id="path11" fill="#326DB3" d="M198.08,406.299l0.389-0.099c9.167-3.218,13.067-7.707,12.092-11.898
		c-1.56-7.021-12.773-10.826-30.033-12.094c-12.384-0.877-24.572,1.854-36.468,5.947l-1.95,0.686l21.355,6.633l12.48-4.197
		c13.067-2.436,18.333,1.854,5.755,5.854l-6.242,2.146L198.08,406.299L198.08,406.299z M118.122,375.286l-9.459,3.217l9.459,2.926
		V375.286L118.122,375.286z"/>
	<path id="path13" fill="#00AA9E" d="M163.268,418.585l34.812-12.286l-22.624-7.022l-33.348,11.41v1.17L163.268,418.585
		L163.268,418.585z M118.122,397.033l-11.019,3.705l11.019,3.512V397.033L118.122,397.033z M142.107,402.788v-13.945l21.355,6.631
		L142.107,402.788L142.107,402.788z M94.425,396.742l23.696-8.485v-6.826l-9.459-2.927l-34.324,11.605
		c-0.097,0-0.292,0.096-0.487,0.096L94.425,396.742L94.425,396.742z"/>
</g>
</svg>
