<?xml version="1.0" encoding="utf-8"?>
<!-- Generator: Adobe Illustrator 16.0.3, SVG Export Plug-In . SVG Version: 6.00 Build 0)  -->
<!DOCTYPE svg PUBLIC "-//W3C//DTD SVG 1.1//EN" "http://www.w3.org/Graphics/SVG/1.1/DTD/svg11.dtd">
<svg version="1.1" id="svg2" xmlns:svg="http://www.w3.org/2000/svg"
	 xmlns="http://www.w3.org/2000/svg" xmlns:xlink="http://www.w3.org/1999/xlink" x="0px" y="0px" width="566.929px"
	 height="142.564px" viewBox="0 0 566.929 142.564" enable-background="new 0 0 566.929 142.564" xml:space="preserve">
<g>
	<path id="path2952" fill="#FE0016" d="M0,0.016l29.727,142.532L59.3,0.016H43.294L29.727,80.124L16.007,0.016H0L0,0.016z"/>
	<path id="path3726" fill="#FE0016" d="M65.855,0.016h16.006v142.532H65.855V0.016L65.855,0.016z"/>
	<path id="path3728" fill="#FE0016" d="M96.181,0v142.554h16.012V68.899l22.266,73.653h14.762l-17.813-67.398
		c9.896-5.937,12.81-13.71,12.81-13.71V16.161C137.66,1.603,126.353,0,126.353,0H96.181z M112.193,14.51h16.012v49.536h-16.012
		V14.51z"/>
	<path id="path3733" fill="#FE0016" d="M149.24,0.016h47.867v14.481H181.1v128.05h-16.006V14.498H149.24V0.016L149.24,0.016z"/>
	<path id="path3735" fill="#FE0016" d="M285.67,0l-30.925,142.402v0.15h15.862l3.353-19.213h22.366l3.202,19.213h16.012L285.67,0
		L285.67,0z M285.67,61.443l7.305,49.085h-15.813L285.67,61.443z"/>
	<path id="path2882" fill="#FE0016" d="M321.955,0.016h16.008v128.049h23.935v14.482h-39.941L321.955,0.016L321.955,0.016z"/>
	<path id="path3660" fill="#FE0016" d="M493.148,0.016h14.634l14.938,61.435l13.568-61.435h16.156l-22.408,83.842v58.689h-16.006
		V83.859L493.148,0.016L493.148,0.016L493.148,0.016z"/>
	<path id="path3662" fill="#FE0016" d="M464.423,0.016c-18.193,0-24.041,16.146-24.041,16.146c0.15,0.229,0,107.181,0,110.23
		c2.412,17.326,24.041,16.156,24.041,16.156l0,0c24,0,23.992-16.156,23.992-16.156V16.161C482.21-0.783,464.423,0.016,464.423,0.016
		L464.423,0.016z M456.392,16.161h16.013v111.881h-16.013V16.161z"/>
	<path id="path3667" fill="#FE0016" d="M203.356,0.016h16.16V126.39h16.159V0.016h15.853V126.39c0,0-5.183,16.158-23.323,16.158
		c-18.14,0-24.849-16.158-24.849-16.158V0.016L203.356,0.016z"/>
	<path id="path3669" fill="#FE0016" d="M379.588,0v142.554h32.173c14.933-3.889,15.86-14.512,15.86-14.512
		s-0.024-38.076-0.024-47.918c-1.121-6.213-6.229-6.422-6.229-6.422s-0.021-1.732,0-3.102c5.645-0.432,6.254-6.555,6.254-6.555
		s-0.023-38.039,0-47.885C425.179,4.533,411.761,0,411.761,0H379.588z M395.649,16.26h16.11v47.785h-16.11V16.26z M395.599,78.507
		h16.16v49.535h-16.16V78.507L395.599,78.507z"/>
	<path id="path3699" fill="#FE0016" d="M539.72,128.066h11.125v1.656h-4.725v12.826h-1.602v-12.826h-4.801v-1.656H539.72z"/>
	<path id="path3713" fill="#FE0016" d="M552.447,142.548v-14.482h1.602l5.717,12.92l5.486-12.92h1.678v14.482h-1.678v-11.209
		l-4.73,11.209h-1.617l-4.854-11.209v11.209H552.447L552.447,142.548z"/>
</g>
</svg>
