<?xml version="1.0" encoding="utf-8"?>
<!-- Generator: Adobe Illustrator 13.0.0, SVG Export Plug-In . SVG Version: 6.00 Build 14948)  -->
<svg version="1.2" baseProfile="tiny" id="svg2" xmlns:svg="http://www.w3.org/2000/svg"
	 xmlns="http://www.w3.org/2000/svg" xmlns:xlink="http://www.w3.org/1999/xlink" x="0px" y="0px" width="564.703px"
	 height="165.918px" viewBox="0 0 564.703 165.918" xml:space="preserve">
<g id="layer1">
</g>
<g id="layer5">
</g>
<path fill="#008000" d="M92.609,29.581c6.181-6.782,9.402-16.306,9.846-29.116L102.471,0l-0.455,0.093
	C80.308,4.534,69.097,18.14,68.694,40.532l-0.008,0.436l0.431-0.067C79.458,39.282,87.142,35.578,92.609,29.581z"/>
<path fill="#0000FF" d="M17.902,144.756l0.399,0.574c3.588,5.176,7.703,10.211,12.229,14.971c3.447,3.623,8.938,5.617,15.46,5.617
	c4.78,0,9.736-1.124,12.935-2.934c6.618-3.74,10.125-3.748,12.685-3.752c0.514,0,0.994-0.002,1.456-0.029l0.418-0.027
	c0.554-0.035,1.126-0.074,1.771-0.074c2.27,0,5.66,0.445,11.823,3.928c4.301,1.805,8.472,2.718,12.397,2.718
	c0.001,0,0.001,0,0.002,0c10.686,0,20.056-6.688,28.644-20.431l0.351-0.561H17.902L17.902,144.756z"/>
<path fill="#008000" d="M129.742,59.003c1.429-1.424,2.969-2.828,4.623-4.208l0.277-0.231l-0.228-0.281
	c-8.055-9.936-19.085-15.294-31.897-15.496l-0.587-0.003c-6.493,0-12.235,1.217-16.604,3.519c-5.666,2.984-9.88,3.646-9.921,3.652
	c-0.074,0.01-0.538,0.028-1.81,0.028c-1.544,0-2.877-0.025-3.037-0.048l-0.102-0.013c-1.817-0.235-6.448-0.997-10.202-2.998
	c-5.102-2.72-10.786-4.159-16.437-4.159l-0.372,0.002c-14.942,0.167-27.433,7.448-35.194,20.236H129.742z"/>
<path fill="#FFFF00" d="M117.214,80.245c1.47-7.11,5.439-14.013,11.911-20.619l0.61-0.623H8.249L8.142,59.18
	c-3.723,6.178-6.189,13.324-7.36,21.064L117.214,80.245L117.214,80.245z"/>
<path fill="#FF6600" d="M120.06,101.229c-2.938-6.035-4.381-13.008-2.919-20.542l0.084-0.437H0.794L0.748,80.56
	c-0.985,6.711-0.985,13.658-0.074,20.668H120.06L120.06,101.229z"/>
<path fill="#FF0000" d="M6.393,123.243h133.058l0.779-1.685l-0.32-0.158c-6.368-3.153-14.905-10.055-19.765-19.967l-0.101-0.205
	H0.67l0.055,0.414C1.537,107.715,3.197,115.092,6.393,123.243z"/>
<path fill="#800080" d="M17.904,144.756H128.46c4.221-6.841,7.701-14.373,10.758-20.992l0.24-0.52H6.414l0.201,0.502
	C9.523,131.01,13.3,138.029,17.904,144.756z"/>
<path id="path4012_1_" fill="#808080" d="M373.914,38.527v78.112h18.555V38.527H373.914z M496.601,38.527V49.02h10.902
	c1.353,0,2.447,1.127,2.447,2.516v52.112c0,1.391-1.104,2.516-2.447,2.516h-10.902v10.514h29.365V38.527H496.601z M535.117,38.527
	v24.235v53.916h29.367v-10.514h-10.902c-1.354,0-2.447-1.125-2.447-2.516V51.536c0-1.389,1.094-2.516,2.447-2.516h10.902V38.527
	H535.117z M157.155,57.298c-8.841,0-16.031,2.907-22.043,8.88c-6.054,6.016-8.912,12.669-8.912,20.425
	c0,7.646,3.015,14.396,9.423,20.705c6.392,6.299,13.492,9.33,21.751,9.33h11.962v-13.74h-4.931c-4.734,0-8.978-1.547-12.291-4.563
	c-3.312-3.014-5.113-7.059-5.113-11.525c0-4.512,1.764-8.574,5.041-11.471c3.258-2.883,7.441-4.298,12.145-4.298h12.948
	c1.352,0,2.447,1.125,2.447,2.514v43.083h18.555V57.298H157.155z M210.318,57.298v78.114h18.573V73.555
	c0-1.389,1.096-2.514,2.447-2.514h12.053c5.064,0,9.608,1.756,13.167,5.162c3.29,3.152,5.131,7.128,5.131,11.433
	c0,4.451-1.977,8.449-5.534,11.205c-3.511,2.724-7.878,4.058-12.765,4.058h-4.255v13.74h12.51c8.708,0,15.867-2.806,21.916-8.521
	c6.044-5.714,8.93-12.373,8.93-20.576c0-8.5-2.894-15.452-8.913-21.4c-6.027-5.957-13.029-8.843-21.477-8.843L210.318,57.298
	L210.318,57.298z M292.117,57.298v78.114h18.555V73.555c0-1.389,1.101-2.514,2.447-2.514h12.071c5.063,0,9.605,1.756,13.166,5.162
	c3.292,3.152,5.132,7.128,5.132,11.433c0,4.457-1.998,8.453-5.554,11.205c-3.507,2.72-7.856,4.058-12.744,4.058h-4.257v13.74h12.511
	c8.707,0,15.847-2.804,21.896-8.521c6.045-5.714,8.938-12.373,8.938-20.576c0-8.5-2.896-15.452-8.913-21.4
	c-6.023-5.958-13.011-8.843-21.458-8.843L292.117,57.298L292.117,57.298z M438.763,57.298c-9.93,0-18.368,3.023-25.694,9.144
	c-7.346,6.136-10.721,12.707-10.721,20.255c0,9.113,3.479,16.156,10.864,21.889c6.922,5.357,15.299,8.053,25.441,8.053h37.182
	v-13.74h-35.283c-4.678,0-8.897-1.582-12.233-4.619c-3.357-3.057-5.188-7.188-5.188-11.784c0-4.388,1.765-8.339,4.986-11.189
	c3.25-2.873,7.531-4.26,12.436-4.26h12.056c0.938,0.001,1.791,0.553,2.196,1.419c0.408,0.867,0.3,1.896-0.278,2.654l-13.388,17.322
	h20.31l14.391-19.708V57.298H438.763z"/>
<linearGradient id="path4019_2_" gradientUnits="userSpaceOnUse" x1="345.3418" y1="32.959" x2="345.3418" y2="137.959">
	<stop  offset="0" style="stop-color:#BCBCBC"/>
	<stop  offset="1" style="stop-color:#5B5B5B"/>
</linearGradient>
<path id="path4019_1_" fill="url(#path4019_2_)" d="M373.694,38.42v78.566h18.993V38.42H373.694z M496.38,38.42v10.945h11.123
	c0.592-0.001,1.16,0.239,1.578,0.668c0.418,0.43,0.652,1.015,0.65,1.623v52.113c0.002,0.604-0.232,1.188-0.65,1.621
	c-0.418,0.43-0.986,0.67-1.578,0.668H496.38v10.965h29.808V38.42H496.38z M534.898,38.42v24.461v54.143h29.805v-10.963h-11.121
	c-0.592,0.002-1.16-0.238-1.578-0.668c-0.418-0.434-0.652-1.016-0.645-1.621V51.657c-0.009-0.608,0.229-1.193,0.645-1.623
	c0.418-0.43,0.986-0.67,1.578-0.668h11.121V38.42H534.898z M157.155,57.194c-8.891,0-16.138,2.923-22.189,8.936
	c-6.09,6.05-8.985,12.775-8.985,20.591c0,7.713,3.035,14.527,9.479,20.879c6.426,6.332,13.601,9.387,21.915,9.387h12.181v-14.188
	h-5.149c-4.688,0-8.873-1.522-12.145-4.506c-3.271-2.979-5.041-6.949-5.041-11.354c0-4.458,1.735-8.425,4.968-11.286
	c3.214-2.846,7.337-4.263,11.998-4.263h12.948c0.592-0.001,1.16,0.239,1.577,0.669c0.418,0.43,0.653,1.015,0.651,1.62v43.313h18.993
	V57.194H157.155z M210.098,57.194v78.564h19.012V73.674c-0.002-0.605,0.232-1.19,0.65-1.62c0.418-0.43,0.986-0.67,1.577-0.669
	h12.053c5.016,0,9.501,1.74,13.021,5.106c3.255,3.119,5.06,7.022,5.06,11.264c0,4.388-1.951,8.302-5.46,11.021
	c-3.47,2.688-7.771,4.021-12.62,4.021h-4.475v14.189h12.729c8.756,0,15.991-2.824,22.08-8.582
	c6.084-5.745,8.984-12.479,8.984-20.739c0-8.559-2.909-15.583-8.967-21.569c-6.065-5.995-13.142-8.899-21.641-8.899L210.098,57.194
	L210.098,57.194z M291.896,57.194v78.564h18.992V73.674c-0.001-0.605,0.231-1.19,0.649-1.62c0.42-0.43,0.983-0.67,1.58-0.669h12.065
	c5.021,0,9.501,1.74,13.021,5.106c3.254,3.119,5.06,7.022,5.061,11.264c-0.001,4.396-1.973,8.304-5.479,11.021
	c-3.469,2.688-7.754,4.021-12.604,4.021h-4.479v14.189h12.729c8.758,0,15.975-2.822,22.063-8.582
	c6.086-5.745,8.983-12.479,8.983-20.739c0-8.559-2.905-15.583-8.967-21.569c-6.063-5.997-13.124-8.899-21.623-8.899L291.896,57.194
	L291.896,57.194z M438.763,57.194c-9.973,0-18.477,3.027-25.842,9.18c-7.381,6.166-10.793,12.823-10.793,20.442
	c0,9.178,3.506,16.309,10.938,22.078c6.964,5.387,15.401,8.092,25.588,8.092h37.397v-14.193H440.55
	c-4.633,0-8.795-1.561-12.09-4.561c-3.313-3.021-5.113-7.082-5.113-11.623c0-4.33,1.734-8.188,4.912-11
	c3.205-2.834,7.428-4.225,12.291-4.225h12.056c0.854-0.002,1.641,0.503,2.01,1.296c0.371,0.794,0.264,1.736-0.273,2.422
	L440.68,92.787h20.875l14.502-19.862V57.194H438.763z"/>
</svg>
