<?xml version="1.0" encoding="utf-8"?>
<!-- Generator: Adobe Illustrator 13.0.0, SVG Export Plug-In . SVG Version: 6.00 Build 14948)  -->
<svg version="1.2" baseProfile="tiny" id="svg101576" xmlns:svg="http://www.w3.org/2000/svg"
	 xmlns="http://www.w3.org/2000/svg" xmlns:xlink="http://www.w3.org/1999/xlink" x="0px" y="0px" width="566.929px"
	 height="78.275px" viewBox="0 0 566.929 78.275" xml:space="preserve">
<path id="path100608" fill="#999999" d="M347.884,70.38c0,0.83-0.682,1.578-1.521,1.578h-29.102c-0.848,0-1.527-0.748-1.527-1.578
	V49.358c0-0.832,0.682-1.496,1.527-1.496h29.102c0.84,0,1.521,0.664,1.521,1.496V70.38z M346.621,41.546H317
	c-4.287,0-7.787,3.49-7.787,7.813v21.104c0,4.236,3.5,7.813,7.787,7.813h29.621c4.297,0,7.787-3.574,7.787-7.813V49.358
	C354.408,45.036,350.917,41.546,346.621,41.546"/>
<path id="path100618" fill="#C91818" d="M6.797,9.969c0,0,0,26.758,0,27.174c-0.357,0-6.433,0-6.797,0C0,36.727,0,0.829,0,0.414
	c0.382,0,5.633,0,5.808,0L33.337,27.17c0,0,0-26.341,0-26.756c0.374,0,5.442,0,5.442,0s0.964,0,1.264,0c0,0.416,0,36.313,0,36.729
	c-0.366,0-5.127,0-5.311,0L6.797,9.969"/>
<path id="path100622" fill="#C91818" d="M74.943,9.969c0,0,0,26.758,0,27.174c-0.366,0-6.423,0-6.797,0c0-0.416,0-36.313,0-36.729
	c0.382,0,5.625,0,5.8,0l27.529,26.756c0,0,0-26.341,0-26.756c0.374,0,5.451,0,5.451,0s0.972,0,1.263,0c0,0.416,0,36.313,0,36.729
	c-0.374,0-5.127,0-5.31,0L74.943,9.969"/>
<path id="path100626" fill="#C91818" d="M216.179,9.969c0,0,0,26.758,0,27.174c-0.375,0-6.424,0-6.797,0c0-0.416,0-36.313,0-36.729
	c0.382,0,5.635,0,5.8,0l27.529,26.756c0,0,0-26.341,0-26.756c0.374,0,5.45,0,5.45,0s0.973,0,1.264,0c0,0.416,0,36.313,0,36.729
	c-0.374,0-5.127,0-5.301,0L216.179,9.969"/>
<path id="path100630" fill="#C91818" d="M56.23,0.414c0,0,0.964,0,1.255,0c0,0.416,0,36.313,0,36.729c-0.356,0-6.431,0-6.797,0
	c0-0.416,0-36.313,0-36.729C51.062,0.414,56.23,0.414,56.23,0.414"/>
<path id="path100634" fill="#C91818" d="M154.482,0.414c0,0,0.947,0,1.246,0c0,0.333,0,5.983,0,6.315c-0.398,0-16.386,0-16.386,0
	s0,29.997,0,30.413c-0.366,0-6.697,0-7.063,0c0-0.416,0-30.413,0-30.413s-15.986,0-16.386,0c0-0.332,0-5.983,0-6.315
	C116.299,0.414,154.482,0.414,154.482,0.414"/>
<path id="path100638" fill="#C91818" d="M198.023,0.414c0,0,0.98,0,1.271,0c0,0.333,0,5.983,0,6.315c-0.391,0-29.134,0-29.134,0
	v8.226c0,0,22.153,0,22.536,0c0,0.416,0,5.9,0,6.316c-0.383,0-22.536,0-22.536,0v9.555c0,0,28.743,0,29.134,0c0,0.333,0,5.9,0,6.315
	c-0.391,0-35.474,0-35.863,0c0-0.416,0-36.313,0-36.729C163.821,0.414,198.023,0.414,198.023,0.414"/>
<path id="path100642" fill="#C91818" d="M287.216,30.827h-20.874V6.731h20.874c6.531,0,8.852,6.479,8.852,12.049
	C296.066,24.262,293.75,30.827,287.216,30.827z M298.369,5.817c-2.658-3.573-6.59-5.401-11.344-5.401c0,0-26.838,0-27.238,0
	c0,0.416,0,36.313,0,36.729c0.398,0,27.238,0,27.238,0c4.754,0,8.686-1.911,11.344-5.401c2.492-3.24,3.813-7.728,3.813-12.962
	C302.181,13.543,300.861,9.057,298.369,5.817"/>
<path id="path100646" fill="#C91818" d="M347.884,29.331c0,0.748-0.682,1.496-1.521,1.496h-29.102c-0.848,0-1.527-0.748-1.527-1.496
	V8.226c0-0.831,0.682-1.496,1.527-1.496h29.102c0.84,0,1.521,0.665,1.521,1.496V29.331z M346.621,0.414H317
	c-4.287,0-7.787,3.49-7.787,7.813v21.104c0,4.321,3.5,7.813,7.787,7.813h29.621c4.297,0,7.787-3.49,7.787-7.813V8.226
	C354.408,3.906,350.917,0.414,346.621,0.414"/>
<path id="path100656" fill="#C91818" d="M470.017,62.737c7.045,2.824,21.928,5.066,33.545,5.066c12.713,0,17.973-4.32,17.973-9.806
	c0-4.985-4.887-7.811-18.92-12.963c-18.771-6.896-32.541-12.38-32.541-24.762c0-12.713,16.57-20.274,41.822-20.274
	c13.561,0,18.215,0.831,26.822,2.41l0.066,12.131c-8.459-1.578-15.955-4.321-27.598-4.321c-12.479,0-17.799,3.988-17.799,8.063
	c0,5.9,8.191,8.725,22.563,13.876c20,7.146,31.127,12.629,31.127,24.68c0,12.463-13.938,21.438-45.361,21.438
	c-12.904,0-21.805-0.832-31.699-2.492V62.737"/>
<path id="path100660" fill="#C91818" d="M403.125,10.719h-14.955v56.671h14.955c22.961,0,37.443-9.89,37.443-28.252
	C440.568,20.773,426.085,10.719,403.125,10.719z M443.269,72.624c-7.396,3.324-21.391,5.484-33.621,5.484H362.9V0.165h46.748
	c12.23,0,26.225,2.16,33.637,5.484c18.008,8.143,23.873,21.188,23.873,33.485C467.158,51.436,461.341,64.481,443.269,72.624"/>
<path id="path100678" fill="#C91818" d="M551.773,66.475h-3v-1.08h7.305v1.08h-3.016V75.2h-1.289V66.475"/>
<path id="path100682" fill="#C91818" d="M565.443,70.878c-0.076-1.328-0.158-2.989-0.158-4.235h-0.033
	c-0.35,1.162-0.748,2.407-1.246,3.737l-1.736,4.82h-0.965l-1.609-4.736c-0.467-1.414-0.85-2.659-1.121-3.821h-0.033
	c-0.025,1.246-0.104,2.907-0.186,4.319l-0.268,4.238h-1.213l0.689-9.807h1.621l1.68,4.735c0.406,1.246,0.73,2.326,0.996,3.324h0.025
	c0.266-0.998,0.613-2.078,1.055-3.324l1.754-4.735h1.619l0.615,9.807h-1.254L565.443,70.878"/>
</svg>
