<?xml version="1.0" encoding="utf-8"?>
<!-- Generator: Adobe Illustrator 13.0.0, SVG Export Plug-In . SVG Version: 6.00 Build 14948)  -->
<svg version="1.2" baseProfile="tiny" xmlns="http://www.w3.org/2000/svg" xmlns:xlink="http://www.w3.org/1999/xlink" x="0px"
	 y="0px" width="110.5px" height="47.963px" viewBox="157.682 -16.521 110.5 47.963" xml:space="preserve">
<g id="Ebene_1" xmlns:svg="http://www.w3.org/2000/svg">
	<g>
		<path id="path5_1_" fill="#514D49" d="M179.621-16.521h66.623c12.066,0,21.939,10.791,21.939,23.981l0,0
			c0,13.191-9.873,23.982-21.939,23.982h-66.623c-12.066,0-21.938-10.791-21.938-23.982l0,0
			C157.682-5.729,167.554-16.521,179.621-16.521L179.621-16.521z"/>
		<path id="path5" fill="#6F685F" d="M181.076-13.271h63.711c11.541,0,20.982,9.441,20.982,20.981l0,0
			c0,11.541-9.441,20.982-20.982,20.982h-63.711c-11.541,0-20.981-9.441-20.981-20.982l0,0
			C160.094-3.829,169.535-13.271,181.076-13.271L181.076-13.271z"/>
		<g>
			<path d="M206.783,17.384c-1.651-1.479-2.403-3.939-2.403-7.279l0,0V5.7c0-3.32,0.752-5.77,2.403-7.248l0,0
				c1.665-1.469,4.445-2.114,8.353-2.121l0,0h3.499c3.22,0.002,5.676,0.425,7.4,1.339l0,0c1.725,0.9,2.682,2.375,2.666,4.19l0,0
				V3.94h-9.223v-0.5V2.876c-0.009-0.441-0.108-0.533-0.182-0.573l0,0c-0.125-0.079-0.697-0.187-1.556-0.181l0,0h-1.956
				c-1.072-0.013-1.782,0.121-1.889,0.206l0,0c-0.057,0.011-0.217,0.221-0.215,0.843l0,0v2.242c1.133-0.464,2.449-0.688,3.938-0.688
				l0,0h2.889c2.956,0.004,5.177,0.489,6.665,1.568l0,0c1.488,1.08,2.229,2.797,2.219,4.941l0,0l0.002,1.934v0.002
				c0.014,2.094-0.975,3.78-2.818,4.809l0,0c-1.836,1.039-4.476,1.521-7.941,1.523l0,0l-3.499,0.002
				C211.228,19.498,208.448,18.849,206.783,17.384L206.783,17.384z M246.447,19.235v-4.049h-14.861l0.047-6.602l12.057-11.984
				h11.979l-0.002,12.797h3.504v5.289v0.5h-3.502v4.049H246.447L246.447,19.235z M217.741,13.681
				c1.216,0.009,2.024-0.094,2.212-0.188l0,0c0.09-0.037,0.206-0.127,0.219-0.649l0,0v-1.577c-0.019-0.471-0.106-0.528-0.237-0.594
				l0,0c-0.207-0.096-1.004-0.193-2.193-0.187l0,0h-1.587c-1.196-0.007-1.998,0.083-2.233,0.181l0,0
				c-0.131,0.059-0.216,0.106-0.239,0.598l0,0v1.577c0.019,0.517,0.119,0.589,0.252,0.649l0,0c0.228,0.098,1.027,0.196,2.221,0.189
				l0,0H217.741L217.741,13.681z M241.025,9.397h5.422l-0.002-5.457L241.025,9.397L241.025,9.397z"/>
			<g>
				<linearGradient id="path17_1_" gradientUnits="userSpaceOnUse" x1="220.4409" y1="-5.7192" x2="243.1284" y2="21.6558">
					<stop  offset="0" style="stop-color:#FFFFFF"/>
					<stop  offset="0.1624" style="stop-color:#8A8A8A"/>
					<stop  offset="0.2081" style="stop-color:#A0A0A0"/>
					<stop  offset="0.3604" style="stop-color:#BFBFBF"/>
					<stop  offset="0.4569" style="stop-color:#848484"/>
					<stop  offset="0.6497" style="stop-color:#ACACAC"/>
					<stop  offset="0.802" style="stop-color:#909090"/>
					<stop  offset="0.8579" style="stop-color:#D0D0D0"/>
					<stop  offset="1" style="stop-color:#929292"/>
				</linearGradient>
				<path id="path17" fill="url(#path17_1_)" d="M228.851,13.214c0,3.889-3.418,5.832-10.258,5.832h-3.5
					c-3.854,0-6.525-0.666-8.018-1.992c-1.494-1.33-2.238-3.633-2.238-6.906V5.743c0-3.254,0.744-5.545,2.238-6.875
					c1.492-1.33,4.164-1.994,8.018-1.994h3.5c3.176,0,5.564,0.427,7.164,1.28c1.602,0.854,2.402,2.104,2.402,3.75v1.578h-8.223
					V2.917c0-0.516-0.148-0.854-0.447-1.013c-0.299-0.158-0.896-0.239-1.791-0.239h-1.955c-1.111,0-1.824,0.091-2.135,0.27
					c-0.314,0.178-0.469,0.604-0.469,1.279v3.033c1.191-0.653,2.672-0.979,4.438-0.979h2.889c2.904,0,5.027,0.491,6.371,1.472
					c1.342,0.982,2.014,2.496,2.014,4.539v1.934l0,0V13.214z M258.626,14.729h-3.5v4.049h-8.221v-4.049h-14.857l0.041-5.892
					l11.764-11.695h11.273V9.939h3.5V14.729L258.626,14.729L258.626,14.729z M246.906,9.939V2.769l-7.123,7.171H246.906
					L246.906,9.939z M220.63,12.886V11.31c0-0.559-0.184-0.909-0.551-1.058c-0.365-0.147-1.16-0.224-2.381-0.224h-1.586
					c-1.223,0-2.023,0.069-2.402,0.21c-0.381,0.137-0.57,0.493-0.57,1.069v1.576c0,0.598,0.189,0.969,0.57,1.115
					c0.379,0.148,1.18,0.225,2.402,0.225h1.586c1.248,0,2.049-0.074,2.402-0.225C220.453,13.854,220.63,13.481,220.63,12.886
					L220.63,12.886z"/>
			</g>
		</g>
		<g>
			<g>
				<path d="M195.475,7.601h0.211l7.037,7.242h-15.359l0,0V7.601H195.475"/>
				<path d="M201.543,0.079h1.195l-7.143,7.242h-8.234l0,0V0.079H201.543"/>
				<path d="M183.162,23.737c-8.729-0.017-16.485-6.963-16.489-16.318l0,0c0.008-9.095,7.656-16.398,16.403-16.404l0,0
					c1.657,0,2.845,0.182,4.487,0.617l0,0l0.375,0.097v8.423v0.874l-0.754-0.444c-1.402-0.819-2.658-1.21-4.196-1.214l0,0
					c-4.415,0.008-7.702,3.605-7.71,7.879l0,0c0.01,4.09,3.386,7.785,7.798,7.793l0,0c1.479-0.008,2.265-0.217,4.138-1.143l0,0
					l0.723-0.363v9.4l-0.367,0.099c-1.873,0.514-2.818,0.704-4.382,0.704l0,0C183.179,23.737,183.169,23.737,183.162,23.737
					L183.162,23.737z"/>
			</g>
			<g>
				<g>
					<polygon fill="#C60000" points="195.489,8.103 187.877,8.103 187.877,14.345 201.557,14.345 195.489,8.103 					"/>
				</g>
				<g>
					<polygon fill="#0461A0" points="201.557,0.579 187.877,0.579 187.877,6.82 195.401,6.82 201.557,0.579 					"/>
				</g>
				<g>
					<path fill="#0461A0" d="M187.45,0.151v-8.036c-1.625-0.428-2.738-0.6-4.358-0.6c-8.467,0-15.904,7.099-15.904,15.903
						c0,9.064,7.521,15.818,15.988,15.818c1.538,0,2.394-0.172,4.274-0.686v-8.207c-1.883,0.938-2.82,1.195-4.358,1.195
						c-4.703,0-8.297-3.932-8.297-8.293c0-4.529,3.506-8.379,8.209-8.379C184.629-1.132,185.997-0.704,187.45,0.151L187.45,0.151z"
						/>
				</g>
			</g>
		</g>
	</g>
</g>
<g id="Layer_2">
</g>
</svg>
