<?xml version="1.0" encoding="UTF-8"?>
<svg width="64" height="64" version="1.1" viewBox="0 0 64 64" xmlns="http://www.w3.org/2000/svg">
 <circle id="outline_east" cx="50" cy="32" r="10" fill="none" stroke="#fff" stroke-width="2"/>
 <circle id="outline_south" cx="32" cy="50" r="10" fill="none" stroke="#fff" stroke-width="2"/>
 <circle id="outline_north" cx="32" cy="14" r="10" fill="none" stroke="#fff" stroke-width="2"/>
 <circle id="outline_west" cx="14" cy="32" r="10" fill="none" stroke="#fff" stroke-width="2"/>
 <path id="button_south" d="m32 40a10 10 0 0 0-10 10 10 10 0 0 0 10 10 10 10 0 0 0 10-10 10 10 0 0 0-10-10zm-3.507812 4.289062h3.15625c1.270833 0 2.195312 0.23698 2.773437 0.710938s0.867187 1.229167 0.867187 2.265625c0 0.661458-0.15625 1.229167-0.46875 1.703125-0.213541 0.338542-0.520833 0.583333-0.921874 0.734375 0.557291 0.213542 0.963541 0.536458 1.21875 0.96875 0.260416 0.427083 0.390624 0.979167 0.390624 1.65625 0 1.052083-0.304687 1.877604-0.914062 2.476563-0.604167 0.59375-1.416667 0.895833-2.4375 0.90625h-3.664062v-11.421876zm2.601562 2.117188v2.34375h0.617188c0.307291 0 0.526041-0.098958 0.65625-0.296875 0.130208-0.203125 0.195312-0.505208 0.195312-0.90625 0-0.40625-0.075521-0.697917-0.226562-0.875-0.145834-0.177083-0.380209-0.265625-0.703126-0.265625h-0.539062zm0 4.398438v2.765624h0.710938c0.625 0 0.9375-0.48177 0.9375-1.445312 0-0.880208-0.322917-1.320312-0.96875-1.320312h-0.679688z" fill="#fff"/>
</svg>
