<?xml version="1.0" encoding="UTF-8"?>
<svg width="64" height="64" version="1.1" viewBox="0 0 64 64" xmlns="http://www.w3.org/2000/svg">
 <circle id="outline" cx="32" cy="32" r="28" fill="none" stroke="#fff" stroke-width="2"/>
 <path id="button_xing" d="m32 4a28 28 0 0 0-28 28 28 28 0 0 0 28 28 28 28 0 0 0 28-28 28 28 0 0 0-28-28zm-14.021 11.98a2.0002 2.0002 0 0 1 1.4355 0.60547l12.586 12.586 12.586-12.586a2.0002 2.0002 0 0 1 1.375-0.60547 2.0002 2.0002 0 0 1 1.4531 3.4336l-12.586 12.586 12.586 12.586a2.0002 2.0002 0 1 1-2.8281 2.8281l-12.586-12.586-12.586 12.586a2.0002 2.0002 0 1 1-2.8281-2.8281l12.586-12.586-12.586-12.586a2.0002 2.0002 0 0 1 1.3926-3.4336z" fill="#fff"/>
</svg>
