<?xml version="1.0" encoding="UTF-8"?>
<svg width="64" height="64" version="1.1" viewBox="0 0 64 64" xmlns="http://www.w3.org/2000/svg">
 <circle id="outline" cx="32" cy="32" r="28" fill="none" stroke="#fff" stroke-width="2"/>
 <path id="button_b" d="m32 4a28 28 0 0 0-28 28 28 28 0 0 0 28 28 28 28 0 0 0 28-28 28 28 0 0 0-28-28zm-8.242188 13.78125h7.890626c3.177083 0 5.488281 0.592448 6.933593 1.777344 1.445313 1.184896 2.167969 3.072916 2.167969 5.664062 0 1.653646-0.390625 3.072917-1.171875 4.257813-0.533854 0.846354-1.302083 1.458333-2.304687 1.835937 1.393229 0.533854 2.408854 1.341146 3.046874 2.421875 0.651042 1.067709 0.976563 2.447917 0.976563 4.140625 0 2.630209-0.761719 4.694011-2.285156 6.191406-1.510417 1.484376-3.541667 2.239584-6.09375 2.265626h-9.160157v-28.554688zm6.503907 5.292969v5.859375h1.542969c0.768229 0 1.315104-0.247396 1.640624-0.742188 0.325521-0.507812 0.488282-1.263021 0.488282-2.265625 0-1.015625-0.188802-1.744791-0.566406-2.1875-0.364584-0.442708-0.950521-0.664062-1.757813-0.664062h-1.347656zm0 10.996093v6.914063h1.777343c1.5625 0 2.34375-1.204427 2.34375-3.613281 0-2.200521-0.807291-3.300782-2.421874-3.300782h-1.699219z" fill="#fff"/>
</svg>
