<?xml version="1.0" encoding="UTF-8"?>
<svg width="64" height="64" version="1.1" viewBox="0 0 64 64" xmlns="http://www.w3.org/2000/svg">
 <path id="outline" d="M15,19 L49,19 A13,13 90 0,1 62,32 A13,13 90 0,1 49,45 L15,45 A13,13 90 0,1 2,32 A13,13 90 0,1 15,19 Z"  fill="none" stroke="#fff" stroke-linejoin="round" stroke-width="2"/>
 <path id="button_r" d="m15 19a13 13 0 0 0-13 13 13 13 0 0 0 13 13h34a13 13 0 0 0 13-13 13 13 0 0 0-13-13h-34zm12.330078 4.433594h4.546875c1.882813 0 3.273438 0.425781 4.171875 1.277344 0.898438 0.851562 1.347656 2.15625 1.347656 3.914062 0 2.039062-0.699218 3.519531-2.097656 4.441406l3.28125 7.5h-4.324219l-2.625-6.46875h-0.210937v6.46875h-4.089844v-17.132812zm4.089844 3.175781v4.324219h0.304687c0.539063 0 0.929688-0.183594 1.171875-0.550782 0.25-0.367187 0.375-0.921874 0.375-1.664062 0-0.75-0.128906-1.289062-0.386718-1.617188-0.25-0.328124-0.644532-0.492187-1.183594-0.492187h-0.28125z" fill="#fff"/>
</svg>
