<?xml version="1.0" encoding="UTF-8"?>
<svg width="64" height="64" version="1.1" viewBox="0 0 64 64" xmlns="http://www.w3.org/2000/svg">
 <path id="outline" d="m2 42a7 7 0 0 1 7-7h46a7 7 0 0 1 7 7 7 7 0 0 1-7 7h-46a7 7 0 0 1-7-7z" fill="#fff" stroke="#fff" stroke-linejoin="round" stroke-width="2"/>
 <g id="label_start" fill="#fff">
  <path d="m11.02832 26.665543q0.517578 0 0.791016-0.341797 0.273437-0.351563 0.273437-0.84961 0-0.507812-0.146484-0.859375-0.146484-0.361328-0.429687-0.664062-0.283204-0.302735-0.53711-0.498047-0.24414-0.205078-0.615234-0.46875-1.2792971-0.898438-1.8945314-1.894531-0.6054688-0.996094-0.6054688-2.353516 0-1.875 1.1230469-2.96875 1.1328123-1.103516 2.9199223-1.103516 1.787109 0 3.52539 1.044922l-1.044922 2.509766q-0.05859-0.0293-0.302734-0.15625-0.244141-0.136719-0.3125-0.166016-0.06836-0.03906-0.283203-0.136718-0.214844-0.107422-0.302735-0.146485l-0.263671-0.09766q-0.429688-0.166016-0.830079-0.166016-0.390625 0-0.625 0.361328-0.224609 0.351563-0.224609 0.859375 0 0.498047 0.126953 0.830079 0.126953 0.332031 0.390625 0.615234 0.449219 0.46875 1.103516 0.898437 1.298828 0.878907 1.953125 1.855469 0.664062 0.966797 0.664062 2.333985 0 2.041015-1.09375 3.134765-1.09375 1.083985-3.115234 1.083985-2.0117188 0-3.5156251-0.84961v-3.203125q2.1289063 1.396485 3.2714841 1.396485z"/>
  <path d="m25.149414 17.544449h-2.65625v11.591797h-3.398437v-11.591797h-2.65625v-2.685547h8.710937z"/>
  <path d="m36.760742 29.136246h-3.4375l-0.791015-3.496094h-2.88086l-0.791015 3.496094h-3.427735l3.544922-14.335938h4.228516zm-4.814453-6.201172-0.849609-3.759766q-0.15625 0.751953-0.830078 3.759766z"/>
  <path d="m38.108398 14.858902h3.789063q2.353516 0 3.476562 1.064453 1.123047 1.064453 1.123047 3.261719 0 2.548828-1.748047 3.701172l2.734375 6.25h-3.603515l-2.1875-5.390625h-0.175781v5.390625h-3.408204zm3.408204 2.646484v3.603516h0.253906q0.673828 0 0.976562-0.458984 0.3125-0.458985 0.3125-1.386719 0-0.9375-0.322265-1.347656-0.3125-0.410157-0.986328-0.410157z"/>
  <path d="m56.243164 17.544449h-2.65625v11.591797h-3.398437v-11.591797h-2.65625v-2.685547h8.710937z"/>
 </g>
</svg>
