<?xml version="1.0" encoding="UTF-8"?>
<svg width="64" height="64" version="1.1" viewBox="0 0 64 64" xmlns="http://www.w3.org/2000/svg">
 <path id="outline" d="M15,19 L49,19 A13,13 90 0,1 62,32 A13,13 90 0,1 49,45 L15,45 A13,13 90 0,1 2,32 A13,13 90 0,1 15,19 Z"  fill="none" stroke="#fff" stroke-linejoin="round" stroke-width="2"/>
 <path id="button_l" d="m15 19a13 13 0 0 0-13 13 13 13 0 0 0 13 13h34a13 13 0 0 0 13-13 13 13 0 0 0-13-13h-34zm12.804688 4.433594h4.101562v13.921875h4.289062v3.210937h-8.390624v-17.132812z" fill="#fff"/>
</svg>
