<?xml version="1.0" encoding="UTF-8"?>
<svg width="64" height="64" version="1.1" viewBox="0 0 64 64" xmlns="http://www.w3.org/2000/svg">
 <path id="outline" d="m2 42a7 7 0 0 1 7-7h46a7 7 0 0 1 7 7 7 7 0 0 1-7 7h-46a7 7 0 0 1-7-7z" fill="#fff" stroke="#fff" stroke-linejoin="round" stroke-width="2"/>
 <g id ="label_select" fill="#fff">
  <path d="m7.5908203 26.665543q0.5175781 0 0.7910156-0.341797 0.2734375-0.351563 0.2734375-0.84961 0-0.507812-0.1464843-0.859375-0.1464844-0.361328-0.4296875-0.664062-0.2832032-0.302735-0.5371094-0.498047-0.2441406-0.205078-0.6152344-0.46875-1.2792969-0.898438-1.8945312-1.894531-0.6054688-0.996094-0.6054688-2.353516 0-1.875 1.1230469-2.96875 1.1328125-1.103516 2.9199219-1.103516t3.5253904 1.044922l-1.044922 2.509766q-0.05859-0.0293-0.302734-0.15625-0.244141-0.136719-0.3125-0.166016-0.06836-0.03906-0.283203-0.136718-0.2148439-0.107422-0.3027346-0.146485l-0.2636718-0.09766q-0.4296875-0.166016-0.8300782-0.166016-0.390625 0-0.625 0.361328-0.2246093 0.351563-0.2246093 0.859375 0 0.498047 0.1269531 0.830079 0.1269531 0.332031 0.390625 0.615234 0.4492187 0.46875 1.1035156 0.898437 1.2988282 0.878907 1.9531252 1.855469 0.664062 0.966797 0.664062 2.333985 0 2.041015-1.09375 3.134765-1.0937497 1.083985-3.1152341 1.083985-2.0117187 0-3.515625-0.84961v-3.203125q2.1289063 1.396485 3.2714844 1.396485z"/>
  <path d="m21.125977 17.505386h-3.66211v2.88086h3.398438v2.65625h-3.398438v3.417968h3.66211v2.675782h-7.080079v-14.277344h7.080079z"/>
  <path d="m26.838867 26.460464h3.574219v2.675782h-6.992188v-14.277344h3.417969z"/>
  <path d="m39.602539 17.505386h-3.662109v2.88086h3.398437v2.65625h-3.398437v3.417968h3.662109v2.675782h-7.080078v-14.277344h7.080078z"/>
  <path d="m46.643555 29.321793q-1.181641 0-2.109375-0.400391-0.917969-0.410156-1.503907-1.083984-0.585937-0.673829-0.966796-1.63086-0.69336-1.738281-0.69336-4.189453 0-1.933594 0.488281-3.564453 0.488282-1.650391 1.660157-2.714844 1.210937-1.074219 3.164062-1.074219 0.859375 0 1.650391 0.253907 0.800781 0.253906 1.728515 0.849609l-0.976562 2.412109q-0.07813-0.07813-0.380859-0.253906-0.302735-0.185547-0.556641-0.292969-0.673828-0.302734-1.259766-0.302734-0.576172 0-0.947265 0.341797-0.371094 0.332031-0.576172 0.820312-0.205078 0.488282-0.322266 1.171875-0.205078 1.103516-0.205078 2.373047 0 4.609375 2.099609 4.609375 0.917969 0 2.72461-1.035156v2.880859q-1.279297 0.830079-3.017578 0.830079z"/>
  <path d="m59.680664 17.544449h-2.65625v11.591797h-3.398437v-11.591797h-2.65625v-2.685547h8.710937z"/>
 </g>
</svg>
