<?xml version="1.0" encoding="utf-8"?>
<!-- Generator: Adobe Illustrator 13.0.0, SVG Export Plug-In . SVG Version: 6.00 Build 14948)  -->
<!DOCTYPE svg PUBLIC "-//W3C//DTD SVG 1.1//EN" "http://www.w3.org/Graphics/SVG/1.1/DTD/svg11.dtd">
<svg version="1.1" id="Ebene_1" xmlns="http://www.w3.org/2000/svg" xmlns:xlink="http://www.w3.org/1999/xlink" x="0px" y="0px"
	 width="566.929px" height="129.21px" viewBox="0 0 566.929 129.21" enable-background="new 0 0 566.929 129.21"
	 xml:space="preserve">
<g id="Ebene_2">
</g>
<g>
	<g enable-background="new    ">
		<g>
			<g>
				<linearGradient id="SVGID_1_" gradientUnits="userSpaceOnUse" x1="280.5195" y1="41.1528" x2="280.5195" y2="128.0767">
					<stop  offset="0.3503" style="stop-color:#F8F8F8"/>
					<stop  offset="0.7157" style="stop-color:#C9C9C9"/>
				</linearGradient>
				<path fill="url(#SVGID_1_)" d="M314.466,41.153l29.807,0.189c0.568,0,4.658,0.663-0.453,1.999
					c-4.084,1.063-7.43,0.661-8.764,5.979l-16.086,64.575c-1.336,5.769,3.152,10.742,8.955,12.301c1.313,0.32,1.393,1.715-0.158,1.8
					l-19.586-0.724l-23.795,0.805c-1.728,0-1.795-1.794,0.085-2.125c5.562-0.567,10.478-5.151,11.548-8.913l15.643-56.077
					c0.002-0.846-0.436-1.287-0.914-1.287c-0.35,0-0.723,0.236-0.965,0.719l-44.044,63.917c-1.22,1.967-3.14,3.271-4.838,3.271
					c-1.835,0-3.412-1.521-3.578-5.375l-4.433-59.588c-0.048-0.826-0.744-1.454-1.438-1.454c-0.478,0-0.956,0.297-1.222,1.029
					l-15.107,47.273c-1.237,3.593-1.325,7.104,0.147,9.646c1.463,2.611,5.229,5.803,9.64,6.701c1.714,0.412,1.628,2.125-0.004,2.209
					l-15.824-0.662l-13.293,0.498c-1.561-0.084-1.393-1.631,0.004-1.883c4.578-0.979,9.826-5.638,12.205-12.267l19.571-62.897
					c0.821-2.376-0.476-5.236-2.852-5.804l-6.055-1.229c-1.063-0.082-1.215-1.632,0.002-1.632l34.736-0.282l3.482,54.755l2.548-3.1
					l33.147-49.172C312.984,43.683,313.968,42.134,314.466,41.153z"/>
				<path d="M282.789,128.577c-0.439-0.336-0.721-0.885-0.715-1.438l0,0c0.017-1.149,1.001-1.98,2.225-2.174l0,0l0.027-0.006
					l0.043-0.004c5.083-0.46,9.815-4.928,10.685-8.187l0,0l15.581-55.852l-44.048,63.92c-1.372,2.18-3.473,3.711-5.686,3.744l0,0
					c-1.196,0.013-2.412-0.545-3.218-1.644l0,0c-0.812-1.096-1.27-2.636-1.359-4.66l0,0l-4.432-59.601
					c-0.002-0.292-0.342-0.518-0.439-0.512l0,0c-0.008,0.004-0.017,0.004-0.027,0.004l0,0c-0.037,0-0.095,0-0.245,0.327l0,0
					l-15.114,47.295c-0.582,1.689-0.889,3.343-0.889,4.837l0,0c0,1.529,0.317,2.88,0.963,3.995l0,0
					c1.27,2.314,4.902,5.408,9.001,6.216l0,0c1.134,0.255,2.012,1.101,2.019,2.18l0,0c0.014,1.132-1.046,1.981-2.201,2l0,0
					l-0.058,0.002l-15.822-0.661l-13.303,0.497l-0.043-0.002c-1.048-0.002-2.078-0.789-2.053-1.84l0,0
					c0.014-1.059,0.874-1.847,1.902-2.019l0,0c4.122-0.852,9.223-5.29,11.461-11.587l0,0l19.579-62.925
					c0.129-0.373,0.193-0.769,0.193-1.165l0,0c0.002-1.568-0.99-3.044-2.298-3.332l0,0l-6.008-1.221
					c-1.043-0.115-1.721-1.01-1.703-1.875l0,0c-0.004-0.42,0.153-0.885,0.506-1.231l0,0c0.35-0.348,0.855-0.52,1.343-0.516l0,0
					l35.681-0.288l3.382,53.167l0.906-1.1l33.1-49.101c0.412-0.671,1.393-2.221,1.85-3.125l0,0l0.278-0.551l30.42,0.192
					c0.506,0.031,1.437,0.116,2.311,0.574l0,0c0.259,0.159,0.736,0.456,0.773,1.206l0,0c-0.077,0.897-0.635,1.161-1.092,1.428l0,0
					c-0.51,0.261-1.194,0.496-2.195,0.759l0,0c-2.138,0.547-3.968,0.733-5.244,1.334l0,0c-1.258,0.611-2.148,1.451-2.799,3.92l0,0
					l-16.082,64.559c-0.146,0.621-0.214,1.227-0.214,1.815l0,0c-0.026,4.268,3.657,8.002,8.43,9.287l0,0
					c0.945,0.224,1.738,0.93,1.759,1.943l0,0c0.005,1.096-1.052,1.819-2.095,1.827l0,0l-0.054,0.002l-19.602-0.725l-23.782,0.804
					c-0.004,0-0.008,0-0.012,0l0,0C283.779,129.074,283.224,128.917,282.789,128.577L282.789,128.577z M284.351,127.074
					l23.838-0.806l18.807,0.695c-5.114-1.617-9.239-5.779-9.265-11.028l0,0c-0.002-0.746,0.087-1.503,0.268-2.284l0,0l16.087-64.575
					c0.683-2.847,2.131-4.465,3.902-5.25l0,0c1.749-0.792,3.635-0.937,5.578-1.453l0,0c0.047-0.012,0.094-0.024,0.14-0.037l0,0
					l-28.643-0.181c-0.553,0.99-1.303,2.17-1.656,2.75l0,0l-33.172,49.208l-4.192,5.097l-3.583-56.34l-31.957,0.258l4.446,0.904
					c2.441,0.607,3.862,2.942,3.866,5.286l0,0c0,0.607-0.095,1.223-0.292,1.788l0,0l-19.583,62.938
					c-2.42,6.682-7.531,11.459-12.446,12.784l0,0l12.593-0.472l15.813,0.661c0.093-0.009,0.159-0.025,0.205-0.042l0,0
					c-0.064-0.056-0.191-0.136-0.394-0.186l0,0c-4.758-0.995-8.658-4.285-10.307-7.18l0,0c-0.852-1.47-1.225-3.183-1.225-4.983l0,0
					c0-1.766,0.356-3.627,0.99-5.467l0,0l15.12-47.31c0.332-1.016,1.245-1.716,2.163-1.689l0,0c1.289,0.031,2.329,1.038,2.435,2.381
					l0,0l4.434,59.619c0.075,1.801,0.489,2.948,0.963,3.576l0,0c0.485,0.626,0.974,0.827,1.617,0.841l0,0
					c1.181,0.033,2.919-1.042,4.013-2.839l0,0l44.007-63.864c0.364-0.692,1.033-1.2,1.825-1.204l0,0
					c0.547-0.004,1.088,0.275,1.42,0.707l0,0c0.338,0.433,0.493,0.984,0.491,1.575l0,0l0.002,0.006v0.139l-15.682,56.211
					c-1.266,4.242-6.329,8.924-12.339,9.625l0,0c-0.199,0.035-0.332,0.085-0.419,0.131l0,0
					C284.258,127.071,284.302,127.074,284.351,127.074L284.351,127.074z"/>
			</g>
		</g>
	</g>
</g>
<g>
	<g enable-background="new    ">
		<g>
			<g>
				<linearGradient id="SVGID_2_" gradientUnits="userSpaceOnUse" x1="366.2729" y1="40.9282" x2="366.2729" y2="127.9106">
					<stop  offset="0.3503" style="stop-color:#F8F8F8"/>
					<stop  offset="0.7157" style="stop-color:#C9C9C9"/>
				</linearGradient>
				<path fill="url(#SVGID_2_)" d="M359.425,40.928l40.012,0.331c1.883,0,2.766,3.332-1,3.664c-4.02,0.354-8.225,3.215-9.213,6.641
					l-18.748,64.8c-0.904,3.438,1.594,9.183,8.051,9.669c1.063,0.246,1.061,1.877,0.08,1.877l-23.631-0.906l-22.697,0.686
					c-1.232,0-0.896-1.629,0.154-1.795c3.111-0.567,12.154-4.076,13.879-9.634l20.902-64.692c1.309-4.656-3.016-6.949-7.922-8.095
					C358.23,43.304,358.447,41.011,359.425,40.928z"/>
				<path d="M378.567,128.909l-23.601-0.905l-22.688,0.684c-0.466,0.007-0.964-0.152-1.31-0.503l0,0
					c-0.347-0.346-0.484-0.805-0.48-1.199l0,0c0.017-0.946,0.649-1.87,1.765-2.074l0,0c1.394-0.249,4.396-1.25,7.141-2.83l0,0
					c2.772-1.573,5.256-3.759,5.967-6.128l0,0l20.89-64.654c0.14-0.494,0.198-0.94,0.198-1.343l0,0
					c-0.011-1.41-0.699-2.438-2.036-3.391l0,0c-1.326-0.927-3.256-1.631-5.328-2.112l0,0c-0.559-0.099-0.999-0.5-1.203-0.895l0,0
					c-0.222-0.411-0.292-0.83-0.295-1.237l0,0c0.005-0.481,0.103-0.957,0.343-1.406l0,0c0.228-0.432,0.7-0.921,1.414-0.984l0,0
					l0.046-0.002l40.049,0.33c1.554,0.023,2.613,1.308,2.615,2.68l0,0c0.033,1.493-1.355,2.853-3.528,2.98l0,0
					c-3.64,0.282-7.577,3.06-8.341,5.923l0,0l-18.74,64.777c-0.097,0.361-0.148,0.768-0.148,1.201l0,0
					c0.021,2.933,2.246,6.833,7.308,7.215l0,0l0.069,0.006l0.079,0.019c1.071,0.253,1.595,1.223,1.581,2.029l0,0
					c-0.003,0.402-0.111,0.824-0.403,1.195l0,0c-0.276,0.364-0.781,0.626-1.323,0.626l0,0
					C378.592,128.909,378.58,128.909,378.567,128.909L378.567,128.909z M377.115,126.852c-5.262-1.019-7.84-5.458-7.82-9.032l0,0
					c0-0.594,0.07-1.17,0.221-1.734l0,0l18.747-64.799c1.214-3.99,5.686-6.932,10.086-7.36l0,0c1.625-0.208,1.671-0.715,1.704-0.988
					l0,0c0-0.357-0.309-0.678-0.624-0.68l0,0l-39.771-0.328c-0.037,0.094-0.072,0.251-0.07,0.39l0,0
					c-0.002,0.08,0.01,0.151,0.021,0.201l0,0c2.188,0.52,4.295,1.258,5.947,2.402l0,0c1.666,1.141,2.905,2.851,2.893,5.032l0,0
					c0.002,0.603-0.09,1.233-0.282,1.921l0,0l-20.899,64.679c-1.018,3.199-3.918,5.548-6.878,7.26l0,0
					c-2.466,1.408-4.993,2.362-6.781,2.833l0,0l21.378-0.647L377.115,126.852L377.115,126.852z"/>
			</g>
		</g>
	</g>
</g>
<g>
	<g enable-background="new    ">
		<g>
			<g>
				<linearGradient id="SVGID_3_" gradientUnits="userSpaceOnUse" x1="432.9819" y1="36.8979" x2="432.9819" y2="127.8481">
					<stop  offset="0.3503" style="stop-color:#F8F8F8"/>
					<stop  offset="0.7157" style="stop-color:#C9C9C9"/>
				</linearGradient>
				<path fill="url(#SVGID_3_)" d="M464.128,36.898c4.105,0,8.133,0.34,12.004,1.062c2.461,0.496,5.475,1.62,4.738,3.746
					l-5.906,15.057c-0.467,1.534-1.244,2.462-2.031,2.462c-1.094,0-2.207-1.792-2.551-6.244c-0.195-2.436,0.197-11.205-3.146-11.393
					c-0.85-0.046-1.695-0.067-2.543-0.067c-5.363,0-10.688,0.885-15.43,2.396c-18.068,5.767-29.525,15.623-37.08,32.453
					c-7.385,16.19-3.738,33.692,1.479,39.662c3.557,4.065,11.865,6.874,18.252,6.874c3.75,0,6.836-0.971,7.904-3.225
					c3.457-8.307,5.133-18.494,4.809-23.15c0.014-5.647-2.201-6.086-6.41-6.866c-2.951-0.313-3.895-2.228,1.615-2.228
					c0.293,0,0.604,0.006,0.936,0.02c1.771-0.012,3.492-0.018,5.189-0.018c3.881,0,7.602,0.021,11.299,0.039
					c3.473,0.019,6.924,0.035,10.473,0.035c3.246,0,6.576-0.017,10.072-0.06c0.98,0.483,0.896,0.897-0.088,1.384
					c-5.973,0.896-8.352,2.043-8.924,4.254c-2.311,7.85-4.383,16.438-8.123,24.488c-1.33,2.883-7.605,5.626-9.648,6.204
					c-6.354,2.263-16.916,4.063-26.975,4.063c-8.072,0-15.822-1.16-20.813-4.184c-18.713-11.438-22.078-33.127-14.438-47.428
					C400.123,54.96,434.261,36.898,464.128,36.898z"/>
				<path d="M402.708,124.517c-12.916-7.888-18.738-20.608-18.732-32.545l0,0c0-5.78,1.356-11.39,3.934-16.207l0,0
					c11.65-21.742,45.962-39.819,76.22-39.867l0,0v1v1c-29.481-0.048-63.445,17.999-74.457,38.811l0,0
					c-2.409,4.504-3.695,9.795-3.695,15.264l0,0c0.008,11.303,5.468,23.312,17.77,30.837l0,0c4.69,2.859,12.321,4.049,20.296,4.038
					l0,0c9.934,0.005,20.445-1.794,26.701-4.025l0,0c0.903-0.253,2.967-1.072,4.874-2.147l0,0c1.921-1.054,3.698-2.475,4.14-3.517
					l0,0c3.688-7.93,5.753-16.466,8.063-24.315l0,0c0.348-1.418,1.398-2.544,2.974-3.272l0,0c0.896-0.426,1.977-0.774,3.296-1.08
					l0,0c-2.17,0.016-4.283,0.022-6.362,0.022l0,0c-3.552,0-7.005-0.017-10.478-0.035l0,0c-3.697-0.017-7.416-0.038-11.294-0.038
					l0,0c-1.695,0-3.413,0.006-5.23,0.017l0,0c-0.318-0.013-0.615-0.019-0.895-0.019l0,0c-0.887-0.014-1.592,0.053-2.105,0.139l0,0
					c0.181,0.039,0.381,0.072,0.596,0.095l0,0l0.027,0.002l0.05,0.009c2.085,0.4,3.839,0.667,5.237,1.815l0,0
					c1.408,1.185,1.998,3.086,1.989,5.981l0,0c0,0,0,0,0,0.02l0,0c0.026,0.392,0.038,0.818,0.038,1.275l0,0
					c-0.009,5.254-1.692,14.506-4.941,22.337l0,0c-1.426,2.861-4.932,3.777-8.809,3.796l0,0c-6.67-0.038-15.076-2.803-19.005-7.216
					l0,0c-3.354-3.879-5.881-11.648-5.9-20.854l0,0c0-6.263,1.207-13.178,4.262-19.878l0,0
					c7.631-17.053,19.421-27.189,37.688-32.994l0,0c4.841-1.542,10.261-2.443,15.735-2.443l0,0c0.863,0,1.727,0.021,2.599,0.067l0,0
					c1.324,0.072,2.228,1.042,2.717,2.074l0,0c0.514,1.057,0.789,2.327,0.97,3.643l0,0c0.356,2.613,0.308,5.481,0.4,6.599l0,0
					c0.222,3.23,0.994,4.917,1.411,5.228l0,0c0.107,0.093,0.135,0.091,0.141,0.091l0,0c0,0,0.002,0,0.002,0.002l0,0
					c0-0.008,0.122-0.002,0.367-0.295l0,0c0.233-0.28,0.505-0.785,0.707-1.459l0,0l0.017-0.05l5.898-15.034
					c0.046-0.135,0.059-0.236,0.059-0.316l0,0c0.021-0.28-0.248-0.703-1.074-1.154l0,0c-0.789-0.432-1.931-0.771-2.958-0.975l0,0
					c-3.803-0.709-7.77-1.044-11.818-1.044l0,0v-1v-1c4.158,0,8.247,0.345,12.199,1.082l0,0c1.162,0.236,2.445,0.594,3.529,1.177
					l0,0c1.049,0.564,2.102,1.474,2.122,2.914l0,0c0.003,0.322-0.057,0.642-0.179,1l0,0l-5.9,15.043
					c-0.543,1.631-1.344,2.999-2.969,3.109l0,0c-1.16-0.023-1.954-0.897-2.465-2.036l0,0c-0.535-1.177-0.903-2.83-1.083-5.127l0,0
					c-0.126-1.924-0.031-7.288-1.171-9.513l0,0c-0.385-0.741-0.688-0.939-1.033-0.96l0,0c-0.83-0.046-1.657-0.065-2.487-0.065l0,0
					c-5.255-0.002-10.483,0.868-15.126,2.348l0,0c-17.869,5.729-28.992,15.304-36.476,31.915l0,0
					c-2.925,6.411-4.083,13.044-4.083,19.052l0,0c-0.02,8.812,2.548,16.308,5.405,19.537l0,0c3.184,3.719,11.396,6.57,17.499,6.532
					l0,0c3.624,0.019,6.29-1.007,6.98-2.609l0,0c3.12-7.475,4.78-16.659,4.771-21.523l0,0c0-0.43-0.015-0.825-0.036-1.177l0,0
					l-0.002-0.034V96.53c0,0-0.002,0-0.002-0.053l0,0c-0.009-2.705-0.526-3.821-1.276-4.451l0,0
					c-0.752-0.662-2.193-1.001-4.285-1.374l0,0c-0.786-0.09-1.463-0.271-2.019-0.551l0,0c-0.522-0.29-1.14-0.667-1.2-1.608l0,0
					c-0.005-0.499,0.282-0.927,0.579-1.162l0,0c0.305-0.249,0.644-0.398,1.044-0.524l0,0c0.798-0.242,1.866-0.368,3.363-0.371l0,0
					c0.307,0,0.631,0.007,0.931,0.021l0,0c1.772-0.013,3.495-0.019,5.194-0.019l0,0c3.885,0,7.607,0.022,11.305,0.04l0,0
					c3.473,0.019,6.921,0.035,10.467,0.035l0,0c3.243-0.002,6.567-0.017,10.061-0.061l0,0l0.236-0.005l0.217,0.107
					c0.512,0.289,1.158,0.554,1.251,1.559l0,0c-0.124,1.084-0.796,1.293-1.333,1.617l0,0l-0.144,0.071l-0.155,0.023
					c-2.944,0.438-4.961,0.947-6.205,1.548l0,0c-1.251,0.619-1.675,1.173-1.908,2l0,0c-2.302,7.813-4.382,16.457-8.174,24.623l0,0
					c-0.891,1.845-2.916,3.238-4.976,4.42l0,0c-2.072,1.162-4.169,2.002-5.245,2.308l0,0c-6.515,2.314-17.129,4.118-27.31,4.123l0,0
					C415.871,128.837,408,127.704,402.708,124.517L402.708,124.517z"/>
			</g>
		</g>
	</g>
</g>
<path fill="#878787" d="M558.181,127.465v-4.979h-1.861v-0.668h4.477v0.668h-1.867v4.979H558.181z"/>
<path fill="#878787" d="M561.539,127.465v-5.646h1.125l1.338,4c0.123,0.371,0.213,0.65,0.271,0.836
	c0.063-0.205,0.164-0.508,0.299-0.905l1.352-3.931h1.006v5.646h-0.719v-4.727l-1.643,4.727h-0.674l-1.633-4.808v4.808H561.539z"/>
<g>
	
		<linearGradient id="SVGID_4_" gradientUnits="userSpaceOnUse" x1="60.5488" y1="-1452.3516" x2="60.5488" y2="-1385.2856" gradientTransform="matrix(1 0 0 -1 2.3501 -1325.8926)">
		<stop  offset="0.0604" style="stop-color:#53B848"/>
		<stop  offset="0.5549" style="stop-color:#65CCEC"/>
		<stop  offset="0.5832" style="stop-color:#61C3E7"/>
		<stop  offset="0.6882" style="stop-color:#55A7D8"/>
		<stop  offset="0.7933" style="stop-color:#4D92CD"/>
		<stop  offset="0.8976" style="stop-color:#4886C6"/>
		<stop  offset="1" style="stop-color:#4682C4"/>
	</linearGradient>
	<polygon fill="url(#SVGID_4_)" points="28.491,59.393 52.378,59.393 97.306,126.459 73.637,126.459 	"/>
	
		<linearGradient id="SVGID_5_" gradientUnits="userSpaceOnUse" x1="72.5547" y1="-1452.2881" x2="179.0126" y2="-1325.4164" gradientTransform="matrix(1 0 0 -1 2.3501 -1325.8926)">
		<stop  offset="0" style="stop-color:#6EBE44"/>
		<stop  offset="0.0011" style="stop-color:#6EBE44"/>
		<stop  offset="0.2454" style="stop-color:#BCDA20"/>
		<stop  offset="0.4194" style="stop-color:#ECEB09"/>
		<stop  offset="0.5055" style="stop-color:#FFF200"/>
		<stop  offset="0.5783" style="stop-color:#FBCA08"/>
		<stop  offset="0.6794" style="stop-color:#F79A11"/>
		<stop  offset="0.7753" style="stop-color:#F47419"/>
		<stop  offset="0.8635" style="stop-color:#F1581F"/>
		<stop  offset="0.9411" style="stop-color:#F04822"/>
		<stop  offset="1" style="stop-color:#EF4223"/>
	</linearGradient>
	<polygon fill="url(#SVGID_5_)" points="158.261,0.001 181.93,0.001 97.553,126.459 74.98,126.459 	"/>
</g>
<g>
	
		<linearGradient id="SVGID_6_" gradientUnits="userSpaceOnUse" x1="32.0576" y1="-1452.3506" x2="32.0576" y2="-1385.2856" gradientTransform="matrix(1 0 0 -1 2.3501 -1325.8926)">
		<stop  offset="0.0604" style="stop-color:#53B848"/>
		<stop  offset="0.5549" style="stop-color:#65CCEC"/>
		<stop  offset="0.5832" style="stop-color:#61C3E7"/>
		<stop  offset="0.6882" style="stop-color:#55A7D8"/>
		<stop  offset="0.7933" style="stop-color:#4D92CD"/>
		<stop  offset="0.8976" style="stop-color:#4886C6"/>
		<stop  offset="1" style="stop-color:#4682C4"/>
	</linearGradient>
	<polygon fill="url(#SVGID_6_)" points="0,59.393 23.889,59.393 68.816,126.458 45.147,126.458 	"/>
	
		<linearGradient id="SVGID_7_" gradientUnits="userSpaceOnUse" x1="44.064" y1="-1452.2871" x2="150.5213" y2="-1325.4163" gradientTransform="matrix(1 0 0 -1 2.3501 -1325.8926)">
		<stop  offset="0" style="stop-color:#6EBE44"/>
		<stop  offset="0.0011" style="stop-color:#6EBE44"/>
		<stop  offset="0.2454" style="stop-color:#BCDA20"/>
		<stop  offset="0.4194" style="stop-color:#ECEB09"/>
		<stop  offset="0.5055" style="stop-color:#FFF200"/>
		<stop  offset="0.5783" style="stop-color:#FBCA08"/>
		<stop  offset="0.6794" style="stop-color:#F79A11"/>
		<stop  offset="0.7753" style="stop-color:#F47419"/>
		<stop  offset="0.8635" style="stop-color:#F1581F"/>
		<stop  offset="0.9411" style="stop-color:#F04822"/>
		<stop  offset="1" style="stop-color:#EF4223"/>
	</linearGradient>
	<polygon fill="url(#SVGID_7_)" points="129.769,0 153.438,0 69.063,126.458 46.489,126.458 	"/>
</g>
<g>
	<linearGradient id="SVGID_8_" gradientUnits="userSpaceOnUse" x1="163.7061" y1="38.0801" x2="163.7061" y2="128.0903">
		<stop  offset="0.3503" style="stop-color:#F8F8F8"/>
		<stop  offset="0.7157" style="stop-color:#C9C9C9"/>
	</linearGradient>
	<path fill="url(#SVGID_8_)" d="M154.313,97.063l-11.644,16.511c-3.452,5.399,3.078,11.04,10.279,12.354
		c0.66,0.513,0.548,2.163-0.415,2.163c-0.105,0-0.219-0.02-0.345-0.063c-0.144-0.063-2.86-1.194-9.034-1.771
		c-1.652-0.156-4.623-0.663-8.245-0.663c-1.248,0-2.571,0.062-3.947,0.214l-13.024,1.834c-1.232-0.082-1.229-1.551,0.002-1.882
		c6.293-0.813,13.835-5.481,18.259-11.771l52.979-73.901c0.875-1.269,2.745-2.007,4.565-2.007c2.279,0,4.474,1.158,4.517,3.887
		l1.745,73.983c0.566,6.204,4.724,8.829,9.962,10.294c0.732,0.495,0.411,1.477-0.086,1.645c-0.34-0.007-6.801-0.105-14.522-1.254
		c-1.807-0.267-3.22-0.421-4.946-0.421c-1.493,0-3.221,0.116-5.64,0.373c-3.029,0.32-1.598,0.366-13.862,0.91
		c-0.466,0.022-0.919-0.099-1.017-0.888c0.109-0.91,1.48-1.349,1.918-1.465c4.9-1.358,7.317-3.816,8.392-9.847
		c1.16-6.631,0.85-12.269,0.694-18.071L154.313,97.063z M173.393,92.741c2.696,0,5.234,0.015,7.125,0.056L179.816,62
		c-0.133-0.4-0.313-0.605-0.519-0.605c-0.169,0-0.357,0.145-0.546,0.439c-6.558,9.313-15.59,20.729-22.065,29.973
		c-0.415,0.729-0.001,0.979,0.98,0.979c0.157,0.015,0.688,0.02,1.498,0.02c1.393,0,3.607-0.016,6.142-0.027
		C167.84,92.759,170.696,92.741,173.393,92.741"/>
	<path d="M152.533,129.088c-0.23,0.002-0.456-0.042-0.669-0.114l0,0l-0.036-0.013l-0.039-0.017c-0.031-0.015-2.65-1.127-8.73-1.695
		l0,0c-1.722-0.163-4.612-0.656-8.149-0.658l0,0c-1.216,0-2.503,0.062-3.809,0.205l0,0l-13.125,1.848l-0.105-0.006
		c-1.026-0.017-1.9-0.914-1.856-1.844l0,0c-0.006-0.916,0.684-1.756,1.668-2.002l0,0l0.064-0.019l0.064-0.006
		c5.928-0.746,13.334-5.301,17.576-11.362l0,0l52.967-73.887c1.179-1.655,3.311-2.422,5.39-2.438l0,0
		c1.305,0.002,2.629,0.323,3.696,1.121l0,0c1.074,0.79,1.809,2.118,1.819,3.742l0,0l1.744,73.946
		c0.572,5.681,4.13,7.903,9.232,9.391l0,0l0.155,0.043l0.135,0.092c0.586,0.381,0.885,1.055,0.87,1.616l0,0
		c-0.029,0.767-0.35,1.46-1.189,1.803l0,0l-0.166,0.058l-0.18-0.004c-0.354-0.007-6.859-0.105-14.648-1.262l0,0
		c-1.79-0.266-3.135-0.411-4.799-0.411l0,0c-1.44-0.002-3.133,0.112-5.535,0.367l0,0c-2.978,0.314-1.688,0.373-13.937,0.914l0,0
		c-0.072,0.002-0.116,0-0.128,0l0,0c-0.325,0.002-0.788-0.054-1.208-0.384l0,0c-0.423-0.333-0.645-0.857-0.705-1.38l0,0
		l-0.015-0.122l0.015-0.12c0.139-0.966,0.814-1.474,1.328-1.776l0,0c0.539-0.311,1.057-0.462,1.316-0.532l0,0
		c4.65-1.38,6.546-3.232,7.675-9.058l0,0c0.661-3.779,0.835-7.231,0.835-10.606l0,0c0-2.11-0.069-4.192-0.13-6.297l0,0
		l-25.096-0.154l-11.318,16.047c-0.563,0.883-0.792,1.712-0.793,2.526l0,0c-0.135,3.433,4.824,7.333,10.41,8.303l0,0l0.238,0.043
		l0.195,0.151c0.632,0.521,0.792,1.2,0.804,1.826l0,0c-0.004,0.44-0.096,0.895-0.369,1.323l0,0c-0.253,0.419-0.81,0.803-1.424,0.803
		l0,0C152.559,129.088,152.546,129.088,152.533,129.088L152.533,129.088z M143.246,125.261c5.473,0.512,8.313,1.454,9.117,1.759l0,0
		c0.001-0.019,0.002-0.038,0.002-0.058l0,0c0-0.047-0.005-0.094-0.013-0.136l0,0c-5.933-1.258-11.505-5.107-11.634-10.188l0,0
		c-0.002-1.208,0.36-2.443,1.133-3.644l0,0l11.646-16.51l0.298-0.428l28.075,0.173l0.027,0.967c0.064,2.423,0.158,4.835,0.158,7.319
		l0,0c0.002,3.445-0.178,7.028-0.866,10.955l0,0c-1.021,6.235-3.96,9.298-9.119,10.638l0,0c-0.183,0.035-0.621,0.205-0.905,0.375
		l0,0c11.97-0.535,10.449-0.57,13.503-0.893l0,0c2.437-0.259,4.2-0.379,5.746-0.379l0,0c1.786,0,3.268,0.163,5.093,0.433l0,0
		c5.646,0.84,10.62,1.112,12.971,1.201l0,0c-4.847-1.563-8.941-4.615-9.469-10.806l0,0l-0.002-0.033l-1.747-74.025
		c-0.031-1.098-0.417-1.711-1.021-2.184l0,0c-0.609-0.462-1.521-0.721-2.495-0.719l0,0c-1.563-0.019-3.17,0.692-3.753,1.589l0,0
		l-52.973,73.893c-4.064,5.747-10.508,10.144-16.537,11.712l0,0l10.37-1.461c1.417-0.157,2.777-0.22,4.06-0.222l0,0
		C138.614,124.591,141.667,125.111,143.246,125.261L143.246,125.261z M154.307,98.062l0.006-0.998L154.307,98.062L154.307,98.062z
		 M180.496,93.795c-1.877-0.039-4.412-0.056-7.104-0.054l0,0V91.74c2.232,0,4.356,0.01,6.102,0.036l0,0l-0.646-28.35
		c-6.368,8.949-14.75,19.6-20.933,28.37l0,0c0.228,0.005,0.685,0.01,1.249,0.008l0,0c1.386,0,3.602-0.015,6.136-0.026l0,0
		c2.534-0.019,5.392-0.037,8.093-0.037l0,0v2.001c-2.693-0.002-5.547,0.017-8.083,0.035l0,0c-2.534,0.011-4.747,0.027-6.146,0.027
		l0,0c-0.815-0.002-1.295-0.002-1.576-0.021l0,0c-0.396-0.006-0.752-0.032-1.145-0.188l0,0c-0.41-0.114-0.957-0.705-0.918-1.313l0,0
		c0.006-0.403,0.139-0.696,0.292-0.972l0,0l0.024-0.045l0.025-0.033c6.5-9.281,15.533-20.696,22.043-29.94l0,0
		c0.269-0.385,0.603-0.852,1.386-0.897l0,0c0.452-0.006,0.843,0.251,1.044,0.5l0,0c0.214,0.251,0.33,0.512,0.425,0.79l0,0
		l0.046,0.143l0.731,31.991L180.496,93.795L180.496,93.795z"/>
</g>
<g>
	<linearGradient id="SVGID_9_" gradientUnits="userSpaceOnUse" x1="505.1401" y1="38.209" x2="505.1401" y2="128.2114">
		<stop  offset="0.3503" style="stop-color:#F8F8F8"/>
		<stop  offset="0.7157" style="stop-color:#C9C9C9"/>
	</linearGradient>
	<path fill="url(#SVGID_9_)" d="M551.406,126.374c0.732,0.481,0.398,1.464-0.086,1.632c-0.34-0.006-6.801-0.105-14.521-1.238
		c-1.834-0.271-3.254-0.43-5.002-0.43c-1.479,0-3.188,0.113-5.584,0.366c-3.041,0.317-1.598,0.364-13.877,0.91
		c-0.457,0.021-0.904-0.099-1.002-0.888c0.107-0.908,1.48-1.338,1.906-1.467c4.908-1.348,7.326-3.814,8.404-9.845
		c1.158-6.618,0.838-12.256,0.684-18.069l-26.588-0.152l-11.645,16.512c-3.439,5.393,3.09,11.023,10.289,12.338
		c0.662,0.521,0.539,2.168-0.422,2.168c-0.107,0-0.223-0.021-0.352-0.063c-0.146-0.061-2.859-1.184-9.021-1.773
		c-1.65-0.156-4.625-0.662-8.246-0.662c-1.248,0-2.57,0.059-3.945,0.213l-13.035,1.834c-1.221-0.084-1.219-1.551,0.004-1.881
		c6.305-0.814,13.834-5.472,18.27-11.771l52.98-73.885c0.875-1.274,2.744-2.013,4.563-2.013c2.281,0,4.48,1.163,4.521,3.891
		l1.744,73.972C542,122.283,546.169,124.896,551.406,126.374z M514.792,92.873c2.705,0,5.256,0.016,7.152,0.057l-0.689-30.813
		c-0.137-0.4-0.318-0.605-0.521-0.605c-0.172,0-0.355,0.144-0.539,0.44c-6.568,9.325-15.592,20.739-22.078,29.97
		c-0.404,0.732-0.002,0.98,0.979,0.98c0.191,0.018,0.945,0.021,2.078,0.021c1.377,0,3.32-0.012,5.516-0.021
		C509.218,92.889,512.083,92.873,514.792,92.873"/>
	<path d="M493.962,129.21c-0.242,0-0.459-0.047-0.656-0.11l0,0l-0.047-0.015l-0.031-0.013c-0.063-0.025-2.661-1.119-8.733-1.703l0,0
		c-1.721-0.164-4.616-0.656-8.152-0.658l0,0c-1.217,0-2.501,0.058-3.807,0.204l0,0l-13.136,1.849l-0.106-0.008
		c-1.025-0.02-1.892-0.918-1.847-1.844l0,0c-0.009-0.913,0.679-1.751,1.66-2l0,0l0.063-0.019l0.066-0.007
		c5.94-0.747,13.335-5.289,17.586-11.362l0,0l52.968-73.869c1.179-1.661,3.311-2.429,5.388-2.446l0,0
		c1.308,0.002,2.633,0.323,3.7,1.121l0,0c1.075,0.792,1.812,2.122,1.82,3.746l0,0l1.744,73.939c0.562,5.683,4.129,7.894,9.233,9.396
		l0,0l-0.271,0.962l0.271-0.962l0.146,0.04l0.13,0.085c0.593,0.374,0.894,1.054,0.877,1.607l0,0
		c-0.036,0.773-0.346,1.45-1.174,1.803l0,0l-0.173,0.062l-0.183-0.004c-0.358-0.006-6.86-0.106-14.648-1.248l0,0
		c-1.82-0.271-3.171-0.419-4.856-0.419l0,0c-1.427,0-3.101,0.11-5.48,0.361l0,0c-2.988,0.313-1.685,0.371-13.947,0.915l0,0
		c-0.053,0.002-0.093,0-0.123,0l0,0c-0.32,0.002-0.781-0.053-1.203-0.384l0,0c-0.425-0.334-0.644-0.858-0.701-1.383l0,0
		l-0.015-0.117l0.015-0.121c0.136-0.968,0.815-1.474,1.325-1.774l0,0c0.533-0.306,1.053-0.461,1.308-0.54l0,0
		c4.657-1.367,6.553-3.228,7.685-9.052l0,0c0.654-3.743,0.828-7.169,0.828-10.52l0,0c0-2.138-0.072-4.247-0.133-6.384l0,0
		l-25.098-0.144l-11.319,16.047c-0.559,0.881-0.786,1.707-0.788,2.517l0,0c-0.134,3.429,4.824,7.327,10.415,8.3l0,0l0.244,0.043
		l0.196,0.157c0.622,0.52,0.781,1.195,0.792,1.817l0,0c-0.003,0.443-0.096,0.898-0.37,1.327l0,0
		c-0.254,0.421-0.81,0.807-1.428,0.807l0,0C493.986,129.21,493.974,129.21,493.962,129.21L493.962,129.21z M484.683,125.38
		c5.496,0.524,8.346,1.477,9.11,1.765l0,0c0.003-0.021,0.004-0.045,0.003-0.068l0,0c0-0.047-0.005-0.094-0.013-0.136l0,0
		c-5.934-1.259-11.505-5.105-11.636-10.182l0,0c-0.002-1.204,0.361-2.434,1.13-3.632l0,0l11.943-16.938l28.078,0.161l0.027,0.968
		c0.062,2.451,0.159,4.891,0.159,7.404l0,0c0,3.419-0.178,6.974-0.857,10.868l0,0c-1.025,6.231-3.965,9.305-9.101,10.625l0,0
		c-0.204,0.047-0.638,0.217-0.921,0.385l0,0c11.963-0.536,10.435-0.572,13.5-0.892l0,0c2.414-0.255,4.157-0.372,5.688-0.372l0,0
		c1.811,0,3.3,0.166,5.146,0.439l0,0c5.623,0.825,10.58,1.099,12.942,1.188l0,0c-4.831-1.574-8.92-4.615-9.437-10.805l0,0
		l-0.004-0.036l-1.743-74.008c-0.032-1.096-0.416-1.711-1.023-2.185l0,0c-0.609-0.465-1.524-0.724-2.499-0.722l0,0
		c-1.559-0.017-3.166,0.692-3.75,1.597l0,0l-52.975,73.877c-4.07,5.749-10.494,10.134-16.522,11.706l0,0l10.354-1.456
		c1.418-0.159,2.777-0.219,4.058-0.219l0,0C480.047,124.711,483.101,125.23,484.683,125.38L484.683,125.38z M459.447,126.936
		l-0.003-0.002C459.444,126.935,459.445,126.935,459.447,126.936L459.447,126.936z M521.921,93.928
		c-1.882-0.04-4.43-0.056-7.131-0.056l0,0v-2c2.242,0,4.378,0.01,6.131,0.038l0,0l-0.635-28.358
		c-6.378,8.958-14.751,19.604-20.941,28.36l0,0c0.297,0.007,0.975,0.013,1.828,0.011l0,0c1.37,0,3.314-0.011,5.509-0.021l0,0
		c2.53-0.013,5.397-0.029,8.108-0.029l0,0v2c-2.705,0-5.567,0.016-8.099,0.028l0,0c-2.193,0.01-4.138,0.022-5.519,0.022l0,0
		c-1.137-0.002-1.827,0-2.154-0.023l0,0c-0.398-0.007-0.754-0.032-1.149-0.188l0,0c-0.416-0.117-0.953-0.718-0.911-1.313l0,0
		c0.004-0.405,0.138-0.692,0.282-0.962l0,0l0.025-0.047l0.032-0.044c6.511-9.265,15.535-20.68,22.045-29.921l0,0
		c0.26-0.391,0.607-0.873,1.391-0.913l0,0c0.455-0.004,0.839,0.253,1.039,0.497l0,0c0.214,0.249,0.331,0.507,0.429,0.786l0,0
		l0.049,0.145l0.716,32.012L521.921,93.928L521.921,93.928z M514.791,93.872v0.002V93.872L514.791,93.872z"/>
</g>
</svg>
