<?xml version="1.0" encoding="utf-8"?>
<!-- Generator: Adobe Illustrator 13.0.0, SVG Export Plug-In . SVG Version: 6.00 Build 14948)  -->
<svg version="1.2" baseProfile="tiny"
	 id="svg2" xmlns:rdf="http://www.w3.org/1999/02/22-rdf-syntax-ns#" xmlns:inkscape="http://www.inkscape.org/namespaces/inkscape" xmlns:dc="http://purl.org/dc/elements/1.1/" xmlns:sodipodi="http://sodipodi.sourceforge.net/DTD/sodipodi-0.dtd" xmlns:cc="http://creativecommons.org/ns#" xmlns:svg="http://www.w3.org/2000/svg" inkscape:version="0.48.5 r10040" sodipodi:docname="videopac.svg"
	 xmlns="http://www.w3.org/2000/svg" xmlns:xlink="http://www.w3.org/1999/xlink" x="0px" y="0px" width="576.387px"
	 height="79.262px" viewBox="0 0 576.387 79.262" xml:space="preserve">
<sodipodi:namedview  id="base" bordercolor="#666666" inkscape:cx="284.52909" inkscape:zoom="1.4" inkscape:cy="4.2432137" pagecolor="#ffffff" borderopacity="1.0" fit-margin-top="0" fit-margin-left="0" inkscape:window-x="-8" inkscape:pageshadow="2" inkscape:current-layer="layer1" inkscape:window-width="1366" inkscape:window-y="-8" inkscape:pageopacity="0.0" inkscape:window-height="706" inkscape:window-maximized="1" inkscape:document-units="px" fit-margin-right="0" fit-margin-bottom="0" showgrid="false">
	</sodipodi:namedview>
<g id="layer1" transform="translate(-75.679683,-200.09862)" inkscape:groupmode="layer" inkscape:label="Layer 1">
	<g id="g3936">
		<path id="path3904" fill="#666666" d="M129.285,258.009l-11.18,20.852L76.18,200.598h22.36L129.285,258.009z"/>
		<path id="path2987" fill="#666666" d="M120.9,231.903l16.77-31.305h22.36l-27.95,52.155L120.9,231.903z"/>
		<path id="path2989" inkscape:connector-curvature="0" fill="#666666" d="M165.733,200.598h19.621l-0.056,78.262h-19.565V200.598z"
			/>
		<path id="path3908" fill="#666666" d="M193.683,200.598h19.621l-0.056,78.262h-19.565V200.598z"/>
		<path id="path2991" fill="#666666" d="M218.838,220.164v-19.565h8.385c10.807,0,20.031,3.82,27.671,11.46
			c7.64,7.64,11.459,16.863,11.459,27.671s-3.82,20.031-11.459,27.671c-7.64,7.64-16.864,11.46-27.671,11.46h-8.385v-19.565h8.385
			c5.403,0,10.015-1.91,13.835-5.73c3.82-3.819,5.729-8.432,5.729-13.835s-1.91-10.016-5.729-13.836
			c-3.82-3.819-8.432-5.729-13.835-5.729H218.838z"/>
		<path id="path3916" fill="#666666" d="M274.851,200.598h19.621l-0.056,78.262h-19.565V200.598z"/>
		<path id="path3914" fill="#666666" d="M300.006,200.598h30.745v19.565h-30.745V200.598z"/>
		<path id="path3912" fill="#666666" d="M300.006,259.295h30.745v19.565h-30.745V259.295z"/>
		<path id="path2993" fill="#666666" d="M300.006,229.946h30.745v19.565h-30.745V229.946z"/>
		<path id="path3920" fill="#666666" d="M397.776,242.524h19.678c-0.597,9.615-4.398,17.907-11.404,24.876
			c-7.64,7.64-16.863,11.46-27.671,11.46c-10.807,0-20.031-3.82-27.671-11.46c-6.969-6.969-10.751-15.261-11.348-24.876h19.677
			c0.559,4.211,2.403,7.882,5.535,11.013c3.801,3.838,8.402,5.758,13.807,5.758s10.025-1.92,13.863-5.758
			C395.373,250.406,397.218,246.735,397.776,242.524z"/>
		<path id="path2995" fill="#666666" d="M359.038,236.934H339.36c0.596-9.615,4.379-17.907,11.348-24.876
			c7.64-7.64,16.863-11.46,27.671-11.46s20.031,3.82,27.671,11.46c7.006,6.969,10.808,15.261,11.404,24.876h-19.678
			c-0.559-4.211-2.403-7.9-5.534-11.068c-3.838-3.802-8.459-5.702-13.863-5.702s-10.006,1.9-13.807,5.702
			C361.441,229.034,359.596,232.723,359.038,236.934z"/>
		<path id="path3924" fill="#666666" d="M426.007,200.598h19.564v78.262h-19.564V200.598z"/>
		<path id="path2997" fill="#666666" d="M451.162,220.164v-19.565h10.509c6.745,0,12.503,2.386,17.273,7.155
			c4.771,4.771,7.155,10.528,7.155,17.273c0,6.783-2.385,12.56-7.155,17.329c-4.771,4.771-10.528,7.155-17.273,7.155h-10.509
			v-19.565h10.509c1.342,0,2.487-0.475,3.438-1.425c0.95-0.95,1.425-2.115,1.425-3.494c0-1.342-0.475-2.487-1.425-3.438
			c-0.951-0.95-2.097-1.426-3.438-1.426H451.162z"/>
		<path id="path3928" fill="#666666" d="M529.423,247.555l-16.771,31.305h-22.36l27.951-52.156L529.423,247.555z"/>
		<path id="path2999" fill="#666666" d="M537.584,252.306l-16.546-30.856l11.18-20.852l41.926,78.262h-22.36l-3.745-6.988h-26.05
			l10.453-19.565H537.584z"/>
		<path id="path3934" fill="#666666" d="M616.181,259.127v19.621c-9.615-0.597-17.907-4.379-24.876-11.348
			c-7.64-7.64-11.459-16.863-11.459-27.671s3.819-20.031,11.459-27.671c6.969-6.969,15.261-10.752,24.876-11.348v19.621
			c-4.211,0.559-7.882,2.403-11.013,5.534c-3.838,3.838-5.758,8.459-5.758,13.863c0,5.403,1.92,10.006,5.758,13.808
			C608.299,256.704,611.97,258.568,616.181,259.127z"/>
		<path id="path3932" fill="#666666" d="M635.299,228.829c-0.708-1.044-1.528-2.031-2.46-2.963
			c-3.167-3.131-6.856-4.976-11.068-5.534v-19.621c9.615,0.596,17.907,4.379,24.876,11.348c1.863,1.863,3.503,3.839,4.92,5.926
			L635.299,228.829z"/>
		<path id="path3001" fill="#666666" d="M651.566,261.474c-1.417,2.087-3.057,4.063-4.92,5.926
			c-6.969,6.969-15.261,10.751-24.876,11.348v-19.621c4.212-0.559,7.901-2.423,11.068-5.59c0.932-0.932,1.752-1.9,2.46-2.907
			L651.566,261.474z"/>
	</g>
</g>
</svg>
