<?xml version="1.0" encoding="utf-8"?>
<!-- Generator: Adobe Illustrator 13.0.0, SVG Export Plug-In . SVG Version: 6.00 Build 14948)  -->
<!DOCTYPE svg [
	<!ENTITY ns_flows "http://ns.adobe.com/Flows/1.0/">
	<!ENTITY ns_extend "http://ns.adobe.com/Extensibility/1.0/">
	<!ENTITY ns_ai "http://ns.adobe.com/AdobeIllustrator/10.0/">
	<!ENTITY ns_graphs "http://ns.adobe.com/Graphs/1.0/">
	<!ENTITY ns_vars "http://ns.adobe.com/Variables/1.0/">
	<!ENTITY ns_imrep "http://ns.adobe.com/ImageReplacement/1.0/">
	<!ENTITY ns_sfw "http://ns.adobe.com/SaveForWeb/1.0/">
	<!ENTITY ns_custom "http://ns.adobe.com/GenericCustomNamespace/1.0/">
	<!ENTITY ns_adobe_xpath "http://ns.adobe.com/XPath/1.0/">
]>
<svg version="1.2" baseProfile="tiny" id="Ebene_1" xmlns:x="&ns_extend;" xmlns:i="&ns_ai;" xmlns:graph="&ns_graphs;"
	 xmlns="http://www.w3.org/2000/svg" xmlns:xlink="http://www.w3.org/1999/xlink" xmlns:a="http://ns.adobe.com/AdobeSVGViewerExtensions/3.0/"
	 x="0px" y="0px" width="1005px" height="155px" viewBox="-373.657 52.361 1005 155" xml:space="preserve">
<metadata>
	<sfw  xmlns="&ns_sfw;">
		<slices></slices>
		<sliceSourceBounds  height="123.153" width="891.18" y="447.639" x="352.163" bottomLeftOrigin="true"></sliceSourceBounds>
	</sfw>
</metadata>
<g>
	<path fill="#AA0000" d="M341.373,193.968c-2.26-2.385-8.34-2.6-9.285-2.6c-42.588,0-85.172-0.002-127.764,0.002
		c-4.329,0-5.108,0.531-4.578-4.957c0.868-8.979,4.167-17.322,10.688-23.766c1.249-1.271,1.666-1.699,4.52-4.287
		c12.092-10.957,36.181-19.742,36.181-19.742s20.16-7.443,31.48-11.896c5.084-2,10.049-4.311,14.577-7.445
		c16.421-12.943,7.894-25.79-13.755-28.781c-15.163-2.17-28.979,1.533-41.748,9.677c-1.667,1.063-3.074,2.125-4.684,3.281
		c-2.856,2.414-5.307,5.229-5.836,8.34c-0.286,1.681-0.013,2.838,0.021,3.112c0.108,0.871,0.375,2.25-0.272,2.884
		c-0.778,0.76-2.394-0.002-3.111-0.681c-6.58-6.219-13.172-12.424-19.759-18.637c-0.412-0.389-1.173-1.221-1.173-1.221
		s-0.72-0.834-0.745-1.406c-0.029-0.644,0.604-1.249,1.36-1.485c3.589-0.661,5.245-0.873,7.399-2.448
		c5.797-4.237,11.855-8.025,18.325-11.18c8.651-4.219,17.747-6.726,27.272-8.01c7.325-0.988,28.84-4.338,53.973,6.837
		c6.629,2.907,12.313,7.024,16.598,12.831c2.535,3.437,12.098,22.281-7.383,37.333c-6.963,5.588-15.271,9.038-23.674,11.971
		c-7.188,2.512-12.465,4.396-24.227,7.795c-8.932,2.658-15.342,4.736-25.563,9.586c-8.129,3.855-13.465,8.543-13.465,8.543
		s-2.662,2.053-2.147,3.658c0.446,1.395,2.668,1.254,3.975,1.258c31.445,0.02,62.892,0.014,94.337,0.016
		c3.254,0,6.408-0.229,8.893-2.783c0.361-0.373,1.318-0.574,1.75-0.356c0.414,0.207,0.703,1.061,0.707,1.633
		c0.049,7.365,0.051,14.894,0.008,22.258c-0.006,0.716-0.238,0.972-0.596,1.179C343.134,194.789,341.994,194.623,341.373,193.968z"
		/>
	<path fill="#AA0000" d="M107.1,193.042c-5.159-0.314-10.332-0.979-15.427-1.879c-20.739-3.656-30.385-8.555-36.174-10.826
		c-2.766-1.086-5.47-2.113-8.476-1.012c-0.343,0.127-0.745,0.119-1.121,0.127c-1.911,0.021-2.496-0.723-1.666-2.428
		c0.989-2.031,2.148-3.984,3.317-5.926c3.167-5.252,6.376-10.479,9.57-15.718c0.147-0.239,0.315-0.471,0.46-0.715
		c0.651-1.09,1.366-2.101,2.858-1.892c1.403,0.197,1.706,1.354,2,2.451c0.642,2.388,2.099,4.166,4.016,5.646
		c4.536,3.511,9.659,5.873,15.033,7.748c6.969,2.431,14.143,3.953,21.429,5.097c8.627,1.354,17.299,1.526,25.961,1.024
		c7.342-0.428,14.576-1.752,21.498-4.457c4.213-1.646,7.409-4.553,9.968-8.104c3.395-4.711,2.004-11.188-2.622-14.871
		c-6.284-5.002-13.592-6.979-21.333-8.31c-6.96-1.192-13.912-1.065-20.879-0.976c-3.271,0.043-11.09,0.354-14.087,3.136
		c-1.104,0.972-1.979,1.045-2.504,0.571c-0.525-0.477-0.548-1.229-0.554-1.885c-0.059-6.802-0.066-13.604-0.021-20.401
		c0.015-2.229,1.054-2.902,2.78-1.693c2.18,1.527,4.599,2.195,7.125,2.519c4.196,0.539,17.892,0.063,20.69-0.303
		c7.481-0.978,6.828-0.859,11.194-2.029c4.673-1.252,9.131-4.53,11.458-7.241c0.038-0.043,0.076-0.089,0.113-0.134
		c3.244-3.907,2.154-8.405-0.864-11.626c-2.898-3.09-6.541-5.069-10.597-6.267c-6.647-1.96-13.456-3.032-20.365-2.707
		c-12.507,0.588-24.774,2.497-36.083,8.316c-2.589,1.332-5.016,3.008-7.407,4.686c-2.042,1.433-3.07,3.531-3.128,6.056
		c-0.03,1.313,0.18,2.815-1.379,3.39c-1.573,0.578-2.388-0.791-3.285-1.701c-5.76-5.853-11.496-11.727-17.238-17.598
		c-0.33-0.337-0.698-0.658-0.942-1.053c-0.694-1.123-0.267-2.054,1.063-2.208c1.488-0.172,3.082,0.063,4.464-0.387
		c2.042-0.665,3.952-1.753,5.895-2.707c5.165-2.533,10.195-5.386,15.502-7.57c8.405-3.458,17.25-5.316,26.285-6.437
		c8.648-1.073,23.906-1.519,34.944,0.111c7.378,1.115,14.691,2.597,21.539,5.649c6.041,2.692,11.94,5.698,16.45,10.779
		c3.26,3.672,5.449,7.775,6.183,12.751c0.704,4.771-0.081,9.127-2.12,13.406c-1.404,2.946-3.504,4.854-6.393,6.588
		c-5.668,3.397-9.024,4.248-9.741,4.687c-1.14,0.692-1.19,1.616-0.027,2.282c1.046,0.601,2.248,0.953,3.413,1.315
		c6.821,2.13,12.679,5.873,17.563,11.002c3.567,3.744,5.68,8.23,6.39,13.535c0.726,5.435-0.549,10.236-2.896,14.957
		c-1.827,3.677-4.856,6.263-8.043,8.605c-6.444,4.744-13.622,7.955-21.316,10.232c-5.727,1.691-11.531,2.842-17.409,3.619
		C122.068,194.468,111.803,193.33,107.1,193.042z"/>
	<path fill="#AA0000" d="M383.914,72.788c6.705,0,13.41,0,20.117,0.001c0.66,0,1.328-0.05,1.98,0.028
		c1.494,0.178,1.725,0.81,0.787,2.032c-1.676,2.182-1.662,2.417,0.246,4.435c0.063,0.069,0.133,0.134,0.199,0.201
		c9.354,9.465,18.715,18.931,28.074,28.396c0.465,0.472,0.898,0.979,1.438,1.361c0.939,0.676,1.945,0.688,2.869-0.056
		c0.514-0.412,0.969-0.897,1.434-1.369c9.24-9.317,18.48-18.638,27.719-27.96c0.334-0.335,0.682-0.659,0.977-1.026
		c1.232-1.531,1.203-2.073,0.053-3.714c-1.035-1.398-1.035-2.249,1.076-2.302c0.461-0.012,0.939-0.026,1.412-0.026
		c13.6,0,27.199-0.003,40.799,0.005c0.844,0,1.711-0.01,2.525,0.169c0.348,0.076,0.771,0.6,0.83,0.971
		c0.057,0.367-0.199,1.01-0.504,1.162c-0.918,0.461-1.902,0.855-2.906,1.075c-3.807,0.832-6.908,2.712-9.66,5.516
		c-11.838,12.063-23.799,24.003-35.695,36.012c-2.98,3.016-5.918,6.092-8.842,9.17c-1.85,1.944-1.854,2.862,0.021,4.78
		c3.295,3.36,6.68,6.634,9.959,10.009c2.43,2.5,4.688,5.17,7.137,7.647c6.508,6.582,13.096,13.082,19.613,19.652
		c4.387,4.422,8.736,8.881,13.047,13.377c2.482,2.594,5.373,4.4,8.861,5.293c1.271,0.322,2.514,0.807,3.715,1.338
		c0.326,0.146,0.666,0.764,0.617,1.109c-0.051,0.354-0.516,0.813-0.891,0.932c-0.613,0.193-1.301,0.195-1.955,0.195
		c-13.883,0.01-27.766,0.008-41.648,0.002c-0.563,0-1.15,0.012-1.684-0.141c-0.883-0.252-1.217-0.783-0.67-1.699
		c0.459-0.771,1.186-1.648,1.102-2.402c-0.092-0.801-0.914-1.588-1.559-2.242c-10.768-10.99-21.557-21.961-32.342-32.934
		c-0.396-0.404-0.795-0.809-1.203-1.201c-2.383-2.303-3.256-2.332-5.645,0.043c-6.895,6.857-13.801,13.715-20.633,20.641
		c-4.438,4.498-8.764,9.107-13.129,13.68c-1.645,1.722-1.645,1.83-0.395,4.113c0.713,1.306,0.443,1.879-1.045,2.092
		c-0.646,0.095-1.316,0.058-1.98,0.058c-13.41,0.002-26.818,0.019-40.229-0.022c-1.205-0.004-3.223,0.323-3.326-1.144
		c-0.211-1.533,1.641-1.61,2.729-1.867c4.885-1.143,8.611-3.928,12.064-7.471c11.008-11.291,22.199-22.397,33.279-33.619
		c3.439-3.483,6.729-7.119,10.127-10.646c1.311-1.354,2.764-2.567,4.104-3.896c2.799-2.776,2.813-3.519,0.117-6.235
		c-8.166-8.261-16.348-16.498-24.508-24.763c-6.633-6.715-13.291-13.408-19.84-20.205c-2.521-2.617-5.482-4.244-8.967-5.059
		c-0.643-0.15-1.273-0.349-1.904-0.544c-0.896-0.277-2.004-0.489-1.881-1.71c0.125-1.243,1.217-1.243,2.188-1.241
		c0.568,0.001,1.135-0.002,1.701-0.002C370.501,72.788,377.208,72.788,383.914,72.788z"/>
</g>
<g>
	<path id="path2898_1_" fill="#0584DB" d="M-369.356,194.63l52.284-0.042c21.383,0,38.716-17.33,38.716-38.716
		c0-21.38-17.332-38.713-38.716-38.713l-13.576,0.065c-1.083,0-1.958-0.878-1.958-1.957c0-1.089,0.876-1.964,1.958-1.964
		l52.156,0.007l0.031-16.392h-52.198c-10.117,0-18.314,8.201-18.314,18.313c0,10.115,8.197,18.313,18.314,18.313l13.642,0.153
		c12.244,0,22.168,9.922,22.168,22.163c0,12.248-9.923,22.17-22.168,22.17h-52.319L-369.356,194.63"/>
	<path id="path2900_1_" fill="#0584DB" d="M-369.336,174.172h52.319c10.117,0,18.313-8.195,18.313-18.313
		c0-10.109-8.198-18.31-18.313-18.31l-13.642-0.148c-12.245,0-22.168-9.922-22.168-22.171c0-12.242,9.924-22.165,22.168-22.165
		l52.198-0.023l-0.031-16.479l-52.156-0.016c-21.382,0-38.715,17.335-38.715,38.72c0,21.379,17.332,38.71,38.715,38.71l13.495,0.011
		c1.047,0,1.892,0.848,1.892,1.896c0,1.044-0.845,1.895-1.892,1.895l-52.203,0.02L-369.336,174.172"/>
	<path id="path2902_1_" fill="#0584DB" d="M-237.837,178.134c-9.057,0-16.487-7.256-16.487-16.482v-52.407
		c0-8.885,7.431-16.233,16.487-16.233l55.806,0.015l-0.004-16.459l-55.802-0.011c-18.148,0-32.856,14.714-32.856,32.856v52.239
		c0,18.143,14.709,32.853,32.856,32.853l55.574,0.023l-0.02-16.416L-237.837,178.134"/>
	<path id="path2904_1_" fill="#0584DB" d="M-250.323,109.412c0-6.92,5.563-12.529,12.486-12.529h55.806l-0.004,16.433h-48.078
		c-3.851,0.001-3.897,3.873-3.897,3.873h40.089l0.012,16.38h-56.444L-250.323,109.412"/>
	<path id="path2906_1_" fill="#0584DB" d="M-237.837,174.15c-6.905,0-12.502-5.6-12.502-12.499l-0.011-24.17h56.445l-0.013,16.429
		h-40.095c0.046,3.866,3.899,3.871,3.899,3.871h47.851l-0.02,16.349L-237.837,174.15"/>
	<path id="path2908_1_" fill="#0584DB" d="M-142.932,178.092c-9.06,0-16.442-7.386-16.442-16.44v-52.239
		c0-9.053,7.34-16.399,16.397-16.399l54.028-0.01l0.007-16.442l-54.162-0.003c-18.147,0-32.855,14.712-32.855,32.855v52.24
		c0,18.143,14.84,32.852,32.984,32.852l54.033,0.024l-0.003-77.356h-46.439v16.396h30.023v44.528L-142.932,178.092"/>
	<path id="path2910_1_" fill="#0584DB" d="M-155.507,161.651c0,6.916,5.609,12.614,12.529,12.614l33.744,0.002v-36.823h-26.11v16.45
		h9.691l0.04,3.872l-9.642-0.014c-2.13,0-3.856-1.729-3.856-3.858l-0.06-36.745c0,0-0.01-3.831,3.873-3.911h46.396l-0.046-16.399
		l-54.028,0.042c-6.919,0-12.527,5.611-12.527,12.528v52.242"/>
	<path id="path2912_1_" fill="#0584DB" d="M-38.173,96.609c0.728-2.088,2.716-3.593,5.051-3.593c2.342,0,4.336,1.511,5.057,3.605
		l26.207,77.729h-38.378l0.04-18.279h12.84l-5.795-17.212l-18.807,55.651h-19.386L-38.173,96.609"/>
	<path id="path2914_1_" fill="#0584DB" d="M3.443,178.097h-43.62v16.418h66.413L-8.312,91.994
		c-3.026-9.996-12.989-17.333-24.82-17.333c-11.818,0-21.777,7.333-24.811,17.314l-34.865,102.536h17.388l33.823-99.679
		c1.383-3.298,4.638-5.62,8.438-5.62c3.797,0,7.042,2.302,8.428,5.59L3.443,178.097"/>
</g>
</svg>
