<?xml version="1.0" encoding="utf-8"?>
<!-- Generator: Adobe Illustrator 13.0.0, SVG Export Plug-In . SVG Version: 6.00 Build 14948)  -->
<svg version="1.2" baseProfile="tiny" id="Ebene_1" xmlns="http://www.w3.org/2000/svg" xmlns:xlink="http://www.w3.org/1999/xlink"
	 x="0px" y="0px" width="477.948px" height="205.537px" viewBox="43.869 -10.908 477.948 205.537" xml:space="preserve">
<path fill="#E50000" d="M341.373,193.968c-2.26-2.385-8.34-2.6-9.285-2.6c-42.588,0-85.173-0.002-127.765,0.002
	c-4.329,0-5.108,0.532-4.578-4.957c0.868-8.979,4.167-17.322,10.688-23.765c1.249-1.271,1.666-1.7,4.52-4.287
	c12.092-10.957,36.182-19.743,36.182-19.743s20.159-7.443,31.479-11.897c5.085-2,10.05-4.31,14.578-7.445
	c16.421-12.943,7.894-25.789-13.755-28.781c-15.163-2.17-28.978,1.533-41.748,9.677c-1.667,1.063-3.074,2.125-4.684,3.281
	c-2.856,2.414-5.307,5.229-5.836,8.34c-0.286,1.681-0.013,2.838,0.021,3.112c0.108,0.871,0.375,2.25-0.272,2.884
	c-0.778,0.76-2.394-0.002-3.111-0.681c-6.58-6.219-13.172-12.424-19.759-18.637c-0.412-0.389-1.173-1.221-1.173-1.221
	s-0.72-0.834-0.745-1.406c-0.029-0.644,0.604-1.249,1.36-1.485c3.589-0.661,5.245-0.873,7.399-2.448
	c5.797-4.237,11.855-8.025,18.325-11.18c8.651-4.219,17.747-6.726,27.272-8.01c7.325-0.988,28.84-4.338,53.973,6.837
	c6.629,2.907,12.313,7.024,16.598,12.831c2.535,3.437,12.096,22.281-7.383,37.333c-6.963,5.588-15.273,9.038-23.674,11.971
	c-7.188,2.511-12.465,4.396-24.227,7.795c-8.931,2.658-15.342,4.736-25.563,9.585c-8.129,3.856-13.465,8.543-13.465,8.543
	s-2.662,2.053-2.147,3.659c0.446,1.394,2.668,1.254,3.975,1.257c31.445,0.02,62.892,0.014,94.337,0.016
	c3.254,0,6.408-0.229,8.893-2.784c0.361-0.373,1.318-0.574,1.75-0.356c0.414,0.207,0.703,1.061,0.707,1.633
	c0.049,7.365,0.051,14.894,0.008,22.258c-0.006,0.716-0.24,0.972-0.596,1.179C343.134,194.789,341.994,194.623,341.373,193.968z"/>
<path fill="#E50000" d="M107.1,193.042c-5.159-0.315-10.332-0.979-15.427-1.879c-20.739-3.656-30.385-8.554-36.174-10.826
	c-2.766-1.086-5.47-2.114-8.476-1.012c-0.343,0.127-0.745,0.12-1.121,0.127c-1.911,0.021-2.496-0.722-1.666-2.427
	c0.989-2.032,2.148-3.985,3.317-5.926c3.167-5.252,6.376-10.479,9.57-15.718c0.147-0.239,0.315-0.471,0.46-0.715
	c0.651-1.09,1.366-2.101,2.858-1.892c1.403,0.197,1.706,1.354,2,2.451c0.642,2.388,2.099,4.166,4.016,5.647
	c4.536,3.511,9.659,5.873,15.033,7.748c6.969,2.431,14.143,3.953,21.429,5.097c8.627,1.354,17.299,1.526,25.961,1.024
	c7.342-0.427,14.576-1.752,21.498-4.457c4.213-1.646,7.409-4.552,9.968-8.103c3.395-4.711,2.004-11.188-2.622-14.871
	c-6.284-5.002-13.592-6.979-21.333-8.31c-6.96-1.192-13.912-1.065-20.879-0.976c-3.271,0.043-11.09,0.354-14.087,3.136
	c-1.104,0.972-1.979,1.045-2.504,0.571c-0.525-0.476-0.548-1.228-0.554-1.885c-0.059-6.801-0.066-13.604-0.021-20.401
	c0.015-2.228,1.054-2.902,2.78-1.693c2.18,1.527,4.599,2.195,7.125,2.519c4.196,0.539,17.892,0.063,20.69-0.303
	c7.481-0.978,6.828-0.859,11.194-2.029c4.673-1.252,9.131-4.531,11.458-7.242c0.038-0.043,0.076-0.088,0.113-0.133
	c3.244-3.908,2.154-8.406-0.864-11.627c-2.898-3.09-6.541-5.069-10.597-6.267c-6.647-1.96-13.456-3.032-20.365-2.707
	c-12.507,0.588-24.774,2.497-36.083,8.316c-2.589,1.332-5.016,3.008-7.407,4.686c-2.042,1.433-3.07,3.531-3.128,6.056
	c-0.03,1.313,0.18,2.815-1.379,3.389c-1.573,0.578-2.388-0.791-3.285-1.701c-5.76-5.852-11.496-11.727-17.238-17.598
	c-0.33-0.337-0.698-0.658-0.942-1.053c-0.694-1.123-0.267-2.054,1.063-2.208c1.488-0.172,3.082,0.063,4.464-0.387
	c2.042-0.665,3.952-1.753,5.895-2.707c5.165-2.533,10.195-5.386,15.502-7.57c8.405-3.458,17.25-5.316,26.285-6.437
	c8.648-1.073,23.906-1.519,34.944,0.111c7.378,1.115,14.691,2.597,21.539,5.649c6.041,2.692,11.94,5.698,16.45,10.779
	c3.26,3.672,5.449,7.775,6.183,12.751c0.704,4.77-0.081,9.127-2.12,13.406c-1.404,2.947-3.504,4.855-6.393,6.588
	c-5.668,3.398-9.024,4.248-9.741,4.686c-1.14,0.693-1.19,1.617-0.027,2.283c1.046,0.6,2.248,0.953,3.413,1.316
	c6.821,2.129,12.679,5.873,17.563,11.002c3.567,3.744,5.68,8.23,6.39,13.535c0.726,5.434-0.549,10.236-2.896,14.957
	c-1.827,3.676-4.856,6.262-8.043,8.605c-6.444,4.744-13.622,7.955-21.316,10.232c-5.727,1.692-11.531,2.842-17.409,3.619
	C122.068,194.468,111.803,193.33,107.1,193.042z"/>
<path fill="#E50000" d="M383.914,72.788c6.705,0,13.41,0,20.117,0.001c0.66,0,1.328-0.05,1.98,0.028
	c1.494,0.178,1.725,0.81,0.787,2.032c-1.676,2.182-1.662,2.417,0.246,4.435c0.063,0.069,0.133,0.134,0.199,0.201
	c9.355,9.465,18.715,18.931,28.074,28.396c0.465,0.471,0.9,0.98,1.438,1.361c0.939,0.676,1.945,0.689,2.869-0.055
	c0.514-0.412,0.969-0.898,1.434-1.369c9.24-9.318,18.48-18.639,27.719-27.961c0.334-0.335,0.682-0.659,0.977-1.026
	c1.232-1.531,1.203-2.073,0.053-3.714c-1.035-1.398-1.035-2.249,1.076-2.302c0.461-0.012,0.939-0.026,1.412-0.026
	c13.6,0,27.199-0.003,40.799,0.005c0.844,0,1.711-0.01,2.525,0.169c0.348,0.076,0.771,0.6,0.83,0.971
	c0.057,0.367-0.199,1.01-0.504,1.162c-0.918,0.461-1.902,0.855-2.906,1.075c-3.807,0.832-6.908,2.712-9.66,5.516
	c-11.838,12.063-23.799,24.004-35.695,36.012c-2.982,3.016-5.918,6.092-8.842,9.17c-1.85,1.945-1.854,2.863,0.021,4.781
	c3.295,3.36,6.68,6.633,9.959,10.008c2.43,2.5,4.688,5.17,7.137,7.648c6.508,6.582,13.096,13.082,19.613,19.652
	c4.387,4.422,8.736,8.881,13.047,13.377c2.482,2.594,5.373,4.4,8.861,5.293c1.271,0.322,2.514,0.807,3.715,1.338
	c0.326,0.146,0.666,0.764,0.617,1.109c-0.051,0.355-0.516,0.813-0.891,0.932c-0.613,0.193-1.301,0.195-1.955,0.195
	c-13.883,0.01-27.766,0.008-41.648,0.002c-0.563,0-1.15,0.012-1.684-0.141c-0.883-0.252-1.217-0.783-0.67-1.699
	c0.459-0.771,1.186-1.648,1.102-2.402c-0.092-0.801-0.914-1.588-1.559-2.242c-10.768-10.99-21.557-21.961-32.342-32.934
	c-0.396-0.404-0.795-0.809-1.203-1.201c-2.383-2.303-3.256-2.332-5.643,0.043c-6.896,6.857-13.801,13.715-20.633,20.641
	c-4.438,4.498-8.764,9.107-13.129,13.679c-1.645,1.722-1.645,1.831-0.395,4.114c0.713,1.305,0.443,1.879-1.045,2.092
	c-0.646,0.094-1.316,0.057-1.98,0.057c-13.41,0.002-26.818,0.018-40.229-0.023c-1.205-0.004-3.223,0.324-3.326-1.143
	c-0.211-1.533,1.641-1.611,2.729-1.867c4.883-1.143,8.611-3.928,12.064-7.471c11.008-11.291,22.199-22.398,33.279-33.619
	c3.439-3.484,6.729-7.119,10.127-10.645c1.311-1.355,2.764-2.568,4.104-3.896c2.799-2.777,2.811-3.518,0.117-6.236
	c-8.166-8.26-16.348-16.498-24.508-24.762c-6.633-6.715-13.291-13.408-19.84-20.205c-2.521-2.617-5.482-4.244-8.967-5.059
	c-0.643-0.15-1.273-0.349-1.904-0.544c-0.896-0.277-2.004-0.489-1.881-1.71c0.125-1.243,1.217-1.243,2.188-1.241
	c0.568,0.001,1.135-0.002,1.701-0.002C370.501,72.788,377.208,72.788,383.914,72.788z"/>
<path id="path2898_1_" fill="#30A0FC" d="M167.641,59.933l30.873-0.025c12.627,0,22.862-10.233,22.862-22.861
	c0-12.625-10.234-22.86-22.862-22.86l-8.016,0.039c-0.64,0-1.156-0.519-1.156-1.156c0-0.643,0.517-1.16,1.156-1.16l30.798,0.004
	l0.018-9.678h-30.823c-5.974,0-10.814,4.842-10.814,10.813c0,5.974,4.84,10.814,10.814,10.814l8.056,0.09
	c7.23,0,13.09,5.859,13.09,13.087c0,7.232-5.859,13.092-13.09,13.092h-30.894L167.641,59.933"/>
<path id="path2900_1_" fill="#30A0FC" d="M167.653,47.853h30.894c5.974,0,10.814-4.84,10.814-10.814
	c0-5.969-4.841-10.812-10.814-10.812l-8.056-0.088c-7.23,0-13.09-5.858-13.09-13.091c0-7.228,5.86-13.088,13.09-13.088l30.823-0.014
	l-0.018-9.73l-30.798-0.01c-12.626,0-22.861,10.236-22.861,22.864c0,12.624,10.234,22.858,22.861,22.858l7.969,0.007
	c0.618,0,1.117,0.499,1.117,1.119c0,0.617-0.499,1.119-1.117,1.119l-30.826,0.011L167.653,47.853"/>
<path id="path2902_1_" fill="#30A0FC" d="M245.302,50.192c-5.348,0-9.735-4.285-9.735-9.733V9.513c0-5.247,4.387-9.585,9.735-9.585
	l32.953,0.009l-0.002-9.719l-32.95-0.007c-10.717,0-19.402,8.688-19.402,19.401v30.847c0,10.713,8.686,19.399,19.402,19.399
	l32.815,0.014l-0.011-9.693L245.302,50.192"/>
<path id="path2904_1_" fill="#30A0FC" d="M237.929,9.612c0-4.085,3.285-7.398,7.374-7.398h32.953l-0.002,9.703h-28.39
	c-2.275,0.001-2.302,2.287-2.302,2.287h23.673l0.007,9.672h-33.33L237.929,9.612"/>
<path id="path2906_1_" fill="#30A0FC" d="M245.302,47.84c-4.077,0-7.382-3.307-7.382-7.381l-0.007-14.273h33.33l-0.007,9.701H247.56
	c0.028,2.284,2.303,2.287,2.303,2.287h28.255l-0.011,9.654L245.302,47.84"/>
<path id="path2908_1_" fill="#30A0FC" d="M301.343,50.167c-5.349,0-9.709-4.361-9.709-9.708V9.612c0-5.345,4.334-9.683,9.683-9.683
	l31.903-0.006l0.004-9.709l-31.982-0.002c-10.716,0-19.401,8.688-19.401,19.401v30.847c0,10.713,8.763,19.399,19.477,19.399
	l31.907,0.014l-0.003-45.679H305.8v9.682h17.729v26.294L301.343,50.167"/>
<path id="path2910_1_" fill="#30A0FC" d="M293.917,40.459c0,4.084,3.313,7.449,7.399,7.449l19.925,0.001V26.165h-15.417v9.714h5.722
	l0.023,2.286l-5.693-0.008c-1.257,0-2.277-1.021-2.277-2.278l-0.035-21.698c0,0-0.006-2.262,2.287-2.31h27.396l-0.026-9.682
	l-31.904,0.024c-4.086,0-7.398,3.313-7.398,7.398V40.459"/>
<path id="path2912_1_" fill="#30A0FC" d="M363.203,2.053c0.429-1.234,1.604-2.122,2.983-2.122c1.382,0,2.56,0.892,2.985,2.128
	l15.476,45.899h-22.664l0.024-10.794h7.582l-3.421-10.163l-11.106,32.862h-11.447L363.203,2.053"/>
<path id="path2914_1_" fill="#30A0FC" d="M387.777,50.17H362.02v9.694h39.215L380.836-0.673
	c-1.787-5.902-7.671-10.235-14.656-10.235c-6.979,0-12.86,4.33-14.651,10.223l-20.588,60.548h10.268l19.972-58.86
	c0.817-1.948,2.738-3.318,4.983-3.318c2.241,0,4.158,1.359,4.977,3.3L387.777,50.17"/>
</svg>
