<?xml version="1.0" encoding="utf-8"?>
<!-- Generator: Adobe Illustrator 16.0.3, SVG Export Plug-In . SVG Version: 6.00 Build 0)  -->
<!DOCTYPE svg PUBLIC "-//W3C//DTD SVG 1.1//EN" "http://www.w3.org/Graphics/SVG/1.1/DTD/svg11.dtd">
<svg version="1.1" id="Layer_1" xmlns="http://www.w3.org/2000/svg" xmlns:xlink="http://www.w3.org/1999/xlink" x="0px" y="0px"
	 width="566.936px" height="274.332px" viewBox="0 0 566.936 274.332" enable-background="new 0 0 566.936 274.332"
	 xml:space="preserve">
<g>
	<g>
		<path fill="#FF0000" d="M57.9,201.665c-0.39,0-0.787-0.088-1.161-0.271C18.76,182.96-0.85,161.472,0.028,139.247
			c0.714-18.296,15.645-35.57,43.177-49.959c26.123-13.65,62.969-24.482,106.557-31.33c1.454-0.227,2.815,0.766,3.043,2.218
			c0.229,1.452-0.764,2.813-2.217,3.043C62.295,77.085,6.644,106.298,5.35,139.458c-0.777,19.661,18.299,39.957,53.715,57.146
			c1.323,0.644,1.875,2.231,1.233,3.56C59.836,201.112,58.888,201.665,57.9,201.665z"/>
	</g>
	<g>
		<path fill="#FF0000" d="M388.979,65.167c-0.145,0-0.289-0.011-0.436-0.035c-28.057-4.606-57.67-7.681-88.023-9.133
			c-1.471-0.069-2.604-1.317-2.533-2.787c0.07-1.468,1.341-2.589,2.787-2.531c30.558,1.463,60.379,4.557,88.636,9.196
			c1.448,0.238,2.434,1.607,2.194,3.06C391.388,64.242,390.261,65.167,388.979,65.167z"/>
	</g>
	<g>
		<path fill="#FF0000" d="M305.16,247.033c-0.746,0-1.486,0-2.232-0.003c-1.471-0.003-2.655-1.198-2.651-2.67
			c0.004-1.468,1.19-2.653,2.658-2.653c0.004,0,0.008,0,0.012,0c0.731,0.002,1.479,0.002,2.215,0.002
			c142.504,0.002,254.953-37.04,256.436-84.646c0.521-16.659-12.862-33.561-38.709-48.873
			c-25.735-15.251-62.619-28.25-106.66-37.589c-1.438-0.306-2.356-1.72-2.053-3.157c0.303-1.439,1.721-2.354,3.158-2.052
			c44.6,9.459,82.039,22.674,108.27,38.217c27.615,16.364,41.902,34.906,41.316,53.62c-0.787,25.316-28.754,48.395-78.748,64.974
			C439.834,238.231,374.916,247.033,305.16,247.033z"/>
	</g>
	<polygon fill="#FF0000" points="353.382,108.404 423.681,54.818 341.114,87.776 317.91,63.624 325.308,97.091 255.009,150.675 
		337.58,117.708 360.78,141.861 	"/>
	<g>
		<path fill="#FF0000" d="M265.343,175.296c1.008-4.961,2.846-4.24,7.877-5.039l4.683-0.738l-1.458,7.809l-4.683,0.748
			C266.731,178.874,264.516,180.22,265.343,175.296z M255.19,168.148l-3.645,19.606c-0.998,5.354,0.62,7.078,5.772,6.263
			l29.831-4.732l6.394-34.386l-29.833,4.725C258.555,160.441,256.179,162.796,255.19,168.148z M444.558,137.198l-0.348,1.896
			l30.77-4.885c2.429-0.39,4.796-2.845,5.291-5.5c0.486-2.653-1.075-4.492-3.506-4.104l-7.903,1.248l-12.609,2.007l-3.195,0.5
			C449.363,128.951,445.308,133.165,444.558,137.198z M228.671,225.867l0.25-1.367c1.058,0.08,2.476,0.489,3.714,0.304l31.98-5.016
			c-1.188,6.38-9.615,7.979-22.475,10.017l-14.637,2.325l-7.848,42.202l19.23-3.047c47.345-4.673,65.357-29.143,71.138-58.313
			l57.688-9.155l9.295-50.021l4.692-0.75c5.142-0.815,4.384-1.746,3.396,3.597l-8.508,45.769l41.416-6.572l0.567-3.033
			c3.126,1.378,6.779,1.865,10.646,1.258l71.625-11.361l6.68-35.953l-4.643-3.306c4.023-4.763,7.158-10.593,8.066-15.485l1.129-5.67
			c3.573-21.207-15.978-26.838-24.9-25.42l-41.104,6.521c-7.279,1.156-15.295,6.229-21.127,12.949
			c-5.394-5.342-13.72-7.418-18.562-6.649l-45.76,7.259l5.123,11.322l41.27-6.54c5.951-0.948,9.928,1.428,11.018,6.14
			c-0.438,1.248-11.018,57.579-11.018,57.579l-14.797,2.349l7.934-42.645c0.982-5.341-0.633-7.068-5.771-6.25l-28.357,4.503
			l-9.303,50.021l-16.266,2.589l10.645-57.271l-13.391-15.796l-48.203,17.425l22.846-3.625l0.369-0.051l-14.527,78.156
			c-3.692,19.854-24.878,38.839-43.669,41.823l-19.229,3.047l2.916-15.641l14.627-2.313c12.859-2.047,27.336-14.916,29.833-28.375
			l1.578-8.468l-38.09,6.041c-8.167,1.298-12.6-3.664-10.993-12.291l6.83-36.742c1.208-6.529,5.282-11.95,10.733-14.768l0.09-0.979
			l19.109-14.707l-11.163,1.877c-5.94,0.938-16.953,5.392-23.951,14.317c-5.292-6.313-14.547-8.786-19.759-7.959l-41.055,6.521
			l6.69-35.963l29.953-4.752c15.944-2.526,33.586-20.458,36.721-37.301l4.503-24.232c3.135-16.854-8.716-30.103-24.661-27.576
			l-65.457,10.384l-13.948,75.041l-60.275,9.565c-5.102,0.81-10.064,5.841-11.062,11.231L55.935,243.79
			c-0.999,5.394,2.326,9.113,7.429,8.31l115.008-18.252l9.305-50.021l4.682-0.748c5.152-0.809,4.393-1.735,3.395,3.604
			l-8.506,45.757L228.671,225.867z M143.328,198.441l-38.459,6.101l1.448-7.808l31.061-4.937l7.558-40.646l-31.061,4.935
			l1.447-7.815l38.459-6.103L143.328,198.441z M141.001,210.951l-3.195,17.192l-68.042,10.794l21.207-114.12l56.211-8.916
			l-2.906,15.635l-39.937,6.342l-6.1,32.828l32.539-5.162l-2.905,15.627l-32.539,5.162l-6.11,32.836L141.001,210.951z
			 M219.157,215.247l-16.274,2.571l7.927-42.632c0.999-5.344-0.619-7.078-5.771-6.262l-28.355,4.504l-9.294,50.021l-16.275,2.586
			l12.201-65.652l0.379-0.063l53.984-8.563c8.167-1.299,12.6,3.652,10.993,12.289L219.157,215.247z M324.918,134.741l15.905-2.516
			l-12.211,65.652l-16.266,2.578l12.199-65.646L324.918,134.741z M423.603,165.684l5.648-30.372
			c1.791-9.604,12.113-19.04,20.908-20.438l38.049-6.029c6.412-1.021,10.865,6.14,9.557,13.147l-1.866,9.774
			c-1.31,7.009-8.468,14.458-14.875,15.476l-39.498,6.271l-0.568,3.545c-0.75,4.031,1.926,7.18,5.621,6.591l44.147-7.03
			l-2.975,16.02l-49.801,7.896C429.154,181.927,421.826,175.296,423.603,165.684z M188.206,80.568l5.522-29.703l20.707-3.285
			c2.716-0.43,4.104,1.119,3.564,3.983l-3.774,20.329c-0.54,2.875-2.596,4.961-5.312,5.391L188.206,80.568z"/>
		<g>
			<path fill="#FF0000" d="M320.565,94.466l-4.395-17.412l-2.479,0.299l-0.797,4.293c-0.551,2.977-2.943,5.4-5.752,5.852
				l-17.015,2.695c-2.808,0.449-4.414-1.348-3.862-4.323l8.575-46.117c0.55-2.965,2.943-5.392,5.748-5.841l17.019-2.695
				c2.807-0.448,4.412,1.349,3.858,4.313l-1.098,5.87l34.396-5.462l1.307-7.029c3.296-17.741-8.766-31.229-25.561-28.574
				l-32.906,5.223c-16.783,2.666-34.754,20.917-38.048,38.658l-9.154,49.243c-3.295,17.741,8.766,31.229,25.56,28.564l11-1.737
				L320.565,94.466z"/>
			<path fill="#FF0000" d="M344.946,83.962c0.898-2.416,1.519-3.334,1.979-5.812l1.168-6.26l-13.688,2.176L344.946,83.962z"/>
		</g>
	</g>
</g>
</svg>
