<?xml version="1.0" encoding="utf-8"?>
<!-- Generator: Adobe Illustrator 16.0.3, SVG Export Plug-In . SVG Version: 6.00 Build 0)  -->
<!DOCTYPE svg PUBLIC "-//W3C//DTD SVG 1.1//EN" "http://www.w3.org/Graphics/SVG/1.1/DTD/svg11.dtd">
<svg version="1.1" id="_x30_" xmlns="http://www.w3.org/2000/svg" xmlns:xlink="http://www.w3.org/1999/xlink" x="0px" y="0px"
	 width="37.061px" height="37.061px" viewBox="0 0 37.061 37.061" enable-background="new 0 0 37.061 37.061" xml:space="preserve">
<path fill="#FFFFFF" d="M16.973,16.086h1.779c0.722,0,1.117,0.312,1.117,1.022c0,0.747-0.396,1.06-1.117,1.06h-1.779V16.086z
	 M15.353,22.212h1.62v-2.886h1.625c0.816,0,1.117,0.342,1.23,1.118c0.082,0.589,0.061,1.304,0.258,1.769h1.621
	c-0.289-0.414-0.279-1.28-0.313-1.748c-0.051-0.744-0.275-1.521-1.07-1.728c0,0,1.166-0.303,1.166-1.873
	c0-1.118-0.838-2.036-2.16-2.036h-3.979L15.353,22.212L15.353,22.212z"/>
<g>
	<path fill="#FFFFFF" d="M29.254,11.526c3.478,0,6.307,3.14,6.307,6.996c0,3.866-2.829,7.012-6.307,7.012H7.76
		c-3.452-0.03-6.26-3.177-6.26-7.012c0-3.827,2.808-6.966,6.247-6.996H29.254 M29.254,10.026c-0.021,0-21.507,0-21.507,0
		C3.466,10.063,0,13.846,0,18.522c0,4.679,3.466,8.473,7.747,8.512c0,0,21.483,0,21.507,0c4.313,0,7.807-3.812,7.807-8.512
		C37.061,13.823,33.566,10.026,29.254,10.026L29.254,10.026z"/>
</g>
</svg>
