<?xml version="1.0" encoding="utf-8"?>
<!-- Generator: Adobe Illustrator 16.0.3, SVG Export Plug-In . SVG Version: 6.00 Build 0)  -->
<!DOCTYPE svg PUBLIC "-//W3C//DTD SVG 1.1//EN" "http://www.w3.org/Graphics/SVG/1.1/DTD/svg11.dtd">
<svg version="1.1" id="_x30_" xmlns="http://www.w3.org/2000/svg" xmlns:xlink="http://www.w3.org/1999/xlink" x="0px" y="0px"
	 width="37.061px" height="37.061px" viewBox="0 0 37.061 37.061" enable-background="new 0 0 37.061 37.061" xml:space="preserve">
<g>
	<g>
		<path fill="#FFFFFF" d="M18.53,3.029c-8.561,0-15.5,6.94-15.5,15.5c0,8.562,6.939,15.502,15.5,15.502
			c8.563,0,15.5-6.94,15.5-15.502C34.03,9.97,27.091,3.029,18.53,3.029z M20.102,20.174v4.75h-2.7v-4.89l-4.555-8.618h2.969
			l2.95,6.226h0.056l2.95-6.226h2.971L20.102,20.174z"/>
	</g>
</g>
<g opacity="0">
	<path fill="#FFFFFF" d="M36.961,0.1v36.861H0.1V0.1H36.961 M37.061,0H0v37.06h37.061V0L37.061,0z"/>
</g>
</svg>
