<?xml version="1.0" encoding="utf-8"?>
<!-- Generator: Adobe Illustrator 16.0.3, SVG Export Plug-In . SVG Version: 6.00 Build 0)  -->
<!DOCTYPE svg PUBLIC "-//W3C//DTD SVG 1.1//EN" "http://www.w3.org/Graphics/SVG/1.1/DTD/svg11.dtd">
<svg version="1.1" id="_x30_" xmlns="http://www.w3.org/2000/svg" xmlns:xlink="http://www.w3.org/1999/xlink" x="0px" y="0px"
	 width="37.061px" height="37.061px" viewBox="0 0 37.061 37.061" enable-background="new 0 0 37.061 37.061" xml:space="preserve">
<path fill="#FFFFFF" d="M33.065,15.548h1.438V9.471h2.563v-1.13h-6.563v1.13h2.563L33.065,15.548L33.065,15.548z M24.351,11.573
	V9.471h2.482c0.755,0,1.226,0.292,1.226,1.039c0,0.808-0.432,1.063-1.226,1.063H24.351z M22.917,15.548h1.434v-2.846h2.443
	c1.053,0,1.188,0.727,1.188,1.755c0,0.526,0.068,0.89,0.174,1.091h1.552c-0.281-0.395-0.29-1.199-0.29-1.546
	c0-1.019-0.18-1.766-0.994-1.945v-0.021c0.643-0.211,1.128-0.797,1.128-1.737c0-1.119-0.563-1.954-2.305-1.954h-4.327L22.917,15.548
	L22.917,15.548z M14.032,15.548h1.551l0.708-1.786h3.217l0.718,1.786h1.603l-3.045-7.207h-1.704L14.032,15.548z M16.723,12.632
	L17.91,9.59l1.168,3.042H16.723z M9.992,15.548h1.434V9.471h2.567v-1.13H7.425v1.13h2.567V15.548z M0.187,10.368
	c0,2.956,5.036,1.4,5.036,3.188c0,0.792-0.813,1.064-1.684,1.064c-1.179,0-1.923-0.456-1.963-1.407H0.026
	c0.021,1.516,1.005,2.538,3.469,2.538c1.455,0,3.28-0.486,3.28-2.345c0-3.079-5.093-1.454-5.093-3.148
	c0-0.676,0.632-0.988,1.589-0.988c1.196,0,1.676,0.604,1.726,1.161h1.551c-0.185-2.093-2.29-2.292-3.345-2.292
	C1.536,8.139,0.187,8.762,0.187,10.368"/>
<g>
	<g>
		<path fill="#FFFFFF" d="M33.217,19.118H3.845C1.722,19.118,0,20.89,0,23.075s1.722,3.957,3.845,3.957h29.372
			c2.123,0,3.844-1.771,3.844-3.957C37.061,20.889,35.34,19.118,33.217,19.118z"/>
	</g>
</g>
</svg>
