<?xml version="1.0" encoding="utf-8"?>
<!-- Generator: Adobe Illustrator 16.0.3, SVG Export Plug-In . SVG Version: 6.00 Build 0)  -->
<!DOCTYPE svg PUBLIC "-//W3C//DTD SVG 1.1//EN" "http://www.w3.org/Graphics/SVG/1.1/DTD/svg11.dtd">
<svg version="1.1" id="_x30_" xmlns="http://www.w3.org/2000/svg" xmlns:xlink="http://www.w3.org/1999/xlink" x="0px" y="0px"
	 width="37.061px" height="37.061px" viewBox="0 0 37.061 37.061" enable-background="new 0 0 37.061 37.061" xml:space="preserve">
<g>
	<g>
		<path fill="#FFFFFF" d="M18.914,14.579l-1.682,5.308h3.405l-1.67-5.308H18.914z M18.531,3.029c-8.562,0-15.501,6.94-15.501,15.5
			c0,8.563,6.939,15.502,15.501,15.502S34.03,27.091,34.03,18.529C34.03,9.97,27.091,3.029,18.531,3.029z M22.227,24.925
			l-0.919-2.913h-4.741l-0.918,2.913h-2.735l4.646-13.509h2.774l4.629,13.509H22.227z"/>
	</g>
</g>
<g opacity="0">
	<path fill="#FFFFFF" d="M36.961,0.1v36.861H0.1V0.1H36.961 M37.061,0H0v37.06h37.061V0L37.061,0z"/>
</g>
</svg>
