<?xml version="1.0" encoding="utf-8"?>
<!-- Generator: Adobe Illustrator 16.0.3, SVG Export Plug-In . SVG Version: 6.00 Build 0)  -->
<!DOCTYPE svg PUBLIC "-//W3C//DTD SVG 1.1//EN" "http://www.w3.org/Graphics/SVG/1.1/DTD/svg11.dtd">
<svg version="1.1" id="_x30_" xmlns="http://www.w3.org/2000/svg" xmlns:xlink="http://www.w3.org/1999/xlink" x="0px" y="0px"
	 width="37.061px" height="37.061px" viewBox="0 0 37.061 37.061" enable-background="new 0 0 37.061 37.061" xml:space="preserve">
<g>
	<g>
		<path fill="#FFFFFF" d="M33.217,19.118H3.845C1.722,19.118,0,20.89,0,23.075s1.722,3.957,3.845,3.957h29.372
			c2.123,0,3.844-1.771,3.844-3.957C37.061,20.889,35.34,19.118,33.217,19.118z"/>
	</g>
</g>
<path fill="#FFFFFF" d="M33.757,15.549h1.186V9.474h2.124V8.345h-5.433v1.128h2.123V15.549z M30.855,11.007
	c-0.126-1.554-1.141-2.864-3.087-2.864c-2.225,0-3.162,1.773-3.162,3.805c0,2.026,0.979,3.804,3.021,3.804
	c2.328,0,3.063-1.521,3.229-2.958h-1.28c-0.099,0.757-0.51,1.829-1.743,1.829c-1.175,0-1.988-1.042-1.988-2.546
	c0-1.877,0.813-2.808,1.908-2.808c0.999,0,1.704,0.646,1.823,1.737L30.855,11.007L30.855,11.007z M18.659,15.549h4.973V14.42h-3.786
	v-1.998h3.573v-1.129h-3.573V9.474h3.721V8.345H18.66L18.659,15.549L18.659,15.549z M12.979,15.549h4.625v-1.188h-3.437V8.345
	h-1.188V15.549z M6.714,15.549h4.974V14.42H7.902v-1.998h3.572v-1.129H7.902V9.474h3.726V8.345H6.714V15.549z M0.149,10.372
	c0,2.955,4.167,1.398,4.167,3.186c0,0.792-0.673,1.064-1.395,1.064c-0.976,0-1.591-0.456-1.624-1.407H0.015
	C0.03,14.73,0.846,15.75,2.882,15.75c1.205,0,2.716-0.484,2.716-2.343c0-3.077-4.213-1.455-4.213-3.146
	c0-0.677,0.523-0.991,1.313-0.991c0.99,0,1.388,0.605,1.428,1.163H5.41c-0.152-2.091-1.896-2.29-2.767-2.29
	C1.266,8.143,0.149,8.767,0.149,10.372"/>
<g opacity="0">
	<path fill="#FFFFFF" d="M36.961,0.1v36.861H0.1V0.1H36.961 M37.061,0H0v37.06h37.061V0L37.061,0z"/>
</g>
</svg>
