<?xml version="1.0" encoding="utf-8"?>
<!-- Generator: Adobe Illustrator 16.0.3, SVG Export Plug-In . SVG Version: 6.00 Build 0)  -->
<!DOCTYPE svg PUBLIC "-//W3C//DTD SVG 1.1//EN" "http://www.w3.org/Graphics/SVG/1.1/DTD/svg11.dtd">
<svg version="1.1" id="_x30_" xmlns="http://www.w3.org/2000/svg" xmlns:xlink="http://www.w3.org/1999/xlink" x="0px" y="0px"
	 width="37.061px" height="37.061px" viewBox="0 0 37.061 37.061" enable-background="new 0 0 37.061 37.061" xml:space="preserve">
<g>
	<path fill="#FFFFFF" d="M29.254,11.526c3.478,0,6.307,3.14,6.307,6.997c0,3.866-2.829,7.011-6.307,7.011H7.76
		c-3.452-0.03-6.26-3.177-6.26-7.011c0-3.828,2.808-6.966,6.247-6.997H29.254 M29.254,10.026c-0.021,0-21.507,0-21.507,0
		C3.466,10.064,0,13.846,0,18.523c0,4.678,3.466,8.473,7.747,8.511c0,0,21.483,0,21.507,0c4.313,0,7.807-3.812,7.807-8.511
		S33.566,10.026,29.254,10.026L29.254,10.026z"/>
</g>
<polygon fill="#FFFFFF" points="15.92,22.212 21.141,22.212 21.141,20.85 17.543,20.85 17.543,14.833 15.92,14.833 "/>
</svg>
