<?xml version="1.0" encoding="utf-8"?>
<!-- Generator: Adobe Illustrator 16.0.3, SVG Export Plug-In . SVG Version: 6.00 Build 0)  -->
<!DOCTYPE svg PUBLIC "-//W3C//DTD SVG 1.1//EN" "http://www.w3.org/Graphics/SVG/1.1/DTD/svg11.dtd">
<svg version="1.1" id="_x30_" xmlns="http://www.w3.org/2000/svg" xmlns:xlink="http://www.w3.org/1999/xlink" x="0px" y="0px"
	 width="37.061px" height="37.061px" viewBox="0 0 37.061 37.061" enable-background="new 0 0 37.061 37.061" xml:space="preserve">
<g>
	<g>
		<g>
			<path fill="#FFFFFF" d="M22.086,37.06h-7.111c-2.289,0-3.119-1.866-3.119-3.121v-8.732H3.121C0.831,25.206,0,23.34,0,22.085
				v-7.11c0-2.289,1.867-3.12,3.121-3.12h8.733V3.121C11.855,0.831,13.72,0,14.974,0h7.111c2.29,0,3.121,1.867,3.121,3.121v8.732
				h8.731c2.29,0,3.121,1.865,3.121,3.12v7.11c0,2.29-1.866,3.121-3.121,3.121h-8.731v8.732
				C25.207,36.229,23.341,37.06,22.086,37.06z M3.121,13.354C2.745,13.359,1.5,13.493,1.5,14.974v7.11
				c0.006,0.376,0.139,1.621,1.621,1.621h10.233v10.232c0.005,0.376,0.14,1.621,1.619,1.621h7.108
				c0.384-0.007,1.624-0.143,1.624-1.621V23.706h10.231c0.376-0.006,1.621-0.14,1.621-1.621v-7.11
				c-0.006-0.376-0.14-1.62-1.621-1.62h-10.23V3.121C23.701,2.745,23.567,1.5,22.086,1.5h-7.111
				c-0.376,0.006-1.619,0.14-1.619,1.621v10.232L3.121,13.354L3.121,13.354z"/>
		</g>
	</g>
	<g>
		<path fill="#FFFFFF" d="M18.531,22.181c-2.013,0-3.649-1.639-3.649-3.651s1.638-3.65,3.649-3.65c2.013,0,3.65,1.639,3.65,3.65
			C22.182,20.543,20.544,22.181,18.531,22.181z M18.531,16.379c-1.186,0-2.149,0.965-2.149,2.15s0.965,2.151,2.149,2.151
			c1.186,0,2.15-0.966,2.15-2.151C20.682,17.344,19.717,16.379,18.531,16.379z"/>
	</g>
	<g>
		<path fill="#FFFFFF" d="M21.536,8.616h-6.012c-0.273,0-0.525-0.15-0.657-0.39c-0.132-0.241-0.121-0.534,0.026-0.766l3.005-4.684
			c0.276-0.431,0.986-0.43,1.264,0l3.005,4.684c0.147,0.231,0.159,0.524,0.026,0.766C22.063,8.466,21.811,8.616,21.536,8.616z
			 M16.897,7.116h3.268L18.53,4.571L16.897,7.116z"/>
	</g>
	<g>
		<path fill="#FFFFFF" d="M3.125,18.53l4.684,3.004v-6.01L3.125,18.53z"/>
		<path fill="#FFFFFF" d="M7.809,22.284c-0.141,0-0.282-0.04-0.405-0.119L2.72,19.162c-0.215-0.138-0.345-0.376-0.345-0.631
			s0.13-0.493,0.345-0.631l4.684-3.006c0.23-0.148,0.524-0.158,0.766-0.027c0.24,0.131,0.39,0.384,0.39,0.658v6.01
			c0,0.274-0.148,0.526-0.39,0.658C8.056,22.254,7.932,22.284,7.809,22.284z M4.514,18.53l2.545,1.632v-3.265L4.514,18.53z"/>
	</g>
	<g>
		<path fill="#FFFFFF" d="M33.879,18.529l-4.685-3.005v6.01L33.879,18.529z"/>
		<path fill="#FFFFFF" d="M29.195,22.284c-0.124,0-0.246-0.03-0.358-0.092c-0.241-0.132-0.392-0.384-0.392-0.658v-6.01
			c0-0.274,0.149-0.526,0.392-0.658c0.239-0.131,0.533-0.123,0.765,0.027l4.685,3.005c0.215,0.138,0.345,0.376,0.345,0.631
			s-0.13,0.493-0.345,0.631l-4.685,3.004C29.478,22.244,29.336,22.284,29.195,22.284z M29.945,16.896v3.266l2.546-1.633
			L29.945,16.896z"/>
	</g>
	<g>
		<path fill="#FFFFFF" d="M18.53,34.626L18.53,34.626c-0.255,0-0.492-0.13-0.631-0.345l-3.005-4.684
			c-0.147-0.231-0.158-0.524-0.026-0.766s0.384-0.391,0.657-0.391h6.012c0.273,0,0.525,0.148,0.657,0.391
			c0.133,0.24,0.121,0.533-0.026,0.766l-3.005,4.684C19.023,34.496,18.786,34.626,18.53,34.626z M16.897,29.942l1.633,2.545
			l1.635-2.545H16.897z"/>
	</g>
</g>
</svg>
