<?xml version="1.0" encoding="utf-8"?>
<!-- Generator: Adobe Illustrator 13.0.0, SVG Export Plug-In . SVG Version: 6.00 Build 14948)  -->
<!DOCTYPE svg PUBLIC "-//W3C//DTD SVG 1.1//EN" "http://www.w3.org/Graphics/SVG/1.1/DTD/svg11.dtd" [
	<!ENTITY ns_flows "http://ns.adobe.com/Flows/1.0/">
	<!ENTITY ns_extend "http://ns.adobe.com/Extensibility/1.0/">
	<!ENTITY ns_ai "http://ns.adobe.com/AdobeIllustrator/10.0/">
	<!ENTITY ns_graphs "http://ns.adobe.com/Graphs/1.0/">
	<!ENTITY ns_vars "http://ns.adobe.com/Variables/1.0/">
	<!ENTITY ns_imrep "http://ns.adobe.com/ImageReplacement/1.0/">
	<!ENTITY ns_sfw "http://ns.adobe.com/SaveForWeb/1.0/">
	<!ENTITY ns_custom "http://ns.adobe.com/GenericCustomNamespace/1.0/">
	<!ENTITY ns_adobe_xpath "http://ns.adobe.com/XPath/1.0/">
]>
<svg version="1.1"
	 id="Layer_1" xmlns:x="&ns_extend;" xmlns:i="&ns_ai;" xmlns:graph="&ns_graphs;" xmlns:svg="http://www.w3.org/2000/svg"
	 xmlns="http://www.w3.org/2000/svg" xmlns:xlink="http://www.w3.org/1999/xlink" xmlns:a="http://ns.adobe.com/AdobeSVGViewerExtensions/3.0/"
	 x="0px" y="0px" width="566.929px" height="102.84px" viewBox="0 0 566.929 102.84" enable-background="new 0 0 566.929 102.84"
	 xml:space="preserve">
<metadata>
	<sfw  xmlns="&ns_sfw;">
		<slices></slices>
		<sliceSourceBounds  x="677.036" y="488.078" width="566.929" height="102.842" bottomLeftOrigin="true"></sliceSourceBounds>
	</sfw>
</metadata>
<polygon id="polygon3542" fill="#1747CE" points="51.491,11.127 39.613,32.324 51.491,27.772 62.829,32.113 65.865,28.707 
	65.865,5.553 "/>
<polygon id="polygon3558" fill="#1747CE" points="88.391,87.288 66.938,59.29 66.938,96.307 51.491,102.842 51.491,39.606 
	66.938,33.69 88.391,64.354 88.391,25.369 102.98,19.742 102.98,81.161 "/>
<polygon id="polygon3560" fill="#1747CE" points="14.589,87.288 28.277,81.227 14.589,54.652 "/>
<polygon id="polygon3538" fill="#069330" points="29.178,19.742 36.044,33.689 39.613,32.324 51.491,11.127 37.117,5.535 "/>
<polygon id="polygon3540" fill="#069330" points="62.829,32.113 73.807,19.742 88.391,25.369 88.391,64.354 66.938,33.69 "/>
<polygon id="polygon3552" fill="#069330" points="14.589,25.369 0,19.742 0,81.161 14.589,87.288 14.589,54.652 36.044,96.307 
	51.491,102.842 51.491,39.606 36.044,33.689 36.044,65.792 "/>
<polygon id="polygon3554" fill="#CC130E" points="36.044,33.689 36.044,65.792 14.589,25.369 29.178,19.742 "/>
<polygon id="polygon3556" fill="#CC130E" points="88.391,87.288 66.938,59.29 66.938,74.586 71.321,80.73 "/>
<polygon id="polygon3544" fill="#FFC001" points="66.938,33.689 51.491,39.606 36.044,33.689 51.491,27.772 "/>
<polygon id="polygon3546" fill="#FFC001" points="73.802,19.742 88.391,14.129 102.98,19.742 88.391,25.369 "/>
<polygon id="polygon3548" fill="#FFC001" points="0,19.742 14.589,14.129 29.178,19.742 14.589,25.369 "/>
<polygon id="polygon3550" fill="#FFC001" points="65.865,5.553 51.491,0 37.117,5.535 51.491,11.127 "/>
<polygon id="polygon3518" fill="#1747CE" points="154.07,81.252 175.447,81.252 175.447,33.752 160.984,33.752 160.984,60.989 
	160.859,60.989 151.323,33.752 129.948,33.752 129.948,81.252 144.403,81.252 144.403,53.834 144.533,53.834 "/>
<polygon id="polygon3520" fill="#1747CE" points="234.714,81.252 256.089,81.252 256.089,33.752 241.636,33.752 241.636,60.989 
	241.505,60.989 231.968,33.752 210.595,33.752 210.595,81.252 225.056,81.252 225.056,53.834 225.181,53.834 "/>
<polygon id="polygon3522" fill="#1747CE" points="373.578,81.252 394.957,81.252 394.957,33.752 380.498,33.752 380.498,60.989 
	380.369,60.989 370.833,33.752 349.457,33.752 349.457,81.252 363.914,81.252 363.914,53.834 364.041,53.834 "/>
<polygon id="polygon3524" fill="#1747CE" points="184.179,33.752 202.009,33.752 202.009,81.252 184.179,81.252 "/>
<polygon id="polygon3526" fill="#1747CE" points="272.591,46.655 261.261,46.655 261.261,33.752 301.785,33.752 301.785,46.655 
	290.416,46.655 290.416,81.252 272.591,81.252 "/>
<polygon id="polygon3536" fill="#1747CE" points="307.05,33.739 342.31,33.739 342.31,46.303 324.597,46.303 324.597,51.27 
	340.906,51.27 340.906,63.448 324.597,63.448 324.597,68.777 342.875,68.777 342.875,81.236 307.05,81.236 "/>
<path id="path3528" fill="#1747CE" d="M402.63,33.752h21.123c18.016,0,23.75,10.197,23.75,24.275
	c0,14.343-8.848,23.226-22.684,23.226H402.63V33.752L402.63,33.752z M420.083,70.459h1.738c2.867,0,4.789-0.879,5.912-2.787
	c1.184-1.975,1.316-5.572,1.316-10.172c0-4.604-0.135-8.194-1.316-10.172c-1.123-1.91-3.045-2.789-5.912-2.789h-1.738V70.459
	L420.083,70.459z"/>
<path id="path3530" fill="#1747CE" d="M475.451,32.506c15.521,0,23.244,10.193,23.244,24.995c0,14.806-7.725,25.002-23.244,25.002
	c-15.523,0-23.246-10.196-23.246-25.002C452.205,42.699,459.925,32.506,475.451,32.506L475.451,32.506z M475.451,70.465
	c2.738,0,4.801-1.346,4.801-12.965c0-11.357-1.939-12.961-4.801-12.961c-2.865,0-4.801,1.604-4.801,12.961
	C470.65,69.12,472.708,70.465,475.451,70.465L475.451,70.465z"/>
<path id="path3562" fill="#1747CE" d="M507.025,71.23c-3.107,0-5.629,2.521-5.629,5.634c0,3.114,2.521,5.639,5.629,5.639
	c3.115,0,5.641-2.522,5.641-5.639C512.664,73.752,510.14,71.23,507.025,71.23L507.025,71.23z M507.025,81.514
	c-2.563,0-4.637-2.078-4.637-4.649c0-2.568,2.072-4.646,4.637-4.646c2.574,0,4.656,2.08,4.656,4.646
	C511.681,79.436,509.599,81.514,507.025,81.514L507.025,81.514z"/>
<path id="path3564" fill="#1747CE" d="M506.109,79.961h-1.328v-6.199h2.635c1.068,0.019,2.154,0.357,2.154,1.615
	c0,0.803-0.52,1.342-1.287,1.504v0.014c1.021,0.119,1.021,0.74,1.135,1.603c0.059,0.392,0.105,1.123,0.359,1.465h-1.469
	c-0.111-0.549-0.174-1.106-0.232-1.662c-0.035-0.344-0.117-0.817-0.559-0.836h-1.408V79.961L506.109,79.961z M506.109,76.434h1.119
	c0.582-0.008,0.928-0.305,0.928-0.85c0-0.547-0.346-0.781-0.928-0.789h-1.119V76.434L506.109,76.434z"/>
<polygon id="polygon3566" fill="#1747CE" points="154.07,81.252 175.447,81.252 175.447,33.752 160.984,33.752 160.984,60.989 
	160.859,60.989 151.323,33.752 129.948,33.752 129.948,81.252 144.403,81.252 144.403,53.834 144.533,53.834 "/>
<polygon id="polygon3568" fill="#1747CE" points="234.714,81.252 256.089,81.252 256.089,33.752 241.636,33.752 241.636,60.989 
	241.505,60.989 231.968,33.752 210.595,33.752 210.595,81.252 225.056,81.252 225.056,53.834 225.181,53.834 "/>
<polygon id="polygon3570" fill="#1747CE" points="373.578,81.252 394.957,81.252 394.957,33.752 380.498,33.752 380.498,60.989 
	380.369,60.989 370.833,33.752 349.457,33.752 349.457,81.252 363.914,81.252 363.914,53.834 364.041,53.834 "/>
<polygon id="polygon3572" fill="#1747CE" points="184.179,33.752 202.009,33.752 202.009,81.252 184.179,81.252 "/>
<polygon id="polygon3574" fill="#1747CE" points="272.591,46.655 261.261,46.655 261.261,33.752 301.785,33.752 301.785,46.655 
	290.416,46.655 290.416,81.252 272.591,81.252 "/>
<polygon id="polygon3576" fill="#1747CE" points="307.05,33.739 342.31,33.739 342.31,46.303 324.597,46.303 324.597,51.27 
	340.906,51.27 340.906,63.448 324.597,63.448 324.597,68.777 342.875,68.777 342.875,81.236 307.05,81.236 "/>
<path id="path3532" fill="#CC130E" d="M530.583,27.436c-0.949-0.083-1.871-0.044-3.158,0.014
	c-7.521,0.348-10.563,3.553-11.594,7.174h0.182c1.873-1.637,4.188-2.401,7.289-2.401c5.965,0,11.414,4.338,11.414,12.476
	c0,7.787-5.986,13.852-14.02,13.852c-10.584,0-15.188-8.083-15.188-16.75c0-7.041,2.498-13.004,6.598-16.85
	c3.902-3.615,8.934-5.441,15.092-5.582c1.631-0.094,2.6,0,3.385,0.071V27.436L530.583,27.436z M520.562,50.892
	c2.439,0,3.918-2.491,3.918-5.673c-0.02-2.686-1.25-5.613-4.52-5.613c-1.998,0-3.555,1.266-4.143,2.795
	c-0.229,0.469-0.314,1.137-0.314,2.27c0.209,3.035,1.672,6.222,4.998,6.222L520.562,50.892L520.562,50.892z"/>
<path id="path3534" fill="#CC130E" d="M553.365,57.911v-8.524h-15.846v-6.811l12.723-22.671h12.66v21.673h4.027v7.809h-4.027v8.524
	H553.365L553.365,57.911z M553.365,41.578v-6.531c0-2.414,0.145-4.922,0.268-7.565h-0.207c-1.178,2.565-2.203,5.007-3.543,7.657
	l-3.113,6.326l-0.033,0.115L553.365,41.578L553.365,41.578z"/>
</svg>
