<?xml version="1.0" encoding="utf-8"?>
<!-- Generator: Adobe Illustrator 13.0.0, SVG Export Plug-In . SVG Version: 6.00 Build 14948)  -->
<svg version="1.2" baseProfile="tiny" id="Ebene_1" xmlns="http://www.w3.org/2000/svg" xmlns:xlink="http://www.w3.org/1999/xlink"
	 x="0px" y="0px" width="566.936px" height="85.117px" viewBox="0 0 566.936 85.117" xml:space="preserve">
<g>
	<polygon fill="#6B6B6B" points="110.912,61.863 118.646,29.436 126.435,23.255 134.167,23.255 126.435,55.682 134.167,51.055 
		140.375,27.912 145.031,23.255 155.926,23.255 148.165,55.682 155.926,49.529 160.555,29.436 166.792,23.255 176.133,23.255 
		168.372,54.158 159.059,61.863 	"/>
	<polygon fill="#6B6B6B" points="425.39,61.863 429.341,43.35 436.367,36.604 445.398,36.604 440.094,56.953 447.883,52.324 
		449.857,41.797 455.052,36.604 465.889,36.604 460.582,56.953 467.921,52.042 470.009,43.35 476.781,36.604 484.854,36.604 
		480.338,54.158 469.755,61.863 	"/>
	<path fill="#6B6B6B" d="M364.797,61.863l7.789-7.705h33.416c0,0,2.877,0.848,4.516-2.793c1.495-3.389-1.41-3.389-1.41-3.389
		h-15.522c0,0-4.459-1.017-4.486-6.491c-0.085-13.461,10.979-16.934,10.979-16.934H432.7l-6.489,6.436h-17.104
		c0,0-5.447,1.553-5.562,6.097c-0.084,2.06,2.455,1.637,2.455,1.637h13.941c0,0,8.07,1.354,6.209,10.047
		c-2.429,11.431-10.839,13.095-10.839,13.095L364.797,61.863L364.797,61.863z"/>
	<path fill="#6B6B6B" d="M338.269,61.863h13.94l4.233-16.029c0.509-1.863,5.419-3.979,4.121-3.754
		c-1.271,0.226,4.459-0.848,4.459-0.848s1.806,0.508,2.709,1.75c0.933,1.213-0.903,3.021-1.157,4.432
		c-0.254,1.41,1.553,1.552,1.553,1.552h7.789c0,0,4.178-1.552,5.307-3.104c1.103-1.579,2.482-3.216,2.482-4.599
		c0-1.383-3.076-3.104-3.076-3.104l-3.133-1.524h-23.283c0,0-11.146,6.379-12.443,7.705
		C341.315,44.732,338.269,61.863,338.269,61.863z"/>
	<path fill="#6B6B6B" d="M175.313,44.168c-1.072,1.24-4.571,12.135-3.81,13.912c0.79,1.723,5.108,3.781,5.108,3.781h22.69
		c0,0,10.583-6.633,11.401-7.563c0.79-0.959,3.782-11.543,3.782-12.645c0-1.101-2.54-5.052-2.54-5.052h-26.529
		C185.417,36.604,176.416,42.926,175.313,44.168z M193.009,41.656h6.971c0,0-0.79,8.383-2.539,10.752
		c-1.778,2.371-5.701,4.432-5.701,4.432s-4.402,0.452-5.023,0c-0.649-0.508-0.17-5.053-0.17-5.053s0.593-4.909,1.411-6.35
		C188.749,44.027,193.009,41.656,193.009,41.656z"/>
	<path fill="#6B6B6B" d="M259.924,44.168c-1.073,1.24-4.572,12.135-3.782,13.912c0.79,1.723,5.08,3.781,5.08,3.781h31.58
		c0,0,1.045-5.022,2.344-10.104c1.24-4.771,2.709-12.105,2.709-12.645c0-1.129,7.846-11.033,7.846-11.033h-13.717l-6.94,8.521
		h-15.015C270.057,36.604,261.054,42.926,259.924,44.168z M277.619,41.656h6.942c0,0-0.764,8.383-2.541,10.752
		c-1.723,2.371-5.673,4.432-5.673,4.432s-4.402,0.452-5.052,0c-0.593-0.508-0.169-5.053-0.169-5.053s0.593-4.909,1.439-6.35
		C273.357,44.027,277.619,41.656,277.619,41.656z"/>
	<path fill="#6B6B6B" d="M211.101,61.863l7.168-25.26h30.311c0,0,4.008,0.424,5.362,2.682c1.411,2.259,0.96,6.152,0.96,6.152
		l-4.121,16.426h-12.644c0,0,1.468-8.043,2.879-13.887c1.411-5.842-2.54-6.32-2.54-6.32h-7.563l-4.346,15.154
		c0,0-3.782,4.402-5.362,5.053H211.101z"/>
	<path fill="#6B6B6B" d="M522.162,61.863l8.044-25.26h30.311c0,0,3.979,0.424,5.392,2.682c1.412,2.259,0.96,6.152,0.96,6.152
		l-4.263,16.426h-13.856c0,0,2.313-6.772,3.782-12.646c1.411-5.813-2.062-7.563-2.062-7.563h-7.592l-4.233,15.154
		c0,0-3.498,4.403-5.051,5.053h-11.432V61.863z"/>
	<path fill="#6B6B6B" d="M301.606,44.168c-1.102,1.24-4.543,12.135-3.78,13.912c0.762,1.723,5.051,3.781,5.051,3.781h22.72
		c0,0,4.517-2.822,7.874-5.053c0,0-19.305,0.143-20.488,0c-0.536-0.056-0.339-2.396-0.282-3.779h15.521c0,0,2.991-0.649,7.45-4.348
		c4.516-3.695,5.08-4.093,5.08-7.028c0-2.905-2.541-5.052-2.541-5.052h-26.527C311.739,36.604,302.709,42.926,301.606,44.168z
		 M319.332,41.656h10.188c0,0-1.129,3.867-6.688,6.32h-8.494c-0.819-2.199,1.186-3.949,2.313-4.91
		C317.836,41.994,319.332,41.656,319.332,41.656z"/>
	<path fill="#6B6B6B" d="M505.737,61.863c0,0,4.29-13.574,5.646-17.922c0.677-2.37-0.902-2.285-3.896-2.285
		s-5.165,0.648-9.313,7.563c-4.854,8.072,7.168,10.273,7.168,10.273l-0.848,2.369H490.61c0,0-7.593,0.312-7.593-8.832
		c0-11.232,14.365-16.427,14.365-16.427h30.338l-8.07,25.259h-13.913V61.863L505.737,61.863z"/>
</g>
<path fill="#FF0000" d="M72.559,23.369c0.705-0.028,1.439-0.058,2.173-0.058c15.805,0,29.352,15.324,30.367,23.113
	c0.112,0.819,0.169,1.553,0.226,2.174C105.127,27.32,71.966,0,45.325,0C24.778,0,15.184,8.297,12.022,17.667
	c-4.741,11.825,1.496,28.646,16.059,40.61c1.552,1.242,3.076,2.398,4.656,3.473c-0.678,0.057-1.411,0.057-2.145,0.057
	c-15.805,0-29.352-15.324-30.367-23.113C0.141,37.875,0.057,37.141,0,36.52c0.197,21.279,33.358,48.598,60,48.598
	c20.545,0,30.141-8.324,33.302-17.666c4.741-11.798-1.496-28.616-16.059-40.611C75.69,25.598,74.167,24.441,72.559,23.369z
	 M42.896,58.703c-11.74-9.625-15.635-23.765-9.06-31.808c6.632-8.043,21.59-7.112,33.612,2.259
	c11.91,9.256,16.481,23.368,10.386,31.778c2.483-5.053-0.282-12.646-6.83-17.81c-7.026-5.531-15.86-6.096-19.755-1.326
	c-3.923,4.771-1.58,13.181,5.306,18.908c5.334,4.432,11.797,5.981,16.425,4.375C65.164,69.229,52.831,66.859,42.896,58.703z"/>
</svg>
