<?xml version="1.0" encoding="utf-8"?>
<!-- Generator: Adobe Illustrator 13.0.0, SVG Export Plug-In . SVG Version: 6.00 Build 14948)  -->
<!DOCTYPE svg [
	<!ENTITY ns_flows "http://ns.adobe.com/Flows/1.0/">
	<!ENTITY ns_extend "http://ns.adobe.com/Extensibility/1.0/">
	<!ENTITY ns_ai "http://ns.adobe.com/AdobeIllustrator/10.0/">
	<!ENTITY ns_graphs "http://ns.adobe.com/Graphs/1.0/">
	<!ENTITY ns_vars "http://ns.adobe.com/Variables/1.0/">
	<!ENTITY ns_imrep "http://ns.adobe.com/ImageReplacement/1.0/">
	<!ENTITY ns_sfw "http://ns.adobe.com/SaveForWeb/1.0/">
	<!ENTITY ns_custom "http://ns.adobe.com/GenericCustomNamespace/1.0/">
	<!ENTITY ns_adobe_xpath "http://ns.adobe.com/XPath/1.0/">
]>
<svg version="1.2" baseProfile="tiny" id="Ebene_1" xmlns:x="&ns_extend;" xmlns:i="&ns_ai;" xmlns:graph="&ns_graphs;"
	 xmlns="http://www.w3.org/2000/svg" xmlns:xlink="http://www.w3.org/1999/xlink" xmlns:a="http://ns.adobe.com/AdobeSVGViewerExtensions/3.0/"
	 x="0px" y="0px" width="566.924px" height="121.752px" viewBox="0 0 566.924 121.752" xml:space="preserve">
<metadata>
	<sfw  xmlns="&ns_sfw;">
		<slices></slices>
		<sliceSourceBounds  x="677.038" y="478.624" width="566.924" height="121.753" bottomLeftOrigin="true"></sliceSourceBounds>
	</sfw>
</metadata>
<g>
	<g id="_x23_ffffffff">
		<path fill="#C60000" d="M207.014,5.277c4.724-6.043,14.501-7.076,20.297-2.006c2.37,1.996,4.031,4.75,4.88,7.715
			c10.73,36.92,21.508,73.822,32.223,110.746c-6.332,0.006-12.667-0.012-18.999,0.006c-2.987-10.18-5.903-20.377-8.852-30.565
			c-12.246-0.024-24.485-0.006-36.73-0.012c-2.998,10.184-5.958,20.379-8.901,30.582c-6.298-0.021-12.596-0.005-18.895-0.011
			c10.194-35.221,20.4-70.438,30.643-105.647C203.898,12.404,204.358,8.287,207.014,5.277 M218.193,27.902
			c-4.49,15.295-8.889,30.619-13.354,45.922c8.9,0.043,17.796,0.016,26.692,0.016C227.078,58.527,222.647,43.215,218.193,27.902z"/>
		<path fill="#C60000" d="M340.411,6.072c3.301-4.787,9.681-7.109,15.296-5.631c5.142,1.184,9.075,5.615,10.434,10.604
			c10.72,36.893,21.477,73.772,32.194,110.666c-6.342,0.049-12.679,0-19.021,0.024c-2.948-10.188-5.864-20.387-8.834-30.575
			c-12.226,0.006-24.447-0.021-36.672,0.01c-2.922,10.195-5.935,20.367-8.855,30.563c-6.293,0.006-12.581-0.006-18.874,0.006
			c10.188-35.414,20.497-70.797,30.768-106.187C337.923,12.357,338.339,8.834,340.411,6.072 M338.868,73.84
			c8.863,0.013,17.722,0.007,26.584,0.007c-4.409-15.347-8.89-30.671-13.284-46.015C347.742,43.17,343.274,58.494,338.868,73.84z"/>
		<path fill="#C60000" d="M250.237,0.256c22.91,0,45.814,0,68.719,0c0,6.182,0,12.355,0,18.533
			c-8.437,0.006-16.865-0.01-25.296,0.006c0,34.313,0.006,68.627-0.005,102.938c-6.039,0-12.083,0-18.122,0
			c0-34.312-0.005-68.625,0.005-102.938c-8.436-0.016-16.866,0-25.301-0.006C250.237,12.611,250.232,6.438,250.237,0.256z"/>
		<path fill="#C60000" d="M418.475,1.01c1.74-0.602,3.599-0.807,5.437-0.764c7.223,0.025,14.446,0.006,21.667,0.01
			c12.164,0.225,23.773,7.771,29.037,18.719c3.646,7.109,4.021,15.377,3.102,23.176c-0.634,8.164-4.058,16.328-10.334,21.741
			c-3.313,2.952-7.443,4.743-10.992,7.375c-1.947,1.481-2.047,4.364-1.039,6.428c9.586,14.799,19.552,29.367,29.34,44.039
			c-7.158,0.012-14.316-0.017-21.476,0.012c-9.37-14.074-18.643-28.219-27.976-42.313c-2.743-4.013-3.489-9.324-1.846-13.902
			c1.281-3.512,4.351-6.08,7.769-7.406c6.524-2.49,12.958-6.4,16.572-12.559c2.749-4.627,2.605-10.336,1.37-15.4
			c-1.45-6.574-7.855-11.746-14.625-11.52c-4.682,0.031-9.359-0.021-14.033,0.021c-2.116-0.049-4.107,1.791-4.08,3.934
			c-0.022,33.047,0.011,66.096-0.01,99.141c-6.088-0.012-12.168,0-18.256-0.006c-0.012-35.576,0.012-71.154-0.012-106.73
			C408.128,8.77,412.563,2.902,418.475,1.01z"/>
		<path fill="#C60000" d="M494.262,0.256c6.402,0,12.803,0,19.21,0c-0.006,40.496,0.013,80.986-0.012,121.481
			c-6.396-0.018-12.796,0-19.198-0.006C494.262,81.235,494.262,40.746,494.262,0.256z"/>
	</g>
	<g>
		<path fill="#C60000" d="M54.173,0.008c3.076-0.01,6.153,0,9.229-0.008c0.013,7.234,0,14.469,0.005,21.701
			c0.032,6.039-0.139,12.076-0.389,18.107c-0.412,8.711-0.957,17.439-2.4,26.05c-0.991,5.937-3.044,11.662-5.592,17.099
			c-4.156,8.76-10.686,16.172-18.027,22.405c-6.567,5.779-14.405,9.986-22.649,12.835c-4.664,1.604-9.463,2.844-14.35,3.532
			c0.005-6.065,0.005-12.137,0-18.203c5.883-0.883,11.538-2.971,16.791-5.729c6.233-3.295,11.844-7.729,16.566-12.953
			c4.877-5.395,8.764-11.641,11.714-18.272c3.474-7.625,5.333-15.861,6.597-24.109c1.584-10.482,2.244-21.088,2.489-31.684
			C54.192,7.188,54.162,3.596,54.173,0.008z"/>
		<path fill="#C60000" d="M67.116,0.02c5.662-0.037,11.328-0.006,16.992-0.016c0.002,40.574,0.002,81.149,0,121.728
			c-5.65,0.012-11.303-0.027-16.953,0.021c-0.072-12.938-0.01-25.879-0.03-38.815C67.118,55.295,67.136,27.658,67.116,0.02z"/>
		<path fill="#C60000" d="M87.888,0.004c3.06-0.002,6.118-0.008,9.176,0.002c-0.099,12.371,0.322,24.766,1.797,37.057
			c1.207,9.547,2.909,19.164,6.711,28.059c3.604,8.605,8.801,16.604,15.572,23.051c6.466,6.166,14.302,10.906,22.815,13.635
			c2.375,0.76,4.805,1.355,7.274,1.715c-0.003,6.064-0.006,12.129,0,18.191c-4.852-0.658-9.61-1.908-14.24-3.482
			c-5.514-1.918-10.847-4.401-15.745-7.588c-3.576-2.301-6.828-5.053-9.952-7.924c-5.149-4.748-9.758-10.146-13.219-16.256
			c-2.708-4.758-4.683-9.9-6.23-15.145c-1.418-5.271-2.023-10.717-2.573-16.135c-1.064-11.709-1.462-23.477-1.386-35.23
			C87.888,13.305,87.886,6.652,87.888,0.004z"/>
		<path fill="#C60000" d="M54.173,0.008c-0.01,3.588,0.02,7.18-0.016,10.77c-0.245,10.596-0.904,21.201-2.489,31.684
			c-1.264,8.248-3.124,16.484-6.597,24.109c-2.95,6.635-6.837,12.879-11.714,18.272c-4.722,5.228-10.333,9.658-16.566,12.953
			C11.538,100.56,5.883,102.646,0,103.526c0.005,6.066,0.005,12.138,0,18.203c4.887-0.688,9.686-1.928,14.35-3.532
			c8.244-2.849,16.082-7.056,22.649-12.834c7.341-6.234,13.871-13.646,18.027-22.406c2.547-5.437,4.601-11.162,5.592-17.099
			c1.443-8.61,1.989-17.339,2.4-26.05c0.25-6.031,0.421-12.068,0.389-18.107C63.402,14.469,63.415,7.234,63.402,0
			C60.325,0.008,57.249-0.002,54.173,0.008"/>
		<path fill="#C60000" d="M67.116,0.02c0.02,27.641,0.002,55.275,0.01,82.917c0.02,12.938-0.042,25.879,0.03,38.815
			c5.65-0.051,11.302-0.012,16.953-0.021c0.002-40.574,0.002-81.15,0-121.728C78.444,0.014,72.778-0.018,67.116,0.02"/>
		<path fill="#C60000" d="M87.888,0.004c-0.002,6.648,0,13.301,0,19.949c-0.076,11.754,0.322,23.521,1.386,35.23
			c0.55,5.418,1.155,10.863,2.573,16.134c1.547,5.244,3.522,10.388,6.23,15.146c3.46,6.109,8.07,11.509,13.219,16.256
			c3.124,2.871,6.376,5.623,9.952,7.923c4.898,3.188,10.231,5.672,15.745,7.59c4.63,1.574,9.388,2.824,14.24,3.481
			c-0.006-6.063-0.003-12.127,0-18.19c-2.47-0.359-4.899-0.955-7.274-1.715c-8.513-2.729-16.35-7.47-22.815-13.636
			c-6.771-6.446-11.967-14.444-15.572-23.051c-3.802-8.895-5.504-18.512-6.711-28.061c-1.475-12.289-1.896-24.684-1.797-37.055
			C94.007-0.004,90.948,0.002,87.888,0.004"/>
	</g>
	<path fill="#C60000" d="M562.213,99.303h3.963v22.449l-18.669-15.213c-1.751-1.431-3.919-3.09-6.225-3.09
		c-3.642,0-6.638,3.229-6.638,6.821c0,3.552,2.856,6.455,6.358,6.687v4.334c-6.177-0.69-10.324-4.703-10.324-11.021
		c0-5.897,4.38-10.971,10.418-10.971c2.582,0,5.164,0.969,7.146,2.58l13.969,11.434L562.213,99.303L562.213,99.303z"/>
	<path fill="#C60000" d="M532.8,79.433l12.538,9.266l0.095-0.092c-0.509-1.017-0.829-2.166-0.829-3.412
		c0-5.715,5.302-10.049,10.879-10.049c6.36,0,11.434,5.164,11.434,11.479c0,5.992-4.979,11.572-11.108,11.572
		c-3.506,0-6.454-1.752-9.176-3.779l-15.949-11.85L532.8,79.433z M555.943,79.293c-4.334,0-7.47,3.688-7.47,7.375
		c0,3.781,3.458,7.377,7.236,7.377c4.013,0,7.332-3.41,7.332-7.377C563.044,82.795,559.814,79.293,555.943,79.293z"/>
	<path fill="#C60000" d="M530.68,56.256c0,9.955,8.162,18.054,18.195,18.054c9.953,0,18.049-8.099,18.049-18.054
		c0-10.242-7.96-18.268-18.121-18.268C538.641,37.988,530.68,46.014,530.68,56.256z M548.876,42.256
		c7.854,0,14.003,6.248,14.003,14.223c0,7.479-6.281,13.563-14.003,13.563c-7.801,0-14.147-6.084-14.147-13.563
		C534.729,48.369,540.811,42.256,548.876,42.256z"/>
	<path fill="#C60000" d="M530.68,18.299c0,9.953,8.162,18.051,18.195,18.051c9.953,0,18.049-8.098,18.049-18.051
		c0-10.244-7.96-18.27-18.121-18.27C538.641,0.029,530.68,8.055,530.68,18.299z M548.876,4.297c7.854,0,14.003,6.246,14.003,14.223
		c0,7.479-6.281,13.563-14.003,13.563c-7.801,0-14.147-6.084-14.147-13.563C534.729,10.412,540.811,4.297,548.876,4.297z"/>
</g>
</svg>
