<?xml version="1.0" encoding="utf-8"?>
<!-- Generator: Adobe Illustrator 16.0.3, SVG Export Plug-In . SVG Version: 6.00 Build 0)  -->
<!DOCTYPE svg PUBLIC "-//W3C//DTD SVG 1.1//EN" "http://www.w3.org/Graphics/SVG/1.1/DTD/svg11.dtd">
<svg version="1.1"
	 id="svg2" inkscape:version="0.44.1" sodipodi:version="0.32" sodipodi:docbase="C:\Documents and Settings\Matias\Desktop" sodipodi:docname="Game_Boy_Advance.svg" xmlns:dc="http://purl.org/dc/elements/1.1/" xmlns:rdf="http://www.w3.org/1999/02/22-rdf-syntax-ns#" xmlns:svg="http://www.w3.org/2000/svg" xmlns:sodipodi="http://sodipodi.sourceforge.net/DTD/sodipodi-0.dtd" xmlns:inkscape="http://www.inkscape.org/namespaces/inkscape" xmlns:cc="http://web.resource.org/cc/"
	 xmlns="http://www.w3.org/2000/svg" xmlns:xlink="http://www.w3.org/1999/xlink" x="0px" y="0px" width="566.929px"
	 height="66.041px" viewBox="0 0 566.929 66.041" enable-background="new 0 0 566.929 66.041" xml:space="preserve">
<sodipodi:namedview  height="206.5px" width="1772.6px" inkscape:window-x="-4" inkscape:window-y="-4" inkscape:current-layer="svg2" inkscape:pageshadow="2" inkscape:window-width="1440" inkscape:pageopacity="0.0" inkscape:window-height="844" objecttolerance="10.0" inkscape:cx="995.52531" borderopacity="1.0" inkscape:cy="283.81045" guidetolerance="10.0" pagecolor="#ffffff" inkscape:zoom="0.32" bordercolor="#666666" gridtolerance="10.0" id="base">
	</sodipodi:namedview>
<path id="path10" fill="#1F00CC" d="M296.042,8.236l4.352-6.971h-66.25c-5.084,0.076-9.82,1.502-14.135,4.274l-5.084,3.736
	c-2.234-2.696-4.43-4.584-6.588-5.854c-2.695-1.502-5.699-2.156-9.127-2.156H87.009l-3.66,11.169L81.541,1.266H57.003l-0.885,2.079
	l-2.311-0.809c-12.943-4.43-25.383-3.081-37.131,4.198c-5.971,3.813-10.477,8.59-13.25,14.443c-2.85,5.855-3.814,12.364-3.158,19.76
	c0.461,4.43,2.002,8.551,4.699,12.287c2.695,3.736,6.123,6.74,10.398,8.897c6.201,3.235,12.941,4.198,19.99,3.081h21.84
	l5.469-12.133l2.004,12.133l131.266-0.153c2.852,0,5.701-0.694,8.59-1.964c2.85-1.271,5.314-3.082,7.549-5.316
	c3.66,3.891,8.012,6.51,13.096,7.55c6.895,1.656,13.559,0.462,19.836-3.505l0.811-0.617l-0.617,3.968h26.73l0.656-4.622
	c1.578-0.23,2.85-1.039,3.967-2.389h72.682c11.17,0,19.373-2.85,24.381-8.589l5.393,8.589h77.768V47.217l13.98,10.938h96.102V8.313
	H462.744v10.784L448.955,8.313h-55.387l-6.818,12.942l-7.549-13.02H296.042L296.042,8.236z"/>
<path id="path12" fill="#FFFFFF" d="M313.027,16.557h-8.318l-19.605,33.009h23.342v-7.318h-9.514l9.514-17.063l13.789,24.42h10.631
	v-0.076h16.6c14.367,0,21.57-5.547,21.57-16.523c0-1.888-0.23-3.66-0.732-5.316l13.25,21.84h6.355l19.066-32.932h-10.092
	L386.98,38.164l-12.557-21.568h-10.861l3.004,4.93c-3.504-3.313-8.551-4.93-15.137-4.93h-21.84V43.98L313.027,16.557L313.027,16.557
	z M338.988,24.028h12.52c6.508,0,9.82,2.851,9.82,8.551c0,3.429-1.039,5.932-3.004,7.241c-1.887,1.348-5.469,2.003-10.477,2.003
	h-8.82V24.028H338.988z"/>
<polygon id="polygon14" fill="#FFFFFF" points="423.033,16.557 414.675,16.557 395.146,49.565 405.007,49.565 405.007,49.488 
	418.488,49.488 418.488,42.131 409.052,42.131 418.412,25.146 432.201,49.565 442.947,49.565 442.947,49.488 448.416,49.488 
	448.416,29.575 473.337,49.488 479.808,49.488 479.808,16.557 471.179,16.557 471.179,36.238 446.027,16.557 439.595,16.557 
	439.595,43.941 "/>
<path id="path16" fill="#FFFFFF" d="M484.738,18.404c-1.348,1.195-2.041,3.352-2.041,6.434v16.33c0,3.159,0.693,5.316,2.002,6.51
	c1.271,1.195,3.582,1.811,6.973,1.811h19.373c3.352,0,5.777-0.616,7.049-1.811c1.271-1.193,2.004-3.351,2.004-6.51v-4.583
	l-9.514-0.154v5.085h-18.412V24.221h18.412v4.507h9.514v-3.89c0-3.236-0.732-5.393-2.004-6.434
	c-1.271-1.271-3.504-1.887-7.049-1.887h-19.373C488.32,16.557,486.009,17.135,484.738,18.404L484.738,18.404z"/>
<polygon id="polygon18" fill="#FFFFFF" points="532.769,28.766 532.769,24.028 558.458,24.028 558.458,16.557 523.255,16.557 
	523.255,49.488 558.882,49.488 558.882,41.862 532.769,41.862 532.769,36.008 547.83,36.008 547.83,28.766 "/>
<path id="path20" fill="#FFFFFF" d="M50.841,10.354C40.519,6.619,30.542,7.813,20.99,13.706C11.554,19.483,7.433,28.304,8.55,39.82
	c0.307,3.352,1.578,6.433,3.736,9.129c2.156,2.696,4.93,4.621,8.242,6.123c3.35,1.503,6.895,2.08,10.631,1.888
	c4.121-0.231,7.857-1.425,11.516-3.429l0.385-0.23l-1.424,3.158H51.65l6.434-13.981h11.092l2.465,13.981h16.41l8.396-26.191
	l5.393,26.191h6.508l12.557-29.041l1.271,29.041h9.592l-1.965-46.914H118.13l-10.938,25.652l-4.699-25.652h-9.592L80.539,47.484
	L74.183,9.545H62.359L44.255,50.489l2.619-17.141H29.001l-1.348,8.821h7.473l-0.732,4.698l-7.857,0.54
	c-3.158-0.809-5.393-2.465-6.895-5.085c-1.271-2.465-1.887-5.007-1.578-7.856c0.385-3.968,2.311-7.55,5.969-10.785
	c3.313-2.928,7.551-4.584,12.635-5.238c4.854-0.732,9.129-0.231,12.711,1.348L50.841,10.354L50.841,10.354z M67.751,33.311H61.82
	l4.121-9.051L67.751,33.311z"/>
<polygon id="polygon22" fill="#FFFFFF" points="166.779,9.508 140.085,9.508 132.576,56.46 159.46,56.46 161.193,46.484 
	144.246,46.484 145.593,38.087 160.269,38.087 161.847,27.996 147.019,27.996 148.291,19.6 165.199,19.6 "/>
<polygon id="polygon24" fill="#FFFFFF" points="284.949,9.508 273.74,9.508 264.15,24.875 258.179,9.508 247.087,9.508 
	258.564,34.273 254.945,56.46 264.689,56.46 267.617,36.894 "/>
<path id="path26" fill="#FFFFFF" d="M237.88,9.97c-5.469-1.271-10.477,0-15.33,3.736c-4.852,3.582-8.012,8.743-9.668,15.253
	c-1.424,6.432-0.73,12.518,1.889,17.871c2.773,5.547,6.74,8.898,12.209,10.092c5.393,1.271,10.4,0,15.254-3.659
	c4.854-3.736,8.088-8.897,9.59-15.407c1.502-6.432,0.811-12.44-1.887-17.871C247.24,14.515,243.197,11.164,237.88,9.97L237.88,9.97z
	 M237.072,19.329c2.619,1.04,4.275,3.429,5.162,6.972c0.885,3.582,0.693,7.318-0.617,11.285c-1.271,3.891-3.35,6.818-6.047,8.667
	c-2.773,2.003-5.393,2.388-7.857,1.271c-2.619-1.04-4.352-3.429-5.238-6.972c-0.963-3.659-0.617-7.396,0.654-11.285
	c1.271-3.813,3.352-6.818,6.047-8.821C231.833,18.559,234.531,18.135,237.072,19.329L237.072,19.329z"/>
<path id="path28" fill="#FFFFFF" d="M205.025,11.626c-1.887-1.194-3.736-1.81-5.545-1.81h-17.949l-7.396,46.644h21.57
	c2.311,0,4.699-0.731,7.203-2.233c2.465-1.503,4.352-3.352,5.854-5.624c1.58-2.618,2.156-5.161,1.889-7.856
	c-0.309-2.928-1.889-5.701-4.623-8.32c5.469-5.623,6.74-10.939,3.891-16.023C208.685,14.515,207.144,12.896,205.025,11.626z
	 M188.347,28.381l1.502-8.666h6.279c1.58,0,2.773,0.461,3.582,1.348c0.693,0.809,0.963,1.811,0.809,3.004
	c-0.154,1.195-0.73,2.157-1.656,3.005c-1.039,0.886-2.311,1.349-3.813,1.349h-6.703l10.861,11.092
	c0.887,0.887,1.35,2.042,1.271,3.313c-0.076,1.271-0.693,2.312-1.811,3.236c-1.115,0.885-2.695,1.425-4.852,1.425h-8.475
	l1.502-9.437h8.088c1.811,0,3.236,0.539,4.275,1.502L188.347,28.381L188.347,28.381z"/>
<path id="path30" fill="#FFFFFF" d="M276.437,52.262c0-1.349-0.539-2.389-1.35-3.275c-0.885-0.885-2.002-1.424-3.311-1.424
	c-1.271,0-2.389,0.539-3.275,1.424c-0.885,0.887-1.348,1.965-1.348,3.275c0,1.271,0.463,2.311,1.348,3.234
	c0.887,0.887,2.004,1.426,3.275,1.426c1.27,0,2.387-0.539,3.311-1.426C275.898,54.572,276.437,53.533,276.437,52.262z
	 M274.548,49.488c0.693,0.693,1.117,1.656,1.117,2.773c0,1.04-0.461,1.965-1.117,2.773c-0.654,0.654-1.656,1.04-2.771,1.04
	c-1.117,0-2.08-0.386-2.773-1.04c-0.811-0.809-1.195-1.732-1.195-2.773c0-1.117,0.387-2.08,1.195-2.773
	c0.654-0.809,1.656-1.194,2.773-1.194C272.931,48.294,273.894,48.641,274.548,49.488z"/>
<path id="path32" fill="#FFFFFF" d="M273.433,49.873l-1.271-0.308h-2.234v5.238h0.732v-2.388h1.039l1.426,2.388h0.809l-1.58-2.388
	c1.041,0,1.656-0.462,1.656-1.502C274.048,50.451,273.894,50.027,273.433,49.873z M273.279,50.914c0,0.616-0.617,0.885-1.734,0.885
	h-0.885v-1.656h1.424C272.931,50.143,273.279,50.451,273.279,50.914L273.279,50.914z"/>
</svg>
