<?xml version="1.0" encoding="utf-8"?>
<!-- Generator: Adobe Illustrator 13.0.0, SVG Export Plug-In . SVG Version: 6.00 Build 14948)  -->
<!DOCTYPE svg PUBLIC "-//W3C//DTD SVG 1.1//EN" "http://www.w3.org/Graphics/SVG/1.1/DTD/svg11.dtd">
<svg version="1.1" id="Layer_1" xmlns="http://www.w3.org/2000/svg" xmlns:xlink="http://www.w3.org/1999/xlink" x="0px" y="0px"
	 width="568px" height="93.173px" viewBox="-0.57 -0.5 568 93.173" enable-background="new -0.57 -0.5 568 93.173"
	 xml:space="preserve">
<g>
	<g>
		<g>
			<linearGradient id="SVGID_1_" gradientUnits="userSpaceOnUse" x1="176.729" y1="4.882813e-004" x2="176.729" y2="92.5005">
				<stop  offset="0" style="stop-color:#FFFFFF"/>
				<stop  offset="1" style="stop-color:#CCCCCC"/>
			</linearGradient>
			<path fill="url(#SVGID_1_)" d="M18.421,92.138l1.372-18.127h7.505l1.511,18.127h18.522L35.72,0.45H11.787L0,92.138H18.421
				 M26.213,58.882h-5.337l2.706-35.629L26.213,58.882 M77.555,0.45H51.749v91.688h17.652V39.921l7.301,52.216h11.463l7.014-51.932
				v51.932h17.651V0.45H86.987l-4.799,40.498L77.555,0.45 M116.043,11.608c-0.012,6.318-0.084,12.634-0.033,18.955
				c0.033,1.033,0.096,2.065,0.156,2.808c0.134,1.565,0.257,2.042,0.518,3.058c0.268,1.004,0.72,2.259,1.432,3.368
				c0.334,0.531,0.71,1.036,1.269,1.646c0.559,0.61,1.301,1.325,2.083,1.993c1.611,1.394,3.367,2.47,5.129,3.399
				c3.851,2.129,7.678,4.232,11.555,6.391c0.52,0.329,1.071,0.605,1.619,1.137c1.332,1.28,1.328,2.768,1.309,4.191l0.074,1.98
				l0.028,12.414c0.012,0.907-0.075,1.803-0.512,2.766c-0.149,0.279-0.354,0.539-0.6,0.75c-0.782,0.65-1.768,0.822-2.742,0.433
				c-0.3-0.125-0.576-0.306-0.81-0.53c-0.982-0.945-0.869-2.287-1.01-3.439L135.5,54.244h-19.514l0.02,20.92
				c0.016,2.568,0.033,5.002,0.589,7.519c0.299,1.297,0.776,2.646,1.5,3.853c0.724,1.207,1.691,2.272,2.826,3.105
				c1.134,0.832,2.434,1.43,3.461,1.785c1.028,0.354,1.784,0.467,2.54,0.558c0.756,0.091,1.511,0.19,2.269,0.19h19.826
				c0.898,0,1.798,0.039,2.905-0.266c1.109-0.304,2.422-0.844,3.557-1.564c1.137-0.723,2.096-1.625,2.756-2.594
				c0.66-0.967,1.023-2.002,1.336-2.934s0.574-1.763,0.765-2.872c0.191-1.108,0.313-2.493,0.382-3.881
				c0.066-1.388,0.033-2.774,0.033-4.163V59.203c0-0.275,0-0.553-0.008-1.174c-0.006-0.621-0.018-1.586-0.061-2.689
				s-0.118-2.344-0.186-3.146c-0.067-0.801-0.127-1.163-0.201-1.522c-0.074-0.359-0.164-0.715-0.265-1.069
				c-0.101-0.353-0.212-0.704-0.495-1.312c-0.281-0.607-0.733-1.474-1.278-2.277c-0.544-0.804-1.18-1.546-1.89-2.208
				c-0.711-0.661-1.496-1.24-2.37-1.838c-1.807-1.227-3.822-2.482-5.766-3.56l-8.284-4.52c-0.499-0.272-0.991-0.557-1.466-0.869
				c-0.476-0.313-0.935-0.647-1.211-0.857c-0.497-0.379-0.498-0.429-0.707-0.651c-0.082-0.093-0.161-0.188-0.298-0.413
				c-0.312-0.497-0.689-1.371-0.759-2.11c-0.049-0.397-0.007-0.797-0.007-1.198c0.005-2.886-0.015-5.865,0.014-8.657
				c-0.017-0.65-0.001-1.393,0.24-2.087c0.111-0.341,0.257-0.671,0.438-0.949c0.94-1.257,2.065-1.441,3.305-0.92
				c0.282,0.147,0.542,0.359,0.762,0.606c0.22,0.247,0.4,0.527,0.529,0.83c0.128,0.302,0.206,0.625,0.257,1.072
				c0.105,0.921,0.114,2.188,0.107,3.302V31.89h19.598c-0.021-5.63,0.068-11.255-0.063-16.891c-0.055-1.304-0.149-2.607-0.229-3.466
				c-0.079-0.859-0.145-1.273-0.227-1.684c-0.085-0.411-0.185-0.817-0.301-1.221c-0.116-0.403-0.245-0.803-0.553-1.489
				c-0.307-0.686-0.79-1.657-1.424-2.523c-0.634-0.866-1.419-1.625-2.302-2.24c-0.884-0.615-1.865-1.084-2.707-1.387
				c-1.657-0.569-2.919-0.665-4.359-0.849c-0.706-0.075-1.414-0.145-2.124-0.139l-16.964,0.136
				c-1.947,0.063-3.875,0.305-5.903,0.873c-0.618,0.189-1.198,0.427-1.75,0.719c-1.11,0.606-2.034,1.269-2.993,2.447
				c-0.483,0.599-0.994,1.363-1.413,2.174C116.59,8.011,116.083,9.822,116.043,11.608 M163.976,0.45v14.789h9.775v76.898h19.598
				V15.239h9.701V0.45H163.976 M229.18,0.45h-20.866v91.688h19.569V55.591c1.282,0.049,2.563-0.108,3.863,0.293
				c0.274,0.098,0.531,0.246,0.752,0.435c0.904,0.776,0.834,1.767,0.973,2.703c0.17,1.881,0.037,3.771,0.084,5.653v27.462h19.568
				l-0.018-28.663c-0.031-2.825-0.223-5.624-0.839-8.45c-0.173-0.638-0.402-1.276-0.688-1.905c-0.433-1.004-1.019-1.943-1.732-2.771
				c-0.713-0.829-1.554-1.549-2.482-2.126c-0.928-0.577-1.947-1.011-3.006-1.285c0.511-0.127,1.017-0.287,1.519-0.48
				c1.007-0.383,1.952-0.93,2.786-1.612c0.833-0.683,1.555-1.502,2.127-2.415c0.57-0.913,0.993-1.919,1.248-2.966
				c0.209-0.75,0.384-1.504,0.525-2.262c0.459-3.09,0.623-6.187,0.561-9.291v-9.6c0.061-1.895-0.029-3.802-0.271-5.699
				c-0.118-0.945-0.274-1.886-0.442-2.666c-0.167-0.781-0.346-1.402-0.578-2.004s-0.516-1.184-0.846-1.737
				c-0.331-0.554-0.709-1.079-1.129-1.569c-0.656-0.7-1.396-1.321-2.201-1.844c-1.67-1.083-3.544-1.688-5.393-1.846
				C237.91,0.438,233.543,0.581,229.18,0.45 M227.883,15.358c0.924,0.007,1.841,0.018,2.768,0.022
				c0.442,0.04,0.895,0.152,1.333,0.35c1.273,0.838,1.338,1.902,1.454,2.93c0.082,1.154,0.078,2.315,0.117,3.474
				c-0.016,4.017,0.051,8.032-0.047,12.048c-0.01,0.717-0.07,1.432-0.177,2.146c-0.033,0.334-0.131,0.663-0.288,0.96
				c-0.156,0.297-0.371,0.563-0.629,0.779c-0.592,0.533-1.38,0.56-2.091,0.644c-0.81,0.077-1.627,0.086-2.44,0.029V15.358
				 M275.575,92.138l1.371-18.127h7.507l1.51,18.127h18.521L292.875,0.45H268.94l-11.785,91.688H275.575 M283.368,58.882h-5.338
				l2.706-35.629L283.368,58.882 M351.087,6.108c-0.672-1.077-1.539-2.035-2.547-2.802c-1.01-0.768-2.158-1.345-3.012-1.688
				c-0.855-0.343-1.416-0.451-1.975-0.55c-0.561-0.099-1.121-0.187-1.682-0.252c-0.564-0.064-1.127-0.105-2.467-0.165
				c-1.34-0.059-3.455-0.191-5.572-0.192L308.46,0.45v91.688l31.104-0.053c0.773-0.002,1.531-0.221,2.293-0.355
				c1.604-0.289,3.016-0.594,4.521-1.275c0.793-0.356,1.646-0.832,2.422-1.416c0.773-0.586,1.471-1.283,2.129-2.356
				c0.658-1.075,1.277-2.526,1.732-4.302c0.453-1.773,0.801-3.871,0.797-5.971l-0.137-62.58c-0.004-1.429-0.361-2.84-0.727-4.146
				C352.234,8.379,351.757,7.185,351.087,6.108 M329.263,15.438c0.416,0,0.834-0.033,1.238,0.017s0.791,0.144,1.111,0.244
				c0.32,0.1,0.57,0.209,0.795,0.359s0.422,0.342,0.578,0.562c0.678,1.017,0.594,2.464,0.654,3.747v52.802
				c0,0.391-0.002,0.781-0.057,1.16c-0.057,0.379-0.15,0.746-0.271,1.065s-0.271,0.592-0.473,0.823
				c-0.197,0.232-0.445,0.424-0.715,0.576c-0.27,0.154-0.553,0.34-0.865,0.34h-3.205V15.438H329.263"/>
			<path d="M149.017,92.672H129.19c-0.802,0-1.576-0.104-2.328-0.193l0,0c-0.765-0.093-1.576-0.213-2.644-0.582l0,0
				c-1.068-0.371-2.403-0.983-3.593-1.855l0,0c-1.19-0.873-2.2-1.987-2.959-3.25l0,0c-0.759-1.267-1.25-2.662-1.559-4.002l0,0
				c-0.57-2.583-0.585-5.057-0.602-7.626l0,0l-0.021-21.421h20.513l0.006,19.121c0.135,1.247,0.073,2.408,0.861,3.142l0,0
				c0.188,0.181,0.413,0.328,0.647,0.425l0,0c0.292,0.116,0.578,0.171,0.852,0.171l0,0c0.494-0.003,0.962-0.173,1.381-0.517l0,0
				c0.195-0.168,0.365-0.382,0.469-0.576l0,0c0.375-0.834,0.466-1.593,0.468-2.41l0,0c0-0.054,0-0.102,0-0.148l0,0l-0.029-12.397
				l-0.073-2.003c0-0.16,0.002-0.315,0.002-0.465l0,0c-0.006-1.259-0.114-2.35-1.159-3.363l0,0c-0.487-0.475-0.987-0.728-1.516-1.06
				l0,0c-3.875-2.156-7.701-4.261-11.543-6.384l0,0c-1.783-0.939-3.572-2.036-5.223-3.463l0,0c-0.796-0.68-1.549-1.406-2.125-2.034
				l0,0c-0.577-0.628-0.977-1.165-1.321-1.715l0,0c-0.753-1.171-1.217-2.469-1.495-3.512l0,0c-0.263-1.012-0.4-1.563-0.533-3.144
				l0,0c-0.06-0.75-0.125-1.79-0.158-2.843l0,0c-0.015-1.62-0.019-3.239-0.019-4.854l0,0c0-4.707,0.042-9.407,0.052-14.108l0,0
				v0.002l0.5,0.001l-0.5-0.011c0.042-1.875,0.57-3.755,1.449-5.476l0,0c0.438-0.846,0.964-1.634,1.47-2.262l0,0
				c0.998-1.229,1.999-1.949,3.146-2.573l0,0c0.583-0.307,1.192-0.556,1.85-0.759l0,0c2.071-0.579,4.043-0.825,6.034-0.89l0,0
				l16.94-0.137c0.052-0.002,0.089,0,0.112,0l0,0c0.715,0,1.412,0.07,2.103,0.143l0,0c1.422,0.182,2.743,0.282,4.466,0.875l0,0
				c0.879,0.317,1.896,0.8,2.822,1.447l0,0c0.929,0.645,1.752,1.443,2.419,2.355l0,0c0.668,0.91,1.162,1.91,1.479,2.612l0,0
				c0.315,0.703,0.458,1.141,0.577,1.557l0,0c0.12,0.415,0.222,0.834,0.311,1.261l0,0c0.085,0.425,0.155,0.867,0.234,1.733l0,0
				c0.081,0.871,0.176,2.179,0.23,3.502l0,0c0.058,2.534,0.073,5.065,0.073,7.595l0,0c0,2.453-0.013,4.904-0.013,7.354l0,0
				c0,0.651,0.002,1.3,0.004,1.951l0,0l0.002,0.502h-20.6V20.986c-0.002-0.181,0-0.363,0-0.543l0,0c0-0.96-0.021-1.968-0.104-2.702
				l0,0c-0.047-0.419-0.116-0.684-0.22-0.933l0,0c-0.107-0.251-0.257-0.485-0.443-0.694l0,0c-0.185-0.206-0.4-0.379-0.583-0.477l0,0
				c-0.375-0.16-0.715-0.234-1.026-0.234l0,0c-0.595,0.008-1.118,0.251-1.665,0.966l0,0c-0.149,0.23-0.282,0.522-0.385,0.842l0,0
				c-0.172,0.491-0.218,1.043-0.218,1.578l0,0c0,0.11,0.002,0.22,0.006,0.348l0,0c-0.014,1.248-0.019,2.536-0.019,3.834l0,0
				c0,1.254,0.004,2.523,0.004,3.782l0,0c0,0.347,0.002,0.693,0,1.037l0,0c0,0.275-0.017,0.529-0.017,0.759l0,0
				c0,0.13,0.006,0.257,0.022,0.392l0,0c0.052,0.612,0.411,1.464,0.688,1.897l0,0c0.129,0.208,0.17,0.257,0.234,0.33l0,0
				c0.251,0.264,0.156,0.218,0.645,0.597l0,0c0.268,0.203,0.722,0.533,1.184,0.836l0,0c0.458,0.303,0.939,0.581,1.431,0.848l0,0
				l8.286,4.522c1.959,1.086,3.985,2.349,5.808,3.583l0,0c0.881,0.605,1.688,1.198,2.428,1.887l0,0
				c0.738,0.687,1.397,1.458,1.961,2.293l0,0c0.566,0.835,1.028,1.719,1.319,2.345l0,0c0.292,0.628,0.419,1.022,0.522,1.385l0,0
				c0.104,0.365,0.197,0.732,0.273,1.107l0,0c0.077,0.373,0.143,0.771,0.209,1.58l0,0c0.068,0.813,0.146,2.057,0.187,3.169l0,0
				c0.044,1.111,0.056,2.081,0.063,2.703l0,0c0.008,0.622,0.008,0.904,0.008,1.18l0,0v14.697c0,0.687,0.008,1.381,0.008,2.08l0,0
				c0,0.698-0.008,1.401-0.043,2.108l0,0c-0.068,1.399-0.191,2.799-0.388,3.939l0,0c-0.197,1.145-0.469,2.012-0.784,2.948l0,0
				c-0.315,0.936-0.69,2.02-1.396,3.055l0,0c-0.707,1.034-1.712,1.979-2.903,2.735l0,0c-1.186,0.752-2.536,1.306-3.693,1.625l0,0
				c-0.943,0.255-1.752,0.282-2.486,0.282l0,0C149.382,92.672,149.2,92.672,149.017,92.672L149.017,92.672z M116.505,75.16
				c0.017,2.569,0.035,4.962,0.577,7.41l0,0c0.29,1.257,0.752,2.56,1.443,3.706l0,0c0.688,1.15,1.611,2.166,2.691,2.961l0,0
				c1.078,0.792,2.341,1.374,3.328,1.715l0,0c0.989,0.34,1.69,0.443,2.437,0.534l0,0c0.761,0.092,1.497,0.188,2.21,0.188l0,0h19.827
				c0.183,0,0.365,0,0.55,0l0,0c0.711,0,1.401-0.027,2.223-0.249l0,0c1.062-0.291,2.339-0.815,3.421-1.504l0,0
				c1.084-0.69,1.997-1.551,2.61-2.452l0,0c0.616-0.9,0.964-1.885,1.275-2.813l0,0c0.311-0.927,0.562-1.723,0.746-2.797l0,0
				c0.185-1.076,0.307-2.446,0.375-3.821l0,0c0.033-0.683,0.042-1.368,0.042-2.059l0,0c0-0.69-0.008-1.384-0.008-2.08l0,0V59.202
				c-0.002-0.275,0-0.549-0.008-1.169l0,0c-0.006-0.62-0.019-1.578-0.062-2.675l0,0c-0.042-1.095-0.116-2.333-0.185-3.123l0,0
				c-0.066-0.792-0.121-1.119-0.193-1.464l0,0c-0.071-0.344-0.158-0.688-0.255-1.032l0,0c-0.097-0.342-0.195-0.649-0.468-1.238l0,0
				c-0.272-0.587-0.713-1.437-1.238-2.208l0,0c-0.523-0.773-1.134-1.486-1.816-2.121l0,0c-0.682-0.636-1.447-1.2-2.31-1.792l0,0
				c-1.795-1.219-3.799-2.467-5.725-3.535l0,0l-8.283-4.52c-0.506-0.276-1.01-0.566-1.501-0.89l0,0
				c-0.489-0.321-0.954-0.659-1.24-0.877l0,0c-0.504-0.379-0.599-0.527-0.778-0.718l0,0c-0.091-0.102-0.205-0.242-0.348-0.479l0,0
				c-0.349-0.566-0.745-1.461-0.832-2.314l0,0c-0.021-0.172-0.027-0.34-0.027-0.5l0,0c0-0.276,0.017-0.531,0.017-0.761l0,0
				c0-0.342,0-0.688,0-1.035l0,0c0-1.256-0.004-2.523-0.004-3.782l0,0c0-1.3,0.004-2.592,0.019-3.824l0,0
				c-0.004-0.116-0.006-0.234-0.006-0.358l0,0c0-0.587,0.043-1.252,0.27-1.897l0,0c0.122-0.375,0.282-0.742,0.514-1.095l0,0
				c0.676-0.921,1.555-1.402,2.484-1.394l0,0c0.473,0,0.948,0.114,1.454,0.33l0,0c0.344,0.181,0.647,0.429,0.902,0.715l0,0
				c0.255,0.287,0.465,0.614,0.618,0.969l0,0c0.149,0.354,0.238,0.736,0.292,1.211l0,0c0.091,0.813,0.11,1.841,0.11,2.815l0,0
				c0,0.185,0,0.367,0,0.543l0,0v10.403h18.598c-0.001-0.484-0.003-0.968-0.003-1.452l0,0c0-2.453,0.013-4.906,0.013-7.354l0,0
				c0-2.526-0.015-5.049-0.073-7.562l0,0c-0.054-1.296-0.147-2.592-0.226-3.442l0,0c-0.079-0.851-0.141-1.236-0.22-1.628l0,0
				c-0.081-0.4-0.178-0.794-0.29-1.184l0,0c-0.114-0.392-0.23-0.754-0.531-1.424l0,0c-0.297-0.667-0.77-1.611-1.371-2.432l0,0
				c-0.6-0.819-1.346-1.541-2.184-2.124l0,0c-0.84-0.584-1.787-1.039-2.583-1.325l0,0c-1.599-0.55-2.801-0.641-4.25-0.825l0,0
				c-0.676-0.073-1.337-0.137-1.987-0.137l0,0c-0.035,0-0.056,0-0.081,0l0,0l-16.951,0.137c-1.918,0.062-3.801,0.298-5.773,0.85l0,0
				c-0.589,0.182-1.14,0.406-1.657,0.68l0,0c-1.078,0.591-1.926,1.198-2.843,2.322l0,0c-0.462,0.572-0.958,1.313-1.358,2.088l0,0
				c-0.817,1.601-1.302,3.342-1.339,5.042l0,0l0,0c-0.011,4.699-0.052,9.396-0.052,14.094l0,0c0,1.615,0.004,3.229,0.019,4.833l0,0
				c0.033,1.024,0.095,2.048,0.155,2.78l0,0c0.135,1.555,0.243,1.956,0.502,2.974l0,0c0.257,0.968,0.697,2.181,1.373,3.228l0,0
				c0.319,0.51,0.672,0.985,1.215,1.576l0,0c0.541,0.591,1.271,1.296,2.04,1.953l0,0c1.572,1.358,3.293,2.416,5.045,3.338l0,0
				c3.851,2.129,7.676,4.232,11.581,6.407l0,0c0.487,0.311,1.09,0.611,1.698,1.198l0,0c1.327,1.268,1.472,2.785,1.464,4.083l0,0
				c0,0.162-0.002,0.317-0.002,0.45l0,0l0.073,1.998l0.029,12.41c0.002,0.056,0,0.108,0,0.155l0,0
				c0.002,0.892-0.108,1.829-0.57,2.85l0,0c-0.179,0.334-0.421,0.641-0.722,0.899l0,0c-0.585,0.487-1.292,0.755-2.026,0.753l0,0
				c-0.409,0.002-0.821-0.081-1.228-0.242l0,0c-0.359-0.149-0.687-0.363-0.966-0.633l0,0c-1.176-1.157-1.012-2.679-1.163-3.799l0,0
				L135,54.744h-18.516L116.505,75.16L116.505,75.16z M307.958-0.05l25.875,0.008c2.136,0.002,4.261,0.133,5.594,0.193l0,0
				c1.342,0.06,1.921,0.102,2.501,0.168l0,0c0.574,0.066,1.145,0.155,1.713,0.255l0,0c0.563,0.1,1.184,0.22,2.073,0.579l0,0
				c0.89,0.359,2.069,0.95,3.129,1.754l0,0c1.056,0.807,1.964,1.808,2.667,2.936l0,0h0.002l-0.002,0.001
				c0.703,1.127,1.196,2.369,1.565,3.704l0,0c0.366,1.314,0.74,2.768,0.744,4.28l0,0l0.137,62.615l0,0c0,0.001,0,0.001,0,0.002l0,0
				c0,0.001,0.001,0.005,0,0.014l0,0c-0.002,2.137-0.354,4.252-0.813,6.045l0,0c-0.465,1.816-1.1,3.312-1.79,4.439l0,0
				c-0.688,1.126-1.442,1.881-2.254,2.493l0,0c-0.813,0.613-1.695,1.104-2.517,1.474l0,0c-1.563,0.707-3.027,1.021-4.641,1.313l0,0
				c-0.728,0.125-1.512,0.356-2.378,0.361l0,0l-31.606,0.054V-0.05L307.958-0.05z M308.959,91.637l30.603-0.052
				c0.679,0,1.41-0.205,2.207-0.348l0,0c1.594-0.289,2.954-0.585,4.403-1.24l0,0c0.764-0.345,1.587-0.803,2.324-1.358l0,0
				c0.736-0.56,1.377-1.198,2.006-2.219l0,0c0.626-1.024,1.229-2.432,1.673-4.165l0,0c0.444-1.731,0.782-3.78,0.782-5.813l0,0
				c0.003,0-0.003-0.01,0-0.051l0,0L352.82,13.83c-0.002-1.346-0.344-2.714-0.707-4.012l0,0c-0.353-1.273-0.813-2.419-1.449-3.446
				l0,0l0.423-0.265l-0.425,0.265c-0.639-1.026-1.466-1.939-2.424-2.669l0,0c-0.962-0.729-2.08-1.294-2.896-1.621l0,0
				c-0.821-0.328-1.321-0.423-1.875-0.523l0,0c-0.556-0.097-1.104-0.185-1.65-0.247l0,0c-0.549-0.062-1.097-0.104-2.434-0.162l0,0
				c-1.348-0.06-3.453-0.191-5.551-0.193l0,0L308.959,0.95V91.637L308.959,91.637z M285.5,92.637l-1.508-18.129h-6.583
				l-1.335,17.666v0.002l-0.5-0.038v0.499h-18.991L268.5-0.05h24.813l11.738,92.687H285.5L285.5,92.637z M257.722,91.637h17.388
				l1.371-18.126h8.431l1.51,18.124h17.493L292.432,0.95h-23.053L257.722,91.637L257.722,91.637z M233.054,92.637l0.002-27.949
				c-0.01-0.327-0.014-0.65-0.014-0.977l0,0c0-0.773,0.019-1.542,0.019-2.303l0,0c0-0.788-0.019-1.57-0.083-2.314l0,0
				c-0.145-1.037-0.095-1.796-0.805-2.397l0,0c-0.174-0.146-0.379-0.265-0.576-0.335l0,0c-0.749-0.234-1.51-0.266-2.318-0.266l0,0
				c-0.234,0-0.475,0.004-0.719,0.004l0,0c-0.059,0-0.118,0-0.176-0.001l0,0v36.538h-20.569V-0.05h21.368v0.5l0.014-0.5
				c4.342,0.131,8.723-0.015,13.111,0.496l0,0c1.928,0.166,3.881,0.796,5.623,1.926l0,0c0.84,0.543,1.609,1.19,2.308,1.937l0,0
				c0.438,0.512,0.833,1.06,1.18,1.638l0,0c0.344,0.577,0.641,1.184,0.883,1.814l0,0c0.243,0.628,0.429,1.279,0.599,2.078l0,0
				c0.172,0.798,0.33,1.752,0.45,2.708l0,0c0.195,1.534,0.292,3.075,0.292,4.611l0,0c0,0.39-0.006,0.777-0.019,1.151l0,0v9.592
				c0.008,0.417,0.013,0.838,0.013,1.259l0,0c0,2.708-0.176,5.412-0.581,8.132l0,0c-0.145,0.773-0.324,1.541-0.531,2.29l0,0
				c-0.268,1.099-0.711,2.154-1.311,3.114l0,0c-0.602,0.958-1.358,1.818-2.233,2.536l0,0c-0.877,0.715-1.868,1.29-2.923,1.691l0,0
				c-0.026,0.011-0.051,0.02-0.077,0.029l0,0c0.571,0.236,1.124,0.519,1.649,0.844l0,0c0.97,0.604,1.85,1.356,2.596,2.223l0,0
				c0.747,0.869,1.36,1.853,1.808,2.893l0,0c0.299,0.653,0.535,1.317,0.722,2.006l0,0c0.626,2.873,0.819,5.708,0.85,8.557l0,0
				l0.019,29.164H233.054L233.054,92.637z M231.913,55.412c0.332,0.118,0.641,0.297,0.911,0.526l0,0
				c1.099,0.952,1.007,2.174,1.145,3.038l0,0c0.075,0.816,0.091,1.63,0.091,2.433l0,0c0,0.775-0.019,1.544-0.019,2.303l0,0
				c0,0.319,0.004,0.633,0.015,0.963l0,0v26.961h18.568l-0.019-28.157c-0.031-2.806-0.222-5.57-0.821-8.323l0,0
				c-0.166-0.612-0.386-1.226-0.666-1.84l0,0c-0.413-0.957-0.973-1.854-1.651-2.644l0,0c-0.68-0.79-1.482-1.476-2.368-2.027l0,0
				c-0.883-0.55-1.856-0.965-2.868-1.226l0,0l0.004-0.968c0.492-0.122,0.977-0.276,1.464-0.462l0,0
				c0.956-0.363,1.854-0.883,2.646-1.532l0,0c0.79-0.647,1.477-1.427,2.02-2.291l0,0c0.541-0.869,0.946-1.825,1.19-2.837l0,0
				c0.205-0.736,0.377-1.474,0.512-2.2l0,0c0.394-2.65,0.568-5.304,0.568-7.968l0,0c0-0.413-0.004-0.828-0.012-1.25l0,0v-9.615
				c0.012-0.377,0.019-0.757,0.019-1.136l0,0c0-1.493-0.096-2.994-0.286-4.485l0,0c-0.116-0.933-0.27-1.862-0.434-2.625l0,0
				c-0.164-0.761-0.336-1.354-0.556-1.929l0,0c-0.222-0.574-0.493-1.132-0.811-1.661l0,0c-0.315-0.529-0.676-1.031-1.064-1.482l0,0
				c-0.628-0.67-1.337-1.265-2.108-1.767l0,0c-1.597-1.037-3.393-1.615-5.178-1.769l0,0c-4.305-0.501-8.657-0.361-13.04-0.491l0,0
				h-20.354v90.686h18.57V55.072l0.516,0.019c0.218,0.008,0.436,0.011,0.66,0.011l0,0c0.234,0,0.473-0.005,0.719-0.005l0,0
				C230.107,55.096,230.984,55.122,231.913,55.412L231.913,55.412z M173.25,92.637V15.74h-9.774V0.45h0.5v-0.5h39.575v15.79h-9.702
				v76.897H173.25L173.25,92.637z M164.475,14.738h9.776l-0.002,76.897h18.599V14.738h9.7V0.95h-38.073V14.738L164.475,14.738z
				 M94.68,92.637l-0.002-44.993l-6.075,44.993H76.267l-6.366-45.53v45.53H51.248V-0.05h26.307v0.5l0.498-0.058l4.145,36.232
				L86.541-0.05h26.79v92.687H94.68L94.68,92.637z M95.679,40.205v51.43h16.65V0.95H87.431l-4.747,40.058l-0.993-0.002L77.109,0.95
				H52.248v90.686H68.9V39.921l0.995-0.07l7.241,51.785h10.591l6.957-51.499L95.679,40.205L95.679,40.205z M28.349,92.637
				L26.837,74.51h-6.581l-1.337,17.664l0.002,0.002l-0.5-0.038v0.499H-0.57L11.348-0.05h24.811l11.74,92.687H28.349L28.349,92.637z
				 M0.568,91.637h17.388l1.373-18.128h8.429l1.511,18.126h17.494L35.28,0.95H12.227L0.568,91.637L0.568,91.637z M327.553,77.633
				V14.938h0.501h1.209v1h-0.711v60.697h2.706c0.107,0.01,0.331-0.102,0.62-0.276l0,0c0.228-0.128,0.429-0.286,0.582-0.469l0,0
				c0.155-0.178,0.276-0.394,0.384-0.672l0,0c0.105-0.281,0.193-0.617,0.242-0.96l0,0c0.05-0.334,0.053-0.7,0.053-1.088l0,0V20.391
				c-0.05-1.323-0.013-2.691-0.563-3.481l0,0c-0.12-0.17-0.273-0.319-0.447-0.435l0,0c-0.175-0.116-0.374-0.208-0.666-0.299l0,0
				c-0.297-0.091-0.657-0.18-1.026-0.224l0,0c-0.146-0.019-0.301-0.025-0.469-0.025l0,0c-0.22,0-0.456,0.011-0.705,0.011l0,0v-1
				c0.22,0,0.456-0.01,0.705-0.01l0,0c0.188,0,0.386,0.006,0.593,0.031l0,0c0.442,0.054,0.856,0.156,1.199,0.264l0,0
				c0.348,0.107,0.65,0.236,0.925,0.421l0,0c0.275,0.185,0.516,0.417,0.717,0.701l0,0c0.797,1.229,0.666,2.756,0.736,4.024l0,0
				v52.802c0,0.392,0,0.807-0.061,1.233l0,0c-0.062,0.412-0.163,0.811-0.3,1.169l0,0c-0.135,0.359-0.313,0.688-0.559,0.969l0,0
				c-0.244,0.288-0.539,0.512-0.848,0.687l0,0c-0.253,0.135-0.595,0.396-1.113,0.406l0,0H327.553L327.553,77.633z M277.489,59.382
				l2.747-36.167h0.998l2.633,35.63l-0.5,0.036v0.501H277.489L277.489,59.382z M278.569,58.381h4.261l-2.102-28.436L278.569,58.381
				L278.569,58.381z M20.334,59.382l2.748-36.167h1l2.631,35.63l-0.5,0.036v0.501H20.334L20.334,59.382z M21.415,58.381h4.258
				l-2.098-28.434L21.415,58.381L21.415,58.381z M227.849,39.239l-0.466-0.031V15.358h0.5l0.004-0.5
				c0.925,0.006,1.841,0.017,2.81,0.023l0,0c0.493,0.046,1.001,0.17,1.493,0.392l0,0l0.035,0.017l0.033,0.022
				c1.464,0.944,1.578,2.306,1.68,3.312l0,0c0.083,1.18,0.079,2.345,0.118,3.51l0,0c-0.002,0.473-0.004,0.946-0.004,1.418l0,0
				c0,1.74,0.01,3.481,0.01,5.225l0,0c0,1.802-0.013,3.608-0.054,5.41l0,0c-0.01,0.74-0.072,1.479-0.18,2.19l0,0
				c-0.04,0.398-0.153,0.788-0.342,1.143l0,0c-0.187,0.356-0.443,0.671-0.736,0.918l0,0c-0.77,0.68-1.696,0.68-2.378,0.769l0,0
				c-0.479,0.046-0.962,0.068-1.441,0.068l0,0C228.567,39.276,228.206,39.262,227.849,39.239L227.849,39.239z M228.93,38.277
				c0.45,0,0.9-0.021,1.335-0.063l0,0c0.748-0.081,1.399-0.133,1.827-0.531l0,0c0.209-0.174,0.383-0.39,0.51-0.63l0,0
				c0.125-0.236,0.206-0.504,0.234-0.8l0,0c0.104-0.692,0.162-1.385,0.172-2.084l0,0c0.042-1.795,0.054-3.593,0.052-5.391l0,0
				c0.002-1.74-0.008-3.481-0.008-5.225l0,0c0-0.475,0.002-0.948,0.004-1.402l0,0c-0.039-1.171-0.037-2.326-0.116-3.436l0,0
				c-0.131-1.059-0.149-1.821-1.197-2.546l0,0c-0.375-0.164-0.758-0.258-1.094-0.291l0,0c-0.76-0.003-1.513-0.011-2.266-0.017l0,0
				v22.403C228.564,38.272,228.747,38.277,228.93,38.277L228.93,38.277z"/>
		</g>
	</g>
	<g>
		<g>
			<linearGradient id="SVGID_2_" gradientUnits="userSpaceOnUse" x1="413.6333" y1="0.0874" x2="413.6333" y2="92.5874">
				<stop  offset="0" style="stop-color:#FFFFFF"/>
				<stop  offset="1" style="stop-color:#CCCCCC"/>
			</linearGradient>
			<path fill="url(#SVGID_2_)" d="M429.748,82.679h-21.398c-2.561-0.081-4.543-0.188-5.889-0.313
				c-1.109-0.104-1.934-0.478-2.566-1.179c-0.588-0.59-0.938-1.54-1.045-2.821c-0.127-1.505-0.23-3.796-0.313-6.783V20.113
				c0-2.498,0.082-4.492,0.244-5.927c0.143-1.25,0.58-2.192,1.367-2.913c0.688-0.691,1.471-1.078,2.391-1.18
				c1.098-0.122,3.084-0.185,5.906-0.185h21.303v14.871h9.965V0.45h-33.768c-2.48,0-4.979,0.152-7.43,0.452
				c-2.609,0.322-4.953,1.41-6.99,3.267c-2.104,2.102-3.33,4.65-3.65,7.576c-0.299,2.721-0.449,6.049-0.449,9.893V73.11
				c0,3.429,0.152,6.335,0.453,8.642c0.322,2.5,1.422,4.701,3.264,6.541c1.842,1.842,4.102,2.961,6.723,3.328
				c2.443,0.344,5.592,0.519,9.352,0.519h32.625v-24.33h-10.094V82.679L429.748,82.679z"/>
			<path d="M407.216,92.639c-3.777,0-6.943-0.177-9.422-0.524l0,0c-2.72-0.379-5.094-1.553-7.007-3.47l0,0
				c-1.914-1.908-3.071-4.224-3.406-6.83l0,0c-0.304-2.338-0.457-5.263-0.457-8.705l0,0V21.638c0-3.857,0.151-7.201,0.453-9.948l0,0
				c0.329-3.032,1.613-5.701,3.811-7.89l0,0c2.104-1.921,4.555-3.061,7.265-3.395l0,0c2.472-0.301,4.99-0.455,7.492-0.457l0,0
				h34.267v25.329h-10.965v-14.87h-20.803c-2.813,0-4.796,0.065-5.852,0.183l0,0c-0.811,0.092-1.469,0.415-2.107,1.052l0,0
				c-0.689,0.637-1.071,1.433-1.209,2.6l0,0c-0.157,1.403-0.241,3.383-0.239,5.871l0,0l-0.002,51.455
				c0.082,2.983,0.187,5.27,0.313,6.757l0,0c0.101,1.215,0.434,2.047,0.917,2.526l0,0c0.547,0.6,1.216,0.914,2.242,1.017l0,0
				c1.326,0.123,3.304,0.23,5.841,0.312l0,0h20.899V67.308h11.095v25.331H407.216L407.216,92.639z M398.576,1.398
				c-2.51,0.31-4.745,1.347-6.698,3.124l0,0c-2.028,2.028-3.195,4.457-3.507,7.276l0,0c-0.296,2.694-0.446,6.007-0.446,9.839l0,0
				V73.11c0,3.413,0.152,6.302,0.448,8.577l0,0c0.312,2.393,1.352,4.479,3.121,6.25l0,0c1.771,1.769,3.918,2.833,6.438,3.187l0,0
				c2.41,0.34,5.54,0.516,9.284,0.516l0,0h32.125V68.307h-9.095v14.371v0.499h-21.914c-2.566-0.08-4.555-0.187-5.921-0.314l0,0
				c-1.191-0.104-2.172-0.539-2.872-1.322l0,0c-0.71-0.717-1.075-1.787-1.19-3.132l0,0c-0.127-1.525-0.23-3.82-0.313-6.826l0,0
				v-51.47c0-2.51,0.081-4.518,0.247-5.984l0,0c0.148-1.333,0.641-2.42,1.511-3.21l0,0c0.752-0.76,1.661-1.213,2.689-1.324l0,0
				c1.14-0.125,3.129-0.187,5.961-0.187l0,0h21.803v14.87h8.965V0.95h-33.267C403.483,0.95,401.006,1.101,398.576,1.398
				L398.576,1.398z M429.748,82.678v-0.499V82.678L429.748,82.678z"/>
		</g>
		<g>
			<linearGradient id="SVGID_3_" gradientUnits="userSpaceOnUse" x1="477.2065" y1="0.0874" x2="477.2065" y2="92.5874">
				<stop  offset="0" style="stop-color:#FFFFFF"/>
				<stop  offset="1" style="stop-color:#CCCCCC"/>
			</linearGradient>
			<path fill="url(#SVGID_3_)" d="M506.179,16.3c0-1.792-0.063-3.528-0.191-5.16c-0.137-1.718-0.531-3.268-1.178-4.608
				c-0.658-1.364-1.654-2.554-2.963-3.535c-1.297-0.971-3.1-1.693-5.406-2.155c-0.613-0.086-1.182-0.152-1.711-0.198
				c-0.518-0.042-1.182-0.084-1.996-0.129c-0.836-0.042-1.922-0.064-3.23-0.064h-41.33v9.458h8.641V82.68h-8.641v9.458h28.521V82.68
				h-8.77V50.451h20.678c1.801,0,3.564-0.043,5.24-0.127c1.764-0.088,3.396-0.357,4.861-0.804c1.535-0.467,2.904-1.272,4.068-2.394
				c1.164-1.124,2.082-2.667,2.729-4.612c0.359-1.171,0.586-2.487,0.676-3.914c0.084-1.38,0.084-3.208,0.002-5.397V16.3z
				 M495.451,19.9v11.482c0,2.177-0.064,3.971-0.189,5.334c-0.105,1.208-0.422,2.15-0.932,2.8c-0.484,0.618-1.316,1.057-2.473,1.304
				c-1.316,0.282-3.27,0.426-5.803,0.426h-18.129V9.909h17.623c2.479,0,4.438,0.083,5.83,0.25c1.213,0.144,2.111,0.485,2.666,1.012
				c0.549,0.521,0.918,1.423,1.096,2.68C495.345,15.289,495.451,17.325,495.451,19.9z"/>
			<path d="M447.671,92.636V82.18l8.64-0.002V10.408h-8.64V-0.05h41.831c1.313,0,2.407,0.023,3.259,0.065l0,0
				c0.815,0.044,1.482,0.086,2.011,0.129l0,0c0.54,0.048,1.117,0.114,1.765,0.207l0,0c2.355,0.473,4.229,1.212,5.609,2.245l0,0
				c1.366,1.024,2.42,2.279,3.113,3.719l0,0c0.678,1.404,1.085,3.016,1.227,4.786l0,0c0.129,1.647,0.192,3.396,0.192,5.199l0,0
				v16.886c0.038,1.09,0.059,2.095,0.062,3.003l0,0c-0.003,0.917-0.021,1.732-0.065,2.441l0,0c-0.091,1.461-0.323,2.815-0.699,4.042
				l0,0c-0.665,2.002-1.62,3.622-2.855,4.813l0,0c-1.219,1.174-2.661,2.023-4.271,2.514l0,0c-1.51,0.458-3.183,0.734-4.981,0.823
				l0,0c-1.686,0.084-3.457,0.127-5.265,0.129l0,0h-20.179V82.18h8.771v10.456H447.671L447.671,92.636z M448.672,91.637h27.52
				v-8.458h-8.769V49.95h21.18c1.791,0,3.548-0.042,5.214-0.127l0,0c1.729-0.084,3.322-0.349,4.741-0.781l0,0
				c1.461-0.445,2.758-1.208,3.867-2.276l0,0c1.092-1.054,1.974-2.524,2.597-4.399l0,0c0.347-1.125,0.568-2.405,0.655-3.797l0,0
				c0.042-0.68,0.062-1.478,0.062-2.38l0,0c0-0.893-0.021-1.886-0.062-2.986l0,0V16.3c0.002-1.78-0.062-3.503-0.188-5.121l0,0
				c-0.133-1.667-0.515-3.155-1.13-4.431l0,0c-0.623-1.288-1.563-2.414-2.813-3.352l0,0c-1.212-0.91-2.946-1.613-5.176-2.059l0,0
				c-0.606-0.086-1.166-0.15-1.682-0.196l0,0c-0.511-0.04-1.172-0.083-1.98-0.127l0,0c-0.824-0.042-1.903-0.063-3.206-0.063l0,0
				h-40.83v8.458h8.642v73.771h-8.642V91.637L448.672,91.637z M467.425,41.745V9.409h18.122c2.491,0,4.462,0.083,5.89,0.253l0,0
				c1.271,0.152,2.272,0.507,2.95,1.145l0,0c0.676,0.65,1.058,1.658,1.246,2.973l0,0c0.211,1.479,0.316,3.529,0.316,6.12l0,0v11.482
				c0,2.186-0.065,3.992-0.192,5.377l0,0c-0.111,1.269-0.443,2.306-1.036,3.064l0,0c-0.59,0.75-1.538,1.223-2.761,1.484l0,0
				c-1.379,0.296-3.354,0.437-5.906,0.437l0,0H467.425L467.425,41.745z M468.422,40.747h17.632c2.513,0,4.443-0.146,5.697-0.416l0,0
				c1.09-0.232,1.806-0.636,2.184-1.124l0,0c0.427-0.541,0.729-1.39,0.828-2.537l0,0c0.122-1.339,0.188-3.121,0.186-5.288l0,0V19.9
				h0.002c0-2.562-0.107-4.583-0.306-5.98l0,0c-0.167-1.198-0.523-1.994-0.946-2.387l0,0c-0.431-0.416-1.227-0.743-2.38-0.878l0,0
				c-1.358-0.163-3.305-0.247-5.771-0.245l0,0h-17.125V40.747L468.422,40.747z"/>
		</g>
		<g>
			<linearGradient id="SVGID_4_" gradientUnits="userSpaceOnUse" x1="540.7222" y1="0.0874" x2="540.7222" y2="92.5874">
				<stop  offset="0" style="stop-color:#FFFFFF"/>
				<stop  offset="1" style="stop-color:#CCCCCC"/>
			</linearGradient>
			<path fill="url(#SVGID_4_)" d="M556.833,67.809V82.68h-21.398c-2.559-0.081-4.541-0.188-5.889-0.313
				c-1.105-0.104-1.934-0.477-2.563-1.178c-0.588-0.59-0.939-1.54-1.047-2.822c-0.125-1.5-0.23-3.789-0.313-6.781V20.113
				c0-2.498,0.082-4.492,0.244-5.926c0.146-1.252,0.58-2.194,1.369-2.914c0.688-0.692,1.471-1.078,2.389-1.18
				c1.098-0.122,3.084-0.185,5.906-0.185h21.303v14.871h9.969V0.45h-33.771c-2.479,0-4.977,0.152-7.426,0.452
				c-2.613,0.322-4.955,1.41-6.994,3.267c-2.102,2.102-3.328,4.65-3.648,7.575c-0.299,2.718-0.451,6.047-0.451,9.894V73.11
				c0,3.431,0.152,6.339,0.453,8.642c0.324,2.5,1.422,4.699,3.266,6.541c1.842,1.842,4.104,2.961,6.723,3.328
				c2.443,0.344,5.59,0.519,9.352,0.519h32.625v-24.33H556.833z"/>
			<path d="M534.306,92.637c-3.778,0-6.943-0.175-9.423-0.521l0,0c-2.717-0.38-5.093-1.555-7.005-3.471l0,0
				c-1.916-1.91-3.073-4.225-3.409-6.83l0,0c-0.305-2.334-0.456-5.261-0.458-8.706l0,0V21.638c0.002-3.86,0.153-7.207,0.455-9.948
				l0,0c0.33-3.033,1.615-5.7,3.81-7.891l0,0c2.106-1.921,4.555-3.061,7.269-3.393l0,0c2.47-0.304,4.988-0.455,7.487-0.457l0,0
				h34.271v25.329h-10.968l-0.002-14.871h-20.801c-2.813,0-4.796,0.064-5.852,0.181l0,0c-0.81,0.093-1.467,0.415-2.107,1.053l0,0
				c-0.689,0.636-1.067,1.432-1.21,2.602l0,0c-0.158,1.401-0.241,3.384-0.241,5.871l0,0v51.458c0.083,2.986,0.188,5.271,0.311,6.754
				l0,0c0.103,1.216,0.437,2.046,0.922,2.531l0,0c0.542,0.595,1.216,0.91,2.237,1.012l0,0c1.329,0.124,3.306,0.23,5.843,0.313l0,0
				l20.898-0.002v-14.37v-0.5h11.097v25.329H534.306L534.306,92.637z M525.667,1.397c-2.514,0.313-4.747,1.349-6.702,3.125l0,0
				c-2.024,2.029-3.194,4.458-3.505,7.276l0,0c-0.296,2.693-0.449,6.005-0.447,9.84l0,0v51.471
				c-0.002,3.416,0.151,6.307,0.447,8.578l0,0c0.313,2.394,1.353,4.478,3.124,6.249l0,0c1.77,1.768,3.918,2.834,6.438,3.188l0,0
				c2.408,0.339,5.537,0.516,9.283,0.516l0,0h32.125V68.308h-9.1v14.87h-21.913c-2.565-0.081-4.555-0.188-5.92-0.314l0,0
				c-1.188-0.106-2.172-0.536-2.869-1.323l0,0c-0.708-0.715-1.078-1.785-1.191-3.133l0,0c-0.125-1.517-0.231-3.813-0.314-6.822l0,0
				V20.113c0-2.51,0.08-4.516,0.249-5.986l0,0c0.15-1.332,0.64-2.418,1.51-3.208l0,0c0.753-0.764,1.661-1.214,2.688-1.325l0,0
				c1.138-0.125,3.129-0.187,5.962-0.187l0,0h21.801v14.87h8.97V0.951h-33.271C530.573,0.951,528.095,1.1,525.667,1.397
				L525.667,1.397z M556.833,68.308v-0.5V68.308L556.833,68.308z"/>
		</g>
	</g>
</g>
</svg>
