<?xml version="1.0" encoding="utf-8"?>
<!-- Generator: Adobe Illustrator 16.0.3, SVG Export Plug-In . SVG Version: 6.00 Build 0)  -->
<!DOCTYPE svg PUBLIC "-//W3C//DTD SVG 1.1//EN" "http://www.w3.org/Graphics/SVG/1.1/DTD/svg11.dtd">
<svg version="1.1" xmlns="http://www.w3.org/2000/svg" xmlns:xlink="http://www.w3.org/1999/xlink" x="0px" y="0px"
	 width="566.93px" height="64.168px" viewBox="-110.047 5.731 566.93 64.168" enable-background="new -110.047 5.731 566.93 64.168"
	 xml:space="preserve">
<g id="Ebene_2_1_">
</g>
<g id="Ebene_1">
	<title>Sega Saturn Logo</title>
	<g>
		
			<radialGradient id="SVGID_1_" cx="-90.5518" cy="191.2813" r="110.8008" gradientTransform="matrix(1 0 0 -1 -0.0449 199.7598)" gradientUnits="userSpaceOnUse">
			<stop  offset="0" style="stop-color:#FFFFFF"/>
			<stop  offset="1" style="stop-color:#000000"/>
		</radialGradient>
		<path fill="url(#SVGID_1_)" d="M-96.884,37.078c2.093-1.583,5.084-3.551,8.511-5.267c3.43-1.837,7.289-3.489,11.575-5.143v0.062
			c4.225-1.592,8.694-3.062,13.348-4.348c4.716-1.348,9.368-2.45,14.022-3.245c4.714-0.918,9.245-1.471,13.533-1.716
			c4.409-0.367,9.435-0.025,10.701,0.062c1.267,0.087,3.075-0.183,3.871-0.795c0.797-0.673,1.225-1.471,1.347-2.449
			c0.123-1.042-0.183-1.96-0.794-2.696c-0.674-0.795-2.143-1.284-3.123-1.346c-3.92-0.43-7.654-0.43-12.491-0.124
			c-4.533,0.306-9.309,0.918-14.39,1.837c-4.838,0.857-9.738,2.021-14.636,3.368c-4.899,1.348-9.55,2.879-13.96,4.53
			c-4.592,1.778-9.555,4.026-12.37,5.452c-2.815,1.425-6.441,3.472-9.506,6c-3.064,2.527-4.362,3.736-6.415,6.918
			s-2.524,6.79-1.26,8.951c3.253,5.562,14.854,3.739,19.264,2.882c3.551-0.733,7.898-1.731,13.104-3.199
			c3.795-1.163,8.634-2.694,14.511-4.654l14.574-4.775c5.327-1.775,9.673-3.124,13.043-4.042c4.103-1.225,11.39-2.961,15.14-2.281
			c-0.188,2.35-3.106,8.643-16.123,14.466c-4.838,2.205-10.225,4.226-16.166,6.185h-0.061c-4.59,1.469-9.305,2.756-14.144,3.919
			c-4.715,1.104-9.125,1.899-13.35,2.573l0.062-0.062c-6.645,0.927-16.2,0.102-18.088,0.349c-3.737,0.238-4.646,2.591-4.686,3.612
			c-0.04,1.018-0.09,3.406,4.887,3.715c4.978,0.309,9.625,0.721,18.929-0.39c5.774-0.851,9.062-1.53,13.899-2.632h0.062
			c5.022-1.225,9.92-2.573,14.696-4.104c6.246-1.958,11.941-4.163,17.021-6.489c11.423-5.124,15.536-9.808,18.213-13.834
			c2.678-4.026,3.654-9.559,0.876-12.157c-3.182-2.977-9.235-2.445-11.314-2.248c-2.971,0.283-7.407,0.991-11.876,2.276
			c-3.428,0.98-7.839,2.328-13.35,4.166l-14.572,4.775c-5.817,1.899-10.533,3.43-14.267,4.531c-4.96,1.472-9.063,2.573-12.494,3.247
			c-7.83,1.803-10.348,0.794-10.348,0.794C-101.584,41.509-98.977,38.66-96.884,37.078z"/>
		<path fill="#333333" d="M-89.039,66.582c-2.612,0-4.834-0.14-6.982-0.277l-0.958-0.06c-5.437-0.338-5.325-3.213-5.288-4.158
			c0.05-1.282,1.178-3.774,5.086-4.023c0.244-0.033,0.653-0.049,1.261-0.049c0.772,0,1.793,0.027,2.976,0.058
			c1.584,0.042,3.554,0.094,5.569,0.094c3.388,0,6.086-0.147,8.25-0.449c0.07-0.009,0.137-0.001,0.2,0.02
			c4.92-0.79,9.074-1.593,13.05-2.524c5.12-1.231,9.737-2.51,14.11-3.91c0.04-0.013,0.082-0.02,0.123-0.021
			c6.267-2.067,11.52-4.079,16.057-6.146c11.518-5.152,15.31-10.859,15.822-13.718c-0.443-0.056-0.946-0.084-1.499-0.084
			c-3.648,0-9.128,1.248-13.042,2.416c-3.333,0.908-7.713,2.266-13.029,4.037l-14.577,4.777c-5.071,1.692-9.957,3.259-14.519,4.657
			c-4.407,1.243-8.703,2.291-13.142,3.208c-3.388,0.658-6.46,0.992-9.137,0.992c-5.439,0-9-1.372-10.583-4.077
			c-1.363-2.331-0.854-6.107,1.27-9.398c2.082-3.228,3.438-4.488,6.502-7.016c2.497-2.059,5.721-4.095,9.584-6.052
			c2.685-1.359,7.712-3.65,12.409-5.468c4.615-1.729,9.324-3.256,14.001-4.544c5.355-1.472,10.155-2.576,14.674-3.377
			c5.152-0.931,9.875-1.534,14.437-1.842c2.309-0.146,4.304-0.217,6.101-0.217c2.25,0,4.365,0.112,6.466,0.342
			c1.083,0.068,2.658,0.615,3.402,1.494c0.717,0.863,1.025,1.907,0.893,3.022c-0.138,1.102-0.627,1.993-1.496,2.726
			c-0.941,0.726-2.879,0.985-4.175,0.896c-0.822-0.057-3.321-0.228-6.196-0.228c-1.632,0-3.126,0.056-4.441,0.165
			c-4.425,0.253-8.958,0.828-13.487,1.709c-4.464,0.763-9.036,1.821-13.986,3.236c-4.498,1.243-8.976,2.701-13.315,4.337
			c-0.07,0.026-0.145,0.035-0.217,0.022c-4.686,1.814-8.283,3.417-11.306,5.036c-3.961,1.983-6.997,4.128-8.455,5.231
			c-2.085,1.577-4.284,4.076-4.419,6.008c0.336,0.074,1.003,0.178,2.087,0.178c2.064,0,4.666-0.359,7.733-1.064
			c3.173-0.624,7.014-1.622,12.468-3.24c3.711-1.095,8.448-2.632,14.255-4.527L-49.929,30c4.874-1.625,9.371-3.028,13.366-4.17
			c5.406-1.554,10.16-2.119,11.953-2.291c0.577-0.055,1.774-0.168,3.149-0.168c3.845,0,6.704,0.851,8.499,2.529
			c3.058,2.862,1.864,8.683-0.813,12.707c-2.825,4.246-7.008,8.88-18.395,13.987c-5.313,2.432-11.056,4.622-17.068,6.507
			c-4.572,1.465-9.389,2.81-14.724,4.11c-0.033,0.009-0.067,0.013-0.101,0.013h-0.015c-5.003,1.14-8.206,1.791-13.885,2.627
			C-82.146,66.35-85.662,66.582-89.039,66.582z M-95.92,58.869c-0.562,0-0.948,0.015-1.179,0.045
			c-3.328,0.213-4.274,2.189-4.314,3.206c-0.037,0.969-0.116,2.985,4.486,3.27l0.959,0.062c2.135,0.136,4.342,0.276,6.928,0.276
			c3.342,0,6.827-0.231,10.964-0.725c5.657-0.833,8.847-1.484,13.854-2.625c0.031-0.007,0.063-0.01,0.095-0.01h0.011
			c5.295-1.292,10.076-2.627,14.618-4.083c5.981-1.875,11.691-4.052,16.974-6.471c11.192-5.02,15.282-9.542,18.035-13.682
			c2.517-3.784,3.557-9.16,0.941-11.608c-1.631-1.525-4.293-2.299-7.914-2.299c-1.335,0-2.506,0.112-3.068,0.165
			c-1.769,0.169-6.461,0.727-11.798,2.261c-3.984,1.139-8.47,2.538-13.333,4.16l-14.575,4.776
			c-5.814,1.898-10.557,3.438-14.279,4.535c-5.48,1.626-9.345,2.63-12.532,3.256c-3.117,0.717-5.784,1.083-7.912,1.083
			c-1.845,0-2.597-0.279-2.677-0.312c-0.155-0.063-0.26-0.21-0.268-0.376c-0.125-2.616,2.934-5.653,4.762-7.036
			c1.481-1.12,4.565-3.299,8.578-5.308c3.092-1.656,6.785-3.297,11.612-5.16c0.073-0.028,0.151-0.035,0.225-0.023
			c4.293-1.61,8.721-3.049,13.164-4.276c4.978-1.423,9.578-2.487,14.064-3.254c4.557-0.887,9.128-1.467,13.581-1.721
			c1.327-0.111,2.844-0.167,4.501-0.167c2.904,0,5.425,0.173,6.253,0.229c0.146,0.01,0.298,0.015,0.456,0.015
			c1.267,0,2.581-0.304,3.124-0.722c0.691-0.584,1.073-1.276,1.185-2.164c0.103-0.874-0.138-1.695-0.7-2.37
			c-0.56-0.661-1.901-1.134-2.82-1.192c-3.794-0.416-7.257-0.452-12.438-0.124c-4.528,0.306-9.219,0.904-14.341,1.831
			c-4.495,0.796-9.269,1.895-14.598,3.359c-4.652,1.281-9.337,2.8-13.924,4.519c-4.665,1.806-9.66,4.082-12.326,5.432
			c-3.807,1.928-6.979,3.93-9.427,5.949c-3.053,2.519-4.302,3.68-6.328,6.82c-1.922,2.98-2.436,6.476-1.25,8.503
			c1.418,2.425,4.73,3.654,9.844,3.654c2.622,0,5.639-0.328,8.969-0.975c4.414-0.912,8.69-1.955,13.069-3.191
			c4.546-1.393,9.425-2.958,14.492-4.648l14.576-4.776c5.329-1.776,9.726-3.139,13.063-4.048c1.917-0.572,8.57-2.449,13.276-2.449
			c0.778,0,1.469,0.053,2.053,0.16c0.216,0.04,0.368,0.236,0.35,0.455c-0.063,0.796-1.062,7.972-16.374,14.822
			c-4.579,2.086-9.88,4.116-16.206,6.2c-0.042,0.014-0.084,0.021-0.129,0.021c-4.375,1.398-8.991,2.677-14.109,3.907
			c-4.071,0.953-8.324,1.772-13.383,2.58c-0.075,0.013-0.152,0.004-0.222-0.023c-2.155,0.282-4.807,0.42-8.093,0.42
			c-2.026,0-4.003-0.052-5.593-0.095C-94.141,58.896-95.153,58.869-95.92,58.869z"/>
		<g id="Ebene_2">
			<g>
				
					<radialGradient id="SVGID_2_" cx="-54.7847" cy="815.3975" r="28.2786" gradientTransform="matrix(1 0 0 1 -0.1797 -790.9609)" gradientUnits="userSpaceOnUse">
					<stop  offset="0.04" style="stop-color:#FFFFFF"/>
					<stop  offset="0.04" style="stop-color:#FFFFFF"/>
					<stop  offset="0.23" style="stop-color:#6E93E1"/>
					<stop  offset="1" style="stop-color:#363499"/>
				</radialGradient>
				<circle fill="url(#SVGID_2_)" cx="-60.065" cy="37.815" r="31.229"/>
				<path fill="#33317A" d="M-60.065,69.899c-17.691,0-32.083-14.393-32.083-32.084c0-17.692,14.393-32.084,32.083-32.084
					S-27.98,20.124-27.98,37.815C-27.98,55.506-42.374,69.899-60.065,69.899z M-60.065,7.442c-16.748,0-30.373,13.625-30.373,30.374
					c0,16.748,13.625,30.373,30.373,30.373c16.748,0,30.373-13.625,30.373-30.373C-29.692,21.066-43.317,7.442-60.065,7.442z"/>
			</g>
		</g>
		<g id="Ebene_4">
			
				<radialGradient id="SVGID_3_" cx="-140.0278" cy="512.749" r="244.9883" gradientTransform="matrix(1 0 0 1 -0.0898 -395.4805)" gradientUnits="userSpaceOnUse">
				<stop  offset="0" style="stop-color:#FFFFFF"/>
				<stop  offset="1" style="stop-color:#000000"/>
			</radialGradient>
			<path fill="url(#SVGID_3_)" d="M-89.657,50.012c3.551-0.733,7.898-1.731,13.104-3.199c3.795-1.163,14.511-4.654,14.511-4.654
				l14.574-4.775c5.327-1.775,9.673-3.124,13.043-4.042c0,0,5.039-1.327,5.895-1.48c-0.306-3.179-2.131-7.001-2.131-7.001
				c-1.84,0.356-3.809,0.811-5.785,1.379c-3.428,0.98-7.839,2.328-13.35,4.165l-14.572,4.775c-5.817,1.899-10.533,3.43-14.267,4.531
				c-7.69,2.397-12.921,3.343-13.128,3.389C-91.764,43.1-91.07,47.655-89.657,50.012z"/>
		</g>
		<g id="Ebene_3">
			<g>
				<path fill="#333333" d="M-98.956,44.459c-1.863,0-2.623-0.288-2.68-0.311c-0.219-0.088-0.326-0.337-0.238-0.556
					c0.087-0.22,0.337-0.326,0.556-0.238c0.021,0.007,2.563,0.919,10.093-0.813c3.173-0.623,7.014-1.622,12.468-3.24
					c3.712-1.095,8.448-2.632,14.255-4.528l14.571-4.774c4.874-1.625,9.372-3.029,13.367-4.17c5.406-1.554,10.16-2.119,11.953-2.29
					c0.232-0.019,0.444,0.15,0.466,0.385c0.022,0.235-0.15,0.444-0.385,0.466c-1.769,0.168-6.461,0.727-11.798,2.261
					c-3.984,1.138-8.47,2.538-13.333,4.16l-14.575,4.776c-5.814,1.898-10.557,3.437-14.279,4.535
					c-5.48,1.626-9.345,2.63-12.532,3.256C-94.751,44.23-97.292,44.459-98.956,44.459z"/>
			</g>
			<g>
				<path fill="#333333" d="M-98.664,51.409c-4.477,0-8.793-0.929-10.627-4.063c-0.119-0.204-0.05-0.466,0.153-0.585
					c0.203-0.119,0.466-0.05,0.585,0.153c2.895,4.95,13.029,3.802,18.813,2.679c4.415-0.912,8.691-1.956,13.069-3.191
					c3.739-1.146,14.388-4.615,14.495-4.649l14.573-4.775c5.329-1.776,9.725-3.139,13.063-4.048c0.017-0.005,2.057-0.577,5.91-1.483
					c3.625-0.854,6.6-1.168,8.604-0.911c0.235,0.03,0.4,0.245,0.37,0.479c-0.03,0.234-0.244,0.4-0.479,0.37
					c-1.327-0.172-3.844-0.154-8.299,0.895c-3.833,0.902-5.858,1.47-5.878,1.475c-3.327,0.906-7.708,2.264-13.024,4.036
					l-14.574,4.777c-0.108,0.035-10.763,3.506-14.519,4.657c-4.407,1.243-8.703,2.291-13.142,3.208
					C-92.095,50.921-95.422,51.409-98.664,51.409z"/>
			</g>
		</g>
		<g>
			<g>
				
					<linearGradient id="SVGID_4_" gradientUnits="userSpaceOnUse" x1="5.563" y1="-255.8076" x2="46.1876" y2="-215.1834" gradientTransform="matrix(1 0 0 -1 -0.1348 -195.7207)">
					<stop  offset="0" style="stop-color:#999999"/>
					<stop  offset="0.98" style="stop-color:#F3F3F3"/>
				</linearGradient>
				<path fill="url(#SVGID_4_)" d="M44.927,22.673c-0.573-0.956-1.348-1.531-2.308-1.849c-17.517-4.916-28.813-4.21-33.816,2.236
					c-1.798,2.107-2.889,4.15-3.21,6.255c-0.387,2.105-0.13,4.085,0.832,6.002H6.359c0.708,1.465,1.798,2.805,3.211,4.02h0.064
					c1.155,0.956,2.373,1.724,3.785,2.364c0.96,0.509,3.209,0.828,6.801,0.891c0.708,0.065,2.056,0.065,4.107,0.065
					c1.797,0.065,3.211,0.065,4.235,0.127h0.065c3.209,0.066,6.467,0.377,7.51,0.7c1.039,0.326,2.868,2.22,3.011,3.07
					c0.148,0.842,0,0,0,0c0.194,0.508,0.387,0.645,0.204,1.937c-0.188,1.292-0.584,1.062-1.099,1.701v-0.068
					c-0.58,0.511-1.541,0.893-2.888,1.279c-1.922,0.451-4.236,0.767-6.93,0.831c-2.696,0.064-5.39,0-8.149-0.319
					c-2.631-0.321-4.94-0.771-6.867-1.342c-0.961-0.316-1.987-0.254-2.889,0.258c-0.96,0.447-1.604,1.212-1.923,2.233
					c-0.321,0.956-0.192,1.977,0.253,2.934c0.516,0.892,1.288,1.529,2.249,1.853c2.309,0.762,5.068,1.271,8.277,1.659
					c3.147,0.318,6.223,0.447,9.305,0.381c3.339-0.129,6.227-0.508,8.6-1.083c3.335-0.833,5.648-2.109,6.866-3.768h0.064
					c1.025-1.28,1.794-2.431,2.244-3.453v-0.065c0.516-1.272,0.772-2.552,0.772-3.889v-0.131c-0.064-0.956,0.017-2.356-0.497-3.698
					c-0.193-0.7-0.381-1.087-1.413-3.317c-1.035-2.223-3.42-3.646-7.592-4.537h-0.063c-2.054-0.386-5.005-0.705-8.79-0.831
					c-1.09-0.066-2.567-0.066-4.492-0.131c-1.923,0-3.27,0-3.979-0.064c-2.052-0.06-3.399-0.127-3.913-0.252
					c-0.708-0.321-1.348-0.703-1.863-1.15c-0.574-0.511-1.025-1.021-1.283-1.529v-0.066c-0.259-0.382-0.323-0.831-0.194-1.28
					c0.194-0.829,0.644-1.719,1.477-2.551c3.849-3.701,12.449-3.701,25.86,0.129c1.031,0.253,1.992,0.192,2.888-0.382
					c0.966-0.508,1.605-1.277,1.863-2.298C45.571,24.593,45.444,23.632,44.927,22.673z"/>
				
					<linearGradient id="SVGID_5_" gradientUnits="userSpaceOnUse" x1="48.7212" y1="-252.3672" x2="88.2732" y2="-212.815" gradientTransform="matrix(1 0 0 -1 -0.1348 -195.7207)">
					<stop  offset="0" style="stop-color:#999999"/>
					<stop  offset="0.98" style="stop-color:#F3F3F3"/>
				</linearGradient>
				<path fill="url(#SVGID_5_)" d="M82.685,19.437c-0.772-0.703-1.669-1.086-2.759-1.086h-25.67c-1.026,0-1.988,0.384-2.696,1.086
					c-0.769,0.763-1.153,1.662-1.153,2.745v31.921c0,1.021,0.386,1.982,1.153,2.682c0.708,0.772,1.668,1.151,2.696,1.151h25.67
					c1.09,0,1.987-0.381,2.759-1.151c0.705-0.7,1.091-1.661,1.091-2.682c0-1.088-0.386-1.978-1.091-2.749
					c-0.772-0.7-1.669-1.086-2.759-1.086H58.109v-8.295h16.04c1.09,0,1.987-0.381,2.759-1.149C77.612,40.118,78,39.162,78,38.141
					c0-1.084-0.387-1.978-1.092-2.745c-0.772-0.709-1.669-1.09-2.759-1.09h-16.04V26.01h21.816c1.09,0,1.987-0.387,2.759-1.151
					c0.705-0.705,1.091-1.593,1.091-2.682C83.775,21.098,83.389,20.2,82.685,19.437z"/>
				
					<linearGradient id="SVGID_6_" gradientUnits="userSpaceOnUse" x1="86.3301" y1="-256.5576" x2="129.8642" y2="-213.0234" gradientTransform="matrix(1 0 0 -1 -0.1348 -195.7207)">
					<stop  offset="0" style="stop-color:#999999"/>
					<stop  offset="0.98" style="stop-color:#F3F3F3"/>
				</linearGradient>
				<path fill="url(#SVGID_6_)" d="M127,23.954c-0.189-1.109-0.768-2.009-1.598-2.63c-7.044-5.06-14.765-6.021-22.228-4.71
					c-2.943,0.69-3.896,0.621-7.111,2.215c-3.209,1.588-5.445,4.54-5.445,4.54c-1.536,1.666-2.369,3.699-3.395,6.394
					s-1.021,4.032-1.149,7.357c-0.128,3.329,0.317,6.38,1.277,9.286c0.96,2.915,2.433,5.481,4.421,7.629V53.96
					c1.921,2.222,4.291,3.947,7.044,5.058c2.754,1.18,5.765,1.805,9.029,1.805c7.684,0,13.262-1.739,16.72-5.2
					c4.035-3.533,5.698-8.865,5.059-16.001c-0.064-1.109-0.509-1.946-1.218-2.704c-0.767-0.695-1.599-1.042-2.627-1.042h-16.651
					c-1.021,0-1.981,0.412-2.695,1.177c-0.767,0.831-1.151,1.797-1.151,2.979c0,1.109,0.384,2.147,1.151,2.908
					c0.714,0.831,1.675,1.245,2.695,1.245h12.813c-0.258,2.08-1.092,3.818-2.374,5.129c-2.496,2.148-6.401,3.187-11.718,3.187
					c-2.244,0-4.358-0.414-6.213-1.177l-0.065-0.068c-1.668-0.695-3.074-1.666-4.294-3.051c-1.214-1.315-2.115-2.911-2.689-4.64
					c-0.64-1.871-0.897-3.949-0.831-6.167c0.063-2.354,0.321-3.633,0.766-5.224c0.324-1.182,0.833-2.148,1.538-2.911
					c0,0,1.146-1.779,3.077-2.74c1.932-0.966,3.33-1.247,5.7-1.872h0.065c5.64-1.385,11.018-0.208,16.208,3.601
					c0.893,0.625,1.854,0.831,2.875,0.625c1.028-0.276,1.858-0.833,2.437-1.802C127,26.174,127.193,25.135,127,23.954z"/>
				
					<linearGradient id="SVGID_7_" gradientUnits="userSpaceOnUse" x1="136.4551" y1="-258.2441" x2="179.0757" y2="-215.6239" gradientTransform="matrix(1 0 0 -1 -0.1348 -195.7207)">
					<stop  offset="0" style="stop-color:#999999"/>
					<stop  offset="0.98" style="stop-color:#F3F3F3"/>
				</linearGradient>
				<path fill="url(#SVGID_7_)" d="M175.494,57.627c0.642-0.893,0.895-1.784,0.769-2.871c-4.042-26.623-11.292-39.648-21.816-39.008
					c-10.519-0.64-17.839,11.939-21.755,37.729c-0.131,1.021,0.066,1.979,0.71,2.813c0.64,0.891,1.473,1.4,2.499,1.531
					c1.029,0.187,1.99-0.069,2.888-0.709c0.832-0.637,1.351-1.465,1.542-2.491c0.481-3.203,1.011-6.163,1.58-8.874h0.021h24.894
					c0.647,3.069,1.25,6.45,1.803,10.146c0.192,1.021,0.643,1.854,1.539,2.494c0.832,0.64,1.797,0.891,2.824,0.698
					C174.017,58.97,174.85,58.46,175.494,57.627z M143.818,38.095c2.808-9.447,6.36-14.34,10.625-14.684
					c4.137,0.339,7.647,5.237,10.461,14.684H143.818z"/>
			</g>
			<g>
				<path fill="#484848" d="M27.128,60.833c-2.597,0-5.159-0.132-7.835-0.402c-3.583-0.432-6.271-0.974-8.474-1.702
					c-1.18-0.396-2.131-1.18-2.759-2.268c-0.61-1.301-0.712-2.552-0.33-3.691c0.393-1.261,1.229-2.228,2.411-2.778
					c0.986-0.566,2.328-0.708,3.567-0.297c1.839,0.544,4.099,0.986,6.69,1.303c2.465,0.285,5.179,0.377,8.014,0.313
					c2.437-0.058,4.705-0.329,6.742-0.807c1.293-0.372,2.073-0.705,2.487-1.073c0.052-0.046,0.11-0.085,0.168-0.118
					c0.126-0.119,0.24-0.206,0.333-0.277c0.173-0.132,0.221-0.167,0.293-0.676c0.063-0.432,0.076-0.677,0.059-0.848
					c-0.021-0.026-0.041-0.054-0.059-0.083l0,0c-0.002,0-0.002-0.003-0.002-0.003v-0.001c0,0,0,0-0.002-0.001
					c0.002,0-0.001-0.001-0.001-0.001c0-0.001,0-0.001,0-0.001L38.43,47.42c0,0,0,0-0.001-0.001c0,0,0,0,0-0.001l0,0
					c-0.06-0.098-0.104-0.208-0.126-0.327l-0.062-0.354c-0.002-0.01-0.003-0.02-0.006-0.029c-0.115-0.484-1.614-2.1-2.375-2.34
					c-0.845-0.262-3.861-0.588-7.253-0.657c-0.662-0.035-1.342-0.05-2.14-0.069c-0.648-0.014-1.373-0.03-2.172-0.059
					c-2.031,0.005-3.408,0.001-4.159-0.069c-3.644-0.062-6.005-0.388-7.15-0.995c-1.348-0.608-2.605-1.384-3.789-2.344
					c-0.086-0.035-0.166-0.08-0.229-0.135c-1.537-1.32-2.694-2.774-3.441-4.318c-0.049-0.102-0.078-0.209-0.088-0.317
					c-0.917-1.985-1.164-4.033-0.755-6.254c0.333-2.192,1.454-4.389,3.417-6.689c2.964-3.82,8.083-5.774,15.188-5.774
					c5.311,0,11.9,1.093,19.581,3.248c1.267,0.419,2.186,1.156,2.851,2.264c0.678,1.254,0.805,2.469,0.401,3.647
					c-0.294,1.182-1.1,2.182-2.306,2.818c-0.627,0.404-1.401,0.63-2.229,0.63l0,0c-0.415,0-0.855-0.058-1.312-0.169
					c-12.916-3.688-21.432-3.79-24.998-0.361c-0.626,0.626-1.041,1.335-1.217,2.094c-0.067,0.236-0.043,0.401,0.058,0.55
					c0.062,0.093,0.106,0.195,0.133,0.302c0.2,0.333,0.535,0.711,0.998,1.123c0.395,0.343,0.915,0.667,1.543,0.96
					c0.649,0.122,2.734,0.183,3.645,0.209c0.724,0.064,2.079,0.064,3.953,0.064c0.848,0.028,1.583,0.044,2.241,0.058
					c0.907,0.02,1.672,0.037,2.309,0.075c3.462,0.114,6.527,0.403,8.837,0.833c0.057,0.002,0.116,0.009,0.153,0.016
					c4.46,0.953,7.079,2.559,8.237,5.052l0.197,0.428c0.884,1.909,1.069,2.307,1.269,3.034c0.433,1.118,0.47,2.302,0.501,3.251
					c0.006,0.226,0.014,0.438,0.027,0.63l0.002,0.193c0,1.414-0.26,2.764-0.793,4.12c-0.014,0.077-0.032,0.151-0.057,0.208
					c-0.465,1.05-1.239,2.246-2.369,3.657c-0.063,0.077-0.133,0.143-0.214,0.194c-1.39,1.735-3.814,3.043-7.215,3.893
					c-2.509,0.609-5.464,0.982-8.789,1.111C28.183,60.828,27.655,60.833,27.128,60.833z M12.241,51.305
					c-0.444,0-0.867,0.112-1.253,0.332c-0.782,0.367-1.25,0.913-1.497,1.705c-0.294,0.877-0.049,1.715,0.209,2.266
					c0.368,0.631,0.955,1.116,1.706,1.368c2.079,0.688,4.652,1.202,8.092,1.618c3.121,0.315,6.127,0.442,9.174,0.375
					c3.185-0.123,6.017-0.479,8.4-1.058c3.112-0.778,5.246-1.928,6.34-3.417c0.069-0.094,0.152-0.172,0.247-0.232
					c0.896-1.14,1.523-2.101,1.906-2.927c0.012-0.059,0.026-0.114,0.044-0.159c0.474-1.171,0.704-2.33,0.704-3.542v-0.131
					c-0.011-0.15-0.019-0.383-0.028-0.632c-0.026-0.854-0.059-1.823-0.408-2.735c-0.183-0.648-0.331-0.973-1.192-2.834l-0.195-0.426
					c-0.888-1.909-3.071-3.182-6.871-4.003c-0.045-0.003-0.091-0.007-0.12-0.012c-1.552-0.293-4.314-0.672-8.648-0.815
					c-0.641-0.039-1.382-0.055-2.26-0.074c-0.666-0.013-1.409-0.03-2.233-0.058c-1.955,0.008-3.279,0.001-4.03-0.068
					c-2.434-0.069-3.508-0.142-4.05-0.274c-0.056-0.014-0.111-0.033-0.163-0.057c-0.831-0.376-1.533-0.812-2.087-1.294
					c-0.718-0.638-1.207-1.227-1.501-1.808c-0.029-0.057-0.051-0.114-0.068-0.173c-0.305-0.562-0.374-1.209-0.19-1.848
					c0.244-1.055,0.826-2.063,1.712-2.949c4.162-4.001,13.081-4.014,26.768-0.105c0.777,0.189,1.516,0.124,2.136-0.271
					c0.817-0.434,1.274-0.992,1.463-1.745c0.256-0.754,0.17-1.452-0.235-2.206c-0.413-0.687-0.986-1.146-1.785-1.411
					c-7.478-2.097-13.897-3.167-19.041-3.167c-6.504,0-11.131,1.714-13.753,5.092c-1.76,2.064-2.742,3.959-3.026,5.828
					c-0.36,1.962-0.116,3.735,0.743,5.449c0.05,0.098,0.081,0.203,0.093,0.31c0.613,1.158,1.514,2.263,2.682,3.293
					c0.074,0.031,0.144,0.071,0.2,0.118c1.116,0.925,2.253,1.634,3.577,2.233c0.542,0.285,2.021,0.731,6.436,0.809
					c0.734,0.065,2.069,0.065,4.091,0.065c0.824,0.029,1.54,0.045,2.18,0.059c0.827,0.019,1.53,0.035,2.113,0.07
					c3.304,0.066,6.642,0.384,7.791,0.74c1.219,0.383,3.3,2.373,3.624,3.679l0.053,0.125c0.226,0.524,0.358,0.962,0.181,2.217
					c-0.168,1.165-0.555,1.542-1.002,1.883c-0.115,0.088-0.198,0.152-0.29,0.268c-0.115,0.142-0.263,0.242-0.429,0.297
					c-0.633,0.452-1.523,0.821-2.926,1.224c-2.206,0.517-4.602,0.806-7.164,0.865c-0.614,0.015-1.228,0.023-1.842,0.023
					c-2.309,0-4.413-0.113-6.435-0.348c-2.701-0.329-5.062-0.792-7.025-1.374C12.833,51.355,12.535,51.305,12.241,51.305z"/>
			</g>
			<g>
				<path fill="#484848" d="M79.925,58.861h-25.67c-1.32,0-2.519-0.515-3.377-1.45c-0.88-0.799-1.397-1.995-1.397-3.308V22.182
					c0-1.317,0.48-2.461,1.428-3.401c0.882-0.875,2.069-1.354,3.347-1.354h25.67c1.275,0,2.413,0.446,3.382,1.326
					c0.944,1.019,1.395,2.151,1.395,3.425c0,1.309-0.459,2.432-1.363,3.336c-0.956,0.945-2.103,1.421-3.414,1.421H59.034v6.446
					h15.115c1.281,0,2.419,0.448,3.384,1.333c0.943,1.022,1.393,2.157,1.393,3.428c0,1.271-0.484,2.455-1.363,3.336
					c-0.952,0.943-2.099,1.42-3.415,1.42H59.034v6.446h20.892c1.271,0,2.408,0.445,3.382,1.325c0.946,1.033,1.395,2.167,1.395,3.436
					c0,1.278-0.484,2.464-1.365,3.339C82.391,58.384,81.242,58.861,79.925,58.861z M54.255,19.275c-0.786,0-1.511,0.291-2.045,0.819
					c-0.6,0.595-0.879,1.259-0.879,2.088v31.921c0,0.788,0.302,1.498,0.852,1.999c0.569,0.615,1.265,0.91,2.073,0.91h25.67
					c0.833,0,1.502-0.281,2.107-0.882c0.528-0.524,0.818-1.245,0.818-2.026c0-0.816-0.269-1.491-0.848-2.125
					c-0.577-0.516-1.256-0.785-2.077-0.785H58.109c-0.512,0-0.926-0.414-0.926-0.925v-8.295c0-0.511,0.414-0.925,0.926-0.925h16.04
					c0.833,0,1.502-0.279,2.108-0.881c0.525-0.528,0.816-1.249,0.816-2.026c0-0.816-0.268-1.489-0.846-2.121
					c-0.573-0.521-1.252-0.79-2.078-0.79h-16.04c-0.512,0-0.926-0.414-0.926-0.925V26.01c0-0.511,0.414-0.925,0.926-0.925h21.816
					c0.83,0,1.5-0.281,2.109-0.885c0.549-0.548,0.816-1.211,0.816-2.023c0-0.806-0.276-1.496-0.846-2.113
					c-0.577-0.519-1.256-0.789-2.079-0.789H54.255z"/>
			</g>
			<g>
				<path fill="#484848" d="M107.847,61.746c-3.322,0-6.482-0.633-9.393-1.878c-2.737-1.104-5.148-2.802-7.152-5.043
					c-0.075-0.042-0.146-0.095-0.207-0.162c-2.054-2.221-3.61-4.902-4.621-7.968c-1.021-3.09-1.453-6.233-1.322-9.61l0.02-0.542
					c0.11-2.946,0.166-4.424,1.189-7.11c1.067-2.801,1.947-4.922,3.579-6.691c0.039-0.059,2.348-3.075,5.714-4.741
					c2.6-1.29,3.795-1.538,5.606-1.915c0.5-0.104,1.053-0.219,1.705-0.373c2.104-0.372,4.136-0.555,6.092-0.555
					c6.203,0,11.885,1.822,16.884,5.414c1.071,0.799,1.747,1.913,1.972,3.226c0.23,1.414-0.009,2.681-0.711,3.775
					c-0.652,1.094-1.659,1.842-2.976,2.194c-0.369,0.077-0.685,0.109-0.992,0.109l0,0c-0.936,0-1.829-0.292-2.653-0.87
					c-4.944-3.631-10.092-4.776-15.456-3.46c-0.053,0.012-0.106,0.021-0.161,0.025l-0.871,0.226
					c-1.792,0.463-2.978,0.768-4.541,1.55c-1.686,0.839-2.704,2.398-2.714,2.414c-0.028,0.045-0.063,0.088-0.099,0.127
					c-0.605,0.655-1.039,1.482-1.325,2.528c-0.44,1.576-0.674,2.78-0.733,5.005c-0.065,2.172,0.199,4.137,0.781,5.844
					c0.557,1.671,1.395,3.12,2.496,4.311c1.1,1.25,2.393,2.168,3.969,2.824c0.079,0.034,0.153,0.078,0.221,0.13
					c1.723,0.684,3.689,1.044,5.701,1.044c5.09,0,8.83-0.998,11.114-2.963c0.903-0.926,1.54-2.11,1.874-3.503h-11.709
					c-1.323,0-2.529-0.556-3.397-1.567c-0.868-0.855-1.374-2.122-1.374-3.51c0-1.409,0.457-2.59,1.398-3.606
					c0.885-0.953,2.082-1.474,3.373-1.474h16.651c1.233,0,2.295,0.419,3.248,1.281c0.983,1.046,1.448,2.089,1.521,3.337
					c0.663,7.401-1.144,13.046-5.373,16.75C121.595,59.906,115.75,61.746,107.847,61.746z M92.232,53.163
					c0.089,0.048,0.17,0.111,0.241,0.192c1.854,2.146,4.106,3.763,6.69,4.804c2.698,1.156,5.613,1.738,8.683,1.738
					c7.394,0,12.799-1.659,16.064-4.928c3.859-3.381,5.411-8.361,4.793-15.265c-0.049-0.832-0.348-1.488-0.972-2.154
					c-0.56-0.502-1.178-0.75-1.952-0.75h-16.651c-0.771,0-1.488,0.314-2.018,0.882c-0.615,0.667-0.904,1.414-0.904,2.349
					c0,0.891,0.313,1.689,0.878,2.25c0.569,0.658,1.258,0.978,2.044,0.978h12.813c0.265,0,0.517,0.113,0.692,0.312
					c0.176,0.198,0.259,0.463,0.226,0.726c-0.275,2.227-1.186,4.184-2.631,5.663c-2.725,2.349-6.756,3.464-12.379,3.464
					c-2.346,0-4.554-0.419-6.564-1.246c-0.085-0.035-0.164-0.082-0.233-0.139c-1.768-0.763-3.231-1.818-4.468-3.224
					c-1.266-1.369-2.236-3.042-2.874-4.958c-0.652-1.911-0.948-4.097-0.877-6.488c0.064-2.4,0.33-3.767,0.799-5.445
					c0.353-1.288,0.925-2.377,1.698-3.234c0.254-0.37,1.466-2.036,3.395-2.996c1.739-0.87,3.068-1.212,4.906-1.686l0.972-0.252
					c0.06-0.016,0.121-0.025,0.184-0.029c5.858-1.409,11.536-0.139,16.872,3.779c0.498,0.348,1.019,0.522,1.575,0.522l0,0
					c0.188,0,0.378-0.02,0.57-0.059c0.801-0.217,1.399-0.656,1.825-1.369c0.47-0.733,0.614-1.541,0.458-2.496
					c-0.143-0.832-0.571-1.538-1.239-2.039c-6.149-4.416-13.442-5.957-21.512-4.54c-0.619,0.147-1.186,0.265-1.7,0.372
					c-1.729,0.36-2.774,0.578-5.161,1.762c-2.967,1.469-5.099,4.243-5.122,4.271c-1.463,1.596-2.241,3.474-3.264,6.163
					c-0.916,2.401-0.961,3.607-1.07,6.521l-0.021,0.543c-0.121,3.153,0.282,6.084,1.231,8.96
					C89.122,48.817,90.467,51.187,92.232,53.163z"/>
			</g>
			<g>
				<path fill="#484848" d="M172.32,60.074L172.32,60.074c-0.969,0-1.908-0.33-2.718-0.953c-1.008-0.718-1.634-1.724-1.885-3.056
					c-0.505-3.376-1.056-6.522-1.646-9.393h-23.409c-0.513,2.517-0.989,5.232-1.419,8.087c-0.236,1.276-0.871,2.305-1.894,3.086
					c-1.151,0.823-2.348,1.116-3.615,0.884c-1.238-0.155-2.292-0.797-3.086-1.9c-0.745-0.963-1.047-2.139-0.876-3.469
					c3.983-26.239,11.606-39.203,22.73-38.536c0.152-0.016,0.415-0.024,0.677-0.024c10.735,0,17.929,13.024,21.996,39.816
					c0.155,1.333-0.142,2.452-0.931,3.55c-0.841,1.086-1.895,1.696-3.153,1.838C172.877,60.047,172.597,60.074,172.32,60.074z
					 M141.91,44.822h24.914c0.438,0,0.814,0.307,0.904,0.734c0.656,3.101,1.265,6.533,1.813,10.2
					c0.158,0.828,0.519,1.417,1.162,1.878c0.67,0.515,1.369,0.687,2.116,0.541c0.819-0.095,1.433-0.456,1.943-1.114
					c0.498-0.695,0.679-1.36,0.581-2.198c-3.939-25.943-10.973-38.811-20.84-38.192c-0.349-0.014-0.583-0.021-0.814-0.021
					c-9.602,0-16.359,12.437-20.084,36.966c-0.104,0.815,0.067,1.513,0.527,2.108c0.507,0.704,1.116,1.082,1.885,1.18
					c0.213,0.036,0.375,0.051,0.534,0.051c0.581,0,1.137-0.194,1.7-0.597c0.631-0.482,1.021-1.113,1.169-1.906
					c0.471-3.138,1.006-6.141,1.584-8.895C141.095,45.129,141.473,44.822,141.91,44.822z M164.904,39.02h-21.086
					c-0.294,0-0.568-0.138-0.742-0.372c-0.176-0.234-0.229-0.537-0.146-0.816c2.955-9.942,6.696-14.96,11.438-15.343
					c0.047-0.003,0.099-0.003,0.149,0c4.623,0.379,8.311,5.397,11.273,15.343c0.083,0.28,0.028,0.582-0.146,0.816
					C165.473,38.882,165.198,39.02,164.904,39.02z M145.068,37.17h18.584c-2.563-8.062-5.737-12.487-9.212-12.831
					C150.81,24.688,147.659,29.002,145.068,37.17z"/>
			</g>
		</g>
		<g>
			
				<linearGradient id="SVGID_8_" gradientUnits="userSpaceOnUse" x1="196.2188" y1="-256.54" x2="237.9565" y2="-214.8022" gradientTransform="matrix(1 0 0 -1 -0.1348 -195.7207)">
				<stop  offset="0" style="stop-color:#999999"/>
				<stop  offset="0.98" style="stop-color:#F3F3F3"/>
			</linearGradient>
			<path fill="url(#SVGID_8_)" d="M236.675,22.332c-0.578-0.964-1.358-1.543-2.328-1.865c-17.665-4.957-29.056-4.249-34.102,2.255
				c-1.813,2.123-2.913,4.183-3.238,6.308c-0.39,2.123-0.13,4.117,0.84,6.05h-0.065c0.714,1.48,1.814,2.829,3.238,4.054h0.064
				c1.163,0.964,2.394,1.738,3.818,2.383c0.969,0.517,3.236,0.838,6.857,0.901c0.716,0.063,2.075,0.063,4.141,0.063
				c1.815,0.066,3.239,0.066,4.272,0.132h0.065c3.236,0.067,6.521,0.379,7.574,0.703c1.047,0.333,2.895,2.241,3.038,3.099
				c0.149,0.853,0,0,0,0c0.193,0.513,0.391,0.648,0.202,1.951c-0.188,1.309-0.589,1.073-1.107,1.718v-0.065
				c-0.585,0.512-1.555,0.895-2.913,1.287c-1.938,0.452-4.271,0.773-6.99,0.836c-2.719,0.069-5.435,0-8.218-0.319
				c-2.65-0.323-4.979-0.774-6.922-1.354c-0.972-0.321-2.005-0.252-2.913,0.258c-0.972,0.455-1.619,1.221-1.94,2.251
				c-0.323,0.964-0.193,1.994,0.255,2.958c0.521,0.901,1.299,1.546,2.269,1.87c2.326,0.77,5.11,1.286,8.349,1.675
				c3.171,0.319,6.273,0.45,9.381,0.385c3.368-0.129,6.28-0.517,8.674-1.096c3.36-0.84,5.695-2.123,6.924-3.798h0.065
				c1.035-1.288,1.81-2.451,2.265-3.48v-0.066c0.52-1.286,0.778-2.572,0.778-3.924v-0.129c-0.064-0.964,0.02-2.374-0.5-3.731
				c-0.195-0.707-0.386-1.096-1.424-3.341c-1.046-2.245-3.452-3.681-7.657-4.578h-0.066c-2.068-0.39-5.046-0.708-8.861-0.836
				c-1.101-0.063-2.588-0.063-4.531-0.133c-1.939,0-3.298,0-4.013-0.065c-2.068-0.058-3.428-0.128-3.946-0.253
				c-0.714-0.327-1.358-0.711-1.879-1.16c-0.58-0.514-1.034-1.03-1.294-1.542v-0.066c-0.261-0.386-0.323-0.836-0.194-1.288
				c0.194-0.836,0.649-1.736,1.488-2.572c3.883-3.736,12.555-3.736,26.077,0.131c1.041,0.253,2.01,0.192,2.913-0.387
				c0.975-0.513,1.619-1.291,1.88-2.32C237.324,24.265,237.195,23.296,236.675,22.332z"/>
			
				<linearGradient id="SVGID_9_" gradientUnits="userSpaceOnUse" x1="244.29" y1="-261.6377" x2="289.4305" y2="-216.4974" gradientTransform="matrix(1 0 0 -1 -0.1348 -195.7207)">
				<stop  offset="0" style="stop-color:#999999"/>
				<stop  offset="0.98" style="stop-color:#F3F3F3"/>
			</linearGradient>
			<path fill="url(#SVGID_9_)" d="M247.19,59.911c0.842-0.646,1.362-1.483,1.554-2.513c0.49-3.229,1.023-6.215,1.594-8.944h25.132
				c0.654,3.095,1.257,6.504,1.813,10.232c0.194,1.03,0.645,1.87,1.553,2.511c0.841,0.643,1.81,0.902,2.848,0.708
				c1.035-0.13,1.875-0.646,2.522-1.479c0.645-0.905,0.906-1.807,0.776-2.898c-4.075-26.844-11.391-39.977-22.002-39.332
				c-10.612-0.645-17.925,12.04-21.938,38.046c-0.193,1.03,0.065,1.994,0.71,2.833c0.65,0.904,1.488,1.42,2.528,1.543
				C245.381,60.812,246.284,60.557,247.19,59.911z M252.264,40.725c2.835-9.525,6.42-14.456,10.72-14.803
				c4.21,0.336,7.739,5.277,10.559,14.803H252.264z"/>
			
				<linearGradient id="SVGID_10_" gradientUnits="userSpaceOnUse" x1="275.2559" y1="-251.4844" x2="317.46" y2="-209.2802" gradientTransform="matrix(1 0 0 -1 -0.1348 -195.7207)">
				<stop  offset="0" style="stop-color:#999999"/>
				<stop  offset="0.98" style="stop-color:#F3F3F3"/>
			</linearGradient>
			<path fill="url(#SVGID_10_)" d="M318.18,21.218c-0.775-0.706-1.684-1.093-2.782-1.093h-33.648c-1.038,0-2.008,0.387-2.722,1.093
				c-0.774,0.774-1.163,1.675-1.163,2.769c0,1.03,0.39,1.994,1.163,2.705c0.714,0.778,1.684,1.161,2.722,1.161h12.939v29.609
				c0,1.033,0.39,1.999,1.164,2.708c0.714,0.774,1.684,1.16,2.719,1.16c1.104,0,2.009-0.387,2.781-1.16
				c0.715-0.709,1.104-1.675,1.104-2.708V27.851h12.94c1.099,0,2.007-0.385,2.781-1.159c0.714-0.711,1.1-1.675,1.1-2.705
				C319.28,22.894,318.894,21.993,318.18,21.218z"/>
			
				<linearGradient id="SVGID_11_" gradientUnits="userSpaceOnUse" x1="319.3594" y1="-255.396" x2="362.0286" y2="-212.7266" gradientTransform="matrix(1 0 0 -1 -0.1348 -195.7207)">
				<stop  offset="0" style="stop-color:#999999"/>
				<stop  offset="0.98" style="stop-color:#F3F3F3"/>
			</linearGradient>
			<path fill="url(#SVGID_11_)" d="M363.52,20.449c-0.775-0.774-1.682-1.158-2.783-1.158c-1.035,0-2.004,0.384-2.717,1.158
				c-0.776,0.704-1.166,1.673-1.166,2.703v19.117c0,1.485-0.258,2.9-0.836,4.188c-0.52,1.349-1.361,2.445-2.334,3.475
				c-1.035,0.964-2.134,1.804-3.491,2.318c-1.293,0.58-2.719,0.834-4.207,0.834h-5.76c-1.487,0-2.847-0.251-4.205-0.834
				c-1.359-0.514-2.456-1.354-3.492-2.318c-0.974-1.03-1.749-2.125-2.333-3.414v-0.061c-0.512-1.288-0.836-2.703-0.836-4.188V23.151
				c0-1.03-0.391-1.999-1.102-2.703c-0.781-0.774-1.68-1.158-2.782-1.158c-1.032,0-2.008,0.384-2.717,1.158
				c-0.78,0.704-1.165,1.673-1.165,2.703v19.117c0,2.516,0.515,4.895,1.425,7.212h0.063c0.906,2.255,2.265,4.183,3.948,5.924
				c1.744,1.673,3.688,3.024,5.949,3.993c2.27,0.964,4.663,1.415,7.252,1.415h5.759c2.588,0,4.983-0.451,7.313-1.415h-0.066
				c2.263-0.969,4.205-2.32,5.957-3.993c1.678-1.741,3.038-3.669,4.012-5.924v0.066c0.97-2.32,1.427-4.699,1.427-7.278V23.151
				C364.622,22.122,364.233,21.152,363.52,20.449z"/>
			
				<linearGradient id="SVGID_12_" gradientUnits="userSpaceOnUse" x1="367.9365" y1="-257.2793" x2="410.9108" y2="-214.3048" gradientTransform="matrix(1 0 0 -1 -0.1348 -195.7207)">
				<stop  offset="0" style="stop-color:#999999"/>
				<stop  offset="0.98" style="stop-color:#F3F3F3"/>
			</linearGradient>
			<path fill="url(#SVGID_12_)" d="M368.735,20.487c-0.686,0.704-1.099,1.534-1.099,2.554v33.25c0,1.02,0.413,1.979,1.168,2.685
				c0.828,0.764,1.861,1.149,2.961,1.149c1.168,0,2.131-0.385,2.89-1.149c0.829-0.706,1.238-1.665,1.238-2.685V26.621
				c8.881-0.508,15.687-0.061,20.435,1.281c3.579,1.085,5.506,2.875,5.709,5.37c0.07,1.981-0.754,3.39-2.476,4.225
				c-2.755,1.151-6.814,1.47-12.176,0.892c-0.964-0.066-1.792,0.065-2.619,0.574c-0.826,0.445-1.377,1.085-1.721,1.92
				c-0.345,0.767-0.345,1.593-0.136,2.427c0.273,0.835,0.828,1.47,1.586,1.98l20.647,14.067c0.894,0.631,1.923,0.892,3.027,0.701
				c1.169-0.13,2.064-0.64,2.751-1.54c0.621-0.83,0.896-1.789,0.761-2.811c-0.209-1.088-0.761-1.916-1.655-2.558l-10.941-7.417
				c1.586-0.379,2.958-0.834,4.131-1.404c4.681-2.18,7.022-5.881,7.095-11.063c0.272-6.134-3.583-10.354-11.422-12.66
				c-6.127-1.916-15.282-2.366-27.462-1.404C370.393,19.27,369.498,19.715,368.735,20.487z"/>
			
				<linearGradient id="SVGID_13_" gradientUnits="userSpaceOnUse" x1="414.8984" y1="-256.9341" x2="456.6366" y2="-215.1959" gradientTransform="matrix(1 0 0 -1 -0.1348 -195.7207)">
				<stop  offset="0" style="stop-color:#999999"/>
				<stop  offset="0.98" style="stop-color:#F3F3F3"/>
			</linearGradient>
			<path fill="url(#SVGID_13_)" d="M416.539,21.152c-0.456,0.646-0.71,1.356-0.71,2.189v33.478c0,1.032,0.385,1.999,1.162,2.703
				c0.711,0.774,1.681,1.159,2.718,1.159c1.101,0,2.005-0.384,2.779-1.159c0.713-0.704,1.103-1.67,1.103-2.703V32.939l25.688,26.521
				c0.585,0.577,1.227,0.966,2.01,1.156c0.774,0.129,1.485,0.063,2.262-0.19c0.716-0.327,1.293-0.774,1.75-1.48
				c0.454-0.645,0.648-1.354,0.648-2.128V23.341c0-1.093-0.39-1.994-1.105-2.768c-0.775-0.704-1.677-1.097-2.78-1.097
				c-1.034,0-2.003,0.394-2.718,1.097c-0.775,0.774-1.164,1.675-1.164,2.768v23.885l-25.623-26.587
				c-0.585-0.512-1.23-0.897-2.01-1.095c-0.773-0.125-1.553-0.063-2.262,0.26C417.572,20.06,416.929,20.512,416.539,21.152z"/>
			<g>
				<path fill="#484848" d="M218.742,60.814c-2.61,0-5.198-0.133-7.915-0.405c-3.6-0.434-6.31-0.979-8.548-1.718
					c-1.186-0.396-2.146-1.188-2.782-2.29c-0.615-1.311-0.718-2.572-0.331-3.721c0.391-1.265,1.234-2.239,2.427-2.798
					c1.014-0.571,2.363-0.71,3.602-0.299c1.838,0.548,4.116,0.993,6.744,1.313c2.522,0.29,5.25,0.382,8.08,0.313
					c2.445-0.057,4.733-0.33,6.802-0.812c0.864-0.251,1.978-0.613,2.51-1.08c0.052-0.044,0.104-0.081,0.159-0.112
					c0.131-0.125,0.248-0.215,0.347-0.289c0.173-0.131,0.221-0.167,0.294-0.683c0.063-0.434,0.076-0.681,0.062-0.853
					c-0.097-0.119-0.165-0.263-0.193-0.425l-0.063-0.359c-0.002-0.01-0.003-0.019-0.004-0.028c-0.12-0.487-1.633-2.118-2.4-2.362
					c-0.85-0.261-3.891-0.59-7.312-0.661c-0.682-0.038-1.38-0.053-2.202-0.072c-0.643-0.015-1.358-0.032-2.148-0.06
					c-2.052,0.005-3.434,0.001-4.19-0.067c-3.68-0.062-6.063-0.392-7.215-1.005c-1.361-0.615-2.628-1.397-3.822-2.364
					c-0.086-0.037-0.165-0.083-0.229-0.137c-1.553-1.334-2.719-2.8-3.47-4.356c-0.049-0.101-0.079-0.208-0.089-0.317
					c-0.924-2.002-1.174-4.069-0.763-6.306c0.337-2.211,1.466-4.427,3.445-6.746c2.988-3.853,8.15-5.824,15.314-5.824
					c5.356,0,12.001,1.104,19.749,3.277c1.278,0.423,2.204,1.166,2.877,2.282c0.679,1.261,0.811,2.485,0.408,3.677
					c-0.3,1.197-1.111,2.206-2.328,2.847c-0.633,0.409-1.412,0.636-2.25,0.636l0,0c-0.422,0-0.853-0.054-1.318-0.168
					c-13.027-3.722-21.615-3.825-25.21-0.365c-0.633,0.63-1.048,1.344-1.228,2.112c-0.066,0.236-0.043,0.403,0.061,0.555
					c0.06,0.091,0.106,0.192,0.131,0.298c0.204,0.34,0.543,0.72,1.008,1.132c0.397,0.345,0.924,0.672,1.558,0.968
					c0.677,0.126,2.84,0.187,3.676,0.211c0.73,0.066,2.095,0.066,3.985,0.066c0.911,0.031,1.694,0.049,2.392,0.064
					c0.854,0.018,1.583,0.035,2.193,0.07c3.508,0.118,6.597,0.407,8.915,0.839c0.056,0.002,0.115,0.009,0.154,0.017
					c4.495,0.959,7.135,2.578,8.307,5.096l0.205,0.444c0.888,1.914,1.071,2.312,1.272,3.043c0.438,1.132,0.476,2.326,0.506,3.284
					c0.009,0.227,0.013,0.439,0.025,0.633c0.003,0.021,0.003,0.171,0.003,0.191c0,1.424-0.263,2.786-0.8,4.157
					c-0.014,0.077-0.032,0.151-0.058,0.21c-0.471,1.063-1.253,2.27-2.391,3.687c-0.062,0.078-0.135,0.143-0.215,0.196
					c-1.399,1.748-3.846,3.067-7.275,3.923c-2.552,0.619-5.532,0.996-8.864,1.124C219.796,60.809,219.27,60.814,218.742,60.814z
					 M203.717,51.207c-0.45,0-0.877,0.112-1.272,0.333c-0.786,0.371-1.257,0.921-1.506,1.715c-0.296,0.885-0.048,1.73,0.211,2.286
					c0.373,0.639,0.964,1.127,1.719,1.38c2.112,0.698,4.708,1.217,8.164,1.634c3.167,0.318,6.193,0.438,9.251,0.378
					c3.191-0.123,6.049-0.482,8.473-1.07c3.139-0.785,5.291-1.944,6.393-3.443c0.069-0.095,0.154-0.174,0.251-0.235
					c0.903-1.144,1.534-2.112,1.92-2.949c0.012-0.06,0.027-0.116,0.046-0.16c0.478-1.186,0.711-2.354,0.711-3.575
					c-0.013-0.28-0.021-0.516-0.028-0.765c-0.027-0.862-0.059-1.838-0.413-2.763c-0.183-0.651-0.331-0.977-1.194-2.839l-0.204-0.442
					c-0.896-1.928-3.1-3.214-6.928-4.041c-0.045-0.003-0.091-0.007-0.119-0.012c-1.559-0.293-4.336-0.674-8.722-0.821
					c-0.613-0.036-1.32-0.051-2.149-0.068c-0.705-0.015-1.499-0.033-2.385-0.064c-1.97,0.001-3.307,0.001-4.063-0.07
					c-2.404-0.066-3.528-0.142-4.082-0.274c-0.058-0.014-0.114-0.034-0.168-0.059c-0.834-0.382-1.54-0.82-2.101-1.303
					c-0.723-0.639-1.216-1.233-1.516-1.826c-0.029-0.056-0.052-0.114-0.067-0.175c-0.309-0.566-0.377-1.217-0.191-1.858
					c0.242-1.052,0.843-2.097,1.725-2.976c4.196-4.039,13.193-4.054,26.994-0.105c0.783,0.19,1.525,0.125,2.152-0.276
					c0.824-0.438,1.285-1.002,1.478-1.763c0.254-0.761,0.169-1.467-0.24-2.227c-0.418-0.692-0.995-1.155-1.802-1.422
					c-7.542-2.116-14.017-3.195-19.203-3.195c-6.558,0-11.224,1.727-13.867,5.136c-1.775,2.08-2.764,3.992-3.053,5.876
					c-0.363,1.977-0.115,3.763,0.749,5.493c0.051,0.099,0.081,0.204,0.094,0.311c0.616,1.166,1.525,2.281,2.706,3.322
					c0.075,0.033,0.145,0.072,0.201,0.119c1.123,0.932,2.27,1.647,3.606,2.252c0.546,0.29,2.037,0.74,6.491,0.819
					c0.738,0.063,2.084,0.063,4.123,0.063c0.816,0.029,1.523,0.044,2.158,0.059c0.852,0.019,1.577,0.036,2.175,0.074
					c1.092,0.021,7.316,0.577,7.853,0.742c1.234,0.393,3.33,2.4,3.658,3.714l0.054,0.127c0.226,0.528,0.36,0.968,0.179,2.233
					c-0.168,1.177-0.56,1.558-1.012,1.903c-0.116,0.087-0.199,0.151-0.291,0.267c-0.113,0.14-0.264,0.243-0.427,0.298
					c-0.636,0.452-1.534,0.824-2.956,1.234c-2.24,0.523-4.656,0.813-7.227,0.873c-0.629,0.017-1.26,0.025-1.892,0.025
					c-2.292,0-4.402-0.115-6.454-0.351c-2.737-0.334-5.119-0.8-7.084-1.385C204.313,51.257,204.013,51.207,203.717,51.207z"/>
			</g>
			<g>
				<path fill="#484848" d="M281.018,62.902c-0.99,0-1.913-0.324-2.748-0.964c-1.018-0.716-1.648-1.731-1.904-3.079
					c-0.516-3.455-1.069-6.628-1.654-9.472h-23.612c-0.513,2.525-0.993,5.263-1.434,8.152c-0.238,1.287-0.878,2.324-1.907,3.113
					c-0.916,0.653-1.819,0.962-2.782,0.962l0,0c-0.274,0-0.56-0.026-0.856-0.077c-1.249-0.146-2.317-0.793-3.124-1.917
					c-0.802-1.042-1.109-2.277-0.869-3.55c4.128-26.772,11.639-39.488,22.909-38.804c0.154-0.016,0.422-0.023,0.684-0.023
					c10.825,0,18.083,13.131,22.185,40.146c0.159,1.335-0.141,2.463-0.939,3.58c-0.845,1.088-1.901,1.705-3.164,1.863
					C281.571,62.876,281.291,62.902,281.018,62.902z M250.338,47.522h25.132c0.44,0,0.82,0.309,0.913,0.739
					c0.648,3.067,1.261,6.529,1.822,10.288c0.159,0.837,0.522,1.43,1.17,1.888c0.682,0.521,1.379,0.693,2.138,0.553
					c0.82-0.105,1.442-0.474,1.956-1.135c0.504-0.707,0.687-1.378,0.586-2.216c-3.973-26.159-11.016-39.134-21.02-38.51
					c-0.35-0.014-0.587-0.021-0.82-0.021c-9.621,0-16.434,12.542-20.25,37.278c-0.146,0.777,0.033,1.48,0.526,2.122
					c0.514,0.715,1.129,1.094,1.897,1.186c0.238,0.04,0.416,0.057,0.587,0.057l0,0c0.577,0,1.093-0.185,1.673-0.598
					c0.636-0.486,1.03-1.122,1.177-1.922c0.483-3.178,1.022-6.204,1.6-8.965C249.516,47.832,249.896,47.522,250.338,47.522z
					 M273.542,41.658h-21.278c-0.295,0-0.571-0.139-0.747-0.374c-0.177-0.237-0.231-0.542-0.146-0.824
					c2.981-10.021,6.756-15.081,11.536-15.467c0.052-0.001,0.099-0.006,0.15,0c4.688,0.374,8.411,5.434,11.38,15.468
					c0.083,0.282,0.028,0.587-0.147,0.823C274.113,41.52,273.835,41.658,273.542,41.658z M253.526,39.793h18.756
					c-2.599-8.243-5.726-12.593-9.299-12.934C259.318,27.209,256.141,31.559,253.526,39.793z"/>
			</g>
			<g>
				<path fill="#484848" d="M298.571,62.263c-1.326,0-2.536-0.519-3.404-1.459c-0.89-0.811-1.411-2.017-1.411-3.341V28.786h-12.007
					c-1.331,0-2.543-0.52-3.409-1.462c-0.889-0.813-1.409-2.018-1.409-3.336c0-1.322,0.484-2.476,1.437-3.429
					c0.894-0.881,2.093-1.365,3.382-1.365h33.648c1.291,0,2.437,0.449,3.411,1.336c0.951,1.027,1.404,2.172,1.401,3.459
					c0,1.287-0.488,2.482-1.373,3.364c-0.948,0.949-2.105,1.431-3.439,1.431h-12.007v28.679c0,1.291-0.49,2.487-1.382,3.37
					C301.061,61.781,299.903,62.263,298.571,62.263z M281.749,21.058c-0.796,0-1.528,0.293-2.065,0.824
					c-0.604,0.604-0.886,1.274-0.886,2.105c0,0.802,0.297,1.499,0.861,2.018c0.57,0.618,1.274,0.916,2.09,0.916h12.939
					c0.517,0,0.934,0.418,0.934,0.933v29.609c0,0.806,0.298,1.504,0.86,2.021c0.574,0.618,1.277,0.916,2.089,0.916
					c0.842,0,1.519-0.282,2.122-0.887c0.536-0.534,0.831-1.26,0.831-2.049V27.851c0-0.515,0.419-0.933,0.933-0.933h12.94
					c0.843,0,1.519-0.282,2.12-0.885c0.535-0.532,0.828-1.258,0.828-2.046c0-0.826-0.271-1.504-0.852-2.136
					c-0.578-0.522-1.264-0.793-2.097-0.793H281.749z"/>
			</g>
			<g>
				<path fill="#484848" d="M345.99,61.744h-5.759c-2.767,0-5.259-0.487-7.616-1.488c-2.279-0.977-4.316-2.343-6.23-4.179
					c-1.841-1.903-3.163-3.857-4.059-5.987c-0.076-0.079-0.137-0.168-0.177-0.269c-1-2.552-1.488-5.022-1.488-7.553V23.151
					c0-1.333,0.523-2.539,1.473-3.395c0.803-0.88,2.012-1.399,3.342-1.399c1.345,0,2.47,0.467,3.438,1.43
					c0.889,0.878,1.378,2.073,1.378,3.364v19.117c0,1.266,0.259,2.559,0.771,3.843c0.021,0.053,0.036,0.107,0.048,0.162
					c0.51,1.084,1.179,2.047,2.097,3.016c1.13,1.05,2.082,1.687,3.143,2.086c1.246,0.534,2.467,0.775,3.876,0.775h5.76
					c1.422,0,2.711-0.254,3.824-0.754c1.101-0.417,2.085-1.074,3.236-2.148c1.034-1.096,1.695-2.073,2.102-3.127
					c0.52-1.161,0.773-2.442,0.773-3.853V23.151c0-1.327,0.523-2.532,1.472-3.393c0.808-0.883,2.017-1.401,3.344-1.401
					c1.334,0,2.491,0.482,3.441,1.433c0.88,0.865,1.374,2.057,1.387,3.353v19.126c0,2.726-0.49,5.225-1.498,7.637
					c-0.032,0.076-0.071,0.146-0.12,0.209c-0.963,2.144-2.3,4.089-4.08,5.937c-1.877,1.793-3.835,3.125-6.005,4.091
					c-0.06,0.047-0.127,0.086-0.201,0.116C351.243,61.258,348.734,61.744,345.99,61.744z M323.788,48.882
					c0.069,0.074,0.124,0.159,0.161,0.251c0.804,2.005,2.031,3.844,3.751,5.624c1.725,1.652,3.58,2.897,5.647,3.783
					c2.119,0.901,4.372,1.34,6.884,1.34h5.759c2.403,0,4.602-0.407,6.714-1.245c0.05-0.037,0.105-0.068,0.167-0.095
					c2.062-0.883,3.92-2.129,5.68-3.81c1.667-1.732,2.919-3.578,3.799-5.619c0.027-0.062,0.06-0.12,0.098-0.174
					c0.842-2.104,1.253-4.289,1.253-6.669V23.151c-0.009-0.788-0.306-1.516-0.835-2.037c-0.61-0.609-1.284-0.892-2.129-0.892
					c-0.813,0-1.514,0.298-2.031,0.859c-0.613,0.561-0.919,1.276-0.919,2.07v19.117c0,1.675-0.309,3.213-0.918,4.57
					c-0.478,1.245-1.257,2.412-2.507,3.733c-0.943,0.881-2.191,1.926-3.838,2.55c-1.307,0.587-2.851,0.895-4.538,0.895h-5.76
					c-1.648,0-3.145-0.297-4.573-0.91c-1.606-0.605-2.855-1.651-3.758-2.492c-1.133-1.193-1.951-2.394-2.549-3.712
					c-0.034-0.077-0.059-0.158-0.071-0.241c-0.563-1.46-0.848-2.937-0.848-4.393V23.151c0-0.788-0.294-1.513-0.826-2.04
					c-0.611-0.607-1.287-0.889-2.125-0.889c-0.802,0-1.523,0.305-2.03,0.856c-0.77,0.7-0.917,1.507-0.917,2.072v19.117
					C322.528,44.477,322.941,46.643,323.788,48.882z"/>
			</g>
			<g>
				<path fill="#484848" d="M371.766,61.056c-1.361,0-2.604-0.482-3.594-1.396c-0.949-0.888-1.467-2.084-1.467-3.371v-33.25
					c0-1.198,0.459-2.276,1.363-3.205c0.943-0.957,2.053-1.481,3.297-1.567c12.286-0.968,21.616-0.487,27.803,1.444
					c8.301,2.442,12.367,7.016,12.076,13.592c-0.078,5.542-2.646,9.544-7.633,11.867c-0.691,0.337-1.464,0.642-2.331,0.92
					l9.271,6.284c1.117,0.802,1.799,1.858,2.048,3.154c0.171,1.301-0.152,2.507-0.931,3.546c-0.85,1.111-1.989,1.751-3.394,1.909
					c-0.236,0.041-0.525,0.066-0.807,0.066c-1.022,0-1.986-0.313-2.863-0.934L383.971,46.06c-0.984-0.663-1.622-1.469-1.948-2.461
					c-0.296-1.177-0.231-2.198,0.172-3.099c0.423-1.025,1.143-1.827,2.129-2.359c0.888-0.546,1.908-0.764,3.125-0.685
					c5.223,0.563,9.133,0.273,11.755-0.821c1.34-0.651,1.959-1.717,1.901-3.331c-0.167-2.042-1.819-3.53-5.048-4.509
					c-4.49-1.271-10.979-1.713-19.23-1.289V56.29c0,1.33-0.557,2.536-1.566,3.396C374.379,60.576,373.185,61.056,371.766,61.056z
					 M382.753,19.643c-3.38,0-7.166,0.163-11.251,0.486c-0.799,0.054-1.482,0.386-2.102,1.014c-0.564,0.58-0.832,1.184-0.832,1.898
					v33.25c0,0.765,0.312,1.477,0.874,2.004c0.635,0.585,1.438,0.897,2.323,0.897c0.915,0,1.644-0.286,2.228-0.873
					c0.653-0.561,0.968-1.244,0.968-2.028V26.621c0-0.495,0.386-0.903,0.88-0.931c8.863-0.507,15.862-0.063,20.74,1.313
					c4.008,1.216,6.15,3.297,6.385,6.192c0.086,2.386-0.951,4.149-2.996,5.139c-2.999,1.256-7.235,1.57-12.684,0.98
					c-0.093-0.005-0.218-0.01-0.341-0.01c-0.66,0-1.182,0.139-1.69,0.451c-0.66,0.358-1.074,0.82-1.346,1.482
					c-0.245,0.543-0.271,1.138-0.094,1.845c0.174,0.526,0.563,1.002,1.201,1.434l20.651,14.069c0.729,0.515,1.515,0.699,2.345,0.553
					c0.96-0.108,1.631-0.484,2.168-1.187c0.481-0.644,0.677-1.36,0.577-2.124c-0.151-0.781-0.559-1.408-1.274-1.922l-10.921-7.403
					c-0.305-0.208-0.46-0.576-0.393-0.938c0.064-0.365,0.34-0.655,0.699-0.741c1.582-0.378,2.871-0.815,3.939-1.335
					c4.358-2.03,6.502-5.376,6.57-10.237c0.254-5.715-3.264-9.55-10.751-11.752C394.684,20.266,389.346,19.643,382.753,19.643z"/>
			</g>
			<g>
				<path fill="#484848" d="M452.047,61.614c-0.299,0-0.601-0.026-0.911-0.077c-0.982-0.236-1.783-0.693-2.512-1.412l-24.101-24.882
					v21.576c0,1.292-0.49,2.487-1.38,3.367c-0.947,0.946-2.104,1.427-3.435,1.427s-2.539-0.519-3.404-1.46
					c-0.888-0.796-1.408-2.002-1.408-3.334V23.341c0-0.996,0.287-1.888,0.881-2.727c0.438-0.726,1.231-1.345,2.196-1.689
					c0.73-0.34,1.736-0.462,2.724-0.304c0.949,0.238,1.73,0.663,2.476,1.316l24.077,24.977V23.341c0-1.321,0.482-2.475,1.437-3.427
					c0.899-0.886,2.097-1.37,3.377-1.37c1.281,0,2.427,0.45,3.406,1.338c0.957,1.029,1.413,2.173,1.413,3.459v33.478
					c0,0.996-0.276,1.893-0.819,2.665c-0.507,0.786-1.189,1.365-2.125,1.793C453.219,61.517,452.633,61.614,452.047,61.614z
					 M423.591,32.007c0.248,0,0.49,0.099,0.671,0.284l25.688,26.521c0.472,0.467,0.974,0.756,1.559,0.898
					c0.414,0.064,1.098,0.044,1.754-0.17c0.507-0.238,0.925-0.589,1.256-1.099c0.346-0.495,0.499-1,0.499-1.622V23.341
					c0-0.823-0.274-1.501-0.857-2.134c-0.586-0.526-1.271-0.798-2.097-0.798c-0.787,0-1.52,0.294-2.063,0.83
					c-0.604,0.602-0.887,1.271-0.887,2.103v23.885c0,0.381-0.229,0.723-0.582,0.865c-0.354,0.141-0.758,0.056-1.021-0.217
					l-25.623-26.587c-0.469-0.407-0.986-0.69-1.567-0.84c-0.111-0.014-0.307-0.031-0.5-0.031c-0.417,0-0.802,0.08-1.144,0.237
					c-0.64,0.232-1.089,0.57-1.34,0.984c-0.403,0.574-0.574,1.099-0.574,1.704v33.478c0,0.81,0.295,1.504,0.854,2.01
					c0.578,0.622,1.279,0.918,2.093,0.918c0.841,0,1.514-0.282,2.121-0.887c0.535-0.529,0.829-1.252,0.829-2.042V32.939
					c0-0.38,0.229-0.723,0.581-0.864C423.354,32.028,423.474,32.007,423.591,32.007z"/>
			</g>
		</g>
	</g>
</g>
</svg>
