<?xml version="1.0" encoding="utf-8"?>
<!-- Generator: Adobe Illustrator 16.0.3, SVG Export Plug-In . SVG Version: 6.00 Build 0)  -->
<!DOCTYPE svg PUBLIC "-//W3C//DTD SVG 1.1//EN" "http://www.w3.org/Graphics/SVG/1.1/DTD/svg11.dtd">
<svg version="1.1" xmlns="http://www.w3.org/2000/svg" xmlns:xlink="http://www.w3.org/1999/xlink" x="0px" y="0px" width="210px"
	 height="200px" viewBox="0 0 210 200" enable-background="new 0 0 210 200" xml:space="preserve">
<g id="Ebene_2_1_">
	
		<linearGradient id="SVGID_1_" gradientUnits="userSpaceOnUse" x1="38.6479" y1="-351.041" x2="70.2686" y2="-319.4207" gradientTransform="matrix(1 0 0 -1 -0.1348 -195.7207)">
		<stop  offset="0" style="stop-color:#999999"/>
		<stop  offset="0.98" style="stop-color:#F3F3F3"/>
	</linearGradient>
	<path fill="url(#SVGID_1_)" d="M69.257,126.199c-0.447-0.744-1.049-1.191-1.797-1.439c-13.635-3.826-22.427-3.277-26.321,1.74
		c-1.4,1.641-2.249,3.23-2.499,4.869c-0.301,1.639-0.101,3.18,0.647,4.672h-0.05c0.551,1.141,1.399,2.184,2.499,3.129h0.05
		c0.899,0.744,1.847,1.342,2.946,1.84c0.748,0.396,2.499,0.645,5.294,0.693c0.551,0.051,1.6,0.051,3.197,0.051
		c1.399,0.051,2.499,0.051,3.297,0.1h0.05c2.499,0.051,5.033,0.293,5.846,0.545c0.809,0.254,2.233,1.728,2.344,2.39
		c0.115,0.655,0,0,0,0c0.15,0.396,0.301,0.502,0.158,1.508c-0.146,1.006-0.455,0.826-0.855,1.324v-0.054
		c-0.451,0.398-1.199,0.695-2.248,0.996c-1.497,0.351-3.297,0.597-5.395,0.646s-4.196,0-6.343-0.248
		c-2.048-0.25-3.845-0.6-5.345-1.045c-0.748-0.246-1.546-0.197-2.248,0.201c-0.748,0.348-1.249,0.943-1.497,1.738
		c-0.25,0.744-0.15,1.539,0.197,2.283c0.401,0.694,1.002,1.19,1.75,1.442c1.797,0.594,3.945,0.989,6.443,1.291
		c2.449,0.248,4.843,0.348,7.242,0.297c2.599-0.101,4.847-0.396,6.694-0.844c2.595-0.648,4.396-1.642,5.344-2.933h0.05
		c0.798-0.996,1.396-1.893,1.747-2.688v-0.051c0.401-0.99,0.601-1.986,0.601-3.027v-0.102c-0.05-0.744,0.014-1.834-0.387-2.879
		c-0.15-0.545-0.297-0.847-1.099-2.582c-0.805-1.73-2.663-2.838-5.91-3.531h-0.05c-1.597-0.301-3.895-0.549-6.841-0.646
		c-0.848-0.052-1.998-0.052-3.497-0.103c-1.497,0-2.545,0-3.097-0.05c-1.597-0.047-2.646-0.099-3.046-0.196
		c-0.551-0.25-1.049-0.547-1.45-0.896c-0.447-0.397-0.798-0.795-0.999-1.19V133.4c-0.201-0.297-0.251-0.646-0.15-0.996
		c0.15-0.646,0.501-1.338,1.149-1.985c2.996-2.881,9.69-2.881,20.129,0.101c0.802,0.197,1.55,0.149,2.248-0.297
		c0.752-0.396,1.25-0.994,1.45-1.789C69.759,127.693,69.659,126.945,69.257,126.199z"/>
	
		<linearGradient id="SVGID_2_" gradientUnits="userSpaceOnUse" x1="4.5542" y1="-389.2583" x2="36.7709" y2="-357.0415" gradientTransform="matrix(1 0 0 -1 -0.1348 -195.7207)">
		<stop  offset="0" style="stop-color:#999999"/>
		<stop  offset="0.98" style="stop-color:#F3F3F3"/>
	</linearGradient>
	<path fill="url(#SVGID_2_)" d="M35.751,163.83c-0.447-0.744-1.049-1.191-1.797-1.439c-13.635-3.826-22.427-3.279-26.322,1.74
		c-1.399,1.639-2.248,3.229-2.499,4.869c-0.301,1.639-0.1,3.178,0.648,4.67h-0.05c0.551,1.143,1.4,2.184,2.499,3.129h0.05
		c0.898,0.744,1.847,1.342,2.946,1.84c0.748,0.398,2.499,0.646,5.294,0.695c0.552,0.049,1.601,0.049,3.197,0.049
		c1.4,0.051,2.499,0.051,3.297,0.102h0.05c2.499,0.052,5.033,0.293,5.846,0.543c0.809,0.257,2.234,1.729,2.345,2.392
		c0.115,0.658,0,0,0,0c0.15,0.396,0.301,0.5,0.157,1.506c-0.146,1.011-0.455,0.828-0.855,1.326V185.2
		c-0.451,0.396-1.2,0.69-2.249,0.993c-1.496,0.349-3.297,0.597-5.395,0.646c-2.098,0.054-4.195,0-6.343-0.246
		c-2.047-0.25-3.844-0.598-5.344-1.045c-0.749-0.248-1.546-0.194-2.248,0.199c-0.749,0.351-1.25,0.942-1.497,1.737
		c-0.25,0.744-0.15,1.539,0.197,2.283c0.401,0.695,1.002,1.193,1.75,1.443c1.797,0.594,3.945,0.992,6.444,1.293
		c2.448,0.246,4.843,0.348,7.242,0.297c2.599-0.1,4.847-0.398,6.694-0.846c2.595-0.648,4.396-1.639,5.345-2.932h0.05
		c0.798-0.994,1.396-1.892,1.747-2.687v-0.051c0.401-0.992,0.602-1.985,0.602-3.029v-0.1c-0.05-0.744,0.014-1.832-0.387-2.88
		c-0.15-0.545-0.297-0.846-1.099-2.579c-0.806-1.732-2.663-2.841-5.91-3.533h-0.05c-1.597-0.301-3.895-0.547-6.841-0.646
		c-0.849-0.049-1.998-0.049-3.498-0.103c-1.496,0-2.545,0-3.096-0.051c-1.597-0.045-2.646-0.099-3.046-0.195
		c-0.552-0.252-1.049-0.549-1.45-0.896c-0.448-0.396-0.798-0.795-0.999-1.19v-0.051c-0.201-0.298-0.25-0.646-0.15-0.994
		c0.15-0.646,0.501-1.34,1.149-1.985c2.996-2.884,9.69-2.884,20.128,0.102c0.802,0.195,1.55,0.148,2.248-0.299
		c0.752-0.396,1.25-0.996,1.45-1.791C36.252,165.322,36.152,164.574,35.751,163.83z"/>
	
		<linearGradient id="SVGID_3_" gradientUnits="userSpaceOnUse" x1="72.2407" y1="-348.3638" x2="103.0264" y2="-317.5779" gradientTransform="matrix(1 0 0 -1 -0.1348 -195.7207)">
		<stop  offset="0" style="stop-color:#999999"/>
		<stop  offset="0.98" style="stop-color:#F3F3F3"/>
	</linearGradient>
	<path fill="url(#SVGID_3_)" d="M98.647,123.68c-0.602-0.547-1.299-0.846-2.148-0.846H76.517c-0.798,0-1.546,0.299-2.098,0.846
		c-0.598,0.594-0.898,1.293-0.898,2.137v24.847c0,0.795,0.301,1.543,0.898,2.088c0.551,0.601,1.299,0.896,2.098,0.896h19.982
		c0.849,0,1.546-0.297,2.148-0.896c0.548-0.545,0.849-1.293,0.849-2.088c0-0.847-0.301-1.539-0.849-2.14
		c-0.602-0.545-1.299-0.846-2.148-0.846H79.517v-6.457h12.486c0.849,0,1.546-0.297,2.148-0.895c0.547-0.549,0.849-1.293,0.849-2.088
		c0-0.844-0.301-1.539-0.849-2.137c-0.602-0.552-1.299-0.849-2.148-0.849H79.517v-6.457h16.982c0.849,0,1.546-0.301,2.148-0.896
		c0.548-0.549,0.849-1.24,0.849-2.088C99.496,124.973,99.195,124.273,98.647,123.68z"/>
	
		<linearGradient id="SVGID_4_" gradientUnits="userSpaceOnUse" x1="101.5142" y1="-351.6255" x2="135.3996" y2="-317.74" gradientTransform="matrix(1 0 0 -1 -0.1348 -195.7207)">
		<stop  offset="0" style="stop-color:#999999"/>
		<stop  offset="0.98" style="stop-color:#F3F3F3"/>
	</linearGradient>
	<path fill="url(#SVGID_4_)" d="M133.141,127.195c-0.147-0.863-0.598-1.563-1.244-2.047c-5.482-3.938-11.492-4.687-17.301-3.666
		c-2.291,0.537-3.033,0.483-5.535,1.725c-2.498,1.236-4.239,3.533-4.239,3.533c-1.195,1.297-1.843,2.879-2.642,4.977
		c-0.799,2.098-0.795,3.139-0.895,5.727c-0.1,2.591,0.247,4.966,0.995,7.228c0.748,2.269,1.894,4.267,3.441,5.938v-0.058
		c1.495,1.729,3.34,3.072,5.483,3.937c2.144,0.918,4.487,1.404,7.028,1.404c5.98,0,10.322-1.353,13.014-4.047
		c3.141-2.75,4.436-6.9,3.938-12.455c-0.05-0.863-0.396-1.515-0.947-2.104c-0.598-0.541-1.244-0.812-2.045-0.812H119.23
		c-0.795,0-1.543,0.32-2.098,0.916c-0.598,0.646-0.896,1.398-0.896,2.318c0,0.863,0.299,1.672,0.896,2.264
		c0.555,0.646,1.303,0.969,2.098,0.969h9.973c-0.2,1.619-0.85,2.972-1.848,3.992c-1.943,1.672-4.982,2.48-9.121,2.48
		c-1.746,0-3.393-0.322-4.836-0.916l-0.051-0.053c-1.298-0.541-2.393-1.297-3.342-2.375c-0.945-1.023-1.646-2.266-2.094-3.611
		c-0.498-1.457-0.698-3.074-0.646-4.801c0.049-1.832,0.25-2.828,0.596-4.066c0.252-0.92,0.648-1.672,1.197-2.266
		c0,0,0.893-1.385,2.396-2.133c1.504-0.752,2.592-0.971,4.437-1.457h0.051c4.39-1.078,8.576-0.162,12.615,2.803
		c0.695,0.486,1.443,0.646,2.238,0.486c0.801-0.215,1.446-0.648,1.896-1.402C133.141,128.924,133.291,128.115,133.141,127.195z"/>
	
		<linearGradient id="SVGID_5_" gradientUnits="userSpaceOnUse" x1="140.5303" y1="-352.938" x2="173.7048" y2="-319.7637" gradientTransform="matrix(1 0 0 -1 -0.1348 -195.7207)">
		<stop  offset="0" style="stop-color:#999999"/>
		<stop  offset="0.98" style="stop-color:#F3F3F3"/>
	</linearGradient>
	<path fill="url(#SVGID_5_)" d="M170.887,153.406c0.5-0.695,0.696-1.389,0.598-2.234c-3.146-20.723-8.789-30.861-16.98-30.363
		c-8.188-0.498-13.886,9.293-16.934,29.367c-0.102,0.795,0.052,1.541,0.553,2.189c0.498,0.693,1.146,1.09,1.945,1.191
		c0.801,0.146,1.549-0.054,2.248-0.552c0.647-0.496,1.051-1.141,1.199-1.938c0.375-2.493,0.787-4.797,1.23-6.907h0.016h19.377
		c0.504,2.389,0.973,5.021,1.402,7.897c0.15,0.795,0.501,1.443,1.199,1.941c0.646,0.498,1.398,0.693,2.197,0.543
		C169.736,154.451,170.385,154.055,170.887,153.406z M146.23,138.203c2.186-7.354,4.951-11.162,8.271-11.43
		c3.22,0.264,5.953,4.076,8.144,11.43H146.23z"/>
	
		<linearGradient id="SVGID_6_" gradientUnits="userSpaceOnUse" x1="41.6592" y1="-393.1929" x2="76.5015" y2="-358.3506" gradientTransform="matrix(1 0 0 -1 -0.1348 -195.7207)">
		<stop  offset="0" style="stop-color:#999999"/>
		<stop  offset="0.98" style="stop-color:#F3F3F3"/>
	</linearGradient>
	<path fill="url(#SVGID_6_)" d="M43.867,192.836c0.651-0.498,1.052-1.145,1.199-1.939c0.379-2.492,0.791-4.797,1.231-6.903h19.398
		c0.505,2.389,0.97,5.021,1.399,7.897c0.15,0.795,0.498,1.443,1.199,1.938c0.648,0.496,1.396,0.696,2.198,0.547
		c0.798-0.101,1.446-0.498,1.947-1.142c0.498-0.698,0.698-1.395,0.598-2.237c-3.146-20.72-8.792-30.856-16.982-30.358
		c-8.19-0.498-13.835,9.293-16.932,29.366c-0.15,0.795,0.05,1.539,0.548,2.187c0.501,0.697,1.149,1.096,1.951,1.19
		C42.471,193.531,43.168,193.334,43.867,192.836z M47.783,178.027c2.188-7.353,4.955-11.158,8.273-11.426
		c3.25,0.26,5.975,4.073,8.151,11.426H47.783z"/>
	
		<linearGradient id="SVGID_7_" gradientUnits="userSpaceOnUse" x1="65.561" y1="-385.3555" x2="98.1364" y2="-352.78" gradientTransform="matrix(1 0 0 -1 -0.1348 -195.7207)">
		<stop  offset="0" style="stop-color:#999999"/>
		<stop  offset="0.98" style="stop-color:#F3F3F3"/>
	</linearGradient>
	<path fill="url(#SVGID_7_)" d="M98.661,162.971c-0.598-0.545-1.299-0.844-2.147-0.844H70.542c-0.802,0-1.55,0.299-2.101,0.844
		c-0.598,0.598-0.898,1.293-0.898,2.137c0,0.795,0.301,1.539,0.898,2.088c0.551,0.601,1.299,0.896,2.101,0.896h9.988v22.854
		c0,0.798,0.3,1.543,0.898,2.091c0.551,0.598,1.299,0.896,2.098,0.896c0.852,0,1.55-0.299,2.147-0.896
		c0.552-0.548,0.853-1.293,0.853-2.091V168.09h9.987c0.848,0,1.55-0.297,2.147-0.895c0.551-0.549,0.849-1.293,0.849-2.088
		C99.51,164.264,99.212,163.568,98.661,162.971z"/>
	
		<linearGradient id="SVGID_8_" gradientUnits="userSpaceOnUse" x1="99.6021" y1="-388.3755" x2="132.5367" y2="-355.4408" gradientTransform="matrix(1 0 0 -1 -0.1348 -195.7207)">
		<stop  offset="0" style="stop-color:#999999"/>
		<stop  offset="0.98" style="stop-color:#F3F3F3"/>
	</linearGradient>
	<path fill="url(#SVGID_8_)" d="M133.656,162.377c-0.598-0.598-1.297-0.895-2.147-0.895c-0.799,0-1.547,0.297-2.098,0.895
		c-0.599,0.543-0.899,1.291-0.899,2.086v14.756c0,1.146-0.199,2.238-0.646,3.232c-0.4,1.041-1.05,1.887-1.802,2.682
		c-0.799,0.744-1.646,1.393-2.694,1.789c-0.998,0.447-2.099,0.645-3.247,0.645h-4.445c-1.148,0-2.197-0.194-3.246-0.645
		c-1.05-0.396-1.896-1.045-2.695-1.789c-0.752-0.795-1.351-1.641-1.801-2.635v-0.047c-0.396-0.994-0.646-2.086-0.646-3.232v-14.756
		c0-0.795-0.302-1.543-0.851-2.086c-0.603-0.598-1.297-0.895-2.146-0.895c-0.798,0-1.55,0.297-2.098,0.895
		c-0.602,0.543-0.898,1.291-0.898,2.086v14.756c0,1.941,0.397,3.777,1.099,5.566h0.05c0.698,1.74,1.747,3.229,3.046,4.572
		c1.347,1.291,2.847,2.334,4.593,3.082c1.751,0.744,3.599,1.092,5.597,1.092h4.444c1.998,0,3.847-0.348,5.646-1.092h-0.051
		c1.746-0.748,3.246-1.791,4.598-3.082c1.295-1.344,2.346-2.832,3.097-4.572v0.051c0.748-1.791,1.101-3.627,1.101-5.617v-14.756
		C134.508,163.668,134.208,162.92,133.656,162.377z"/>
	
		<linearGradient id="SVGID_9_" gradientUnits="userSpaceOnUse" x1="137.0967" y1="-389.8291" x2="170.2666" y2="-356.659" gradientTransform="matrix(1 0 0 -1 -0.1348 -195.7207)">
		<stop  offset="0" style="stop-color:#999999"/>
		<stop  offset="0.98" style="stop-color:#F3F3F3"/>
	</linearGradient>
	<path fill="url(#SVGID_9_)" d="M137.684,162.406c-0.529,0.543-0.849,1.184-0.849,1.971v25.664c0,0.787,0.319,1.527,0.901,2.072
		c0.639,0.59,1.437,0.887,2.285,0.887c0.902,0,1.646-0.297,2.23-0.887c0.641-0.545,0.956-1.285,0.956-2.072v-22.9
		c6.854-0.393,12.108-0.047,15.772,0.988c2.763,0.838,4.25,2.219,4.406,4.145c0.055,1.529-0.582,2.617-1.91,3.261
		c-2.127,0.889-5.26,1.135-9.398,0.688c-0.744-0.051-1.383,0.051-2.021,0.443c-0.638,0.344-1.063,0.838-1.328,1.482
		c-0.266,0.592-0.266,1.229-0.104,1.873c0.211,0.645,0.64,1.135,1.224,1.528l15.937,10.857c0.69,0.487,1.485,0.688,2.338,0.541
		c0.901-0.101,1.593-0.494,2.123-1.188c0.479-0.641,0.69-1.381,0.587-2.17c-0.161-0.84-0.587-1.479-1.277-1.975l-8.445-5.725
		c1.224-0.293,2.283-0.644,3.188-1.084c3.612-1.683,5.42-4.539,5.476-8.539c0.211-4.734-2.766-7.992-8.815-9.771
		c-4.729-1.479-11.796-1.826-21.196-1.084C138.962,161.467,138.271,161.811,137.684,162.406z"/>
	
		<linearGradient id="SVGID_10_" gradientUnits="userSpaceOnUse" x1="173.3457" y1="-389.562" x2="205.5609" y2="-357.3467" gradientTransform="matrix(1 0 0 -1 -0.1348 -195.7207)">
		<stop  offset="0" style="stop-color:#999999"/>
		<stop  offset="0.98" style="stop-color:#F3F3F3"/>
	</linearGradient>
	<path fill="url(#SVGID_10_)" d="M174.58,162.92c-0.352,0.498-0.548,1.047-0.548,1.689v25.84c0,0.797,0.297,1.543,0.897,2.086
		c0.549,0.598,1.297,0.895,2.098,0.895c0.85,0,1.547-0.297,2.146-0.895c0.55-0.543,0.851-1.289,0.851-2.086v-18.432l19.828,20.471
		c0.451,0.445,0.946,0.746,1.551,0.893c0.598,0.1,1.146,0.049,1.746-0.146c0.552-0.252,0.998-0.598,1.351-1.143
		c0.351-0.498,0.501-1.045,0.501-1.643v-25.84c0-0.844-0.301-1.539-0.854-2.137c-0.599-0.543-1.295-0.847-2.146-0.847
		c-0.798,0-1.546,0.304-2.098,0.847c-0.598,0.598-0.898,1.293-0.898,2.137v18.436l-19.777-20.521
		c-0.451-0.396-0.949-0.692-1.551-0.846c-0.598-0.096-1.199-0.049-1.746,0.201C175.378,162.076,174.881,162.426,174.58,162.92z"/>
</g>
<g id="Ebene_1">
	<title>Sega Saturn Logo</title>
	
		<radialGradient id="SVGID_11_" cx="53.5449" cy="190.9961" r="186.5518" gradientTransform="matrix(1 0 0 -1 -0.0449 199.7598)" gradientUnits="userSpaceOnUse">
		<stop  offset="0" style="stop-color:#FFFFFF"/>
		<stop  offset="1" style="stop-color:#000000"/>
	</radialGradient>
	<path fill="url(#SVGID_11_)" d="M42.914,56.914c3.523-2.664,8.559-5.978,14.33-8.867c5.774-3.093,12.271-5.875,19.488-8.659v0.104
		c7.113-2.681,14.638-5.155,22.474-7.32c7.94-2.27,15.772-4.124,23.608-5.463c7.938-1.546,15.564-2.477,22.785-2.889
		c7.424-0.619,15.885-0.042,18.018,0.104s5.178-0.308,6.517-1.339c1.343-1.134,2.062-2.477,2.269-4.124
		c0.207-1.754-0.309-3.3-1.338-4.539c-1.135-1.339-3.607-2.162-5.258-2.266c-6.601-0.723-12.888-0.723-21.031-0.208
		c-7.633,0.516-15.674,1.546-24.229,3.093c-8.146,1.443-16.395,3.404-24.642,5.67c-8.248,2.27-16.08,4.847-23.504,7.628
		c-7.732,2.993-16.088,6.778-20.827,9.178c-4.739,2.4-10.844,5.846-16.004,10.102c-5.16,4.256-7.345,6.29-10.801,11.648
		s-4.25,11.431-2.121,15.07c5.478,9.365,25.01,6.296,32.434,4.853c5.978-1.235,13.298-2.914,22.062-5.386
		c6.39-1.958,14.537-4.535,24.432-7.836l24.537-8.04c8.969-2.989,16.287-5.259,21.96-6.805c6.907-2.062,19.178-4.985,25.491-3.841
		c-0.315,3.957-5.229,14.552-27.146,24.356c-8.146,3.712-17.215,7.116-27.217,10.413H119.1c-7.729,2.474-15.667,4.64-23.813,6.598
		c-7.939,1.858-15.364,3.197-22.477,4.332l0.104-0.104c-11.187,1.561-27.276,0.172-30.454,0.588
		c-6.292,0.401-7.823,4.363-7.89,6.083c-0.067,1.712-0.152,5.733,8.228,6.253c8.38,0.52,16.205,1.215,31.87-0.656
		c9.722-1.433,15.257-2.576,23.401-4.432h0.104c8.456-2.062,16.703-4.332,24.744-6.909c10.517-3.297,20.104-7.009,28.658-10.925
		c19.233-8.627,26.157-16.514,30.666-23.292c4.509-6.778,6.151-16.094,1.476-20.469c-5.357-5.012-15.549-4.117-19.05-3.784
		c-5.002,0.477-12.472,1.669-19.996,3.832c-5.772,1.65-13.198,3.919-22.478,7.013l-24.535,8.04
		c-9.794,3.197-17.734,5.774-24.02,7.628c-8.352,2.478-15.26,4.332-21.035,5.466C39.42,69.848,35.181,68.15,35.181,68.15
		C35,64.375,39.391,59.578,42.914,56.914z"/>
	<path fill="#333333" d="M56.123,106.589c-4.398,0-8.139-0.237-11.755-0.468l-1.614-0.102c-9.154-0.567-8.965-5.41-8.903-7
		c0.084-2.159,1.983-6.354,8.563-6.773c0.41-0.055,1.1-0.083,2.123-0.083c1.301,0,3.019,0.045,5.01,0.098
		c2.667,0.07,5.984,0.158,9.377,0.158c5.704,0,10.247-0.247,13.89-0.755c0.117-0.016,0.231-0.003,0.337,0.033
		c8.284-1.33,15.277-2.683,21.972-4.25c8.621-2.072,16.395-4.226,23.757-6.583c0.067-0.021,0.138-0.033,0.207-0.034
		c10.552-3.481,19.396-6.867,27.034-10.348c19.393-8.675,25.777-18.283,26.639-23.096c-0.746-0.094-1.594-0.142-2.523-0.142
		c-6.143,0-15.368,2.101-21.957,4.068c-5.611,1.529-12.986,3.815-21.938,6.798L101.8,66.152c-8.539,2.849-16.765,5.487-24.445,7.841
		c-7.42,2.093-14.653,3.858-22.127,5.402c-5.704,1.109-10.877,1.67-15.384,1.67c-9.158,0-15.153-2.31-17.817-6.865
		c-2.295-3.923-1.437-10.282,2.138-15.823c3.505-5.435,5.787-7.556,10.948-11.813c4.203-3.467,9.632-6.895,16.137-10.189
		c4.52-2.289,12.985-6.146,20.892-9.207c7.77-2.91,15.698-5.483,23.573-7.651c9.016-2.478,17.098-4.337,24.707-5.685
		c8.674-1.568,16.626-2.583,24.307-3.102c3.887-0.246,7.246-0.365,10.271-0.365c3.788,0,7.35,0.188,10.887,0.576
		c1.823,0.114,4.475,1.036,5.729,2.516c1.207,1.453,1.726,3.211,1.504,5.089c-0.232,1.855-1.057,3.355-2.52,4.59
		c-1.584,1.221-4.847,1.658-7.029,1.507c-1.385-0.095-5.592-0.383-10.432-0.383c-2.748,0-5.265,0.094-7.479,0.278
		c-7.449,0.426-15.083,1.394-22.707,2.878c-7.516,1.285-15.213,3.066-23.548,5.449c-7.573,2.092-15.113,4.548-22.418,7.302
		c-0.118,0.044-0.245,0.058-0.366,0.038c-7.889,3.054-13.946,5.752-19.036,8.478c-6.67,3.34-11.781,6.951-14.236,8.807
		c-3.511,2.655-7.212,6.863-7.441,10.116c0.567,0.125,1.689,0.299,3.514,0.299c3.475,0,7.856-0.604,13.021-1.792
		c5.342-1.049,11.809-2.73,20.992-5.455c6.249-1.843,14.224-4.431,24.001-7.623l24.535-8.039c8.205-2.736,15.777-5.099,22.504-7.021
		c9.102-2.616,17.105-3.568,20.125-3.856c0.971-0.092,2.986-0.284,5.303-0.284c6.474,0,11.287,1.433,14.309,4.259
		c5.148,4.818,3.139,14.619-1.368,21.394c-4.756,7.149-11.8,14.951-30.971,23.55c-8.944,4.095-18.614,7.782-28.737,10.956
		c-7.697,2.467-15.809,4.731-24.79,6.921c-0.056,0.015-0.113,0.021-0.17,0.021H98.15c-8.423,1.92-13.816,3.017-23.377,4.424
		C67.729,106.198,61.809,106.589,56.123,106.589z M44.537,93.603c-0.946,0-1.595,0.025-1.984,0.076
		c-5.603,0.359-7.197,3.687-7.264,5.397c-0.063,1.631-0.196,5.025,7.553,5.506l1.616,0.104c3.594,0.229,7.311,0.465,11.664,0.465
		c5.628,0,11.494-0.389,18.46-1.221c9.524-1.402,14.896-2.498,23.326-4.419c0.053-0.012,0.106-0.018,0.16-0.018h0.018
		c8.915-2.175,16.965-4.424,24.611-6.874c10.07-3.158,19.684-6.822,28.578-10.895c18.844-8.452,25.729-16.066,30.365-23.036
		c4.237-6.37,5.988-15.422,1.584-19.544c-2.746-2.568-7.229-3.871-13.324-3.871c-2.248,0-4.219,0.188-5.166,0.278
		c-2.979,0.284-10.879,1.224-19.864,3.807c-6.707,1.917-14.261,4.273-22.449,7.004l-24.539,8.041
		c-9.789,3.196-17.774,5.787-24.041,7.635c-9.227,2.738-15.735,4.429-21.1,5.482c-5.248,1.208-9.738,1.824-13.321,1.824
		c-3.107,0-4.373-0.471-4.507-0.525c-0.261-0.105-0.438-0.353-0.451-0.634c-0.211-4.404,4.94-9.518,8.018-11.845
		c2.494-1.886,7.686-5.555,14.442-8.937c5.205-2.788,11.423-5.551,19.551-8.687c0.123-0.047,0.254-0.059,0.378-0.038
		c7.229-2.712,14.683-5.134,22.163-7.2c8.38-2.396,16.126-4.188,23.679-5.479c7.672-1.494,15.369-2.47,22.865-2.898
		c2.233-0.187,4.789-0.282,7.578-0.282c4.889,0,9.135,0.291,10.528,0.386c0.245,0.017,0.502,0.025,0.769,0.025
		c2.133,0,4.346-0.511,5.26-1.216c1.164-0.984,1.807-2.148,1.994-3.644c0.174-1.471-0.232-2.853-1.178-3.989
		c-0.943-1.113-3.201-1.91-4.748-2.007c-6.389-0.699-12.219-0.761-20.941-0.208c-7.623,0.515-15.522,1.523-24.146,3.083
		c-7.567,1.34-15.606,3.19-24.579,5.656c-7.833,2.156-15.72,4.715-23.442,7.608c-7.854,3.04-16.265,6.873-20.754,9.146
		c-6.41,3.246-11.75,6.616-15.872,10.016c-5.14,4.24-7.243,6.195-10.654,11.482c-3.236,5.017-4.101,10.903-2.104,14.316
		c2.388,4.082,7.964,6.152,16.574,6.152c4.415,0,9.495-0.552,15.101-1.642c7.432-1.535,14.632-3.292,22.004-5.372
		c7.654-2.346,15.868-4.98,24.399-7.827l24.541-8.041c8.973-2.99,16.375-5.284,21.995-6.815c3.228-0.963,14.429-4.123,22.353-4.123
		c1.311,0,2.474,0.09,3.457,0.269c0.363,0.066,0.619,0.397,0.59,0.766c-0.106,1.34-1.788,13.422-27.568,24.956
		c-7.709,3.513-16.636,6.929-27.285,10.439c-0.07,0.023-0.143,0.036-0.217,0.036c-7.365,2.355-15.138,4.507-23.756,6.579
		c-6.855,1.604-14.014,2.984-22.532,4.343c-0.126,0.022-0.256,0.006-0.373-0.039c-3.628,0.475-8.093,0.707-13.626,0.707
		c-3.412,0-6.741-0.088-9.416-0.159C47.533,93.648,45.828,93.603,44.537,93.603z"/>
	<g id="Ebene_2">
		<g>
			
				<radialGradient id="SVGID_12_" cx="113.6729" cy="826.5908" r="47.6113" gradientTransform="matrix(1 0 0 1 -0.1797 -790.9609)" gradientUnits="userSpaceOnUse">
				<stop  offset="0.04" style="stop-color:#FFFFFF"/>
				<stop  offset="0.04" style="stop-color:#FFFFFF"/>
				<stop  offset="0.23" style="stop-color:#6E93E1"/>
				<stop  offset="1" style="stop-color:#363499"/>
			</radialGradient>
			<circle fill="url(#SVGID_12_)" cx="104.906" cy="58.155" r="52.579"/>
			<path fill="#33317A" d="M104.906,112.175c-29.786,0-54.019-24.233-54.019-54.02c0-29.787,24.233-54.02,54.019-54.02
				s54.019,24.233,54.019,54.02C158.925,87.941,134.691,112.175,104.906,112.175z M104.906,7.016
				c-28.198,0-51.139,22.941-51.139,51.139c0,28.198,22.941,51.139,51.139,51.139s51.138-22.94,51.138-51.139
				C156.044,29.956,133.104,7.016,104.906,7.016z"/>
		</g>
	</g>
	<g id="Ebene_4">
		
			<radialGradient id="SVGID_13_" cx="-29.7881" cy="587.4063" r="412.4799" gradientTransform="matrix(1 0 0 1 -0.0898 -395.4805)" gradientUnits="userSpaceOnUse">
			<stop  offset="0" style="stop-color:#FFFFFF"/>
			<stop  offset="1" style="stop-color:#000000"/>
		</radialGradient>
		<path fill="url(#SVGID_13_)" d="M55.082,78.69c5.978-1.235,13.298-2.914,22.062-5.386c6.39-1.958,24.432-7.836,24.432-7.836
			l24.537-8.04c8.969-2.989,16.287-5.259,21.96-6.805c0,0,8.483-2.234,9.926-2.492c-0.515-5.353-3.589-11.787-3.589-11.787
			c-3.098,0.599-6.413,1.365-9.739,2.321c-5.772,1.65-13.198,3.919-22.478,7.013l-24.535,8.04
			c-9.794,3.197-17.734,5.774-24.02,7.628c-12.947,4.036-21.755,5.629-22.104,5.706C51.534,67.053,52.702,74.722,55.082,78.69z"/>
	</g>
	<g id="Ebene_3">
		<g>
			<path fill="#333333" d="M39.426,69.342c-3.138,0-4.417-0.485-4.513-0.524c-0.369-0.148-0.549-0.567-0.401-0.936
				c0.148-0.37,0.568-0.549,0.936-0.401c0.036,0.012,4.316,1.547,16.993-1.37c5.342-1.049,11.809-2.73,20.992-5.455
				c6.249-1.843,14.224-4.431,24.001-7.623l24.534-8.039c8.206-2.736,15.778-5.099,22.505-7.021
				c9.102-2.616,17.105-3.568,20.125-3.856c0.391-0.031,0.748,0.252,0.785,0.648c0.038,0.396-0.253,0.748-0.648,0.785
				c-2.979,0.284-10.879,1.224-19.864,3.807c-6.707,1.917-14.261,4.273-22.449,7.004l-24.539,8.041
				c-9.789,3.196-17.774,5.787-24.041,7.635c-9.227,2.738-15.735,4.429-21.1,5.482C46.505,68.956,42.226,69.342,39.426,69.342z"/>
		</g>
		<g>
			<path fill="#333333" d="M39.918,81.042c-7.537,0-14.805-1.564-17.892-6.842c-0.201-0.343-0.085-0.785,0.258-0.985
				c0.342-0.201,0.784-0.085,0.985,0.258c4.874,8.334,21.937,6.402,31.675,4.51c7.432-1.536,14.632-3.293,22.004-5.372
				c6.295-1.929,24.224-7.77,24.404-7.828l24.537-8.04c8.973-2.99,16.373-5.284,21.994-6.815c0.028-0.008,3.463-0.971,9.95-2.498
				c6.103-1.437,11.112-1.967,14.485-1.534c0.396,0.051,0.674,0.412,0.623,0.806s-0.41,0.673-0.807,0.623
				c-2.234-0.289-6.472-0.259-13.973,1.506c-6.453,1.519-9.862,2.475-9.896,2.484c-5.602,1.526-12.977,3.812-21.928,6.795
				L101.8,66.152c-0.182,0.059-18.122,5.903-24.445,7.841c-7.42,2.093-14.653,3.858-22.127,5.402
				C50.977,80.221,45.376,81.042,39.918,81.042z"/>
		</g>
	</g>
	<g>
		<path fill="#484848" d="M55.403,155.901c-2.021,0-4.016-0.103-6.099-0.313c-2.789-0.337-4.881-0.758-6.596-1.324
			c-0.917-0.309-1.659-0.919-2.147-1.766c-0.475-1.013-0.554-1.986-0.256-2.873c0.306-0.981,0.957-1.734,1.876-2.162
			c0.767-0.44,1.812-0.551,2.776-0.231c1.431,0.424,3.19,0.768,5.208,1.014c1.919,0.222,4.031,0.294,6.238,0.243
			c1.896-0.045,3.662-0.256,5.248-0.628c1.005-0.289,1.612-0.549,1.936-0.835c0.041-0.036,0.085-0.066,0.131-0.092
			c0.098-0.093,0.187-0.16,0.259-0.216c0.135-0.103,0.171-0.13,0.229-0.526c0.048-0.336,0.058-0.526,0.045-0.66
			c-0.017-0.021-0.032-0.042-0.046-0.064l0,0c-0.001,0-0.001-0.002-0.001-0.002c0,0,0-0.001-0.001-0.001c0,0,0,0,0-0.001
			c0,0-0.001-0.001-0.001-0.001c0-0.001,0-0.001,0-0.001l0-0.001c0,0,0,0,0-0.001c0,0,0,0,0-0.001c0,0,0,0,0,0
			c-0.047-0.076-0.081-0.162-0.097-0.255l-0.049-0.275c-0.001-0.008-0.002-0.016-0.004-0.022c-0.091-0.377-1.257-1.635-1.849-1.821
			c-0.658-0.204-3.005-0.458-5.645-0.512c-0.516-0.027-1.046-0.039-1.667-0.054c-0.504-0.011-1.068-0.023-1.691-0.046
			c-1.581,0.004-2.653,0.001-3.237-0.054c-2.836-0.048-4.674-0.302-5.565-0.774c-1.049-0.474-2.027-1.077-2.95-1.824
			c-0.067-0.027-0.129-0.063-0.178-0.105c-1.196-1.027-2.097-2.159-2.678-3.361c-0.038-0.079-0.061-0.163-0.068-0.247
			c-0.713-1.545-0.906-3.14-0.588-4.868c0.26-1.706,1.131-3.416,2.659-5.207c2.307-2.974,6.292-4.494,11.822-4.494
			c4.134,0,9.262,0.851,15.241,2.528c0.986,0.326,1.702,0.899,2.22,1.762c0.527,0.977,0.626,1.922,0.312,2.839
			c-0.229,0.92-0.855,1.698-1.796,2.193c-0.488,0.314-1.089,0.49-1.734,0.49l0,0c-0.323,0-0.666-0.045-1.021-0.132
			c-10.054-2.871-16.683-2.95-19.458-0.281c-0.487,0.487-0.81,1.039-0.947,1.63c-0.052,0.184-0.034,0.313,0.045,0.429
			c0.048,0.072,0.083,0.151,0.104,0.234c0.156,0.26,0.417,0.554,0.777,0.874c0.307,0.267,0.712,0.519,1.201,0.747
			c0.505,0.095,2.128,0.143,2.837,0.163c0.563,0.05,1.618,0.05,3.076,0.05c0.66,0.021,1.232,0.034,1.745,0.045
			c0.706,0.016,1.302,0.028,1.796,0.059c2.696,0.089,5.08,0.313,6.878,0.648c0.043,0.002,0.09,0.007,0.119,0.013
			c3.472,0.741,5.51,1.991,6.412,3.932l0.154,0.333c0.688,1.486,0.831,1.796,0.987,2.361c0.337,0.87,0.367,1.792,0.391,2.531
			c0.005,0.176,0.01,0.341,0.021,0.49l0.002,0.15c0,1.101-0.202,2.151-0.618,3.207c-0.01,0.06-0.025,0.117-0.045,0.162
			c-0.361,0.817-0.964,1.748-1.844,2.847c-0.048,0.06-0.104,0.11-0.166,0.151c-1.081,1.35-2.969,2.368-5.616,3.029
			c-1.953,0.475-4.253,0.765-6.84,0.865C56.224,155.897,55.813,155.901,55.403,155.901z M43.814,148.485
			c-0.346,0-0.674,0.087-0.975,0.258c-0.609,0.286-0.973,0.711-1.165,1.327c-0.229,0.683-0.038,1.335,0.162,1.764
			c0.287,0.491,0.743,0.868,1.328,1.064c1.618,0.535,3.621,0.936,6.299,1.259c2.429,0.245,4.769,0.344,7.141,0.292
			c2.479-0.096,4.684-0.373,6.539-0.823c2.421-0.605,4.083-1.5,4.934-2.659c0.053-0.073,0.119-0.134,0.192-0.181
			c0.698-0.887,1.186-1.635,1.483-2.278c0.009-0.046,0.02-0.089,0.034-0.124c0.369-0.911,0.548-1.813,0.548-2.757v-0.102
			c-0.009-0.117-0.015-0.299-0.021-0.492c-0.021-0.665-0.045-1.419-0.318-2.129c-0.143-0.505-0.257-0.758-0.927-2.206l-0.153-0.332
			c-0.691-1.485-2.391-2.477-5.347-3.116c-0.035-0.002-0.07-0.005-0.093-0.009c-1.208-0.229-3.358-0.523-6.731-0.635
			c-0.499-0.03-1.076-0.043-1.759-0.058c-0.519-0.011-1.097-0.023-1.738-0.045c-1.521,0.006-2.553,0.001-3.137-0.053
			c-1.894-0.054-2.73-0.11-3.152-0.214c-0.043-0.011-0.086-0.025-0.126-0.044c-0.646-0.293-1.193-0.632-1.625-1.008
			c-0.558-0.496-0.938-0.955-1.168-1.407c-0.022-0.044-0.039-0.089-0.052-0.135c-0.238-0.438-0.291-0.941-0.148-1.438
			c0.19-0.821,0.642-1.606,1.333-2.296c3.239-3.114,10.182-3.124,20.835-0.082c0.604,0.147,1.18,0.097,1.663-0.211
			c0.636-0.338,0.992-0.772,1.139-1.358c0.199-0.587,0.133-1.13-0.184-1.717c-0.321-0.534-0.768-0.892-1.39-1.098
			c-5.82-1.633-10.817-2.466-14.82-2.466c-5.062,0-8.664,1.334-10.705,3.964c-1.371,1.606-2.134,3.082-2.356,4.536
			c-0.28,1.527-0.09,2.907,0.579,4.241c0.039,0.076,0.063,0.158,0.072,0.241c0.477,0.901,1.178,1.762,2.087,2.563
			c0.058,0.024,0.112,0.056,0.155,0.092c0.869,0.72,1.754,1.271,2.784,1.738c0.421,0.222,1.573,0.569,5.009,0.63
			c0.572,0.051,1.611,0.051,3.185,0.051c0.642,0.022,1.199,0.035,1.697,0.046c0.643,0.015,1.191,0.027,1.644,0.055
			c2.572,0.051,5.171,0.299,6.065,0.576c0.948,0.298,2.567,1.847,2.82,2.863l0.041,0.098c0.175,0.408,0.279,0.749,0.141,1.726
			c-0.131,0.906-0.431,1.2-0.78,1.466c-0.09,0.068-0.154,0.118-0.226,0.208c-0.089,0.11-0.205,0.188-0.333,0.231
			c-0.493,0.352-1.185,0.639-2.278,0.952c-1.717,0.402-3.582,0.627-5.576,0.674c-0.478,0.012-0.956,0.018-1.434,0.018
			c-1.797,0-3.435-0.088-5.009-0.271c-2.102-0.256-3.939-0.616-5.468-1.069C44.276,148.524,44.043,148.485,43.814,148.485z"/>
	</g>
	<g>
		<path fill="#484848" d="M21.909,193.533c-2.015,0-4.013-0.103-6.109-0.313c-2.778-0.335-4.871-0.756-6.598-1.326
			c-0.916-0.306-1.657-0.917-2.147-1.768c-0.475-1.012-0.554-1.985-0.256-2.872c0.303-0.977,0.953-1.729,1.875-2.16
			c0.782-0.44,1.823-0.548,2.78-0.23c1.419,0.423,3.177,0.767,5.205,1.014c1.947,0.224,4.053,0.295,6.237,0.241
			c1.888-0.044,3.653-0.255,5.25-0.627c0.667-0.193,1.526-0.473,1.938-0.833c0.038-0.034,0.079-0.063,0.122-0.087
			c0.101-0.096,0.192-0.166,0.268-0.223c0.134-0.102,0.17-0.129,0.228-0.527c0.048-0.335,0.059-0.525,0.046-0.658
			c-0.075-0.092-0.127-0.203-0.149-0.328l-0.048-0.277c-0.001-0.008-0.002-0.015-0.004-0.021c-0.091-0.376-1.259-1.635-1.852-1.823
			c-0.655-0.201-3.003-0.455-5.644-0.51c-0.525-0.029-1.065-0.041-1.7-0.056c-0.496-0.012-1.049-0.024-1.658-0.046
			c-1.583,0.004-2.65,0.001-3.234-0.052c-2.84-0.048-4.679-0.303-5.569-0.776c-1.05-0.475-2.028-1.078-2.95-1.824
			c-0.066-0.028-0.128-0.063-0.178-0.105c-1.197-1.03-2.099-2.161-2.678-3.362c-0.038-0.078-0.061-0.161-0.068-0.245
			c-0.714-1.545-0.907-3.141-0.589-4.867c0.261-1.707,1.132-3.417,2.66-5.207c2.307-2.974,6.291-4.495,11.821-4.495
			c4.134,0,9.262,0.852,15.243,2.529c0.986,0.326,1.702,0.899,2.22,1.762c0.525,0.973,0.625,1.918,0.315,2.838
			c-0.23,0.924-0.857,1.702-1.797,2.197c-0.487,0.315-1.089,0.491-1.736,0.491l0,0c-0.326,0-0.658-0.042-1.017-0.13
			c-10.056-2.873-16.684-2.952-19.458-0.282c-0.488,0.486-0.81,1.037-0.947,1.63c-0.051,0.183-0.033,0.312,0.046,0.429
			c0.047,0.07,0.082,0.148,0.102,0.23c0.157,0.263,0.418,0.556,0.777,0.874c0.307,0.266,0.713,0.519,1.202,0.747
			c0.523,0.098,2.192,0.145,2.836,0.163c0.564,0.051,1.618,0.051,3.076,0.051c0.703,0.024,1.308,0.038,1.846,0.05
			c0.661,0.014,1.222,0.026,1.693,0.054c2.708,0.091,5.091,0.314,6.881,0.647c0.043,0.002,0.089,0.007,0.119,0.013
			c3.47,0.74,5.508,1.99,6.413,3.934l0.159,0.343c0.684,1.478,0.827,1.784,0.982,2.349c0.338,0.874,0.367,1.795,0.39,2.535
			c0.006,0.175,0.011,0.339,0.021,0.488c0.001,0.016,0.002,0.132,0.002,0.147c0,1.1-0.203,2.15-0.618,3.209
			c-0.01,0.06-0.025,0.117-0.045,0.162c-0.362,0.82-0.966,1.752-1.844,2.846c-0.048,0.06-0.104,0.11-0.166,0.151
			c-1.08,1.349-2.968,2.367-5.616,3.028c-1.97,0.478-4.27,0.769-6.842,0.867C22.722,193.529,22.316,193.533,21.909,193.533z
			 M10.312,186.117c-0.346,0-0.676,0.087-0.981,0.258c-0.607,0.286-0.971,0.711-1.162,1.323c-0.229,0.684-0.038,1.336,0.162,1.765
			c0.288,0.493,0.743,0.87,1.326,1.065c1.631,0.539,3.635,0.939,6.302,1.261c2.445,0.246,4.78,0.339,7.141,0.292
			c2.464-0.095,4.668-0.372,6.54-0.826c2.422-0.605,4.084-1.5,4.934-2.657c0.054-0.073,0.12-0.135,0.194-0.182
			c0.697-0.883,1.184-1.63,1.482-2.276c0.009-0.046,0.02-0.089,0.034-0.123c0.37-0.915,0.549-1.817,0.549-2.76
			c-0.009-0.216-0.015-0.397-0.021-0.59c-0.021-0.665-0.045-1.419-0.318-2.133c-0.142-0.503-0.256-0.754-0.922-2.191l-0.158-0.342
			c-0.692-1.488-2.393-2.48-5.347-3.119c-0.035-0.002-0.07-0.005-0.093-0.009c-1.202-0.227-3.346-0.521-6.731-0.634
			c-0.474-0.027-1.019-0.039-1.659-0.053c-0.544-0.012-1.156-0.025-1.841-0.05c-1.521,0.001-2.552,0.001-3.136-0.054
			c-1.855-0.051-2.722-0.109-3.149-0.212c-0.044-0.011-0.088-0.026-0.129-0.045c-0.645-0.295-1.19-0.633-1.622-1.006
			c-0.557-0.493-0.938-0.952-1.17-1.409c-0.022-0.043-0.04-0.088-0.052-0.135c-0.237-0.437-0.291-0.939-0.148-1.435
			c0.188-0.812,0.651-1.618,1.333-2.297c3.237-3.117,10.182-3.129,20.834-0.081c0.605,0.146,1.178,0.097,1.661-0.213
			c0.637-0.338,0.993-0.773,1.141-1.36c0.196-0.588,0.13-1.133-0.186-1.719c-0.321-0.534-0.768-0.892-1.39-1.098
			c-5.822-1.633-10.82-2.466-14.822-2.466c-5.062,0-8.664,1.333-10.705,3.964c-1.37,1.605-2.133,3.081-2.356,4.536
			c-0.28,1.525-0.089,2.904,0.58,4.239c0.039,0.076,0.063,0.157,0.072,0.24c0.476,0.899,1.177,1.761,2.088,2.564
			c0.058,0.025,0.111,0.056,0.155,0.092c0.867,0.719,1.752,1.271,2.784,1.738c0.421,0.224,1.572,0.571,5.009,0.632
			c0.571,0.049,1.61,0.049,3.184,0.049c0.628,0.022,1.175,0.034,1.665,0.046c0.658,0.015,1.217,0.027,1.678,0.057
			c0.842,0.017,1.687,0.055,2.474,0.107c0.084-0.304,0.363-0.526,0.694-0.526c0.372,0,0.678,0.282,0.716,0.644
			c0.978,0.1,1.763,0.221,2.178,0.349c0.953,0.303,2.571,1.853,2.823,2.866l0.041,0.099c0.175,0.407,0.279,0.747,0.139,1.724
			c-0.131,0.908-0.432,1.202-0.781,1.469c-0.089,0.067-0.154,0.116-0.225,0.206c-0.088,0.108-0.203,0.188-0.329,0.23
			c-0.491,0.349-1.184,0.636-2.282,0.952c-1.729,0.404-3.594,0.628-5.578,0.674c-0.485,0.013-0.972,0.02-1.46,0.02
			c-1.768,0-3.397-0.089-4.982-0.271c-2.113-0.258-3.95-0.617-5.467-1.069C10.771,186.156,10.54,186.117,10.312,186.117z"/>
	</g>
	<g>
		<path fill="#484848" d="M96.499,154.366H76.517c-1.027,0-1.96-0.4-2.628-1.128c-0.686-0.622-1.088-1.553-1.088-2.575v-24.847
			c0-1.025,0.374-1.916,1.111-2.647c0.687-0.681,1.612-1.055,2.605-1.055h19.982c0.992,0,1.877,0.348,2.632,1.032
			c0.735,0.793,1.085,1.675,1.085,2.666c0,1.019-0.357,1.893-1.06,2.597c-0.745,0.735-1.638,1.106-2.658,1.106H80.237v5.018h11.766
			c0.997,0,1.883,0.349,2.634,1.037c0.733,0.796,1.083,1.679,1.083,2.668s-0.376,1.911-1.06,2.597
			c-0.74,0.734-1.633,1.105-2.658,1.105H80.237v5.018h16.262c0.989,0,1.875,0.347,2.631,1.031c0.737,0.804,1.086,1.687,1.086,2.674
			c0,0.995-0.377,1.918-1.062,2.599C98.417,153.995,97.524,154.366,96.499,154.366z M76.517,123.554
			c-0.611,0-1.176,0.227-1.591,0.638c-0.467,0.463-0.685,0.979-0.685,1.625v24.847c0,0.613,0.235,1.166,0.663,1.556
			c0.443,0.479,0.985,0.708,1.613,0.708h19.982c0.648,0,1.169-0.219,1.64-0.687c0.411-0.408,0.637-0.969,0.637-1.577
			c0-0.635-0.21-1.16-0.661-1.654c-0.449-0.401-0.978-0.611-1.616-0.611H79.517c-0.397,0-0.72-0.322-0.72-0.72v-6.457
			c0-0.397,0.323-0.72,0.72-0.72h12.486c0.648,0,1.169-0.218,1.641-0.686c0.41-0.411,0.636-0.972,0.636-1.577
			c0-0.635-0.209-1.159-0.66-1.65c-0.447-0.405-0.975-0.615-1.617-0.615H79.517c-0.397,0-0.72-0.322-0.72-0.72v-6.457
			c0-0.397,0.323-0.72,0.72-0.72h16.982c0.645,0,1.167-0.219,1.642-0.688c0.426-0.427,0.635-0.943,0.635-1.575
			c0-0.627-0.215-1.164-0.658-1.645c-0.45-0.404-0.978-0.614-1.619-0.614H76.517z"/>
	</g>
	<g>
		<path fill="#484848" d="M118.232,156.612c-2.586,0-5.046-0.492-7.312-1.462c-2.131-0.859-4.007-2.181-5.567-3.926
			c-0.059-0.032-0.113-0.074-0.161-0.126c-1.599-1.729-2.809-3.815-3.596-6.202c-0.795-2.405-1.132-4.852-1.03-7.48l0.016-0.422
			c0.086-2.293,0.129-3.443,0.926-5.534c0.831-2.181,1.517-3.831,2.785-5.208c0.031-0.046,1.829-2.394,4.449-3.69
			c2.023-1.004,2.954-1.197,4.363-1.49c0.39-0.081,0.82-0.171,1.327-0.29c1.638-0.289,3.22-0.432,4.742-0.432
			c4.829,0,9.251,1.418,13.143,4.214c0.833,0.622,1.359,1.488,1.534,2.511c0.18,1.101-0.007,2.087-0.554,2.938
			c-0.508,0.852-1.291,1.434-2.315,1.708c-0.288,0.06-0.533,0.085-0.772,0.085l0,0c-0.729,0-1.424-0.228-2.065-0.677
			c-3.849-2.826-7.855-3.718-12.03-2.693c-0.041,0.01-0.083,0.017-0.125,0.02l-0.678,0.176c-1.396,0.36-2.317,0.598-3.534,1.206
			c-1.313,0.653-2.104,1.867-2.112,1.879c-0.022,0.035-0.049,0.068-0.077,0.099c-0.471,0.51-0.809,1.153-1.031,1.968
			c-0.343,1.227-0.524,2.164-0.57,3.896c-0.051,1.69,0.154,3.22,0.608,4.549c0.433,1.301,1.085,2.429,1.941,3.355
			c0.856,0.973,1.863,1.688,3.09,2.198c0.062,0.026,0.119,0.061,0.172,0.102c1.341,0.532,2.872,0.813,4.438,0.813
			c3.962,0,6.873-0.776,8.651-2.307c0.702-0.721,1.198-1.643,1.458-2.727h-9.113c-1.03,0-1.969-0.433-2.645-1.22
			c-0.676-0.666-1.069-1.651-1.069-2.732c0-1.097,0.355-2.016,1.088-2.807c0.689-0.741,1.621-1.147,2.626-1.147h12.961
			c0.96,0,1.786,0.326,2.528,0.997c0.765,0.814,1.127,1.626,1.183,2.598c0.517,5.761-0.89,10.155-4.182,13.038
			C128.934,155.18,124.384,156.612,118.232,156.612z M106.078,149.932c0.069,0.037,0.133,0.086,0.188,0.149
			c1.443,1.67,3.196,2.929,5.208,3.739c2.1,0.899,4.369,1.353,6.759,1.353c5.755,0,9.962-1.291,12.504-3.836
			c3.004-2.632,4.212-6.508,3.73-11.882c-0.038-0.647-0.271-1.158-0.756-1.677c-0.436-0.391-0.917-0.584-1.52-0.584H119.23
			c-0.601,0-1.158,0.244-1.57,0.687c-0.479,0.519-0.704,1.101-0.704,1.828c0,0.693,0.243,1.315,0.684,1.752
			c0.442,0.513,0.979,0.761,1.591,0.761h9.973c0.206,0,0.402,0.088,0.539,0.243c0.137,0.154,0.201,0.36,0.176,0.564
			c-0.215,1.733-0.923,3.257-2.048,4.408c-2.121,1.828-5.259,2.696-9.636,2.696c-1.826,0-3.545-0.326-5.109-0.97
			c-0.066-0.027-0.127-0.063-0.182-0.108c-1.376-0.594-2.515-1.415-3.478-2.51c-0.985-1.065-1.741-2.368-2.237-3.859
			c-0.508-1.487-0.738-3.188-0.683-5.05c0.05-1.868,0.257-2.932,0.622-4.238c0.274-1.003,0.72-1.851,1.322-2.518
			c0.197-0.288,1.141-1.585,2.643-2.332c1.354-0.677,2.388-0.943,3.818-1.313l0.756-0.196c0.047-0.013,0.095-0.02,0.144-0.022
			c4.56-1.097,8.979-0.108,13.132,2.941c0.388,0.271,0.793,0.406,1.227,0.406l0,0c0.146,0,0.294-0.016,0.443-0.046
			c0.624-0.169,1.09-0.511,1.421-1.065c0.365-0.57,0.479-1.199,0.356-1.942c-0.11-0.647-0.444-1.197-0.965-1.587
			c-4.786-3.437-10.463-4.637-16.744-3.533c-0.481,0.114-0.923,0.206-1.323,0.289c-1.346,0.28-2.159,0.45-4.017,1.371
			c-2.31,1.144-3.969,3.303-3.986,3.324c-1.14,1.242-1.745,2.704-2.542,4.797c-0.712,1.869-0.748,2.808-0.833,5.075l-0.016,0.423
			c-0.095,2.454,0.219,4.735,0.959,6.975C103.657,146.549,104.704,148.394,106.078,149.932z"/>
	</g>
	<g>
		<path fill="#484848" d="M168.417,155.311L168.417,155.311c-0.755,0-1.486-0.257-2.116-0.742c-0.784-0.559-1.271-1.342-1.467-2.378
			c-0.394-2.628-0.822-5.077-1.281-7.312h-18.221c-0.399,1.959-0.771,4.072-1.104,6.295c-0.185,0.993-0.679,1.794-1.474,2.402
			c-0.896,0.641-1.827,0.868-2.814,0.688c-0.964-0.121-1.784-0.621-2.401-1.479c-0.58-0.75-0.814-1.665-0.682-2.7
			c3.101-20.424,9.033-30.515,17.691-29.995c0.119-0.013,0.323-0.019,0.527-0.019c8.355,0,13.955,10.138,17.121,30.992
			c0.121,1.038-0.11,1.908-0.725,2.763c-0.654,0.846-1.475,1.32-2.454,1.431C168.85,155.29,168.631,155.311,168.417,155.311z
			 M144.746,143.439h19.393c0.341,0,0.634,0.238,0.704,0.571c0.51,2.414,0.984,5.085,1.41,7.939
			c0.123,0.645,0.403,1.104,0.905,1.462c0.521,0.4,1.064,0.534,1.646,0.421c0.638-0.073,1.115-0.354,1.513-0.867
			c0.389-0.541,0.528-1.059,0.452-1.711c-3.066-20.193-8.541-30.209-16.222-29.728c-0.271-0.011-0.453-0.017-0.634-0.017
			c-7.474,0-12.733,9.681-15.632,28.773c-0.081,0.635,0.053,1.178,0.41,1.641c0.395,0.548,0.869,0.842,1.467,0.918
			c0.166,0.028,0.292,0.04,0.416,0.04c0.452,0,0.885-0.151,1.323-0.465c0.49-0.376,0.795-0.866,0.909-1.483
			c0.367-2.442,0.783-4.78,1.233-6.924C144.111,143.678,144.405,143.439,144.746,143.439z M162.645,138.923H146.23
			c-0.228,0-0.441-0.107-0.577-0.289c-0.136-0.183-0.178-0.418-0.113-0.636c2.3-7.738,5.212-11.645,8.903-11.942
			c0.037-0.002,0.077-0.002,0.116,0c3.599,0.295,6.469,4.201,8.775,11.942c0.064,0.218,0.022,0.453-0.113,0.636
			C163.086,138.815,162.872,138.923,162.645,138.923z M147.204,137.483h14.466c-1.996-6.275-4.466-9.72-7.17-9.987
			C151.673,127.768,149.221,131.125,147.204,137.483z"/>
	</g>
	<g>
		<path fill="#484848" d="M69.977,195.145c-0.763,0-1.477-0.25-2.121-0.744c-0.785-0.553-1.272-1.336-1.469-2.376
			c-0.398-2.667-0.826-5.116-1.277-7.312H46.884c-0.396,1.949-0.767,4.063-1.106,6.292c-0.184,0.993-0.678,1.794-1.473,2.403
			c-0.708,0.504-1.403,0.742-2.146,0.742l0,0c-0.213,0-0.433-0.02-0.662-0.06c-0.963-0.112-1.789-0.612-2.412-1.479
			c-0.619-0.804-0.855-1.758-0.67-2.74c3.188-20.664,8.983-30.479,17.683-29.951c0.12-0.013,0.324-0.019,0.528-0.019
			c8.355,0,13.957,10.136,17.123,30.987c0.123,1.03-0.108,1.901-0.724,2.764c-0.652,0.84-1.468,1.315-2.443,1.438
			C70.404,195.125,70.188,195.145,69.977,195.145z M46.297,183.273h19.398c0.34,0,0.634,0.238,0.705,0.57
			c0.5,2.367,0.974,5.039,1.407,7.94c0.123,0.646,0.402,1.104,0.902,1.457c0.527,0.402,1.065,0.535,1.651,0.427
			c0.632-0.081,1.113-0.365,1.51-0.876c0.388-0.545,0.528-1.063,0.452-1.71c-3.066-20.191-8.502-30.206-16.224-29.725
			c-0.271-0.011-0.453-0.017-0.634-0.017c-7.426,0-12.685,9.681-15.63,28.773c-0.112,0.6,0.026,1.143,0.407,1.638
			c0.396,0.552,0.871,0.845,1.465,0.915c0.183,0.031,0.32,0.044,0.453,0.044h0c0.445,0,0.843-0.143,1.291-0.462
			c0.49-0.375,0.794-0.865,0.908-1.483c0.373-2.453,0.789-4.788,1.234-6.92C45.662,183.513,45.956,183.273,46.297,183.273z
			 M64.207,178.747H47.783c-0.228,0-0.441-0.107-0.577-0.289c-0.136-0.183-0.178-0.418-0.113-0.636
			c2.302-7.735,5.215-11.641,8.905-11.938c0.039-0.001,0.077-0.005,0.115,0c3.619,0.289,6.492,4.194,8.784,11.939
			c0.064,0.218,0.022,0.453-0.114,0.635C64.648,178.641,64.434,178.747,64.207,178.747z M48.758,177.308h14.477
			c-2.006-6.362-4.419-9.72-7.178-9.983C53.229,167.595,50.775,170.952,48.758,177.308z"/>
	</g>
	<g>
		<path fill="#484848" d="M83.526,194.651c-1.024,0-1.957-0.4-2.627-1.127c-0.687-0.626-1.089-1.557-1.089-2.579v-22.134h-9.268
			c-1.028,0-1.963-0.401-2.631-1.129c-0.686-0.628-1.088-1.558-1.088-2.575c0-1.021,0.374-1.911,1.109-2.646
			c0.688-0.681,1.615-1.054,2.61-1.054h25.972c0.995,0,1.88,0.347,2.632,1.031c0.735,0.793,1.084,1.677,1.083,2.67
			c0,0.993-0.377,1.916-1.061,2.597c-0.732,0.732-1.625,1.104-2.655,1.104h-9.267v22.136c0,0.996-0.379,1.92-1.066,2.602
			C85.448,194.279,84.554,194.651,83.526,194.651z M70.542,162.847c-0.614,0-1.18,0.227-1.595,0.636
			c-0.466,0.466-0.684,0.983-0.684,1.625c0,0.619,0.23,1.157,0.665,1.558c0.441,0.478,0.984,0.707,1.614,0.707h9.988
			c0.397,0,0.72,0.322,0.72,0.72v22.854c0,0.622,0.229,1.161,0.665,1.56c0.443,0.478,0.985,0.707,1.611,0.707
			c0.65,0,1.171-0.218,1.638-0.685c0.415-0.412,0.642-0.973,0.642-1.582V168.09c0-0.397,0.323-0.72,0.72-0.72h9.987
			c0.651,0,1.172-0.218,1.638-0.684c0.412-0.41,0.638-0.971,0.638-1.579c0.001-0.638-0.208-1.161-0.657-1.648
			c-0.447-0.403-0.975-0.612-1.618-0.612H70.542z"/>
	</g>
	<g>
		<path fill="#484848" d="M120.126,194.251h-4.444c-2.136,0-4.059-0.376-5.878-1.148c-1.76-0.754-3.332-1.809-4.81-3.226
			c-1.421-1.469-2.442-2.977-3.133-4.621c-0.058-0.061-0.104-0.13-0.135-0.208c-0.773-1.97-1.149-3.876-1.149-5.829v-14.756
			c0-1.029,0.403-1.96,1.136-2.62c0.619-0.68,1.553-1.08,2.581-1.08c1.037,0,1.905,0.36,2.653,1.104
			c0.686,0.678,1.063,1.601,1.063,2.597v14.756c0,0.977,0.2,1.975,0.595,2.966c0.017,0.041,0.028,0.083,0.037,0.125
			c0.394,0.837,0.909,1.58,1.618,2.328c0.872,0.811,1.607,1.302,2.426,1.61c0.962,0.412,1.903,0.599,2.992,0.599h4.445
			c1.098,0,2.092-0.196,2.952-0.582c0.85-0.322,1.608-0.829,2.498-1.658c0.798-0.846,1.308-1.601,1.621-2.414
			c0.401-0.896,0.598-1.885,0.598-2.974v-14.756c0-1.024,0.403-1.955,1.136-2.619c0.623-0.682,1.557-1.081,2.581-1.081
			c1.029,0,1.923,0.372,2.656,1.105c0.679,0.668,1.061,1.588,1.07,2.588v14.763c0,2.104-0.378,4.032-1.156,5.895
			c-0.024,0.059-0.056,0.112-0.093,0.161c-0.743,1.655-1.775,3.156-3.149,4.583c-1.448,1.384-2.96,2.412-4.635,3.157
			c-0.046,0.036-0.098,0.066-0.155,0.09C124.182,193.876,122.245,194.251,120.126,194.251z M102.989,184.323
			c0.053,0.057,0.096,0.122,0.125,0.193c0.621,1.548,1.568,2.967,2.896,4.341c1.331,1.275,2.764,2.236,4.358,2.92
			c1.637,0.695,3.375,1.034,5.313,1.034h4.444c1.855,0,3.553-0.314,5.183-0.961c0.039-0.028,0.082-0.053,0.129-0.073
			c1.592-0.682,3.026-1.644,4.384-2.94c1.287-1.337,2.253-2.762,2.933-4.337c0.021-0.048,0.046-0.093,0.075-0.134
			c0.65-1.624,0.967-3.311,0.967-5.147v-14.756c-0.006-0.608-0.235-1.17-0.645-1.572c-0.471-0.471-0.991-0.688-1.643-0.688
			c-0.627,0-1.169,0.229-1.568,0.663c-0.474,0.433-0.709,0.984-0.709,1.598v14.756c0,1.293-0.238,2.479-0.708,3.527
			c-0.369,0.961-0.971,1.861-1.936,2.882c-0.729,0.68-1.69,1.486-2.963,1.968c-1.008,0.453-2.199,0.69-3.502,0.69h-4.445
			c-1.273,0-2.428-0.229-3.53-0.702c-1.24-0.468-2.204-1.274-2.901-1.924c-0.873-0.921-1.506-1.848-1.967-2.865
			c-0.026-0.06-0.045-0.122-0.055-0.186c-0.435-1.127-0.654-2.267-0.654-3.391v-14.756c0-0.608-0.227-1.168-0.638-1.574
			c-0.472-0.469-0.993-0.687-1.64-0.687c-0.62,0-1.176,0.235-1.567,0.661c-0.594,0.54-0.708,1.163-0.708,1.6v14.756
			C102.017,180.923,102.335,182.595,102.989,184.323z"/>
	</g>
	<g>
		<path fill="#484848" d="M140.021,193.72c-1.051,0-2.01-0.372-2.773-1.077c-0.732-0.686-1.133-1.608-1.133-2.602v-25.664
			c0-0.925,0.354-1.757,1.053-2.474c0.729-0.738,1.584-1.144,2.545-1.21c9.483-0.747,16.685-0.376,21.46,1.115
			c6.406,1.885,9.546,5.415,9.32,10.491c-0.06,4.277-2.042,7.366-5.892,9.159c-0.533,0.26-1.13,0.495-1.799,0.71l7.156,4.851
			c0.862,0.619,1.389,1.435,1.58,2.435c0.133,1.004-0.117,1.936-0.718,2.737c-0.655,0.857-1.535,1.352-2.619,1.473
			c-0.183,0.032-0.405,0.052-0.623,0.052c-0.789,0-1.533-0.242-2.21-0.721l-15.927-10.851c-0.76-0.512-1.252-1.134-1.503-1.899
			c-0.229-0.908-0.18-1.696,0.132-2.392c0.326-0.791,0.882-1.41,1.644-1.821c0.685-0.422,1.473-0.59,2.412-0.528
			c4.03,0.435,7.049,0.211,9.072-0.634c1.034-0.503,1.513-1.325,1.468-2.571c-0.129-1.576-1.403-2.725-3.896-3.48
			c-3.466-0.98-8.476-1.322-14.844-0.995v22.218c0,1.026-0.43,1.957-1.209,2.621C142.039,193.35,141.117,193.72,140.021,193.72z
			 M148.502,161.755c-2.608,0-5.53,0.126-8.684,0.375c-0.616,0.042-1.145,0.298-1.622,0.782c-0.437,0.447-0.642,0.914-0.642,1.465
			v25.664c0,0.591,0.239,1.14,0.674,1.547c0.489,0.451,1.11,0.692,1.793,0.692c0.707,0,1.27-0.221,1.72-0.674
			c0.504-0.433,0.747-0.96,0.747-1.565v-22.9c0-0.382,0.298-0.697,0.679-0.719c6.841-0.392,12.244-0.049,16.009,1.014
			c3.094,0.938,4.747,2.545,4.929,4.779c0.066,1.842-0.734,3.202-2.313,3.967c-2.314,0.97-5.584,1.212-9.79,0.757
			c-0.071-0.004-0.168-0.008-0.263-0.008c-0.51,0-0.912,0.107-1.305,0.349c-0.51,0.276-0.829,0.633-1.039,1.144
			c-0.188,0.419-0.209,0.878-0.072,1.424c0.135,0.406,0.435,0.773,0.928,1.106l15.939,10.859c0.563,0.397,1.169,0.539,1.81,0.427
			c0.741-0.084,1.259-0.374,1.674-0.916c0.371-0.497,0.522-1.05,0.445-1.64c-0.117-0.603-0.432-1.087-0.983-1.483l-8.43-5.714
			c-0.235-0.16-0.355-0.444-0.304-0.725c0.051-0.281,0.263-0.505,0.54-0.571c1.222-0.292,2.216-0.63,3.041-1.031
			c3.364-1.566,5.019-4.149,5.071-7.901c0.196-4.411-2.519-7.371-8.299-9.071C157.711,162.235,153.592,161.755,148.502,161.755z"/>
	</g>
	<g>
		<path fill="#484848" d="M201.987,194.15c-0.23,0-0.464-0.02-0.703-0.06c-0.759-0.182-1.376-0.535-1.938-1.09l-18.603-19.205
			v16.653c0,0.997-0.378,1.92-1.064,2.599c-0.731,0.73-1.625,1.102-2.651,1.102c-1.027,0-1.96-0.4-2.628-1.127
			c-0.685-0.614-1.087-1.545-1.087-2.573v-25.84c0-0.769,0.222-1.457,0.68-2.104c0.339-0.561,0.95-1.038,1.695-1.304
			c0.564-0.263,1.341-0.356,2.103-0.234c0.732,0.184,1.336,0.512,1.911,1.016l18.583,19.278v-16.651c0-1.02,0.373-1.91,1.109-2.646
			c0.694-0.684,1.618-1.058,2.606-1.058c0.989,0,1.874,0.348,2.63,1.033c0.738,0.794,1.09,1.678,1.09,2.67v25.84
			c0,0.769-0.213,1.461-0.632,2.057c-0.392,0.606-0.918,1.054-1.641,1.384C202.893,194.075,202.44,194.15,201.987,194.15z
			 M180.023,171.298c0.191,0,0.379,0.076,0.518,0.219l19.828,20.471c0.364,0.36,0.751,0.584,1.203,0.693
			c0.32,0.05,0.847,0.034,1.354-0.131c0.392-0.184,0.714-0.455,0.969-0.849c0.268-0.382,0.386-0.772,0.386-1.252v-25.84
			c0-0.636-0.211-1.159-0.662-1.647c-0.452-0.406-0.98-0.616-1.618-0.616c-0.607,0-1.173,0.228-1.593,0.641
			c-0.465,0.465-0.684,0.981-0.684,1.623v18.436c0,0.294-0.178,0.558-0.45,0.668c-0.273,0.108-0.584,0.043-0.788-0.168
			l-19.777-20.521c-0.362-0.314-0.761-0.533-1.21-0.648c-0.086-0.011-0.236-0.023-0.386-0.023c-0.321,0-0.619,0.062-0.883,0.183
			c-0.493,0.179-0.84,0.44-1.034,0.76c-0.311,0.443-0.443,0.849-0.443,1.315v25.84c0,0.625,0.229,1.161,0.66,1.552
			c0.445,0.479,0.987,0.709,1.615,0.709c0.649,0,1.169-0.218,1.637-0.685c0.413-0.408,0.64-0.967,0.64-1.576v-18.432
			c0-0.293,0.178-0.558,0.449-0.667C179.841,171.314,179.933,171.298,180.023,171.298z"/>
	</g>
</g>
</svg>
