<?xml version="1.0" encoding="utf-8"?>
<!-- Generator: Adobe Illustrator 16.0.3, SVG Export Plug-In . SVG Version: 6.00 Build 0)  -->
<!DOCTYPE svg PUBLIC "-//W3C//DTD SVG 1.1//EN" "http://www.w3.org/Graphics/SVG/1.1/DTD/svg11.dtd">
<svg version="1.1" id="Ebene_1" xmlns="http://www.w3.org/2000/svg" xmlns:xlink="http://www.w3.org/1999/xlink" x="0px" y="0px"
	 width="21.002px" height="22.002px" viewBox="0 0 21.002 22.002" enable-background="new 0 0 21.002 22.002" xml:space="preserve">
<g opacity="0.5">
	<path fill="#777777" d="M21.002,21.293c0,0.39-0.319,0.709-0.709,0.709h-7.937c-0.39,0-0.709-0.319-0.709-0.709v-8.379
		c0-0.39,0.319-0.709,0.709-0.709h7.937c0.39,0,0.709,0.319,0.709,0.709V21.293z"/>
</g>
<g opacity="0.5">
	<path fill="#777777" d="M21.002,9.088c0,0.39-0.319,0.708-0.709,0.708h-7.937c-0.39,0-0.709-0.319-0.709-0.708V0.708
		c0-0.39,0.319-0.708,0.709-0.708h7.937c0.39,0,0.709,0.319,0.709,0.708V9.088z"/>
</g>
<g>
	<path fill="#777777" d="M9.354,21.293c0,0.39-0.319,0.709-0.708,0.709H0.708C0.319,22.002,0,21.683,0,21.293v-8.379
		c0-0.39,0.319-0.709,0.708-0.709h7.938c0.39,0,0.708,0.319,0.708,0.709V21.293z"/>
</g>
<g opacity="0.5">
	<path fill="#777777" d="M9.354,9.087c0,0.39-0.319,0.708-0.708,0.708H0.708C0.319,9.796,0,9.477,0,9.087V0.708
		C0,0.319,0.319,0,0.708,0h7.938c0.39,0,0.708,0.319,0.708,0.708V9.087z"/>
</g>
</svg>
