<?xml version="1.0" encoding="utf-8"?>
<!-- Generator: Adobe Illustrator 16.0.3, SVG Export Plug-In . SVG Version: 6.00 Build 0)  -->
<!DOCTYPE svg PUBLIC "-//W3C//DTD SVG 1.1//EN" "http://www.w3.org/Graphics/SVG/1.1/DTD/svg11.dtd">
<svg version="1.1" id="Ebene_1" xmlns="http://www.w3.org/2000/svg" xmlns:xlink="http://www.w3.org/1999/xlink" x="0px" y="0px"
	 width="21.962px" height="21.959px" viewBox="0 0 21.962 21.959" enable-background="new 0 0 21.962 21.959" xml:space="preserve">
<path fill="#777777" d="M17.71,1.5c1.518,0,2.752,1.234,2.752,2.752v13.455c0,1.518-1.234,2.752-2.752,2.752H4.252
	c-1.518,0-2.752-1.234-2.752-2.752V4.252C1.5,2.734,2.734,1.5,4.252,1.5H17.71 M17.71,0H4.252C1.914,0,0,1.914,0,4.252v13.455
	c0,2.339,1.914,4.252,4.252,4.252H17.71c2.339,0,4.252-1.913,4.252-4.252V4.252C21.962,1.914,20.049,0,17.71,0L17.71,0z"/>
</svg>
