<?xml version="1.0" encoding="utf-8"?>
<!-- Generator: Adobe Illustrator 16.0.3, SVG Export Plug-In . SVG Version: 6.00 Build 0)  -->
<!DOCTYPE svg PUBLIC "-//W3C//DTD SVG 1.1//EN" "http://www.w3.org/Graphics/SVG/1.1/DTD/svg11.dtd">
<svg version="1.1" id="Ebene_1" xmlns="http://www.w3.org/2000/svg" xmlns:xlink="http://www.w3.org/1999/xlink" x="0px" y="0px"
	 width="43.916px" height="21.959px" viewBox="0 0 43.916 21.959" enable-background="new 0 0 43.916 21.959" xml:space="preserve">
<path fill="#777777" d="M29.291,15.69h1.934v-4.113h5.42v-1.479h-5.42V7.704h5.729V6.225h-7.662V15.69z M19.81,15.69h1.936v-4.113
	h5.416v-1.479h-5.416V7.704h5.725V6.225h-7.66V15.69z M12.378,14.473c-2.166,0-3.404-1.435-3.404-3.517
	c0-2.083,1.238-3.518,3.404-3.518c2.167,0,3.406,1.435,3.406,3.518C15.784,13.038,14.545,14.473,12.378,14.473 M12.378,15.956
	c3.896,0,5.419-2.335,5.419-5s-1.522-4.997-5.419-4.997c-3.896,0-5.416,2.332-5.416,4.997S8.482,15.956,12.378,15.956"/>
<path fill="#777777" d="M39.664,1.5c1.518,0,2.752,1.234,2.752,2.752v13.455c0,1.518-1.234,2.752-2.752,2.752H4.252
	c-1.518,0-2.752-1.234-2.752-2.752V4.252C1.5,2.734,2.734,1.5,4.252,1.5H39.664 M39.664,0H4.252C1.914,0,0,1.914,0,4.252v13.455
	c0,2.339,1.914,4.252,4.252,4.252h35.412c2.339,0,4.252-1.913,4.252-4.252V4.252C43.916,1.914,42.003,0,39.664,0L39.664,0z"/>
</svg>
