<?xml version="1.0" encoding="utf-8"?>
<!-- Generator: Adobe Illustrator 16.0.3, SVG Export Plug-In . SVG Version: 6.00 Build 0)  -->
<!DOCTYPE svg PUBLIC "-//W3C//DTD SVG 1.1//EN" "http://www.w3.org/Graphics/SVG/1.1/DTD/svg11.dtd">
<svg version="1.1" id="Ebene_1" xmlns="http://www.w3.org/2000/svg" xmlns:xlink="http://www.w3.org/1999/xlink" x="0px" y="0px"
	 width="43.916px" height="21.959px" viewBox="0 0 43.916 21.959" enable-background="new 0 0 43.916 21.959" xml:space="preserve">
<g>
	<path fill="#777777" d="M15.754,7.461c-2.319,0-3.643,1.434-3.643,3.518c0,2.083,1.325,3.521,3.643,3.521
		c2.32,0,3.644-1.437,3.645-3.521C19.399,8.895,18.074,7.461,15.754,7.461z"/>
	<path fill="#777777" d="M39.664,0H4.252C1.914,0,0,1.914,0,4.252v13.455c0,2.339,1.914,4.252,4.252,4.252h35.412
		c2.339,0,4.252-1.913,4.252-4.252V4.252C43.916,1.914,42.003,0,39.664,0z M15.754,15.979c-4.168,0-5.796-2.334-5.796-5
		c0-2.669,1.628-5.001,5.796-5.001c4.17,0,5.798,2.332,5.798,5.001C21.552,13.644,19.924,15.979,15.754,15.979z M33.957,15.715
		h-2.332L25.72,8.602h-0.027v7.113h-1.988V6.244h2.373l5.865,7.114h0.027V6.244h1.987V15.715z"/>
</g>
</svg>
