<?xml version="1.0" encoding="utf-8"?>
<!-- Generator: Adobe Illustrator 16.0.3, SVG Export Plug-In . SVG Version: 6.00 Build 0)  -->
<!DOCTYPE svg PUBLIC "-//W3C//DTD SVG 1.1//EN" "http://www.w3.org/Graphics/SVG/1.1/DTD/svg11.dtd">
<svg version="1.1" id="Ebene_1" xmlns="http://www.w3.org/2000/svg" xmlns:xlink="http://www.w3.org/1999/xlink" x="0px" y="0px"
	 width="21.775px" height="20.762px" viewBox="0 0 21.775 20.762" enable-background="new 0 0 21.775 20.762" xml:space="preserve">
<path fill="#777777" d="M8.71,2.48c0.026,0.018,0.083,0.07,0.143,0.193l1.859,3.766c0.333,0.676,1.18,1.291,1.924,1.398l4.155,0.603
	c0.15,0.022,0.218,0.066,0.227,0.066c0.001,0,0.001,0,0.001,0c0,0.019-0.025,0.096-0.14,0.207l-3.009,2.931
	c-0.539,0.526-0.862,1.521-0.735,2.263l0.711,4.14c0.027,0.156,0.003,0.234-0.011,0.239c-0.025,0-0.098-0.008-0.221-0.071L9.9,16.26
	c-0.324-0.171-0.747-0.264-1.19-0.264S7.843,16.09,7.52,16.26l-3.716,1.954c-0.123,0.063-0.196,0.071-0.224,0.082
	c-0.01-0.016-0.034-0.094-0.008-0.25l0.71-4.14c0.128-0.743-0.195-1.737-0.735-2.263L0.541,8.712C0.427,8.602,0.4,8.525,0.395,8.525
	l0,0C0.405,8.51,0.472,8.464,0.63,8.441l4.153-0.603C5.53,7.73,6.375,7.115,6.709,6.439l1.859-3.766
	C8.628,2.55,8.685,2.496,8.71,2.48 M8.71,2.076c-0.182,0-0.364,0.14-0.501,0.419L6.35,6.262c-0.276,0.56-1.007,1.091-1.624,1.18
	L0.572,8.045c-0.618,0.09-0.757,0.52-0.31,0.955l3.007,2.931c0.447,0.436,0.726,1.295,0.62,1.909l-0.71,4.139
	c-0.077,0.446,0.094,0.708,0.405,0.708c0.118,0,0.255-0.038,0.407-0.117l3.717-1.955c0.276-0.145,0.64-0.216,1.003-0.216
	c0.364,0,0.729,0.072,1.004,0.216l3.717,1.955c0.15,0.079,0.289,0.117,0.407,0.117c0.311,0,0.481-0.262,0.405-0.708l-0.711-4.139
	c-0.105-0.614,0.174-1.474,0.619-1.909l3.009-2.931c0.446-0.435,0.307-0.865-0.311-0.955l-4.154-0.603
	c-0.617-0.089-1.349-0.62-1.624-1.18L9.213,2.495C9.074,2.216,8.893,2.076,8.71,2.076L8.71,2.076z"/>
</svg>
