<?xml version="1.0" encoding="utf-8"?>
<!-- Generator: Adobe Illustrator 16.0.3, SVG Export Plug-In . SVG Version: 6.00 Build 0)  -->
<!DOCTYPE svg PUBLIC "-//W3C//DTD SVG 1.1//EN" "http://www.w3.org/Graphics/SVG/1.1/DTD/svg11.dtd">
<svg version="1.1" id="Ebene_1" xmlns="http://www.w3.org/2000/svg" xmlns:xlink="http://www.w3.org/1999/xlink" x="0px" y="0px"
	 width="21.775px" height="20.762px" viewBox="0 0 21.775 20.762" enable-background="new 0 0 21.775 20.762" xml:space="preserve">
<path fill="#777777" d="M8.71,2.076c-0.182,0-0.364,0.14-0.501,0.419L6.35,6.261c-0.276,0.56-1.007,1.091-1.624,1.18L0.572,8.045
	C-0.046,8.135-0.185,8.564,0.262,9l3.007,2.931c0.447,0.436,0.726,1.295,0.62,1.909l-0.71,4.14
	c-0.077,0.446,0.094,0.708,0.405,0.708c0.118,0,0.255-0.038,0.407-0.117l3.717-1.956c0.276-0.145,0.64-0.216,1.003-0.216
	c0.364,0,0.729,0.072,1.004,0.216l3.717,1.956c0.15,0.079,0.289,0.117,0.407,0.117c0.311,0,0.481-0.262,0.405-0.708l-0.711-4.14
	c-0.105-0.614,0.174-1.474,0.619-1.909L17.16,9c0.446-0.436,0.307-0.865-0.311-0.955l-4.154-0.603
	c-0.617-0.089-1.349-0.62-1.624-1.18L9.213,2.495C9.074,2.216,8.893,2.076,8.71,2.076L8.71,2.076z"/>
</svg>
