<?xml version="1.0" encoding="utf-8"?>
<!-- Generator: Adobe Illustrator 13.0.0, SVG Export Plug-In . SVG Version: 6.00 Build 14948)  -->
<svg version="1.2" baseProfile="tiny" id="Ebene_1" xmlns="http://www.w3.org/2000/svg" xmlns:xlink="http://www.w3.org/1999/xlink"
	 x="0px" y="0px" width="399.49px" height="98.438px" viewBox="74.938 2 399.49 98.438" xml:space="preserve">
<g>
	<path id="polyline2177" fill="#C40000" d="M94.393,2c-3.758,0-7.412,3.09-8.083,6.918v0.069v0.068v0.068l-0.068,0.068V9.33v0.068
		l-0.069,0.137v0.138L86.104,9.81v0.206l-0.068,0.137v0.206l-0.069,0.205l-0.069,0.206l-0.068,0.41l-0.137,0.479l-0.067,0.479
		l-0.138,0.479l-0.069,0.547l-0.138,0.548l-0.136,0.616l-0.138,0.548l-0.205,1.165l-0.138,0.617l-0.137,0.547l-0.067,0.548
		L84.322,18.3l-0.136,0.549l-0.069,0.548l-0.069,0.479l-0.138,0.411l-0.069,0.479v0.206l-0.067,0.137v0.206v0.137l-0.068,0.206
		v0.137v0.138l-0.069,0.137v0.069v0.067c-0.07,1.675,0.163,3.96,0.685,4.385c0.665,3.688,12.958,20.759,12.604,23.358
		c-0.332,2.606-1.781,10.276-1.781,10.276c-0.446,2.585-2.21,4.656-4.794,4.656c-2.586,0-4.351-2.064-3.905-4.656l2.329-12.741
		h-9.179l-3.083,17.674c-0.628,3.588,1.801,6.438,5.411,6.438h13.085c3.624,0,7.076-2.851,7.739-6.438
		c0,0,3.372-16.508,3.356-17.674c-0.013-1.174-0.341-1.302-0.341-1.302c0-1.343-10.939-19.4-12.056-20.072
		c-0.481-0.281-0.877-2.069-0.892-3.15c-0.021-1.074,1.439-8.289,1.439-8.289c0.444-2.585,2.894-4.657,5.48-4.657
		c2.585,0,3.664,2.072,3.219,4.657l-1.986,11.439h9.247l3.22-17.194C114.163,5.09,111.713,2,107.955,2H94.393z M119.6,2
		l-10.959,63.16c-0.628,3.588,1.802,6.438,5.412,6.438h13.084c3.624,0,7.138-2.851,7.809-6.438L146.658,2h-8.219l-11.167,61.377
		c-0.163,0.893-1.028,1.646-1.917,1.646h-6.509c-0.911,0-1.519-0.747-1.371-1.646L128.369,2H119.6z M151.111,2L137.89,71.597h8.768
		l6.029-31.511h11.166c3.632,0,7.074-2.871,7.739-6.438l4.795-24.73C177.111,5.083,174.667,2,170.91,2h-11.03H151.111z M182.417,2
		l-13.699,69.598h19.727l1.37-8.632h-9.727l3.974-23.495h9.727l1.369-7.262h-9.725l4.315-21.578h9.728L200.843,2H182.417z
		 M205.981,2L192.83,71.597h8.769l5.96-31.511h6.234c0.818,0.764,0.916,2.171,1.025,2.877c0.162,1.025,0.334,2.333,0.207,3.357
		c-0.113,1.017-4.797,25.276-4.797,25.276h8.77c0,0,4.932-26.429,4.932-26.853c0.016-0.431,0-1.785-0.477-2.534
		c-0.322-0.479-0.873-1.583-1.51-1.985c-1.223-0.785-2.604-1.304-2.604-1.304h-0.619c2.512-0.988,7.24-2.617,7.744-5.273
		l4.793-24.73C231.986,5.083,229.537,2,225.779,2H205.981z M252.906,2l-13.223,69.598h10.07l8.15-40.347l3.221,40.347h8.77
		L283.115,2h-10.07l-6.85,36.375L261.673,2H252.906z M287.703,2l-13.219,69.598h8.768L296.47,2H287.703z M301.058,2l-13.219,69.598
		h10.139l8.152-40.347l3.219,40.347h8.77L331.339,2h-10.139l-6.781,36.375L309.898,2H301.058z M335.039,2l-1.646,8.632h5.48
		l-10.824,60.966h10.004l11.027-60.966h5.273L355.724,2H335.039z M359.15,2l-13.699,69.598h19.727l1.371-8.632h-9.727l4.043-23.495
		h9.725l1.371-7.262h-9.727l4.244-21.578h9.729L377.578,2H359.15z M381.414,2l-13.221,69.598h10.137l8.154-40.347l3.219,40.347
		h8.768L411.693,2h-10.139l-6.783,36.375L390.25,2H381.414z M416.283,2l-13.225,69.598h20.004c3.633,0,7.137-2.851,7.811-6.438
		l10.615-56.241C442.208,5.083,439.767,2,436.009,2H416.283z M453.888,2c-3.76,0-7.344,3.09-8.016,6.918l-9.797,56.241
		c-0.635,3.588,1.74,6.438,5.346,6.438h14.453c3.623,0,7.137-2.851,7.811-6.438L474.3,8.918C475.029,5.09,472.572,2,468.822,2
		H453.888z M423.748,10.015h4.043c2.584,0,4.348,2.072,3.902,4.657l-8.631,45.555c-0.451,2.585-2.963,4.727-5.549,4.727h-3.973
		L423.748,10.015z M459.025,10.015h0.275c2.584,0,4.281,2.072,3.834,4.657l-8.217,45.555c-0.449,2.577-2.83,4.727-5.412,4.727
		c-2.588,0-3.666-2.142-3.223-4.727l8.152-45.555l0.066-0.206l0.07-0.206l0.066-0.273l0.068-0.206l0.07-0.274l0.066-0.206
		l0.07-0.206l0.135-0.204l0.068-0.206l0.139-0.206l0.068-0.205l0.137-0.206l0.139-0.137l0.135-0.205l0.139-0.206l0.205-0.138
		l0.137-0.138l0.139-0.137l0.203-0.138l0.207-0.137l0.139-0.137l0.203-0.138l0.207-0.068l0.205-0.137l0.139-0.069l0.271-0.069
		l0.205-0.067h0.205l0.205-0.069h0.275L459.025,10.015z M159.536,10.289h4.248c0.933,0,2.911,2.136,2.741,3.083l-3.632,17.194
		c-0.169,0.89-1.37,2.944-2.258,2.944h-5.14h-0.068h-0.068l-0.069-0.067h-0.067h-0.069h-0.069h-0.069v-0.069h-0.069h-0.068
		l-0.07-0.067h-0.068l-0.068-0.069l-0.068-0.068h-0.068V33.1l-0.069-0.068l-0.069-0.069v-0.068l-0.068-0.068l-0.07-0.069v-0.067
		V32.62l-0.068-0.068v-0.068v-0.068l-0.07-0.068v-0.068c0-0.114-0.012-0.285,0-0.412l4.111-21.03
		C158.611,10.527,159.071,10.289,159.536,10.289z M214.13,10.289h0.07h0.068h0.068h0.068h3.975c0.934,0,2.922,2.136,2.738,3.083
		l-3.633,17.125c-0.158,0.897-2.389,3.014-3.285,3.014h-3.769c-0.777,0-1.313-0.511-1.369-1.23c0-0.114-0.017-0.278,0-0.412
		l4.042-21.03l0.066-0.068l0.07-0.068l0.135-0.069h0.067l0.069-0.068l0.068-0.068h0.068l0.068-0.069h0.07l0.135-0.067h0.068h0.067
		h0.067v-0.069H214.13z M74.938,77.626v22.812h391.005V77.626H74.938z M362.373,80.023h0.066h0.066h0.07h0.066h0.068h3.016
		c0.813,0,1.396,0.65,1.232,1.507l-0.754,3.838h-1.848l0.408-2.535c0.094-0.573-0.244-1.028-0.822-1.028
		c-0.572,0-1.137,0.453-1.232,1.028l-0.34,1.851c-0.059,0.109,0.113,0.629,0.203,0.686c0.254,0.146,2.672,4.153,2.672,4.451
		c0.057,0.148,0.09,0.22,0.066,0.275c-0.068,0.501-0.754,3.902-0.754,3.902c-0.146,0.781-0.906,1.438-1.711,1.438h-2.877
		c-0.799,0-1.313-0.657-1.166-1.438l0.688-3.902h1.986L361,92.904c-0.092,0.571,0.24,1.095,0.818,1.095
		c0.555,0,1.145-0.52,1.236-1.095l0.41-2.261c-0.367-0.945-2.791-4.389-2.947-5.207c-0.105-0.093-0.15-0.587-0.135-0.959
		c0.021-0.407,0.547-2.946,0.547-2.946H361v-0.068v-0.066v-0.068l0.066-0.138v-0.067l0.066-0.07v-0.067l0.068-0.067V80.85
		l0.068-0.067l0.07-0.07v-0.066h0.066l0.07-0.068l0.066-0.07l0.068-0.066v-0.07h0.068l0.066-0.066l0.066-0.068h0.07l0.068-0.067
		h0.068l0.068-0.067h0.068h0.137L362.373,80.023z M378.125,80.023h2.467l0.342,5.824l3.15-5.824h2.469l-5.07,8.906l-1.232,6.507
		h-2.191l1.098-6.988L378.125,80.023z M400.527,80.023h0.066h0.07h0.066h0.07h0.066h3.014c0.813,0,1.381,0.65,1.232,1.507
		l-0.754,3.838h-1.85l0.412-2.535c0.092-0.573-0.242-1.028-0.822-1.028c-0.572,0-1.143,0.453-1.232,1.028l-0.342,1.851
		c-0.072,0.109,0.092,0.629,0.203,0.686c0.242,0.146,2.672,4.153,2.672,4.451c0.072,0.148,0.07,0.22,0.07,0.275
		c-0.094,0.501-0.686,3.902-0.686,3.902c-0.148,0.781-0.916,1.438-1.715,1.438h-2.943c-0.799,0-1.314-0.657-1.168-1.438l0.686-3.902
		h1.988l-0.479,2.809c-0.094,0.571,0.264,1.095,0.822,1.095c0.57,0,1.119-0.52,1.232-1.095l0.41-2.261
		c-0.375-0.945-2.787-4.389-2.945-5.207c-0.105-0.093-0.148-0.587-0.137-0.959c0.021-0.407,0.549-2.946,0.549-2.946l0.066-0.068
		v-0.066v-0.068l0.068-0.138v-0.067l0.068-0.07v-0.067l0.068-0.067V80.85l0.068-0.067l0.068-0.07v-0.066h0.07l0.064-0.068
		l0.068-0.07l0.068-0.066l0.068-0.07l0.068-0.066l0.068-0.068h0.068l0.07-0.067h0.066l0.068-0.067h0.066h0.137L400.527,80.023z
		 M416.486,80.023h4.592l-0.344,1.851h-1.166l-2.396,13.563h-2.26l2.396-13.563h-1.164L416.486,80.023z M434.433,80.023h4.109
		l-0.344,1.851h-2.123l-0.957,4.864h2.191l-0.344,1.574h-2.125l-0.889,5.206h2.121l-0.271,1.918h-4.385L434.433,80.023z
		 M451.353,80.023h2.535l0.408,8.906l3.906-8.837l2.465-0.069l-2.6,15.413h-1.918l1.23-8.15l-3.426,8.15h-1.371l-0.408-8.358
		l-1.508,8.358h-2.262L451.353,80.023z M83.432,80.573h4.042l-0.275,1.916h-2.191l-0.89,4.797h2.124l-0.275,1.645h-2.192
		l-0.821,5.207h2.123l-0.343,1.917H80.35L83.432,80.573z M102.338,80.573h1.918l1.027,8.083l1.506-8.083h2.262l-2.947,15.479h-1.917
		l-0.754-8.976l-1.78,8.976h-2.262L102.338,80.573z M122.889,80.573h4.521l-0.273,1.916h-1.165l-2.466,13.564h-2.19l2.396-13.564
		h-1.233L122.889,80.573z M142.823,80.573h4.11l-0.343,1.916h-2.124l-0.959,4.797h2.124l-0.274,1.645h-2.123l-0.89,5.207h2.123
		l-0.273,1.917h-4.384L142.823,80.573z M162.141,80.573h4.383c0.813,0,1.327,0.719,1.165,1.574l-1.027,5.479
		c-0.114,0.594-1.157,1.078-1.714,1.303h0.138h0.068h0.07v0.067h0.068h0.07h0.066h0.07l0.068,0.067h0.068h0.068h0.07v0.067h0.068
		h0.07v0.07h0.068c0.092,0.165,0.136,0.659,0.136,0.753c0,0.092-1.097,6.097-1.097,6.097h-1.986c0,0,1.061-5.394,1.097-5.616
		c0.022-0.24-0.026-0.529-0.068-0.753c-0.016-0.166-0.024-0.45-0.206-0.618h-1.371l-1.301,6.987h-1.987L162.141,80.573z
		 M181.731,80.573h4.589l-0.273,1.916h-1.163l-2.467,13.564h-2.192l2.397-13.564h-1.232L181.731,80.573z M204.542,80.573h2.604
		l-0.822,15.479h-2.604l0.342-3.563h-1.574l-1.303,3.563h-2.327L204.542,80.573z M222.765,80.573h1.986l-2.947,15.479h-1.918
		L222.765,80.573z M240.437,80.573h1.92l1.025,8.083l1.51-8.083h2.191l-2.877,15.479h-1.986l-0.686-8.976l-1.783,8.976h-2.258
		L240.437,80.573z M263.113,80.573h2.535l0.408,8.974l3.908-8.904h2.463l-2.602,15.412h-1.918l1.232-8.152l-3.428,8.152h-1.369
		l-0.41-8.356l-1.506,8.356h-2.193L263.113,80.573z M287.978,80.573h4.041l-0.275,1.916h-2.191l-0.889,4.797h2.123l-0.275,1.645
		h-2.189l-0.891,5.207h2.189l-0.342,1.917h-4.314L287.978,80.573z M307.841,80.573h1.918l1.029,8.083l1.506-8.083h2.191
		l-2.875,15.479h-1.918l-0.754-8.976l-1.783,8.976h-2.26L307.841,80.573z M328.187,80.573h4.59l-0.342,1.916h-1.164l-2.398,13.564
		h-2.193l2.4-13.564h-1.232L328.187,80.573z M163.991,82.42c-0.108,0-0.198,0.064-0.276,0.139l-0.89,4.656c0,0.038,0,0.032,0,0.07
		c0,0.149,0.104,0.273,0.274,0.273h0.821c0.204,0,0.717-0.411,0.755-0.617l0.751-3.836c0.036-0.221-0.342-0.687-0.547-0.687
		L163.991,82.42L163.991,82.42z M204.542,87.078l-1.438,3.905h1.096L204.542,87.078z"/>
</g>
</svg>
