<?xml version="1.0" encoding="UTF-8" standalone="no"?>
<!-- Created with Inkscape (http://www.inkscape.org/) -->

<svg
   xmlns:dc="http://purl.org/dc/elements/1.1/"
   xmlns:cc="http://creativecommons.org/ns#"
   xmlns:rdf="http://www.w3.org/1999/02/22-rdf-syntax-ns#"
   xmlns:svg="http://www.w3.org/2000/svg"
   xmlns="http://www.w3.org/2000/svg"
   version="1.2"
   width="566.92902"
   height="150.84801"
   viewBox="0 0 566.929 150.848"
   id="Ebene_1"
   xml:space="preserve"><metadata
   id="metadata27"><rdf:RDF><cc:Work
       rdf:about=""><dc:format>image/svg+xml</dc:format><dc:type
         rdf:resource="http://purl.org/dc/dcmitype/StillImage" /><dc:title></dc:title></cc:Work></rdf:RDF></metadata><defs
   id="defs25" />
<g
   transform="translate(0,-0.0015)"
   id="g3">
	<g
   id="g5">
		<g
   id="g7">
			
		</g>
	</g>
	<g
   id="g11">
		<path
   d="m 253.196,55.925 c 0,8.903 -3.024,15.729 -9.072,20.476 -6.048,4.746 -14.615,7.119 -25.703,7.119 h -14.237 v 38.05 h -6.426 V 29.466 h 22.553 c 21.924,0 32.885,8.819 32.885,26.459 z m -49.012,22.05 h 12.663 c 10.373,0 17.87,-1.711 22.49,-5.135 4.619,-3.423 6.929,-8.979 6.929,-16.663 0,-7.097 -2.184,-12.357 -6.551,-15.781 -4.369,-3.422 -11.13,-5.134 -20.286,-5.134 h -15.245 v 42.713 l 0,0 z"
   id="path13"
   style="fill:#8b0000" />
		<path
   d="m 350.654,75.392 c 0,14.616 -3.652,26.177 -10.961,34.682 -7.311,8.508 -17.389,12.76 -30.238,12.76 -12.812,0 -22.869,-4.252 -30.178,-12.76 -7.308,-8.505 -10.961,-20.104 -10.961,-34.808 0,-14.656 3.686,-26.196 11.056,-34.618 7.372,-8.42 17.44,-12.631 30.208,-12.631 12.854,0 22.91,4.232 30.178,12.694 7.263,8.464 10.896,20.024 10.896,34.681 z m -75.345,0 c 0,13.188 2.939,23.381 8.819,30.587 5.879,7.202 14.322,10.806 25.326,10.806 11.088,0 19.561,-3.567 25.42,-10.711 5.854,-7.141 8.787,-17.363 8.787,-30.682 0,-13.271 -2.934,-23.443 -8.787,-30.521 -5.859,-7.077 -14.291,-10.615 -25.295,-10.615 -10.961,0 -19.414,3.569 -25.355,10.71 -5.944,7.138 -8.915,17.282 -8.915,30.426 z"
   id="path15"
   style="fill:#8b0000" />
		<path
   d="m 378.248,81.44 v 40.13 H 371.82 V 29.466 h 21.924 c 11.426,0 19.869,2.11 25.33,6.331 5.459,4.221 8.188,10.574 8.188,19.057 0,6.175 -1.627,11.383 -4.881,15.624 -3.256,4.243 -8.195,7.288 -14.836,9.138 l 25.01,41.955 h -7.684 L 401.115,81.44 h -22.867 l 0,0 z m 0,-5.544 h 17.576 c 7.77,0 13.797,-1.729 18.082,-5.195 4.285,-3.467 6.428,-8.577 6.428,-15.342 0,-7.014 -2.102,-12.114 -6.299,-15.309 -4.201,-3.19 -11.051,-4.788 -20.543,-4.788 h -15.244 v 40.634 z"
   id="path17"
   style="fill:#8b0000" />
		<path
   d="m 472.494,121.57 h -6.488 V 35.514 H 436.08 v -6.048 h 66.338 v 6.048 h -29.924 v 86.056 l 0,0 z"
   id="path19"
   style="fill:#8b0000" />
		<path
   d="m 566.929,97.819 c 0,7.688 -2.826,13.777 -8.477,18.271 -5.648,4.493 -13.154,6.74 -22.521,6.74 -11.256,0 -19.887,-1.24 -25.893,-3.721 v -6.426 c 6.637,2.814 15.098,4.224 25.387,4.224 7.563,0 13.557,-1.732 17.988,-5.195 4.43,-3.467 6.645,-8.014 6.645,-13.644 0,-3.481 -0.734,-6.372 -2.209,-8.66 -1.467,-2.287 -3.859,-4.379 -7.178,-6.27 -3.32,-1.891 -8.188,-3.929 -14.617,-6.111 -9.406,-3.23 -15.904,-6.729 -19.498,-10.485 -3.592,-3.759 -5.387,-8.771 -5.387,-15.026 0,-6.887 2.697,-12.504 8.098,-16.851 5.396,-4.35 12.334,-6.521 20.818,-6.521 8.652,0 16.777,1.64 24.381,4.913 l -2.332,5.544 c -7.645,-3.189 -14.951,-4.788 -21.922,-4.788 -6.803,0 -12.221,1.576 -16.252,4.729 -4.035,3.147 -6.049,7.434 -6.049,12.852 0,3.401 0.617,6.195 1.854,8.379 1.238,2.187 3.27,4.147 6.078,5.893 2.814,1.74 7.646,3.832 14.49,6.269 7.182,2.479 12.578,4.881 16.191,7.213 3.604,2.33 6.242,4.979 7.9,7.938 1.673,2.954 2.505,6.533 2.505,10.733 z"
   id="path21"
   style="fill:#8b0000" />
	</g>
</g>
<g
   transform="matrix(0.21198622,0,0,0.21198622,12.776085,-23.088348)"
   id="g3162"
   style="fill:none;stroke:none"><g
     id="g3088"><path
       d="m 0,0 841.79266,0 0,917.52496 -841.79266,0 z"
       id="path3090"
       style="fill:#000000;fill-opacity:0;fill-rule:nonzero" /><path
       d="m 569.17194,335.3517 c 1.53149,-0.55206 4.12598,-1.4707 5.8136,-2.25198 1.68768,-0.78128 3.12512,-1.19641 4.31238,-2.4357 1.18719,-1.23926 2.11328,-3.44794 2.81103,-5 0.69769,-1.55204 0.20862,-3.21826 1.37531,-4.31232 1.16668,-1.09406 3.43701,-1.26202 5.62469,-2.25198 2.18762,-0.98993 5.61591,-2.57306 7.50128,-3.68766 1.88538,-1.11462 2.50922,-0.87533 3.81104,-3 1.30182,-2.12466 3.05206,-7.73797 4,-9.74804 0.94794,-2.01004 0.46893,-1.24979 1.68768,-2.31232 1.21869,-1.06256 3.81189,-2.53149 5.62464,-4.06299 1.8128,-1.53149 3.87664,-3.54245 5.25195,-5.12601 1.37537,-1.58355 2.22925,-2.8027 3,-4.3753 0.77081,-1.57263 1.4165,-3.60239 1.62469,-5.06039 0.20826,-1.45798 -0.81274,-2.55204 -0.3753,-3.68766 0.43744,-1.13562 1.83331,-2.06341 3,-3.12597 1.16662,-1.06257 2.68762,-1.47858 4,-3.24936 1.31232,-1.77079 3.23883,-4.66666 3.87402,-7.37531 0.63513,-2.70868 -0.59448,-6.52231 -0.063,-8.87665 0.5315,-2.35434 2.1789,-3.47857 3.25196,-5.24934 1.07306,-1.77078 2.31146,-3.40683 3.18634,-5.37534 0.87488,-1.9685 2.02142,-4.0503 2.06299,-6.4357 0.0416,-2.38537 -2.01136,-5.66796 -1.81366,-7.87663 0.19775,-2.20866 2.05206,-3.83377 3,-5.37533 0.94793,-1.54155 2.14569,-2.02011 2.68768,-3.87401 0.54199,-1.8539 1.1369,-4.60369 0.56427,-7.24935 -0.57257,-2.64567 -3.58307,-6.20779 -4,-8.62468 -0.41687,-2.41688 1.05078,-3.85563 1.49872,-5.87663 0.44793,-2.02099 1.34515,-3.8434 1.18896,-6.24934 -0.15613,-2.40595 -0.76117,-5.95714 -2.12597,-8.18636 -1.36481,-2.22922 -3.87531,-3.97024 -6.06299,-5.18898 -2.18769,-1.21872 -4.54242,-1.69641 -7.06299,-2.12335 -2.52057,-0.42694 -5.57086,0.64523 -8.06037,-0.43832 -2.4895,-1.08356 -4.24102,-4.51095 -6.87664,-6.06299 -2.63562,-1.55207 -5.85389,-2.6973 -8.93702,-3.24935 -3.08313,-0.55206 -7.29089,-0.0941 -9.5617,-0.063 -2.27075,0.0311 -2.69812,0.7909 -4.06299,0.24935 -1.36481,-0.54157 -2.40723,-2.42607 -4.12598,-3.49869 -1.71869,-1.07262 -3.81146,-2.41601 -6.18634,-2.93701 -2.37488,-0.521 -6.33374,-0.24103 -8.06299,-0.18898 -1.72924,0.0521 -1.09362,1.08443 -2.31231,0.50131 -1.21875,-0.58311 -3.26032,-3.09361 -5,-4 -1.73975,-0.90639 -2.90686,-1.1776 -5.43836,-1.43832 -2.53149,-0.26071 -7.30267,-0.52187 -9.75061,-0.12598 -2.448,0.39589 -3.51007,2.09493 -4.93701,2.50131 -1.42694,0.40639 -2.83337,0.19773 -3.62469,-0.063 -0.79132,-0.26072 -0.47766,-1.14698 -1.12336,-1.50131 -0.64569,-0.35434 -2.12554,-0.22923 -2.75067,-0.62468 -0.62512,-0.39544 0.85431,-1.38363 -1,-1.74803 -1.85431,-0.36439 -6.79266,-1.27165 -10.12597,-0.43832 -3.33332,0.83334 -7.66578,4.44882 -9.87403,5.43832 -2.20819,0.9895 -2.25018,0.7384 -3.3753,0.49869 -1.12512,-0.23972 -1.4064,-1.65573 -3.37534,-1.93701 -1.96896,-0.28127 -5.47989,-0.78171 -8.43832,0.24934 -2.95844,1.03107 -7.43744,4.92652 -9.31235,5.93701 -1.87488,1.0105 -1.30182,0.2406 -1.93701,0.12599 -0.63516,-0.1146 -0.0822,-0.68853 -1.87399,-0.81365 -1.79178,-0.12511 -6.05384,-0.61417 -8.87665,0.063 -2.82285,0.67715 -5.9252,2.52055 -8.06037,4 -2.13519,1.47943 -3.52145,3.73053 -4.75067,4.87663 -1.22921,1.1461 -0.64523,1.59406 -2.62466,2 -1.97943,0.40595 -6.31452,-0.73097 -9.25199,0.4357 -2.93743,1.16667 -5.54986,4.04331 -8.37268,6.5643 -2.82284,2.521 -5.91821,5.50963 -8.5643,8.56168 -2.64612,3.05206 -5.52057,6.88627 -7.31234,9.75065 -1.79178,2.8644 -2.17804,4.9777 -3.43833,7.4357 -1.26028,2.45801 -2.64435,3.88495 -4.12335,7.31233 -1.479,3.42739 -3.56299,11.66843 -4.75067,13.25197 -1.18765,1.58356 -1.22965,-1.00042 -2.37531,-3.75065 -1.14569,-2.75022 -2.80096,-8.95888 -4.49868,-12.75066 -1.69773,-3.79176 -2.97901,-6.03149 -5.68769,-10 -2.70865,-3.96849 -7.17889,-10.02974 -10.5643,-13.81102 -3.38537,-3.78128 -7.14392,-6.72003 -9.74801,-8.87663 -2.60413,-2.15662 -3.57438,-3.35477 -5.87665,-4.06301 -2.30228,-0.70822 -5.48908,0.87578 -7.93701,-0.18634 -2.44794,-1.06211 -4.56342,-4.45713 -6.75068,-6.18635 -2.18722,-1.72922 -3.18545,-3.37621 -6.37268,-4.18898 -3.18722,-0.81278 -9.84427,-0.46893 -12.75067,-0.68767 -2.90637,-0.21872 -3.18765,0.042 -4.68765,-0.62466 -1.5,-0.66668 -2.59363,-2.57306 -4.31235,-3.37534 -1.71872,-0.80226 -4.05206,-1.20909 -6,-1.43831 -1.94793,-0.22923 -4.0105,-0.24978 -5.68765,0.063 -1.67719,0.31277 -3.08356,1.78215 -4.37534,1.81364 -1.29177,0.0315 -2.07305,-0.97856 -3.37533,-1.62466 -1.30228,-0.64612 -3.29263,-1.81453 -4.43833,-2.25197 -1.14566,-0.43745 -1.71695,-0.0604 -2.43566,-0.37271 -0.71875,-0.31233 -0.0954,-1.2616 -1.87665,-1.50131 -1.78128,-0.23972 -7.08182,-0.17673 -8.81104,0.063 -1.72922,0.23973 -0.6579,1.042 -1.5643,1.37533 -0.90637,0.33333 -3.22833,0.21872 -3.87402,0.62467 -0.64566,0.40596 0.69772,1.55075 0,1.81103 -0.69772,0.26027 -2.69684,0.1461 -4.18634,-0.24934 -1.4895,-0.39546 -1.83377,-1.87358 -4.75067,-2.12337 -2.91687,-0.24979 -9.55249,-0.33333 -12.75064,0.62468 -3.19815,0.95799 -4.97989,4.27953 -6.43833,5.12335 -1.45843,0.84384 -0.54156,-0.008 -2.31235,-0.0604 -1.77075,-0.0521 -5.23971,-1.17891 -8.31231,-0.25197 -3.07262,0.92694 -7.93614,4.7616 -10.12337,5.81364 -2.18722,1.05207 -0.76028,0.43615 -3,0.49869 -2.23972,0.0626 -7.52144,-0.44662 -10.43832,-0.12335 -2.91689,0.32327 -5.06299,1.19859 -7.06299,2.06299 -2,0.86439 -3.47856,1.91513 -4.93701,3.12335 -1.45844,1.20824 -1.69904,3.40727 -3.81365,4.12599 -2.11461,0.71872 -5.98862,-0.28215 -8.87401,0.18636 -2.88539,0.4685 -6.2196,1.36395 -8.43832,2.62466 -2.21872,1.26073 -3.79091,3.09581 -4.87402,4.93964 -1.08312,1.84382 -1.31234,4.55073 -1.62467,6.12335 -0.31233,1.57262 -0.37445,2.02057 -0.24934,3.31235 0.12511,1.29176 0.56256,3.08398 1,4.43831 0.43744,1.35434 1.40594,2.542 1.62466,3.68766 0.21874,1.14568 0.31278,1.99913 -0.31233,3.18636 -0.62511,1.18723 -2.76115,2.20778 -3.43832,3.93701 -0.67716,1.72922 -0.67673,4.6881 -0.62467,6.43831 0.052,1.75023 0.53063,2.48994 0.93701,4.063 0.40639,1.57305 0.73053,3.83377 1.50132,5.37532 0.77076,1.54157 2.83201,2.43657 3.12335,3.87403 0.29133,1.43744 -1.24016,2.91731 -1.37532,4.75065 -0.13518,1.83333 -0.74848,3.05162 0.5643,6.24935 1.31277,3.19772 5.9895,10.28084 7.31233,12.93699 1.32283,2.65618 0.3644,0.98951 0.62468,3 0.26027,2.0105 -0.55251,5.73972 0.937,9.06299 1.4895,3.32327 6.32284,8.5538 8,10.87665 1.67717,2.32285 1.77122,2.0083 2.063,3.06036 0.29178,1.05207 -0.78084,1.27253 -0.31235,3.25199 0.46851,1.97943 1.06081,5.93744 3.12337,8.62466 2.06256,2.68723 7.0748,5.85303 9.25197,7.49869 2.17717,1.64566 2.80096,0.97943 3.81102,2.37533 1.01007,1.39588 1.44707,4 2.24934,6 0.80228,2 0.78304,3.98951 2.5643,6 1.78128,2.0105 5.35259,4.67759 8.12337,6.06299 2.77078,1.38538 6.77209,1.09317 8.50131,2.24933 1.72922,1.15619 1.04068,3.09363 1.87401,4.68768 0.83334,1.59406 1.0945,3.30359 3.12598,4.87662 2.03152,1.57306 6.85479,3.72836 9.06301,4.56171 2.20823,0.83331 3.23841,0.0634 4.18635,0.43829 0.94793,0.37491 1.76159,0.96765 1.50131,1.81104 -0.26029,0.84338 -1.69815,2.34295 -3.06299,3.24936 -1.36484,0.90637 -2.91776,0.84512 -5.12598,2.18896 -2.20822,1.34384 -5.46719,3.6658 -8.12336,5.87402 -2.65618,2.20823 -4.85521,4.50043 -7.81366,7.37531 -2.95844,2.87491 -7.04111,6.36352 -9.937,9.87402 -2.89589,3.5105 -5.33421,7.33466 -7.43832,11.189 -2.10411,3.85431 -3.49913,7.65573 -5.18636,11.93698 -1.68722,4.28128 -3.73885,9.38629 -4.93701,13.75067 -1.19815,4.36438 -1.77252,7.47726 -2.25197,12.4357 -0.47943,4.95843 -0.44749,13.74191 -0.62466,17.31494 -0.17717,3.57306 0.21785,2.40466 -0.43833,4.12338 -0.65616,1.71872 -1.7384,4.29309 -3.49869,6.18897 -1.76028,1.8959 -4.41731,2.93658 -7.06298,5.18634 -2.64568,2.24978 -5.95714,5.28128 -8.81102,8.31234 -2.8539,3.03107 -5.2183,5.33246 -8.31235,9.87403 -3.09404,4.54156 -7.31407,10.84384 -10.25197,17.37533 -2.93788,6.5315 -5.86482,15.26157 -7.37532,21.81363 -1.5105,6.55204 -1.58356,9.39457 -1.68767,17.49869 -0.10411,8.10413 -0.23927,21.08399 1.06299,31.12598 1.30228,10.04199 2.584,18.43835 6.75066,29.12598 4.16667,10.68768 10.45758,24.72924 18.24934,35 7.79178,10.27081 18.16799,18.91644 28.50131,26.62469 10.33335,7.70825 27.26947,14.95801 33.49869,19.6247 6.22922,4.66662 2.80359,4.95886 3.87665,8.3753 1.07306,3.41644 0.88495,6.98816 2.56168,12.12335 1.67672,5.1352 4.2384,12.72925 7.49868,18.68769 3.26029,5.95843 7.19815,11.63562 12.06299,17.06298 4.86484,5.42737 10.65704,10.91773 17.12598,15.50129 6.46896,4.58355 13.43789,8.45843 21.68768,12 8.24979,3.54156 18.84253,6.91601 27.81101,9.24939 8.9685,2.33331 18.9895,3.82366 26,4.75061 7.01049,0.92694 7.52102,0.6654 16.06301,0.81103 8.542,0.14569 25.25153,0.13562 35.18897,0.063 9.93744,-0.0726 17.4462,-0.12378 24.4357,-0.49866 6.9895,-0.37488 11.15747,-0.75067 17.50131,-1.75067 6.34384,-1 11.05118,-1.23883 20.56168,-4.24933 9.5105,-3.0105 26.32416,-8.34473 36.50128,-13.81366 10.17718,-5.46893 17.99914,-12.38537 24.5617,-19 6.56257,-6.61462 10.7616,-12.80231 14.81366,-20.68768 4.05207,-7.88538 7.7699,-20.47901 9.49866,-26.62464 1.72882,-6.14569 -0.18854,-7.99914 0.87403,-10.24939 1.06256,-2.25018 1.77209,-1.27252 5.50134,-3.25195 3.72919,-1.97943 9.16577,-3.52057 16.87402,-8.62469 7.70819,-5.10407 21.63556,-14.94794 29.37531,-22 7.73974,-7.05201 12.48993,-13.78125 17.06298,-20.31232 4.57306,-6.53107 7.521,-12.65527 10.37531,-18.87402 2.85437,-6.21869 5.01099,-11.9383 6.75067,-18.4383 1.73975,-6.5 2.76074,-13.85345 3.68768,-20.5617 0.92694,-6.70819 1.62421,-13.04157 1.87403,-19.68763 0.24975,-6.64611 0.41644,-14.12646 -0.37537,-20.18902 -0.79175,-6.06253 -2.76068,-10.98859 -4.3753,-16.18634 -1.61463,-5.19772 -3.05207,-10.30225 -5.31232,-15 -2.26032,-4.69772 -5.47858,-9.11328 -8.24939,-13.18634 -2.77075,-4.07306 -5.521,-7.99124 -8.37531,-11.25195 -2.85431,-3.26075 -6.18811,-6.17719 -8.75067,-8.31235 -2.56256,-2.13516 -4.54156,-2.37402 -6.62463,-4.49869 -2.08313,-2.12466 -4.82196,-5.71783 -5.87402,-8.24936 -1.05207,-2.53149 -0.30274,-4.14786 -0.43836,-6.9396 -0.13556,-2.79178 -0.16705,-6.3946 -0.3753,-9.81104 -0.20826,-3.41644 -0.14478,-6.62512 -0.87403,-10.68765 -0.72918,-4.06256 -2.1159,-9.32285 -3.50128,-13.68768 -1.38544,-4.36484 -2.33203,-7.72004 -4.81103,-12.50132 -2.47901,-4.78128 -6.88587,-11.84295 -10.06299,-16.18634 -3.17719,-4.34341 -6.07306,-6.94708 -9,-9.87402 -2.92694,-2.92694 -5.72833,-5.30228 -8.56171,-7.68765 -2.83331,-2.38541 -5.9173,-4.88495 -8.43829,-6.6247 -2.521,-1.73971 -5.18769,-2.91775 -6.68769,-3.81363 -1.5,-0.8959 -2.18719,-0.97812 -2.31231,-1.56167 -0.12512,-0.58356 0.73883,-1.43964 1.56164,-1.93964 0.82288,-0.5 1.84388,-0.50833 3.37537,-1.06036 z"
       id="path3096"
       style="fill:#000000;fill-rule:nonzero" /><path
       d="m 569.17194,335.3517 c 1.53149,-0.55206 4.12598,-1.4707 5.8136,-2.25198 1.68768,-0.78128 3.12512,-1.19641 4.31238,-2.4357 1.18719,-1.23926 2.11328,-3.44794 2.81103,-5 0.69769,-1.55204 0.20862,-3.21826 1.37531,-4.31232 1.16668,-1.09406 3.43701,-1.26202 5.62469,-2.25198 2.18762,-0.98993 5.61591,-2.57306 7.50128,-3.68766 1.88538,-1.11462 2.50922,-0.87533 3.81104,-3 1.30182,-2.12466 3.05206,-7.73797 4,-9.74804 0.94794,-2.01004 0.46893,-1.24979 1.68768,-2.31232 1.21869,-1.06256 3.81189,-2.53149 5.62464,-4.06299 1.8128,-1.53149 3.87664,-3.54245 5.25195,-5.12601 1.37537,-1.58355 2.22925,-2.8027 3,-4.3753 0.77081,-1.57263 1.4165,-3.60239 1.62469,-5.06039 0.20826,-1.45798 -0.81274,-2.55204 -0.3753,-3.68766 0.43744,-1.13562 1.83331,-2.06341 3,-3.12597 1.16662,-1.06257 2.68762,-1.47858 4,-3.24936 1.31232,-1.77079 3.23883,-4.66666 3.87402,-7.37531 0.63513,-2.70868 -0.59448,-6.52231 -0.063,-8.87665 0.5315,-2.35434 2.1789,-3.47857 3.25196,-5.24934 1.07306,-1.77078 2.31146,-3.40683 3.18634,-5.37534 0.87488,-1.9685 2.02142,-4.0503 2.06299,-6.4357 0.0416,-2.38537 -2.01136,-5.66796 -1.81366,-7.87663 0.19775,-2.20866 2.05206,-3.83377 3,-5.37533 0.94793,-1.54155 2.14569,-2.02011 2.68768,-3.87401 0.54199,-1.8539 1.1369,-4.60369 0.56427,-7.24935 -0.57257,-2.64567 -3.58307,-6.20779 -4,-8.62468 -0.41687,-2.41688 1.05078,-3.85563 1.49872,-5.87663 0.44793,-2.02099 1.34515,-3.8434 1.18896,-6.24934 -0.15613,-2.40595 -0.76117,-5.95714 -2.12597,-8.18636 -1.36481,-2.22922 -3.87531,-3.97024 -6.06299,-5.18898 -2.18769,-1.21872 -4.54242,-1.69641 -7.06299,-2.12335 -2.52057,-0.42694 -5.57086,0.64523 -8.06037,-0.43832 -2.4895,-1.08356 -4.24102,-4.51095 -6.87664,-6.06299 -2.63562,-1.55207 -5.85389,-2.6973 -8.93702,-3.24935 -3.08313,-0.55206 -7.29089,-0.0941 -9.5617,-0.063 -2.27075,0.0311 -2.69812,0.7909 -4.06299,0.24935 -1.36481,-0.54157 -2.40723,-2.42607 -4.12598,-3.49869 -1.71869,-1.07262 -3.81146,-2.41601 -6.18634,-2.93701 -2.37488,-0.521 -6.33374,-0.24103 -8.06299,-0.18898 -1.72924,0.0521 -1.09362,1.08443 -2.31231,0.50131 -1.21875,-0.58311 -3.26032,-3.09361 -5,-4 -1.73975,-0.90639 -2.90686,-1.1776 -5.43836,-1.43832 -2.53149,-0.26071 -7.30267,-0.52187 -9.75061,-0.12598 -2.448,0.39589 -3.51007,2.09493 -4.93701,2.50131 -1.42694,0.40639 -2.83337,0.19773 -3.62469,-0.063 -0.79132,-0.26072 -0.47766,-1.14698 -1.12336,-1.50131 -0.64569,-0.35434 -2.12554,-0.22923 -2.75067,-0.62468 -0.62512,-0.39544 0.85431,-1.38363 -1,-1.74803 -1.85431,-0.36439 -6.79266,-1.27165 -10.12597,-0.43832 -3.33332,0.83334 -7.66578,4.44882 -9.87403,5.43832 -2.20819,0.9895 -2.25018,0.7384 -3.3753,0.49869 -1.12512,-0.23972 -1.4064,-1.65573 -3.37534,-1.93701 -1.96896,-0.28127 -5.47989,-0.78171 -8.43832,0.24934 -2.95844,1.03107 -7.43744,4.92652 -9.31235,5.93701 -1.87488,1.0105 -1.30182,0.2406 -1.93701,0.12599 -0.63516,-0.1146 -0.0822,-0.68853 -1.87399,-0.81365 -1.79178,-0.12511 -6.05384,-0.61417 -8.87665,0.063 -2.82285,0.67715 -5.9252,2.52055 -8.06037,4 -2.13519,1.47943 -3.52145,3.73053 -4.75067,4.87663 -1.22921,1.1461 -0.64523,1.59406 -2.62466,2 -1.97943,0.40595 -6.31452,-0.73097 -9.25199,0.4357 -2.93743,1.16667 -5.54986,4.04331 -8.37268,6.5643 -2.82284,2.521 -5.91821,5.50963 -8.5643,8.56168 -2.64612,3.05206 -5.52057,6.88627 -7.31234,9.75065 -1.79178,2.8644 -2.17804,4.9777 -3.43833,7.4357 -1.26028,2.45801 -2.64435,3.88495 -4.12335,7.31233 -1.479,3.42739 -3.56299,11.66843 -4.75067,13.25197 -1.18765,1.58356 -1.22965,-1.00042 -2.37531,-3.75065 -1.14569,-2.75022 -2.80096,-8.95888 -4.49868,-12.75066 -1.69773,-3.79176 -2.97901,-6.03149 -5.68769,-10 -2.70865,-3.96849 -7.17889,-10.02974 -10.5643,-13.81102 -3.38537,-3.78128 -7.14392,-6.72003 -9.74801,-8.87663 -2.60413,-2.15662 -3.57438,-3.35477 -5.87665,-4.06301 -2.30228,-0.70822 -5.48908,0.87578 -7.93701,-0.18634 -2.44794,-1.06211 -4.56342,-4.45713 -6.75068,-6.18635 -2.18722,-1.72922 -3.18545,-3.37621 -6.37268,-4.18898 -3.18722,-0.81278 -9.84427,-0.46893 -12.75067,-0.68767 -2.90637,-0.21872 -3.18765,0.042 -4.68765,-0.62466 -1.5,-0.66668 -2.59363,-2.57306 -4.31235,-3.37534 -1.71872,-0.80226 -4.05206,-1.20909 -6,-1.43831 -1.94793,-0.22923 -4.0105,-0.24978 -5.68765,0.063 -1.67719,0.31277 -3.08356,1.78215 -4.37534,1.81364 -1.29177,0.0315 -2.07305,-0.97856 -3.37533,-1.62466 -1.30228,-0.64612 -3.29263,-1.81453 -4.43833,-2.25197 -1.14566,-0.43745 -1.71695,-0.0604 -2.43566,-0.37271 -0.71875,-0.31233 -0.0954,-1.2616 -1.87665,-1.50131 -1.78128,-0.23972 -7.08182,-0.17673 -8.81104,0.063 -1.72922,0.23973 -0.6579,1.042 -1.5643,1.37533 -0.90637,0.33333 -3.22833,0.21872 -3.87402,0.62467 -0.64566,0.40596 0.69772,1.55075 0,1.81103 -0.69772,0.26027 -2.69684,0.1461 -4.18634,-0.24934 -1.4895,-0.39546 -1.83377,-1.87358 -4.75067,-2.12337 -2.91687,-0.24979 -9.55249,-0.33333 -12.75064,0.62468 -3.19815,0.95799 -4.97989,4.27953 -6.43833,5.12335 -1.45843,0.84384 -0.54156,-0.008 -2.31235,-0.0604 -1.77075,-0.0521 -5.23971,-1.17891 -8.31231,-0.25197 -3.07262,0.92694 -7.93614,4.7616 -10.12337,5.81364 -2.18722,1.05207 -0.76028,0.43615 -3,0.49869 -2.23972,0.0626 -7.52144,-0.44662 -10.43832,-0.12335 -2.91689,0.32327 -5.06299,1.19859 -7.06299,2.06299 -2,0.86439 -3.47856,1.91513 -4.93701,3.12335 -1.45844,1.20824 -1.69904,3.40727 -3.81365,4.12599 -2.11461,0.71872 -5.98862,-0.28215 -8.87401,0.18636 -2.88539,0.4685 -6.2196,1.36395 -8.43832,2.62466 -2.21872,1.26073 -3.79091,3.09581 -4.87402,4.93964 -1.08312,1.84382 -1.31234,4.55073 -1.62467,6.12335 -0.31233,1.57262 -0.37445,2.02057 -0.24934,3.31235 0.12511,1.29176 0.56256,3.08398 1,4.43831 0.43744,1.35434 1.40594,2.542 1.62466,3.68766 0.21874,1.14568 0.31278,1.99913 -0.31233,3.18636 -0.62511,1.18723 -2.76115,2.20778 -3.43832,3.93701 -0.67716,1.72922 -0.67673,4.6881 -0.62467,6.43831 0.052,1.75023 0.53063,2.48994 0.93701,4.063 0.40639,1.57305 0.73053,3.83377 1.50132,5.37532 0.77076,1.54157 2.83201,2.43657 3.12335,3.87403 0.29133,1.43744 -1.24016,2.91731 -1.37532,4.75065 -0.13518,1.83333 -0.74848,3.05162 0.5643,6.24935 1.31277,3.19772 5.9895,10.28084 7.31233,12.93699 1.32283,2.65618 0.3644,0.98951 0.62468,3 0.26027,2.0105 -0.55251,5.73972 0.937,9.06299 1.4895,3.32327 6.32284,8.5538 8,10.87665 1.67717,2.32285 1.77122,2.0083 2.063,3.06036 0.29178,1.05207 -0.78084,1.27253 -0.31235,3.25199 0.46851,1.97943 1.06081,5.93744 3.12337,8.62466 2.06256,2.68723 7.0748,5.85303 9.25197,7.49869 2.17717,1.64566 2.80096,0.97943 3.81102,2.37533 1.01007,1.39588 1.44707,4 2.24934,6 0.80228,2 0.78304,3.98951 2.5643,6 1.78128,2.0105 5.35259,4.67759 8.12337,6.06299 2.77078,1.38538 6.77209,1.09317 8.50131,2.24933 1.72922,1.15619 1.04068,3.09363 1.87401,4.68768 0.83334,1.59406 1.0945,3.30359 3.12598,4.87662 2.03152,1.57306 6.85479,3.72836 9.06301,4.56171 2.20823,0.83331 3.23841,0.0634 4.18635,0.43829 0.94793,0.37491 1.76159,0.96765 1.50131,1.81104 -0.26029,0.84338 -1.69815,2.34295 -3.06299,3.24936 -1.36484,0.90637 -2.91776,0.84512 -5.12598,2.18896 -2.20822,1.34384 -5.46719,3.6658 -8.12336,5.87402 -2.65618,2.20823 -4.85521,4.50043 -7.81366,7.37531 -2.95844,2.87491 -7.04111,6.36352 -9.937,9.87402 -2.89589,3.5105 -5.33421,7.33466 -7.43832,11.189 -2.10411,3.85431 -3.49913,7.65573 -5.18636,11.93698 -1.68722,4.28128 -3.73885,9.38629 -4.93701,13.75067 -1.19815,4.36438 -1.77252,7.47726 -2.25197,12.4357 -0.47943,4.95843 -0.44749,13.74191 -0.62466,17.31494 -0.17717,3.57306 0.21785,2.40466 -0.43833,4.12338 -0.65616,1.71872 -1.7384,4.29309 -3.49869,6.18897 -1.76028,1.8959 -4.41731,2.93658 -7.06298,5.18634 -2.64568,2.24978 -5.95714,5.28128 -8.81102,8.31234 -2.8539,3.03107 -5.2183,5.33246 -8.31235,9.87403 -3.09404,4.54156 -7.31407,10.84384 -10.25197,17.37533 -2.93788,6.5315 -5.86482,15.26157 -7.37532,21.81363 -1.5105,6.55204 -1.58356,9.39457 -1.68767,17.49869 -0.10411,8.10413 -0.23927,21.08399 1.06299,31.12598 1.30228,10.04199 2.584,18.43835 6.75066,29.12598 4.16667,10.68768 10.45758,24.72924 18.24934,35 7.79178,10.27081 18.16799,18.91644 28.50131,26.62469 10.33335,7.70825 27.26947,14.95801 33.49869,19.6247 6.22922,4.66662 2.80359,4.95886 3.87665,8.3753 1.07306,3.41644 0.88495,6.98816 2.56168,12.12335 1.67672,5.1352 4.2384,12.72925 7.49868,18.68769 3.26029,5.95843 7.19815,11.63562 12.06299,17.06298 4.86484,5.42737 10.65704,10.91773 17.12598,15.50129 6.46896,4.58355 13.43789,8.45843 21.68768,12 8.24979,3.54156 18.84253,6.91601 27.81101,9.24939 8.9685,2.33331 18.9895,3.82366 26,4.75061 7.01049,0.92694 7.52102,0.6654 16.06301,0.81103 8.542,0.14569 25.25153,0.13562 35.18897,0.063 9.93744,-0.0726 17.4462,-0.12378 24.4357,-0.49866 6.9895,-0.37488 11.15747,-0.75067 17.50131,-1.75067 6.34384,-1 11.05118,-1.23883 20.56168,-4.24933 9.5105,-3.0105 26.32416,-8.34473 36.50128,-13.81366 10.17718,-5.46893 17.99914,-12.38537 24.5617,-19 6.56257,-6.61462 10.7616,-12.80231 14.81366,-20.68768 4.05207,-7.88538 7.7699,-20.47901 9.49866,-26.62464 1.72882,-6.14569 -0.18854,-7.99914 0.87403,-10.24939 1.06256,-2.25018 1.77209,-1.27252 5.50134,-3.25195 3.72919,-1.97943 9.16577,-3.52057 16.87402,-8.62469 7.70819,-5.10407 21.63556,-14.94794 29.37531,-22 7.73974,-7.05201 12.48993,-13.78125 17.06298,-20.31232 4.57306,-6.53107 7.521,-12.65527 10.37531,-18.87402 2.85437,-6.21869 5.01099,-11.9383 6.75067,-18.4383 1.73975,-6.5 2.76074,-13.85345 3.68768,-20.5617 0.92694,-6.70819 1.62421,-13.04157 1.87403,-19.68763 0.24975,-6.64611 0.41644,-14.12646 -0.37537,-20.18902 -0.79175,-6.06253 -2.76068,-10.98859 -4.3753,-16.18634 -1.61463,-5.19772 -3.05207,-10.30225 -5.31232,-15 -2.26032,-4.69772 -5.47858,-9.11328 -8.24939,-13.18634 -2.77075,-4.07306 -5.521,-7.99124 -8.37531,-11.25195 -2.85431,-3.26075 -6.18811,-6.17719 -8.75067,-8.31235 -2.56256,-2.13516 -4.54156,-2.37402 -6.62463,-4.49869 -2.08313,-2.12466 -4.82196,-5.71783 -5.87402,-8.24936 -1.05207,-2.53149 -0.30274,-4.14786 -0.43836,-6.9396 -0.13556,-2.79178 -0.16705,-6.3946 -0.3753,-9.81104 -0.20826,-3.41644 -0.14478,-6.62512 -0.87403,-10.68765 -0.72918,-4.06256 -2.1159,-9.32285 -3.50128,-13.68768 -1.38544,-4.36484 -2.33203,-7.72004 -4.81103,-12.50132 -2.47901,-4.78128 -6.88587,-11.84295 -10.06299,-16.18634 -3.17719,-4.34341 -6.07306,-6.94708 -9,-9.87402 -2.92694,-2.92694 -5.72833,-5.30228 -8.56171,-7.68765 -2.83331,-2.38541 -5.9173,-4.88495 -8.43829,-6.6247 -2.521,-1.73971 -5.18769,-2.91775 -6.68769,-3.81363 -1.5,-0.8959 -2.18719,-0.97812 -2.31231,-1.56167 -0.12512,-0.58356 0.73883,-1.43964 1.56164,-1.93964 0.82288,-0.5 1.84388,-0.50833 3.37537,-1.06036 z"
       id="path3098"
       style="stroke:#000000;stroke-width:2;stroke-linecap:butt;stroke-linejoin:round" /><path
       d="m 386.3859,281.07416 c 4.54898,0.91251 7.6684,-4.95975 10.77164,-8.21521 3.10324,-3.25546 6.23535,-6.54068 7.84778,-11.3176 1.61242,-4.77688 3.10455,-9.91993 1.82678,-17.34382 -1.2778,-7.42389 -5.021,-18.77165 -9.49344,-27.19948 -4.47244,-8.42781 -14.20737,-20.38539 -17.34122,-23.36745 -3.13385,-2.98207 -0.85303,4.24279 -1.46194,5.47507 -0.60892,1.23228 -1.4462,1.62949 -2.19159,1.91862 -0.74542,0.28916 -1.56607,0.19686 -2.28086,-0.18371 -0.71478,-0.38059 1.01969,1.17103 -2.00787,-2.09975 -3.02756,-3.27076 -13.32764,-15.39544 -16.15747,-17.52493 -2.82983,-2.12949 -0.60892,3.51575 -0.82153,4.74803 -0.21259,1.23229 -0.0892,1.77866 -0.45407,2.64568 -0.36481,0.86702 -1.0958,2.19116 -1.7349,2.55642 -0.6391,0.36527 -1.52145,-0.0604 -2.09973,-0.36482 -0.57831,-0.30447 0.19684,0.12029 -1.37009,-1.46194 -1.56692,-1.58225 -5.65835,-5.91689 -8.03149,-8.0315 -2.37314,-2.11462 -5.09668,-4.62555 -6.20737,-4.65617 -1.11065,-0.0306 -0.25894,3.10324 -0.45669,4.47244 -0.19773,1.3692 -0.1518,2.75372 -0.72965,3.74278 -0.57785,0.98906 -1.47506,2.45014 -2.73752,2.19161 -1.26248,-0.25853 -2.3421,-1.85652 -4.83728,-3.74278 -2.49517,-1.88628 -7.44094,-5.84034 -10.13385,-7.57482 -2.69293,-1.73446 -5.20211,-2.78608 -6.02362,-2.83201 -0.82153,-0.0459 0.74451,1.87182 1.09449,2.55642 0.34994,0.6846 0.8377,0.57744 1.00525,1.55118 0.16754,0.97376 0.25851,3.15006 0,4.29135 -0.25855,1.14128 -0.60807,2.43482 -1.55118,2.55643 -0.94315,0.12161 -1.90158,-0.7161 -4.10764,-1.82678 -2.20602,-1.11067 -5.66009,-3.37708 -9.1286,-4.83727 -3.4685,-1.46019 -9.73535,-3.72615 -11.6824,-3.92389 -1.94709,-0.19772 -0.38016,1.97727 0,2.73754 0.38012,0.76028 1.71829,1.20036 2.28082,1.82415 0.56256,0.6238 0.91208,1.00568 1.09451,1.91863 0.18241,0.91295 0.1518,2.73753 0,3.55907 -0.15179,0.82151 -0.30227,1.24845 -0.91076,1.37007 -0.60849,0.12161 -0.53412,0.1203 -2.74018,-0.64041 -2.20602,-0.76073 -6.89062,-2.90465 -10.49606,-3.92389 -3.60541,-1.01926 -9.4628,-2.20691 -11.13648,-2.19161 -1.67367,0.0153 0.5315,1.53806 1.09449,2.28346 0.56299,0.74541 1.90289,0.89589 2.28347,2.18898 0.38056,1.2931 0.62378,4.5958 0,5.56955 -0.6238,0.97376 -0.71524,0.88146 -3.74279,0.27297 -3.02756,-0.60848 -9.7524,-3.34558 -14.42256,-3.92388 -4.67017,-0.5783 -12.30535,-0.83901 -13.59844,0.45406 -1.29307,1.29309 6.35741,5.78304 5.83991,7.30447 -0.51751,1.52143 -4.41164,1.56562 -8.94489,1.82415 -4.53325,0.25853 -15.83595,-1.55075 -18.25459,-0.27297 -2.41864,1.27777 2.41951,5.12511 3.74278,7.93964 1.32327,2.81451 3.34514,6.3307 4.19685,8.94749 0.8517,2.61681 2.54113,5.77997 0.91338,6.75328 -1.62773,0.97333 -9.70602,-2.23709 -10.67978,-0.91337 -0.97375,1.3237 2.06824,5.64566 4.83727,8.85563 2.76902,3.20998 10.51399,8.09188 11.7769,10.40421 1.26291,2.31233 -2.37358,2.93744 -4.19948,3.46982 -1.8259,0.53236 -5.43219,-0.44271 -6.75591,-0.27559 -1.3237,0.1671 -3.08792,-1.01926 -1.18634,1.27821 1.90157,2.29746 9.68985,9.64655 12.5958,12.50656 2.90594,2.86002 4.00307,3.57351 4.83989,4.65355 0.83684,1.08005 0.36395,1.32459 0.1811,1.82675 -0.18284,0.5022 0.22791,0.97333 -1.27821,1.18637 -1.50612,0.21302 -6.31364,-0.0297 -7.75853,0.0919 -1.44488,0.12162 -2.31059,-0.86834 -0.91076,0.63779 1.39982,1.50613 5.68942,5.56912 9.3097,8.39896 3.6203,2.82983 11.028,6.73928 12.41208,8.58004 1.38408,1.84076 -2.41907,2.02362 -4.1076,2.46457 -1.68854,0.44095 -5.06563,-0.19903 -6.02362,0.18109 -0.95801,0.38016 -1.74804,0.48688 0.27559,2.09977 2.02362,1.61285 8.91513,5.81277 11.86613,7.57742 2.951,1.76465 3.87752,1.99124 5.83991,3.0105 1.96238,1.01922 4.59535,2.32895 5.93437,3.10498 1.33902,0.77603 1.87182,0.98861 2.09973,1.55118 0.2279,0.56256 0.74365,1.32238 -0.73227,1.82415 -1.47595,0.50174 -6.55643,0.94269 -8.12337,1.18634 -1.56692,0.24366 -1.35432,-0.13516 -1.27821,0.27561 0.0761,0.41073 -1.38408,0.72876 1.73491,2.18896 3.11897,1.46021 12.8412,5.14218 16.97899,6.57218 4.13781,1.43002 6.43307,1.15573 7.84778,2.00787 1.4147,0.85214 1.49212,2.08575 0.64041,3.10498 -0.85169,1.01926 -4.77689,2.26511 -5.75064,3.0105 -0.97376,0.74542 -2.16098,0.73141 -0.0919,1.46194 2.06912,0.73053 7.60803,2.26731 12.50656,2.92127 4.8985,0.65399 13.84207,0.22705 16.88452,1.00262 3.04242,0.77561 1.93262,2.41864 1.37006,3.65094 -0.56253,1.23227 -3.87839,2.82984 -4.7454,3.74277 -0.86703,0.91293 -1.43002,1.44577 -0.45669,1.73489 0.97333,0.28916 1.74801,0.41077 6.29657,0 4.54858,-0.41073 13.55557,-0.867 20.99475,-2.46454 7.43921,-1.59756 16.64261,-3.34777 23.64044,-7.12075 6.9978,-3.77295 14.07175,-10.48163 18.34644,-15.51706 4.27472,-5.03543 7.11899,-11.15091 7.30185,-14.69553 0.18286,-3.54461 -1.85388,-2.556 -6.20472,-6.57217 -4.35083,-4.01621 -13.23666,-12.21567 -19.90026,-17.52494 -6.66361,-5.30929 -12.99213,-9.58444 -20.08136,-14.33071 -7.08924,-4.74628 -14.72617,-9.53762 -22.45408,-14.14699 -7.7279,-4.60936 -17.14392,-9.75153 -23.91339,-13.50919 -6.76947,-3.75764 -13.58444,-7.13516 -16.7034,-9.03674 -3.11898,-1.90157 -3.83596,-2.60104 -2.01049,-2.3727 1.82544,0.22835 3.18109,-0.2126 12.96322,3.74279 9.78217,3.95538 35.88715,15.48687 45.72968,19.9895 9.84253,4.50262 5.50613,2.31015 13.32547,7.02624 7.81933,4.7161 25.2384,15.44356 33.59054,21.27034 8.35214,5.82678 11.9733,12.77777 16.52231,13.69028 z"
       id="path3100"
       style="fill:#274e13;fill-rule:nonzero" /><path
       d="m 386.3859,281.07416 c 4.54898,0.91251 7.6684,-4.95975 10.77164,-8.21521 3.10324,-3.25546 6.23535,-6.54068 7.84778,-11.3176 1.61242,-4.77688 3.10455,-9.91993 1.82678,-17.34382 -1.2778,-7.42389 -5.021,-18.77165 -9.49344,-27.19948 -4.47244,-8.42781 -14.20737,-20.38539 -17.34122,-23.36745 -3.13385,-2.98207 -0.85303,4.24279 -1.46194,5.47507 -0.60892,1.23228 -1.4462,1.62949 -2.19159,1.91862 -0.74542,0.28916 -1.56607,0.19686 -2.28086,-0.18371 -0.71478,-0.38059 1.01969,1.17103 -2.00787,-2.09975 -3.02756,-3.27076 -13.32764,-15.39544 -16.15747,-17.52493 -2.82983,-2.12949 -0.60892,3.51575 -0.82153,4.74803 -0.21259,1.23229 -0.0892,1.77866 -0.45407,2.64568 -0.36481,0.86702 -1.0958,2.19116 -1.7349,2.55642 -0.6391,0.36527 -1.52145,-0.0604 -2.09973,-0.36482 -0.57831,-0.30447 0.19684,0.12029 -1.37009,-1.46194 -1.56692,-1.58225 -5.65835,-5.91689 -8.03149,-8.0315 -2.37314,-2.11462 -5.09668,-4.62555 -6.20737,-4.65617 -1.11065,-0.0306 -0.25894,3.10324 -0.45669,4.47244 -0.19773,1.3692 -0.1518,2.75372 -0.72965,3.74278 -0.57785,0.98906 -1.47506,2.45014 -2.73752,2.19161 -1.26248,-0.25853 -2.3421,-1.85652 -4.83728,-3.74278 -2.49517,-1.88628 -7.44094,-5.84034 -10.13385,-7.57482 -2.69293,-1.73446 -5.20211,-2.78608 -6.02362,-2.83201 -0.82153,-0.0459 0.74451,1.87182 1.09449,2.55642 0.34994,0.6846 0.8377,0.57744 1.00525,1.55118 0.16754,0.97376 0.25851,3.15006 0,4.29135 -0.25855,1.14128 -0.60807,2.43482 -1.55118,2.55643 -0.94315,0.12161 -1.90158,-0.7161 -4.10764,-1.82678 -2.20602,-1.11067 -5.66009,-3.37708 -9.1286,-4.83727 -3.4685,-1.46019 -9.73535,-3.72615 -11.6824,-3.92389 -1.94709,-0.19772 -0.38016,1.97727 0,2.73754 0.38012,0.76028 1.71829,1.20036 2.28082,1.82415 0.56256,0.6238 0.91208,1.00568 1.09451,1.91863 0.18241,0.91295 0.1518,2.73753 0,3.55907 -0.15179,0.82151 -0.30227,1.24845 -0.91076,1.37007 -0.60849,0.12161 -0.53412,0.1203 -2.74018,-0.64041 -2.20602,-0.76073 -6.89062,-2.90465 -10.49606,-3.92389 -3.60541,-1.01926 -9.4628,-2.20691 -11.13648,-2.19161 -1.67367,0.0153 0.5315,1.53806 1.09449,2.28346 0.56299,0.74541 1.90289,0.89589 2.28347,2.18898 0.38056,1.2931 0.62378,4.5958 0,5.56955 -0.6238,0.97376 -0.71524,0.88146 -3.74279,0.27297 -3.02756,-0.60848 -9.7524,-3.34558 -14.42256,-3.92388 -4.67017,-0.5783 -12.30535,-0.83901 -13.59844,0.45406 -1.29307,1.29309 6.35741,5.78304 5.83991,7.30447 -0.51751,1.52143 -4.41164,1.56562 -8.94489,1.82415 -4.53325,0.25853 -15.83595,-1.55075 -18.25459,-0.27297 -2.41864,1.27777 2.41951,5.12511 3.74278,7.93964 1.32327,2.81451 3.34514,6.3307 4.19685,8.94749 0.8517,2.61681 2.54113,5.77997 0.91338,6.75328 -1.62773,0.97333 -9.70602,-2.23709 -10.67978,-0.91337 -0.97375,1.3237 2.06824,5.64566 4.83727,8.85563 2.76902,3.20998 10.51399,8.09188 11.7769,10.40421 1.26291,2.31233 -2.37358,2.93744 -4.19948,3.46982 -1.8259,0.53236 -5.43219,-0.44271 -6.75591,-0.27559 -1.3237,0.1671 -3.08792,-1.01926 -1.18634,1.27821 1.90157,2.29746 9.68985,9.64655 12.5958,12.50656 2.90594,2.86002 4.00307,3.57351 4.83989,4.65355 0.83684,1.08005 0.36395,1.32459 0.1811,1.82675 -0.18284,0.5022 0.22791,0.97333 -1.27821,1.18637 -1.50612,0.21302 -6.31364,-0.0297 -7.75853,0.0919 -1.44488,0.12162 -2.31059,-0.86834 -0.91076,0.63779 1.39982,1.50613 5.68942,5.56912 9.3097,8.39896 3.6203,2.82983 11.028,6.73928 12.41208,8.58004 1.38408,1.84076 -2.41907,2.02362 -4.1076,2.46457 -1.68854,0.44095 -5.06563,-0.19903 -6.02362,0.18109 -0.95801,0.38016 -1.74804,0.48688 0.27559,2.09977 2.02362,1.61285 8.91513,5.81277 11.86613,7.57742 2.951,1.76465 3.87752,1.99124 5.83991,3.0105 1.96238,1.01922 4.59535,2.32895 5.93437,3.10498 1.33902,0.77603 1.87182,0.98861 2.09973,1.55118 0.2279,0.56256 0.74365,1.32238 -0.73227,1.82415 -1.47595,0.50174 -6.55643,0.94269 -8.12337,1.18634 -1.56692,0.24366 -1.35432,-0.13516 -1.27821,0.27561 0.0761,0.41073 -1.38408,0.72876 1.73491,2.18896 3.11897,1.46021 12.8412,5.14218 16.97899,6.57218 4.13781,1.43002 6.43307,1.15573 7.84778,2.00787 1.4147,0.85214 1.49212,2.08575 0.64041,3.10498 -0.85169,1.01926 -4.77689,2.26511 -5.75064,3.0105 -0.97376,0.74542 -2.16098,0.73141 -0.0919,1.46194 2.06912,0.73053 7.60803,2.26731 12.50656,2.92127 4.8985,0.65399 13.84207,0.22705 16.88452,1.00262 3.04242,0.77561 1.93262,2.41864 1.37006,3.65094 -0.56253,1.23227 -3.87839,2.82984 -4.7454,3.74277 -0.86703,0.91293 -1.43002,1.44577 -0.45669,1.73489 0.97333,0.28916 1.74801,0.41077 6.29657,0 4.54858,-0.41073 13.55557,-0.867 20.99475,-2.46454 7.43921,-1.59756 16.64261,-3.34777 23.64044,-7.12075 6.9978,-3.77295 14.07175,-10.48163 18.34644,-15.51706 4.27472,-5.03543 7.11899,-11.15091 7.30185,-14.69553 0.18286,-3.54461 -1.85388,-2.556 -6.20472,-6.57217 -4.35083,-4.01621 -13.23666,-12.21567 -19.90026,-17.52494 -6.66361,-5.30929 -12.99213,-9.58444 -20.08136,-14.33071 -7.08924,-4.74628 -14.72617,-9.53762 -22.45408,-14.14699 -7.7279,-4.60936 -17.14392,-9.75153 -23.91339,-13.50919 -6.76947,-3.75764 -13.58444,-7.13516 -16.7034,-9.03674 -3.11898,-1.90157 -3.83596,-2.60104 -2.01049,-2.3727 1.82544,0.22835 3.18109,-0.2126 12.96322,3.74279 9.78217,3.95538 35.88715,15.48687 45.72968,19.9895 9.84253,4.50262 5.50613,2.31015 13.32547,7.02624 7.81933,4.7161 25.2384,15.44356 33.59054,21.27034 8.35214,5.82678 11.9733,12.77777 16.52231,13.69028 z"
       id="path3102"
       style="stroke:#000000;stroke-width:2;stroke-linecap:butt;stroke-linejoin:round" /><path
       d="m 456.2528,281.07745 c -4.54947,0.9126 -7.66919,-4.96027 -10.77274,-8.21606 -3.10354,-3.2558 -6.23596,-6.54133 -7.84857,-11.31873 -1.61258,-4.77737 -3.10486,-9.92093 -1.82693,-17.34555 1.27789,-7.42462 5.02148,-18.77353 9.49438,-27.20219 4.4729,-8.42867 14.20877,-20.38744 17.34293,-23.3698 3.13418,-2.98236 0.85312,4.24321 1.4621,5.47562 0.60897,1.2324 1.44635,1.62965 2.19183,1.91882 0.74548,0.28918 1.56619,0.19687 2.28107,-0.18375 0.71484,-0.38061 -1.01981,1.17116 2.00805,-2.09994 3.02786,-3.27111 13.32898,-15.39699 16.15912,-17.52669 2.83011,-2.1297 0.60898,3.5161 0.8216,4.7485 0.21261,1.23241 0.0892,1.77884 0.4541,2.64594 0.36487,0.86711 1.09591,2.19139 1.73507,2.55669 0.63919,0.36531 1.52161,-0.0604 2.09998,-0.36487 0.57834,-0.30449 -0.19687,0.12031 1.37021,-1.46208 1.56708,-1.5824 5.6589,-5.91749 8.03229,-8.03231 2.37338,-2.11482 5.09719,-4.626 6.20797,-4.65663 1.11078,-0.0306 0.25901,3.10355 0.45673,4.47289 0.19775,1.36933 0.15182,2.75399 0.72974,3.74316 0.57794,0.98915 1.47522,2.45038 2.73782,2.19182 1.2626,-0.25856 2.34232,-1.85671 4.83774,-3.74317 2.49542,-1.88644 7.44171,-5.84091 10.13489,-7.57556 2.69317,-1.73463 5.20263,-2.78636 6.02423,-2.8323 0.82159,-0.0459 -0.74463,1.87202 -1.09461,2.55668 -0.34997,0.68468 -0.83783,0.5775 -1.00537,1.55135 -0.16754,0.97385 -0.25854,3.15036 0,4.29176 0.25855,1.14142 0.60809,2.43506 1.55133,2.55669 0.94324,0.12163 1.9018,-0.71617 4.10803,-1.82695 2.20624,-1.1108 5.66071,-3.37741 9.12952,-4.83776 3.46887,-1.46034 9.73633,-3.72653 11.68359,-3.92428 1.94727,-0.19774 0.38019,1.97746 0,2.73781 -0.38018,0.76036 -1.71844,1.20047 -2.28106,1.82434 -0.56262,0.62385 -0.91217,1.00578 -1.09461,1.91882 -0.18243,0.91304 -0.15179,2.73781 0,3.5594 0.1518,0.82161 0.30231,1.2486 0.91089,1.37023 0.60852,0.12161 0.53412,0.1203 2.74042,-0.64049 2.20624,-0.76079 6.8913,-2.90492 10.49707,-3.92427 3.60583,-1.01935 9.46381,-2.20714 11.13763,-2.19183 1.67383,0.0153 -0.53155,1.53822 -1.0946,2.2837 -0.56305,0.74547 -1.90308,0.89597 -2.28369,2.1892 -0.38062,1.29321 -0.62384,4.59625 0,5.5701 0.62384,0.97386 0.71527,0.88154 3.74316,0.27299 3.02783,-0.60854 9.75336,-3.34592 14.42401,-3.92427 4.67066,-0.57837 12.30658,-0.83911 13.59979,0.45412 1.29322,1.29321 -6.35803,5.7836 -5.84051,7.30519 0.51758,1.52159 4.41211,1.56576 8.9458,1.82432 4.53369,0.25856 15.83752,-1.5509 18.25641,-0.27299 2.41888,1.27791 -2.41974,5.12562 -3.74316,7.94043 -1.32337,2.8148 -3.34546,6.33134 -4.19727,8.94839 -0.85181,2.61707 -2.54138,5.78055 -0.91345,6.75397 1.62787,0.9734 9.70697,-2.23732 10.68085,-0.91348 0.97381,1.32383 -2.06849,5.64624 -4.83777,8.85653 -2.76929,3.21029 -10.51502,8.09267 -11.77808,10.40523 -1.263,2.31258 2.37384,2.93775 4.19989,3.47017 1.82611,0.53243 5.43274,-0.44273 6.75659,-0.27562 1.32386,0.16712 3.08826,-1.01935 1.18647,1.27835 -1.90174,2.29769 -9.6908,9.64751 -12.59705,12.50782 -2.90625,2.86029 -4.00348,3.57383 -4.84039,4.654 -0.83692,1.08017 -0.36402,1.32471 -0.1811,1.82694 0.18287,0.50226 -0.22796,0.97342 1.27833,1.18649 1.50628,0.21304 6.31427,-0.0297 7.75927,0.0919 1.44507,0.12164 2.31085,-0.86841 0.91089,0.63788 -1.39996,1.50625 -5.69,5.56967 -9.31067,8.39978 -3.62066,2.8301 -11.02905,6.73996 -12.41327,8.5809 -1.38421,1.84097 2.41931,2.02383 4.10797,2.46481 1.68872,0.44101 5.06617,-0.19906 6.02424,0.18112 0.95812,0.38019 1.74823,0.48694 -0.27558,2.09995 -2.02386,1.61304 -8.91608,5.81335 -11.86737,7.57818 -2.95129,1.76484 -3.87787,1.99146 -5.84045,3.01081 -1.96259,1.01935 -4.59583,2.32919 -5.935,3.10531 -1.33917,0.7761 -1.87201,0.98871 -2.09992,1.55133 -0.22796,0.5626 -0.74377,1.32251 0.73236,1.82431 1.47608,0.50181 6.55707,0.94281 8.12415,1.1865 1.56708,0.24368 1.35449,-0.1352 1.27832,0.2756 -0.0761,0.4108 1.38422,0.72885 -1.73505,2.18921 -3.11932,1.46033 -12.84252,5.14267 -16.98071,6.57282 -4.13818,1.43014 -6.43371,1.15585 -7.84857,2.00808 -1.4148,0.85224 -1.49225,2.08594 -0.64044,3.10529 0.85174,1.01935 4.77734,2.26532 5.75122,3.0108 0.97381,0.74549 2.16119,0.73148 0.0919,1.4621 -2.06934,0.73059 -7.60883,2.26749 -12.50782,2.92154 -4.89898,0.65405 -13.84344,0.22705 -16.88623,1.00274 -3.04272,0.77567 -1.9328,2.41886 -1.37017,3.65128 0.56262,1.23239 3.87878,2.83011 4.74584,3.74316 0.86713,0.91303 1.43018,1.4459 0.45679,1.73508 -0.97345,0.28919 -1.74823,0.4108 -6.29724,0 -4.54901,-0.4108 -13.55688,-0.86713 -20.99682,-2.46481 -7.43998,-1.59772 -16.64429,-3.34812 -23.64283,-7.12146 -6.9985,-3.77335 -14.07315,-10.48267 -18.34826,-15.51862 -4.27515,-5.03592 -7.11972,-11.15204 -7.30259,-14.69699 -0.18286,-3.54498 1.85407,-2.55624 6.20536,-6.57284 4.35125,-4.01661 13.23797,-12.21689 19.90225,-17.52668 6.66428,-5.30981 12.99341,-9.58538 20.08334,-14.33215 7.08997,-4.74676 14.72766,-9.53857 22.45636,-14.14841 7.72864,-4.60981 17.14563,-9.7525 23.91577,-13.51053 6.77015,-3.75802 13.58576,-7.13587 16.70508,-9.03764 3.11926,-1.90178 3.83631,-2.60132 2.01068,-2.37295 -1.82562,0.22837 -3.18139,-0.21262 -12.96454,3.74316 -9.78314,3.95578 -35.89074,15.48842 -45.73425,19.9915 -9.84347,4.50308 -5.50665,2.31038 -13.32678,7.02695 -7.8201,4.71657 -25.24094,15.44513 -33.5939,21.27246 -8.353,5.82736 -11.97452,12.77905 -16.52396,13.69168 z"
       id="path3104"
       style="fill:#274e13;fill-rule:nonzero" /><path
       d="m 456.2528,281.07745 c -4.54947,0.9126 -7.66919,-4.96027 -10.77274,-8.21606 -3.10354,-3.2558 -6.23596,-6.54133 -7.84857,-11.31873 -1.61258,-4.77737 -3.10486,-9.92093 -1.82693,-17.34555 1.27789,-7.42462 5.02148,-18.77353 9.49438,-27.20219 4.4729,-8.42867 14.20877,-20.38744 17.34293,-23.3698 3.13418,-2.98236 0.85312,4.24321 1.4621,5.47562 0.60897,1.2324 1.44635,1.62965 2.19183,1.91882 0.74548,0.28918 1.56619,0.19687 2.28107,-0.18375 0.71484,-0.38061 -1.01981,1.17116 2.00805,-2.09994 3.02786,-3.27111 13.32898,-15.39699 16.15912,-17.52669 2.83011,-2.1297 0.60898,3.5161 0.8216,4.7485 0.21261,1.23241 0.0892,1.77884 0.4541,2.64594 0.36487,0.86711 1.09591,2.19139 1.73507,2.55669 0.63919,0.36531 1.52161,-0.0604 2.09998,-0.36487 0.57834,-0.30449 -0.19687,0.12031 1.37021,-1.46208 1.56708,-1.5824 5.6589,-5.91749 8.03229,-8.03231 2.37338,-2.11482 5.09719,-4.626 6.20797,-4.65663 1.11078,-0.0306 0.25901,3.10355 0.45673,4.47289 0.19775,1.36933 0.15182,2.75399 0.72974,3.74316 0.57794,0.98915 1.47522,2.45038 2.73782,2.19182 1.2626,-0.25856 2.34232,-1.85671 4.83774,-3.74317 2.49542,-1.88644 7.44171,-5.84091 10.13489,-7.57556 2.69317,-1.73463 5.20263,-2.78636 6.02423,-2.8323 0.82159,-0.0459 -0.74463,1.87202 -1.09461,2.55668 -0.34997,0.68468 -0.83783,0.5775 -1.00537,1.55135 -0.16754,0.97385 -0.25854,3.15036 0,4.29176 0.25855,1.14142 0.60809,2.43506 1.55133,2.55669 0.94324,0.12163 1.9018,-0.71617 4.10803,-1.82695 2.20624,-1.1108 5.66071,-3.37741 9.12952,-4.83776 3.46887,-1.46034 9.73633,-3.72653 11.68359,-3.92428 1.94727,-0.19774 0.38019,1.97746 0,2.73781 -0.38018,0.76036 -1.71844,1.20047 -2.28106,1.82434 -0.56262,0.62385 -0.91217,1.00578 -1.09461,1.91882 -0.18243,0.91304 -0.15179,2.73781 0,3.5594 0.1518,0.82161 0.30231,1.2486 0.91089,1.37023 0.60852,0.12161 0.53412,0.1203 2.74042,-0.64049 2.20624,-0.76079 6.8913,-2.90492 10.49707,-3.92427 3.60583,-1.01935 9.46381,-2.20714 11.13763,-2.19183 1.67383,0.0153 -0.53155,1.53822 -1.0946,2.2837 -0.56305,0.74547 -1.90308,0.89597 -2.28369,2.1892 -0.38062,1.29321 -0.62384,4.59625 0,5.5701 0.62384,0.97386 0.71527,0.88154 3.74316,0.27299 3.02783,-0.60854 9.75336,-3.34592 14.42401,-3.92427 4.67066,-0.57837 12.30658,-0.83911 13.59979,0.45412 1.29322,1.29321 -6.35803,5.7836 -5.84051,7.30519 0.51758,1.52159 4.41211,1.56576 8.9458,1.82432 4.53369,0.25856 15.83752,-1.5509 18.25641,-0.27299 2.41888,1.27791 -2.41974,5.12562 -3.74316,7.94043 -1.32337,2.8148 -3.34546,6.33134 -4.19727,8.94839 -0.85181,2.61707 -2.54138,5.78055 -0.91345,6.75397 1.62787,0.9734 9.70697,-2.23732 10.68085,-0.91348 0.97381,1.32383 -2.06849,5.64624 -4.83777,8.85653 -2.76929,3.21029 -10.51502,8.09267 -11.77808,10.40523 -1.263,2.31258 2.37384,2.93775 4.19989,3.47017 1.82611,0.53243 5.43274,-0.44273 6.75659,-0.27562 1.32386,0.16712 3.08826,-1.01935 1.18647,1.27835 -1.90174,2.29769 -9.6908,9.64751 -12.59705,12.50782 -2.90625,2.86029 -4.00348,3.57383 -4.84039,4.654 -0.83692,1.08017 -0.36402,1.32471 -0.1811,1.82694 0.18287,0.50226 -0.22796,0.97342 1.27833,1.18649 1.50628,0.21304 6.31427,-0.0297 7.75927,0.0919 1.44507,0.12164 2.31085,-0.86841 0.91089,0.63788 -1.39996,1.50625 -5.69,5.56967 -9.31067,8.39978 -3.62066,2.8301 -11.02905,6.73996 -12.41327,8.5809 -1.38421,1.84097 2.41931,2.02383 4.10797,2.46481 1.68872,0.44101 5.06617,-0.19906 6.02424,0.18112 0.95812,0.38019 1.74823,0.48694 -0.27558,2.09995 -2.02386,1.61304 -8.91608,5.81335 -11.86737,7.57818 -2.95129,1.76484 -3.87787,1.99146 -5.84045,3.01081 -1.96259,1.01935 -4.59583,2.32919 -5.935,3.10531 -1.33917,0.7761 -1.87201,0.98871 -2.09992,1.55133 -0.22796,0.5626 -0.74377,1.32251 0.73236,1.82431 1.47608,0.50181 6.55707,0.94281 8.12415,1.1865 1.56708,0.24368 1.35449,-0.1352 1.27832,0.2756 -0.0761,0.4108 1.38422,0.72885 -1.73505,2.18921 -3.11932,1.46033 -12.84252,5.14267 -16.98071,6.57282 -4.13818,1.43014 -6.43371,1.15585 -7.84857,2.00808 -1.4148,0.85224 -1.49225,2.08594 -0.64044,3.10529 0.85174,1.01935 4.77734,2.26532 5.75122,3.0108 0.97381,0.74549 2.16119,0.73148 0.0919,1.4621 -2.06934,0.73059 -7.60883,2.26749 -12.50782,2.92154 -4.89898,0.65405 -13.84344,0.22705 -16.88623,1.00274 -3.04272,0.77567 -1.9328,2.41886 -1.37017,3.65128 0.56262,1.23239 3.87878,2.83011 4.74584,3.74316 0.86713,0.91303 1.43018,1.4459 0.45679,1.73508 -0.97345,0.28919 -1.74823,0.4108 -6.29724,0 -4.54901,-0.4108 -13.55688,-0.86713 -20.99682,-2.46481 -7.43998,-1.59772 -16.64429,-3.34812 -23.64283,-7.12146 -6.9985,-3.77335 -14.07315,-10.48267 -18.34826,-15.51862 -4.27515,-5.03592 -7.11972,-11.15204 -7.30259,-14.69699 -0.18286,-3.54498 1.85407,-2.55624 6.20536,-6.57284 4.35125,-4.01661 13.23797,-12.21689 19.90225,-17.52668 6.66428,-5.30981 12.99341,-9.58538 20.08334,-14.33215 7.08997,-4.74676 14.72766,-9.53857 22.45636,-14.14841 7.72864,-4.60981 17.14563,-9.7525 23.91577,-13.51053 6.77015,-3.75802 13.58576,-7.13587 16.70508,-9.03764 3.11926,-1.90178 3.83631,-2.60132 2.01068,-2.37295 -1.82562,0.22837 -3.18139,-0.21262 -12.96454,3.74316 -9.78314,3.95578 -35.89074,15.48842 -45.73425,19.9915 -9.84347,4.50308 -5.50665,2.31038 -13.32678,7.02695 -7.8201,4.71657 -25.24094,15.44513 -33.5939,21.27246 -8.353,5.82736 -11.97452,12.77905 -16.52396,13.69168 z"
       id="path3106"
       style="stroke:#000000;stroke-width:2;stroke-linecap:butt;stroke-linejoin:round" /><path
       d="m 356.6283,373.25314 0,0 c 0,-20.56067 28.77362,-37.22836 64.2677,-37.22836 l 0,0 c 35.49408,0 64.26773,16.66769 64.26773,37.22836 l 0,0 c 0,20.56064 -28.77365,37.22833 -64.26773,37.22833 l 0,0 c -35.49408,0 -64.2677,-16.66769 -64.2677,-37.22833 z"
       id="path3108"
       style="fill:#be1e45;fill-rule:nonzero" /><path
       d="m 356.6283,373.25314 0,0 c 0,-20.56067 28.77362,-37.22836 64.2677,-37.22836 l 0,0 c 35.49408,0 64.26773,16.66769 64.26773,37.22836 l 0,0 c 0,20.56064 -28.77365,37.22833 -64.26773,37.22833 l 0,0 c -35.49408,0 -64.2677,-16.66769 -64.2677,-37.22833 z"
       id="path3110"
       style="stroke:#000000;stroke-width:4;stroke-linecap:butt;stroke-linejoin:round" /><path
       d="m 446.49442,516.31616 0,0 c -19.10819,-37.45972 -9.20908,-80.77881 22.11023,-96.75592 l 0,0 c 15.0401,-7.67249 33.10934,-7.8847 50.23276,-0.58997 17.12335,7.29471 31.89825,21.49884 41.07434,39.48761 l 0,0 c 19.10815,37.45969 9.2091,80.77881 -22.11023,96.75592 l 0,0 c -31.31934,15.97712 -72.19891,-1.43798 -91.3071,-38.89764 z"
       id="path3112"
       style="fill:#be1e45;fill-rule:nonzero" /><path
       d="m 446.49442,516.31616 0,0 c -19.10819,-37.45972 -9.20908,-80.77881 22.11023,-96.75592 l 0,0 c 15.0401,-7.67249 33.10934,-7.8847 50.23276,-0.58997 17.12335,7.29471 31.89825,21.49884 41.07434,39.48761 l 0,0 c 19.10815,37.45969 9.2091,80.77881 -22.11023,96.75592 l 0,0 c -31.31934,15.97712 -72.19891,-1.43798 -91.3071,-38.89764 z"
       id="path3114"
       style="stroke:#000000;stroke-width:4;stroke-linecap:butt;stroke-linejoin:round" /><path
       d="m 394.0902,520.6967 0,0 c 19.10818,-37.45969 9.20911,-80.77878 -22.11023,-96.75589 l 0,0 c -15.04007,-7.67249 -33.10931,-7.8847 -50.23273,-0.59 -17.12338,7.29474 -31.89828,21.49884 -41.07434,39.48764 l 0,0 c -19.10818,37.45969 -9.2091,80.77878 22.11023,96.75589 l 0,0 c 31.31934,15.97712 72.19891,-1.43792 91.30707,-38.89764 z"
       id="path3116"
       style="fill:#be1e45;fill-rule:nonzero" /><path
       d="m 394.0902,520.6967 0,0 c 19.10818,-37.45969 9.20911,-80.77878 -22.11023,-96.75589 l 0,0 c -15.04007,-7.67249 -33.10931,-7.8847 -50.23273,-0.59 -17.12338,7.29474 -31.89828,21.49884 -41.07434,39.48764 l 0,0 c -19.10818,37.45969 -9.2091,80.77878 22.11023,96.75589 l 0,0 c 31.31934,15.97712 72.19891,-1.43792 91.30707,-38.89764 z"
       id="path3118"
       style="stroke:#000000;stroke-width:4;stroke-linecap:butt;stroke-linejoin:round" /><path
       d="m 530.42267,350.90192 c -3.46851,-0.66931 -5.38446,-1.12424 -9.30969,-1.36746 -3.92517,-0.24323 -9.98163,-0.31977 -14.24146,-0.0919 -4.25985,0.22791 -8.99038,0.83551 -11.31759,1.45932 -2.32721,0.62378 -2.69116,0.83813 -2.64566,2.28345 0.0455,1.44531 0.46936,2.95056 2.91864,6.38846 2.44925,3.43786 8.09536,10.1159 11.77688,14.23883 3.68155,4.12292 5.77909,6.11725 10.31235,10.49868 4.53326,4.38147 11.95801,11.3176 16.88715,15.79004 4.92913,4.47245 7.5,6.90683 12.68768,11.04462 5.18762,4.13779 13.46368,10.20691 18.43829,13.78217 4.97461,3.57522 7.72791,5.55465 11.40943,7.66928 3.68158,2.11462 8.21527,4.09054 10.67981,5.01837 2.46453,0.92783 3.01226,0.91339 4.1076,0.54855 1.0954,-0.36483 2.06915,-0.31891 2.4646,-2.73752 0.39545,-2.41864 0.19727,-7.66668 -0.0919,-11.77429 -0.28918,-4.1076 -0.4414,-7.95758 -1.64306,-12.8714 -1.20166,-4.91382 -3.36133,-11.59143 -5.56696,-16.61154 -2.20557,-5.02011 -4.59357,-9.29483 -7.66663,-13.50918 -3.07305,-4.21436 -6.84649,-8.30796 -10.77166,-11.77689 -3.92524,-3.46896 -8.29181,-6.4812 -12.77954,-9.03677 -4.48774,-2.55555 -9.87226,-4.80576 -14.14698,-6.29657 -4.27472,-1.49082 -8.03283,-1.97901 -11.50134,-2.64829 z"
       id="path3120"
       style="fill:#be1e45;fill-rule:nonzero" /><path
       d="m 530.42267,350.90192 c -3.46851,-0.66931 -5.38446,-1.12424 -9.30969,-1.36746 -3.92517,-0.24323 -9.98163,-0.31977 -14.24146,-0.0919 -4.25985,0.22791 -8.99038,0.83551 -11.31759,1.45932 -2.32721,0.62378 -2.69116,0.83813 -2.64566,2.28345 0.0455,1.44531 0.46936,2.95056 2.91864,6.38846 2.44925,3.43786 8.09536,10.1159 11.77688,14.23883 3.68155,4.12292 5.77909,6.11725 10.31235,10.49868 4.53326,4.38147 11.95801,11.3176 16.88715,15.79004 4.92913,4.47245 7.5,6.90683 12.68768,11.04462 5.18762,4.13779 13.46368,10.20691 18.43829,13.78217 4.97461,3.57522 7.72791,5.55465 11.40943,7.66928 3.68158,2.11462 8.21527,4.09054 10.67981,5.01837 2.46453,0.92783 3.01226,0.91339 4.1076,0.54855 1.0954,-0.36483 2.06915,-0.31891 2.4646,-2.73752 0.39545,-2.41864 0.19727,-7.66668 -0.0919,-11.77429 -0.28918,-4.1076 -0.4414,-7.95758 -1.64306,-12.8714 -1.20166,-4.91382 -3.36133,-11.59143 -5.56696,-16.61154 -2.20557,-5.02011 -4.59357,-9.29483 -7.66663,-13.50918 -3.07305,-4.21436 -6.84649,-8.30796 -10.77166,-11.77689 -3.92524,-3.46896 -8.29181,-6.4812 -12.77954,-9.03677 -4.48774,-2.55555 -9.87226,-4.80576 -14.14698,-6.29657 -4.27472,-1.49082 -8.03283,-1.97901 -11.50134,-2.64829 z"
       id="path3122"
       style="stroke:#000000;stroke-width:4;stroke-linecap:butt;stroke-linejoin:round" /><path
       d="m 246.24695,398.6172 c -1.21062,3.31873 -1.96352,5.13849 -2.82581,8.97568 -0.8623,3.83719 -1.89784,9.80517 -2.34799,14.04745 -0.45013,4.24231 -0.59997,9.00952 -0.3529,11.40628 0.24708,2.39676 0.40104,2.7901 1.83535,2.97428 1.43433,0.18417 2.9878,0.004 6.77057,-1.8693 3.78276,-1.8735 11.27158,-6.38998 15.92606,-9.37164 4.65451,-2.98169 6.95615,-4.73669 12.00092,-8.51837 5.04477,-3.78168 13.07034,-10.01349 18.2677,-14.17163 5.19735,-4.15814 8.00854,-6.31079 12.91644,-10.77725 4.9079,-4.46647 12.21231,-11.67624 16.53097,-16.02152 4.31867,-4.34528 6.70957,-6.75012 9.38105,-10.05011 2.67151,-3.29999 5.34112,-7.46335 6.64788,-9.74982 1.30677,-2.28643 1.37934,-2.82953 1.19272,-3.9689 -0.18661,-1.13937 0.0131,-2.0936 -2.31241,-2.8674 -2.3255,-0.77383 -7.53881,-1.40997 -11.6405,-1.77551 -4.10168,-0.36557 -7.92724,-0.82547 -12.96963,-0.41779 -5.04236,0.40769 -11.97812,1.48172 -17.28458,2.86386 -5.30646,1.38211 -9.90582,3.0625 -14.55414,5.42887 -4.64834,2.36636 -9.28845,5.44336 -13.33584,8.76928 -4.04737,3.3259 -7.71375,7.16004 -10.94843,11.18619 -3.23466,4.02612 -6.30997,8.98615 -8.45955,12.9707 -2.14956,3.98456 -3.22726,7.61792 -4.43788,10.93665 z"
       id="path3124"
       style="fill:#be1e45;fill-rule:nonzero" /><path
       d="m 246.24695,398.6172 c -1.21062,3.31873 -1.96352,5.13849 -2.82581,8.97568 -0.8623,3.83719 -1.89784,9.80517 -2.34799,14.04745 -0.45013,4.24231 -0.59997,9.00952 -0.3529,11.40628 0.24708,2.39676 0.40104,2.7901 1.83535,2.97428 1.43433,0.18417 2.9878,0.004 6.77057,-1.8693 3.78276,-1.8735 11.27158,-6.38998 15.92606,-9.37164 4.65451,-2.98169 6.95615,-4.73669 12.00092,-8.51837 5.04477,-3.78168 13.07034,-10.01349 18.2677,-14.17163 5.19735,-4.15814 8.00854,-6.31079 12.91644,-10.77725 4.9079,-4.46647 12.21231,-11.67624 16.53097,-16.02152 4.31867,-4.34528 6.70957,-6.75012 9.38105,-10.05011 2.67151,-3.29999 5.34112,-7.46335 6.64788,-9.74982 1.30677,-2.28643 1.37934,-2.82953 1.19272,-3.9689 -0.18661,-1.13937 0.0131,-2.0936 -2.31241,-2.8674 -2.3255,-0.77383 -7.53881,-1.40997 -11.6405,-1.77551 -4.10168,-0.36557 -7.92724,-0.82547 -12.96963,-0.41779 -5.04236,0.40769 -11.97812,1.48172 -17.28458,2.86386 -5.30646,1.38211 -9.90582,3.0625 -14.55414,5.42887 -4.64834,2.36636 -9.28845,5.44336 -13.33584,8.76928 -4.04737,3.3259 -7.71375,7.16004 -10.94843,11.18619 -3.23466,4.02612 -6.30997,8.98615 -8.45955,12.9707 -2.14956,3.98456 -3.22726,7.61792 -4.43788,10.93665 z"
       id="path3126"
       style="stroke:#000000;stroke-width:4;stroke-linecap:butt;stroke-linejoin:round" /><path
       d="m 635.6687,490.6489 c -1.41516,-2.64697 -2.78571,-5.18723 -4.38324,-7.75851 -1.59753,-2.57132 -3.54419,-5.49387 -5.20209,-7.66929 -1.6579,-2.17541 -3.05688,-3.67935 -4.74542,-5.3832 -1.68854,-1.70386 -3.57519,-3.31846 -5.3858,-4.83991 -1.81061,-1.52142 -3.92609,-3.14786 -5.47772,-4.2887 -1.55158,-1.14086 -2.63031,-1.84121 -3.83197,-2.55645 -1.20166,-0.71521 -2.16059,-1.49167 -3.378,-1.7349 -1.2174,-0.24322 -2.63342,-0.43963 -3.92651,0.27561 -1.29309,0.71521 -2.46283,1.85562 -3.83203,4.01574 -1.3692,2.1601 -3.22699,4.53324 -4.38318,8.94486 -1.15619,4.41165 -2.24975,11.22662 -2.55383,17.52496 -0.30402,6.29831 -0.16797,11.83682 0.72967,20.26508 0.89765,8.42825 2.66321,21.31363 4.65619,30.30447 1.99298,8.99079 4.97461,17.72266 7.30182,23.64038 2.32721,5.91779 4.50134,8.93006 6.66144,11.86615 2.16009,2.93616 4.59534,4.62512 6.29919,5.75067 1.70386,1.12555 2.40247,1.48951 3.92389,1.00263 1.52143,-0.48688 2.89197,-1.52057 5.20471,-3.92389 2.31281,-2.40332 6.23798,-6.67761 8.67194,-10.49603 2.43396,-3.81849 4.38013,-8.65705 5.93176,-12.41474 1.55164,-3.75763 2.51093,-6.76904 3.37793,-10.13122 0.86701,-3.36219 1.45935,-5.90375 1.82416,-10.042 0.36481,-4.13824 0.56256,-10.54284 0.36481,-14.78741 -0.19769,-4.24451 -0.9278,-7.43961 -1.55115,-10.67978 -0.62335,-3.24014 -1.13953,-5.94705 -2.18896,-8.76114 -1.04944,-2.81409 -2.69251,-5.47638 -4.10761,-8.12338 z"
       id="path3128"
       style="fill:#be1e45;fill-rule:nonzero" /><path
       d="m 635.6687,490.6489 c -1.41516,-2.64697 -2.78571,-5.18723 -4.38324,-7.75851 -1.59753,-2.57132 -3.54419,-5.49387 -5.20209,-7.66929 -1.6579,-2.17541 -3.05688,-3.67935 -4.74542,-5.3832 -1.68854,-1.70386 -3.57519,-3.31846 -5.3858,-4.83991 -1.81061,-1.52142 -3.92609,-3.14786 -5.47772,-4.2887 -1.55158,-1.14086 -2.63031,-1.84121 -3.83197,-2.55645 -1.20166,-0.71521 -2.16059,-1.49167 -3.378,-1.7349 -1.2174,-0.24322 -2.63342,-0.43963 -3.92651,0.27561 -1.29309,0.71521 -2.46283,1.85562 -3.83203,4.01574 -1.3692,2.1601 -3.22699,4.53324 -4.38318,8.94486 -1.15619,4.41165 -2.24975,11.22662 -2.55383,17.52496 -0.30402,6.29831 -0.16797,11.83682 0.72967,20.26508 0.89765,8.42825 2.66321,21.31363 4.65619,30.30447 1.99298,8.99079 4.97461,17.72266 7.30182,23.64038 2.32721,5.91779 4.50134,8.93006 6.66144,11.86615 2.16009,2.93616 4.59534,4.62512 6.29919,5.75067 1.70386,1.12555 2.40247,1.48951 3.92389,1.00263 1.52143,-0.48688 2.89197,-1.52057 5.20471,-3.92389 2.31281,-2.40332 6.23798,-6.67761 8.67194,-10.49603 2.43396,-3.81849 4.38013,-8.65705 5.93176,-12.41474 1.55164,-3.75763 2.51093,-6.76904 3.37793,-10.13122 0.86701,-3.36219 1.45935,-5.90375 1.82416,-10.042 0.36481,-4.13824 0.56256,-10.54284 0.36481,-14.78741 -0.19769,-4.24451 -0.9278,-7.43961 -1.55115,-10.67978 -0.62335,-3.24014 -1.13953,-5.94705 -2.18896,-8.76114 -1.04944,-2.81409 -2.69251,-5.47638 -4.10761,-8.12338 z"
       id="path3130"
       style="stroke:#000000;stroke-width:4;stroke-linecap:butt;stroke-linejoin:round" /><path
       d="m 198.81828,492.36807 c 1.41513,-2.64697 2.78564,-5.18723 4.38319,-7.75855 1.59757,-2.57128 3.54419,-5.49386 5.20211,-7.66928 1.65793,-2.17541 3.05687,-3.67935 4.7454,-5.38321 1.68854,-1.70382 3.57524,-3.31845 5.38584,-4.83987 1.81057,-1.52145 3.92607,-3.14786 5.47769,-4.28873 1.55162,-1.14087 2.63035,-1.84121 3.83202,-2.55642 1.20166,-0.71524 2.16053,-1.4917 3.37796,-1.73493 1.2174,-0.24319 2.6334,-0.4396 3.92649,0.27561 1.29309,0.71521 2.46282,1.85565 3.83203,4.01574 1.36921,2.1601 3.22704,4.53324 4.3832,8.94489 1.15617,4.41162 2.24979,11.22659 2.5538,17.52493 0.30403,6.29834 0.16799,11.83682 -0.72966,20.26508 -0.89763,8.42828 -2.66316,21.31366 -4.65616,30.3045 -1.99299,8.99079 -4.97462,17.72266 -7.30183,23.64038 -2.32721,5.91779 -4.50131,8.92999 -6.66142,11.86615 -2.16011,2.93616 -4.59537,4.62512 -6.29921,5.75067 -1.70386,1.12555 -2.40245,1.48951 -3.92389,1.00263 -1.52144,-0.48688 -2.89196,-1.52057 -5.20473,-3.92389 -2.31277,-2.40332 -6.23796,-6.67761 -8.67191,-10.4961 -2.43396,-3.81842 -4.38014,-8.65704 -5.93176,-12.41467 -1.55162,-3.75763 -2.51094,-6.76904 -3.37796,-10.13122 -0.867,-3.36225 -1.45932,-5.90375 -1.82414,-10.042 -0.36482,-4.13824 -0.56256,-10.5429 -0.36482,-14.78741 0.19772,-4.24451 0.92781,-7.43964 1.55118,-10.67978 0.62335,-3.24017 1.13954,-5.94708 2.18898,-8.76117 1.04942,-2.81409 2.69247,-5.47638 4.1076,-8.12335 z"
       id="path3132"
       style="fill:#be1e45;fill-rule:nonzero" /><path
       d="m 198.81828,492.36807 c 1.41513,-2.64697 2.78564,-5.18723 4.38319,-7.75855 1.59757,-2.57128 3.54419,-5.49386 5.20211,-7.66928 1.65793,-2.17541 3.05687,-3.67935 4.7454,-5.38321 1.68854,-1.70382 3.57524,-3.31845 5.38584,-4.83987 1.81057,-1.52145 3.92607,-3.14786 5.47769,-4.28873 1.55162,-1.14087 2.63035,-1.84121 3.83202,-2.55642 1.20166,-0.71524 2.16053,-1.4917 3.37796,-1.73493 1.2174,-0.24319 2.6334,-0.4396 3.92649,0.27561 1.29309,0.71521 2.46282,1.85565 3.83203,4.01574 1.36921,2.1601 3.22704,4.53324 4.3832,8.94489 1.15617,4.41162 2.24979,11.22659 2.5538,17.52493 0.30403,6.29834 0.16799,11.83682 -0.72966,20.26508 -0.89763,8.42828 -2.66316,21.31366 -4.65616,30.3045 -1.99299,8.99079 -4.97462,17.72266 -7.30183,23.64038 -2.32721,5.91779 -4.50131,8.92999 -6.66142,11.86615 -2.16011,2.93616 -4.59537,4.62512 -6.29921,5.75067 -1.70386,1.12555 -2.40245,1.48951 -3.92389,1.00263 -1.52144,-0.48688 -2.89196,-1.52057 -5.20473,-3.92389 -2.31277,-2.40332 -6.23796,-6.67761 -8.67191,-10.4961 -2.43396,-3.81842 -4.38014,-8.65704 -5.93176,-12.41467 -1.55162,-3.75763 -2.51094,-6.76904 -3.37796,-10.13122 -0.867,-3.36225 -1.45932,-5.90375 -1.82414,-10.042 -0.36482,-4.13824 -0.56256,-10.5429 -0.36482,-14.78741 0.19772,-4.24451 0.92781,-7.43964 1.55118,-10.67978 0.62335,-3.24017 1.13954,-5.94708 2.18898,-8.76117 1.04942,-2.81409 2.69247,-5.47638 4.1076,-8.12335 z"
       id="path3134"
       style="stroke:#000000;stroke-width:4;stroke-linecap:butt;stroke-linejoin:round" /><path
       d="m 294.36166,615.1638 c -6.73972,3.81281 -8.25241,5.16797 -12.31494,8.18897 -4.06256,3.02105 -9.38364,7.72882 -12.06037,9.93701 -2.67675,2.20825 -3.29135,2.03106 -4,3.31238 -0.70867,1.28125 -0.19992,1.03149 -0.25198,4.3753 -0.0521,3.34381 -0.34164,10.59406 -0.0604,15.68768 0.28128,5.09363 0.9252,10.10321 1.74801,14.87403 0.82285,4.77075 1.52231,8.82367 3.189,13.75061 1.66666,4.927 4.11328,10.90466 6.811,15.81103 2.69773,4.90637 5.79178,9.35608 9.37534,13.62732 3.58356,4.27118 7.97989,8.46893 12.12598,12 4.14611,3.53107 7.14654,5.96765 12.75067,9.18634 5.60409,3.21875 14.86395,7.64697 20.87402,10.12598 6.01004,2.479 9.50919,3.26904 15.18634,4.74804 5.67716,1.47901 10.15793,3.05292 18.87665,4.12598 8.71872,1.07306 21.45669,1.9895 33.4357,2.31232 11.979,0.32287 28.74014,-0.0731 38.43832,-0.37531 9.69815,-0.30224 13.07349,-0.67804 19.75064,-1.43829 6.67716,-0.76032 13.79135,-1.8736 20.31235,-3.12341 6.521,-1.24976 13.41775,-2.75019 18.81363,-4.37531 5.3959,-1.62512 8.54114,-3.08356 13.56168,-5.3753 5.02056,-2.29181 11.5932,-5.3443 16.5617,-8.37537 4.96851,-3.03107 9.59314,-6.61328 13.24933,-9.81104 3.65619,-3.19769 5.67719,-5.66662 8.68768,-9.3753 3.0105,-3.70868 6.58356,-7.79309 9.37531,-12.87665 2.79181,-5.08356 5.59405,-11.62463 7.3753,-17.62463 1.78132,-6 2.67676,-12.02149 3.31238,-18.37537 0.63562,-6.35388 0.62641,-15.01922 0.50128,-19.74805 -0.12512,-4.72876 -0.27252,-6.16619 -1.25195,-8.62463 -0.97943,-2.45843 -1.91644,-3.50085 -4.62469,-6.12598 -2.70819,-2.62512 -7.24976,-6.64569 -11.62464,-9.62469 -4.37488,-2.979 -8.49957,-5.2699 -14.62469,-8.24933 -6.12512,-2.97943 -14.56342,-6.5022 -22.12598,-9.62732 -7.56256,-3.12512 -14.70779,-6.35254 -23.24933,-9.12335 -8.54156,-2.77075 -20.20825,-5.73053 -28,-7.50128 -7.79178,-1.77082 -12.39679,-2.33203 -18.75067,-3.12342 -6.35388,-0.79132 -12.4147,-1.31188 -19.37271,-1.62463 -6.95801,-0.3128 -14.27078,-0.62689 -22.37531,-0.25195 -8.10455,0.37488 -17.66842,1.12597 -26.25198,2.50128 -8.58356,1.3753 -16.04111,3.16754 -25.24933,5.75067 -9.20825,2.58313 -20.31277,5.67542 -30,9.74805 -9.68725,4.07257 -21.38367,10.87488 -28.12338,14.68762 z"
       id="path3136"
       style="fill:#fbdb85;fill-rule:nonzero" /><path
       d="m 294.36166,615.1638 c -6.73972,3.81281 -8.25241,5.16797 -12.31494,8.18897 -4.06256,3.02105 -9.38364,7.72882 -12.06037,9.93701 -2.67675,2.20825 -3.29135,2.03106 -4,3.31238 -0.70867,1.28125 -0.19992,1.03149 -0.25198,4.3753 -0.0521,3.34381 -0.34164,10.59406 -0.0604,15.68768 0.28128,5.09363 0.9252,10.10321 1.74801,14.87403 0.82285,4.77075 1.52231,8.82367 3.189,13.75061 1.66666,4.927 4.11328,10.90466 6.811,15.81103 2.69773,4.90637 5.79178,9.35608 9.37534,13.62732 3.58356,4.27118 7.97989,8.46893 12.12598,12 4.14611,3.53107 7.14654,5.96765 12.75067,9.18634 5.60409,3.21875 14.86395,7.64697 20.87402,10.12598 6.01004,2.479 9.50919,3.26904 15.18634,4.74804 5.67716,1.47901 10.15793,3.05292 18.87665,4.12598 8.71872,1.07306 21.45669,1.9895 33.4357,2.31232 11.979,0.32287 28.74014,-0.0731 38.43832,-0.37531 9.69815,-0.30224 13.07349,-0.67804 19.75064,-1.43829 6.67716,-0.76032 13.79135,-1.8736 20.31235,-3.12341 6.521,-1.24976 13.41775,-2.75019 18.81363,-4.37531 5.3959,-1.62512 8.54114,-3.08356 13.56168,-5.3753 5.02056,-2.29181 11.5932,-5.3443 16.5617,-8.37537 4.96851,-3.03107 9.59314,-6.61328 13.24933,-9.81104 3.65619,-3.19769 5.67719,-5.66662 8.68768,-9.3753 3.0105,-3.70868 6.58356,-7.79309 9.37531,-12.87665 2.79181,-5.08356 5.59405,-11.62463 7.3753,-17.62463 1.78132,-6 2.67676,-12.02149 3.31238,-18.37537 0.63562,-6.35388 0.62641,-15.01922 0.50128,-19.74805 -0.12512,-4.72876 -0.27252,-6.16619 -1.25195,-8.62463 -0.97943,-2.45843 -1.91644,-3.50085 -4.62469,-6.12598 -2.70819,-2.62512 -7.24976,-6.64569 -11.62464,-9.62469 -4.37488,-2.979 -8.49957,-5.2699 -14.62469,-8.24933 -6.12512,-2.97943 -14.56342,-6.5022 -22.12598,-9.62732 -7.56256,-3.12512 -14.70779,-6.35254 -23.24933,-9.12335 -8.54156,-2.77075 -20.20825,-5.73053 -28,-7.50128 -7.79178,-1.77082 -12.39679,-2.33203 -18.75067,-3.12342 -6.35388,-0.79132 -12.4147,-1.31188 -19.37271,-1.62463 -6.95801,-0.3128 -14.27078,-0.62689 -22.37531,-0.25195 -8.10455,0.37488 -17.66842,1.12597 -26.25198,2.50128 -8.58356,1.3753 -16.04111,3.16754 -25.24933,5.75067 -9.20825,2.58313 -20.31277,5.67542 -30,9.74805 -9.68725,4.07257 -21.38367,10.87488 -28.12338,14.68762 z"
       id="path3138"
       style="stroke:#000000;stroke-width:2;stroke-linecap:butt;stroke-linejoin:round" /><path
       d="m 353.65192,648.6311 0,0 c 0,-22.28272 5.52063,-40.34644 12.33069,-40.34644 l 0,0 c 3.27032,0 6.40668,4.25074 8.71915,11.8172 2.31243,7.56641 3.61157,17.82868 3.61157,28.52924 l 0,0 c 0,22.28271 -5.52066,40.34644 -12.33072,40.34644 l 0,0 c -3.2703,0 -6.40668,-4.25074 -8.71912,-11.8172 -2.31247,-7.56641 -3.61157,-17.82868 -3.61157,-28.52924 z"
       id="path3140"
       style="fill:#ffffff;fill-rule:nonzero" /><path
       d="m 353.65192,648.6311 0,0 c 0,-22.28272 5.52063,-40.34644 12.33069,-40.34644 l 0,0 c 3.27032,0 6.40668,4.25074 8.71915,11.8172 2.31243,7.56641 3.61157,17.82868 3.61157,28.52924 l 0,0 c 0,22.28271 -5.52066,40.34644 -12.33072,40.34644 l 0,0 c -3.2703,0 -6.40668,-4.25074 -8.71912,-11.8172 -2.31247,-7.56641 -3.61157,-17.82868 -3.61157,-28.52924 z"
       id="path3142"
       style="stroke:#000000;stroke-width:4;stroke-linecap:butt;stroke-linejoin:round" /><path
       d="m 353.60464,634.4893 0,0 c 0,30.09302 5.54181,54.48822 12.37796,54.48822 6.83615,0 12.37796,-24.3952 12.37796,-54.48822 l 0,0 c -8.12305,9.08136 -16.63287,9.08136 -24.75592,0 z"
       id="path3144"
       style="fill:#000000;fill-rule:nonzero" /><path
       d="m 353.60464,634.4893 0,0 c 0,30.09302 5.54181,54.48822 12.37796,54.48822 6.83615,0 12.37796,-24.3952 12.37796,-54.48822 l 0,0 c -8.12305,9.08136 -16.63287,9.08136 -24.75592,0 z"
       id="path3146"
       style="stroke:#000000;stroke-width:2;stroke-linecap:butt;stroke-linejoin:round" /><path
       d="m 456.65192,648.6311 0,0 c 0,-22.28272 5.52063,-40.34644 12.33069,-40.34644 l 0,0 c 3.27032,0 6.40668,4.25074 8.71915,11.8172 2.31243,7.56641 3.61157,17.82868 3.61157,28.52924 l 0,0 c 0,22.28271 -5.52066,40.34644 -12.33072,40.34644 l 0,0 c -3.2703,0 -6.40668,-4.25074 -8.71912,-11.8172 -2.31247,-7.56641 -3.61157,-17.82868 -3.61157,-28.52924 z"
       id="path3148"
       style="fill:#ffffff;fill-rule:nonzero" /><path
       d="m 456.65192,648.6311 0,0 c 0,-22.28272 5.52063,-40.34644 12.33069,-40.34644 l 0,0 c 3.27032,0 6.40668,4.25074 8.71915,11.8172 2.31243,7.56641 3.61157,17.82868 3.61157,28.52924 l 0,0 c 0,22.28271 -5.52066,40.34644 -12.33072,40.34644 l 0,0 c -3.2703,0 -6.40668,-4.25074 -8.71912,-11.8172 -2.31247,-7.56641 -3.61157,-17.82868 -3.61157,-28.52924 z"
       id="path3150"
       style="stroke:#000000;stroke-width:4;stroke-linecap:butt;stroke-linejoin:round" /><path
       d="m 456.60464,634.4893 0,0 c 0,30.09302 5.54181,54.48822 12.37796,54.48822 6.83615,0 12.37796,-24.3952 12.37796,-54.48822 l 0,0 c -8.12305,9.08136 -16.63287,9.08136 -24.75592,0 z"
       id="path3152"
       style="fill:#000000;fill-rule:nonzero" /><path
       d="m 456.60464,634.4893 0,0 c 0,30.09302 5.54181,54.48822 12.37796,54.48822 6.83615,0 12.37796,-24.3952 12.37796,-54.48822 l 0,0 c -8.12305,9.08136 -16.63287,9.08136 -24.75592,0 z"
       id="path3154"
       style="stroke:#000000;stroke-width:2;stroke-linecap:butt;stroke-linejoin:round" /></g></g></svg>