<?xml version="1.0" encoding="utf-8"?>
<!-- Generator: Adobe Illustrator 16.0.3, SVG Export Plug-In . SVG Version: 6.00 Build 0)  -->
<!DOCTYPE svg PUBLIC "-//W3C//DTD SVG 1.1//EN" "http://www.w3.org/Graphics/SVG/1.1/DTD/svg11.dtd">
<svg version="1.1" id="Layer_1" xmlns:svg="http://www.w3.org/2000/svg"
	 xmlns="http://www.w3.org/2000/svg" xmlns:xlink="http://www.w3.org/1999/xlink" x="0px" y="0px" width="568.929px"
	 height="116.145px" viewBox="-1 -1 568.929 116.145" enable-background="new -1 -1 568.929 116.145" xml:space="preserve">
<g>
	<polygon points="533.056,31.853 532.827,31.721 348.343,31.721 329.321,-1 238.374,-1 219.347,31.721 34.106,31.721 -1,51.605 
		-1,95.259 33.88,115.018 34.108,115.145 532.825,115.145 567.675,95.404 567.929,95.259 567.929,51.607 	"/>
	<polygon fill="#CED1DD" points="0,52.188 0,94.677 34.37,114.145 532.56,114.145 566.929,94.677 566.929,52.19 532.56,32.72 
		347.767,32.72 328.744,0 238.948,0 219.923,32.72 34.37,32.72 	"/>
	
		<linearGradient id="path14_1_" gradientUnits="userSpaceOnUse" x1="308.144" y1="1410.9641" x2="308.144" y2="1515.9807" gradientTransform="matrix(1 0 0 1 -24.4248 -1406.4004)">
		<stop  offset="0" style="stop-color:#D9DDE9"/>
		<stop  offset="0.39" style="stop-color:#777489"/>
		<stop  offset="0.98" style="stop-color:#D9DDE9"/>
	</linearGradient>
	<path id="path14" fill="url(#path14_1_)" d="M344.724,37.286L325.701,4.564h-0.252h-83.458h-0.25l-19.025,32.723H36.777
		L4.565,55.36v36.148l32.212,18.072h493.885l32.211-18.072V55.36l-32.211-18.072L344.724,37.286L344.724,37.286z"/>
	<path id="path16" fill="#202066" d="M309.46,13.469l-7.131,21.726h3.521l7.146-20.979c0.26-0.959,1.043-1.659,1.963-1.659
		c0.931,0,1.713,0.7,1.974,1.659l6.041,17.746h-9.479v3.232H327.6l-7.132-21.726c-0.684-2.396-2.893-4.146-5.51-4.146
		C312.351,9.321,310.146,11.071,309.46,13.469z M313.638,26.961l1.248-3.706l1.301,3.706H313.638z M313.121,16.323l-6.387,18.872
		h4.117l2.643-7.822v3.697h8.295l-4.926-14.747c-0.25-0.821-0.996-3.182-1.873-3.182C314.109,13.141,313.363,15.501,313.121,16.323
		L313.121,16.323z M290.572,13.438h12.344v-3.53h-12.639c-3.408,0-6.172,2.771-6.172,6.18v12.936c0,3.409,2.764,6.172,6.172,6.172
		h12.639V18.726h-9.992v3.234h6.461v9.702h-8.813c-1.627,0-2.936-1.315-2.936-2.938v-12.35
		C287.634,14.755,288.945,13.438,290.572,13.438z M292.923,22.844v3.531h2.055v0.882h-2.055c-0.486,0-0.883-0.396-0.883-0.882
		v-7.648c0-0.486,0.396-0.883,0.883-0.883h9.992V14.32h-11.461c-1.627,0-2.945,1.316-2.945,2.938v10.585
		c0,1.622,1.318,2.938,2.945,2.938h7.055v-7.938L292.923,22.844L292.923,22.844z M270.292,13.438h12.344v-3.53h-12.641
		c-3.408,0-6.17,2.771-6.17,6.18v12.792c0,3.408,2.762,6.179,6.17,6.179h12.641v-3.531h-12.344c-1.621,0-2.938-1.314-2.938-2.938
		V16.376C267.354,14.755,268.671,13.438,270.292,13.438L270.292,13.438z M279.987,21.961v-3.234h-8.227
		c0-0.486,0.395-0.883,0.883-0.883h9.992V14.32h-11.461c-1.621,0-2.936,1.316-2.936,2.938v4.703H279.987L279.987,21.961z
		 M279.987,23.14v3.234h-8.227c0,0.485,0.395,0.882,0.883,0.882h9.992v3.522h-11.461c-1.621,0-2.936-1.314-2.936-2.938v-4.703
		L279.987,23.14L279.987,23.14z M249.784,27.547h-7.412v3.233h11.314h0.145c2.123-0.076,3.82-1.827,3.82-3.966
		c0-2.189-1.773-3.972-3.965-3.972h-4.459c-1.803-0.686-3.334-2.474-3.334-4.559c0-2.679,2.467-4.848,5.145-4.848h11.027V9.907
		h-11.469c-4.541,0-8.225,3.69-8.225,8.233c0,4.55,3.979,8.234,8.521,8.234v-0.038l0.023,0.038h2.625
		c0.32,0,0.586,0.259,0.586,0.586c0,0.326-0.268,0.586-0.586,0.586H249.784L249.784,27.547z M254.646,17.554h7.42V14.32H250.75
		h-0.152c-2.123,0.076-3.818,1.827-3.818,3.966c0,2.198,1.779,3.973,3.973,3.973h4.459c1.803,0.692,3.326,2.473,3.326,4.558
		c0,2.68-2.465,4.849-5.146,4.849h-11.018v3.53h11.459c4.545,0,8.234-3.683,8.234-8.232c0-4.543-3.979-8.234-8.523-8.234v0.046
		l-0.029-0.045h-2.619c-0.328,0-0.586-0.259-0.586-0.586c0-0.319,0.258-0.586,0.586-0.586L254.646,17.554L254.646,17.554z"/>
	<g>
		
			<linearGradient id="polygon37_2_" gradientUnits="userSpaceOnUse" x1="220.7949" y1="1450.0256" x2="270.3067" y2="1499.5374" gradientTransform="matrix(1 0 0 1 -24.4248 -1406.4004)">
			<stop  offset="0" style="stop-color:#D9DDE9"/>
			<stop  offset="0.39" style="stop-color:#777489"/>
			<stop  offset="0.98" style="stop-color:#D9DDE9"/>
		</linearGradient>
		<polygon id="polygon37" fill="url(#polygon37_2_)" points="260.669,47.433 260.669,99.606 243.101,99.606 243.101,80.333 
			209.429,61.171 209.429,99.606 191.86,99.606 191.86,47.433 210.161,47.433 243.101,66.173 243.101,47.433 		"/>
		
			<linearGradient id="polygon37_3_" gradientUnits="userSpaceOnUse" x1="221.6904" y1="1450.804" x2="269.7215" y2="1498.8352" gradientTransform="matrix(1 0 0 1 -24.4248 -1406.4004)">
			<stop  offset="0" style="stop-color:#000000"/>
			<stop  offset="0.11" style="stop-color:#181C4E"/>
			<stop  offset="0.22" style="stop-color:#181818"/>
			<stop  offset="0.34" style="stop-color:#181C4E"/>
			<stop  offset="0.47" style="stop-color:#000000"/>
			<stop  offset="0.59" style="stop-color:#181C4E"/>
			<stop  offset="0.72" style="stop-color:#000000"/>
			<stop  offset="0.84" style="stop-color:#181C4E"/>
			<stop  offset="0.98" style="stop-color:#000000"/>
		</linearGradient>
		<polygon id="polygon37_1_" fill="url(#polygon37_3_)" points="259.698,48.156 259.698,98.649 242.626,98.649 242.626,79.995 
			209.903,61.45 209.903,98.649 192.83,98.649 192.83,48.156 210.614,48.156 242.626,66.29 242.626,48.156 		"/>
	</g>
	<g>
		
			<linearGradient id="rect58_2_" gradientUnits="userSpaceOnUse" x1="449.5093" y1="1461.4338" x2="499.7514" y2="1514.8802" gradientTransform="matrix(1 0 0 1 -24.4248 -1406.4004)">
			<stop  offset="0" style="stop-color:#D9DDE9"/>
			<stop  offset="0.39" style="stop-color:#777489"/>
			<stop  offset="0.98" style="stop-color:#D9DDE9"/>
		</linearGradient>
		<rect id="rect58" x="433.251" y="47.179" fill="url(#rect58_2_)" width="18.262" height="52.509"/>
		
			<linearGradient id="rect58_3_" gradientUnits="userSpaceOnUse" x1="450.2104" y1="1462.1799" x2="498.416" y2="1513.46" gradientTransform="matrix(1 0 0 1 -24.4248 -1406.4004)">
			<stop  offset="0" style="stop-color:#000000"/>
			<stop  offset="0.11" style="stop-color:#181C4E"/>
			<stop  offset="0.22" style="stop-color:#181818"/>
			<stop  offset="0.34" style="stop-color:#181C4E"/>
			<stop  offset="0.47" style="stop-color:#000000"/>
			<stop  offset="0.59" style="stop-color:#181C4E"/>
			<stop  offset="0.72" style="stop-color:#000000"/>
			<stop  offset="0.84" style="stop-color:#181C4E"/>
			<stop  offset="0.98" style="stop-color:#000000"/>
		</linearGradient>
		<rect id="rect58_1_" x="433.716" y="48.156" fill="url(#rect58_3_)" width="17.332" height="50.559"/>
	</g>
	<g>
		
			<linearGradient id="polygon79_2_" gradientUnits="userSpaceOnUse" x1="300.4995" y1="1450.3645" x2="350.3083" y2="1500.1731" gradientTransform="matrix(1 0 0 1 -24.4248 -1406.4004)">
			<stop  offset="0" style="stop-color:#D9DDE9"/>
			<stop  offset="0.39" style="stop-color:#777489"/>
			<stop  offset="0.98" style="stop-color:#D9DDE9"/>
		</linearGradient>
		<polygon id="polygon79" fill="url(#polygon79_2_)" points="320.921,57.68 290.917,57.68 290.917,68.182 326.921,68.182 
			309.669,78.684 290.917,78.684 290.917,89.186 339.673,89.186 322.421,99.688 272.915,99.688 272.915,59.182 290.917,47.179 
			338.173,47.179 		"/>
		
			<linearGradient id="polygon79_3_" gradientUnits="userSpaceOnUse" x1="301.6196" y1="1451.4602" x2="349.5781" y2="1499.4187" gradientTransform="matrix(1 0 0 1 -24.4248 -1406.4004)">
			<stop  offset="0" style="stop-color:#000000"/>
			<stop  offset="0.11" style="stop-color:#181C4E"/>
			<stop  offset="0.22" style="stop-color:#181818"/>
			<stop  offset="0.34" style="stop-color:#181C4E"/>
			<stop  offset="0.47" style="stop-color:#000000"/>
			<stop  offset="0.59" style="stop-color:#181C4E"/>
			<stop  offset="0.72" style="stop-color:#000000"/>
			<stop  offset="0.84" style="stop-color:#181C4E"/>
			<stop  offset="0.98" style="stop-color:#000000"/>
		</linearGradient>
		<polygon id="polygon79_1_" fill="url(#polygon79_3_)" points="320.378,58.266 291.488,58.266 291.488,68.378 326.156,68.378 
			309.544,78.49 291.488,78.49 291.488,88.6 338.433,88.6 321.824,98.714 274.153,98.714 274.153,59.712 291.488,48.156 
			336.99,48.156 		"/>
	</g>
	<g>
		
			<linearGradient id="polygon100_2_" gradientUnits="userSpaceOnUse" x1="141.2285" y1="1450.637" x2="190.7611" y2="1500.1694" gradientTransform="matrix(1 0 0 1 -24.4248 -1406.4004)">
			<stop  offset="0" style="stop-color:#D9DDE9"/>
			<stop  offset="0.39" style="stop-color:#777489"/>
			<stop  offset="0.98" style="stop-color:#D9DDE9"/>
		</linearGradient>
		<polygon id="polygon100" fill="url(#polygon100_2_)" points="161.399,57.878 131.563,57.878 131.563,68.317 167.366,68.317 
			150.21,78.762 131.563,78.762 131.563,89.204 180.047,89.204 162.89,99.647 113.66,99.647 113.66,59.368 131.563,47.433 
			178.555,47.433 		"/>
		
			<linearGradient id="polygon100_3_" gradientUnits="userSpaceOnUse" x1="142.0806" y1="1451.468" x2="190.2064" y2="1499.5938" gradientTransform="matrix(1 0 0 1 -24.4248 -1406.4004)">
			<stop  offset="0" style="stop-color:#000000"/>
			<stop  offset="0.11" style="stop-color:#181C4E"/>
			<stop  offset="0.22" style="stop-color:#181818"/>
			<stop  offset="0.34" style="stop-color:#181C4E"/>
			<stop  offset="0.47" style="stop-color:#000000"/>
			<stop  offset="0.59" style="stop-color:#181C4E"/>
			<stop  offset="0.72" style="stop-color:#000000"/>
			<stop  offset="0.84" style="stop-color:#181C4E"/>
			<stop  offset="0.98" style="stop-color:#000000"/>
		</linearGradient>
		<polygon id="polygon100_1_" fill="url(#polygon100_3_)" points="160.984,58.319 131.996,58.319 131.996,68.468 166.783,68.468 
			150.113,78.615 131.996,78.615 131.996,88.76 179.104,88.76 162.436,98.905 114.601,98.905 114.601,59.768 131.996,48.174 
			177.654,48.174 		"/>
	</g>
	<g>
		
			<linearGradient id="polygon121_2_" gradientUnits="userSpaceOnUse" x1="64.9922" y1="1454.7668" x2="113.8675" y2="1503.6422" gradientTransform="matrix(1 0 0 1 -24.4248 -1406.4004)">
			<stop  offset="0" style="stop-color:#D9DDE9"/>
			<stop  offset="0.39" style="stop-color:#777489"/>
			<stop  offset="0.98" style="stop-color:#D9DDE9"/>
		</linearGradient>
		<polygon id="polygon121" fill="url(#polygon121_2_)" points="29.562,59.372 47.47,47.433 101.942,47.433 84.779,57.882 
			47.47,57.882 47.47,89.219 81.048,89.219 81.048,76.534 60.155,76.534 77.317,66.089 98.958,66.089 98.958,87.727 81.048,99.667 
			29.562,99.667 		"/>
		
			<linearGradient id="polygon121_3_" gradientUnits="userSpaceOnUse" x1="65.687" y1="1455.4641" x2="113.1985" y2="1502.9756" gradientTransform="matrix(1 0 0 1 -24.4248 -1406.4004)">
			<stop  offset="0" style="stop-color:#000000"/>
			<stop  offset="0.11" style="stop-color:#181C4E"/>
			<stop  offset="0.22" style="stop-color:#181818"/>
			<stop  offset="0.34" style="stop-color:#181C4E"/>
			<stop  offset="0.47" style="stop-color:#000000"/>
			<stop  offset="0.59" style="stop-color:#181C4E"/>
			<stop  offset="0.72" style="stop-color:#000000"/>
			<stop  offset="0.84" style="stop-color:#181C4E"/>
			<stop  offset="0.98" style="stop-color:#000000"/>
		</linearGradient>
		<polygon id="polygon121_1_" fill="url(#polygon121_3_)" points="30.563,59.76 47.971,48.156 100.922,48.156 84.238,58.311 
			47.971,58.311 47.971,88.776 80.611,88.776 80.611,76.444 60.302,76.444 76.985,66.29 98.021,66.29 98.021,87.325 80.611,98.93 
			30.563,98.93 		"/>
	</g>
	<g>
		<polygon fill="#C2C4D2" points="422.089,89.034 404.587,99.688 350.558,99.688 368.06,89.034 402.304,89.034 402.304,78.382 
			350.558,78.382 350.558,57.835 368.06,47.179 422.851,47.179 405.349,57.835 369.582,57.835 369.582,67.725 422.089,67.725 		"/>
		
			<linearGradient id="polygon142_2_" gradientUnits="userSpaceOnUse" x1="350.5229" y1="-651.3997" x2="422.8159" y2="-651.3997" gradientTransform="matrix(1 0 0 -1 0.0352 -577.9663)">
			<stop  offset="0" style="stop-color:#D9DDE9"/>
			<stop  offset="0.39" style="stop-color:#777489"/>
			<stop  offset="0.98" style="stop-color:#D9DDE9"/>
		</linearGradient>
		<polygon id="polygon142" fill="url(#polygon142_2_)" points="402.304,89.034 402.304,78.382 350.558,78.382 350.558,57.835 
			368.06,47.179 422.851,47.179 405.349,57.835 369.582,57.835 369.582,67.725 422.089,67.725 422.089,89.034 404.587,99.688 
			350.558,99.688 368.06,89.034 		"/>
		
			<linearGradient id="polygon142_3_" gradientUnits="userSpaceOnUse" x1="381.4263" y1="1450.1321" x2="430.443" y2="1499.1486" gradientTransform="matrix(1 0 0 1 -24.4248 -1406.4004)">
			<stop  offset="0" style="stop-color:#000000"/>
			<stop  offset="0.11" style="stop-color:#181C4E"/>
			<stop  offset="0.22" style="stop-color:#181818"/>
			<stop  offset="0.34" style="stop-color:#181C4E"/>
			<stop  offset="0.47" style="stop-color:#000000"/>
			<stop  offset="0.59" style="stop-color:#181C4E"/>
			<stop  offset="0.72" style="stop-color:#000000"/>
			<stop  offset="0.84" style="stop-color:#181C4E"/>
			<stop  offset="0.98" style="stop-color:#000000"/>
		</linearGradient>
		<polygon id="polygon142_1_" fill="url(#polygon142_3_)" points="401.724,88.454 401.724,78.198 351.902,78.198 351.902,58.413 
			368.753,48.156 421.507,48.156 404.656,58.413 370.218,58.413 370.218,67.938 420.775,67.938 420.775,88.454 403.923,98.714 
			351.902,98.714 368.753,88.454 		"/>
	</g>
	<g>
		<polygon fill="#C2C4D2" points="533.447,89.034 515.945,99.688 461.914,99.688 479.417,89.034 513.662,89.034 513.662,78.382 
			461.914,78.382 461.914,57.835 479.417,47.179 534.207,47.179 516.705,57.835 480.939,57.835 480.939,67.725 533.447,67.725 		"/>
		
			<linearGradient id="polygon163_2_" gradientUnits="userSpaceOnUse" x1="491.6362" y1="1448.9846" x2="542.5464" y2="1499.8948" gradientTransform="matrix(1 0 0 1 -24.4248 -1406.4004)">
			<stop  offset="0" style="stop-color:#D9DDE9"/>
			<stop  offset="0.39" style="stop-color:#777489"/>
			<stop  offset="0.98" style="stop-color:#D9DDE9"/>
		</linearGradient>
		<polygon id="polygon163" fill="url(#polygon163_2_)" points="513.662,89.034 513.662,78.382 461.914,78.382 461.914,57.835 
			479.417,47.179 534.207,47.179 516.705,57.835 480.939,57.835 480.939,67.725 533.447,67.725 533.447,89.034 515.945,99.688 
			461.914,99.688 479.417,89.034 		"/>
		
			<linearGradient id="polygon163_3_" gradientUnits="userSpaceOnUse" x1="492.7817" y1="1450.1321" x2="541.799" y2="1499.1493" gradientTransform="matrix(1 0 0 1 -24.4248 -1406.4004)">
			<stop  offset="0" style="stop-color:#000000"/>
			<stop  offset="0.11" style="stop-color:#181C4E"/>
			<stop  offset="0.22" style="stop-color:#181818"/>
			<stop  offset="0.34" style="stop-color:#181C4E"/>
			<stop  offset="0.47" style="stop-color:#000000"/>
			<stop  offset="0.59" style="stop-color:#181C4E"/>
			<stop  offset="0.72" style="stop-color:#000000"/>
			<stop  offset="0.84" style="stop-color:#181C4E"/>
			<stop  offset="0.98" style="stop-color:#000000"/>
		</linearGradient>
		<polygon id="polygon163_1_" fill="url(#polygon163_3_)" points="513.082,88.454 513.082,78.198 463.257,78.198 463.257,58.413 
			480.111,48.156 532.865,48.156 516.011,58.413 481.576,58.413 481.576,67.938 532.132,67.938 532.132,88.454 515.279,98.714 
			463.257,98.714 480.111,88.454 		"/>
	</g>
</g>
</svg>
