<?xml version="1.0" encoding="utf-8"?>
<!-- Generator: Adobe Illustrator 16.0.3, SVG Export Plug-In . SVG Version: 6.00 Build 0)  -->
<!DOCTYPE svg PUBLIC "-//W3C//DTD SVG 1.1//EN" "http://www.w3.org/Graphics/SVG/1.1/DTD/svg11.dtd">
<svg version="1.1" xmlns="http://www.w3.org/2000/svg" xmlns:xlink="http://www.w3.org/1999/xlink" x="0px" y="0px"
	 width="566.929px" height="104.51px" viewBox="0 0 566.929 104.51" enable-background="new 0 0 566.929 104.51"
	 xml:space="preserve">
<g id="Layer_2">
	<g>
		<path d="M566.929,84.51c0,11-9,20-20,20H20c-11,0-20-9-20-20V20C0,9,9,0,20,0h526.929c11,0,20,9,20,20V84.51z"/>
	</g>
</g>
<g id="Layer_1">
	<g>
		<polygon fill="#FF0000" points="432.612,68.958 384.13,86.539 432.921,86.539 451.475,76.296 		"/>
		<polygon fill="#FF0000" points="387.336,18.221 444.932,18.221 521.617,57.097 491.545,57.097 470.401,47.377 457.365,52.681 		
			"/>
		<polygon fill="#FFCC00" points="494.603,36.031 543.091,18.458 494.302,18.458 475.749,28.693 		"/>
		<polygon fill="#FFCC00" points="539.886,86.768 482.291,86.768 405.605,47.892 435.676,47.892 456.822,57.613 469.857,52.308 		
			"/>
		<rect x="23.837" y="17.749" fill="#FFCC00" width="38.175" height="46.65"/>
		<rect x="23.837" y="70.11" fill="#FFCC00" width="97.824" height="14.281"/>
		<polygon fill="#FFCC00" points="85.87,17.749 131.21,17.749 162.227,43.926 139.807,60.375 		"/>
		<polygon fill="#FFCC00" points="143.136,62.967 143.136,84.392 178.927,84.392 178.927,62.967 248.125,17.749 214.718,17.749 
			145.526,62.967 		"/>
		<polygon fill="#FFCC00" points="252.899,24.885 291.074,48.686 291.074,84.392 252.899,84.392 		"/>
		<polygon fill="#FFCC00" points="257.667,17.749 355.498,84.392 376.972,84.392 376.972,17.742 358.361,17.742 358.361,64.613 
			288.69,17.749 		"/>
	</g>
</g>
</svg>
