<?xml version="1.0" encoding="UTF-8" standalone="no"?>
<!-- Generator: Adobe Illustrator 13.0.0, SVG Export Plug-In . SVG Version: 6.00 Build 14948)  -->
<svg id="Layer_1" xmlns:rdf="http://www.w3.org/1999/02/22-rdf-syntax-ns#" xmlns="http://www.w3.org/2000/svg" xml:space="preserve" height="69.41px" viewBox="0.001 -1 567.926 69.41" width="567.93px" version="1.2" y="0px" x="0px" xmlns:cc="http://creativecommons.org/ns#" xmlns:dc="http://purl.org/dc/elements/1.1/"><metadata id="metadata22"><rdf:RDF><cc:Work rdf:about=""><dc:format>image/svg+xml</dc:format><dc:type rdf:resource="http://purl.org/dc/dcmitype/StillImage"/><dc:title/></cc:Work></rdf:RDF></metadata>
<g id="g3" stroke="#EDEDED" stroke-width="2" fill="#4d4d4d">
	<path id="path5" d="M213.3,56.3c-4.779,6.492-9.51,8.334-11.58,9.33-2.068,0.998-5.201,1.779-7.941,1.779-7.689,0-13.688-2.508-18-7.5-4.314-5.017-6.469-12.048-6.469-21.165,0-10.782,2.719-19.924,8.182-27.472,5.46-7.522,12.7-11.272,21.72-11.272,6.846,0,12.445,1.922,16.828,5.789,4.383,3.844,6.564,9.891,6.564,18.117h-13.244c0-3.938-0.867-6.703-2.604-8.298-1.732-1.569-4.219-2.366-7.477-2.366-5.32,0-9.422,2.601-12.352,7.78-2.906,5.204-4.385,11.109-4.385,17.742,0,4.524,0.963,8.229,2.838,11.086,1.898,2.885,4.732,4.313,8.508,4.313,3.938,0,6.984-1.125,9.188-3.354,2.18-2.202,3.797-5.063,4.828-8.556h-12.33l1.996-12h24.045l-2.039,11.625c0,0.007-1.52,7.93-6.28,14.422z"/>
	<polygon id="polygon9" points="327.63,1.666,316.87,65.84,305.29,65.84,314.41,16.104,294.3,65.84,284.81,65.84,280.43,16.127,273.51,65.84,261.79,65.84,272.5,1.666,288.93,1.666,292.62,46.855,311.08,1.547"/>
	<polygon id="polygon11" points="339.89,26.509,358.8,26.509,356.83,38.956,337.92,38.956,335.48,52.62,356.83,52.62,354.72,65.84,321.07,65.84,331.71,1.594,364.96,1.594,362.93,14.907,342,14.907"/>
	<path id="path13" d="M239.08,1.547l-25.87,64.293h12.609l4.617-12.541h16.5l1.078,12.541h12.211l-7.313-64.292-13.84-0.001zm-4.64,40.784l9.377-25.571,2.178,25.571h-11.56z"/>
</g>
<g id="g9" stroke="#EDEDED" stroke-width="2" fill="#4d4d4d">
	<path id="path5_1_" d="M430.28,56.3c-4.781,6.492-9.51,8.334-11.58,9.331-2.068,0.997-5.201,1.779-7.941,1.779-7.688,0-13.688-2.509-18-7.5-4.314-5.017-6.471-12.046-6.471-21.164,0-10.782,2.721-19.923,8.182-27.472,5.461-7.522,12.703-11.272,21.727-11.272,6.844,0,12.445,1.922,16.828,5.789,4.385,3.845,6.563,9.893,6.563,18.118h-13.24c0-3.938-0.865-6.703-2.604-8.298-1.732-1.568-4.219-2.366-7.477-2.366-5.32,0-9.422,2.601-12.352,7.78-2.908,5.204-4.383,11.109-4.383,17.743,0,4.523,0.961,8.229,2.834,11.085,1.898,2.885,4.734,4.313,8.51,4.313,3.938,0,6.984-1.125,9.188-3.353,2.18-2.203,3.797-5.063,4.83-8.556h-12.33l1.992-12h24.047l-2.039,11.625c0,0.003-1.53,7.926-6.29,14.418z"/>
	<polygon id="polygon15" points="454.99,26.532,473.88,26.532,471.94,38.956,453.02,38.956,450.56,52.62,471.94,52.62,469.83,65.862,436.17,65.862,446.81,1.594,480.07,1.594,478.03,14.906,457.1,14.906"/>
	<path id="path17" d="M496.8,1.573l-25.875,64.292h12.635l4.594-12.54h16.523l1.076,12.54h12.189l-7.314-64.292h-13.83zm-4.62,40.757l9.355-25.572,2.203,25.572h-11.557z"/>
	<path id="path19" d="M537.49,29.836l2.813-15.819h6.75c2.484,0,4.336,0.444,5.578,1.336,1.242,0.914,1.852,2.718,1.852,5.438,0,3.047-1.008,5.297-3,6.798-2.018,1.5-4.57,2.249-7.664,2.249l-6.33-0.002zm-7.61-28.242l-10.641,64.268h12.303l4.127-24.492h5.695l9.516,24.492h14.109l-10.549-27.117c3.682-1.875,6.846-4.993,9.049-8.25,2.297-3.353,3.443-7.267,3.443-11.743,0-6.07-1.357-10.431-4.102-13.125-2.719-2.694-6.588-4.031-11.555-4.031l-21.4-0.002z"/>
</g>
<path id="path21" d="M10.274,26.281c10.857-18.21,25.803-29.576,33.383-25.426,7.564,4.168,4.898,22.309-5.979,40.506-10.859,18.211-25.803,29.575-33.365,25.423-7.582-4.165-4.9-22.307,5.961-40.503z" fill="#D61808"/>
<path id="path21_2_" d="M58.846,26.281c10.858-18.21,25.803-29.576,33.381-25.426,7.564,4.168,4.898,22.309-5.979,40.506-10.857,18.211-25.802,29.575-33.365,25.423-7.58-4.165-4.898-22.307,5.963-40.503z" fill="#008400"/>
<path id="path21_3_" d="M107.42,26.281c10.85-18.211,25.8-29.576,33.38-25.427,7.564,4.168,4.898,22.309-5.979,40.506-10.859,18.211-25.801,29.575-33.365,25.424-7.586-4.165-4.903-22.307,5.96-40.503z" fill="#00F"/>
</svg>
